<svg version="1.1" id="Camada_1" xmlns="http://www.w3.org/2000/svg" xmlns:xlink="http://www.w3.org/1999/xlink" x="0px" y="0px"
	 viewBox="0 0 1300 172.3" style="enable-background:new 0 0 1300 172.3;" xml:space="preserve">

	 <defs>
	 <style>


	 #Camada_1{

		fill:rgba(255, 255, 255, 0);
	 stroke-dasharray:2500;
	 stroke-dashoffset:0;
	 -webkit-animation: dash 8s linear forwards;
	 -o-animaiton: dash 8s linear forwards;
	 -moz-animation: dash 8s linear forwards;
	 animation: dash 10s linear infinite;
	 }

	 @-webkit-keyframes dash{
	 0%{
	 stroke-dashoffset: 2500;
	 }
	 100%{
	 stroke-dashoffset: -2500;
	 }}



	 </style>
	 </defs>


<style type="text/css">
.st0{stroke:#fff;stroke-width:3;stroke-miterlimit:10;}
.st1{fill:none;stroke:rgba(255, 255, 255, 0.1);stroke-width:4;stroke-miterlimit:10;}
</style>
<path class="st0" d="M0,136.5"/>
<path class="st1" d="M0,123.4c26.6,5.5,47.1,3.8,61.1,1.1c22.6-4.4,28.5-11.4,48.9-11.7c20.6-0.3,21.7,6.7,50,10.6
	c2.5,0.3,4.5,0.6,6.4,0.7c13,0.8,22.8-0.2,23.7-0.4c20-3,30.5-112.9,39-113.1c8-0.2,2.5,94.8,43.6,112.8c0.5,0.2,0.8,0.3,1.7,0.6
	c21.9,8.5,22.6,33.1,30.8,33.4c8.2,0.4,7.1-24.6,23.9-34c16.4-9.1,30.3,7.5,51.1-2.1c14.2-6.6,14.8-17.7,25.5-18.1
	c11.6-0.4,13.8,12.7,29.8,20.2c13.3,6.3,21,1.7,52.1,0c38.8-2.1,39.6,4.4,50,0C576.2,107.3,570,17.2,580.2,17
	c10.4-0.2,8.9,93.6,47.8,106.6c0.2,0.1,0.3,0.1,0.5,0.1c5.6,1.2,10.1,0.2,11.1,0c8.1-1.1,12.9,41.2,21.5,41.1
	c7.8-0.1,14-35.2,31.9-41.1c8.1-2.7,11.6,3.3,22.1,0.1c13.4-4.2,14.8-16.4,23.7-16.4c8.3,0,8.7,10.7,21,16.5c8.3,4,12.4,0,37.3,0.1
	c11,0,22.1,0.1,33.1,0.1c13.1,0,26.2,0.1,39.4,0.1c36.6,0.1,35.8,1.8,42.5,0.1c21.9-5.5,23.8-17.8,39.4-18
	c20.1-0.3,26.9,20.1,38.3,18.3c26.3-4.3,27.8-119.3,36.2-119.3c8.2,0,8.4,110.9,43.6,119.6c13.9,3.4,29.7-9.9,44.7,0.1
	c9.4,6.3,10.7,16.7,17.9,16.8c7.5,0.1,8.5-10.9,19.3-16.7c14.7-8,25.8,5.4,40.4,0.1c20.7-7.6,19.6-42.4,30.6-42.8
	c10.6-0.3,12,31.6,34.3,42.9c13.4,6.8,42.5,1.2,52.1-2"/>
</svg>
