<?xml version="1.0" encoding="utf-8"?>
<svg version="1.1" id="Camada_1" xmlns="http://www.w3.org/2000/svg" xmlns:xlink="http://www.w3.org/1999/xlink" x="0px" y="0px"
	 viewBox="0 0 1300 172.3" style="enable-background:new 0 0 1300 172.3;" xml:space="preserve">
	 <defs>
	 <style>


	 #Camada_1{

		fill:rgba(255, 255, 255, 0);
	 stroke-dasharray:2500;
	 stroke-dashoffset:0;
	 -webkit-animation: dash 8s linear forwards;
	 -o-animaiton: dash 8s linear forwards;
	 -moz-animation: dash 8s linear forwards;
	 animation: dash 10s linear infinite;
	 }

	 #Camada_2{
	 fill:rgba(255, 255, 255, 1);
	 stroke-dasharray:2500;
	 stroke-dashoffset:0;
	 -webkit-animation: dash 8s linear forwards;
	 -o-animaiton: dash 8s linear forwards;
	 -moz-animation: dash 8s linear forwards;
 animation: fill .8s;
	 animation: dash 10s linear infinite;

	 }

	 @-webkit-keyframes dash{
	 0%{
	 stroke-dashoffset: 2500;
	 }
	 100%{
	 stroke-dashoffset: -2500;
	 }}



	 </style>
	 </defs>

 <style type="text/css">
	.st0{stroke:#fff;stroke-width:3;stroke-miterlimit:10;}
	.st3{fill:none;stroke:rgba(255, 255, 255, 0.2);stroke-width:4;stroke-miterlimit:10;}

 </style>

<g id="Camada_2">
	<path class="st3" d="M0,123.4c26.6,5.5,47.1,3.8,61.1,1.1c22.6-4.4,28.5-11.4,48.9-11.7c20.6-0.3,21.7,6.7,50,10.6
		c2.5,0.3,4.5,0.6,6.4,0.7c13,0.8,22.8-0.2,23.7-0.4c20-3,30.5-112.9,39-113.1c8-0.2,2.5,94.8,43.6,112.8c0.5,0.2,0.8,0.3,1.7,0.6
		c21.9,8.5,22.6,33.1,30.8,33.4c8.2,0.4,7.1-24.6,23.9-34c16.4-9.1,30.3,7.5,51.1-2.1l10.3-5.5"/>
</g>
</svg>
