<?xml version="1.0" encoding="utf-8"?>
<!-- Generator: Adobe Illustrator 21.0.0, SVG Export Plug-In . SVG Version: 6.00 Build 0)  -->
<svg version="1.1" xmlns="http://www.w3.org/2000/svg" xmlns:xlink="http://www.w3.org/1999/xlink" x="0px" y="0px"
	 viewBox="0 0 1365 767" style="enable-background:new 0 0 1365 767;" xml:space="preserve">
<defs>
	<style>
	#Camada_2{
	fill:rgba(255,255,255,0);
	stroke:rgba(255, 255, 255,1);
	stroke-dasharray:1300;
	stroke-dashoffset:0;
	}
</style>
</defs>
<style type="text/css">
.st0{fill:none;stroke-width:2;stroke-miterlimit:10;}
</style>
<g id="Camada_2">
	<g>
		<path class="st0" d="M668.8,249.5c-2.7,2.7-5.3,5.3-8,8c-1.3,1.2-2.5,2.5-3.5,4c-1.7,2.6-2.4,5.8-2.8,8.9"/>
	</g>
	<g>
		<path class="st0" d="M651.8,281.7c-2.8,4.9-5.8,10.2-5.3,15.8c0.2,2.5,1,4.8,1.6,7.2c1,4,1.2,8.2,1.2,12.4c0,4.4-0.2,8.8-1.8,12.9
			c-2.6,6.7-8.8,12.4-8.1,19.6c0.4,4.8,4.1,8.8,8.3,11c4.3,2.2,9.1,2.8,13.9,3.3c14,1.5,28.1,1.9,42.2,0.8
			c-14.8,7.5-32.2,6.6-48.7,8c-5,0.4-10.1,1.1-15,0.2c-2.7-0.5-5.5-1.4-8.2-1.1s-5.6,2.4-5.4,5.2c12.2,3.3,25.2,2.4,37.6,0.5
			c12.5-1.9,24.9-4.9,37.5-5.4c-25.5,10.9-53.8,15.6-81.5,13.3c10.4,6.4,23.7,5.7,35.7,3.5c12-2.2,24.1-5.8,36.3-4.6
			c-22.9,8.3-48,14.6-71.4,7.9c-8.8-2.5-17.1-6.9-26-9.1"/>
	</g>
	<g>
		<path class="st0" d="M594.3,382.8c-1.5,0.4-0.3,2.7,1.1,3.5c24.9,13.9,54.1,19.9,82.4,17c-8.1,2.4-16.3,4.9-24.8,5.1
			c-7.2,0.2-14.3-1.3-21.3-3.1c-19.6-5.1-38.5-13.2-55.8-24c-0.2,3.5,2.5,6.5,5.6,8.1c3.1,1.6,6.6,2.1,9.9,3.1
			c12,3.4,22,13.3,25.6,25.2c-7.6-6.9-15.4-13.6-24.3-18.7c-12.7-7.3-27.1-11.3-41.3-15.1c3.8,4.5,8.8,7.8,13.8,10.9
			c16,9.9,33,18.4,50.6,25.2c-20.7-4.7-40.6-12.8-58.7-23.8c0.8,4.6-0.4,9.4-3.3,13.1c-0.1-7.9-3.4-15.7-9.1-21.1
			c-3.7-3.6-8.3-6.2-12.6-9.1c-6.3-4.3-12-9.5-18.4-13.8c-10-6.7-21.3-11-32.5-15.3c-20.3-7.7-40.6-15.4-61-23.2
			c7.7-0.2,15.2,1.7,22.7,3.6c20.6,5.2,41.4,10.4,61,18.6c11.9,5,23.4,11,35.8,14.4c11.6,3.1,23.7,3.8,35.6,3.6
			c16.9-0.3,34-2.4,50.1-7.7c3.5-1.1,7-2.5,9.8-4.9c2.8-2.4,4.5-1.3,4-4.9"/>
	</g>
	<g>
		<path class="st0" d="M549.4,410.1c4.2,1.1,8.4,2.3,12.5,3.8"/>
	</g>
	<g>
		<path class="st0" d="M570.4,426.5c11.4-1.1,22.5-4.3,32.8-9.3"/>
	</g>
	<g>
		<path class="st0" d="M616.4,415.1c4.3-1.2,8.3-3.7,11.3-7.1"/>
	</g>
	<g>
		<path class="st0" d="M644.3,417c-0.3,2,0.6,4,2.2,5.2c0.4-1.5,0.2-3.2-0.5-4.6"/>
	</g>
	<g>
		<path class="st0" d="M620,419c-2.6,3.1-6.5,4.7-10.2,6.2c-12.5,5-25.3,10.2-38.8,10.3"/>
	</g>
	<g>
		<path class="st0" d="M564.7,422.3c-3.8,0-7.6,0-11.3,0"/>
	</g>
	<g>
		<path class="st0" d="M546.3,421.5c-5.9-1.3-11.8-2.9-17.6-4.6"/>
	</g>
	<g>
		<path class="st0" d="M508.1,396.2c-3.9-1.8-7.6-4.2-10.8-7.1"/>
	</g>
	<g>
		<path class="st0" d="M483,374.7c-2.5-3.3-5.7-6.2-9.3-8.3"/>
	</g>
	<g>
		<path class="st0" d="M450.1,302c2.2-3.1,6.3-4.3,10.1-5.1c8.9-2,17.9-3.6,26.9-4.6"/>
	</g>
	<g>
		<path class="st0" d="M484.7,329.3c2.1-0.3,4.2-0.4,6.3-0.2"/>
	</g>
	<g>
		<path class="st0" d="M516,350c5.2,0,10.5,1,15.4,3"/>
	</g>
	<g>
		<path class="st0" d="M539.7,332.6c1,0.3,2.2,0.1,3-0.6c-0.4-0.1-0.9-0.2-1.3-0.1s-0.7,0.7-0.4,1.1"/>
	</g>
	<g>
		<path class="st0" d="M664,287.7c-1,2.2-2.3,4.3-3.6,6.3"/>
	</g>
	<g>
		<path class="st0" d="M655.6,305.7c0.9,9.3,3.3,18.4,7,26.9c1.3,3,2.8,6,3.1,9.2c0.3,3.2-0.6,6.6,0.5,9.6c0.6,1.7,1.8,3.1,2.8,4.6
			c1.5,2.3,2.5,5,3,7.7"/>
	</g>
	<g>
		<path class="st0" d="M870.4,197.7c-2.7,12-3.1,24.5-1,36.6c1.1,6.3,2.8,12.5,3.7,18.8c3.7,26.2-7.2,52.6-5.5,79
			c0.2,3.2,0.7,6.6,2.7,9.1c2.9,3.7,8.2,4.4,12.9,4.7c10.3,0.7,20.6,0.8,30.9,0.4c-11,1.2-22.1,2.4-33.1,3.6
			c-4.3,0.5-9.2,1.3-11.7,4.9c18.6,4.9,39,2.9,56.4-5.4c-10.6,7.7-23.9,11.3-37,11.6s-26.2-2.5-38.6-6.8
			c14.9,9.4,33.6,12.5,50.8,8.5c-9.3,4.2-19.9,4.8-30,3.4c-10.1-1.4-19.8-4.8-29.3-8.5c2,1.8,4,3.6,6,5.4
			c-12.2-9.4-30.4-2.1-44.9-7.1"/>
	</g>
	<g>
		<path class="st0" d="M868.9,340.2c-21.5,7-44.2,10.5-66.9,10.3"/>
	</g>
	<g>
		<path class="st0" d="M805.6,413.6c9.7-8.7,16.7-20.4,19.6-33.1"/>
	</g>
	<g>
		<path class="st0" d="M808.5,386.1c9.6-2.6,18.8-6.8,27.1-12.5c1.3-0.9,2.6-1.8,4.2-2c1.5-0.2,2.9,0.3,4.4,0.7
			c6.7,1.9,13.9,2.2,20.7,0.9c-5-0.1-10.2-0.3-14.8-2.3c-4.6-2-8.5-6.4-8.5-11.4"/>
	</g>
	<g>
		<path class="st0" d="M840.9,371.7c-4-1.6-7.6-4-10.7-7c0,2.4,0.1,4.8,0.6,7.1c-2-2.8-4.2-5.7-7.4-6.8c-1.7-0.6-3.5-0.6-5.2-0.8
			c-5.8-0.6-11.5-2.7-16.3-6"/>
	</g>
</g>
</svg>
