<?xml version="1.0" encoding="utf-8"?>
<!-- Generator: Adobe Illustrator 21.0.0, SVG Export Plug-In . SVG Version: 6.00 Build 0)  -->
<svg version="1.1" xmlns="http://www.w3.org/2000/svg" xmlns:xlink="http://www.w3.org/1999/xlink" x="0px" y="0px"
	 viewBox="0 0 1365 767" style="enable-background:new 0 0 1365 767;" xml:space="preserve">
	 <defs>
	 	<style>
	 	#Camada_4{
	 	fill:rgba(255,255,255,0);
	 	stroke:rgba(255, 255, 255,1);
	 	stroke-dasharray:1300;
	 	stroke-dashoffset:0;
	 	}
	 </style>
	 </defs>
	 <style type="text/css">
	 .st0{fill:none;stroke-width:2;stroke-miterlimit:10;}
	 </style>
<g id="Camada_4">
	<g>
		<path class="st0" d="M657.7,265c-1,2.8-1.9,5.6-2.9,8.4"/>
	</g>
	<g>
		<path class="st0" d="M438.4,331.1c22.7-0.8,45.6-1.5,67.8,3.3c8.4,1.8,16.7,4.4,25.1,6.6c32.1,8.2,66.1,9.4,98.7,3.3
			c5.1-0.9,10.6-2,15.3,0.3c2.3,1.1,4.1,3,6.2,4.4c4.6,3.1,10.2,3.9,15.7,4.4c15.6,1.3,31.5,0.1,46.7-3.7
			c-22,12.9-49.5,11.3-74.6,6.4c16.4,4,33.3,5.9,50.1,5.5c-21.7,7.3-45.3-0.9-68.2-0.4c4.5,2.9,10.1,3.6,15.4,4
			c15.3,1.2,30.7,1.7,46,1.2c-26.5,5.5-53.9,1.6-80.6-2.3c21.5,13.3,48.2,14,73.5,14.4c-42.9,5.6-86.6-4.9-126.5-21.5
			c32.3,23.1,70,38.5,109.3,44.6c-45.7-9.6-91.7-22-131-47.2c16.8,18.7,37.1,34.1,59.6,45.2c-36.8-8.6-58.2-51.1-95-59.4
			c-15.5-3.5-33.1-0.7-46.2-9.8"/>
	</g>
	<g>
		<path class="st0" d="M474.9,367.1c2.6,2.7,5.6,5.2,8.7,7.3"/>
	</g>
	<g>
		<path class="st0" d="M499.9,384.7c1.5,1,2.9,1.9,4.4,2.9c2,1.3,4.1,2.7,6.5,3.3"/>
	</g>
	<g>
		<path class="st0" d="M520.3,409.4c2.4,1.6,5,2.8,7.7,3.6"/>
	</g>
	<g>
		<path class="st0" d="M535.3,414.9c1.6,0.4,3.1,0.9,4.7,1.3"/>
	</g>
	<g>
		<path class="st0" d="M550.1,417.1c2.6,1,5.4,1.6,8.2,1.7"/>
	</g>
	<g>
		<path class="st0" d="M572.3,422.1c14.6,0.6,29.4-4.4,40.6-13.8"/>
	</g>
	<g>
		<path class="st0" d="M620.2,413.2c-5.3,6.7-14.1,9.5-22.3,11.9c-2.9,0.8-5.7,1.7-8.6,2.5c-1.7,0.5-3.6,1-5.3,0.6"/>
	</g>
	<g>
		<path class="st0" d="M605.2,422.9c4.2-3.3,7.4-7.8,9.3-12.8"/>
	</g>
	<g>
		<path class="st0" d="M611.3,397.3c-1.2,4.2-5.4,6.6-9.4,8.4c-5.6,2.5-11.3,4.5-17.2,6"/>
	</g>
	<g>
		<path class="st0" d="M579.3,412.7c-1.4,0-2.9,0-4.3,0"/>
	</g>
	<g>
		<path class="st0" d="M560.7,409.7c-1.1-0.5-2.3-1-3.4-1.6"/>
	</g>
	<g>
		<path class="st0" d="M549.7,405.7c-0.3-0.3-0.7-0.7-1-1"/>
	</g>
	<g>
		<path class="st0" d="M644.3,413.3c0.4,1.8,0.2,3.7-0.5,5.4"/>
	</g>
	<g>
		<path class="st0" d="M629.3,399c0,3.2-2.1,6.3-5.1,7.5"/>
	</g>
	<g>
		<path class="st0" d="M644.4,343.9c1.2,0.2,2.4-0.7,2.8-1.8c0.5-1.1,0.4-2.4,0.3-3.6c-0.8-9.4-2.2-18.7-2.2-28.1
			c-0.1-9.4,1.3-19,5.6-27.4"/>
	</g>
	<g>
		<path class="st0" d="M652.1,293c1.6,20.7,8.8,40.5,16,60"/>
	</g>
	<g>
		<path class="st0" d="M872.8,196.1c-2.5,10.8-5,21.8-3.6,32.8c0.7,5.1,2.2,10.1,3,15.2c1,5.9,1.1,12,1.2,18
			c0.2,18.5-0.4,37-1.6,55.4c-0.2,2.2-0.3,4.4-1.1,6.5c-1.3,3.2-4,5.5-6.8,7.4c-8.8,5.9-19.4,8.6-29.9,9.3
			c-10.6,0.7-21.1-0.6-31.6-2.1"/>
	</g>
	<g>
		<path class="st0" d="M870.3,323.6c-2,2.7-0.4,6.8,2.4,8.7c2.8,1.9,6.3,2.2,9.7,2.4c11,0.8,22.3,1.5,32.9-1.5
			c-19.5,8.2-41.2,10.8-62.1,7.5c16.8,3.1,34,4.3,51.1,3.5c7.9-0.4,16-1.2,23.4-4.1c-25,10.6-53.6,12.2-79.6,4.4
			c16.5,8.4,36,8.3,54.5,6.9c-20.3,5-42.1,4.1-62-2.5c5.4,8,15.3,11.6,24.6,13.9c-21.4,1.6-40.9-12.7-62.2-15.1"/>
	</g>
	<g>
		<path class="st0" d="M842,359.2c-2.6,4.9-6.3,9.2-10.7,12.6c-1.6,1.3-3.4,2.4-4.8,4c-1.7,1.9-2.6,4.3-3.6,6.6
			c-4.7,10.7-10.6,20.9-17.6,30.3"/>
	</g>
</g>
</svg>
