<?xml version="1.0" encoding="utf-8"?>
<!-- Generator: Adobe Illustrator 21.0.0, SVG Export Plug-In . SVG Version: 6.00 Build 0)  -->
<svg version="1.1" xmlns="http://www.w3.org/2000/svg" xmlns:xlink="http://www.w3.org/1999/xlink" x="0px" y="0px"
	 viewBox="0 0 1365 767" style="enable-background:new 0 0 1365 767;" xml:space="preserve">
	 <defs>
	 	<style>
	 	#Camada_5{
	 	fill:rgba(255,255,255,0);
	 	stroke:rgba(255, 255, 255,1);
	 	stroke-dasharray:1300;
	 	stroke-dashoffset:0;
	 	}
	 </style>
	 </defs>
	 <style type="text/css">
	 .st0{fill:none;stroke-width:2;stroke-miterlimit:10;}
	 </style>
<g id="Camada_5">
	<g>
		<path class="st0" d="M429.6,328.5c11.6-1.2,23.3-2.4,35-2.3c31.1,0.2,61.3,9.1,92,14s63.9,5.1,90.7-10.6c1.2-0.7,2.4-1.5,3-2.7
			c1-1.9,0.2-4.2-0.4-6.2c-3.6-11.8-1.6-25.3,5.4-35.5"/>
	</g>
	<g>
		<path class="st0" d="M656,275.5c-0.4-3.6,0.3-7.3,1.9-10.5"/>
	</g>
	<g>
		<path class="st0" d="M643.7,332c8.1,5.3,18.7,2.1,27.8-1.3c-9.1,5.6-19.6,8.8-30.3,9.3c18.2,2.9,37.4-0.7,53.3-10.1
			c-16.9,11-36.9,17.1-57.1,17.3c18.9,3.9,39,1.9,56.7-5.7c-9.5,8-22.5,10.2-34.9,11.3c-23.1,2-46.4,1.4-69.3-1.9
			c21.4,7.3,44.1,10.6,66.7,9.8c-23.5,1.7-47.1-0.1-70.5-1.9c25.6,7.1,52.4,10,79,8.8c-41,5.6-82.2-5.5-122-16.5
			c-1.2,1.5-0.7,3.8,0.6,5.2c1.3,1.4,3.2,2.1,5,2.7c18.2,6.2,36.9,10.7,56,13.4c-42.5-0.1-81.2-23-122.3-34.1
			c-17.3-4.6-35.1-7.2-52.9-9.7"/>
	</g>
	<g>
		<path class="st0" d="M461,326.1c6.8-1.9,13.7-3.7,20.5-5.3"/>
	</g>
	<g>
		<path class="st0" d="M485.4,325.8c3.3-1.9,7.3-2.9,11.1-2.7"/>
	</g>
	<g>
		<path class="st0" d="M499,313.9c9.2-0.7,17.9-4.2,26.7-7c16.7-5.3,34.3-8,51.8-8.2"/>
	</g>
	<g>
		<path class="st0" d="M481.3,338.4c2.5,3.5,5.5,6.6,8.9,9.3c3.4,2.7,7.2,4.9,11,6.9c24.8,13.4,52.9,20.9,81,20.5
			c10.9-0.2,22.2-1.7,31.2-7.8"/>
	</g>
	<g>
		<path class="st0" d="M612.8,377.2c-15,2.1-30.2,2.9-45.3,2.6c-8.9-0.2-17.9-0.8-26.5-3.3c-8.6-2.5-16.7-6.9-22.5-13.7"/>
	</g>
	<g>
		<path class="st0" d="M523.9,367.8c0.2,1,0.9,1.9,1.5,2.7c3.5,4.6,5.4,10.3,5.4,16c2.1-4.2,1-9.2-0.4-13.7"/>
	</g>
	<g>
		<path class="st0" d="M542.8,377.1c3.7,2,5.9,5.8,7.7,9.5c2.1,4.3,3.8,8.9,3.7,13.6c1.3-4.6,1.8-9.4,1.5-14.2
			c-0.2-2.5-0.6-5.2-2.2-7.1"/>
	</g>
	<g>
		<path class="st0" d="M570.7,380.1c7.9,3.3,13.9,10,18.7,17.1c-2.1-6.1-4.3-12.6-9-17"/>
	</g>
	<g>
		<path class="st0" d="M591,379.8c2.9,1.5,5.1,4.1,6.6,7s2.5,6,3.4,9.2c1.3,4.3,2.5,8.6,3.8,12.9c-0.1-2.1-0.1-4.2-0.2-6.3
			c-0.3-7.9-0.7-16.2-5.2-22.7"/>
	</g>
	<g>
		<path class="st0" d="M603.9,378.4c4.1,2.1,7.3,5.7,9.6,9.8c2.3,4,3.7,8.5,4.9,13c0.4-0.6,0.3-1.3,0.1-2c-1.7-7.3-4-14.5-6.9-21.4"
			/>
	</g>
	<g>
		<path class="st0" d="M530.8,355c0.2,2.5,2.6,4.2,4.4,6c1.2,1.2,2.2,2.5,3.4,3.8c3.3,3.4,7.6,5.6,11.9,7.6"/>
	</g>
	<g>
		<path class="st0" d="M475.3,367.8c-0.1,0.7,0.5,1.4,1,1.9c2.9,2.6,6.1,4.8,9.5,6.5"/>
	</g>
	<g>
		<path class="st0" d="M496.5,388.8c5.7,0.8,10,6.5,15.8,6.9"/>
	</g>
	<g>
		<path class="st0" d="M518.3,415.2c1.3,1,2.7,1.9,4.2,2.5"/>
	</g>
	<g>
		<path class="st0" d="M528.5,418.7c1.4,0.5,2.8,1.2,4,2.1"/>
	</g>
	<g>
		<path class="st0" d="M537.5,418.7c1.4,0.1,2.9,0.6,4,1.5"/>
	</g>
	<g>
		<path class="st0" d="M548.5,422.8c1,1,2.2,1.8,3.5,2.3"/>
	</g>
	<g>
		<path class="st0" d="M557,422.7c2,0.6,4,1.2,6,1.9"/>
	</g>
	<g>
		<path class="st0" d="M552.1,410.2c3.4,2.4,7.3,4.1,11.4,5"/>
	</g>
	<g>
		<path class="st0" d="M573,426.4c5.3,0.9,10.7,0.1,15.9-1.1c2.2-0.5,4.3-1,6.3-2c1.4-0.7,2.6-1.6,3.8-2.5
			c4.2-3.2,8.2-6.8,11.9-10.6"/>
	</g>
	<g>
		<path class="st0" d="M583.3,437.3c6.7-2.3,13-5.5,19.3-8.8c1.7-0.9,3.4-1.8,4.8-3c3.4-2.8,5.3-7,7-11"/>
	</g>
	<g>
		<path class="st0" d="M613,426.1c3-1.1,4.8-4.1,6.4-6.9"/>
	</g>
	<g>
		<path class="st0" d="M623.4,411.7c0.7-1.2,1.9-2,2.7-3.1c1-1.4,1.3-3.2,0.8-4.8"/>
	</g>
	<g>
		<path class="st0" d="M594,407c3.3-1,6.3-2.9,8.6-5.5"/>
	</g>
	<g>
		<path class="st0" d="M604.4,400c3.9-2.4,6.5-6.4,9-10.3"/>
	</g>
	<g>
		<path class="st0" d="M617,386.3c2.3-3,4.1-6.3,5.3-9.8"/>
	</g>
	<g>
		<path class="st0" d="M642.5,417c0.9,1.6,1.8,3.2,2.6,4.8c0.3-0.9,0.2-1.8-0.1-2.6c-0.1-0.4-0.4-0.8-0.8-0.9s-0.9,0.1-0.9,0.5"/>
	</g>
	<g>
		<path class="st0" d="M656.6,297.8c-3.6,8.6-3,18.8,1.6,26.9c1.5,2.6,3.4,5.1,3.6,8.1"/>
	</g>
	<g>
		<path class="st0" d="M665.8,361.5c0.6,3.9,1.1,8.2-1.3,11.3"/>
	</g>
	<g>
		<path class="st0" d="M868.6,203.2c1.2,3.4,1.5,7.2,0.8,10.8c-0.3,1.7-0.9,3.5-2.2,4.7c-2.1,2-5.3,2-8.1,1.8"/>
	</g>
	<g>
		<path class="st0" d="M866.3,219.1c0.8,4.4,2.2,8.7,3.5,12.9c6.3,21.4,9.3,43.7,8.8,66c-0.1,5.2-0.4,10.6-2.1,15.5
			s-4.8,9.6-9.5,12.1c-3,1.6-6.4,2.2-9.8,2.7c-17.3,2.4-35,1.9-52.1-1.4"/>
	</g>
	<g>
		<path class="st0" d="M868.7,325.7c4.8,2.3,10.3,2.8,15.6,3.1c18.1,1,36.2,0.8,54.2-0.6c-25.2,4.3-50.9,5.4-76.3,3.3
			c18.2,4.3,36.9,6.3,55.6,5.4c-21.8,2.9-44,2.9-65.7-0.2c2.6,2.3,5.9,3.6,9.2,4.9c10,3.9,20,7.6,30.2,10.9
			c-16.4-1.7-32.5-6.3-47.3-13.4c-0.9,3.1,0.4,6.3,1.8,9.2c2.4,5.1,5,10.2,7.6,15.2c-14.9-11-31-22.4-49.5-22.7"/>
	</g>
	<g>
		<path class="st0" d="M806.5,413.8c4-5.3,5.8-12.2,5.1-18.8"/>
	</g>
	<g>
		<path class="st0" d="M807.5,399c4-4.5,8.2-9.2,9.8-15c0.2-0.9,0.4-1.8,0.7-2.7c1.1-3,3.6-5.2,6.1-7.2"/>
	</g>
	<g>
		<path class="st0" d="M807.7,363.3c2.7,0,5.3-0.1,8-0.1c1.2,0,2.5,0,3.5,0.6c1,0.5,1.6,1.5,2.2,2.4c3,4.5,5.7,9.2,8.3,14
			c-1.1-5.7-2.7-11.4-4.7-16.9c0.6-0.5,1.5-0.1,2.1,0.4c4,3.1,7.4,6.9,10,11.2c-2.3-4.4-3.4-9.4-3.1-14.3c0.9-0.3,1.8,0.5,2.5,1.2
			c4.3,4.3,8.6,8.6,12.9,13c-2.4-6.6-5.4-13.1-8.9-19.3"/>
	</g>
	<g>
		<path class="st0" d="M806.2,350.3c1.2,4.7,4.1,9,8,11.9"/>
	</g>
	<g>
		<path class="st0" d="M854.4,327.9c-4.8-3.9-11.5-4.1-17.6-4.2c-5.5,0-11-0.1-16.4-0.1"/>
	</g>
</g>
</svg>
