<?xml version="1.0" encoding="utf-8"?>
<!-- Generator: Adobe Illustrator 21.0.0, SVG Export Plug-In . SVG Version: 6.00 Build 0)  -->
<svg version="1.1" xmlns="http://www.w3.org/2000/svg" xmlns:xlink="http://www.w3.org/1999/xlink" x="0px" y="0px"
	 viewBox="0 0 1365 767" style="enable-background:new 0 0 1365 767;" xml:space="preserve">
	 <defs>
	 	<style>
	 	#Camada_6{
	 	fill:rgba(255,255,255,0);
	 	stroke:rgba(255, 255, 255,1);
	 	stroke-dasharray:1300;
	 	stroke-dashoffset:0;
	 	}
	 </style>
	 </defs>
	 <style type="text/css">
	 .st0{fill:none;stroke-width:2;stroke-miterlimit:10;}
	 </style>
<g id="Camada_6">
	<g>
		<path class="st0" d="M428.2,328.8c7.6,2.7,15.8,2.5,23.9,2.2c72.9-2.2,146-1.3,218.9,2.7c19.5,1.1,39.5,2.3,58.1-3.8
			c-19.5,2.6-39.4,2.6-58.8-0.1c11.2-0.8,22.2-3.7,32.3-8.6c-4.3-0.1-8.7-0.1-13-0.2c9-2.4,17.1-7.5,23.2-14.6
			c-16.3,8.1-35.1,16.4-51.9,9.7c1.8-4.6,5.2-8.6,9.5-11.1c-4.5,1.6-9,3.2-13.5,4.8c5.4-3,10.1-7.1,13.8-11.9
			c-17.4,4.3-30.9,22-48.7,20.5c-1.4-0.1-3-0.6-3.4-1.9c-0.4-1.3,0.8-2.6,1.8-3.5c9.6-8.4,19.1-16.7,28.7-25.1
			c-12.2,5.3-23.1,13.1-35.1,18.9c-12,5.8-25.8,9.5-38.5,5.7c14.3-5.6,27.6-13.4,39.5-23c-21.2,6.8-40.2,20-61.9,24.6
			c-15.4,3.3-31.4,2.1-47.1,3.1c-25.7,1.7-50.6,9.3-76.3,11.4"/>
	</g>
	<g>
		<path class="st0" d="M477.2,330.4c11.4,9.8,26.3,14.4,39.4,21.8c8.1,4.5,15.6,10.2,24,14.2c4,1.9,8.3,3.5,12.5,5
			c5.4,2,10.8,3.9,16.4,4.6c11.4,1.4,22.7-2.6,33.5-6.5c7.6-2.7,15.2-5.5,21.7-10.2"/>
	</g>
	<g>
		<path class="st0" d="M629.7,361c-1,6.4-5.3,11.9-10.1,16.2c-2.2,2-4.6,3.9-7.5,4.6"/>
	</g>
	<g>
		<path class="st0" d="M463.3,330.7c14.3,16.6,33.5,28,52.4,39.1c11.7,6.9,23.4,13.8,35,20.7"/>
	</g>
	<g>
		<path class="st0" d="M556.3,389.2c2.2-1.4,4.5-2.5,7.1-2.8s5.3,0.4,7,2.3c2.1,2.2,2.8,5.8,5.6,7c1.4,0.6,2.9,0.4,4.4,0.2"/>
	</g>
	<g>
		<path class="st0" d="M554,371.7c-9-11.5-11.3-27.9-5.9-41.4"/>
	</g>
	<g>
		<path class="st0" d="M614.1,364.9c4.5-8.3,9.1-16.6,13.6-24.9c1.4-2.5,2.8-5.1,3.2-8"/>
	</g>
	<g>
		<path class="st0" d="M625.3,331.6"/>
	</g>
	<g>
		<path class="st0" d="M568.5,330.2"/>
	</g>
	<g>
		<path class="st0" d="M617.4,331.4"/>
	</g>
	<g>
		<path class="st0" d="M551,391c1.9-1.1,4.4-0.2,5.7,1.6c1.3,1.7,1.5,4.1,1.4,6.2c-0.2,4.4-1.8,8.7-4.4,12.3
			c0.3-6.7-0.7-13.4-3.1-19.6"/>
	</g>
	<g>
		<path class="st0" d="M580,395.7c-0.3-1.2,0.4-2.5,1.4-3.3c1-0.8,2.3-1.1,3.5-1.3c0.6-0.1,1.2-0.2,1.7,0.1c0.6,0.3,0.9,0.8,1.2,1.3
			c2.5,4.2,3.7,9.2,3.5,14.1c0,0.7-0.4,1.6-1,1.3c-0.2-0.1-0.3-0.2-0.4-0.4c-2.9-4-5.1-8.8-9.3-11.4"/>
	</g>
	<g>
		<path class="st0" d="M595.2,391.1c0.5-0.8,1.7-1,2.5-0.5c0.8,0.4,1.4,1.3,1.9,2.1c4.5,7.5,7.1,16.4,5.5,25
			c-2.2-7.3-4.9-14.5-8.3-21.4c-0.8-1.6-1.6-3.2-1.9-4.9"/>
	</g>
	<g>
		<path class="st0" d="M606.8,388.1c1.1,2.4,2.6,4.5,3.9,6.7c2.6,4.3,4.7,8.9,6.3,13.8c0.7-0.5,0.8-1.5,0.7-2.3
			c-0.1-5.6-1.2-11.3-3.3-16.5c-0.6-1.4-1.2-2.9-2.5-3.6s-3.3-0.5-3.8,1"/>
	</g>
	<g>
		<path class="st0" d="M663.2,333.5c-2.2,3-1.6,7.2-0.1,10.6c1.5,3.4,3.9,6.3,5.3,9.8c1.8,4.6,1.7,9.7,1.6,14.7
			c-0.1,2.4-0.1,4.7-0.2,7.1"/>
	</g>
	<g>
		<path class="st0" d="M650.6,332.8c-1,1.8-2.1,3.6-3,5.5c-3.6,7.7-4,16.5-4.4,25c-2.7-5.4-2.6-11.8-5.2-17.2
			c-1-2.2-2.5-4.2-3.4-6.5c-0.9-2.3-1.3-4.9-0.1-7.1"/>
	</g>
	<g>
		<path class="st0" d="M516.7,415c8.5,3.2,17.3,5.4,26.1,7.6c2.9,0.7,5.9,1.4,8.9,1.1"/>
	</g>
	<g>
		<path class="st0" d="M570.3,427.4c10.8-1.4,21.4-4.4,31.3-8.8"/>
	</g>
	<g>
		<path class="st0" d="M607.4,415.7c1.8-1.3,3.3-2.9,4.6-4.8"/>
	</g>
	<g>
		<path class="st0" d="M619.3,419.6c-7.7,8.5-19,12.5-29.9,16.3c-2.8,1-5.7,2-8.7,2.4"/>
	</g>
	<g>
		<path class="st0" d="M625.7,410.7c1.1-1.9,2.3-3.8,3.4-5.6"/>
	</g>
	<g>
		<path class="st0" d="M474.7,368.6c1.2,1.7,2.8,3.2,4.5,4.5"/>
	</g>
	<g>
		<path class="st0" d="M499.6,389.8c3.1,2.1,6.4,4.1,9.8,5.8"/>
	</g>
	<g>
		<path class="st0" d="M519,400.6c0.2,0.1,0.4,0.2,0.7,0.3"/>
	</g>
	<g>
		<path class="st0" d="M551.7,411.6c3.1,1,6.2,2.1,9.3,3.1"/>
	</g>
	<g>
		<path class="st0" d="M585.3,415.3c3.2-1.1,6.3-2.4,9.3-4"/>
	</g>
	<g>
		<path class="st0" d="M605.5,406.9c1.7-1.5,3.5-2.9,5.2-4.4"/>
	</g>
	<g>
		<path class="st0" d="M618.6,394.3c1.9-2.3,3.8-4.7,5.7-7"/>
	</g>
	<g>
		<path class="st0" d="M466.2,323.4c15.4-6.8,30.8-13.6,46.8-18.9c14-4.6,28.6-7.9,43.3-8.4"/>
	</g>
	<g>
		<path class="st0" d="M493.7,318.5c1.9-0.3,3.7-1.2,5.5-2c12.4-5.8,25.8-9,39.2-12.1"/>
	</g>
	<g>
		<path class="st0" d="M575,289.2c3.6-1,7.4-1.3,11-0.7"/>
	</g>
	<g>
		<path class="st0" d="M621.7,285.6c4.1,0.3,8.2,1.4,12,3.1"/>
	</g>
	<g>
		<path class="st0" d="M661.3,258.5c-2.3,4.3-4.1,8.8-5.3,13.5"/>
	</g>
	<g>
		<path class="st0" d="M652.6,280.7c-1.4,2.9-4.9,4.8-5.3,8"/>
	</g>
	<g>
		<path class="st0" d="M644.4,418.3c0.4,1.1,0.9,2.2,1.5,3.3c0.4-0.8,0-1.9-0.8-2.3"/>
	</g>
	<g>
		<path class="st0" d="M867.8,200.4c-0.7,2.3,0.4,4.7,1.2,7c0.7,2.3,0.8,5.3-1.2,6.7c-0.8,0.6-1.9,0.7-2.9,0.9
			c-1.8,0.3-3.5,0.5-5.3,0.8"/>
	</g>
	<g>
		<path class="st0" d="M866.6,215.4c-2,10.2,4.7,19.7,7.8,29.6c1.8,5.7,2.3,11.7,2.6,17.7c0.2,5.3,0.2,10.6,0,16
			c-0.2,3.6-0.4,7.2-1.9,10.5s-4.5,6-8,6.4"/>
	</g>
	<g>
		<path class="st0" d="M875.1,290.6c2.5,1.7,5.2,3.9,5.3,6.9c0.1,2.7-1.9,5-4.2,6.2c-2.4,1.2-5.1,1.3-7.8,1.5c-19,1.1-38,2.2-57,1.3
			"/>
	</g>
	<g>
		<path class="st0" d="M879.4,301.1c13.2,4.8,27.7,3.3,41.6,1.7c5.1-0.6,10.2-1.2,15.3-1.8c-2.2,2.3-5.6,2.8-8.7,3.2
			c-15,2-30.1,2.7-45.2,2.3c19.7,4.4,40.3,4.4,59.9,0c-7.6,3-15.7,3.9-23.8,4.6c-10,0.9-20,1.4-30,1.5c21,0.9,42.5,1.7,62.7-3.9
			c-19.1,7-39.8,8.3-60.1,8.5c18.8,2.2,37.9,2.4,56.7,0.6c-18.9,1.9-37.8,3.9-56.7,2.9c15.8,3.2,31.9,5.2,48,6
			c-17.7,3.6-36.1,0.7-53.8-3.1c-17.7-3.9-35.3-8.7-53.4-9.1c-8.1-0.2-16.3,0.5-24.3-0.7"/>
	</g>
	<g>
		<path class="st0" d="M804.6,356.5c7.1,1.2,14.3,1.7,21.5,1.5c2.8-0.1,5.8-0.3,7.8-2.2c0.6-0.6,1.1-1.3,1.8-1.8
			c1.8-1.3,4.7-0.4,5.7,1.6c1,2,0.1,4.6-1.7,5.9c-1.6,1.1-3.7,1.3-5.7,1.5c-10,0.7-20.6,1.1-29.4-3.6"/>
	</g>
	<g>
		<path class="st0" d="M812.3,349.3c1.5,4,4.5,7.9,8.7,8.5"/>
	</g>
	<g>
		<path class="st0" d="M821.1,314.2c-3.6,5.1-6.9,10.6-8.7,16.6"/>
	</g>
	<g>
		<path class="st0" d="M837.2,354.2c8.4-8.5,14.9-18.8,19.1-30c0.7-2,1.4-4.2,1-6.2"/>
	</g>
	<g>
		<path class="st0" d="M827.7,323.8"/>
	</g>
	<g>
		<path class="st0" d="M838.3,314.6"/>
	</g>
	<g>
		<path class="st0" d="M841.7,354.7c4.6,0.7,8.5,4.4,9.3,9c-1.5-2-3.7-3.5-6.1-4.2c2.4,3.5,3.9,7.7,4,12c-2-3.7-5.8-6.2-10-6.7
			c1.6,3.3,1.4,7.5-0.6,10.6c-1.9-3.3-4.7-6-8.1-7.9c0.3,2.2,0.1,4.5-0.5,6.7c-2.2-4.6-6.2-8.2-11-10c1.5,4.3,2.9,8.5,4.4,12.8
			c-5.1-6.8-11.9-12.5-19.5-16.3"/>
	</g>
	<g>
		<path class="st0" d="M806.1,415.2c4.2-6.6,6.1-14.5,5.5-22.2"/>
	</g>
	<g>
		<path class="st0" d="M806,401.6c2.8-2.9,4.9-6.5,6.2-10.3c0.1-0.2,0.1-0.5,0-0.7c-0.1-0.3-0.5-0.3-0.9-0.3c-1.5,0-2.9,0-4.4,0
			c2.1,1.5,5.2,0.8,7.1-1c1.9-1.8,2.6-4.5,2.9-7c-3.3,2-7.1,3.3-10.9,3.8c8.9-1.6,17.9-6.2,21.8-14.4"/>
	</g>
	<g>
		<path class="st0" d="M863.3,295c-6.4-0.1-12.9,0.1-19.3,0.7"/>
	</g>
	<g>
		<path class="st0" d="M862.6,301.9c-9.3-1.6-19-0.7-27.9,2.5"/>
	</g>
	<g>
		<path class="st0" d="M825,283.6c3.6-0.7,7.3-0.9,11-0.6"/>
	</g>
	<g>
		<path class="st0" d="M848.3,275c0.1,0.2,0.3,0.4,0.4,0.6"/>
	</g>
	<g>
		<path class="st0" d="M851.7,260.3c1.1,0.1,2.3-0.1,3.3-0.7"/>
	</g>
	<g>
		<path class="st0" d="M622.6,331.8c-0.3,8.3-2.7,16.5-6.5,23.9c-3.1,6-7.4,11.9-13.6,14.4"/>
	</g>
</g>

</svg>
