<?xml version="1.0" encoding="utf-8"?>
<!-- Generator: Adobe Illustrator 21.0.0, SVG Export Plug-In . SVG Version: 6.00 Build 0)  -->
<svg version="1.1" xmlns="http://www.w3.org/2000/svg" xmlns:xlink="http://www.w3.org/1999/xlink" x="0px" y="0px"
	 viewBox="0 0 1365 767" style="enable-background:new 0 0 1365 767;" xml:space="preserve">
	 <defs>
	 	<style>
	 	#Camada_3{
	 	fill:rgba(255,255,255,0);
	 	stroke:rgba(255, 255, 255,1);
	 	stroke-dasharray:1300;
	 	stroke-dashoffset:0;
	 	}
	 </style>
	 </defs>
	 <style type="text/css">
	 .st0{fill:none;stroke-width:2;stroke-miterlimit:10;}
	 </style>
<g id="Camada_3">
	<g>
		<path class="st0" d="M448.3,332.9c11.9,0.3,24,1.7,35.9,2c7.1,0.2,14.2,0.3,21.1,1.8c7.7,1.6,15,4.8,22.4,7.7
			c24.1,9.3,49.9,15,75.6,13c8-0.6,16-2,24-1.8c13.6,0.3,26.7,5,40.1,7.3c13.4,2.3,28.5,1.7,38.9-7c-25.3,16.5-57.8,16.9-87.8,13.6
			c26,7.7,53.6,6.5,80.6,5.3c-39,11.3-81.9,8.1-118.8-8.7c-1.9,2,1.1,4.8,3.7,5.8c34.9,12.8,72.8,17.4,109.8,13.3
			c-23.9,6-49.1,5.6-73.2,1c-24.2-4.7-47.4-13.5-69.5-24.2c4.6,7.7,12.8,12.5,20.9,16.4c29,13.9,61.5,20.3,93.6,18.7
			c-16.5,5.7-34.6,3.7-51.7,0.6c-25.1-4.5-50.8-11.6-70.3-28.1c7.7,7.6,12.3,18.3,12.6,29.1c-10-8.1-16.5-19.6-24.2-30
			c-2.6-3.5-5.3-6.8-8.4-9.9c-9.5-9.5-22.1-16-35.4-18.1c-9.5-1.5-19.4-0.9-28.7-3.6c-7.6-2.2-14.7-6.6-22.6-6.5"/>
	</g>
	<g>
		<path class="st0" d="M635.8,356.3c2.9-3.5,4.3-8.3,3.7-12.9"/>
	</g>
	<g>
		<path class="st0" d="M637.6,342.7c2.4,1,5.2,0.6,7.3-0.9c2-1.6,3.1-4.2,2.8-6.8c-0.2-1.7-1-3.2-1.4-4.9c-0.4-1.7-0.5-3.5-0.5-5.3
			c-0.1-7.8-0.3-15.7-0.4-23.5c0-3.1-0.1-6.3,1-9.2c1.3-3.5,4.1-6.2,6.8-8.8"/>
	</g>
	<g>
		<path class="st0" d="M655,273.5c0-3.4,1.3-6.9,3.6-9.5"/>
	</g>
	<g>
		<path class="st0" d="M450,302c11.3-5.2,23.6-8.1,36-8.7"/>
	</g>
	<g>
		<path class="st0" d="M474,319.2c-7.4-0.9-15.1,0-22.1,2.6c-2.3,0.8-4.6,1.9-6.9,2.6c-7.2,2.3-14.9,1.9-22.4,1.5"/>
	</g>
	<g>
		<path class="st0" d="M655.9,305.6c-1.7,6.4,1.3,13,4.3,18.8c3,5.8,6.4,12.1,5.7,18.6c-0.4,3.2-1.6,6.7,0,9.5
			c0.8,1.3,2.2,2.2,3.3,3.3c1.8,1.8,3.1,4.1,3.5,6.6"/>
	</g>
	<g>
		<path class="st0" d="M660.5,294c1.4-2,2.8-3.9,4.1-5.9"/>
	</g>
	<g>
		<path class="st0" d="M570.5,426.2c10.9-2.1,21.6-4.9,32-8.5"/>
	</g>
	<g>
		<path class="st0" d="M628,407.5c-3.6,2-7.3,4.1-10.9,6.1"/>
	</g>
	<g>
		<path class="st0" d="M644.8,417.1c0,0.8,0,1.8,0.5,2.4c0.5,0.7,1.7,0.9,2.1,0.1c0.4-0.6-0.1-1.5-0.5-2.1"/>
	</g>
	<g>
		<path class="st0" d="M620.6,418.8c-15.5,7.7-31.9,15.4-49.2,15.5"/>
	</g>
	<g>
		<path class="st0" d="M508.5,396.4c-5.3-1.1-9.9-4.9-12.1-9.9"/>
	</g>
	<g>
		<path class="st0" d="M482.4,375.6c-2.1-4.3-5.5-8-9.7-10.3"/>
	</g>
	<g>
		<path class="st0" d="M529,416.8c5.5,1.5,10.9,3,16.4,4.5"/>
	</g>
	<g>
		<path class="st0" d="M553.5,422c3.1,0.6,6.3,0.7,9.5,0.5"/>
	</g>
	<g>
		<path class="st0" d="M561.6,413.8c-4-1.8-8.3-3.2-12.6-4.2"/>
	</g>
	<g>
		<path class="st0" d="M871.5,197.4c-5,10.5-4.3,22.8-2.2,34.3c2.1,11.5,5.4,22.8,5.3,34.4c-0.1,8.2-1.9,16.3-3.3,24.4
			c-2.4,13.4-3.6,27.1-3.7,40.7c0,1.6,0,3.2,0.8,4.5c1,1.8,3.1,2.7,5.1,3.3c13.8,4.6,29.2,4.2,42.7-1.1c-8,6.7-18.7,9.8-29.2,9.8
			c-10.5,0-20.8-2.8-30.5-6.8c-1.9,1.5-1.4,4.6,0.3,6.3c1.7,1.6,4.2,2.2,6.5,2.5c23.4,3.7,47.7,0.8,69.5-8.5
			c-11.6,12.2-29.9,14.9-46.7,15.1c-11.8,0.1-23.5-0.6-35.2-2.3c11.6,8.1,26.9,8.3,41.1,8.2c-15,2.2-30.4,0.8-44.7-4.1
			c3.4,7.7,12,12.7,20.4,11.9c-6.8,2.6-14.4,0.4-21.2-2.3c-6.8-2.7-13.6-6-20.9-5.7c-6.8,0.3-17.4,3.6-23.4,0.2"/>
	</g>
	<g>
		<path class="st0" d="M867.5,333.1c-18,9.4-45.2,14.8-65.5,13.1"/>
	</g>
	<g>
		<path class="st0" d="M847.1,368.6c-10.6,7.2-22.5,12.6-35,15.7"/>
	</g>
	<g>
		<path class="st0" d="M825,380.5c-3.4,12.1-10.1,23.2-19.2,31.8"/>
	</g>
</g>
</svg>
