<?xml version="1.0" encoding="utf-8"?>
<!-- Generator: Adobe Illustrator 21.0.0, SVG Export Plug-In . SVG Version: 6.00 Build 0)  -->
<svg version="1.1" id="Camada_1" xmlns="http://www.w3.org/2000/svg" xmlns:xlink="http://www.w3.org/1999/xlink" x="0px" y="0px"
	 viewBox="0 0 1365 767" style="enable-background:new 0 0 1365 767;" xml:space="preserve">
<defs>
<style>
#Camada_1{
fill:rgba(255,255,255,0);
stroke:rgba(255, 255, 255,1);
stroke-dasharray:1300;
stroke-dashoffset:0;
}


</style>
</defs>
<style type="text/css">
.st0{fill:none;stroke-width:2;stroke-miterlimit:10;}
</style>
<g id="Camada_1">
	<g>
		<path class="st0" d="M-3,579.7c5.1-3.4,10.3-6.8,15.4-10.2c2.2-1.4,4.6-3.3,4.7-5.9c0-1.2-0.5-2.4-0.2-3.6c0.3-1.4,1.7-2.4,3-3.2
			c7.3-4.5,14.5-9.1,21.8-13.6c2-1.2,4.1-2.5,6.4-2.4c2.5,0.1,4.7,1.8,6.1,3.9c1.4,2.1,2,4.5,2.7,7c0.5,1.8,0.8,4.3-0.9,5.2
			c-2,1.1-4.1-1.2-5.1-3.3c-1.9-3.8-3.6-7.8-5-11.8"/>
	</g>
	<g>
		<path class="st0" d="M30.3,551c1.3,3.3,5.6,4.9,8.8,3.4c18.4,46.2,41.4,90.4,65.6,133.8c14.1,25.2,29.5,51.3,54.3,66.2"/>
	</g>
	<g>
		<path class="st0" d="M56.6,556.6c14.5,31.9,28.9,63.7,43.4,95.6c4.4,9.8,8.9,19.6,15,28.4c4.7,6.9,10.4,13,14.9,20
			c5.5,8.3,9.2,17.7,14.4,26.2c5.2,8.5,12.3,16.5,21.7,19.7"/>
	</g>
	<g>
		<path class="st0" d="M146.7,769.4c6.1-7.4,12.2-14.8,18.3-22.2c4.3-5.2,9.5-10.8,16.2-10.7c5.1,0.1,9.5,3.8,13.3,7.2
			c10.9,9.7,21.8,19.4,32.7,29"/>
	</g>
	<g>
		<path class="st0" d="M171.1,740.5c7.8,1.7,15.1,5.4,20.9,10.8"/>
	</g>
	<g>
		<path class="st0" d="M196.4,756.9c4.7,3.2,8.9,7.2,12.3,11.7"/>
	</g>
	<g>
		<path class="st0" d="M154.2,760.7c-13.9-5.6-26.4-14.4-36.5-25.5c-0.9-1-1.9-2.1-3.1-2.8c-2.4-1.3-5.5-0.9-8,0.3
			c-6.2,3-9.7,9.5-12.8,15.7c-0.6,1.1-1.1,2.3-1.1,3.5c0.1,1.3,0.8,2.4,1.6,3.5c5.2,6.9,12.5,12.2,20.6,15"/>
	</g>
	<g>
		<path class="st0" d="M115.8,771c-1.3-3.8,1.3-7.7,3.8-10.9c3.6-4.7,7.6-9.7,13.4-11.3"/>
	</g>
	<g>
		<path class="st0" d="M141,754.2c-7.5,2-13.8,7.6-16.7,14.8"/>
	</g>
	<g>
		<path class="st0" d="M65.7,769.7c5.3-2.2,6.5-9,10.4-13.3c4-4.4,11.1-5.4,16.1-2.4"/>
	</g>
	<g>
		<path class="st0" d="M185.6,611.1c-0.8-0.3-1.8-0.1-2.4,0.6c0.8,0.6,2.1,0.2,2.4-0.8c-0.6-0.3-1.4,0-1.6,0.7
			c0.9,0.2,1.8-0.4,2-1.3c-0.6,0.2-1.1,0.4-1.7,0.6"/>
	</g>
	<g>
		<path class="st0" d="M279.1,621.7c-3.6,3.8-8.4,6.5-13.4,7.8"/>
	</g>
	<g>
		<path class="st0" d="M153.7,610.3c0.2,0.5,1,0.6,1.3,0.1c0.3-0.5-0.1-1.2-0.7-1.2"/>
	</g>
	<g>
		<path class="st0" d="M-3.5,559.3c5.3-4.9,10.6-9.8,15.8-14.6c5.2-4.8,10.6-9.7,16.9-13c6.4-3.2,14-4.6,20.7-2.2
			c0.5,0.2,1,0.5,1.1,1c0.1,0.5-0.3,1-0.6,1.4c-1.6,2.2-2,5.3-0.8,7.8"/>
	</g>
	<g>
		<path class="st0" d="M43.3,541.5c-2.2-4.1-4.8-8.1-7.7-11.8"/>
	</g>
	<g>
		<path class="st0" d="M-9.5,63.8c12.8,8.5,25.5,17,38.3,25.5c7.7,5.1,15.4,10.3,22.4,16.3c8.2,7.1,15.4,15.4,22.1,24
			c53.8,68.9,77.9,160.2,65.2,246.7"/>
	</g>
	<g>
		<path class="st0" d="M138.9,376c-7,32.8-17.1,65-30.2,95.9c-3.3,7.7-6.8,15.4-11.2,22.5c-4.2,6.6-9.1,12.7-14.1,18.8
			c-4.7,5.8-9.5,11.6-14.2,17.4c-4.4,5.4-9.8,11.3-16.7,11.2"/>
	</g>
	<g>
		<path class="st0" d="M-2.9,116.2c16.6,8.9,29.8,23.2,40,39.1s17.6,33.3,24.9,50.7c2.2,5.3,4.5,10.5,6.4,15.9
			c1.7,4.6,3.1,9.4,4.3,14.2c1.5,5.9,2.6,11.9,3.6,17.9c5.3,29.7,10.2,59.9,7.3,90"/>
	</g>
	<g>
		<path class="st0" d="M83.6,344c-5.5,59.6-16.3,89.6-50.8,140.7C22.7,499.6,10,514.4-7.4,518.9"/>
	</g>
	<g>
		<path class="st0" d="M-3,184.8c2.9-0.8,5.2-3,7.5-4.9c10.5-8.7,24.6-13.1,33.2-23.6"/>
	</g>
	<g>
		<path class="st0" d="M-1.7,209.8c5.4-4.1,10.9-8.1,16.3-12.2c4.9-3.7,9.8-7.4,15.2-10.5c6.2-3.6,13-6.4,18.9-10.5"/>
	</g>
	<g>
		<path class="st0" d="M13,103.5c-0.1,2.2,0,4.3,0.3,6.5c0.1,0.5,0.2,1.1,0.6,1.5c0.4,0.3,0.8,0.4,1.3,0.4c2.6,0.3,5.2,0.2,7.8-0.3"
			/>
	</g>
	<g>
		<path class="st0" d="M23.6,111c0-2.8,0-5.6,0-8.5c0-0.8-0.1-1.7-0.7-2.2c-0.6-0.4-1.5-0.2-2.2,0.1c-2.5,0.9-5.1,1.8-7.6,2.6"/>
	</g>
	<g>
		<path class="st0" d="M14.5,112c18.1,11,29.7,29.9,40.4,48.1c0.5,0.8,1.1,1.8,2,2.1c0.9,0.3,1.9,0,2.8-0.4
			c3.4-1.3,6.7-2.5,10.1-3.8c0.8-0.3,1.7-0.7,2-1.4c0.4-0.9-0.1-2-0.6-2.9c-12.3-20.8-28.9-39.1-48.6-53.2"/>
	</g>
	<g>
		<path class="st0" d="M59.3,152.1c-4.1-7.3-8.2-14.6-13.3-21.2c-6.1-7.8-13.6-14.5-22.1-19.6"/>
	</g>
	<g>
		<path class="st0" d="M112,227.7c1.3-0.6,2.9-0.8,4.3-0.2c1.3,0.6,2.3,2.1,2.1,3.5s-2,2.5-3.3,1.9"/>
	</g>
	<g>
		<path class="st0" d="M119.5,315c2.3-0.1,4.7-0.2,6.9,0.5s4.4,2.1,5.2,4.3c0.4,1.2,0.4,2.6,0.4,3.9c0,2.2,0,4.4,0,6.6
			c0,0.8,0,1.6-0.3,2.3c-0.4,0.8-1.2,1.4-2,1.9c-2.7,1.7-6,2.4-9.2,2"/>
	</g>
	<g>
		<path class="st0" d="M78.5,434.5c-1.5-1.9,1-4.6,3.5-4.9c2.4-0.4,5.2,0.1,7.1-1.5c1.1-1,1.6-2.5,2.1-3.9c6-19.7,12-39.3,16.7-59.4
			c0.6-2.6,1.2-5.5,0.1-7.9c-1.1-2.5-4.6-4-6.6-2.2c4.6-0.5,9.2-0.5,13.8,0.2c1.4,0.2,2.9,0.5,4,1.3c2.4,1.9,2.1,5.6,1.5,8.6
			c-3.1,15.1-7.9,29.8-12.6,44.5c-2.1,6.4-4.2,12.8-7.4,18.7c-1.1,2-2.4,4-4.3,5.2c-4.8,3-11.1,0.1-16.6,1.3"/>
	</g>
	<g>
		<path class="st0" d="M80,431.4c14.1-22.7,13.5-51.4,21.9-76.8"/>
	</g>
	<g>
		<path class="st0" d="M230.2,323.4c-0.4,14-0.5,28-0.3,42c0,2,0.1,4,1,5.7c1,2.1,3,3.4,4.9,4.7c9.9,6.8,19.8,13.6,29.7,20.4
			c13.9,9.5,27.8,19.1,41.7,28.6c8,5.5,16.1,11,24.2,16.4c24.4,15.9,49.9,30.2,75.3,44.4c13.8,7.7,27.8,15.5,43,19.7
			c1.2,0.3,2.5,0.6,3.7,0.2c1.6-0.6,2.3-2.5,2.9-4.1c3.4-10.5,6.2-21.2,8.3-32.1c0.5-2.5,0.9-5.1-0.2-7.4c-1.1-2.4-3.7-3.8-6.1-5
			c-16.1-8.1-32.7-15.4-47.8-25.2c-15.5-10.1-29.1-22.7-43.4-34.3c-38.8-31.7-82.9-56.9-129.9-74.2c-2.4-0.9-5.8-1.3-6.8,1"/>
	</g>
	<g>
		<path class="st0" d="M241,302.8c-0.6,0.1-0.7,1.2-0.1,1.4c0.6,0,1.1-0.8,0.7-1.3s-1.3-0.4-1.5,0.2c0.2,0.3,0.7,0.2,0.8-0.1"/>
	</g>
	<g>
		<path class="st0" d="M263,267c-0.1,0.5,0.5,1,1,0.8c0.5-0.2,0.5-1,0.2-1.3c-0.4-0.4-1-0.3-1.4,0.1c0.1,0.6,0.6,1.1,1.3,1.1
			c0.4-0.3,0.5-1,0.1-1.4"/>
	</g>
	<g>
		<path class="st0" d="M246.7,235.6c0.6,0,1.1-0.7,0.9-1.3c-0.2,0.3-0.4,0.6-0.6,0.9c0.2-0.6-0.4-1.3-1-1.1c0,0.3,0,0.6,0,1
			c0.5-0.1,0.9-0.6,0.9-1"/>
	</g>
	<g>
		<path class="st0" d="M370.9,317.4c-0.1-0.2-0.4,0.1-0.3,0.3c0.1,0.2,0.4,0.2,0.6,0.2c0.2,0,0.4,0,0.6-0.2c0.5-0.4-0.3-1.2-0.8-0.9
			c-0.5,0.4-0.1,1.3,0.5,1.3c0.6,0,1-0.7,0.8-1.3c0-0.2-0.1-0.3-0.3-0.4c-0.5-0.3-1.2,0.4-0.8,0.9c0.3,0.5,1.2,0.2,1.3-0.4
			c0-0.6-0.7-1-1.2-0.8"/>
	</g>
	<g>
		<path class="st0" d="M406.7,304.3c-0.1-0.3-0.4-0.5-0.8-0.5c-0.1,0.4,0.2,0.8,0.5,0.8c0.4,0.1,0.7-0.2,0.8-0.6
			c-0.3-0.6-1.4-0.3-1.4,0.4c0,0.7,0.9,1.1,1.5,0.7c0.3-0.3,0.2-1-0.2-0.9c-0.3,0-0.1,0.6,0.2,0.6c0.3-0.1,0.4-0.5,0.2-0.8
			c-0.2-0.3-0.5-0.4-0.8-0.5c-0.2,0.2-0.5,0.3-0.7,0.5"/>
	</g>
	<g>
		<path class="st0" d="M314,278.3c6.7-2.9,13.4-5.7,20-8.6"/>
	</g>
	<g>
		<path class="st0" d="M341.7,269c6.7-3,13.6-5.6,20.6-7.9"/>
	</g>
	<g>
		<path class="st0" d="M429,242.3c-0.3,0.5,0.5,1,1,0.7c0.5-0.3,0.6-1,0.6-1.5c-0.4,0.1-0.7,0.4-0.7,0.8"/>
	</g>
	<g>
		<path class="st0" d="M437.7,232c3.7-1.9,7.3-4.1,10.7-6.6"/>
	</g>
	<g>
		<path class="st0" d="M476.6,213.9c9.9-4.9,21.6-4.8,31.7-9.1"/>
	</g>
	<g>
		<path class="st0" d="M187.7,367.4c-0.5,0.6-0.6,1.4-0.3,2c0.3-0.5,0.4-1.2,0.2-1.7"/>
	</g>
	<g>
		<path class="st0" d="M140.1,293.3c31.1-21.4,56.7-50.6,73.8-84.2"/>
	</g>
	<g>
		<path class="st0" d="M210.8,215c9.6-3.3,17.1-13.5,23.3-21.6c4.5-5.9,9-11.8,13.5-17.8"/>
	</g>
	<g>
		<path class="st0" d="M243,181.6c25.2-5.2,48.6-14.4,72.6-23.8c13.1-5.1,26.3-10.2,39.4-15.4c29.2-11.4,58.5-22.8,86-37.9
			C487,79.3,527.9,43.1,553-3"/>
	</g>
	<g>
		<path class="st0" d="M410,171.3c34.9-20.4,67.7-44.8,95.4-74.4c27.6-29.5,50.1-64.3,63-102.6"/>
	</g>
	<g>
		<path class="st0" d="M410.3,171.1c22.8-10.4,44.9-22.6,64.5-38.3c6-4.8,11.7-9.9,17.5-15c18.1-16.1,36.2-32.1,54.2-48.2
			c13.1-11.6,26.2-23.3,37.9-36.3c11.4-12.7,21.5-26.7,29.8-41.6"/>
	</g>
	<g>
		<path class="st0" d="M476,132.1c18.3-13.3,36.6-26.5,54.9-39.8c36-26.1,73.5-54,92-94.4"/>
	</g>
	<g>
		<path class="st0" d="M-1.7,55.7C3.5,45.3,8.7,34.8,13.9,24.4c0.9-1.8,1.9-3.9,1.4-5.9c-0.6-2.3-2.8-3.7-4.9-4.7
			c-3.9-2-7.9-3.6-12.1-4.7"/>
	</g>
	<g>
		<path class="st0" d="M-5.1,59.6C1.7,53,6.7,44.9,11.6,36.8C20.5,22.2,29.5,7.6,36.1-8.2"/>
	</g>
	<g>
		<path class="st0" d="M6.9,11.7c4.3-6.1,5.9-12,7.5-19.3"/>
	</g>
	<g>
		<path class="st0" d="M8.1,74.8c19.6-28.1,36.7-58,51.2-89"/>
	</g>
	<g>
		<path class="st0" d="M23.7,51.2c11.1-6.2,20.8-17.7,28.1-28s13-21.7,18.7-33.1"/>
	</g>
	<g>
		<path class="st0" d="M30.3,90.3c9.6-14,19.2-28,28.8-42c6.3-9.2,12.6-18.3,18.2-27.9c5.2-8.7,9.8-17.7,13.9-27"/>
	</g>
	<g>
		<path class="st0" d="M118.2-9.5c-6.7,16.5-13.4,33.1-20.1,49.6c-10.2,25-21.5,52.1-41,70.8"/>
	</g>
	<g>
		<path class="st0" d="M67.9,122.7C80.8,98.7,98.5,77,116.2,56.2s34.6-43.2,42.3-69.4"/>
	</g>
	<g>
		<path class="st0" d="M186.2-10c-9.1,14-18.2,28-26.5,42.6c-11,19.2-20.4,39.4-32.4,58s-27.6,36-46.8,47"/>
	</g>
	<g>
		<path class="st0" d="M83.8,143.3c9.8-3,18.3-9.2,26.2-15.7c43.2-35.2,77.1-81.8,97.4-133.7"/>
	</g>
	<g>
		<path class="st0" d="M139.4,100.3c43-24,72.2-70.6,91.9-115.7"/>
	</g>
	<g>
		<path class="st0" d="M103.2,175.5c6.3-2.8,11.4-6.4,16.2-11.2C161,122.6,191.8,71.5,222.1,21"/>
	</g>
	<g>
		<path class="st0" d="M116.2,201.6c17.9-14.4,34.6-30.4,48.7-48.4c11.3-14.4,20.9-29.9,30.5-45.5c5.9-9.6,11.9-19.2,17.8-28.9
			c7.3-11.8,14.6-23.6,21.1-35.8c9.2-17.2,17.2-35.3,29.8-50.2"/>
	</g>
	<g>
		<path class="st0" d="M122.3,219.8c31-24.2,58-53.6,79.3-86.7C230.2,89,248.6,38.9,278.1-4.5"/>
	</g>
	<g>
		<path class="st0" d="M125.5,226.4c37.6-27,74.2-57.4,97.4-97.4c5.1-8.9,9.5-18.1,14.1-27.2c19.6-39,42.8-76.2,69.2-111"/>
	</g>
	<g>
		<path class="st0" d="M131.5,238.2c15.6-8.1,30.2-18.1,43.3-29.8c21.3-19.1,39.2-42.8,64.6-55.9c7.6-3.9,15.8-6.8,22.9-11.5
			c10.7-7,18.6-17.6,26.2-27.9"/>
	</g>
	<g>
		<path class="st0" d="M416.7-4.3c-14.4,20.6-37.2,33.7-55,51.5c-12.3,12.2-22.3,26.9-36.4,37c-6.4,4.6-13.6,8.2-19.9,13.1
			c-7.5,5.9-13.5,13.4-20.8,19.6c-9.2,7.9-20.2,13.5-30.9,19.2c-10.9,5.8-21.6,12-32.2,18.4c-9.8,6-19.6,12.3-27.2,20.9
			c-9.2,10.5-15.6,24.6-28.4,30.1"/>
	</g>
	<g>
		<path class="st0" d="M217.5,157c17.1-13.7,35.1-28.8,48.3-46.3c4.9-6.5,9.3-13.5,14.3-20c5.1-6.5,10.8-12.4,16.5-18.3
			c27.2-28.1,54.4-56.1,81.6-84.2"/>
	</g>
	<g>
		<path class="st0" d="M343-8.2C324.6,29,293.9,58.5,269.2,91.9c-8.9,12.1-17.1,24.8-27.6,35.6c-15.2,15.7-35,27.4-45.7,46.4"/>
	</g>
	<g>
		<path class="st0" d="M133.2,256.1c19-10.3,38.1-20.7,55.3-33.9c14.4-11.1,30.4-25.4,47.5-31.5"/>
	</g>
	<g>
		<path class="st0" d="M438.5-7.3C419.7,4.4,405,21.5,390,37.8c-37.9,41.2-79.7,78.6-121.5,115.9c-6.1,5.5-12.3,11-18.8,15.9
			c-23,17.5-51.8,29.6-66.2,54.7"/>
	</g>
	<g>
		<path class="st0" d="M260.3,161.2c8.5-1,16.4-4.9,23.9-9c35.6-19.5,66.6-46.2,97.3-72.7c6.9-6,13.9-12,20.2-18.7
			c7.4-7.8,13.8-16.5,21.3-24.1c6.7-6.7,14.2-12.5,21.7-18.3c10.7-8.3,21.4-16.5,32.1-24.8"/>
	</g>
	<g>
		<path class="st0" d="M215.2,185.1c-13.6,11.3-25.1,26.6-33.6,42.1c0.7-0.7,1.4-2.8,2.1-3.4"/>
	</g>
	<g>
		<path class="st0" d="M503.2-7.1c-22.9,20.8-45.7,41.7-68.6,62.5c-19.6,17.9-39.6,36-63.2,48.2c-7.2,3.7-14.7,6.8-21.6,10.8
			c-6.4,3.7-12.3,8.1-18.2,12.5c-13.4,10-28,20-41.4,30.1"/>
	</g>
	<g>
		<path class="st0" d="M510.9-5.1c-18.9,25.2-39.5,49-61.7,71.3c-7.8,7.8-15.9,15.5-24.5,22.4C410.4,99.9,394.7,109,379,118
			c-13.5,7.8-27,15.6-41.3,21.7c-26.3,11.2-55.5,16.6-78.3,33.7"/>
	</g>
	<g>
		<path class="st0" d="M526.1-5.1c-18.9,24.1-38,48.4-59.7,70c-21.8,21.6-46.6,40.7-74.7,52.9c33.3-14.4,66.2-29.8,98.7-46.1"/>
	</g>
	<g>
		<path class="st0" d="M403.3,190.2c2.7-0.6,5.4-1.2,8.1-1.8"/>
	</g>
	<g>
		<path class="st0" d="M434.3,184.7c2.9-0.9,5.9-1.4,9-1.7"/>
	</g>
	<g>
		<path class="st0" d="M418.9,181.6c10.1-3.1,20.7-3.7,31.2-4.4"/>
	</g>
	<g>
		<path class="st0" d="M444,170.1c4.5-1.3,9.3-1.9,14-1.7"/>
	</g>
	<g>
		<path class="st0" d="M459,165.6c7.7-0.5,15.3-0.5,23,0"/>
	</g>
	<g>
		<path class="st0" d="M468.3,169.4c4.6-0.2,9.1-0.1,13.7,0.1"/>
	</g>
	<g>
		<path class="st0" d="M454,173.4c2.8-0.2,5.6-0.1,8.3,0.3"/>
	</g>
	<g>
		<path class="st0" d="M488,166.7c4.6,0.6,9.2,1.9,13.4,3.8"/>
	</g>
	<g>
		<path class="st0" d="M489.7,162.3c4-0.4,8.1,0.5,11.6,2.4"/>
	</g>
	<g>
		<path class="st0" d="M495.3,159.1c7.7,0.3,15.4,1.8,22.8,4.3"/>
	</g>
	<g>
		<path class="st0" d="M480.7,158.3c3.8,0,7.6,0.5,11.3,1.4"/>
	</g>
	<g>
		<path class="st0" d="M493.7,154c8.2-0.1,16.3,1.3,24,4"/>
	</g>
	<g>
		<path class="st0" d="M519,163.6c2.6,0.8,5.1,1.6,7.7,2.4"/>
	</g>
	<g>
		<path class="st0" d="M512,152.4c6.6,1.9,12.9,5,18.5,9.1"/>
	</g>
	<g>
		<path class="st0" d="M529.4,166.2c4.4,1.8,8.5,4.5,11.8,7.9"/>
	</g>
	<g>
		<path class="st0" d="M535.6,163.5c6.1,3.6,12.1,7.1,18.2,10.7"/>
	</g>
	<g>
		<path class="st0" d="M534.4,159.2c5.3,1.8,10.3,4.4,14.9,7.5"/>
	</g>
	<g>
		<path class="st0" d="M522,150.5c7.6-1,15.4,0.2,22.3,3.5"/>
	</g>
	<g>
		<path class="st0" d="M534.3,146.6c4.6,0.5,8.9,2.5,13.1,4.4c4.6,2.1,9.1,4.3,13.7,6.4"/>
	</g>
	<g>
		<path class="st0" d="M546.7,157.2c9.1,3.5,17.8,7.9,25.9,13.1"/>
	</g>
	<g>
		<path class="st0" d="M556.7,171c6.5,1.6,12.7,4.5,18.1,8.6"/>
	</g>
	<g>
		<path class="st0" d="M574.3,172c5.7,2.1,10.8,5.6,14.9,10"/>
	</g>
	<g>
		<path class="st0" d="M590,185c3.2,1.7,6.3,3.6,9.4,5.6"/>
	</g>
	<g>
		<path class="st0" d="M576,165.3c8.1,2.7,15.5,7.2,21.7,13"/>
	</g>
	<g>
		<path class="st0" d="M584.1,156.6c4.8,3.4,9.6,6.8,13.9,10.9c4.3,4,8,8.8,10.2,14.2"/>
	</g>
	<g>
		<path class="st0" d="M603.7,186c2.9,1.9,5.5,4.4,7.3,7.3"/>
	</g>
	<g>
		<path class="st0" d="M604.2,169.1c7,5.3,12.5,12.4,16,20.5"/>
	</g>
	<g>
		<path class="st0" d="M615.3,191.7c3.1,1.9,6.1,4,9,6.3"/>
	</g>
	<g>
		<path class="st0" d="M627,191.3c1.1-0.1,2,0.8,2.8,1.6c3.1,3.4,6,6.9,8.6,10.7"/>
	</g>
	<g>
		<path class="st0" d="M566.5,154.2c1.7,1.5,3.9,2.3,6,3.1c4.5,1.8,8.7,4.2,12.5,7.1"/>
	</g>
	<g>
		<path class="st0" d="M564,158.7c2.3,1.3,4.6,2.3,7.1,3.2"/>
	</g>
	<g>
		<path class="st0" d="M546.3,144.1c7.7,1.5,15.2,4.5,21.7,9"/>
	</g>
	<g>
		<path class="st0" d="M561,143.1c7.4,2.7,14.2,6.7,20.1,11.9"/>
	</g>
	<g>
		<path class="st0" d="M572,143c7.8,3.6,15.2,8.1,22,13.4"/>
	</g>
	<g>
		<path class="st0" d="M599.4,159.6c2.2,1.4,4.4,2.8,6.6,4.2c3.6,2.3,7.5,5,8.7,9.1"/>
	</g>
	<g>
		<path class="st0" d="M593.3,145.7c8.9,5,16.6,12.1,22.3,20.6"/>
	</g>
	<g>
		<path class="st0" d="M601.4,143.8c13.7,8.3,22.4,22.5,30.6,36.3"/>
	</g>
	<g>
		<path class="st0" d="M617,175c4.6,2.9,8.9,6.1,13.1,9.6"/>
	</g>
	<g>
		<path class="st0" d="M611.8,141.5c10.2,8.8,16.3,21.3,22.2,33.4"/>
	</g>
	<g>
		<path class="st0" d="M634.9,187.1c5.5,6.2,9.5,13.8,11.4,21.9"/>
	</g>
	<g>
		<path class="st0" d="M638.4,183.3c4.2,5.6,8,11.5,11.3,17.7"/>
	</g>
	<g>
		<path class="st0" d="M619.5,142.1c17.1,18.3,30.1,40.4,37.8,64.2"/>
	</g>
	<g>
		<path class="st0" d="M629.9,142.7c2.3,5,6,9.3,9.3,13.7c10.3,13.9,17.2,30.5,19.7,47.6"/>
	</g>
	<g>
		<path class="st0" d="M638.4,143.8c6.7,10.2,13.5,20.5,18.4,31.6s8.1,23.4,7.3,35.6"/>
	</g>
	<g>
		<path class="st0" d="M643.5,139.2c7.7,10.9,15.5,22.1,19.3,35c2.9,9.6,3.4,19.8,3.7,29.8"/>
	</g>
	<g>
		<path class="st0" d="M654.1,141.1c9.9,17.7,14.7,38.2,13.7,58.5"/>
	</g>
	<g>
		<path class="st0" d="M659.2,138.4c5.1,8.5,10.3,17.3,12.5,27c1.3,5.6,1.5,11.3,1.7,17.1c0.3,8.3,0.6,16.9-1.8,24.9"/>
	</g>
	<g>
		<path class="st0" d="M669.1,145.1c9.8,18.4,13.1,40.1,9.3,60.6"/>
	</g>
	<g>
		<path class="st0" d="M680.3,150c7.9,19.2,7.4,41.6-1.1,60.5"/>
	</g>
	<g>
		<path class="st0" d="M689.2,155.4c3.6,17,2,35-4.4,51"/>
	</g>
	<g>
		<path class="st0" d="M694.8,160.3c0.6,10.5-0.1,21.1-0.8,31.6c-0.3,4.2-0.6,8.5-2.4,12.2c-1.3,2.7-3.3,5.3-3,8.2"/>
	</g>
	<g>
		<path class="st0" d="M700.8,160.4c2,11.3,1.2,23.1-2.3,34c-2,6.1-4.7,11.8-6.7,17.9"/>
	</g>
	<g>
		<path class="st0" d="M707.5,170c1.1,7.2-1.1,14.4-3.5,21.2c-2.8,8.1-5.8,16.1-9,24.1"/>
	</g>
	<g>
		<path class="st0" d="M719.9,172c-0.8,5-3,9.6-5.3,14c-5.6,11.2-11.4,22.2-17.6,33.1"/>
	</g>
	<g>
		<path class="st0" d="M724.2,171.3c0,8.6-3.9,16.8-8.5,24c-4.6,7.3-10.1,14-13.9,21.7"/>
	</g>
	<g>
		<path class="st0" d="M730.6,175.6c-6.4,15.6-14.9,30.4-25.1,43.9"/>
	</g>
	<g>
		<path class="st0" d="M738.4,180.6c-4.9,15.2-19.5,25.1-27.2,39.1"/>
	</g>
	<g>
		<path class="st0" d="M741.2,190.3c-6,12.6-16,23.3-28.2,30.1"/>
	</g>
	<g>
		<path class="st0" d="M744.6,200.5c-7.4,9.1-16.5,16.9-26.6,22.8"/>
	</g>
	<g>
		<path class="st0" d="M746.2,177.5c1.5,2.4,1.7,5.6,0.4,8.1"/>
	</g>
	<g>
		<path class="st0" d="M664.3,229.6c-1.2,1.8-2,3.9-2.5,6c-0.3,1.3-0.3,2.9,0.8,3.6c0.8,0.5,2.1,0.4,2.7,1.1"/>
	</g>
	<g>
		<path class="st0" d="M676.9,228c-1,1.9-2.3,3.6-3.9,5.1"/>
	</g>
	<g>
		<path class="st0" d="M713.6,234.3c-2.7,2-5.1,4.6-6.8,7.5"/>
	</g>
	<g>
		<path class="st0" d="M789.1,138.3c0.4,0.4,0.8,0.9,1.4,0.9c0.6,0,1-0.9,0.5-1.1c-0.5,0-1,0.3-1.2,0.7c0.5,0.3,1.1,0.4,1.6,0.2"/>
	</g>
	<g>
		<path class="st0" d="M714.1,166c0.3,6.1-1.1,12.2-3.4,17.8s-5.3,11-8.4,16.2"/>
	</g>
	<g>
		<path class="st0" d="M698.2,165.4c1.4,6.6,1.3,13.5-0.3,20"/>
	</g>
	<g>
		<path class="st0" d="M664.8,156.7c1.7,9.8,6.4,19.4,5,29.3"/>
	</g>
	<g>
		<path class="st0" d="M610.1,182.2c2.4,1.5,4.3,3.8,5.2,6.5"/>
	</g>
	<g>
		<path class="st0" d="M816.1,54.4c-0.2,0.3,0.6,0.3,0.5,0"/>
	</g>
	<g>
		<path class="st0" d="M813,14c-0.1,0.3,0.1,0.6,0.3,0.6"/>
	</g>
	<g>
		<path class="st0" d="M922.2-1.4c-1.7,39.7,4.8,80-3.7,118.8c-5.8,26.3-22,52.9-40.1,72.9"/>
	</g>
	<g>
		<path class="st0" d="M878.4,190.3c-26.8,21.4-44,47.9-55.1,80.4c-2.3,6.6-4.1,13.3-6.5,19.9c-2,5.4-4.3,10.6-6.3,15.9
			c-8.4,22.5-10.7,47.2-6.7,70.9"/>
	</g>
	<g>
		<path class="st0" d="M803.6,376.6c-0.4,21,1.8,42,6.7,62.3c1,4.3,2.1,8.5,3.3,12.8c7.2,27.3,14.5,54.7,23.4,81.6"/>
	</g>
	<g>
		<path class="st0" d="M837,532.9c5.3,17,10.6,34.1,15.9,51.1c7.3,23.5,14.7,48.2,9.4,72.2c-2.1,9.7-6.2,18.7-10.3,27.7"/>
	</g>
	<g>
		<path class="st0" d="M852.1,683.7c-4.6,12.8-14.2,23.7-26.2,30c-6.2,3.3-13,5.3-19.7,7.3c-4.4,1.3-8.8,2.6-13.4,3.2
			c-5.5,0.7-11.1,0.2-16.6,0.6c-5.4,0.5-10.8,1.8-16.2,2.3c-9.3,0.8-19.7-0.7-27.2,4.9c-3.9,2.9-6.4,7.2-8.6,11.6
			c-2.1,4.4-4,9-4.3,13.8s1.2,10,4.9,13.2"/>
	</g>
	<g>
		<path class="st0" d="M661.2,623c-4.4,2.6-8.8,5.1-12.8,8.3c-13.7,11-21,29.4-18.5,46.8c0.5,3.4,1.3,6.8,1.8,10.2
			c0.5,3.6,0.6,7.2,1.9,10.6c0.9,2.5,2.4,4.7,4,6.9c6.8,9.3,15.6,17.6,26.3,21.9s23.5,4.5,33.4-1.4"/>
	</g>
	<g>
		<path class="st0" d="M709.2,749.7c-1.9,3.2-3.8,6.4-4.6,10c-0.8,3.6-0.4,7.7,1.9,10.5"/>
	</g>
	<g>
		<path class="st0" d="M790.2,650.2c3.7,2.8,7.5,5.6,11.3,8.3c1.4,1,2.9,2,4.4,2.9c3.8,2.3,8,4.1,12.3,5.4"/>
	</g>
	<g>
		<path class="st0" d="M701.4,723c4.4-4.4,10.2-7.1,15.8-9.7c9.6-4.4,19.3-8.9,29.7-11c7.9-1.6,16.1-1.8,24.2-2
			c10.4-0.2,21.5-0.1,30.4,5.4c1.6,1,3.2,2.2,5,2.9s4,0.7,5.5-0.6c1.9-1.6,2-4.5,1.8-6.9"/>
	</g>
	<g>
		<path class="st0" d="M800.4,705.6c-26.3,11.6-56.4,14.3-84.3,7.5"/>
	</g>
	<g>
		<path class="st0" d="M684.4,593.9c2.1-0.4,3.6-2,5.1-3.6c1.8-1.9,3.7-3.8,5.6-5.7c1.6-1.5,3.3-3,5.1-4.1c4.4-2.7,9.9-3.5,13.5-7.2
			"/>
	</g>
	<g>
		<path class="st0" d="M686.5,547.5c-3.4,7.1-7.3,14.6-14.2,18.5"/>
	</g>
	<g>
		<path class="st0" d="M662.8,578.8c-4.4,4.9-9.7,9-15.5,12"/>
	</g>
	<g>
		<path class="st0" d="M627.3,610c0.1-0.2,0.2-0.4,0.3-0.7"/>
	</g>
	<g>
		<path class="st0" d="M639.1,641.3c-8.9,3.3-16.3,10.3-20,19.1"/>
	</g>
	<g>
		<path class="st0" d="M610.1,679.8c-0.6,0.2-0.9,1.2-0.4,1.6c0.5,0.3,1.2-0.3,0.9-0.9c-0.2-0.5-1.2-0.4-1.3,0.2"/>
	</g>
	<g>
		<path class="st0" d="M677.3,695.3c0,1.1,0.7,2.1,1.7,2.3c1,0.3,2.2-0.3,2.6-1.2c-0.7-0.3-1.5-0.6-2.2-0.9c-0.7-0.3-1.8-0.4-2,0.3
			c-0.2,0.6,0.4,1.1,1,1.3c0.6,0.2,1.3,0.2,1.6-0.2c0.4-0.4,0-1.4-0.6-1.1c-0.6,0.3-0.4,1.3,0.2,1.4c0.4-0.3,0.4-0.9,0.1-1.3
			c-0.3-0.4-0.9-0.4-1.3-0.1c0.6,0.5,1.4,0.8,2.2,0.8"/>
	</g>
	<g>
		<path class="st0" d="M684.7,710.4c-1.4-0.1-2.7-0.1-4.1,0.2c1,0.6,2.4,0.7,3.4,0.1c-0.7-0.4-1.6-0.5-2.4-0.3
			c1.1,0.5,2.3,0.7,3.5,0.5c-1.2-0.3-2.5-0.3-3.8-0.2c0.7,0,1.3,0,2,0"/>
	</g>
	<g>
		<path class="st0" d="M740.7,688.3c2.2,1.3,4.7,2.3,7.2,2.9c0.9,0.2,2,0.2,2.4-0.6"/>
	</g>
	<g>
		<path class="st0" d="M756.7,564c-0.6-0.4-1.1,0.8-0.6,1.2s1.3,0.2,2-0.1c0.2-0.8-1.2-1.5-1.7-0.8"/>
	</g>
	<g>
		<path class="st0" d="M713.7,547c-0.5,0.5,0.1,1.4,0.7,1.3c0.6-0.2,0.6-1.3,0-1.5"/>
	</g>
	<g>
		<path class="st0" d="M708.2,495c0.4,3.8,1,7.6,1.8,11.3"/>
	</g>
	<g>
		<path class="st0" d="M920.7,104.3c16.1-33.7,22.8-71.9,19.2-109.1"/>
	</g>
	<g>
		<path class="st0" d="M921.3,101.7c6.9-34.6,9.8-70,8.7-105.3"/>
	</g>
	<g>
		<path class="st0" d="M824.7,199.4c-0.4,0.2-0.7,0.7-0.7,1.2c0.3,0.1,0.7-0.2,0.6-0.6"/>
	</g>
	<g>
		<path class="st0" d="M821.5,225c-0.2,0.4,0.6,0.7,0.9,0.4c0.3-0.3,0.3-0.9,0.2-1.3"/>
	</g>
</g>
</svg>
