<?xml version="1.0" encoding="utf-8"?>
<!-- Generator: Adobe Illustrator 21.0.0, SVG Export Plug-In . SVG Version: 6.00 Build 0)  -->
<svg version="1.1" xmlns="http://www.w3.org/2000/svg" xmlns:xlink="http://www.w3.org/1999/xlink" x="0px" y="0px"
	 viewBox="0 0 1365 767" style="enable-background:new 0 0 1365 767;" xml:space="preserve">
	 <defs>
	 	<style>
	 	#Camada_7{
	 	fill:rgba(255,255,255,0);
	 	stroke:rgba(255, 255, 255,1);
	 	stroke-dasharray:1300;
	 	stroke-dashoffset:0;
	 	}
	 </style>
	 </defs>
	 <style type="text/css">
	 .st0{fill:none;stroke-width:2;stroke-miterlimit:10;}
	 </style>
<g id="Camada_1">
	<g>
		<path class="st0" d="M-3,579.7c5.1-3.4,10.3-6.8,15.4-10.2c2.2-1.4,4.6-3.3,4.7-5.9c0-1.2-0.5-2.4-0.2-3.6c0.3-1.4,1.7-2.4,3-3.2
			c7.3-4.5,14.5-9.1,21.8-13.6c2-1.2,4.1-2.5,6.4-2.4c2.5,0.1,4.7,1.8,6.1,3.9c1.4,2.1,2,4.5,2.7,7c0.5,1.8,0.8,4.3-0.9,5.2
			c-2,1.1-4.1-1.2-5.1-3.3c-1.9-3.8-3.6-7.8-5-11.8"/>
	</g>
	<g>
		<path class="st0" d="M30.3,551c1.3,3.3,5.6,4.9,8.8,3.4c18.4,46.2,41.4,90.4,65.6,133.8c14.1,25.2,29.5,51.3,54.3,66.2"/>
	</g>
	<g>
		<path class="st0" d="M56.6,556.6c14.5,31.9,28.9,63.7,43.4,95.6c4.4,9.8,8.9,19.6,15,28.4c4.7,6.9,10.4,13,14.9,20
			c5.5,8.3,9.2,17.7,14.4,26.2c5.2,8.5,12.3,16.5,21.7,19.7"/>
	</g>
	<g>
		<path class="st0" d="M146.7,769.4c6.1-7.4,12.2-14.8,18.3-22.2c4.3-5.2,9.5-10.8,16.2-10.7c5.1,0.1,9.5,3.8,13.3,7.2
			c10.9,9.7,21.8,19.4,32.7,29"/>
	</g>
	<g>
		<path class="st0" d="M171.1,740.5c7.8,1.7,15.1,5.4,20.9,10.8"/>
	</g>
	<g>
		<path class="st0" d="M196.4,756.9c4.7,3.2,8.9,7.2,12.3,11.7"/>
	</g>
	<g>
		<path class="st0" d="M154.2,760.7c-13.9-5.6-26.4-14.4-36.5-25.5c-0.9-1-1.9-2.1-3.1-2.8c-2.4-1.3-5.5-0.9-8,0.3
			c-6.2,3-9.7,9.5-12.8,15.7c-0.6,1.1-1.1,2.3-1.1,3.5c0.1,1.3,0.8,2.4,1.6,3.5c5.2,6.9,12.5,12.2,20.6,15"/>
	</g>
	<g>
		<path class="st0" d="M115.8,771c-1.3-3.8,1.3-7.7,3.8-10.9c3.6-4.7,7.6-9.7,13.4-11.3"/>
	</g>
	<g>
		<path class="st0" d="M141,754.2c-7.5,2-13.8,7.6-16.7,14.8"/>
	</g>
	<g>
		<path class="st0" d="M65.7,769.7c5.3-2.2,6.5-9,10.4-13.3c4-4.4,11.1-5.4,16.1-2.4"/>
	</g>
	<g>
		<path class="st0" d="M185.6,611.1c-0.8-0.3-1.8-0.1-2.4,0.6c0.8,0.6,2.1,0.2,2.4-0.8c-0.6-0.3-1.4,0-1.6,0.7
			c0.9,0.2,1.8-0.4,2-1.3c-0.6,0.2-1.1,0.4-1.7,0.6"/>
	</g>
	<g>
		<path class="st0" d="M279.1,621.7c-3.6,3.8-8.4,6.5-13.4,7.8"/>
	</g>
	<g>
		<path class="st0" d="M153.7,610.3c0.2,0.5,1,0.6,1.3,0.1c0.3-0.5-0.1-1.2-0.7-1.2"/>
	</g>
	<g>
		<path class="st0" d="M-3.5,559.3c5.3-4.9,10.6-9.8,15.8-14.6c5.2-4.8,10.6-9.7,16.9-13c6.4-3.2,14-4.6,20.7-2.2
			c0.5,0.2,1,0.5,1.1,1c0.1,0.5-0.3,1-0.6,1.4c-1.6,2.2-2,5.3-0.8,7.8"/>
	</g>
	<g>
		<path class="st0" d="M43.3,541.5c-2.2-4.1-4.8-8.1-7.7-11.8"/>
	</g>
	<g>
		<path class="st0" d="M-9.5,63.8c12.8,8.5,25.5,17,38.3,25.5c7.7,5.1,15.4,10.3,22.4,16.3c8.2,7.1,15.4,15.4,22.1,24
			c53.8,68.9,77.9,160.2,65.2,246.7"/>
	</g>
	<g>
		<path class="st0" d="M138.9,376c-7,32.8-17.1,65-30.2,95.9c-3.3,7.7-6.8,15.4-11.2,22.5c-4.2,6.6-9.1,12.7-14.1,18.8
			c-4.7,5.8-9.5,11.6-14.2,17.4c-4.4,5.4-9.8,11.3-16.7,11.2"/>
	</g>
	<g>
		<path class="st0" d="M-2.9,116.2c16.6,8.9,29.8,23.2,40,39.1s17.6,33.3,24.9,50.7c2.2,5.3,4.5,10.5,6.4,15.9
			c1.7,4.6,3.1,9.4,4.3,14.2c1.5,5.9,2.6,11.9,3.6,17.9c5.3,29.7,10.2,59.9,7.3,90"/>
	</g>
	<g>
		<path class="st0" d="M83.6,344c-5.5,59.6-16.3,89.6-50.8,140.7C22.7,499.6,10,514.4-7.4,518.9"/>
	</g>
	<g>
		<path class="st0" d="M-3,184.8c2.9-0.8,5.2-3,7.5-4.9c10.5-8.7,24.6-13.1,33.2-23.6"/>
	</g>
	<g>
		<path class="st0" d="M-1.7,209.8c5.4-4.1,10.9-8.1,16.3-12.2c4.9-3.7,9.8-7.4,15.2-10.5c6.2-3.6,13-6.4,18.9-10.5"/>
	</g>
	<g>
		<path class="st0" d="M13,103.5c-0.1,2.2,0,4.3,0.3,6.5c0.1,0.5,0.2,1.1,0.6,1.5c0.4,0.3,0.8,0.4,1.3,0.4c2.6,0.3,5.2,0.2,7.8-0.3"
			/>
	</g>
	<g>
		<path class="st0" d="M23.6,111c0-2.8,0-5.6,0-8.5c0-0.8-0.1-1.7-0.7-2.2c-0.6-0.4-1.5-0.2-2.2,0.1c-2.5,0.9-5.1,1.8-7.6,2.6"/>
	</g>
	<g>
		<path class="st0" d="M14.5,112c18.1,11,29.7,29.9,40.4,48.1c0.5,0.8,1.1,1.8,2,2.1c0.9,0.3,1.9,0,2.8-0.4
			c3.4-1.3,6.7-2.5,10.1-3.8c0.8-0.3,1.7-0.7,2-1.4c0.4-0.9-0.1-2-0.6-2.9c-12.3-20.8-28.9-39.1-48.6-53.2"/>
	</g>
	<g>
		<path class="st0" d="M59.3,152.1c-4.1-7.3-8.2-14.6-13.3-21.2c-6.1-7.8-13.6-14.5-22.1-19.6"/>
	</g>
	<g>
		<path class="st0" d="M112,227.7c1.3-0.6,2.9-0.8,4.3-0.2c1.3,0.6,2.3,2.1,2.1,3.5s-2,2.5-3.3,1.9"/>
	</g>
	<g>
		<path class="st0" d="M119.5,315c2.3-0.1,4.7-0.2,6.9,0.5s4.4,2.1,5.2,4.3c0.4,1.2,0.4,2.6,0.4,3.9c0,2.2,0,4.4,0,6.6
			c0,0.8,0,1.6-0.3,2.3c-0.4,0.8-1.2,1.4-2,1.9c-2.7,1.7-6,2.4-9.2,2"/>
	</g>
	<g>
		<path class="st0" d="M78.5,434.5c-1.5-1.9,1-4.6,3.5-4.9c2.4-0.4,5.2,0.1,7.1-1.5c1.1-1,1.6-2.5,2.1-3.9c6-19.7,12-39.3,16.7-59.4
			c0.6-2.6,1.2-5.5,0.1-7.9c-1.1-2.5-4.6-4-6.6-2.2c4.6-0.5,9.2-0.5,13.8,0.2c1.4,0.2,2.9,0.5,4,1.3c2.4,1.9,2.1,5.6,1.5,8.6
			c-3.1,15.1-7.9,29.8-12.6,44.5c-2.1,6.4-4.2,12.8-7.4,18.7c-1.1,2-2.4,4-4.3,5.2c-4.8,3-11.1,0.1-16.6,1.3"/>
	</g>
	<g>
		<path class="st0" d="M80,431.4c14.1-22.7,13.5-51.4,21.9-76.8"/>
	</g>
	<g>
		<path class="st0" d="M230.2,323.4c-0.4,14-0.5,28-0.3,42c0,2,0.1,4,1,5.7c1,2.1,3,3.4,4.9,4.7c9.9,6.8,19.8,13.6,29.7,20.4
			c13.9,9.5,27.8,19.1,41.7,28.6c8,5.5,16.1,11,24.2,16.4c24.4,15.9,49.9,30.2,75.3,44.4c13.8,7.7,27.8,15.5,43,19.7
			c1.2,0.3,2.5,0.6,3.7,0.2c1.6-0.6,2.3-2.5,2.9-4.1c3.4-10.5,6.2-21.2,8.3-32.1c0.5-2.5,0.9-5.1-0.2-7.4c-1.1-2.4-3.7-3.8-6.1-5
			c-16.1-8.1-32.7-15.4-47.8-25.2c-15.5-10.1-29.1-22.7-43.4-34.3c-38.8-31.7-82.9-56.9-129.9-74.2c-2.4-0.9-5.8-1.3-6.8,1"/>
	</g>
	<g>
		<path class="st0" d="M241,302.8c-0.6,0.1-0.7,1.2-0.1,1.4c0.6,0,1.1-0.8,0.7-1.3s-1.3-0.4-1.5,0.2c0.2,0.3,0.7,0.2,0.8-0.1"/>
	</g>
	<g>
		<path class="st0" d="M263,267c-0.1,0.5,0.5,1,1,0.8c0.5-0.2,0.5-1,0.2-1.3c-0.4-0.4-1-0.3-1.4,0.1c0.1,0.6,0.6,1.1,1.3,1.1
			c0.4-0.3,0.5-1,0.1-1.4"/>
	</g>
	<g>
		<path class="st0" d="M246.7,235.6c0.6,0,1.1-0.7,0.9-1.3c-0.2,0.3-0.4,0.6-0.6,0.9c0.2-0.6-0.4-1.3-1-1.1c0,0.3,0,0.6,0,1
			c0.5-0.1,0.9-0.6,0.9-1"/>
	</g>
	<g>
		<path class="st0" d="M370.9,317.4c-0.1-0.2-0.4,0.1-0.3,0.3c0.1,0.2,0.4,0.2,0.6,0.2c0.2,0,0.4,0,0.6-0.2c0.5-0.4-0.3-1.2-0.8-0.9
			c-0.5,0.4-0.1,1.3,0.5,1.3c0.6,0,1-0.7,0.8-1.3c0-0.2-0.1-0.3-0.3-0.4c-0.5-0.3-1.2,0.4-0.8,0.9c0.3,0.5,1.2,0.2,1.3-0.4
			c0-0.6-0.7-1-1.2-0.8"/>
	</g>
	<g>
		<path class="st0" d="M406.7,304.3c-0.1-0.3-0.4-0.5-0.8-0.5c-0.1,0.4,0.2,0.8,0.5,0.8c0.4,0.1,0.7-0.2,0.8-0.6
			c-0.3-0.6-1.4-0.3-1.4,0.4c0,0.7,0.9,1.1,1.5,0.7c0.3-0.3,0.2-1-0.2-0.9c-0.3,0-0.1,0.6,0.2,0.6c0.3-0.1,0.4-0.5,0.2-0.8
			c-0.2-0.3-0.5-0.4-0.8-0.5c-0.2,0.2-0.5,0.3-0.7,0.5"/>
	</g>
	<g>
		<path class="st0" d="M314,278.3c6.7-2.9,13.4-5.7,20-8.6"/>
	</g>
	<g>
		<path class="st0" d="M341.7,269c6.7-3,13.6-5.6,20.6-7.9"/>
	</g>
	<g>
		<path class="st0" d="M429,242.3c-0.3,0.5,0.5,1,1,0.7c0.5-0.3,0.6-1,0.6-1.5c-0.4,0.1-0.7,0.4-0.7,0.8"/>
	</g>
	<g>
		<path class="st0" d="M437.7,232c3.7-1.9,7.3-4.1,10.7-6.6"/>
	</g>
	<g>
		<path class="st0" d="M476.6,213.9c9.9-4.9,21.6-4.8,31.7-9.1"/>
	</g>
	<g>
		<path class="st0" d="M187.7,367.4c-0.5,0.6-0.6,1.4-0.3,2c0.3-0.5,0.4-1.2,0.2-1.7"/>
	</g>
	<g>
		<path class="st0" d="M140.1,293.3c31.1-21.4,56.7-50.6,73.8-84.2"/>
	</g>
	<g>
		<path class="st0" d="M210.8,215c9.6-3.3,17.1-13.5,23.3-21.6c4.5-5.9,9-11.8,13.5-17.8"/>
	</g>
	<g>
		<path class="st0" d="M243,181.6c25.2-5.2,48.6-14.4,72.6-23.8c13.1-5.1,26.3-10.2,39.4-15.4c29.2-11.4,58.5-22.8,86-37.9
			C487,79.3,527.9,43.1,553-3"/>
	</g>
	<g>
		<path class="st0" d="M410,171.3c34.9-20.4,67.7-44.8,95.4-74.4c27.6-29.5,50.1-64.3,63-102.6"/>
	</g>
	<g>
		<path class="st0" d="M410.3,171.1c22.8-10.4,44.9-22.6,64.5-38.3c6-4.8,11.7-9.9,17.5-15c18.1-16.1,36.2-32.1,54.2-48.2
			c13.1-11.6,26.2-23.3,37.9-36.3c11.4-12.7,21.5-26.7,29.8-41.6"/>
	</g>
	<g>
		<path class="st0" d="M476,132.1c18.3-13.3,36.6-26.5,54.9-39.8c36-26.1,73.5-54,92-94.4"/>
	</g>
	<g>
		<path class="st0" d="M-1.7,55.7C3.5,45.3,8.7,34.8,13.9,24.4c0.9-1.8,1.9-3.9,1.4-5.9c-0.6-2.3-2.8-3.7-4.9-4.7
			c-3.9-2-7.9-3.6-12.1-4.7"/>
	</g>
	<g>
		<path class="st0" d="M-5.1,59.6C1.7,53,6.7,44.9,11.6,36.8C20.5,22.2,29.5,7.6,36.1-8.2"/>
	</g>
	<g>
		<path class="st0" d="M6.9,11.7c4.3-6.1,5.9-12,7.5-19.3"/>
	</g>
	<g>
		<path class="st0" d="M8.1,74.8c19.6-28.1,36.7-58,51.2-89"/>
	</g>
	<g>
		<path class="st0" d="M23.7,51.2c11.1-6.2,20.8-17.7,28.1-28s13-21.7,18.7-33.1"/>
	</g>
	<g>
		<path class="st0" d="M30.3,90.3c9.6-14,19.2-28,28.8-42c6.3-9.2,12.6-18.3,18.2-27.9c5.2-8.7,9.8-17.7,13.9-27"/>
	</g>
	<g>
		<path class="st0" d="M118.2-9.5c-6.7,16.5-13.4,33.1-20.1,49.6c-10.2,25-21.5,52.1-41,70.8"/>
	</g>
	<g>
		<path class="st0" d="M67.9,122.7C80.8,98.7,98.5,77,116.2,56.2s34.6-43.2,42.3-69.4"/>
	</g>
	<g>
		<path class="st0" d="M186.2-10c-9.1,14-18.2,28-26.5,42.6c-11,19.2-20.4,39.4-32.4,58s-27.6,36-46.8,47"/>
	</g>
	<g>
		<path class="st0" d="M83.8,143.3c9.8-3,18.3-9.2,26.2-15.7c43.2-35.2,77.1-81.8,97.4-133.7"/>
	</g>
	<g>
		<path class="st0" d="M139.4,100.3c43-24,72.2-70.6,91.9-115.7"/>
	</g>
	<g>
		<path class="st0" d="M103.2,175.5c6.3-2.8,11.4-6.4,16.2-11.2C161,122.6,191.8,71.5,222.1,21"/>
	</g>
	<g>
		<path class="st0" d="M116.2,201.6c17.9-14.4,34.6-30.4,48.7-48.4c11.3-14.4,20.9-29.9,30.5-45.5c5.9-9.6,11.9-19.2,17.8-28.9
			c7.3-11.8,14.6-23.6,21.1-35.8c9.2-17.2,17.2-35.3,29.8-50.2"/>
	</g>
	<g>
		<path class="st0" d="M122.3,219.8c31-24.2,58-53.6,79.3-86.7C230.2,89,248.6,38.9,278.1-4.5"/>
	</g>
	<g>
		<path class="st0" d="M125.5,226.4c37.6-27,74.2-57.4,97.4-97.4c5.1-8.9,9.5-18.1,14.1-27.2c19.6-39,42.8-76.2,69.2-111"/>
	</g>
	<g>
		<path class="st0" d="M131.5,238.2c15.6-8.1,30.2-18.1,43.3-29.8c21.3-19.1,39.2-42.8,64.6-55.9c7.6-3.9,15.8-6.8,22.9-11.5
			c10.7-7,18.6-17.6,26.2-27.9"/>
	</g>
	<g>
		<path class="st0" d="M416.7-4.3c-14.4,20.6-37.2,33.7-55,51.5c-12.3,12.2-22.3,26.9-36.4,37c-6.4,4.6-13.6,8.2-19.9,13.1
			c-7.5,5.9-13.5,13.4-20.8,19.6c-9.2,7.9-20.2,13.5-30.9,19.2c-10.9,5.8-21.6,12-32.2,18.4c-9.8,6-19.6,12.3-27.2,20.9
			c-9.2,10.5-15.6,24.6-28.4,30.1"/>
	</g>
	<g>
		<path class="st0" d="M217.5,157c17.1-13.7,35.1-28.8,48.3-46.3c4.9-6.5,9.3-13.5,14.3-20c5.1-6.5,10.8-12.4,16.5-18.3
			c27.2-28.1,54.4-56.1,81.6-84.2"/>
	</g>
	<g>
		<path class="st0" d="M343-8.2C324.6,29,293.9,58.5,269.2,91.9c-8.9,12.1-17.1,24.8-27.6,35.6c-15.2,15.7-35,27.4-45.7,46.4"/>
	</g>
	<g>
		<path class="st0" d="M133.2,256.1c19-10.3,38.1-20.7,55.3-33.9c14.4-11.1,30.4-25.4,47.5-31.5"/>
	</g>
	<g>
		<path class="st0" d="M438.5-7.3C419.7,4.4,405,21.5,390,37.8c-37.9,41.2-79.7,78.6-121.5,115.9c-6.1,5.5-12.3,11-18.8,15.9
			c-23,17.5-51.8,29.6-66.2,54.7"/>
	</g>
	<g>
		<path class="st0" d="M260.3,161.2c8.5-1,16.4-4.9,23.9-9c35.6-19.5,66.6-46.2,97.3-72.7c6.9-6,13.9-12,20.2-18.7
			c7.4-7.8,13.8-16.5,21.3-24.1c6.7-6.7,14.2-12.5,21.7-18.3c10.7-8.3,21.4-16.5,32.1-24.8"/>
	</g>
	<g>
		<path class="st0" d="M215.2,185.1c-13.6,11.3-25.1,26.6-33.6,42.1c0.7-0.7,1.4-2.8,2.1-3.4"/>
	</g>
	<g>
		<path class="st0" d="M503.2-7.1c-22.9,20.8-45.7,41.7-68.6,62.5c-19.6,17.9-39.6,36-63.2,48.2c-7.2,3.7-14.7,6.8-21.6,10.8
			c-6.4,3.7-12.3,8.1-18.2,12.5c-13.4,10-28,20-41.4,30.1"/>
	</g>
	<g>
		<path class="st0" d="M510.9-5.1c-18.9,25.2-39.5,49-61.7,71.3c-7.8,7.8-15.9,15.5-24.5,22.4C410.4,99.9,394.7,109,379,118
			c-13.5,7.8-27,15.6-41.3,21.7c-26.3,11.2-55.5,16.6-78.3,33.7"/>
	</g>
	<g>
		<path class="st0" d="M526.1-5.1c-18.9,24.1-38,48.4-59.7,70c-21.8,21.6-46.6,40.7-74.7,52.9c33.3-14.4,66.2-29.8,98.7-46.1"/>
	</g>
	<g>
		<path class="st0" d="M403.3,190.2c2.7-0.6,5.4-1.2,8.1-1.8"/>
	</g>
	<g>
		<path class="st0" d="M434.3,184.7c2.9-0.9,5.9-1.4,9-1.7"/>
	</g>
	<g>
		<path class="st0" d="M418.9,181.6c10.1-3.1,20.7-3.7,31.2-4.4"/>
	</g>
	<g>
		<path class="st0" d="M444,170.1c4.5-1.3,9.3-1.9,14-1.7"/>
	</g>
	<g>
		<path class="st0" d="M459,165.6c7.7-0.5,15.3-0.5,23,0"/>
	</g>
	<g>
		<path class="st0" d="M468.3,169.4c4.6-0.2,9.1-0.1,13.7,0.1"/>
	</g>
	<g>
		<path class="st0" d="M454,173.4c2.8-0.2,5.6-0.1,8.3,0.3"/>
	</g>
	<g>
		<path class="st0" d="M488,166.7c4.6,0.6,9.2,1.9,13.4,3.8"/>
	</g>
	<g>
		<path class="st0" d="M489.7,162.3c4-0.4,8.1,0.5,11.6,2.4"/>
	</g>
	<g>
		<path class="st0" d="M495.3,159.1c7.7,0.3,15.4,1.8,22.8,4.3"/>
	</g>
	<g>
		<path class="st0" d="M480.7,158.3c3.8,0,7.6,0.5,11.3,1.4"/>
	</g>
	<g>
		<path class="st0" d="M493.7,154c8.2-0.1,16.3,1.3,24,4"/>
	</g>
	<g>
		<path class="st0" d="M519,163.6c2.6,0.8,5.1,1.6,7.7,2.4"/>
	</g>
	<g>
		<path class="st0" d="M512,152.4c6.6,1.9,12.9,5,18.5,9.1"/>
	</g>
	<g>
		<path class="st0" d="M529.4,166.2c4.4,1.8,8.5,4.5,11.8,7.9"/>
	</g>
	<g>
		<path class="st0" d="M535.6,163.5c6.1,3.6,12.1,7.1,18.2,10.7"/>
	</g>
	<g>
		<path class="st0" d="M534.4,159.2c5.3,1.8,10.3,4.4,14.9,7.5"/>
	</g>
	<g>
		<path class="st0" d="M522,150.5c7.6-1,15.4,0.2,22.3,3.5"/>
	</g>
	<g>
		<path class="st0" d="M534.3,146.6c4.6,0.5,8.9,2.5,13.1,4.4c4.6,2.1,9.1,4.3,13.7,6.4"/>
	</g>
	<g>
		<path class="st0" d="M546.7,157.2c9.1,3.5,17.8,7.9,25.9,13.1"/>
	</g>
	<g>
		<path class="st0" d="M556.7,171c6.5,1.6,12.7,4.5,18.1,8.6"/>
	</g>
	<g>
		<path class="st0" d="M574.3,172c5.7,2.1,10.8,5.6,14.9,10"/>
	</g>
	<g>
		<path class="st0" d="M590,185c3.2,1.7,6.3,3.6,9.4,5.6"/>
	</g>
	<g>
		<path class="st0" d="M576,165.3c8.1,2.7,15.5,7.2,21.7,13"/>
	</g>
	<g>
		<path class="st0" d="M584.1,156.6c4.8,3.4,9.6,6.8,13.9,10.9c4.3,4,8,8.8,10.2,14.2"/>
	</g>
	<g>
		<path class="st0" d="M603.7,186c2.9,1.9,5.5,4.4,7.3,7.3"/>
	</g>
	<g>
		<path class="st0" d="M604.2,169.1c7,5.3,12.5,12.4,16,20.5"/>
	</g>
	<g>
		<path class="st0" d="M615.3,191.7c3.1,1.9,6.1,4,9,6.3"/>
	</g>
	<g>
		<path class="st0" d="M627,191.3c1.1-0.1,2,0.8,2.8,1.6c3.1,3.4,6,6.9,8.6,10.7"/>
	</g>
	<g>
		<path class="st0" d="M566.5,154.2c1.7,1.5,3.9,2.3,6,3.1c4.5,1.8,8.7,4.2,12.5,7.1"/>
	</g>
	<g>
		<path class="st0" d="M564,158.7c2.3,1.3,4.6,2.3,7.1,3.2"/>
	</g>
	<g>
		<path class="st0" d="M546.3,144.1c7.7,1.5,15.2,4.5,21.7,9"/>
	</g>
	<g>
		<path class="st0" d="M561,143.1c7.4,2.7,14.2,6.7,20.1,11.9"/>
	</g>
	<g>
		<path class="st0" d="M572,143c7.8,3.6,15.2,8.1,22,13.4"/>
	</g>
	<g>
		<path class="st0" d="M599.4,159.6c2.2,1.4,4.4,2.8,6.6,4.2c3.6,2.3,7.5,5,8.7,9.1"/>
	</g>
	<g>
		<path class="st0" d="M593.3,145.7c8.9,5,16.6,12.1,22.3,20.6"/>
	</g>
	<g>
		<path class="st0" d="M601.4,143.8c13.7,8.3,22.4,22.5,30.6,36.3"/>
	</g>
	<g>
		<path class="st0" d="M617,175c4.6,2.9,8.9,6.1,13.1,9.6"/>
	</g>
	<g>
		<path class="st0" d="M611.8,141.5c10.2,8.8,16.3,21.3,22.2,33.4"/>
	</g>
	<g>
		<path class="st0" d="M634.9,187.1c5.5,6.2,9.5,13.8,11.4,21.9"/>
	</g>
	<g>
		<path class="st0" d="M638.4,183.3c4.2,5.6,8,11.5,11.3,17.7"/>
	</g>
	<g>
		<path class="st0" d="M619.5,142.1c17.1,18.3,30.1,40.4,37.8,64.2"/>
	</g>
	<g>
		<path class="st0" d="M629.9,142.7c2.3,5,6,9.3,9.3,13.7c10.3,13.9,17.2,30.5,19.7,47.6"/>
	</g>
	<g>
		<path class="st0" d="M638.4,143.8c6.7,10.2,13.5,20.5,18.4,31.6s8.1,23.4,7.3,35.6"/>
	</g>
	<g>
		<path class="st0" d="M643.5,139.2c7.7,10.9,15.5,22.1,19.3,35c2.9,9.6,3.4,19.8,3.7,29.8"/>
	</g>
	<g>
		<path class="st0" d="M654.1,141.1c9.9,17.7,14.7,38.2,13.7,58.5"/>
	</g>
	<g>
		<path class="st0" d="M659.2,138.4c5.1,8.5,10.3,17.3,12.5,27c1.3,5.6,1.5,11.3,1.7,17.1c0.3,8.3,0.6,16.9-1.8,24.9"/>
	</g>
	<g>
		<path class="st0" d="M669.1,145.1c9.8,18.4,13.1,40.1,9.3,60.6"/>
	</g>
	<g>
		<path class="st0" d="M680.3,150c7.9,19.2,7.4,41.6-1.1,60.5"/>
	</g>
	<g>
		<path class="st0" d="M689.2,155.4c3.6,17,2,35-4.4,51"/>
	</g>
	<g>
		<path class="st0" d="M694.8,160.3c0.6,10.5-0.1,21.1-0.8,31.6c-0.3,4.2-0.6,8.5-2.4,12.2c-1.3,2.7-3.3,5.3-3,8.2"/>
	</g>
	<g>
		<path class="st0" d="M700.8,160.4c2,11.3,1.2,23.1-2.3,34c-2,6.1-4.7,11.8-6.7,17.9"/>
	</g>
	<g>
		<path class="st0" d="M707.5,170c1.1,7.2-1.1,14.4-3.5,21.2c-2.8,8.1-5.8,16.1-9,24.1"/>
	</g>
	<g>
		<path class="st0" d="M719.9,172c-0.8,5-3,9.6-5.3,14c-5.6,11.2-11.4,22.2-17.6,33.1"/>
	</g>
	<g>
		<path class="st0" d="M724.2,171.3c0,8.6-3.9,16.8-8.5,24c-4.6,7.3-10.1,14-13.9,21.7"/>
	</g>
	<g>
		<path class="st0" d="M730.6,175.6c-6.4,15.6-14.9,30.4-25.1,43.9"/>
	</g>
	<g>
		<path class="st0" d="M738.4,180.6c-4.9,15.2-19.5,25.1-27.2,39.1"/>
	</g>
	<g>
		<path class="st0" d="M741.2,190.3c-6,12.6-16,23.3-28.2,30.1"/>
	</g>
	<g>
		<path class="st0" d="M744.6,200.5c-7.4,9.1-16.5,16.9-26.6,22.8"/>
	</g>
	<g>
		<path class="st0" d="M746.2,177.5c1.5,2.4,1.7,5.6,0.4,8.1"/>
	</g>
	<g>
		<path class="st0" d="M664.3,229.6c-1.2,1.8-2,3.9-2.5,6c-0.3,1.3-0.3,2.9,0.8,3.6c0.8,0.5,2.1,0.4,2.7,1.1"/>
	</g>
	<g>
		<path class="st0" d="M676.9,228c-1,1.9-2.3,3.6-3.9,5.1"/>
	</g>
	<g>
		<path class="st0" d="M713.6,234.3c-2.7,2-5.1,4.6-6.8,7.5"/>
	</g>
	<g>
		<path class="st0" d="M789.1,138.3c0.4,0.4,0.8,0.9,1.4,0.9c0.6,0,1-0.9,0.5-1.1c-0.5,0-1,0.3-1.2,0.7c0.5,0.3,1.1,0.4,1.6,0.2"/>
	</g>
	<g>
		<path class="st0" d="M714.1,166c0.3,6.1-1.1,12.2-3.4,17.8s-5.3,11-8.4,16.2"/>
	</g>
	<g>
		<path class="st0" d="M698.2,165.4c1.4,6.6,1.3,13.5-0.3,20"/>
	</g>
	<g>
		<path class="st0" d="M664.8,156.7c1.7,9.8,6.4,19.4,5,29.3"/>
	</g>
	<g>
		<path class="st0" d="M610.1,182.2c2.4,1.5,4.3,3.8,5.2,6.5"/>
	</g>
	<g>
		<path class="st0" d="M816.1,54.4c-0.2,0.3,0.6,0.3,0.5,0"/>
	</g>
	<g>
		<path class="st0" d="M813,14c-0.1,0.3,0.1,0.6,0.3,0.6"/>
	</g>
	<g>
		<path class="st0" d="M922.2-1.4c-1.7,39.7,4.8,80-3.7,118.8c-5.8,26.3-22,52.9-40.1,72.9"/>
	</g>
	<g>
		<path class="st0" d="M878.4,190.3c-26.8,21.4-44,47.9-55.1,80.4c-2.3,6.6-4.1,13.3-6.5,19.9c-2,5.4-4.3,10.6-6.3,15.9
			c-8.4,22.5-10.7,47.2-6.7,70.9"/>
	</g>
	<g>
		<path class="st0" d="M803.6,376.6c-0.4,21,1.8,42,6.7,62.3c1,4.3,2.1,8.5,3.3,12.8c7.2,27.3,14.5,54.7,23.4,81.6"/>
	</g>
	<g>
		<path class="st0" d="M837,532.9c5.3,17,10.6,34.1,15.9,51.1c7.3,23.5,14.7,48.2,9.4,72.2c-2.1,9.7-6.2,18.7-10.3,27.7"/>
	</g>
	<g>
		<path class="st0" d="M852.1,683.7c-4.6,12.8-14.2,23.7-26.2,30c-6.2,3.3-13,5.3-19.7,7.3c-4.4,1.3-8.8,2.6-13.4,3.2
			c-5.5,0.7-11.1,0.2-16.6,0.6c-5.4,0.5-10.8,1.8-16.2,2.3c-9.3,0.8-19.7-0.7-27.2,4.9c-3.9,2.9-6.4,7.2-8.6,11.6
			c-2.1,4.4-4,9-4.3,13.8s1.2,10,4.9,13.2"/>
	</g>
	<g>
		<path class="st0" d="M661.2,623c-4.4,2.6-8.8,5.1-12.8,8.3c-13.7,11-21,29.4-18.5,46.8c0.5,3.4,1.3,6.8,1.8,10.2
			c0.5,3.6,0.6,7.2,1.9,10.6c0.9,2.5,2.4,4.7,4,6.9c6.8,9.3,15.6,17.6,26.3,21.9s23.5,4.5,33.4-1.4"/>
	</g>
	<g>
		<path class="st0" d="M709.2,749.7c-1.9,3.2-3.8,6.4-4.6,10c-0.8,3.6-0.4,7.7,1.9,10.5"/>
	</g>
	<g>
		<path class="st0" d="M790.2,650.2c3.7,2.8,7.5,5.6,11.3,8.3c1.4,1,2.9,2,4.4,2.9c3.8,2.3,8,4.1,12.3,5.4"/>
	</g>
	<g>
		<path class="st0" d="M701.4,723c4.4-4.4,10.2-7.1,15.8-9.7c9.6-4.4,19.3-8.9,29.7-11c7.9-1.6,16.1-1.8,24.2-2
			c10.4-0.2,21.5-0.1,30.4,5.4c1.6,1,3.2,2.2,5,2.9s4,0.7,5.5-0.6c1.9-1.6,2-4.5,1.8-6.9"/>
	</g>
	<g>
		<path class="st0" d="M800.4,705.6c-26.3,11.6-56.4,14.3-84.3,7.5"/>
	</g>
	<g>
		<path class="st0" d="M684.4,593.9c2.1-0.4,3.6-2,5.1-3.6c1.8-1.9,3.7-3.8,5.6-5.7c1.6-1.5,3.3-3,5.1-4.1c4.4-2.7,9.9-3.5,13.5-7.2
			"/>
	</g>
	<g>
		<path class="st0" d="M686.5,547.5c-3.4,7.1-7.3,14.6-14.2,18.5"/>
	</g>
	<g>
		<path class="st0" d="M662.8,578.8c-4.4,4.9-9.7,9-15.5,12"/>
	</g>
	<g>
		<path class="st0" d="M627.3,610c0.1-0.2,0.2-0.4,0.3-0.7"/>
	</g>
	<g>
		<path class="st0" d="M639.1,641.3c-8.9,3.3-16.3,10.3-20,19.1"/>
	</g>
	<g>
		<path class="st0" d="M610.1,679.8c-0.6,0.2-0.9,1.2-0.4,1.6c0.5,0.3,1.2-0.3,0.9-0.9c-0.2-0.5-1.2-0.4-1.3,0.2"/>
	</g>
	<g>
		<path class="st0" d="M677.3,695.3c0,1.1,0.7,2.1,1.7,2.3c1,0.3,2.2-0.3,2.6-1.2c-0.7-0.3-1.5-0.6-2.2-0.9c-0.7-0.3-1.8-0.4-2,0.3
			c-0.2,0.6,0.4,1.1,1,1.3c0.6,0.2,1.3,0.2,1.6-0.2c0.4-0.4,0-1.4-0.6-1.1c-0.6,0.3-0.4,1.3,0.2,1.4c0.4-0.3,0.4-0.9,0.1-1.3
			c-0.3-0.4-0.9-0.4-1.3-0.1c0.6,0.5,1.4,0.8,2.2,0.8"/>
	</g>
	<g>
		<path class="st0" d="M684.7,710.4c-1.4-0.1-2.7-0.1-4.1,0.2c1,0.6,2.4,0.7,3.4,0.1c-0.7-0.4-1.6-0.5-2.4-0.3
			c1.1,0.5,2.3,0.7,3.5,0.5c-1.2-0.3-2.5-0.3-3.8-0.2c0.7,0,1.3,0,2,0"/>
	</g>
	<g>
		<path class="st0" d="M740.7,688.3c2.2,1.3,4.7,2.3,7.2,2.9c0.9,0.2,2,0.2,2.4-0.6"/>
	</g>
	<g>
		<path class="st0" d="M756.7,564c-0.6-0.4-1.1,0.8-0.6,1.2s1.3,0.2,2-0.1c0.2-0.8-1.2-1.5-1.7-0.8"/>
	</g>
	<g>
		<path class="st0" d="M713.7,547c-0.5,0.5,0.1,1.4,0.7,1.3c0.6-0.2,0.6-1.3,0-1.5"/>
	</g>
	<g>
		<path class="st0" d="M708.2,495c0.4,3.8,1,7.6,1.8,11.3"/>
	</g>
	<g>
		<path class="st0" d="M920.7,104.3c16.1-33.7,22.8-71.9,19.2-109.1"/>
	</g>
	<g>
		<path class="st0" d="M921.3,101.7c6.9-34.6,9.8-70,8.7-105.3"/>
	</g>
	<g>
		<path class="st0" d="M824.7,199.4c-0.4,0.2-0.7,0.7-0.7,1.2c0.3,0.1,0.7-0.2,0.6-0.6"/>
	</g>
	<g>
		<path class="st0" d="M821.5,225c-0.2,0.4,0.6,0.7,0.9,0.4c0.3-0.3,0.3-0.9,0.2-1.3"/>
	</g>
</g>
<g id="Camada_2">
	<g>
		<path class="st0" d="M668.8,249.5c-2.7,2.7-5.3,5.3-8,8c-1.3,1.2-2.5,2.5-3.5,4c-1.7,2.6-2.4,5.8-2.8,8.9"/>
	</g>
	<g>
		<path class="st0" d="M651.8,281.7c-2.8,4.9-5.8,10.2-5.3,15.8c0.2,2.5,1,4.8,1.6,7.2c1,4,1.2,8.2,1.2,12.4c0,4.4-0.2,8.8-1.8,12.9
			c-2.6,6.7-8.8,12.4-8.1,19.6c0.4,4.8,4.1,8.8,8.3,11c4.3,2.2,9.1,2.8,13.9,3.3c14,1.5,28.1,1.9,42.2,0.8
			c-14.8,7.5-32.2,6.6-48.7,8c-5,0.4-10.1,1.1-15,0.2c-2.7-0.5-5.5-1.4-8.2-1.1s-5.6,2.4-5.4,5.2c12.2,3.3,25.2,2.4,37.6,0.5
			c12.5-1.9,24.9-4.9,37.5-5.4c-25.5,10.9-53.8,15.6-81.5,13.3c10.4,6.4,23.7,5.7,35.7,3.5c12-2.2,24.1-5.8,36.3-4.6
			c-22.9,8.3-48,14.6-71.4,7.9c-8.8-2.5-17.1-6.9-26-9.1"/>
	</g>
	<g>
		<path class="st0" d="M594.3,382.8c-1.5,0.4-0.3,2.7,1.1,3.5c24.9,13.9,54.1,19.9,82.4,17c-8.1,2.4-16.3,4.9-24.8,5.1
			c-7.2,0.2-14.3-1.3-21.3-3.1c-19.6-5.1-38.5-13.2-55.8-24c-0.2,3.5,2.5,6.5,5.6,8.1c3.1,1.6,6.6,2.1,9.9,3.1
			c12,3.4,22,13.3,25.6,25.2c-7.6-6.9-15.4-13.6-24.3-18.7c-12.7-7.3-27.1-11.3-41.3-15.1c3.8,4.5,8.8,7.8,13.8,10.9
			c16,9.9,33,18.4,50.6,25.2c-20.7-4.7-40.6-12.8-58.7-23.8c0.8,4.6-0.4,9.4-3.3,13.1c-0.1-7.9-3.4-15.7-9.1-21.1
			c-3.7-3.6-8.3-6.2-12.6-9.1c-6.3-4.3-12-9.5-18.4-13.8c-10-6.7-21.3-11-32.5-15.3c-20.3-7.7-40.6-15.4-61-23.2
			c7.7-0.2,15.2,1.7,22.7,3.6c20.6,5.2,41.4,10.4,61,18.6c11.9,5,23.4,11,35.8,14.4c11.6,3.1,23.7,3.8,35.6,3.6
			c16.9-0.3,34-2.4,50.1-7.7c3.5-1.1,7-2.5,9.8-4.9c2.8-2.4,4.5-1.3,4-4.9"/>
	</g>
	<g>
		<path class="st0" d="M549.4,410.1c4.2,1.1,8.4,2.3,12.5,3.8"/>
	</g>
	<g>
		<path class="st0" d="M570.4,426.5c11.4-1.1,22.5-4.3,32.8-9.3"/>
	</g>
	<g>
		<path class="st0" d="M616.4,415.1c4.3-1.2,8.3-3.7,11.3-7.1"/>
	</g>
	<g>
		<path class="st0" d="M644.3,417c-0.3,2,0.6,4,2.2,5.2c0.4-1.5,0.2-3.2-0.5-4.6"/>
	</g>
	<g>
		<path class="st0" d="M620,419c-2.6,3.1-6.5,4.7-10.2,6.2c-12.5,5-25.3,10.2-38.8,10.3"/>
	</g>
	<g>
		<path class="st0" d="M564.7,422.3c-3.8,0-7.6,0-11.3,0"/>
	</g>
	<g>
		<path class="st0" d="M546.3,421.5c-5.9-1.3-11.8-2.9-17.6-4.6"/>
	</g>
	<g>
		<path class="st0" d="M508.1,396.2c-3.9-1.8-7.6-4.2-10.8-7.1"/>
	</g>
	<g>
		<path class="st0" d="M483,374.7c-2.5-3.3-5.7-6.2-9.3-8.3"/>
	</g>
	<g>
		<path class="st0" d="M450.1,302c2.2-3.1,6.3-4.3,10.1-5.1c8.9-2,17.9-3.6,26.9-4.6"/>
	</g>
	<g>
		<path class="st0" d="M484.7,329.3c2.1-0.3,4.2-0.4,6.3-0.2"/>
	</g>
	<g>
		<path class="st0" d="M516,350c5.2,0,10.5,1,15.4,3"/>
	</g>
	<g>
		<path class="st0" d="M539.7,332.6c1,0.3,2.2,0.1,3-0.6c-0.4-0.1-0.9-0.2-1.3-0.1s-0.7,0.7-0.4,1.1"/>
	</g>
	<g>
		<path class="st0" d="M664,287.7c-1,2.2-2.3,4.3-3.6,6.3"/>
	</g>
	<g>
		<path class="st0" d="M655.6,305.7c0.9,9.3,3.3,18.4,7,26.9c1.3,3,2.8,6,3.1,9.2c0.3,3.2-0.6,6.6,0.5,9.6c0.6,1.7,1.8,3.1,2.8,4.6
			c1.5,2.3,2.5,5,3,7.7"/>
	</g>
	<g>
		<path class="st0" d="M870.4,197.7c-2.7,12-3.1,24.5-1,36.6c1.1,6.3,2.8,12.5,3.7,18.8c3.7,26.2-7.2,52.6-5.5,79
			c0.2,3.2,0.7,6.6,2.7,9.1c2.9,3.7,8.2,4.4,12.9,4.7c10.3,0.7,20.6,0.8,30.9,0.4c-11,1.2-22.1,2.4-33.1,3.6
			c-4.3,0.5-9.2,1.3-11.7,4.9c18.6,4.9,39,2.9,56.4-5.4c-10.6,7.7-23.9,11.3-37,11.6s-26.2-2.5-38.6-6.8
			c14.9,9.4,33.6,12.5,50.8,8.5c-9.3,4.2-19.9,4.8-30,3.4c-10.1-1.4-19.8-4.8-29.3-8.5c2,1.8,4,3.6,6,5.4
			c-12.2-9.4-30.4-2.1-44.9-7.1"/>
	</g>
	<g>
		<path class="st0" d="M868.9,340.2c-21.5,7-44.2,10.5-66.9,10.3"/>
	</g>
	<g>
		<path class="st0" d="M805.6,413.6c9.7-8.7,16.7-20.4,19.6-33.1"/>
	</g>
	<g>
		<path class="st0" d="M808.5,386.1c9.6-2.6,18.8-6.8,27.1-12.5c1.3-0.9,2.6-1.8,4.2-2c1.5-0.2,2.9,0.3,4.4,0.7
			c6.7,1.9,13.9,2.2,20.7,0.9c-5-0.1-10.2-0.3-14.8-2.3c-4.6-2-8.5-6.4-8.5-11.4"/>
	</g>
	<g>
		<path class="st0" d="M840.9,371.7c-4-1.6-7.6-4-10.7-7c0,2.4,0.1,4.8,0.6,7.1c-2-2.8-4.2-5.7-7.4-6.8c-1.7-0.6-3.5-0.6-5.2-0.8
			c-5.8-0.6-11.5-2.7-16.3-6"/>
	</g>
</g>
<g id="Camada_3">
	<g>
		<path class="st0" d="M448.3,332.9c11.9,0.3,24,1.7,35.9,2c7.1,0.2,14.2,0.3,21.1,1.8c7.7,1.6,15,4.8,22.4,7.7
			c24.1,9.3,49.9,15,75.6,13c8-0.6,16-2,24-1.8c13.6,0.3,26.7,5,40.1,7.3c13.4,2.3,28.5,1.7,38.9-7c-25.3,16.5-57.8,16.9-87.8,13.6
			c26,7.7,53.6,6.5,80.6,5.3c-39,11.3-81.9,8.1-118.8-8.7c-1.9,2,1.1,4.8,3.7,5.8c34.9,12.8,72.8,17.4,109.8,13.3
			c-23.9,6-49.1,5.6-73.2,1c-24.2-4.7-47.4-13.5-69.5-24.2c4.6,7.7,12.8,12.5,20.9,16.4c29,13.9,61.5,20.3,93.6,18.7
			c-16.5,5.7-34.6,3.7-51.7,0.6c-25.1-4.5-50.8-11.6-70.3-28.1c7.7,7.6,12.3,18.3,12.6,29.1c-10-8.1-16.5-19.6-24.2-30
			c-2.6-3.5-5.3-6.8-8.4-9.9c-9.5-9.5-22.1-16-35.4-18.1c-9.5-1.5-19.4-0.9-28.7-3.6c-7.6-2.2-14.7-6.6-22.6-6.5"/>
	</g>
	<g>
		<path class="st0" d="M635.8,356.3c2.9-3.5,4.3-8.3,3.7-12.9"/>
	</g>
	<g>
		<path class="st0" d="M637.6,342.7c2.4,1,5.2,0.6,7.3-0.9c2-1.6,3.1-4.2,2.8-6.8c-0.2-1.7-1-3.2-1.4-4.9c-0.4-1.7-0.5-3.5-0.5-5.3
			c-0.1-7.8-0.3-15.7-0.4-23.5c0-3.1-0.1-6.3,1-9.2c1.3-3.5,4.1-6.2,6.8-8.8"/>
	</g>
	<g>
		<path class="st0" d="M655,273.5c0-3.4,1.3-6.9,3.6-9.5"/>
	</g>
	<g>
		<path class="st0" d="M450,302c11.3-5.2,23.6-8.1,36-8.7"/>
	</g>
	<g>
		<path class="st0" d="M474,319.2c-7.4-0.9-15.1,0-22.1,2.6c-2.3,0.8-4.6,1.9-6.9,2.6c-7.2,2.3-14.9,1.9-22.4,1.5"/>
	</g>
	<g>
		<path class="st0" d="M655.9,305.6c-1.7,6.4,1.3,13,4.3,18.8c3,5.8,6.4,12.1,5.7,18.6c-0.4,3.2-1.6,6.7,0,9.5
			c0.8,1.3,2.2,2.2,3.3,3.3c1.8,1.8,3.1,4.1,3.5,6.6"/>
	</g>
	<g>
		<path class="st0" d="M660.5,294c1.4-2,2.8-3.9,4.1-5.9"/>
	</g>
	<g>
		<path class="st0" d="M570.5,426.2c10.9-2.1,21.6-4.9,32-8.5"/>
	</g>
	<g>
		<path class="st0" d="M628,407.5c-3.6,2-7.3,4.1-10.9,6.1"/>
	</g>
	<g>
		<path class="st0" d="M644.8,417.1c0,0.8,0,1.8,0.5,2.4c0.5,0.7,1.7,0.9,2.1,0.1c0.4-0.6-0.1-1.5-0.5-2.1"/>
	</g>
	<g>
		<path class="st0" d="M620.6,418.8c-15.5,7.7-31.9,15.4-49.2,15.5"/>
	</g>
	<g>
		<path class="st0" d="M508.5,396.4c-5.3-1.1-9.9-4.9-12.1-9.9"/>
	</g>
	<g>
		<path class="st0" d="M482.4,375.6c-2.1-4.3-5.5-8-9.7-10.3"/>
	</g>
	<g>
		<path class="st0" d="M529,416.8c5.5,1.5,10.9,3,16.4,4.5"/>
	</g>
	<g>
		<path class="st0" d="M553.5,422c3.1,0.6,6.3,0.7,9.5,0.5"/>
	</g>
	<g>
		<path class="st0" d="M561.6,413.8c-4-1.8-8.3-3.2-12.6-4.2"/>
	</g>
	<g>
		<path class="st0" d="M871.5,197.4c-5,10.5-4.3,22.8-2.2,34.3c2.1,11.5,5.4,22.8,5.3,34.4c-0.1,8.2-1.9,16.3-3.3,24.4
			c-2.4,13.4-3.6,27.1-3.7,40.7c0,1.6,0,3.2,0.8,4.5c1,1.8,3.1,2.7,5.1,3.3c13.8,4.6,29.2,4.2,42.7-1.1c-8,6.7-18.7,9.8-29.2,9.8
			c-10.5,0-20.8-2.8-30.5-6.8c-1.9,1.5-1.4,4.6,0.3,6.3c1.7,1.6,4.2,2.2,6.5,2.5c23.4,3.7,47.7,0.8,69.5-8.5
			c-11.6,12.2-29.9,14.9-46.7,15.1c-11.8,0.1-23.5-0.6-35.2-2.3c11.6,8.1,26.9,8.3,41.1,8.2c-15,2.2-30.4,0.8-44.7-4.1
			c3.4,7.7,12,12.7,20.4,11.9c-6.8,2.6-14.4,0.4-21.2-2.3c-6.8-2.7-13.6-6-20.9-5.7c-6.8,0.3-17.4,3.6-23.4,0.2"/>
	</g>
	<g>
		<path class="st0" d="M867.5,333.1c-18,9.4-45.2,14.8-65.5,13.1"/>
	</g>
	<g>
		<path class="st0" d="M847.1,368.6c-10.6,7.2-22.5,12.6-35,15.7"/>
	</g>
	<g>
		<path class="st0" d="M825,380.5c-3.4,12.1-10.1,23.2-19.2,31.8"/>
	</g>
</g>
<g id="Camada_4">
	<g>
		<path class="st0" d="M657.7,265c-1,2.8-1.9,5.6-2.9,8.4"/>
	</g>
	<g>
		<path class="st0" d="M438.4,331.1c22.7-0.8,45.6-1.5,67.8,3.3c8.4,1.8,16.7,4.4,25.1,6.6c32.1,8.2,66.1,9.4,98.7,3.3
			c5.1-0.9,10.6-2,15.3,0.3c2.3,1.1,4.1,3,6.2,4.4c4.6,3.1,10.2,3.9,15.7,4.4c15.6,1.3,31.5,0.1,46.7-3.7
			c-22,12.9-49.5,11.3-74.6,6.4c16.4,4,33.3,5.9,50.1,5.5c-21.7,7.3-45.3-0.9-68.2-0.4c4.5,2.9,10.1,3.6,15.4,4
			c15.3,1.2,30.7,1.7,46,1.2c-26.5,5.5-53.9,1.6-80.6-2.3c21.5,13.3,48.2,14,73.5,14.4c-42.9,5.6-86.6-4.9-126.5-21.5
			c32.3,23.1,70,38.5,109.3,44.6c-45.7-9.6-91.7-22-131-47.2c16.8,18.7,37.1,34.1,59.6,45.2c-36.8-8.6-58.2-51.1-95-59.4
			c-15.5-3.5-33.1-0.7-46.2-9.8"/>
	</g>
	<g>
		<path class="st0" d="M474.9,367.1c2.6,2.7,5.6,5.2,8.7,7.3"/>
	</g>
	<g>
		<path class="st0" d="M499.9,384.7c1.5,1,2.9,1.9,4.4,2.9c2,1.3,4.1,2.7,6.5,3.3"/>
	</g>
	<g>
		<path class="st0" d="M520.3,409.4c2.4,1.6,5,2.8,7.7,3.6"/>
	</g>
	<g>
		<path class="st0" d="M535.3,414.9c1.6,0.4,3.1,0.9,4.7,1.3"/>
	</g>
	<g>
		<path class="st0" d="M550.1,417.1c2.6,1,5.4,1.6,8.2,1.7"/>
	</g>
	<g>
		<path class="st0" d="M572.3,422.1c14.6,0.6,29.4-4.4,40.6-13.8"/>
	</g>
	<g>
		<path class="st0" d="M620.2,413.2c-5.3,6.7-14.1,9.5-22.3,11.9c-2.9,0.8-5.7,1.7-8.6,2.5c-1.7,0.5-3.6,1-5.3,0.6"/>
	</g>
	<g>
		<path class="st0" d="M605.2,422.9c4.2-3.3,7.4-7.8,9.3-12.8"/>
	</g>
	<g>
		<path class="st0" d="M611.3,397.3c-1.2,4.2-5.4,6.6-9.4,8.4c-5.6,2.5-11.3,4.5-17.2,6"/>
	</g>
	<g>
		<path class="st0" d="M579.3,412.7c-1.4,0-2.9,0-4.3,0"/>
	</g>
	<g>
		<path class="st0" d="M560.7,409.7c-1.1-0.5-2.3-1-3.4-1.6"/>
	</g>
	<g>
		<path class="st0" d="M549.7,405.7c-0.3-0.3-0.7-0.7-1-1"/>
	</g>
	<g>
		<path class="st0" d="M644.3,413.3c0.4,1.8,0.2,3.7-0.5,5.4"/>
	</g>
	<g>
		<path class="st0" d="M629.3,399c0,3.2-2.1,6.3-5.1,7.5"/>
	</g>
	<g>
		<path class="st0" d="M644.4,343.9c1.2,0.2,2.4-0.7,2.8-1.8c0.5-1.1,0.4-2.4,0.3-3.6c-0.8-9.4-2.2-18.7-2.2-28.1
			c-0.1-9.4,1.3-19,5.6-27.4"/>
	</g>
	<g>
		<path class="st0" d="M652.1,293c1.6,20.7,8.8,40.5,16,60"/>
	</g>
	<g>
		<path class="st0" d="M872.8,196.1c-2.5,10.8-5,21.8-3.6,32.8c0.7,5.1,2.2,10.1,3,15.2c1,5.9,1.1,12,1.2,18
			c0.2,18.5-0.4,37-1.6,55.4c-0.2,2.2-0.3,4.4-1.1,6.5c-1.3,3.2-4,5.5-6.8,7.4c-8.8,5.9-19.4,8.6-29.9,9.3
			c-10.6,0.7-21.1-0.6-31.6-2.1"/>
	</g>
	<g>
		<path class="st0" d="M870.3,323.6c-2,2.7-0.4,6.8,2.4,8.7c2.8,1.9,6.3,2.2,9.7,2.4c11,0.8,22.3,1.5,32.9-1.5
			c-19.5,8.2-41.2,10.8-62.1,7.5c16.8,3.1,34,4.3,51.1,3.5c7.9-0.4,16-1.2,23.4-4.1c-25,10.6-53.6,12.2-79.6,4.4
			c16.5,8.4,36,8.3,54.5,6.9c-20.3,5-42.1,4.1-62-2.5c5.4,8,15.3,11.6,24.6,13.9c-21.4,1.6-40.9-12.7-62.2-15.1"/>
	</g>
	<g>
		<path class="st0" d="M842,359.2c-2.6,4.9-6.3,9.2-10.7,12.6c-1.6,1.3-3.4,2.4-4.8,4c-1.7,1.9-2.6,4.3-3.6,6.6
			c-4.7,10.7-10.6,20.9-17.6,30.3"/>
	</g>
</g>
<g id="Camada_5">
	<g>
		<path class="st0" d="M429.6,328.5c11.6-1.2,23.3-2.4,35-2.3c31.1,0.2,61.3,9.1,92,14s63.9,5.1,90.7-10.6c1.2-0.7,2.4-1.5,3-2.7
			c1-1.9,0.2-4.2-0.4-6.2c-3.6-11.8-1.6-25.3,5.4-35.5"/>
	</g>
	<g>
		<path class="st0" d="M656,275.5c-0.4-3.6,0.3-7.3,1.9-10.5"/>
	</g>
	<g>
		<path class="st0" d="M643.7,332c8.1,5.3,18.7,2.1,27.8-1.3c-9.1,5.6-19.6,8.8-30.3,9.3c18.2,2.9,37.4-0.7,53.3-10.1
			c-16.9,11-36.9,17.1-57.1,17.3c18.9,3.9,39,1.9,56.7-5.7c-9.5,8-22.5,10.2-34.9,11.3c-23.1,2-46.4,1.4-69.3-1.9
			c21.4,7.3,44.1,10.6,66.7,9.8c-23.5,1.7-47.1-0.1-70.5-1.9c25.6,7.1,52.4,10,79,8.8c-41,5.6-82.2-5.5-122-16.5
			c-1.2,1.5-0.7,3.8,0.6,5.2c1.3,1.4,3.2,2.1,5,2.7c18.2,6.2,36.9,10.7,56,13.4c-42.5-0.1-81.2-23-122.3-34.1
			c-17.3-4.6-35.1-7.2-52.9-9.7"/>
	</g>
	<g>
		<path class="st0" d="M461,326.1c6.8-1.9,13.7-3.7,20.5-5.3"/>
	</g>
	<g>
		<path class="st0" d="M485.4,325.8c3.3-1.9,7.3-2.9,11.1-2.7"/>
	</g>
	<g>
		<path class="st0" d="M499,313.9c9.2-0.7,17.9-4.2,26.7-7c16.7-5.3,34.3-8,51.8-8.2"/>
	</g>
	<g>
		<path class="st0" d="M481.3,338.4c2.5,3.5,5.5,6.6,8.9,9.3c3.4,2.7,7.2,4.9,11,6.9c24.8,13.4,52.9,20.9,81,20.5
			c10.9-0.2,22.2-1.7,31.2-7.8"/>
	</g>
	<g>
		<path class="st0" d="M612.8,377.2c-15,2.1-30.2,2.9-45.3,2.6c-8.9-0.2-17.9-0.8-26.5-3.3c-8.6-2.5-16.7-6.9-22.5-13.7"/>
	</g>
	<g>
		<path class="st0" d="M523.9,367.8c0.2,1,0.9,1.9,1.5,2.7c3.5,4.6,5.4,10.3,5.4,16c2.1-4.2,1-9.2-0.4-13.7"/>
	</g>
	<g>
		<path class="st0" d="M542.8,377.1c3.7,2,5.9,5.8,7.7,9.5c2.1,4.3,3.8,8.9,3.7,13.6c1.3-4.6,1.8-9.4,1.5-14.2
			c-0.2-2.5-0.6-5.2-2.2-7.1"/>
	</g>
	<g>
		<path class="st0" d="M570.7,380.1c7.9,3.3,13.9,10,18.7,17.1c-2.1-6.1-4.3-12.6-9-17"/>
	</g>
	<g>
		<path class="st0" d="M591,379.8c2.9,1.5,5.1,4.1,6.6,7s2.5,6,3.4,9.2c1.3,4.3,2.5,8.6,3.8,12.9c-0.1-2.1-0.1-4.2-0.2-6.3
			c-0.3-7.9-0.7-16.2-5.2-22.7"/>
	</g>
	<g>
		<path class="st0" d="M603.9,378.4c4.1,2.1,7.3,5.7,9.6,9.8c2.3,4,3.7,8.5,4.9,13c0.4-0.6,0.3-1.3,0.1-2c-1.7-7.3-4-14.5-6.9-21.4"
			/>
	</g>
	<g>
		<path class="st0" d="M530.8,355c0.2,2.5,2.6,4.2,4.4,6c1.2,1.2,2.2,2.5,3.4,3.8c3.3,3.4,7.6,5.6,11.9,7.6"/>
	</g>
	<g>
		<path class="st0" d="M475.3,367.8c-0.1,0.7,0.5,1.4,1,1.9c2.9,2.6,6.1,4.8,9.5,6.5"/>
	</g>
	<g>
		<path class="st0" d="M496.5,388.8c5.7,0.8,10,6.5,15.8,6.9"/>
	</g>
	<g>
		<path class="st0" d="M518.3,415.2c1.3,1,2.7,1.9,4.2,2.5"/>
	</g>
	<g>
		<path class="st0" d="M528.5,418.7c1.4,0.5,2.8,1.2,4,2.1"/>
	</g>
	<g>
		<path class="st0" d="M537.5,418.7c1.4,0.1,2.9,0.6,4,1.5"/>
	</g>
	<g>
		<path class="st0" d="M548.5,422.8c1,1,2.2,1.8,3.5,2.3"/>
	</g>
	<g>
		<path class="st0" d="M557,422.7c2,0.6,4,1.2,6,1.9"/>
	</g>
	<g>
		<path class="st0" d="M552.1,410.2c3.4,2.4,7.3,4.1,11.4,5"/>
	</g>
	<g>
		<path class="st0" d="M573,426.4c5.3,0.9,10.7,0.1,15.9-1.1c2.2-0.5,4.3-1,6.3-2c1.4-0.7,2.6-1.6,3.8-2.5
			c4.2-3.2,8.2-6.8,11.9-10.6"/>
	</g>
	<g>
		<path class="st0" d="M583.3,437.3c6.7-2.3,13-5.5,19.3-8.8c1.7-0.9,3.4-1.8,4.8-3c3.4-2.8,5.3-7,7-11"/>
	</g>
	<g>
		<path class="st0" d="M613,426.1c3-1.1,4.8-4.1,6.4-6.9"/>
	</g>
	<g>
		<path class="st0" d="M623.4,411.7c0.7-1.2,1.9-2,2.7-3.1c1-1.4,1.3-3.2,0.8-4.8"/>
	</g>
	<g>
		<path class="st0" d="M594,407c3.3-1,6.3-2.9,8.6-5.5"/>
	</g>
	<g>
		<path class="st0" d="M604.4,400c3.9-2.4,6.5-6.4,9-10.3"/>
	</g>
	<g>
		<path class="st0" d="M617,386.3c2.3-3,4.1-6.3,5.3-9.8"/>
	</g>
	<g>
		<path class="st0" d="M642.5,417c0.9,1.6,1.8,3.2,2.6,4.8c0.3-0.9,0.2-1.8-0.1-2.6c-0.1-0.4-0.4-0.8-0.8-0.9s-0.9,0.1-0.9,0.5"/>
	</g>
	<g>
		<path class="st0" d="M656.6,297.8c-3.6,8.6-3,18.8,1.6,26.9c1.5,2.6,3.4,5.1,3.6,8.1"/>
	</g>
	<g>
		<path class="st0" d="M665.8,361.5c0.6,3.9,1.1,8.2-1.3,11.3"/>
	</g>
	<g>
		<path class="st0" d="M868.6,203.2c1.2,3.4,1.5,7.2,0.8,10.8c-0.3,1.7-0.9,3.5-2.2,4.7c-2.1,2-5.3,2-8.1,1.8"/>
	</g>
	<g>
		<path class="st0" d="M866.3,219.1c0.8,4.4,2.2,8.7,3.5,12.9c6.3,21.4,9.3,43.7,8.8,66c-0.1,5.2-0.4,10.6-2.1,15.5
			s-4.8,9.6-9.5,12.1c-3,1.6-6.4,2.2-9.8,2.7c-17.3,2.4-35,1.9-52.1-1.4"/>
	</g>
	<g>
		<path class="st0" d="M868.7,325.7c4.8,2.3,10.3,2.8,15.6,3.1c18.1,1,36.2,0.8,54.2-0.6c-25.2,4.3-50.9,5.4-76.3,3.3
			c18.2,4.3,36.9,6.3,55.6,5.4c-21.8,2.9-44,2.9-65.7-0.2c2.6,2.3,5.9,3.6,9.2,4.9c10,3.9,20,7.6,30.2,10.9
			c-16.4-1.7-32.5-6.3-47.3-13.4c-0.9,3.1,0.4,6.3,1.8,9.2c2.4,5.1,5,10.2,7.6,15.2c-14.9-11-31-22.4-49.5-22.7"/>
	</g>
	<g>
		<path class="st0" d="M806.5,413.8c4-5.3,5.8-12.2,5.1-18.8"/>
	</g>
	<g>
		<path class="st0" d="M807.5,399c4-4.5,8.2-9.2,9.8-15c0.2-0.9,0.4-1.8,0.7-2.7c1.1-3,3.6-5.2,6.1-7.2"/>
	</g>
	<g>
		<path class="st0" d="M807.7,363.3c2.7,0,5.3-0.1,8-0.1c1.2,0,2.5,0,3.5,0.6c1,0.5,1.6,1.5,2.2,2.4c3,4.5,5.7,9.2,8.3,14
			c-1.1-5.7-2.7-11.4-4.7-16.9c0.6-0.5,1.5-0.1,2.1,0.4c4,3.1,7.4,6.9,10,11.2c-2.3-4.4-3.4-9.4-3.1-14.3c0.9-0.3,1.8,0.5,2.5,1.2
			c4.3,4.3,8.6,8.6,12.9,13c-2.4-6.6-5.4-13.1-8.9-19.3"/>
	</g>
	<g>
		<path class="st0" d="M806.2,350.3c1.2,4.7,4.1,9,8,11.9"/>
	</g>
	<g>
		<path class="st0" d="M854.4,327.9c-4.8-3.9-11.5-4.1-17.6-4.2c-5.5,0-11-0.1-16.4-0.1"/>
	</g>
</g>
<g id="Camada_6">
	<g>
		<path class="st0" d="M428.2,328.8c7.6,2.7,15.8,2.5,23.9,2.2c72.9-2.2,146-1.3,218.9,2.7c19.5,1.1,39.5,2.3,58.1-3.8
			c-19.5,2.6-39.4,2.6-58.8-0.1c11.2-0.8,22.2-3.7,32.3-8.6c-4.3-0.1-8.7-0.1-13-0.2c9-2.4,17.1-7.5,23.2-14.6
			c-16.3,8.1-35.1,16.4-51.9,9.7c1.8-4.6,5.2-8.6,9.5-11.1c-4.5,1.6-9,3.2-13.5,4.8c5.4-3,10.1-7.1,13.8-11.9
			c-17.4,4.3-30.9,22-48.7,20.5c-1.4-0.1-3-0.6-3.4-1.9c-0.4-1.3,0.8-2.6,1.8-3.5c9.6-8.4,19.1-16.7,28.7-25.1
			c-12.2,5.3-23.1,13.1-35.1,18.9c-12,5.8-25.8,9.5-38.5,5.7c14.3-5.6,27.6-13.4,39.5-23c-21.2,6.8-40.2,20-61.9,24.6
			c-15.4,3.3-31.4,2.1-47.1,3.1c-25.7,1.7-50.6,9.3-76.3,11.4"/>
	</g>
	<g>
		<path class="st0" d="M477.2,330.4c11.4,9.8,26.3,14.4,39.4,21.8c8.1,4.5,15.6,10.2,24,14.2c4,1.9,8.3,3.5,12.5,5
			c5.4,2,10.8,3.9,16.4,4.6c11.4,1.4,22.7-2.6,33.5-6.5c7.6-2.7,15.2-5.5,21.7-10.2"/>
	</g>
	<g>
		<path class="st0" d="M629.7,361c-1,6.4-5.3,11.9-10.1,16.2c-2.2,2-4.6,3.9-7.5,4.6"/>
	</g>
	<g>
		<path class="st0" d="M463.3,330.7c14.3,16.6,33.5,28,52.4,39.1c11.7,6.9,23.4,13.8,35,20.7"/>
	</g>
	<g>
		<path class="st0" d="M556.3,389.2c2.2-1.4,4.5-2.5,7.1-2.8s5.3,0.4,7,2.3c2.1,2.2,2.8,5.8,5.6,7c1.4,0.6,2.9,0.4,4.4,0.2"/>
	</g>
	<g>
		<path class="st0" d="M554,371.7c-9-11.5-11.3-27.9-5.9-41.4"/>
	</g>
	<g>
		<path class="st0" d="M614.1,364.9c4.5-8.3,9.1-16.6,13.6-24.9c1.4-2.5,2.8-5.1,3.2-8"/>
	</g>
	<g>
		<path class="st0" d="M625.3,331.6"/>
	</g>
	<g>
		<path class="st0" d="M568.5,330.2"/>
	</g>
	<g>
		<path class="st0" d="M617.4,331.4"/>
	</g>
	<g>
		<path class="st0" d="M551,391c1.9-1.1,4.4-0.2,5.7,1.6c1.3,1.7,1.5,4.1,1.4,6.2c-0.2,4.4-1.8,8.7-4.4,12.3
			c0.3-6.7-0.7-13.4-3.1-19.6"/>
	</g>
	<g>
		<path class="st0" d="M580,395.7c-0.3-1.2,0.4-2.5,1.4-3.3c1-0.8,2.3-1.1,3.5-1.3c0.6-0.1,1.2-0.2,1.7,0.1c0.6,0.3,0.9,0.8,1.2,1.3
			c2.5,4.2,3.7,9.2,3.5,14.1c0,0.7-0.4,1.6-1,1.3c-0.2-0.1-0.3-0.2-0.4-0.4c-2.9-4-5.1-8.8-9.3-11.4"/>
	</g>
	<g>
		<path class="st0" d="M595.2,391.1c0.5-0.8,1.7-1,2.5-0.5c0.8,0.4,1.4,1.3,1.9,2.1c4.5,7.5,7.1,16.4,5.5,25
			c-2.2-7.3-4.9-14.5-8.3-21.4c-0.8-1.6-1.6-3.2-1.9-4.9"/>
	</g>
	<g>
		<path class="st0" d="M606.8,388.1c1.1,2.4,2.6,4.5,3.9,6.7c2.6,4.3,4.7,8.9,6.3,13.8c0.7-0.5,0.8-1.5,0.7-2.3
			c-0.1-5.6-1.2-11.3-3.3-16.5c-0.6-1.4-1.2-2.9-2.5-3.6s-3.3-0.5-3.8,1"/>
	</g>
	<g>
		<path class="st0" d="M663.2,333.5c-2.2,3-1.6,7.2-0.1,10.6c1.5,3.4,3.9,6.3,5.3,9.8c1.8,4.6,1.7,9.7,1.6,14.7
			c-0.1,2.4-0.1,4.7-0.2,7.1"/>
	</g>
	<g>
		<path class="st0" d="M650.6,332.8c-1,1.8-2.1,3.6-3,5.5c-3.6,7.7-4,16.5-4.4,25c-2.7-5.4-2.6-11.8-5.2-17.2
			c-1-2.2-2.5-4.2-3.4-6.5c-0.9-2.3-1.3-4.9-0.1-7.1"/>
	</g>
	<g>
		<path class="st0" d="M516.7,415c8.5,3.2,17.3,5.4,26.1,7.6c2.9,0.7,5.9,1.4,8.9,1.1"/>
	</g>
	<g>
		<path class="st0" d="M570.3,427.4c10.8-1.4,21.4-4.4,31.3-8.8"/>
	</g>
	<g>
		<path class="st0" d="M607.4,415.7c1.8-1.3,3.3-2.9,4.6-4.8"/>
	</g>
	<g>
		<path class="st0" d="M619.3,419.6c-7.7,8.5-19,12.5-29.9,16.3c-2.8,1-5.7,2-8.7,2.4"/>
	</g>
	<g>
		<path class="st0" d="M625.7,410.7c1.1-1.9,2.3-3.8,3.4-5.6"/>
	</g>
	<g>
		<path class="st0" d="M474.7,368.6c1.2,1.7,2.8,3.2,4.5,4.5"/>
	</g>
	<g>
		<path class="st0" d="M499.6,389.8c3.1,2.1,6.4,4.1,9.8,5.8"/>
	</g>
	<g>
		<path class="st0" d="M519,400.6c0.2,0.1,0.4,0.2,0.7,0.3"/>
	</g>
	<g>
		<path class="st0" d="M551.7,411.6c3.1,1,6.2,2.1,9.3,3.1"/>
	</g>
	<g>
		<path class="st0" d="M585.3,415.3c3.2-1.1,6.3-2.4,9.3-4"/>
	</g>
	<g>
		<path class="st0" d="M605.5,406.9c1.7-1.5,3.5-2.9,5.2-4.4"/>
	</g>
	<g>
		<path class="st0" d="M618.6,394.3c1.9-2.3,3.8-4.7,5.7-7"/>
	</g>
	<g>
		<path class="st0" d="M466.2,323.4c15.4-6.8,30.8-13.6,46.8-18.9c14-4.6,28.6-7.9,43.3-8.4"/>
	</g>
	<g>
		<path class="st0" d="M493.7,318.5c1.9-0.3,3.7-1.2,5.5-2c12.4-5.8,25.8-9,39.2-12.1"/>
	</g>
	<g>
		<path class="st0" d="M575,289.2c3.6-1,7.4-1.3,11-0.7"/>
	</g>
	<g>
		<path class="st0" d="M621.7,285.6c4.1,0.3,8.2,1.4,12,3.1"/>
	</g>
	<g>
		<path class="st0" d="M661.3,258.5c-2.3,4.3-4.1,8.8-5.3,13.5"/>
	</g>
	<g>
		<path class="st0" d="M652.6,280.7c-1.4,2.9-4.9,4.8-5.3,8"/>
	</g>
	<g>
		<path class="st0" d="M644.4,418.3c0.4,1.1,0.9,2.2,1.5,3.3c0.4-0.8,0-1.9-0.8-2.3"/>
	</g>
	<g>
		<path class="st0" d="M867.8,200.4c-0.7,2.3,0.4,4.7,1.2,7c0.7,2.3,0.8,5.3-1.2,6.7c-0.8,0.6-1.9,0.7-2.9,0.9
			c-1.8,0.3-3.5,0.5-5.3,0.8"/>
	</g>
	<g>
		<path class="st0" d="M866.6,215.4c-2,10.2,4.7,19.7,7.8,29.6c1.8,5.7,2.3,11.7,2.6,17.7c0.2,5.3,0.2,10.6,0,16
			c-0.2,3.6-0.4,7.2-1.9,10.5s-4.5,6-8,6.4"/>
	</g>
	<g>
		<path class="st0" d="M875.1,290.6c2.5,1.7,5.2,3.9,5.3,6.9c0.1,2.7-1.9,5-4.2,6.2c-2.4,1.2-5.1,1.3-7.8,1.5c-19,1.1-38,2.2-57,1.3
			"/>
	</g>
	<g>
		<path class="st0" d="M879.4,301.1c13.2,4.8,27.7,3.3,41.6,1.7c5.1-0.6,10.2-1.2,15.3-1.8c-2.2,2.3-5.6,2.8-8.7,3.2
			c-15,2-30.1,2.7-45.2,2.3c19.7,4.4,40.3,4.4,59.9,0c-7.6,3-15.7,3.9-23.8,4.6c-10,0.9-20,1.4-30,1.5c21,0.9,42.5,1.7,62.7-3.9
			c-19.1,7-39.8,8.3-60.1,8.5c18.8,2.2,37.9,2.4,56.7,0.6c-18.9,1.9-37.8,3.9-56.7,2.9c15.8,3.2,31.9,5.2,48,6
			c-17.7,3.6-36.1,0.7-53.8-3.1c-17.7-3.9-35.3-8.7-53.4-9.1c-8.1-0.2-16.3,0.5-24.3-0.7"/>
	</g>
	<g>
		<path class="st0" d="M804.6,356.5c7.1,1.2,14.3,1.7,21.5,1.5c2.8-0.1,5.8-0.3,7.8-2.2c0.6-0.6,1.1-1.3,1.8-1.8
			c1.8-1.3,4.7-0.4,5.7,1.6c1,2,0.1,4.6-1.7,5.9c-1.6,1.1-3.7,1.3-5.7,1.5c-10,0.7-20.6,1.1-29.4-3.6"/>
	</g>
	<g>
		<path class="st0" d="M812.3,349.3c1.5,4,4.5,7.9,8.7,8.5"/>
	</g>
	<g>
		<path class="st0" d="M821.1,314.2c-3.6,5.1-6.9,10.6-8.7,16.6"/>
	</g>
	<g>
		<path class="st0" d="M837.2,354.2c8.4-8.5,14.9-18.8,19.1-30c0.7-2,1.4-4.2,1-6.2"/>
	</g>
	<g>
		<path class="st0" d="M827.7,323.8"/>
	</g>
	<g>
		<path class="st0" d="M838.3,314.6"/>
	</g>
	<g>
		<path class="st0" d="M841.7,354.7c4.6,0.7,8.5,4.4,9.3,9c-1.5-2-3.7-3.5-6.1-4.2c2.4,3.5,3.9,7.7,4,12c-2-3.7-5.8-6.2-10-6.7
			c1.6,3.3,1.4,7.5-0.6,10.6c-1.9-3.3-4.7-6-8.1-7.9c0.3,2.2,0.1,4.5-0.5,6.7c-2.2-4.6-6.2-8.2-11-10c1.5,4.3,2.9,8.5,4.4,12.8
			c-5.1-6.8-11.9-12.5-19.5-16.3"/>
	</g>
	<g>
		<path class="st0" d="M806.1,415.2c4.2-6.6,6.1-14.5,5.5-22.2"/>
	</g>
	<g>
		<path class="st0" d="M806,401.6c2.8-2.9,4.9-6.5,6.2-10.3c0.1-0.2,0.1-0.5,0-0.7c-0.1-0.3-0.5-0.3-0.9-0.3c-1.5,0-2.9,0-4.4,0
			c2.1,1.5,5.2,0.8,7.1-1c1.9-1.8,2.6-4.5,2.9-7c-3.3,2-7.1,3.3-10.9,3.8c8.9-1.6,17.9-6.2,21.8-14.4"/>
	</g>
	<g>
		<path class="st0" d="M863.3,295c-6.4-0.1-12.9,0.1-19.3,0.7"/>
	</g>
	<g>
		<path class="st0" d="M862.6,301.9c-9.3-1.6-19-0.7-27.9,2.5"/>
	</g>
	<g>
		<path class="st0" d="M825,283.6c3.6-0.7,7.3-0.9,11-0.6"/>
	</g>
	<g>
		<path class="st0" d="M848.3,275c0.1,0.2,0.3,0.4,0.4,0.6"/>
	</g>
	<g>
		<path class="st0" d="M851.7,260.3c1.1,0.1,2.3-0.1,3.3-0.7"/>
	</g>
	<g>
		<path class="st0" d="M622.6,331.8c-0.3,8.3-2.7,16.5-6.5,23.9c-3.1,6-7.4,11.9-13.6,14.4"/>
	</g>
</g>
<g id="Camada_7">
	<g>
		<path class="st0" d="M433.1,329c17.4,3.2,35.4-0.1,52.6-4c16.1-3.6,32.1-7.8,48.4-9.9c11.6-1.5,23.4-2.1,35.1-2.6
			c9.4-0.4,18.9-0.9,28.3,0c13.1,1.2,25.7,5,38.3,8.9c28.6,8.9,58,18.8,87.9,16.1c-14.7-0.5-29.3-3.3-43.1-8.2
			c7.1,0.5,14.2,0.9,21.3,1.4c-9.7-1.6-19.2-4.1-28.4-7.4c17.8-2.3,36.7-5.1,50.3-16.8c-20.5,5.9-41.6,9.5-62.9,10.6
			c9.1-4.9,19.5-6.7,29.4-9.7s19.9-7.7,25.7-16.2c-13.8,8.1-28.9,14.1-44.4,17.8c15-5.6,27.9-16.7,35.5-30.8
			c-7.9,14.9-23.8,25.2-40.6,26.5c5.9-4.9,11.2-10.5,15.7-16.8c-7.1,6.3-16.2,10.4-25.6,11.6c4.5-4.1,9.3-7.7,14.5-10.8
			c-10.4,3.8-20.8,7.7-31.2,11.5c-2.4,0.9-5.9,1.3-6.7-1.2c18.9-10.7,39.3-23,46.6-43.5c-10.3,9.5-21.2,18.2-32.7,26.1
			c-14.4,9.9-31.7,18.9-48.7,14.8c9-11.8,16.2-24.9,21.4-38.8c-7.6,8-12.5,18.1-19.7,26.4c-7.1,8.4-17.9,15.2-28.6,12.8
			c4.2-10.3,8.3-20.6,12.5-31c-7,11.2-14.4,22.9-25.6,30c-7.6,4.9-16.5,7.4-25.2,9.8c-28.8,8-54.9,16.6-83.6,24.6"/>
	</g>
	<g>
		<path class="st0" d="M483.7,339.3c18.4,8.5,36.8,17,53.2,28.9c3.9,2.8,7.7,5.8,12,7.9c2.8,1.4,5.8,2.4,8.8,3.2
			c4,1.2,8.1,2.2,12.3,2.3c4.3,0.2,8.5-0.6,12.7-1.3c10.1-1.7,20.4-3.6,29.4-8.4c9-4.9,16.7-13.4,17.8-23.5"/>
	</g>
	<g>
		<path class="st0" d="M634.4,320.8c-0.2,2.6-1.2,5-2.2,7.3c-5.1,12.2-10.3,24.4-17.3,35.6c-2.5,4-5.3,7.9-8.9,10.9"/>
	</g>
	<g>
		<path class="st0" d="M559,313c-6.9,4.2-12.1,11-14.9,18.5c-1.2,3.1-1.9,6.3-2.3,9.6c-0.4,3.2-0.4,6.4,0.4,9.5
			c0.6,2.5,1.6,4.9,2.8,7.3c3,6,6.8,11.6,11.8,15.9s11.4,7.4,18,7.7"/>
	</g>
	<g>
		<path class="st0" d="M618.8,316.2c3,3.9,3.9,9.1,4,14c0.1,10.5-3,21-8.8,29.7c-5.8,8.7-14.4,15.6-24.1,19.5"/>
	</g>
	<g>
		<path class="st0" d="M477.7,350c5.2,5.5,10.4,10.9,15.8,16.2c2.1,2.1,4.3,4.2,7.2,5c1.7,0.5,3.6,0.4,5.3,1
			c1.8,0.7,3.2,2.1,4.7,3.3c2.4,1.9,5.2,3.2,8,4.5c9.1,4.3,18.3,8.6,27.4,12.9c0.9,0.4,1.7,0.8,2.6,1c1.2,0.3,2.4,0.3,3.6,0.6
			c3.6,0.9,6.5,4.4,10.2,3.9c1.5-0.2,2.8-1.1,4.3-1.2c2.2-0.2,4.1,1.2,6,2.3c1.9,1.1,4.3,2,6.2,0.8c1.1-0.7,1.7-1.9,2.6-2.7
			c2.4-2.3,7-1.6,8.5,1.4"/>
	</g>
	<g>
		<path class="st0" d="M594.2,398.1c-0.7-1.2-0.5-2.8,0.5-3.9c0.9-1,2.5-1.4,3.8-0.8c0.9,0.4,1.6,1.2,2.5,1.8
			c0.9,0.5,2.2,0.7,2.8-0.1c0.5-0.6,0.3-1.6,0.4-2.4c0.2-2.7,3-4.5,5.6-5.3c3.8-1.1,8-1.2,11.9-0.1c-1.7-1.9-3.5-4.4-2.6-6.8
			c1.2-3.1,5.8-3.1,8-5.5c2.5-2.8,1.1-7.3,2.6-10.7"/>
	</g>
	<g>
		<path class="st0" d="M627.3,375.2c3.4,1.4,6.6,3,9.8,4.8c2.8,1.6,5.7,3.6,6.9,6.7c-1.7-0.4-3.4-0.8-5.1-1.2
			c-6.2-1.4-12.5-2.8-18.8-2"/>
	</g>
	<g>
		<path class="st0" d="M616.3,393.8c3.6,5.9,5.3,12.9,4.9,19.7c0,0.5-0.1,1.1-0.5,1.5c-2.7-6.9-7.1-13.1-12.8-17.8"/>
	</g>
	<g>
		<path class="st0" d="M601.2,397.3c3.3,4.3,4.6,9.8,4.8,15.2c0.1,3.5-0.2,7.1-2.2,10c-2.2-7.6-5.1-15.1-8.7-22.2"/>
	</g>
	<g>
		<path class="st0" d="M589.6,399.2c2.2,4.7,2.7,10.3,1.3,15.3c-0.9-1.2-1.8-2.3-2.6-3.5c-2.1-2.8-4.3-5.6-7-7.8"/>
	</g>
	<g>
		<path class="st0" d="M571.7,400.8c-0.5,1.8-1.5,3.5-2.9,4.8c-0.1,0.1-0.3,0.2-0.4,0.2c-0.2,0-0.4-0.2-0.5-0.5
			c-1-1.8-2.1-3.6-3.1-5.4"/>
	</g>
	<g>
		<path class="st0" d="M557.3,399.6c1.6,4.6,0.7,10-2.3,13.8c-1.7-7-4.6-13.8-8.4-19.9"/>
	</g>
	<g>
		<path class="st0" d="M531,386.6c1.3,4.2,0.6,9-2,12.6c-0.6-5.4-3.4-10.2-6.1-14.9"/>
	</g>
	<g>
		<path class="st0" d="M651.5,326.5c-2.4,2.8-4.8,5.6-5.7,9.1c-0.9,3.3-0.4,7-2.2,10c-0.4,0.7-1,1.3-1,2.1c-0.1,0.8,0.3,1.5,0.7,2.2
			c4.9,8.8,6.1,19.6,3.5,29.3"/>
	</g>
	<g>
		<path class="st0" d="M663.5,330.3c-1.8,4.5-1.4,9.9,1,14.1c1.1,1.9,2.6,3.7,3.8,5.6c2.6,4.3,3.5,9.5,3.3,14.6
			c-0.2,5-1.3,10-2.5,14.9"/>
	</g>
	<g>
		<path class="st0" d="M449.6,327c2.3-4.6,7.3-7,11.9-9.2c9.3-4.4,18.7-8.8,28-13.3c6.5-3.1,13.1-6.2,19.8-8.8
			c18.3-7.1,37.7-10.7,56.9-14.2"/>
	</g>
	<g>
		<path class="st0" d="M489.8,314.7c19.2-11.4,40.6-19.3,62.6-23.1"/>
	</g>
	<g>
		<path class="st0" d="M619.8,275.2c7,0.7,13.9,2.1,20.5,4.2"/>
	</g>
	<g>
		<path class="st0" d="M597.7,276.6c-4.7,0.4-9.3,0.8-14,1.3"/>
	</g>
	<g>
		<path class="st0" d="M579,290.5c2.5,0,5,0,7.5,0"/>
	</g>
	<g>
		<path class="st0" d="M614.5,288.8c3-0.3,6.1,0,9,0.7"/>
	</g>
	<g>
		<path class="st0" d="M656.3,274.7c-0.5-2,0.6-4.1,0.1-6.1c-0.1-0.5-0.4-1.1-0.6-1.6c-0.6-1.8-0.1-3.8,0.7-5.5
			c2.2-4.7,6.5-8.1,10.8-11.1"/>
	</g>
	<g>
		<path class="st0" d="M805.2,415.6c0.5-1.2,0.9-2.4,1.3-3.6c1.9-5.7,3.7-11.5,3.3-17.5"/>
	</g>
	<g>
		<path class="st0" d="M804.3,400.6c2.8-1.9,4.5-5,6.4-7.9c3.3-4.9,7.4-9.3,12.1-12.9"/>
	</g>
	<g>
		<path class="st0" d="M804,367c9.3,2.4,19.2,2.9,28.7,1.4c2.8-0.5,5.7-1.1,8.2-2.5c1.3-0.7,2.6-1.7,3.3-3.1
			c0.7-1.4,0.7-3.1-0.3-4.3c-1.2-1.4-3.3-1.4-5-0.8c-1.7,0.6-3.1,1.7-4.7,2.6c-4.4,2.3-9.6,2.2-14.5,1.9c-5.3-0.3-10.8-0.8-15.2-3.7
			"/>
	</g>
	<g>
		<path class="st0" d="M843.2,361.1c4.7,1.3,8.9,4.8,11,9.2c-2.7-1.5-5.4-2.8-8.3-3.9c2.1,3,3.2,6.7,3,10.4
			c-2.5-2.5-5.5-4.6-8.8-6.1c0.8,2.8,0.5,5.9-0.8,8.5c-1.9-3.9-5.2-7-9.2-8.7c0.9,2.3,1,4.9,0.3,7.2c-1.9-4.3-6.1-7.5-10.7-8.1
			c2.8,4.2,5,8.9,6.5,13.8c-3.5-5.5-8.1-10.3-13.4-14.1"/>
	</g>
	<g>
		<path class="st0" d="M812.2,309.1c21.7-10,47.2-6.6,70.1-13.5c5.2,1.7,10.6,2.9,16.1,3.5c2.2,0.2,4.5,0.4,6.6-0.1
			c2.3-0.5,4.3-1.6,6.3-2.8c5.2-3.2,10-7,14.3-11.3c-4.3,4.9-8.7,9.9-13,14.8c13.8,2.1,27.8-1.9,40.8-7.1
			c-11.6,10.2-27.7,13.5-43.1,13.3c-3.8,0-8.2,0-10.5,3c7,2.5,14.7,1.9,22.1,0.8c12.6-1.8,25-4.8,37.1-8.7
			c-14.4,12.6-34.3,18.5-53.2,15.9c-13.6-1.9-26.4-7.9-40-9.9c-7.8-1.1-15.7-0.9-23.6-0.6c-5.6,0.2-11.3,0.4-16.8,1.4
			c-5.2,1-10.3,2.7-15.3,4.5"/>
	</g>
	<g>
		<path class="st0" d="M872.7,199.7c-2.8,4.5-5.6,9.3-5.9,14.6c-0.2,3.6,0.7,7.2,1.7,10.7c1.9,7.1,3.9,14.2,5.8,21.3
			c1.4,5.2,2.8,10.4,3.2,15.7c0.3,4.8-0.2,9.7-0.9,14.5c-0.2,1.3-0.4,2.5-0.3,3.8c0.1,1.5,0.5,2.9,1.3,4.2c1.1,1.9,2.9,3.3,4,5.2
			c1.1,1.9,1.3,4.7-0.5,6"/>
	</g>
	<g>
		<path class="st0" d="M876,280.8c-2.4-0.4-4.8,0.8-6.8,2.2c-2,1.4-3.9,3-6.3,3.6c-1.4,0.4-2.8,0.3-4.2,0.3
			c-2.1-0.1-4.1-0.3-6.2-0.6"/>
	</g>
	<g>
		<path class="st0" d="M849,284.2c-8,0.5-15.3,4.7-22.2,8.7"/>
	</g>
	<g>
		<path class="st0" d="M867.5,234.7c-2.1-0.2-4.2-0.4-6.3-0.1c-2.1,0.4-4.1,1.4-5.3,3.1"/>
	</g>
	<g>
		<path class="st0" d="M833,281c-3.9,0.5-7.6,2.1-10.7,4.5"/>
	</g>
	<g>
		<path class="st0" d="M831.2,361.5c3.5-1.7,6-4.9,8.3-8c5.3-7,10.6-14,14.8-21.7c4.2-7.7,7.2-16.2,7.5-25"/>
	</g>
	<g>
		<path class="st0" d="M825,378.5c1-1.5,2-3,3-4.5"/>
	</g>
</g>
<g id="Camada_8">
	<line class="st0" x1="1379.7" y1="24.3" x2="985.7" y2="24.3"/>
	<line class="st0" x1="1379.7" y1="54.6" x2="985.7" y2="54.6"/>
	<path class="st0" d="M985.7,54.4"/>
	<path class="st0" d="M1379.7,54.4"/>
	<line class="st0" x1="1379.7" y1="84.7" x2="985.7" y2="84.7"/>
	<path class="st0" d="M985.7,84.9"/>
	<path class="st0" d="M1379.7,84.9"/>
	<line class="st0" x1="1379.7" y1="115.2" x2="985.7" y2="115.2"/>
	<path class="st0" d="M985.7,115"/>
	<path class="st0" d="M1379.7,115"/>
	<line class="st0" x1="1379.7" y1="145.3" x2="985.7" y2="145.3"/>
	<path class="st0" d="M985.7,145.2"/>
	<path class="st0" d="M1379.7,145.2"/>
	<line class="st0" x1="1379.7" y1="175.5" x2="985.7" y2="175.5"/>
	<path class="st0" d="M985.7,175.1"/>
	<path class="st0" d="M1379.7,175.1"/>
	<line class="st0" x1="1379.7" y1="205.4" x2="985.7" y2="205.4"/>
	<path class="st0" d="M985.7,205.4"/>
	<path class="st0" d="M1379.7,205.4"/>
	<line class="st0" x1="1379.7" y1="235.7" x2="985.7" y2="235.7"/>
	<path class="st0" d="M985.7,235.4"/>
	<path class="st0" d="M1379.7,235.4"/>
	<line class="st0" x1="1379.7" y1="265.7" x2="985.7" y2="265.7"/>
	<path class="st0" d="M985.7,265.9"/>
	<path class="st0" d="M1379.7,265.9"/>
	<line class="st0" x1="1379.7" y1="296.2" x2="985.7" y2="296.2"/>
	<path class="st0" d="M985.7,296"/>
	<path class="st0" d="M1379.7,296"/>
	<line class="st0" x1="1379.7" y1="326.3" x2="985.7" y2="326.3"/>
	<path class="st0" d="M985.7,326.2"/>
	<path class="st0" d="M1379.7,326.2"/>
	<line class="st0" x1="1379.7" y1="356.5" x2="985.7" y2="356.5"/>
	<path class="st0" d="M985.7,356.2"/>
	<path class="st0" d="M1379.7,356.2"/>
	<line class="st0" x1="1379.7" y1="386.5" x2="985.7" y2="386.5"/>
	<path class="st0" d="M985.7,386.7"/>
	<path class="st0" d="M1379.7,386.7"/>
	<path class="st0" d="M985.7,386.5"/>
	<path class="st0" d="M1379.7,386.5"/>
	<line class="st0" x1="1379.7" y1="416.7" x2="985.7" y2="416.7"/>
	<path class="st0" d="M985.7,417"/>
	<path class="st0" d="M1379.7,417"/>
	<line class="st0" x1="1379.7" y1="447.3" x2="985.7" y2="447.3"/>
	<path class="st0" d="M985.7,447.1"/>
	<path class="st0" d="M1379.7,447.1"/>
	<line class="st0" x1="1379.7" y1="477.4" x2="985.7" y2="477.4"/>
	<path class="st0" d="M985.7,477.3"/>
	<path class="st0" d="M1379.7,477.3"/>
	<line class="st0" x1="1379.7" y1="507.6" x2="985.7" y2="507.6"/>
	<path class="st0" d="M985.7,507.2"/>
	<path class="st0" d="M1379.7,507.2"/>
	<line class="st0" x1="1379.7" y1="537.5" x2="985.7" y2="537.5"/>
	<path class="st0" d="M985.7,537.7"/>
	<path class="st0" d="M1379.7,537.7"/>
	<path class="st0" d="M985.7,537.5"/>
	<path class="st0" d="M1379.7,537.5"/>
	<line class="st0" x1="1379.7" y1="567.8" x2="985.7" y2="567.8"/>
	<path class="st0" d="M985.7,568"/>
	<path class="st0" d="M1379.7,568"/>
	<line class="st0" x1="1379.7" y1="598.3" x2="985.7" y2="598.3"/>
	<path class="st0" d="M985.7,598.1"/>
	<path class="st0" d="M1379.7,598.1"/>
	<line class="st0" x1="1379.7" y1="628.4" x2="985.7" y2="628.4"/>
	<path class="st0" d="M985.7,628.3"/>
	<path class="st0" d="M1379.7,628.3"/>
	<line class="st0" x1="1379.7" y1="658.6" x2="985.7" y2="658.6"/>
	<path class="st0" d="M985.7,658.3"/>
	<path class="st0" d="M1379.7,658.3"/>
	<line class="st0" x1="1379.7" y1="688.5" x2="985.7" y2="688.5"/>
	<path class="st0" d="M985.7,688.7"/>
	<path class="st0" d="M1379.7,688.7"/>
	<path class="st0" d="M985.7,688.4"/>
	<path class="st0" d="M1379.7,688.4"/>
	<line class="st0" x1="1379.7" y1="718.7" x2="985.7" y2="718.7"/>
	<path class="st0" d="M985.7,719"/>
	<path class="st0" d="M1379.7,719"/>
	<line class="st0" x1="1379.7" y1="749.2" x2="985.7" y2="749.2"/>
	<path class="st0" d="M985.7,749"/>
	<path class="st0" d="M1379.7,749"/>
	<path class="st0" d="M985.7,779.3"/>
	<path class="st0" d="M1379.7,779.3"/>
	<path class="st1" d="M985.7,809.5"/>
	<path class="st1" d="M1379.7,809.5"/>
	<path class="st1" d="M985.7,809.2"/>
	<path class="st1" d="M1379.7,809.2"/>
	<line class="st1" x1="1379.7" y1="839.5" x2="985.7" y2="839.5"/>
	<path class="st0" d="M1333,786"/>
	<path class="st0" d="M1300,787"/>
	<path class="st0" d="M1299.5,786.5"/>
	<path class="st0" d="M1266.5,787.6"/>
	<path class="st0" d="M1267,787"/>
	<path class="st0" d="M1233.9,788.1"/>
	<path class="st0" d="M1234.4,787"/>
	<path class="st0" d="M1201.4,788.1"/>
	<path class="st1" d="M1168.9,788.6"/>
	<path class="st1" d="M1141.4,789.1"/>
	<path class="st0" d="M1136,788.2"/>
	<path class="st1" d="M1113,789.2"/>
	<path class="st1" d="M1076.4,789.7"/>
	<path class="st1" d="M1043.9,790.3"/>
	<path class="st0" d="M1013.8,787"/>
</g>
<g id="Camada_9">
	<path class="st1" d="M1539.8,770.6"/>
	<path class="st1" d="M1506.7,771.6"/>
	<path class="st1" d="M1473.2,772.1"/>
	<path class="st1" d="M1440.7,772.7"/>
	<path class="st1" d="M1408.2,772.7"/>
	<path class="st0" d="M1375.7,773.2"/>
	<line class="st0" x1="1347.1" y1="-17" x2="1348.1" y2="773.7"/>
	<path class="st0" d="M1341.8-18"/>
	<line class="st0" x1="1318.7" y1="-16.9" x2="1319.7" y2="773.8"/>
	<path class="st0" d="M1308.2-17.5"/>
	<line class="st0" x1="1282.2" y1="-16.4" x2="1283.2" y2="774.3"/>
	<path class="st0" d="M1275.7-16.9"/>
	<line class="st0" x1="1249.7" y1="-15.9" x2="1250.7" y2="774.8"/>
	<line class="st0" x1="1219.6" y1="-19.1" x2="1220.6" y2="771.6"/>
</g>
</svg>
