<?xml version="1.0" encoding="utf-8"?>
<!-- Generator: Adobe Illustrator 21.0.0, SVG Export Plug-In . SVG Version: 6.00 Build 0)  -->
<svg version="1.1" id="Camada_1" xmlns="http://www.w3.org/2000/svg" xmlns:xlink="http://www.w3.org/1999/xlink" x="0px" y="0px"
	 viewBox="0 0 1366 768" style="enable-background:new 0 0 1366 768;" xml:space="preserve">
	 <defs>
	 <style>


		 #Camada_1{

		 fill:rgba(255, 255, 255, 0);
		 stroke-dasharray:1300;
		 stroke-dashoffset:0;
		 -webkit-animation: dash 4s linear forwards;
		 -o-animaiton: dash 4s linear forwards;
		 -moz-animation: dash 4s linear forwards;
		 animation: dash 4s linear forwards;
		 }

		 @-webkit-keyframes dash{
		 from{
		 stroke-dashoffset: 1300;

		 }
		 to{
		 stroke-dashoffset: 0;
		 fill:rgba(255, 255, 255, 1);
		 }}



	 </style>
	 </defs>
<style type="text/css">
	.st0{fill:none;stroke:rgba(255, 255, 255, 0.3);stroke-width:1.5;stroke-miterlimit:10;}
</style>
<g id="Camada_2">
	<g>
		<path class="st0" d="M561.4,216.6c-0.7-0.5-1.3-1-2-1.6"/>
	</g>
	<g>
		<path class="st0" d="M555,213.4c0.6-5.9-3.1-11.5-7.7-15.3c-4.6-3.8-10-6.4-14.8-9.9c-2.5-1.9-4.9-4-7.6-5.6
			c-4.1-2.5-8.8-3.6-13.5-4.5"/>
	</g>
	<g>
		<path class="st0" d="M520,179.4c3.9,0.7,7.9-0.8,11.9-0.6c3.8,0.3,7.2,2.2,10.5,4c7,4,14.3,8.1,19.2,14.5"/>
	</g>
	<g>
		<path class="st0" d="M563,194.5c4.6,4.6,7.4,11,7.6,17.5"/>
	</g>
	<g>
		<path class="st0" d="M548.8,227.9c-1.7-7-5.9-13.4-11.8-17.7c-5.9-4.3-13.3-6.3-20.5-5.7"/>
	</g>
	<g>
		<path class="st0" d="M513.5,207.5c12.2-1.1,24.7,6.4,29.5,17.7c0.2,0.5,0.4,1.1,0.3,1.7c-0.4,1.3-2.3,1.3-3.6,0.8
			c-10.4-3.3-19.6-10.3-25.4-19.6"/>
	</g>
	<g>
		<path class="st0" d="M586.9,229.3c-5.1,2.8-8.3,8.1-10.2,13.5c-3.1,8.7-3.4,18.4-0.8,27.3c1.4,5,3.7,10,3.1,15.1
			c-1,7.6-9.4,13.3-16.7,11.4"/>
	</g>
	<g>
		<path class="st0" d="M536.4,275.9c1.8,5,5.5,9.4,10.1,12.1"/>
	</g>
	<g>
		<path class="st0" d="M510.5,317.5c-2.9-1.3-5.5-3.4-7.5-6"/>
	</g>
	<g>
		<path class="st0" d="M528.6,340.9c-6.8-2.9-14.8-2.9-21.6,0"/>
	</g>
	<g>
		<path class="st0" d="M581.1,236.1c3.6,0.9,6.9,2.9,9.4,5.7c0.8,0.9,1.5,2.2,0.8,3.1c-0.3,0.4-0.9,0.7-1.4,0.8
			c-4.4,1.5-9.4,1.3-13.7-0.7"/>
	</g>
	<g>
		<path class="st0" d="M591.5,238.5c-2.8-1.6-5.9-2.7-9-3.4"/>
	</g>
	<g>
		<path class="st0" d="M590.7,231.1c-1.2,0.9-2.7-1.1-2.2-2.5c0.5-1.4,1.9-2.2,2.8-3.4c0.4-0.5,0.7-1,1.1-1.4c1.8-1.9,4.7-2,7.3-2.1
			c2.6-0.1,5.7-0.8,6.7-3.2"/>
	</g>
	<g>
		<path class="st0" d="M595.6,231.5c2-2.4,5.6-3.3,8.5-2.1"/>
	</g>
	<g>
		<path class="st0" d="M570.3,296.5c-0.9,8.6-5.1,16.7-11.5,22.4c-3.6,3.2-7.8,5.6-11.1,9.1c-1.8,1.9-3.4,4-4.9,6.2
			c-4.4,6.1-8.8,12.3-11.8,19.2c-3.8,8.5-6.2,19-14.5,23.1c-3.9,1.9-8.4,2-12.6,1.5c-12.9-1.5-24.6-8.2-35-15.9
			s-19.9-16.7-30.7-23.9c-5.5-3.6-11.3-6.8-16.5-10.9c-14.2-11.2-22.8-29.3-22.4-47.4"/>
	</g>
	<g>
		<path class="st0" d="M506.1,308.4c9.6,1.1,19.1,2.1,28.7,3.2c1.6,0.2,3.3,0.4,4.7,1.1c1.8,0.9,3.2,2.5,5.1,3
			c2.1,0.6,5.2,0.2,5.8,2.3"/>
	</g>
	<g>
		<path class="st0" d="M515,312.1c5.3,2.3,11,3.9,16.7,4.5c-0.5-0.9-2,0.2-1.8,1.2c0.3,1,1.4,1.4,2.4,1.8c4,1.3,8.1,2.6,12.1,4"/>
	</g>
	<g>
		<path class="st0" d="M545.4,327c1.1,1.5,0.6,3.9-1,5"/>
	</g>
	<g>
		<path class="st0" d="M538.5,272.5c0.5-1.8,2.5-2.8,4.3-2.7s3.5,0.9,5.2,1.8"/>
	</g>
	<g>
		<path class="st0" d="M619.3,133.9c2.2,15.4,0.3,31.2-1.6,46.6c-1,8.4-2.1,16.8-3.1,25.2c-0.7,5.4-1.4,11-3.2,16.1
			c-4.3,11.8-14.1,20.5-21.4,30.6c-5.1,7.1-9,15.1-11.5,23.5"/>
	</g>
	<g>
		<path class="st0" d="M608.3,148.9c8.7-8.7,12.2-22.7,7.6-34.1c-1.9-4.7-4.8-8.7-7.8-12.8c-8.5-11.6-17-23.2-25.5-34.8
			c-0.7-0.9-1.3-1.8-2.3-2.4c-2.5-1.4-5.5,0.1-8.2,0.9c-2.7,0.8-6.7,0.1-6.9-2.7"/>
	</g>
	<g>
		<path class="st0" d="M595.7,83.7c3.3,3.1,8.3,3.7,11.9,6.3c3.2,2.3,5.1,6.1,6.6,9.8c4,10.3,5.6,21.6,4.6,32.6"/>
	</g>
	<g>
		<path class="st0" d="M599.5,143c-0.6-3-2.3-5.8-4.8-7.6c-2.6-1.9-5.9-2.7-8.5-4.7c1.1,0,2-0.8,2.7-1.7s1.4-1.8,2.5-2.1
			c1.1-0.3,2.5,0.5,2.3,1.6"/>
	</g>
	<g>
		<path class="st0" d="M597.3,129.5c-0.8-16.1-8.5-31-16.2-45.3c-1.8-3.4-3.7-6.8-6.5-9.3"/>
	</g>
	<g>
		<path class="st0" d="M600.9,97.1c5.2,7.6,9.5,15.8,12.7,24.4"/>
	</g>
	<g>
		<path class="st0" d="M584,133.4c-0.5-0.2-0.8-0.8-0.7-1.3C583.7,132.5,584,133,584,133.4"/>
	</g>
	<g>
		<path class="st0" d="M581.8,131.9c-7.6-2-14.3-7.5-17.7-14.6c-1.7-3.6-2.6-7.6-4.5-11.2c-4.6-8.7-14.2-13.3-20.9-20.4
			c-4.8-5.1-8.1-11.3-12.4-16.8c-4.3-5.5-9.9-10.6-16.8-11.5"/>
	</g>
	<g>
		<path class="st0" d="M569.9,127.3c-4.8-2-8.8-5.7-11.3-10.3"/>
	</g>
	<g>
		<path class="st0" d="M555.5,117.1c-1.4,0.1-2.8-0.6-4.2-1s-3-0.5-4.1,0.5c-1,1-0.6,3.2,0.8,3.2c-1.3,1.2-3.4,1.7-5.1,1"/>
	</g>
	<g>
		<path class="st0" d="M552.6,119.9c1.4,0.8,2.2,2.5,1.9,4.1"/>
	</g>
	<g>
		<path class="st0" d="M547.6,116.5c0-3.4-1.5-6.6-2.9-9.7c-4.3-9.4-8.6-18.9-15.1-26.9"/>
	</g>
	<g>
		<path class="st0" d="M524,77.6c-8.7-9.6-18.4-19-30.6-23.6"/>
	</g>
	<g>
		<path class="st0" d="M544.3,125c-15.3-5.8-30.2-12.6-44.6-20.4"/>
	</g>
	<g>
		<path class="st0" d="M486.7,87.9c4.9,4,9.1,8.7,12.5,14"/>
	</g>
	<g>
		<path class="st0" d="M479.3,78.6c-12.6-8.9-27.3-14.8-42.5-17.1c-4.1-0.6-8.5-1-12.4,0.4c-9.1,3.1-13.3,13.6-21.4,18.6
			c-3.8,2.3-8.8,4.1-9.5,8.5"/>
	</g>
	<g>
		<path class="st0" d="M444.9,62.8c9.7-0.9,18.4-7.6,28.2-7.4"/>
	</g>
	<g>
		<path class="st0" d="M511.4,68.2C499,63,486.6,57.9,474.1,53c-4.2-1.7-8.6-3.3-13.1-2.9"/>
	</g>
	<g>
		<path class="st0" d="M493.1,50.4c5.4,4.3,10.9,8.5,16.5,12.5"/>
	</g>
	<g>
		<path class="st0" d="M508.2,53.7c-3.8-2.6-7.7-5-11.8-7.1"/>
	</g>
	<g>
		<path class="st0" d="M565.6,62.4c-2.9-6.3-9.3-10-15.6-13c-6.2-2.9-12.9-5.5-17.6-10.6c-0.5-0.6-1.1-1.2-1.8-1.5
			c-1-0.4-2.1-0.2-3.1,0.1c-4.9,1.1-9.7,2.3-14.6,3.4"/>
	</g>
	<g>
		<path class="st0" d="M519.6,45.9c-6.1-4.6-13.6-7.3-21.2-7.6c-1.3-0.1-2.9,0.1-3.7,1.2c-0.6,1-0.3,2.3-0.7,3.5
			c-0.6,1.9-2.9,2.6-4.8,2.6c-4,0-7.7-1.7-11.6-2.7c-3.9-1-8.4-1.3-11.4,1.3c-1.8,1.5-2.9,3.8-5.1,4.9c-2.6,1.3-5.7,0.1-8.6,0.2
			c-4.6,0.1-8.5,3.3-12.7,5.2c-7.1,3.2-15.4,2.7-22.2,6.5c-3.9,2.2-6.9,5.6-9.8,9c-5.5,6.3-11,12.6-16.5,18.9"/>
	</g>
	<g>
		<path class="st0" d="M393.6,85.5c-3.3,6.2-9.6,9.9-14.6,14.7c-14.7,14-18,36-20.3,56.2c-1.2,10.5-2.5,21-3.7,31.4
			c-1.4,11.6-2.8,23.4-7.3,34.2c-2.6,6.2-6.5,12.4-12.6,15.3c-6.1,3-14.6,1.6-17.9-4.3c-0.9,6.8,4.6,13.4,11.3,14.7s13.8-1.9,18-7.2
			s5.9-12.4,5.7-19.2"/>
	</g>
	<g>
		<path class="st0" d="M355.2,218.5c1.7,9.5-1,19.6-7.2,27.5"/>
	</g>
	<g>
		<path class="st0" d="M426.9,194.4c-2-5.8-5.7-11-10.5-14.7"/>
	</g>
	<g>
		<path class="st0" d="M428.1,194.5c1.2-11.2,2.7-22.4,4.4-33.5c0.2-1.5,0.5-3,1.5-4c1-1,3.1-1.2,3.8,0.1c1.8-7.1,11.3-10.9,17.5-7
			c-0.7-1.6-1.4-3.2-2-4.7c5.6-0.3,11.3,1.6,15.5,5.3c-1.1-1.3-1.7-3.1-1.7-4.8c2,1,3.8,2.4,5.4,3.9c-1.6-7.4-6.5-13.8-12.4-18.6
			c-5.9-4.8-12.8-8.1-19.7-11.4c-9.9-4.8-19.8-9.6-29.7-14.4"/>
	</g>
	<g>
		<path class="st0" d="M446.2,148.4c-4-5.6-10.4-9.3-17.2-10"/>
	</g>
	<g>
		<path class="st0" d="M430.9,143.6c-5.2-8.9-15.1-14.9-25.4-15.3"/>
	</g>
	<g>
		<path class="st0" d="M417.8,184.3c-2.8-11.7-7.9-22.9-14.9-32.7c-1.1-1.6-2.4-3.2-4.1-4.2c-3.9-2.4-9.2-1-12.5,2.1
			c-3.3,3.2-4.9,7.7-6.1,12.1c-4.6,18.3-1.9,38.1,6.7,54.9c2.2,4.3,4.9,8.6,8.9,11.4c4,2.8,9.6,3.7,13.8,1.2"/>
	</g>
	<g>
		<path class="st0" d="M407.4,187.3c-1-1-2.7,0-3.4,1.1c-0.7,1.2-1.2,2.7-2.5,3.2"/>
	</g>
	<g>
		<path class="st0" d="M400.5,182.5c-1.5-0.4-3.2,0.3-4.1,1.6s-1.4,2.8-1.5,4.4c-0.3,3.6,0.7,7.4,2.8,10.4c1.4,2,3.1,3.6,4.6,5.5
			s2.5,4.3,2,6.6"/>
	</g>
	<g>
		<path class="st0" d="M400,170.5c-2.6-0.7-5.7,1-7.8-0.7c-1.8-1.4-1.4-4.1-1-6.3"/>
	</g>
	<g>
		<path class="st0" d="M398.3,163c-0.3-4.1-5.1-7.3-9-6c-2,0.7-3.6,2.2-4.8,4c-5.3,7.6-4.2,17.8-5.7,26.9"/>
	</g>
	<g>
		<path class="st0" d="M430.7,158.9c-1.2-3.6-3.3-6.9-6.1-9.5"/>
	</g>
	<g>
		<path class="st0" d="M473.1,147.4c-1.3-3.5,2.7-7.7,6.3-6.5c-3.4-8-4.4-17.1-2.8-25.7c0.1-0.4,0.1-0.7,0.4-1
			c0.5-0.5,1.3-0.5,2-0.7c1.6-0.4,2.6-2.1,2.7-3.7c0.1-1.6-0.7-3.2-1.6-4.6c-5.9-8.5-19.3-10-23.7-19.4"/>
	</g>
	<g>
		<path class="st0" d="M452.5,87.5c-3.8-3.6-8.2-6.7-12.9-9.1"/>
	</g>
	<g>
		<path class="st0" d="M475.5,117.1c-7.6-2.4-13.2-8.7-19.1-14.1c-8.9-7.9-19.4-14-30.8-17.7"/>
	</g>
	<g>
		<path class="st0" d="M492.5,105.6c-7.8-3.4-14.5-9.3-18.9-16.7"/>
	</g>
	<g>
		<path class="st0" d="M470.7,93.1c-2.8-4-5.6-8-9.1-11.4c-9.4-8.9-22.7-12-35.5-13.5"/>
	</g>
	<g>
		<path class="st0" d="M350,214.2c-4.4-0.7-9-0.4-13.3,1c3.7,3.4,6.4,7.7,8,12.4"/>
	</g>
	<g>
		<path class="st0" d="M379.1,221.1c-3.6,4-6.9,8.1-10.1,12.4"/>
	</g>
	<g>
		<path class="st0" d="M388.5,228.9c-2.4,1.4-4.1,4.1-4.5,7.1"/>
	</g>
	<g>
		<path class="st0" d="M377,232.5c0,1.5,0,3,0,4.5"/>
	</g>
	<g>
		<path class="st0" d="M399.4,360c-9.1-11.9-13.3-27.2-12.9-42.2c0.4-15,5.3-29.7,12.7-42.7c6.7-11.7,15.4-22.1,24-32.4
			c-15.9-3.9-32.4-7.8-48.6-5.3c-17.2,2.7-32.4,12.3-48.7,18.2c-5.2,1.9-10.8,3.5-15.1,7c-5.9,4.7-8.9,12.8-7.5,20.3
			c1.1,5.6,4.4,10.6,6.2,16c1.8,5.4,1.7,12.3-2.8,15.9c-3.6,2.8-8.6,2.5-13.1,2.7s-9.8,1.6-11.5,5.8c-1.4,3.7,0.6,7.8,0.3,11.7
			c-0.3,5.6-5.9,10.2-11.5,9.5"/>
	</g>
	<g>
		<path class="st0" d="M315.3,316.8c10,8.5,20.1,16.9,30.1,25.4c10.1,8.5,20.6,17.6,25.5,29.9"/>
	</g>
	<g>
		<path class="st0" d="M313.2,291.8c5.4-0.9,9.1-5.8,13.9-8.3c3.7-1.9,8-2.3,12.2-2.6c14.7-0.8,29.6,0.4,44,3.5"/>
	</g>
	<g>
		<path class="st0" d="M412.1,324.7c-0.3,2.5-0.6,5.1-0.9,7.6"/>
	</g>
	<g>
		<path class="st0" d="M414,341.5c11.9,27.4,24,54.8,36.6,81.9"/>
	</g>
	<g>
		<path class="st0" d="M461.7,379.7c-0.3-3.4,0.9-6.9,3.2-9.4c2.3-2.5,5.7-4,9.1-4"/>
	</g>
	<g>
		<path class="st0" d="M474.1,366.5c-3.6,13.1-3.8,27.2-0.5,40.5c3.9,15.4,12.5,30.2,11.4,46.1"/>
	</g>
	<g>
		<path class="st0" d="M472,396.3c-0.3,5.6,0.3,11.2,1.7,16.5c0.7,2.6,1.5,5.4,0.5,7.9c-1,2.4-3.5,3.9-6,4.7c-8.9,3-19.1-0.1-26.5-6
			"/>
	</g>
	<g>
		<path class="st0" d="M441.2,418.5c-1.7-11.4-3.9-23.7-12.5-31.3c-3.9-3.5-8.9-5.6-13.1-8.6c-6.9-4.9-11.8-11.9-16.7-18.8"/>
	</g>
	<g>
		<path class="st0" d="M440.6,417.2c0.9,14.5,2.2,29,5.8,43c3.6,14,9.5,27.7,18.8,38.8"/>
	</g>
	<g>
		<path class="st0" d="M485.1,451c-0.7,4.5-0.5,9-0.5,13.5c-0.1,11.1-1.6,22.2-4.4,33"/>
	</g>
	<g>
		<path class="st0" d="M390.4,380.3c-0.1,2.1-0.1,4.2,0.1,6.3c0.1,1.8,0.5,3.8,2.1,4.8c0.7,0.4,1.6,0.5,2.3,0.8
			c4.2,1.1,6.8,5.1,9.1,8.8"/>
	</g>
	<g>
		<path class="st0" d="M406.6,408.1c-3.7-1.7-7.4-3.3-11.1-5c-1.5-0.7-3.4-1.2-4.5-0.1"/>
	</g>
	<g>
		<path class="st0" d="M385,403.4c-22.1-3.1-43.7-9.3-64.1-18.3c-5.5-2.4-11.5-5.6-13.6-11.3c-0.8-2-1-4.3-2.5-5.9
			c-0.8-0.9-1.9-1.4-2.9-1.9c-6.2-2.9-12.8-4.5-19.2-7c-6.3-2.5-12.6-6-16.4-11.6"/>
	</g>
	<g>
		<path class="st0" d="M286.2,331.4c0.9,1.4,2,2.7,3.1,4c3.1,3.7,6.2,7.3,9.3,11c2.9,3.4,6.1,7.1,10.5,8.1"/>
	</g>
	<g>
		<path class="st0" d="M314.6,362.4c2.5,7.8,7.2,14.9,13.4,20.3"/>
	</g>
	<g>
		<path class="st0" d="M353.8,396.6c-2.6-4.1-6.5-7.4-11-9.3c-3.6-1.5-7.9-2.5-9.9-5.8"/>
	</g>
	<g>
		<path class="st0" d="M271.3,344c-0.9-2.2-3.9-2.9-6.2-2.2c-2.3,0.7-4.2,2.2-6.4,3.2c-3.4,1.6-7.5,1.7-11,0.4
			c-3.1-1.2-6.2-3.4-9.3-2.4c-1.3,0.5-2.4,1.5-3.7,2.2c-3.5,1.9-7.9,1-11.6-0.5c-3.7-1.5-7.3-3.6-11.3-3.8c-5.1-0.3-9.8,2.5-14.3,5
			c-14.4,8.3-29.6,15.5-45.1,21.3c-2.9,1.1-5.8,2.2-8.2,4c-1.9,1.5-3.5,3.5-5,5.4c-21.4,28-39,58.8-52.4,91.3
			c-0.7,1.7-1.4,3.7-0.9,5.5c0.4,1.2,1.3,2.2,2.3,3.1c2.3,2.2,5,4.1,6.9,6.6c2,2.5,3.2,5.9,2.1,8.9"/>
	</g>
	<g>
		<path class="st0" d="M95.3,466.5c1.5,0.5,2.5,1.8,3.8,2.8c1.2,1,3.1,1.5,4.3,0.4"/>
	</g>
	<g>
		<path class="st0" d="M108,472.4c9.1-7.9,18.9-15,29.1-21.4c7.1-4.4,14.7-8.5,23-9.7"/>
	</g>
	<g>
		<path class="st0" d="M179.3,439.8c11.2-2.7,23-1.8,34.2,0.9c11.2,2.7,21.9,7.2,32.4,11.8"/>
	</g>
	<g>
		<path class="st0" d="M250.8,457.6c-0.2-1-1.3-1.4-2.2-1.7c-16.2-5-33-10.1-49.9-8.3"/>
	</g>
	<g>
		<path class="st0" d="M197,444.7c-5.7,0.7-10.9,3.9-15.9,6.7c-9.4,5.4-19.2,10.1-28.9,14.7"/>
	</g>
	<g>
		<path class="st0" d="M149.5,463.9c8.6-7.9,18.3-14.5,28.8-19.6"/>
	</g>
	<g>
		<path class="st0" d="M151.8,446.9c-16.7,10-31.6,22.9-43.8,38c-3.3,4.1-6.6,8.4-11.4,10.5"/>
	</g>
	<g>
		<path class="st0" d="M118.8,494.8c4-4.3,8.4-8.1,13.2-11.4"/>
	</g>
	<g>
		<path class="st0" d="M114.1,498.8c-3,2-5.8,4.4-8.1,7.2"/>
	</g>
	<g>
		<path class="st0" d="M113.6,507.9c3.2-4.4,8-7.3,13-9.5c5-2.1,10.2-3.7,15.1-6c3.3-1.5,6.4-3.4,9.8-4.8c4.7-1.9,9.8-2.9,14.9-2.7"
			/>
	</g>
	<g>
		<path class="st0" d="M134.7,485.8c2.2-0.2,4.5-0.4,6.7-0.6c1.9-0.2,3.8-0.3,5.6-1c2.1-0.7,4-2,6.1-3s4.4-1.6,6.5-0.8
			c0.7,0.2,1.3,0.6,2,0.7c2.2,0.4,4.2-1.6,5.6-3.4"/>
	</g>
	<g>
		<path class="st0" d="M164.6,471.9c2.4-2.6,5.6-4.6,8.6-6.4c4.1-2.5,8.3-5.1,12.4-7.6"/>
	</g>
	<g>
		<path class="st0" d="M190.3,466.9c8.3-3.6,17.9-3.4,26.7-1.1c8.8,2.3,16.9,6.6,25,10.8c6.3,3.3,12.6,6.6,18.3,10.8
			c10.1,7.3,18.4,17.1,23.9,28.2"/>
	</g>
	<g>
		<path class="st0" d="M258.1,480.1c2.3,1.2,4.6,2.4,6.8,3.6"/>
	</g>
	<g>
		<path class="st0" d="M261.7,485.6c1.5,0.1,3,0.8,4.3,1.6c5.3,3,10.6,6.2,15.7,9.5c3.8,2.4,7.9,5,12.3,4.7"/>
	</g>
	<g>
		<path class="st0" d="M300.8,492.6c-2.7-3.5-4.6-8-4.1-12.4c0.4-3.3,2-6.3,3.2-9.4c2.6-6.7,3-14.2,1.3-21.2"/>
	</g>
	<g>
		<path class="st0" d="M272.3,382c-5.8-1.6-11.1-4.6-16.6-7c-14.4-6.2-30.4-8.4-45.9-6.4"/>
	</g>
	<g>
		<path class="st0" d="M200.3,362.2c2.8-0.5,5.7-1.1,8.5-1.6c1-0.2,2-0.4,2.7-1.1c0.7-0.7,0.9-2,0.1-2.6
			c21.1,1.5,41.8,9.1,58.8,21.7"/>
	</g>
	<g>
		<path class="st0" d="M258.1,364.2c-8.8-4.4-16.6-10.9-22.4-18.9"/>
	</g>
	<g>
		<path class="st0" d="M250.7,359.6c-8.7-0.1-16.6-4.8-24-9.4c-2.8-1.7-5.8-3.7-6.8-6.9"/>
	</g>
	<g>
		<path class="st0" d="M252.1,350.9c2.2,2.4,4.5,4.9,6.7,7.3c2,2.2,4,4.4,6.2,6.4c4.6,4.4,9.8,8.1,15.5,11c4.4,2.2,9.6,4.7,10.5,9.5
			"/>
	</g>
	<g>
		<path class="st0" d="M282.2,382.8c5.8,1.7,9.3,7.3,12.3,12.5c2.2,3.8,4.4,7.7,6.6,11.6c11.8,21.8,20.6,45.2,26,69.4"/>
	</g>
	<g>
		<path class="st0" d="M293.5,385.3c9.2,16.7,18.3,33.3,27.5,50c4.5,8.2,9,16.4,14.4,24.1c4,5.8,8.6,11.5,10.1,18.4"/>
	</g>
	<g>
		<path class="st0" d="M97.1,491.7c-2.2,10.1-4.4,20.2-6.6,30.3c-0.2,0.8-0.3,1.6-0.8,2.2c-0.5,0.7-1.3,1.1-1.9,1.6
			c-1.8,1.6-2.2,4.2-2,6.6c0.2,2.4,0.9,4.7,1,7.1c0.1,6.4-4.7,11.7-7.7,17.4c-4.9,9.1-5.5,19.8-5.1,30.1c0.2,4.7,0.7,9.5,2.1,14
			c2.5,7.4,7.6,13.5,11.2,20.4c3.4,6.4,5.4,13.4,7.5,20.4"/>
	</g>
	<g>
		<path class="st0" d="M85.2,547c1.6-1,2.6-2.8,3.6-4.3c2.8-4.1,6.6-7.6,11.1-9.8c4.1-2,8.7-3.2,12.2-6.1c3.1-2.6,5.7-6.6,9.7-6.6"
			/>
	</g>
	<g>
		<path class="st0" d="M110.3,520.1c-6-0.4-12,1.4-16.8,5"/>
	</g>
	<g>
		<path class="st0" d="M173.8,529.9c19.4,11.3,40.5,19.8,62.3,25.2c4.3,1.1,8.6,2,12.7,3.7c9.3,3.9,16.5,11.4,23.5,18.8"/>
	</g>
	<g>
		<path class="st0" d="M242.6,579.3c3.1-1.6,6.8-2,10.3-1.2c2.1,0.5,4,1.4,6,2.2c6.1,2.6,12.4,4.5,18.9,5.7"/>
	</g>
	<g>
		<path class="st0" d="M282.8,579c3.4,1.1,6.7,2.4,9.9,4c-0.1,3.2-1.4,6.4-3.7,8.7"/>
	</g>
	<g>
		<path class="st0" d="M288.6,579.6c-1.1-4.3,0.3-8.9,2.2-13c1.9-4.1,4.2-8,5.2-12.4c1.9-8.4-1.7-16.9-3.7-25.3
			c-1.8-7.1-2.5-14.5-2.1-21.9"/>
	</g>
	<g>
		<path class="st0" d="M291.1,514.3c-0.3-5.4,2.1-10.8,6.4-14.1c2.5-2,5.5-3.2,8.2-4.7c0.8-0.4,1.7-1.2,1.4-2.1
			c-0.3-0.9-1.5-0.8-2.4-1c-1.4-0.4-2.2-1.9-2.3-3.4c-0.1-1.5,0.5-2.9,1.1-4.2c1.5-3.3,3.4-6.4,5.5-9.2"/>
	</g>
	<g>
		<path class="st0" d="M307.6,492.9c3.7-6.2,7.1-12.5,10.4-19c2.3-4.6,4.5-9.4,4.7-14.5"/>
	</g>
	<g>
		<path class="st0" d="M310.7,536.9c-3.6-4.8-4.7-11.1-4.2-17.1c0.5-6,2.5-11.7,4.5-17.4c2.9-8.4,5.9-16.8,10.2-24.5"/>
	</g>
	<g>
		<path class="st0" d="M299.3,524.4c-3.7-1-6.9-3.7-8.6-7.1"/>
	</g>
	<g>
		<path class="st0" d="M94.3,640.9c10.6,19.2,10,44-1.5,62.7c-0.7,1.2-1.5,2.4-1.7,3.7c-0.2,1.3,0.2,2.5,0.6,3.7
			c3.8,12,8.2,23.9,14.9,34.5c6.8,10.6,16.1,19.8,27.7,24.7"/>
	</g>
	<g>
		<path class="st0" d="M118.1,653.3c-1.7-2.2-3.4-4.7-3.2-7.4c0.1-1.1,0.5-2.1,1-3.1c2.1-4.9,4.5-9.7,7-14.4
			c1.5-2.8,3.3-5.7,6.1-7.2"/>
	</g>
	<g>
		<path class="st0" d="M117.8,668.4c0.5,2.3,2.7,4,5.1,4.5c2.3,0.5,4.8-0.1,7.1-0.8c3-0.9,6-2.1,8.9-3.5"/>
	</g>
	<g>
		<path class="st0" d="M143.6,678.3c0.8,2.1,1.8,4.1,3,6"/>
	</g>
	<g>
		<path class="st0" d="M156.4,658.1c10.8-3.1,20.4-9.2,30.7-13.7c13.1-5.8,27.3-9.1,41.3-12.3c15.2-3.5,31.4-6.9,46.3-1.9"/>
	</g>
	<g>
		<path class="st0" d="M130.4,614.1c2.4-3.7,4.8-7.4,7.2-11c2.7-4.2,5.5-8.5,9.4-11.7c2.8-2.4,6.1-4.2,9.5-5.9
			c7.1-3.6,15-6.8,22.9-5.7"/>
	</g>
	<g>
		<path class="st0" d="M172.7,583.6c2.3,0.3,4.2-1.7,6.2-2.8c2.8-1.5,6.1-1.1,9.2-0.7c30.9,4.1,61.4,13.3,92.6,12c2-0.1,4-0.2,6,0.3
			c2.1,0.5,4,1.6,5.8,2.7c10.8,6,23,8.8,35.1,11.5c4.9,1.1,10.1,2.2,15,1.3c5.5-1,11.3-4.5,16.3-1.9c1.4,0.8,2.6,2,4.1,2.7
			c2.2,1.1,4.7,0.9,7.1,0.8"/>
	</g>
	<g>
		<path class="st0" d="M311.7,577.5c-1-2.4-2.1-4.7-3.2-7c-1.1-2.2-2.2-4.5-3.3-6.7c-1.7-3.4-3.4-6.9-5.7-10"/>
	</g>
	<g>
		<path class="st0" d="M304.1,550.6c26.6,4.7,51.4,19.2,68.6,40.1"/>
	</g>
	<g>
		<path class="st0" d="M297.9,383.1c4.6,5.2,9.9,9.7,15.8,13.5c4.2,2.7,9.2,5.7,9.7,10.6c0.2,1.7-0.2,3.6,0.3,5.2
			c0.5,1.6,1.7,2.8,2.9,3.9c11.7,10.7,27.4,15.6,42.1,21.7c20.3,8.4,39.5,19.7,56.8,33.3"/>
	</g>
	<g>
		<path class="st0" d="M361.9,133.9c3.9-7.1,7.8-14.2,13.6-19.8c2.9-2.7,6.1-5,9.6-7"/>
	</g>
	<g>
		<path class="st0" d="M545.9,330.8c8-2.5,16.5-3.2,24.8-2.2c2.4,0.3,4.9,0.8,6.7,2.3c3.8,3.3,2.9,9.3,1.6,14.2
			c-0.9,3.5-1.8,7-2.7,10.5c-0.3,1.3-0.7,2.6-1.5,3.6c-1,1.2-2.5,1.8-3.9,2.5c-7.6,3.6-14.3,9.2-19.2,16.1c-3,4.3-5.3,9-7.6,13.7
			c-2.8,5.7-5.5,11.4-7.1,17.5c-1.5,5.9-1.9,12.1-2.9,18.1c-1.4,8.9-4.2,17.4-7,26"/>
	</g>
	<g>
		<path class="st0" d="M557.1,370.7c12.8,2.3,25.9-0.1,38.4-3.8c12.4-3.8,24.4-8.8,37-12c4.1-1,8.2-1.8,12.4-1.6
			c4.3,0.3,8.4,1.6,12.5,3c12.4,4.1,24.9,8.2,37.3,12.3c6.1,2,12.3,4,18.7,4.8"/>
	</g>
	<g>
		<path class="st0" d="M650.2,420.5c16.4-13.6,32.8-27.2,50.5-39c4.9-3.3,10-6.5,15.7-7.7c3.1-0.7,6.3-0.8,9.2-2
			c6.9-2.9,10.2-11.3,17.1-14.3c2.3-1,4.8-1.3,7.3-1.6c10.3-1.2,20.7-2.2,30.6-5.4c4-1.3,8-3,12.2-3.5c7.7-0.9,15.2,2.4,22.2,5.5"/>
	</g>
	<g>
		<path class="st0" d="M815.6,352.6c2.2-2.6,4.5-5.2,6.7-7.8c0.3-0.3,0.6-0.7,1-0.8c1.6-0.6,2.4,2,3.9,2.7c2,1,3.9-1.2,5.2-3.1
			c6.3-9.6,16.3-16,26.1-22c4.4-2.7,8.9-5.4,12.2-9.4c1.6-1.9,2.8-4,4.3-6c10.5-14.5,28.8-20.6,45.7-26.5
			c19.1-6.7,37.8-14.2,56.2-22.5c5.6-2.6,11.3-5.2,17.4-6"/>
	</g>
	<g>
		<path class="st0" d="M369.6,609.6c1-0.4,2.1-0.4,3.2,0c-4.2,4.1-6.4,10.1-5.9,15.9c0.4,4.2,2.1,8.1,3.2,12.1
			c1.6,6.3,1.6,12.9,1.4,19.4"/>
	</g>
	<g>
		<path class="st0" d="M369.3,637c-1.7,13.1-10,24.5-13,37.4c-1.1,4.6-1.5,9.4-1.9,14.2c-0.4,5-0.8,9.9-0.9,14.9
			c-0.6,22.3,4.2,44.8,13.8,64.9"/>
	</g>
	<g>
		<path class="st0" d="M372.3,610.2c6.4-6.6,9.9-15.9,9.4-25.1c-0.2-4.2-1.2-8.4-0.6-12.5c0.4-3.1,1.8-6.1,3.5-8.8
			c1.7-2.7,3.7-5.2,6.4-6.9c3.5-2.2,7.7-2.8,11.8-3.3c14.9-1.9,29.7-3.8,44.6-5.7c12.8-1.6,26-3.2,38.4,0.4
			c20.3,6,34.1,24.7,52.9,34.5c4.7,2.5,9.8,4.4,13.5,8.2c3.3,3.4,5.1,7.8,6.8,12.2c5.1,13.6,9.2,27.6,12.2,41.8
			c0.8,3.8,1.5,8-0.4,11.4c-2.7,4.9-9.2,5.8-14.8,6.2c-4.3,0.3-8.8,0.6-12.8-1.1c-3.6-1.5-6.4-4.3-9.1-7.1
			c-7.6-7.9-15.6-16.3-18.2-26.9"/>
	</g>
	<g>
		<path class="st0" d="M561,661.3c-1-0.2-1.3-1.4-1.3-2.4c-0.3-3.4-0.4-6.7-0.3-10.1c0-1.4,0.1-2.9,0.7-4.2c0.5-1.1,1.3-2,2.1-2.8
			c2-2.2,4.1-4.3,6.1-6.5"/>
	</g>
	<g>
		<path class="st0" d="M411.5,552.6c2.5-6.1,4.9-12.1,7.4-18.2c3.1-7.5,6.5-15.5,13.2-20.1c7.7-5.3,17.7-4.9,26.8-6.8
			c19.1-4,36.1-18.5,55.6-16.9c10.4,0.9,19.8,6.4,28.6,12.1c21,13.5,41.6,29.4,53.2,51.4"/>
	</g>
	<g>
		<path class="st0" d="M482.6,499.1c8.7-8.2,16.8-17.2,24.1-26.7c3.6-4.8,7.2-9.8,11.9-13.4c6.9-5.3,15.7-7.2,24.3-8.7
			c2.6-0.5,5.3-0.9,8-0.6c4.6,0.4,8.7,2.8,12.7,5.1c10.1,5.8,20.2,11.7,30.3,17.5c11,6.4,22.8,13.5,27.9,25.2"/>
	</g>
	<g>
		<path class="st0" d="M621.5,496.8c4,2.9,7,7.3,8.4,12.1c1.1,4.2,1,8.6,1.7,12.8c1.1,6.7,4.2,12.9,6.4,19.3s3.6,13.6,1.2,19.9
			c-0.7,2-1.9,3.9-3.6,5.1c-1.3,0.9-2.8,1.4-4.3,1.8c-4,1.2-8.1,2.1-12.3,1.9s-8.4-1.6-11.3-4.7"/>
	</g>
	<g>
		<path class="st0" d="M636.5,537.3c-2.1-3-4.2-6-6.3-9"/>
	</g>
	<g>
		<path class="st0" d="M626.6,526.2c-3.1-0.4-6.5-0.7-8.9,1.2c-2.3,1.8-3,4.9-3.1,7.8c-0.2,8.4,3.3,16.4,6.7,24.1
			c0.3,0.7,0.6,1.4,1.2,1.8c0.6,0.4,1.4,0.5,2.1,0.5c4.8,0.1,9.5-1.6,13.9-3.4"/>
	</g>
	<g>
		<path class="st0" d="M595.8,553.9c11.1,11.7,14.3,28.6,17.1,44.5c1.1,6.4,2.2,12.8,3.3,19.2c1,5.6,1.8,12-1.7,16.6
			c-2.7,3.6-7.6,5-12,4.6s-8.7-2.3-12.6-4.3c-6.7-3.5-13.3-7.7-18.2-13.4c-3.4-4-6-8.6-8.5-13.2c-4.9-8.9-9.9-17.9-12.3-27.8"/>
	</g>
	<g>
		<path class="st0" d="M550.7,579c-7.8-3-15.1-7.3-21.5-12.7c-5.8-4.9-10.8-10.6-17.1-14.8c-0.7-0.5-1.4-0.9-2.2-0.9
			c-0.7,0-1.3,0.3-1.9,0.6c-2.4,1.2-4.8,2.5-7.2,3.7"/>
	</g>
	<g>
		<path class="st0" d="M592.7,628.2c-1.6-6.6-2.8-13.3-3.6-20.1c-0.3-2.9-0.6-6,0.9-8.5c1.3-2.2,3.7-3.6,6.1-4.2
			c2.5-0.6,5.1-0.5,7.6-0.5c1,0,2,0.1,2.9,0.6c0.8,0.5,1.2,1.3,1.6,2.2c4,7.9,6.4,16.6,7.1,25.4c0.1,0.9,0.1,1.8-0.2,2.6
			c-0.5,1.3-1.9,2.1-3.2,2.7c-4.9,2.2-10.4,2.9-15.7,2.2"/>
	</g>
	<g>
		<path class="st0" d="M392.6,663.3c0.5,1.6,2.5,2.1,4.1,2c3.6-0.3,6.8-3.1,7.6-6.6"/>
	</g>
	<g>
		<path class="st0" d="M404.9,655.7c13.9-8.6,32.4-5.2,47.3-11.9"/>
	</g>
	<g>
		<path class="st0" d="M451.8,641.3c0.4,1.4,1.7,2.4,3.1,2.9c1.4,0.5,2.9,0.6,4.3,0.8c6.5,0.9,12.6,3.8,18.5,6.7
			c2.2,1.1,4.5,2.2,6.7,3.2"/>
	</g>
	<g>
		<path class="st0" d="M521,639c-2,0.3-4.1-0.4-5.6-1.7"/>
	</g>
	<g>
		<path class="st0" d="M389.1,694.4c7.6-3.5,15.2-6.9,22.8-10.4c2.7-1.2,5.4-2.5,7.7-4.3c1.8-1.4,3.2-3.2,4.7-5
			c1.5-1.8,2.9-3.5,4.4-5.3"/>
	</g>
	<g>
		<path class="st0" d="M419.8,653.3c-1.4,8.1-5.2,15.9-10.8,21.9"/>
	</g>
	<g>
		<path class="st0" d="M470.9,714.2c-9.2,13.1-22.6,23.2-37.7,28.4c-15.1,5.3-31.8,5.6-47.2,1.1c-2.7-0.8-5.4-1.8-8.2-2.2
			c-6.4-0.9-13.1,1.1-19.5,0.1"/>
	</g>
	<g>
		<path class="st0" d="M459.2,726.9c0.7,7.9-3.8,15.2-8.3,21.7s-9.3,13.5-9.4,21.4"/>
	</g>
	<g>
		<path class="st0" d="M465.4,752.3c-0.9-4.8,1.1-9.6,2.3-14.3c1.1-4.1,1.6-8.4,2.1-12.7c1.6-13,3.2-26.1,4.8-39.1
			c0.7-5.4,1.3-10.9,2.7-16.2c1.4-5.5,3.6-10.7,5.8-15.9"/>
	</g>
	<g>
		<path class="st0" d="M465.2,751.8c1.6,1.8,3.5,3.4,5.3,5c6.9,6.1,14.4,12.4,23.5,13.9"/>
	</g>
	<g>
		<path class="st0" d="M636.9,565c0.1,10-3.8,19.5-7.7,28.8c-4.1,9.7-8.1,19.5-12.2,29.2"/>
	</g>
	<g>
		<path class="st0" d="M608.8,638.5c-2.6,5.6-5.6,11-8.9,16.2c-3.4,5.4-7.2,10.5-10.6,15.9c-12.4,19.8-19.2,43.1-19.4,66.4
			c0,5.8,0.3,11.6-0.4,17.3c-0.7,5.7-2.4,11.5-6.1,16"/>
	</g>
	<g>
		<path class="st0" d="M606.5,643.5c1.4,0,2.8,0,4.3,0"/>
	</g>
	<g>
		<path class="st0" d="M611.7,639.1C610,642,612,645,613,648c5,9,10,19,20,24c8,3,17,5,26,4c8-2,11-9,12-17c-5-13-10-26-9-40
			c0-16-14-31-31.2-28.4"/>
	</g>
	<g>
		<path class="st0" d="M660.5,637.2c-1.2-0.9-2.4-1.7-3.7-2.6c-2.6-1.8-5.3-3.7-8.4-4.3c-3.1-0.6-6.7,0.3-8.4,3"/>
	</g>
	<g>
		<path class="st0" d="M639.9,638.8c0.2,3.9,0.7,8,3.2,11.1c2.4,3,6.2,4.4,9.9,5.7c3.3,1.2,6.7,2.4,10.2,2.5c0.8,0,1.7,0,2.5-0.5
			c1.1-0.7,1.6-2.1,1.6-3.4c-0.1-1.3-0.6-2.5-1.1-3.7"/>
	</g>
	<g>
		<path class="st0" d="M517.6,651.7c0.5,2.3,0.9,4.5,1.4,6.8c0.2,1.2,0.5,2.3,0.4,3.5s-0.6,2.4-1.6,3.1s-2.5,0.7-3.2-0.2
			c-0.3-0.3-0.5-0.7-0.6-1.1c-1-2.2-1.9-4.9-0.6-6.9c0.7-1,1.8-1.7,2.7-2.5c0.9-0.8,1.8-1.9,1.6-3.2"/>
	</g>
	<g>
		<path class="st0" d="M485,653.8c-0.5,1.9,0.9,3.7,2.3,5.2c3.1,3.3,6.5,6.8,10.9,8c2.2,0.6,4.5,0.6,6.7,0.6c3.4,0,7-0.1,9.9-2"/>
	</g>
	<g>
		<path class="st0" d="M517.3,653.1c-1.5-7.4-1.1-15.7-5.7-21.7c-2.9-3.8-7.2-5.9-11.4-8.2c-8-4.4-15.6-9.7-22.5-15.6
			c-1.3-1.1-2.6-2.3-4.3-2.9c-1.5-0.6-3.1-0.7-4.7-0.8c-11.3-0.6-22.6-0.8-33.8-0.7c-8.5,0.1-17.5,0.3-24.8-4.1"/>
	</g>
	<g>
		<path class="st0" d="M607.8,565.4c-3.4-2.3-6.4-5-9.1-8.1"/>
	</g>
	<g>
		<path class="st0" d="M621.8,382.9c5-3,10-6,15-9c5.4-3.2,10.8-6.5,16.8-8.4"/>
	</g>
	<g>
		<path class="st0" d="M661.2,363c3.2,4.4,8.1,7.3,13.4,8.9s10.7,2,16.1,2.4"/>
	</g>
	<g>
		<path class="st0" d="M704.6,374.3c-32.9,3.4-63.9,22.7-81.3,50.9"/>
	</g>
	<g>
		<path class="st0" d="M623.9,385.1c-2,5.6-4,11.2-5.9,16.8c-0.7,2-1.4,4-2.8,5.7c-1.5,1.9-3.7,3-5.8,4.2c-4.4,2.4-8.8,4.7-13.1,7
			c-0.9,0.5-1.7,0.9-2.7,1.1c-1.1,0.2-2.3-0.1-3.4-0.6c-6.3-2.5-10.1-9.3-16.4-11.6c7.5,15.8,15.3,31.8,27.6,44.3"/>
	</g>
	<g>
		<path class="st0" d="M616.9,434c0.1,2.3,1.6,4.2,2.7,6.2s1.9,4.5,0.7,6.5c-1,1.6-3,2.2-4.8,2.8c-6.4,2.1-12.6,5-18.3,8.8"/>
	</g>
	<g>
		<path class="st0" d="M590.4,453.6c-10.9-10.3-13.6-26.4-21.5-39.2c-4.3-7-10.4-13.3-11.8-21.4"/>
	</g>
	<g>
		<path class="st0" d="M556.6,392c-2.4-0.7-4.8-1.5-7.2-2.2c-0.5-0.2-1.1-0.3-1.6,0c-0.8,0.5-0.5,1.7-0.1,2.6
			c10,21.6,20.5,43.7,37.8,60.1"/>
	</g>
	<g>
		<path class="st0" d="M556.9,431.5c8,9.8,17.1,18.7,27.2,26.2c-6.3-5.5-13.3-10-20.9-13.4c-4.9-2.2-10.4-4.2-13.6-8.5"/>
	</g>
	<g>
		<path class="st0" d="M545.6,426.6c1.8-0.1,1.2,3.9,3,4.1"/>
	</g>
	<g>
		<path class="st0" d="M552.4,421.3c0.1,1.3,0.5,2.6,1.2,3.7"/>
	</g>
	<g>
		<path class="st0" d="M747.2,435.4c-30.9,16.8-62.3,32.6-94.1,47.5c-6.8,3.2-13.8,6.5-18.9,12c31.9-15.6,65.6-27.6,100.2-35.7
			c3.1-0.7,6.5-1.6,8.3-4.2c2.4-3.4,1.1-8.1,2.5-12"/>
	</g>
	<g>
		<path class="st0" d="M633.8,515.6c20-17.1,44.9-27.2,69.3-37c-24.5,9.6-46.8,24.6-64.9,43.7"/>
	</g>
	<g>
		<path class="st0" d="M865,433c-47.1,19.8-94,40-140.8,60.7c-27.7,12.3-56.5,25.6-74.5,49.9"/>
	</g>
	<g>
		<path class="st0" d="M632.8,586.6c43.4-31.2,94-52.4,146.7-61.4c14.7-2.5,29.7-4.1,43.8-8.7c40.3-13.2,70.7-49.8,112.2-58.6
			c7.7-1.6,16.5-2.7,21.4-8.9"/>
	</g>
	<g>
		<path class="st0" d="M240,342.1c-42-22-88-36-134.8-43.3c-12.6-2-26.3-3.3-37.4,3c-0.7,0.4-1.5,0.9-2.3,0.8
			c-1.1-0.1-1.9-1.1-2.6-2c-14.2-18.9-42.4-25.7-63.7-15.4"/>
	</g>
	<g>
		<path class="st0" d="M60,297.8c19.1,28.9,25.2,64.1,30.8,98.3c1.7,10.3,3.4,20.7,5.1,31C94,388.9,86.3,351,73.3,315
			c-1.8-4.9-0.9-10.3-0.8-15.5"/>
	</g>
	<g>
		<path class="st0" d="M231.5,259.5c15,15.7,24.6,32,38.8,48.3c4,4.6,8.2,9,12.7,13"/>
	</g>
	<g>
		<path class="st0" d="M60.6,298.1C66,270,70,242,87,216c2-2,3-4,5-7c9-11,20-21,34-22c15-1,29,9,42.6,12.9"/>
	</g>
	<g>
		<path class="st0" d="M226,257.8c6,25.2,11,50.2,19,74.2c1,2,3,3,5,4c6,3,12,2,17.4,5.6"/>
	</g>
	<g>
		<path class="st0" d="M168.7,199.2c-20.3-12.8-40.5-24.4-62.6-33.9c-22.7-9.8-44.6-21.1-66.7-32.2c-13-6.5-25.9-13-38.9-19.5"/>
	</g>
	<g>
		<path class="st0" d="M24.8,125.5c3.3,4,3.1,9.7,2.5,14.8c-2.7,20.5-10.3,40.3-11.6,61c-0.3,4.4-0.3,8.8-0.7,13.1
			c-0.9,8.8-3.4,17.2-6,25.7c-0.8,2.5-1.6,5.2-3.5,7.1s-5.3,2.5-7.2,0.7"/>
	</g>
	<g>
		<path class="st0" d="M78.3,293.3c1.8-17.8,4.7-35.5,8.7-52.9c1-4.2,2-8.3,3.5-12.3c4.3-11.2,12.4-20.5,21.1-28.8
			c6.8-6.4,16.5-11.3,25.9-10.8"/>
	</g>
	<g>
		<path class="st0" d="M344.8,670.8c-8.4,10.2-14.6,22.3-18,35.1"/>
	</g>
	<g>
		<path class="st0" d="M327,714c-2.1,2.1-0.6,5.8,1.2,8.2c4.3,5.8,9.7,10.6,13.8,16.5c4.1,5.9,6.8,13.4,4.7,20.2"/>
	</g>
	<g>
		<path class="st0" d="M983,663c-94.7,0-189.3,0-284,0"/>
	</g>
	<g>
		<path class="st0" d="M709.1,742c-12-24.2-15.4-52.7-9.5-79.1"/>
	</g>
	<g>
		<path class="st0" d="M716.7,759.1c2,5.9,5.1,11.3,9.1,16.1"/>
	</g>
	<g>
		<path class="st0" d="M471.2,758c-1.4,3.1-1.8,6.7-1.1,10"/>
	</g>
	<g>
		<path class="st0" d="M580.4,687.9c-2.6,9.8-0.6,20.7,5.4,28.8c0.7,0.9,1.4,1.8,1.7,2.8c0.5,1.7,0,3.4-0.3,5.2
			c-0.6,3.4-0.4,6.9-0.1,10.4c1.1,11.8,3,23.5,5.9,35.1"/>
	</g>
	<g>
		<path class="st0" d="M833,513c40.7-3.1,81.5-4.4,122.2-4c13.3,0.1,26.6,0.5,39.9-0.4c19.3-1.3,38.4-5.1,56.7-11.2"/>
	</g>
	<g>
		<path class="st0" d="M956.9,448.8c3.6-2.7,7.2-5.4,10.8-8.1c11.3-8.5,22.6-16.9,34.5-24.7c19.6-12.8,40.6-23.6,58.3-38.9"/>
	</g>
	<g>
		<path class="st0" d="M983.5,419.4c-3.9,8.1-12.6,12.6-21.1,15.6c-10.4,3.6-21.2,5.8-31.8,8.6c-10.6,2.8-21.2,6.4-30.4,12.5
			c-9.2,6.1-16.8,15-19.5,25.6"/>
	</g>
	<g>
		<path class="st0" d="M830.7,345c-0.8,3.2,1.3,6.3,3.2,9c1.3,1.8,2.7,3.6,4,5.4c0.8,1.1,1.6,2.6,0.6,3.6"/>
	</g>
	<g>
		<path class="st0" d="M840.8,367.6c4,5,7.3,10.6,9.9,16.4"/>
	</g>
	<g>
		<path class="st0" d="M856.9,393c0.7,1.8,1.2,3.7,1.5,5.6"/>
	</g>
	<g>
		<path class="st0" d="M863.5,395.7c3,4.8,4.5,10.6,4.1,16.3"/>
	</g>
	<g>
		<path class="st0" d="M862.9,381.9c-9.7-10.6-19.6-21.5-25.7-34.6"/>
	</g>
	<g>
		<path class="st0" d="M826.7,355c0.4-2.5-0.5-5.2-2.3-7"/>
	</g>
	<g>
		<path class="st0" d="M994,251c6.7,0.4,13.3-2.2,19.5-4.7c27.6-11.3,55.1-22.6,82.7-33.9"/>
	</g>
	<g>
		<path class="st0" d="M1085.7,215.7c3.1-4.7,3.3-10.9,6.4-15.7c3.9-6.2,11.6-8.8,18.7-10.9"/>
	</g>
	<g>
		<path class="st0" d="M1098.8,193.3c-20.5-23.1-49.1-37.3-72.1-57.9c-4.8-4.3-9.3-8.8-14-13.1c-21.4-19.6-46.8-34.5-67.7-54.6"/>
	</g>
	<g>
		<path class="st0" d="M945.4,66.5c-16.2,3.4-32.4,7.3-48.5,11.2c-13.1,3.2-26.2,6.3-39.2,9.5c-79.4,19.3-158.8,38.6-237.6,60.2"/>
	</g>
	<g>
		<path class="st0" d="M1056.5,672.5c2.2,2.4,4.3,4.7,6.5,7.1c1.8,1.9,3.5,3.8,4.9,6c1.5,2.4,2.7,5,3.8,7.5
			c4.1,9.6,8.3,19.3,10.3,29.6"/>
	</g>
	<g>
		<path class="st0" d="M1373.2,443.8c-97.2,91.8-193.6,184.2-289.4,277.4c-10.3,10-20.5,20-29.5,31.2"/>
	</g>
	<g>
		<path class="st0" d="M1055.5,751c-7.2,7.3-14.7,14.3-22.7,20.7"/>
	</g>
	<g>
		<path class="st0" d="M1289.8-2.7c10.1,25.3,16.9,51.8,23.6,78.2c12.5,49.1,24.9,98.2,37.4,147.3c1.4,5.4,2.8,10.9,5.3,16
			c4,8,10.9,14.6,13.8,23"/>
	</g>
	<g>
		<path class="st0" d="M1356,236.5c5.9,0.5,11.9-0.2,17.4-2.1"/>
	</g>
	<g>
		<path class="st0" d="M1242.5,489.5c-2,6.2-2.5,10.5-4.5,16.5c-9,24-18,46-31,69c-3,5-6,10-9,15c-12,19-28,39-52,36
			c-10-1-19-8-23-17c-10-22-11-47-18-70c-3-28-4-56-3-84c1-13,4-26,5.2-38.7"/>
	</g>
	<g>
		<path class="st0" d="M1256.1,141.2C1256,130,1244,123,1234,122c-14-1-26,8-37,16c-4,3-7,8-10,11c-16,17-25,37-32,58
			c-6,21-11,41-19,61c-15,43-23,88-27.6,132.6"/>
	</g>
	<g>
		<path class="st0" d="M1108.4,400c-0.2,3.1-0.3,6.2-0.6,9.3c-0.2,2.5-0.5,5-1,7.4"/>
	</g>
	<g>
		<path class="st0" d="M1255.1,78.3c-12.3-13.3-33.5-15-50.4-8.5c-16.9,6.6-30.2,19.8-42.1,33.4c-5.4,6.1-10.6,12.4-15.7,18.7
			c-3.8,4.6-7.7,9.3-10.8,14.4c-4.6,7.7-7.5,16.3-11.2,24.5c-3.7,8.4-8.3,16.4-12.4,24.6c-16.3,32.1-26.9,66.7-36.3,101.4"/>
	</g>
	<g>
		<path class="st0" d="M1076.7,285.1c-3.1,12.5-6.1,24.9-9.2,37.4c-1.9,7.6-3.7,15.2-4.4,23c-0.5,5.9-0.4,11.8-0.9,17.7
			c-0.6,6.9-2.2,13.8-3.5,20.6c-7.9,41.5-7.5,84-7,126.2"/>
	</g>
	<g>
		<path class="st0" d="M1052.7,508.6c-1.1,36,8.3,71.4,19.3,105.7c3.7,11.5,7.6,23,13.7,33.4c6.1,10.4,14.6,19.7,25.4,25
			c5.6,2.7,11.8,4.3,18,4.6"/>
	</g>
	<g>
		<path class="st0" d="M1115.4,581.9c1.9-10.5,5.5-20.7,10.8-30.1c3.2-5.8,7.1-11.3,9.3-17.6c3-8.3,2.8-17.4,2.4-26.3
			c-2.2-48.3-10.2-96.5-7.6-144.7c0.9-16.4,3-32.7,6.3-48.7c0.7-3.4,1.4-7.1-0.3-10c-2.3-3.9-8-5-9.8-9.2"/>
	</g>
	<g>
		<path class="st0" d="M1135.3,317.9c-3.9,6.1-9.9,10.8-16.8,13.1"/>
	</g>
	<g>
		<path class="st0" d="M1233.1,486.3c-2.4,7.6-6.2,14.8-11.5,20.7c-6,6.7-13.7,11.6-20.8,17.2c-30.1,24.2-46.6,61.8-54.5,99.6"/>
	</g>
	<g>
		<path class="st0" d="M1370.9,271.4c-37.5-1.2-75-2.5-112.4-3.7c-7.5-0.2-15.2-0.5-22.5,1.5c-10.2,2.8-18.9,9.8-25.2,18.3
			s-10.5,18.4-13.8,28.4c-13,38.5-15.3,80.6-6.6,120.3c3.4,15.3,9,31.3,21.7,40.5c7.5,5.5,16.8,8,25.8,10.4
			c23.3,6.3,46.7,12.5,70,18.8"/>
	</g>
	<g>
		<path class="st0" d="M1192.1,441.4c10.2,2.1,20.3,4.9,30.4,7.6c37.7,10.1,75.5,20.3,113.2,30.4"/>
	</g>
	<g>
		<path class="st0" d="M1221.3,292.6c-3.2,9.2-6.3,18.4-9.5,27.6c-0.1,0.4-0.2,0.7-0.1,1.1c0.2,0.5,0.8,0.6,1.3,0.7
			c12.2,1.8,24.4,3.7,36.6,5.5c1.8,0.3,3.6,0.5,5.3,0.1c4.7-1.3,6.4-6.8,7.3-11.6c0.2-0.9,0.4-1.9-0.1-2.7c-0.4-0.7-1.1-1.1-1.8-1.4
			c-12.9-6.5-25.9-12.9-38.9-19.4"/>
	</g>
	<g>
		<path class="st0" d="M1263,316.1c5.7-0.2,11.5-0.3,17.2-0.5c-0.8,2.6-1.7,5.1-2.4,7.7c-5.2,17.6-4.7,36.5-10,54
			c-6.3-3-12.7-6-19-9c-0.8-0.4-1.6-0.8-2-1.5c-0.4-0.7-0.4-1.6-0.4-2.4c0.3-12,2.6-24,6.8-35.3"/>
	</g>
	<g>
		<path class="st0" d="M1255.9,327.7c6.1,2.7,12.3,5.2,18.6,7.4"/>
	</g>
	<g>
		<path class="st0" d="M1277.5,324.5c-5.1-1.4-10.2-3.3-15-5.5"/>
	</g>
	<g>
		<path class="st0" d="M1212,319.5c3.5,0.2,7,0.1,10.5-0.3c0.6-0.1,1.3-0.2,1.8-0.5c0.7-0.4,1-1.2,1.4-1.9c1.6-3.3,3.1-6.5,4.7-9.8
			c0.5-1,0.9-2,0.7-3.1c-0.3-1.3-1.6-2.2-2.8-2.9c-2.7-1.6-5.3-3.1-8-4.7"/>
	</g>
	<g>
		<path class="st0" d="M1246.4,362.6c6.7,4.5,14.5,7.3,22.6,8"/>
	</g>
	<g>
		<path class="st0" d="M1376,387.9c-14.1-4.9-28.2-9.7-42.3-14.6c-2.7-0.9-5.4-1.8-8.2-1.4c-5.1,0.8-8.3,5.8-10.6,10.5
			c-9.2,19.2-12.9,41-10.5,62.2c0.6,5.3,2.5,11.6,7.7,12.9c2.1,0.5,4.3,0,6.3-1c7-3.3,10.4-11.2,12.7-18.5c3.6-11.3,5.9-22.9,7-34.7
			c0.9-10.3,0.5-21.7-6.2-29.6"/>
	</g>
	<g>
		<path class="st0" d="M1312.9,457.7c10.2,4.9,20.8,8.8,31.6,11.6"/>
	</g>
	<g>
		<path class="st0" d="M1321.6,398.9c-1.9,0.8-3,3-3.3,5.1c-0.3,2.1-0.1,4.2-0.3,6.3c-0.6,5.8-4.5,11.7-2.1,17"/>
	</g>
	<g>
		<path class="st0" d="M1319.1,429c-0.6-2.6-1.2-5.2-1.7-7.8c1.1-0.2,2.2,0.5,2.6,1.5c0-4.1,0-8.1,0.1-12.2"/>
	</g>
	<g>
		<path class="st0" d="M1320,407c0-1.1,0.3-2.2,1-3"/>
	</g>
	<g>
		<path class="st0" d="M1256.1,266.8c-15.2-13.8-36.5-22-56.7-18.2c-5.7,1.1-11.3,3-17.1,2.5c-5-0.4-9.6-2.6-14.1-4.8
			c-7.2-3.4-14.4-6.9-21.5-10.3"/>
	</g>
	<g>
		<path class="st0" d="M1144.1,125.5c-44.6-14.5-89.5-28.4-134.4-41.8c12.7,15.3,30,25.9,45.9,37.8c10.4,7.7,20.4,16,30.3,24.3
			c11,9.1,21.9,18.2,32.2,28.1"/>
	</g>
	<g>
		<path class="st0" d="M1184.5,81.2c-0.3-2.1,0.8-4.2,2.2-5.9s3-3.1,4.1-4.9c1.3-2.1,1.7-4.6,2.3-7c0.7-3,1.6-5.9,2.6-8.8
			c1.2-3.5,3.2-7.3,6.7-8.2c3.1-0.8,6.2,1,8.6,3c5.1,4.4,8.1,9.4,9.5,16"/>
	</g>
	<g>
		<path class="st0" d="M1191.7,68.4c1.9,0.5,4-0.5,5.3-1.9c1.3-1.4,2.1-3.3,2.7-5.2c0.6-1.9,1.1-3.8,1.9-5.6
			c0.6-1.1,1.3-2.4,0.9-3.6c-0.6-1.4-2.8-1.8-3.1-3.3"/>
	</g>
	<g>
		<path class="st0" d="M1268.2,113.9c-9.7,12-14.1,28-12,43.3c0.2,1.4,0.5,2.9,1.2,4.2c0.8,1.4,2.2,2.4,3.5,3.2
			c2.1,1.3,4.6,2.3,7,1.7c1.4-0.4,2.6-1.2,3.7-2.1c2.3-1.7,4.6-3.4,6.6-5.5c2.3-2.4,4-5.3,5.6-8.2c2.4-4.1,4.8-8.1,7.2-12.2
			c2-3.4,4-6.7,5.2-10.4s1.8-7.7,0.8-11.5c-0.6-2-1.5-3.9-2.1-6c-0.7-2.4-0.8-4.9-0.8-7.3c-0.3-9.2-1.3-18.5-1.6-27.6"/>
	</g>
	<g>
		<path class="st0" d="M1256.7,76.7c-1.9,2.1-1,5.4,0,8c1.4,3.6,2.7,7.2,4.1,10.9c0.7,1.7,1.3,3.5,1.8,5.3c0.5,2.1,0.8,4.2,1,6.3
			c0.4,3.4,0.8,6.9,1.2,10.3"/>
	</g>
	<g>
		<path class="st0" d="M1292.5,75.5c-4.4-6.1-9-11.6-15.6-15.5c-1-0.6-1.9-1.1-3-1.3c-1.5-0.3-3,0.1-4.5,0.5
			c-12.6,3.2-25.5,5.6-38.4,7.1"/>
	</g>
	<g>
		<path class="st0" d="M1198.4-1c11.1,12.1,18.6,27,26.7,41.3c0.5,1,1.1,2,2,2.7c0.8,0.7,1.9,1.1,2.9,1.4
			c26.2,9,54.1,12.2,80.6,20.6"/>
	</g>
	<g>
		<path class="st0" d="M1270,164.5c-2.5-2.4-3.1-6.2-2.4-9.5c0.7-3.3,2.5-6.3,4.2-9.3c1-1.6,2.2-3.4,4.1-3.5
			c0.9-0.1,1.8,0.3,2.6,0.8c2.3,1.3,4.3,3.1,5.8,5.3"/>
	</g>
	<g>
		<path class="st0" d="M1257.2,160c-0.5,1.7-1,3.4-1.4,5.2c-0.5,1.8-1,3.6-0.9,5.4c0.1,2.1,0.9,4.1,1.7,6.1c1.3,3.2,2.6,6.3,3.8,9.5
			c0.7,1.7,1.4,3.3,2.6,4.6c1.2,1.3,3.1,2.1,4.8,1.6c1.1-0.4,2-1.2,2.9-2.1c1.1-1.2,2.2-2.3,3.3-3.5c6-6.2,12-12.4,17.3-19.2
			c4.5-5.8,8.5-12,12.4-18.2c1.4-2.3,2.9-4.6,3.5-7.2c0.7-2.9,0.3-6-0.3-9"/>
	</g>
	<g>
		<path class="st0" d="M1282.5,177.1c-1-1.7-3.2-2.3-5.1-1.9c-1.9,0.3-3.6,1.4-5.1,2.6c-2.9,2.1-5.6,4.5-7,7.7
			c-0.2,0.4-0.3,0.8-0.3,1.2c0.1,0.6,0.4,1,0.8,1.5c1,1.2,2.1,2.4,3.2,3.5"/>
	</g>
	<g>
		<path class="st0" d="M1307,133.7c0.3-6.8,0.6-13.6,0.8-20.3c0.1-3.1,0.3-6.3,1-9.3c0.6-2.7,1.7-5.5,1.1-8.3
			c-0.4-1.9-1.7-3.5-2.9-5c-1.6-2.1-3.3-4.2-4.9-6.3c-0.8-1.1-1.7-2.2-3-2.8c-1.9-1-4.2-0.5-6.2-0.1"/>
	</g>
	<g>
		<path class="st0" d="M1255.9,174.9c-1.5,1-2.5,2.7-3.3,4.4c-1.9,4-3,8.5-2.5,12.8c0.5,4.4,2.9,8.7,6.7,10.9
			c0.7,0.4,1.4,0.7,2.2,0.8c1.1,0,2.1-0.5,3.1-1c6.6-3.7,13.3-7.4,19.9-11.1c2.6-1.4,5.2-2.9,8-3.7c1.3-0.4,2.7-0.7,3.7-1.5
			c0.7-0.6,1.2-1.4,1.7-2.2c3.3-5.5,6.6-10.9,9.9-16.4"/>
	</g>
	<g>
		<path class="st0" d="M1259.6,202.9c-0.9-1.5-1.7-3.1-2.1-4.7c-0.2-0.8-0.4-1.7-0.2-2.5c0.2-1.2,1.1-2.2,2.1-2.9
			c1-0.7,2.2-1.1,3.3-1.6"/>
	</g>
	<g>
		<path class="st0" d="M1305.2,168.5c4.4-11.8,8.9-23.6,13.3-35.4c0.6-1.7,1.3-3.6,0.8-5.4c-0.3-1-0.9-1.9-1.6-2.7
			c-2.5-3.1-6-5.3-9.8-6.3"/>
	</g>
	<g>
		<path class="st0" d="M1271.1,190.8c1.3,1.4,2.3,3,2.9,4.8"/>
	</g>
	<g>
		<path class="st0" d="M1312.1,150.2c-0.2,3.3,0.4,6.7,1.8,9.7c1,2.3,2.5,4.4,2.9,6.9c0.3,2.1-0.2,4.2-0.8,6.3
			c-1.2,4.4-2.4,8.7-3.8,13.1c-0.6,2-1.3,4-2.6,5.7c-1.5,1.8-3.6,3-5.6,4.2c-3.3,1.8-6.5,3.6-9.8,5.4c-3.5,2-7,3.9-10.6,5.8
			c-5.4,2.8-11.2,5.6-17.3,5.1c-1.8-0.1-3.6-0.5-5.4-1c-1.7-0.4-3.5-0.9-4.6-2.2c-1.4-1.7-1.2-4.1-1-6.2"/>
	</g>
	<g>
		<path class="st0" d="M1258.7,211c0.2-1.8,1.5-3.2,3.1-4c1.6-0.8,3.4-1,5.2-1.2c0.3,0,0.7-0.1,1,0.1c0.2,0.2,0.3,0.5,0.4,0.8
			c0.4,1.7,0.6,3.5,0.5,5.3"/>
	</g>
	<g>
		<path class="st0" d="M1273.4,211.3c1.7,9.5,2.2,19.2,2.8,28.8c0.5,9.2,1,18.4,1.5,27.5"/>
	</g>
	<g>
		<path class="st0" d="M1302.9,196.5c2,6.6,2.3,13.5,2.7,20.4c0.8,17.5,1.6,34.9,2.4,52.4"/>
	</g>
	<g>
		<path class="st0" d="M1221,149.1c2,0.1,3.4,2,4.3,3.7c2.5,4.8,3.8,10.1,5.8,15.1c2,4.8,4.7,9.4,8,13.4"/>
	</g>
	<g>
		<path class="st0" d="M1242.8,185c0.8,1.2,1.7,2.3,2.7,3.3"/>
	</g>
	<g>
		<path class="st0" d="M1211.7,138.6c0.9,2.6,1.8,5.3,2.7,7.9c0.7,2.1,1.5,4.2,1.8,6.4c0.4,2.3,0.4,4.7,0.5,7
			c0.2,3.8,0.9,7.6,1.3,11.5c0.5,5.9,0.3,11.9-0.6,17.7c-0.5,3.1-1.3,6.3-3,8.9"/>
	</g>
	<g>
		<path class="st0" d="M1203.6,214.3c-2.2,2.5-5,4.5-8.1,5.7c-3.1,1.3-6.4,1.8-9.7,2.3c-2.6,0.4-5.2,0.8-7.8,1.2
			c-4.6,0.7-9.4,1.5-13.8,0"/>
	</g>
	<g>
		<path class="st0" d="M1191.3,233.6c3.3,2.5,6.8,4.7,10.4,6.5c2.1,1.1,4.3,2,6.6,2.3c3.9,0.4,7.6-1.2,11.1-2.8
			c7.7-3.7,15.1-8.2,21.4-14c6.3-5.8,11.5-12.9,14.2-21"/>
	</g>
	<g>
		<path class="st0" d="M1208.2,242.3c-7,2.1-13.4,6-20.3,8.5"/>
	</g>
	<g>
		<path class="st0" d="M1247,564.2c6.4-11,10.5-23.1,14.6-35.1c3.7-11,7.5-22,11.2-33"/>
	</g>
	<g>
		<path class="st0" d="M167.7,199.2c12.9,5.4,25.5,11.8,37.5,19c4.9,2.9,9.8,6.2,12.7,11c2,3.3,2.8,7.1,3.7,10.8
			c1.5,6.3,2.9,12.6,4.4,18.9"/>
	</g>
	<g>
		<path class="st0" d="M231.5,259.5c-1.6-2.9-5.3-7.9-7.5-10.5"/>
	</g>
	<g>
		<path class="st0" d="M750.5,396.5c-34.3,1.9-66.6,16.3-97.9,30.6"/>
	</g>
	<g>
		<path class="st0" d="M578.5,345.9c51.1-6.1,102.3-12.2,153.4-18.2c46.8-5.6,93.6-11.1,140-19.2"/>
	</g>
	<g>
		<path class="st0" d="M854,325.2c-93.1,11.9-186.3,23.1-279.6,33.4"/>
	</g>
	<g>
		<path class="st0" d="M559,285.7c-1.3-1.7-3.3-2.9-5.4-3.2c-0.3,0-0.6-0.1-0.9,0.1c-0.2,0.1-0.4,0.4-0.5,0.6
			c-0.6,1.4-0.3,3.2,0.7,4.2"/>
	</g>
	<g>
		<path class="st0" d="M552.3,254.5c0,1.8-0.2,3.5-0.5,5.3"/>
	</g>
	<g>
		<path class="st0" d="M342.7,248c0-1.3,0.2-2.7,0.4-4"/>
	</g>
</g>
</svg>
