<?xml version="1.0" encoding="utf-8"?>
<!-- Generator: Adobe Illustrator 21.0.0, SVG Export Plug-In . SVG Version: 6.00 Build 0)  -->
<svg version="1.1" id="Camada_1" xmlns="http://www.w3.org/2000/svg" xmlns:xlink="http://www.w3.org/1999/xlink" x="0px" y="0px"
	 viewBox="0 0 621 176.8" style="enable-background:new 0 0 621 176.8;" xml:space="preserve">
<style type="text/css">
	.st0{fill:none;}
	.st1{fill:#FFFFFF;}
	.st2{font-family:'ArialMT';}
	.st3{font-size:17px;}
	.st4{fill:none;stroke:#FFFFFF;stroke-width:2;stroke-miterlimit:10;}
	.st5{fill:none;stroke:#FFFFFF;stroke-miterlimit:10;}
	.st6{fill:none;stroke:#FFFFFF;stroke-width:0.25;stroke-miterlimit:10;}
</style>
<rect x="221.1" y="26.9" class="st0" width="158.4" height="62.6"/>
<text transform="matrix(1 0 0 1 221.122 39.1158)" class="st1 st2 st3">Efeturar</text>
<text transform="matrix(1 0 0 1 221.122 59.5158)" class="st1 st2 st3">pagamento</text>
<ellipse class="st4" cx="260.6" cy="45.9" rx="59.8" ry="37.1"/>
<line class="st5" x1="124.5" y1="45.9" x2="202.1" y2="45.9"/>
<rect x="226.9" y="114.2" class="st0" width="158.4" height="62.6"/>
<text transform="matrix(1 0 0 1 226.9773 126.3727)" class="st1 st2 st3">Realizar</text>
<text transform="matrix(1 0 0 1 226.9773 146.7727)" class="st1 st2 st3">compra</text>
<ellipse class="st4" cx="259.5" cy="130.2" rx="59.8" ry="37.1"/>
<line class="st5" x1="142.8" y1="103" x2="201" y2="130.2"/>
<line class="st5" x1="333.2" y1="45.9" x2="344.8" y2="45.9"/>
<line class="st5" x1="353.6" y1="45.9" x2="365.2" y2="45.9"/>
<line class="st5" x1="374.9" y1="45.9" x2="386.5" y2="45.9"/>
<line class="st5" x1="398.4" y1="45.9" x2="410" y2="45.9"/>
<line class="st5" x1="422.9" y1="45.9" x2="434.4" y2="45.9"/>
<line class="st5" x1="428.6" y1="32.3" x2="447.3" y2="45.9"/>
<line class="st5" x1="428.6" y1="62.5" x2="447.3" y2="45.9"/>
<rect x="330.8" y="25" class="st0" width="158.4" height="62.6"/>
<text transform="matrix(1 0 0 1 330.8182 37.1324)" class="st1 st2 st3">&lt;&lt;include&gt;&gt;</text>
<text transform="matrix(1 0 0 1 330.8182 37.1324)" class="st6 st2 st3">&lt;&lt;include&gt;&gt;</text>
<line class="st5" x1="334.9" y1="128.3" x2="346.4" y2="128.3"/>
<line class="st5" x1="355.3" y1="128.3" x2="366.8" y2="128.3"/>
<line class="st5" x1="376.6" y1="128.3" x2="388.1" y2="128.3"/>
<line class="st5" x1="400.1" y1="128.3" x2="411.6" y2="128.3"/>
<line class="st5" x1="424.5" y1="128.3" x2="436.1" y2="128.3"/>
<line class="st5" x1="430.3" y1="144.9" x2="448.9" y2="128.3"/>
<rect x="330.8" y="104.7" class="st0" width="158.4" height="62.6"/>
<text transform="matrix(1 0 0 1 330.8182 116.858)" class="st1 st2 st3">&lt;&lt;include&gt;&gt;</text>
<text transform="matrix(1 0 0 1 330.8182 116.858)" class="st6 st2 st3">&lt;&lt;include&gt;&gt;</text>
<line class="st5" x1="430.3" y1="115.2" x2="448.9" y2="128.8"/>
<rect x="487.7" y="66.5" class="st0" width="158.4" height="62.6"/>
<text transform="matrix(1 0 0 1 487.7411 78.6793)" class="st1 st2 st3">Autenticar-se</text>
<text transform="matrix(1 0 0 1 487.7411 99.0793)" class="st1 st2 st3">no sistema</text>
<ellipse class="st4" cx="535.7" cy="82.5" rx="59.8" ry="37.1"/>
<path class="st4" d="M84.1,46.3c8.1,0,14.7-6.6,14.7-14.7s-6.6-14.7-14.7-14.7s-14.7,6.6-14.7,14.7S76,46.3,84.1,46.3z M84.1,24
	c4.2,0,7.6,3.4,7.6,7.6s-3.4,7.6-7.6,7.6c-4.2,0-7.6-3.4-7.6-7.6C76.4,27.4,79.9,24,84.1,24z M106.9,144.5c0,1.9-1.6,3.5-3.5,3.5
	h-9.5l0,0c-0.1,0-0.2,0-0.4,0l0,0c-0.1,0-0.2,0-0.3,0h-0.1c-0.1,0-0.2,0-0.2-0.1h-0.1c-0.1,0-0.1,0-0.2-0.1c0,0-0.1,0-0.1-0.1
	c-0.1,0-0.1-0.1-0.2-0.1c0,0-0.1,0-0.1-0.1c-0.1,0-0.1-0.1-0.1-0.1l-0.1-0.1l-0.1-0.1l-0.1-0.1l-0.1-0.1l-0.1-0.1l-0.1-0.1l-0.1-0.1
	c0-0.1-0.1-0.1-0.1-0.2c0,0,0-0.1-0.1-0.1c0-0.1-0.1-0.1-0.1-0.2c-0.1-0.1-0.1-0.2-0.1-0.3c0,0,0-0.1-0.1-0.1c0-0.1-0.1-0.2-0.1-0.2
	v-0.1c0-0.1,0-0.2-0.1-0.2v-0.1c0-0.1,0-0.2,0-0.2v-0.1v-0.1l0,0l-8.8-69c-0.2-1.9,1.1-3.7,3.1-3.9c1.9-0.2,3.7,1.1,3.9,3.1
	l8.4,66.1h6.4C105.3,141,106.9,142.5,106.9,144.5z M114.7,104.3c-0.4,0.2-0.9,0.3-1.3,0.3c-1.4,0-2.7-0.8-3.3-2.2L99,74.7
	c-3.4-8.4-6.6-13.8-12-14.7c-1.7-0.3-13.5-0.2-15.2,0.1c-6.4,1.2-10.9,8.1-15,15.1l-0.1,0.2L63.9,94c0.7,1.8-0.2,3.9-2,4.6
	s-3.9-0.2-4.6-2l-7.8-20.2c-0.4-1-0.3-2.1,0.2-3l1-1.7c4.7-8,10.4-16.8,19.8-18.5c2.5-0.5,15.4-0.4,17.6-0.1
	c9.6,1.6,14,10.7,17.4,19l11.1,27.6C117.3,101.5,116.5,103.6,114.7,104.3z M80.8,108.3l-11.1,32.6h4.6c1.9,0,3.5,1.6,3.5,3.5
	s-1.6,3.5-3.5,3.5h-9.5l0,0c-0.1,0-0.2,0-0.3,0l0,0c-0.1,0-0.2,0-0.3,0h-0.1c-0.1,0-0.1,0-0.2-0.1h-0.1l0,0h-0.1
	c-0.1,0-0.1,0-0.2-0.1c-0.1,0-0.1,0-0.2-0.1c-0.1,0-0.1,0-0.1-0.1c-0.1,0-0.1-0.1-0.2-0.1c0,0-0.1,0-0.1-0.1c-0.1,0-0.1-0.1-0.2-0.1
	c0,0-0.1,0-0.1-0.1c-0.1,0-0.1-0.1-0.2-0.2l-0.1-0.1c0-0.1-0.1-0.1-0.1-0.2l-0.1-0.1c0-0.1-0.1-0.1-0.1-0.2l-0.1-0.1l-0.1-0.1
	c0-0.1-0.1-0.1-0.1-0.2c0,0,0-0.1-0.1-0.1c0-0.1-0.1-0.1-0.1-0.2c0,0,0-0.1-0.1-0.1c0-0.1,0-0.1-0.1-0.2c0-0.1,0-0.1,0-0.2
	c0-0.1,0-0.1,0-0.2c0-0.1,0-0.1,0-0.2v-0.1c0-0.1,0-0.2,0-0.2v-0.1l0,0c0-0.1,0-0.1,0-0.2V144c0-0.1,0-0.1,0-0.2c0-0.1,0-0.1,0-0.2
	v-0.1c0-0.1,0-0.2,0.1-0.2l0,0l12.7-37.2c0.6-1.8,2.6-2.8,4.5-2.2C80.4,104.5,81.4,106.5,80.8,108.3z"/>
</svg>
