<?xml version="1.0" encoding="utf-8"?>
<!-- Generator: Adobe Illustrator 21.0.0, SVG Export Plug-In . SVG Version: 6.00 Build 0)  -->
<svg version="1.1" id="Camada_1" xmlns="http://www.w3.org/2000/svg" xmlns:xlink="http://www.w3.org/1999/xlink" x="0px" y="0px"
	 viewBox="0 0 621 287" style="enable-background:new 0 0 621 287;" xml:space="preserve">
<style type="text/css">
	.st0{fill:none;stroke:#FFFFFF;stroke-width:2;stroke-miterlimit:10;}
	.st1{fill:none;}
	.st2{fill:#FFFFFF;stroke:#FFFFFF;stroke-width:0.25;stroke-miterlimit:10;}
	.st3{font-family:'ArialMT';}
	.st4{font-size:17px;}
	.st5{fill:none;stroke:#FFFFFF;stroke-miterlimit:10;}
	.st6{fill:#FFFFFF;}
	.st7{font-size:15px;}
</style>
<path class="st0" d="M64.8,120.1c5.4,0,9.8-4.4,9.8-9.8c0-5.4-4.4-9.8-9.8-9.8c-5.4,0-9.8,4.4-9.8,9.8
	C55,115.7,59.4,120.1,64.8,120.1z M64.8,105.2c2.8,0,5.1,2.3,5.1,5.1c0,2.8-2.3,5.1-5.1,5.1c-2.8,0-5.1-2.3-5.1-5.1
	C59.7,107.5,62,105.2,64.8,105.2z M80.1,185.9c0,1.3-1.1,2.4-2.4,2.4h-6.4c0,0,0,0,0,0c-0.1,0-0.2,0-0.2,0c0,0,0,0,0,0
	c-0.1,0-0.1,0-0.2,0c0,0,0,0-0.1,0c-0.1,0-0.1,0-0.2,0c0,0-0.1,0-0.1,0c0,0-0.1,0-0.1,0c0,0-0.1,0-0.1,0c0,0-0.1,0-0.1-0.1
	c0,0-0.1,0-0.1,0c0,0-0.1,0-0.1-0.1c0,0-0.1,0-0.1-0.1c0,0-0.1,0-0.1-0.1c0,0-0.1,0-0.1-0.1c0,0-0.1-0.1-0.1-0.1c0,0,0,0-0.1-0.1
	c0,0-0.1-0.1-0.1-0.1c0,0,0,0-0.1-0.1c0,0-0.1-0.1-0.1-0.1c0,0,0,0,0-0.1c0,0-0.1-0.1-0.1-0.1c0-0.1-0.1-0.1-0.1-0.2c0,0,0,0,0-0.1
	c0,0,0-0.1-0.1-0.2c0,0,0,0,0-0.1c0-0.1,0-0.1,0-0.2c0,0,0,0,0-0.1c0-0.1,0-0.1,0-0.2c0,0,0,0,0-0.1l0,0c0,0,0,0,0,0l-5.9-46.3
	c-0.2-1.3,0.8-2.5,2-2.6c1.3-0.2,2.5,0.8,2.6,2l5.6,44.3h4.3C79,183.6,80.1,184.6,80.1,185.9z M85.3,159c-0.3,0.1-0.6,0.2-0.9,0.2
	c-0.9,0-1.8-0.6-2.2-1.5l-7.4-18.5c-2.3-5.6-4.4-9.3-8.1-9.9c-1.2-0.2-9.1-0.2-10.2,0c-4.3,0.8-7.3,5.4-10,10.1l-0.1,0.1l4.8,12.5
	c0.5,1.2-0.1,2.6-1.4,3.1c-1.2,0.5-2.6-0.1-3.1-1.4l-5.2-13.5c-0.3-0.7-0.2-1.4,0.2-2l0.7-1.1c3.1-5.4,7-11.2,13.2-12.4
	c1.7-0.3,10.3-0.3,11.8-0.1c6.5,1.1,9.4,7.1,11.7,12.8l7.4,18.5C87.1,157.1,86.5,158.5,85.3,159z M62.6,161.7l-7.4,21.9h3.1
	c1.3,0,2.4,1.1,2.4,2.4c0,1.3-1.1,2.4-2.4,2.4h-6.4c0,0,0,0,0,0c-0.1,0-0.2,0-0.2,0c0,0,0,0,0,0c-0.1,0-0.1,0-0.2,0c0,0,0,0-0.1,0
	c0,0-0.1,0-0.1,0c0,0-0.1,0-0.1,0c0,0,0,0,0,0c0,0,0,0-0.1,0c0,0-0.1,0-0.1-0.1c0,0-0.1,0-0.1,0c0,0-0.1,0-0.1-0.1
	c0,0-0.1,0-0.1-0.1c0,0-0.1,0-0.1,0c0,0-0.1-0.1-0.1-0.1c0,0,0,0-0.1,0c0,0-0.1-0.1-0.1-0.1c0,0,0,0-0.1-0.1c0,0-0.1-0.1-0.1-0.1
	c0,0,0,0-0.1-0.1c0,0-0.1-0.1-0.1-0.1c0,0,0-0.1-0.1-0.1c0,0,0-0.1-0.1-0.1c0,0,0-0.1-0.1-0.1c0,0,0-0.1,0-0.1c0,0,0-0.1-0.1-0.1
	c0,0,0-0.1,0-0.1c0,0,0-0.1,0-0.1c0,0,0-0.1,0-0.1c0,0,0-0.1,0-0.1c0,0,0-0.1,0-0.1c0,0,0-0.1,0-0.1c0-0.1,0-0.1,0-0.2
	c0,0,0,0,0-0.1c0,0,0,0,0,0c0,0,0-0.1,0-0.2c0,0,0-0.1,0-0.1c0,0,0-0.1,0-0.1c0,0,0-0.1,0-0.1c0,0,0,0,0-0.1c0-0.1,0-0.1,0-0.2
	c0,0,0,0,0,0l8.5-25c0.4-1.2,1.8-1.9,3-1.5C62.3,159.1,63,160.5,62.6,161.7z"/>
<rect x="37.9" y="194.5" class="st1" width="158.4" height="62.6"/>
<text transform="matrix(1 0 0 1 37.9248 206.6634)" class="st2 st3 st4">Cliente</text>
<line class="st5" x1="100" y1="144.4" x2="243.1" y2="135.6"/>
<rect x="271.8" y="119.7" class="st1" width="158.4" height="62.6"/>
<text transform="matrix(1 0 0 1 271.8068 131.8881)"><tspan x="0" y="0" class="st6 st3 st4">Realizar </tspan><tspan x="0" y="20.4" class="st6 st3 st4">pedido</tspan></text>
<ellipse class="st0" cx="302.9" cy="135.6" rx="59.8" ry="37.1"/>
<line class="st5" x1="196.3" y1="50" x2="196.3" y2="241"/>
<line class="st5" x1="398" y1="241" x2="398" y2="50"/>
<line class="st5" x1="196.3" y1="50" x2="398" y2="50"/>
<line class="st5" x1="196.3" y1="241" x2="398" y2="241"/>
<path class="st0" d="M541,17c0-5.4-4.4-9.8-9.8-9.8c-5.4,0-9.8,4.4-9.8,9.8s4.4,9.8,9.8,9.8C536.6,26.8,541,22.4,541,17z M536.3,17
	c0,2.8-2.3,5.1-5.1,5.1c-2.8,0-5.1-2.3-5.1-5.1c0-2.8,2.3-5.1,5.1-5.1S536.3,14.2,536.3,17z M518.2,90.3h4.3l5.6-44.3
	c0.2-1.3,1.3-2.2,2.6-2c1.3,0.2,2.2,1.3,2,2.6L527,92.9c0,0,0,0,0,0l0,0c0,0,0,0,0,0.1c0,0.1,0,0.1,0,0.2c0,0,0,0,0,0.1
	c0,0.1,0,0.1,0,0.2c0,0,0,0,0,0.1c0,0.1,0,0.1-0.1,0.2c0,0,0,0,0,0.1c0,0.1-0.1,0.1-0.1,0.2c0,0-0.1,0.1-0.1,0.1c0,0,0,0,0,0.1
	c0,0-0.1,0.1-0.1,0.1c0,0,0,0-0.1,0.1c0,0-0.1,0.1-0.1,0.1c0,0,0,0-0.1,0.1c0,0-0.1,0.1-0.1,0.1c0,0-0.1,0-0.1,0.1
	c0,0-0.1,0-0.1,0.1c0,0-0.1,0-0.1,0.1c0,0-0.1,0-0.1,0.1c0,0-0.1,0-0.1,0c0,0-0.1,0-0.1,0.1c0,0-0.1,0-0.1,0c0,0-0.1,0-0.1,0
	c0,0-0.1,0-0.1,0c-0.1,0-0.1,0-0.2,0c0,0,0,0-0.1,0c-0.1,0-0.1,0-0.2,0c0,0,0,0,0,0c-0.1,0-0.2,0-0.2,0c0,0,0,0,0,0h-6.4
	c-1.3,0-2.4-1.1-2.4-2.4C515.9,91.3,516.9,90.3,518.2,90.3z M509.4,62.6l7.4-18.5c2.3-5.6,5.2-11.7,11.7-12.8
	c1.5-0.2,10.1-0.3,11.8,0.1c6.2,1.2,10.1,7,13.2,12.4l0.7,1.1c0.4,0.6,0.4,1.4,0.2,2l-5.2,13.5c-0.5,1.2-1.8,1.8-3.1,1.4
	c-1.2-0.5-1.8-1.8-1.4-3.1l4.8-12.5l-0.1-0.1c-2.7-4.7-5.7-9.3-10-10.1c-1.1-0.2-9-0.2-10.2,0c-3.6,0.6-5.8,4.2-8.1,9.9l-7.4,18.5
	c-0.4,0.9-1.3,1.5-2.2,1.5c-0.3,0-0.6-0.1-0.9-0.2C509.5,65.2,508.9,63.8,509.4,62.6z M534.9,65.4c1.2-0.4,2.6,0.2,3,1.5l8.5,25
	c0,0,0,0,0,0c0,0.1,0,0.1,0,0.2c0,0,0,0,0,0.1c0,0,0,0.1,0,0.1c0,0,0,0.1,0,0.1c0,0,0,0.1,0,0.1c0,0.1,0,0.1,0,0.2c0,0,0,0,0,0
	c0,0,0,0,0,0.1c0,0.1,0,0.1,0,0.2c0,0,0,0.1,0,0.1c0,0,0,0.1,0,0.1c0,0,0,0.1,0,0.1c0,0,0,0.1,0,0.1c0,0,0,0.1,0,0.1
	c0,0,0,0.1,0,0.1c0,0,0,0.1-0.1,0.1c0,0,0,0.1,0,0.1c0,0,0,0.1-0.1,0.1c0,0,0,0.1-0.1,0.1c0,0,0,0.1-0.1,0.1c0,0-0.1,0.1-0.1,0.1
	c0,0,0,0-0.1,0.1c0,0-0.1,0.1-0.1,0.1c0,0,0,0-0.1,0.1c0,0-0.1,0.1-0.1,0.1c0,0,0,0-0.1,0c0,0-0.1,0.1-0.1,0.1c0,0,0,0-0.1,0
	c0,0-0.1,0-0.1,0.1c0,0-0.1,0-0.1,0.1c0,0-0.1,0-0.1,0c0,0-0.1,0-0.1,0.1c0,0,0,0-0.1,0c0,0,0,0,0,0c0,0-0.1,0-0.1,0
	c0,0-0.1,0-0.1,0c0,0,0,0-0.1,0c-0.1,0-0.1,0-0.2,0c0,0,0,0,0,0c-0.1,0-0.2,0-0.2,0c0,0,0,0,0,0h-6.4c-1.3,0-2.4-1.1-2.4-2.4
	c0-1.3,1.1-2.4,2.4-2.4h3.1l-7.4-21.9C533,67.2,533.7,65.8,534.9,65.4z"/>
<rect x="498.7" y="102.2" class="st1" width="158.4" height="62.6"/>
<text transform="matrix(1 0 0 1 498.6887 114.3722)" class="st2 st3 st4">Vendedor</text>
<path class="st0" d="M541,172.5c0-5.4-4.4-9.8-9.8-9.8c-5.4,0-9.8,4.4-9.8,9.8s4.4,9.8,9.8,9.8C536.6,182.4,541,178,541,172.5z
	 M536.3,172.5c0,2.8-2.3,5.1-5.1,5.1c-2.8,0-5.1-2.3-5.1-5.1c0-2.8,2.3-5.1,5.1-5.1S536.3,169.7,536.3,172.5z M518.2,245.8h4.3
	l5.6-44.3c0.2-1.3,1.3-2.2,2.6-2c1.3,0.2,2.2,1.3,2,2.6l-5.9,46.3c0,0,0,0,0,0l0,0c0,0,0,0,0,0.1c0,0.1,0,0.1,0,0.2c0,0,0,0,0,0.1
	c0,0.1,0,0.1,0,0.2c0,0,0,0,0,0.1c0,0.1,0,0.1-0.1,0.2c0,0,0,0,0,0.1c0,0.1-0.1,0.1-0.1,0.2c0,0-0.1,0.1-0.1,0.1c0,0,0,0,0,0.1
	c0,0-0.1,0.1-0.1,0.1c0,0,0,0-0.1,0.1c0,0-0.1,0.1-0.1,0.1c0,0,0,0-0.1,0.1c0,0-0.1,0.1-0.1,0.1c0,0-0.1,0-0.1,0.1
	c0,0-0.1,0-0.1,0.1c0,0-0.1,0-0.1,0.1c0,0-0.1,0-0.1,0.1c0,0-0.1,0-0.1,0c0,0-0.1,0-0.1,0.1c0,0-0.1,0-0.1,0c0,0-0.1,0-0.1,0
	c0,0-0.1,0-0.1,0c-0.1,0-0.1,0-0.2,0c0,0,0,0-0.1,0c-0.1,0-0.1,0-0.2,0c0,0,0,0,0,0c-0.1,0-0.2,0-0.2,0c0,0,0,0,0,0h-6.4
	c-1.3,0-2.4-1.1-2.4-2.4C515.9,246.9,516.9,245.8,518.2,245.8z M509.4,218.2l7.4-18.5c2.3-5.6,5.2-11.7,11.7-12.8
	c1.5-0.2,10.1-0.3,11.8,0.1c6.2,1.2,10.1,7,13.2,12.4l0.7,1.1c0.4,0.6,0.4,1.4,0.2,2l-5.2,13.5c-0.5,1.2-1.8,1.8-3.1,1.4
	c-1.2-0.5-1.8-1.8-1.4-3.1l4.8-12.5l-0.1-0.1c-2.7-4.7-5.7-9.3-10-10.1c-1.1-0.2-9-0.2-10.2,0c-3.6,0.6-5.8,4.2-8.1,9.9l-7.4,18.5
	c-0.4,0.9-1.3,1.5-2.2,1.5c-0.3,0-0.6-0.1-0.9-0.2C509.5,220.8,508.9,219.4,509.4,218.2z M534.9,220.9c1.2-0.4,2.6,0.2,3,1.5l8.5,25
	c0,0,0,0,0,0c0,0.1,0,0.1,0,0.2c0,0,0,0,0,0.1c0,0,0,0.1,0,0.1c0,0,0,0.1,0,0.1c0,0,0,0.1,0,0.1c0,0.1,0,0.1,0,0.2c0,0,0,0,0,0
	c0,0,0,0,0,0.1c0,0.1,0,0.1,0,0.2c0,0,0,0.1,0,0.1c0,0,0,0.1,0,0.1c0,0,0,0.1,0,0.1c0,0,0,0.1,0,0.1c0,0,0,0.1,0,0.1
	c0,0,0,0.1,0,0.1c0,0,0,0.1-0.1,0.1c0,0,0,0.1,0,0.1c0,0,0,0.1-0.1,0.1c0,0,0,0.1-0.1,0.1c0,0,0,0.1-0.1,0.1c0,0-0.1,0.1-0.1,0.1
	c0,0,0,0-0.1,0.1c0,0-0.1,0.1-0.1,0.1c0,0,0,0-0.1,0.1c0,0-0.1,0.1-0.1,0.1c0,0,0,0-0.1,0c0,0-0.1,0.1-0.1,0.1c0,0,0,0-0.1,0
	c0,0-0.1,0-0.1,0.1c0,0-0.1,0-0.1,0.1c0,0-0.1,0-0.1,0c0,0-0.1,0-0.1,0.1c0,0,0,0-0.1,0c0,0,0,0,0,0c0,0-0.1,0-0.1,0
	c0,0-0.1,0-0.1,0c0,0,0,0-0.1,0c-0.1,0-0.1,0-0.2,0c0,0,0,0,0,0c-0.1,0-0.2,0-0.2,0c0,0,0,0,0,0h-6.4c-1.3,0-2.4-1.1-2.4-2.4
	c0-1.3,1.1-2.4,2.4-2.4h3.1l-7.4-21.9C533,222.7,533.7,221.4,534.9,220.9z"/>
<rect x="430.2" y="259.7" class="st1" width="195.1" height="62.6"/>
<text transform="matrix(1 0 0 1 430.2208 271.909)" class="st2 st3 st4">Empresa Transportadora</text>
<line class="st5" x1="509.4" y1="62.6" x2="359.4" y2="123.3"/>
<line class="st5" x1="357.4" y1="151" x2="509.4" y2="218.2"/>
<rect x="199.5" y="57.1" class="st1" width="222.5" height="62.6"/>
<text transform="matrix(1 0 0 1 199.5469 67.889)"><tspan x="0" y="0" class="st6 st3 st7">Sistema de vendas de livros</tspan><tspan x="0" y="18" class="st6 st3 st7">por correios</tspan></text>
</svg>
