<?xml version="1.0" encoding="utf-8"?>
<!-- Generator: Adobe Illustrator 21.0.0, SVG Export Plug-In . SVG Version: 6.00 Build 0)  -->
<svg version="1.1" id="Camada_1" xmlns="http://www.w3.org/2000/svg" xmlns:xlink="http://www.w3.org/1999/xlink" x="0px" y="0px"
	 viewBox="0 0 863 376" style="enable-background:new 0 0 863 376;" xml:space="preserve">
<style type="text/css">
	.st0{fill:none;stroke:#FFFFFF;stroke-miterlimit:10;}
	.st1{fill:none;}
	.st2{fill:#FFFFFF;}
	.st3{font-family:'ArialMT';}
	.st4{font-size:17px;}
	.st5{fill:none;stroke:#FFFFFF;stroke-width:2;stroke-miterlimit:10;}
	.st6{font-size:16px;}
	.st7{fill:#FFFFFF;stroke:#FFFFFF;stroke-width:0.25;stroke-miterlimit:10;}
</style>
<path class="st0" d="M307.4,283.7c5.2,0,9.5-4.2,9.5-9.5c0-5.2-4.2-9.5-9.5-9.5c-5.2,0-9.5,4.2-9.5,9.5
	C298,279.4,302.2,283.7,307.4,283.7z M307.4,269.3c2.7,0,4.9,2.2,4.9,4.9c0,2.7-2.2,4.9-4.9,4.9c-2.7,0-4.9-2.2-4.9-4.9
	C302.5,271.5,304.7,269.3,307.4,269.3z M322.1,346.9c0,1.3-1,2.3-2.3,2.3h-6.1c0,0,0,0,0,0c-0.1,0-0.2,0-0.2,0c0,0,0,0,0,0
	c-0.1,0-0.1,0-0.2,0c0,0,0,0-0.1,0c-0.1,0-0.1,0-0.1,0c0,0-0.1,0-0.1,0c0,0-0.1,0-0.1,0c0,0-0.1,0-0.1,0c0,0-0.1,0-0.1-0.1
	c0,0-0.1,0-0.1,0c0,0-0.1,0-0.1-0.1c0,0-0.1,0-0.1-0.1c0,0-0.1,0-0.1-0.1c0,0-0.1,0-0.1-0.1c0,0-0.1-0.1-0.1-0.1c0,0,0,0-0.1-0.1
	c0,0-0.1-0.1-0.1-0.1c0,0,0,0-0.1-0.1c0,0-0.1-0.1-0.1-0.1c0,0,0,0,0-0.1c0,0-0.1-0.1-0.1-0.1c0-0.1-0.1-0.1-0.1-0.2c0,0,0,0,0-0.1
	c0,0,0-0.1-0.1-0.1c0,0,0,0,0-0.1c0-0.1,0-0.1,0-0.2c0,0,0,0,0-0.1c0-0.1,0-0.1,0-0.2c0,0,0,0,0,0l0,0c0,0,0,0,0,0l-5.6-44.4
	c-0.2-1.2,0.7-2.4,2-2.5c1.2-0.2,2.4,0.7,2.5,2l5.4,42.5h4.1C321.1,344.6,322.1,345.6,322.1,346.9z M327.1,321
	c-0.3,0.1-0.6,0.2-0.8,0.2c-0.9,0-1.7-0.5-2.1-1.4L317,302c-2.2-5.4-4.2-8.9-7.7-9.5c-1.1-0.2-8.7-0.1-9.8,0c-4.1,0.8-7,5.2-9.6,9.7
	l-0.1,0.1l4.6,12c0.5,1.2-0.1,2.5-1.3,2.9c-1.2,0.5-2.5-0.1-2.9-1.3l-5-13c-0.2-0.6-0.2-1.4,0.2-2l0.6-1.1c3-5.2,6.7-10.8,12.7-11.9
	c1.6-0.3,9.9-0.3,11.4,0c6.2,1,9,6.9,11.2,12.3l7.2,17.8C328.8,319.2,328.3,320.6,327.1,321z M305.3,323.6l-7.1,21h3
	c1.3,0,2.3,1,2.3,2.3s-1,2.3-2.3,2.3H295c0,0,0,0,0,0c-0.1,0-0.1,0-0.2,0c0,0,0,0,0,0c-0.1,0-0.1,0-0.2,0c0,0,0,0-0.1,0
	c0,0-0.1,0-0.1,0c0,0-0.1,0-0.1,0c0,0,0,0,0,0c0,0,0,0-0.1,0c0,0-0.1,0-0.1,0c0,0-0.1,0-0.1,0c0,0-0.1,0-0.1,0c0,0-0.1,0-0.1-0.1
	c0,0,0,0-0.1,0c0,0-0.1-0.1-0.1-0.1c0,0,0,0-0.1,0c0,0-0.1-0.1-0.1-0.1c0,0,0,0-0.1-0.1c0,0-0.1-0.1-0.1-0.1c0,0,0,0-0.1-0.1
	c0,0-0.1-0.1-0.1-0.1c0,0,0-0.1-0.1-0.1c0,0,0-0.1-0.1-0.1c0,0,0-0.1-0.1-0.1c0,0,0-0.1,0-0.1c0,0,0-0.1,0-0.1c0,0,0-0.1,0-0.1
	c0,0,0-0.1,0-0.1c0,0,0-0.1,0-0.1c0,0,0-0.1,0-0.1c0,0,0-0.1,0-0.1c0,0,0-0.1,0-0.1c0,0,0-0.1,0-0.1c0,0,0,0,0-0.1c0,0,0,0,0,0
	c0,0,0-0.1,0-0.1c0,0,0-0.1,0-0.1c0,0,0-0.1,0-0.1c0,0,0-0.1,0-0.1c0,0,0,0,0-0.1c0-0.1,0-0.1,0-0.2c0,0,0,0,0,0l8.1-24
	c0.4-1.2,1.7-1.8,2.9-1.4C305.1,321.1,305.7,322.4,305.3,323.6z"/>
<rect x="271.9" y="358" class="st1" width="158.4" height="62.6"/>
<text transform="matrix(1 0 0 1 271.9471 370.1302)" class="st2 st3 st4">Cliente</text>
<ellipse class="st5" cx="304.9" cy="186.9" rx="59.8" ry="37.1"/>
<rect x="269.9" y="161.6" class="st1" width="158.4" height="62.6"/>
<text transform="matrix(1 0 0 1 269.9471 173.0707)"><tspan x="0" y="0" class="st2 st3 st6">RF05:</tspan><tspan x="0" y="19.2" class="st2 st3 st6">Comprar</tspan><tspan x="0" y="38.4" class="st2 st3 st6">Passagem</tspan></text>
<line class="st0" x1="304.9" y1="264.8" x2="304.9" y2="224"/>
<line class="st0" x1="147.5" y1="183" x2="159.1" y2="183"/>
<line class="st0" x1="168.8" y1="183" x2="180.4" y2="183"/>
<line class="st0" x1="192.3" y1="183" x2="203.9" y2="183"/>
<line class="st0" x1="216.8" y1="183" x2="228.3" y2="183"/>
<line class="st0" x1="222.5" y1="169.4" x2="241.2" y2="183"/>
<line class="st0" x1="222.5" y1="199.6" x2="241.2" y2="183"/>
<ellipse class="st5" cx="76.6" cy="182.9" rx="59.8" ry="37.1"/>
<rect x="41.7" y="157.6" class="st1" width="158.4" height="62.6"/>
<text transform="matrix(1 0 0 1 41.6712 169.0578)"><tspan x="0" y="0" class="st2 st3 st6">RF08:</tspan><tspan x="0" y="19.2" class="st2 st3 st6">Cancelar</tspan><tspan x="0" y="38.4" class="st2 st3 st6">Compra</tspan></text>
<text transform="matrix(1 0 0 1 137.4132 162.6152)" class="st7 st3 st4">&lt;&lt;extend&gt;&gt;</text>
<ellipse class="st5" cx="304.9" cy="43" rx="59.8" ry="37.1"/>
<rect x="269.9" y="17.7" class="st1" width="158.4" height="62.6"/>
<text transform="matrix(1 0 0 1 269.9471 29.135)"><tspan x="0" y="0" class="st2 st3 st6">RF06:</tspan><tspan x="0" y="19.2" class="st2 st3 st6">Selecionar</tspan><tspan x="0" y="38.4" class="st2 st3 st6">Poltrona</tspan></text>
<line class="st0" x1="306.4" y1="98.2" x2="306.4" y2="109.8"/>
<line class="st0" x1="306.4" y1="122.7" x2="306.4" y2="134.2"/>
<line class="st0" x1="320" y1="128.4" x2="306.4" y2="147.1"/>
<line class="st0" x1="289.8" y1="128.4" x2="306.4" y2="147.1"/>
<text transform="matrix(1 0 0 1 262.9132 94.1152)" class="st7 st3 st4">&lt;&lt;extend&gt;&gt;</text>
<ellipse class="st5" cx="520.2" cy="42.9" rx="59.8" ry="37.1"/>
<rect x="482.3" y="17.6" class="st1" width="158.4" height="62.6"/>
<text transform="matrix(1 0 0 1 482.2945 29.0578)"><tspan x="0" y="0" class="st2 st3 st6">RF07:</tspan><tspan x="0" y="19.2" class="st2 st3 st6">Selecionar</tspan><tspan x="0" y="38.4" class="st2 st3 st6">Pagamento</tspan></text>
<ellipse class="st5" cx="557.4" cy="186.9" rx="59.8" ry="37.1"/>
<rect x="517.5" y="161.5" class="st1" width="158.4" height="62.6"/>
<text transform="matrix(1 0 0 1 517.5362 172.9935)"><tspan x="0" y="0" class="st2 st3 st6">RF04:</tspan><tspan x="0" y="19.2" class="st2 st3 st6">Consultar Cla</tspan><tspan x="0" y="38.4" class="st2 st3 st6">sse de voo</tspan></text>
<ellipse class="st5" cx="788.4" cy="186.8" rx="59.8" ry="37.1"/>
<rect x="748.5" y="161.5" class="st1" width="158.4" height="62.6"/>
<text transform="matrix(1 0 0 1 748.5362 172.9163)"><tspan x="0" y="0" class="st2 st3 st6">RF04:</tspan><tspan x="0" y="19.2" class="st2 st3 st6">Selecionar</tspan><tspan x="0" y="38.4" class="st2 st3 st6">Local</tspan></text>
<ellipse class="st5" cx="788.4" cy="306.9" rx="59.8" ry="37.1"/>
<rect x="748.5" y="281.6" class="st1" width="158.4" height="62.6"/>
<text transform="matrix(1 0 0 1 748.5362 293.0266)"><tspan x="0" y="0" class="st2 st3 st6">RF02:</tspan><tspan x="0" y="19.2" class="st2 st3 st6">Informar</tspan><tspan x="0" y="38.4" class="st2 st3 st6">Data</tspan></text>
<path class="st5" d="M557.4,339c-33,0-59.8-16.6-59.8-37.1s26.8-37.1,59.8-37.1s59.8,16.6,59.8,37.1"/>
<path class="st5" d="M617.3,301.9c0,20.5-26.8,37.1-59.8,37.1"/>
<rect x="517.5" y="276.5" class="st1" width="158.4" height="62.6"/>
<text transform="matrix(1 0 0 1 517.5362 288.001)"><tspan x="0" y="0" class="st2 st3 st6">RF03:</tspan><tspan x="0" y="19.2" class="st2 st3 st6">Consultar</tspan><tspan x="0" y="38.4" class="st2 st3 st6">Horários</tspan></text>
<line class="st0" x1="429.8" y1="105.5" x2="420.7" y2="112.6"/>
<line class="st0" x1="413.1" y1="118.6" x2="404" y2="125.8"/>
<line class="st0" x1="394.6" y1="133.1" x2="385.5" y2="140.3"/>
<line class="st0" x1="375.3" y1="148.3" x2="366.3" y2="155.4"/>
<line class="st0" x1="379.3" y1="162.5" x2="356.2" y2="163.4"/>
<line class="st0" x1="360.6" y1="138.7" x2="356.2" y2="163.4"/>
<line class="st0" x1="445.2" y1="94.6" x2="436.1" y2="101.8"/>
<line class="st0" x1="459.7" y1="84" x2="450.6" y2="91.2"/>
<line class="st0" x1="474.1" y1="73.1" x2="464.9" y2="80.2"/>
<text transform="matrix(1 0 0 1 379.2605 112.6413)" class="st7 st3 st4">&lt;&lt;extend&gt;&gt;</text>
<line class="st0" x1="427" y1="189.8" x2="438.6" y2="189.8"/>
<line class="st0" x1="403.5" y1="189.8" x2="415.1" y2="189.8"/>
<line class="st0" x1="379.1" y1="189.8" x2="390.6" y2="189.8"/>
<line class="st0" x1="366.2" y1="190" x2="382.5" y2="178.2"/>
<line class="st0" x1="366.2" y1="190" x2="382.5" y2="204.4"/>
<line class="st0" x1="449.4" y1="189.8" x2="461" y2="189.8"/>
<line class="st0" x1="474.1" y1="189.8" x2="485.7" y2="189.8"/>
<text transform="matrix(1 0 0 1 394.6109 183.0002)" class="st7 st3 st4">&lt;&lt;include&gt;&gt;</text>
<line class="st0" x1="409.5" y1="252" x2="419.2" y2="258.3"/>
<line class="st0" x1="389.8" y1="239.3" x2="399.5" y2="245.6"/>
<line class="st0" x1="369.3" y1="226" x2="378.9" y2="232.3"/>
<line class="st0" x1="358.3" y1="219.2" x2="378.4" y2="218.1"/>
<line class="st0" x1="358.3" y1="219.2" x2="364.1" y2="240.1"/>
<line class="st0" x1="428.2" y1="264.1" x2="438" y2="270.4"/>
<line class="st0" x1="449" y1="277.5" x2="458.7" y2="283.8"/>
<line class="st0" x1="465.6" y1="287.9" x2="475.4" y2="294.2"/>
<line class="st0" x1="481.8" y1="297.7" x2="491.5" y2="304"/>
<line class="st0" x1="665.8" y1="236.7" x2="675.5" y2="243"/>
<line class="st0" x1="646" y1="223.9" x2="655.8" y2="230.2"/>
<line class="st0" x1="625.5" y1="210.7" x2="635.2" y2="216.9"/>
<line class="st0" x1="614.6" y1="203.9" x2="634.7" y2="202.7"/>
<line class="st0" x1="614.6" y1="203.9" x2="620.4" y2="224.8"/>
<line class="st0" x1="684.5" y1="248.8" x2="694.2" y2="255.1"/>
<line class="st0" x1="705.2" y1="262.2" x2="715" y2="268.5"/>
<line class="st0" x1="721.9" y1="272.6" x2="731.6" y2="278.8"/>
<line class="st0" x1="679" y1="188.3" x2="690.6" y2="188.3"/>
<line class="st0" x1="655.5" y1="188.3" x2="667.1" y2="188.3"/>
<line class="st0" x1="631.1" y1="188.3" x2="642.6" y2="188.3"/>
<line class="st0" x1="618.2" y1="188.5" x2="634.5" y2="176.7"/>
<line class="st0" x1="618.2" y1="188.5" x2="634.5" y2="202.9"/>
<line class="st0" x1="701.4" y1="188.3" x2="713" y2="188.3"/>
<line class="st0" x1="726.1" y1="188.3" x2="728.6" y2="188.3"/>
<text transform="matrix(1 0 0 1 382.5001 270.4233)" class="st7 st3 st4">&lt;&lt;include&gt;&gt;</text>
<text transform="matrix(1 0 0 1 635.1813 252.0143)" class="st7 st3 st4">&lt;&lt;include&gt;&gt;</text>
<text transform="matrix(1 0 0 1 631.1415 178.3573)" class="st7 st3 st4">&lt;&lt;include&gt;&gt;</text>
</svg>
