<?xml version="1.0" encoding="utf-8"?>
<!-- Generator: Adobe Illustrator 21.0.0, SVG Export Plug-In . SVG Version: 6.00 Build 0)  -->
<svg version="1.1" id="Camada_1" xmlns="http://www.w3.org/2000/svg" xmlns:xlink="http://www.w3.org/1999/xlink" x="0px" y="0px"
	 viewBox="0 0 621 303" style="enable-background:new 0 0 621 303;" xml:space="preserve">
<style type="text/css">
	.st0{fill:none;stroke:#FFFFFF;stroke-width:2;stroke-miterlimit:10;}
	.st1{fill:none;stroke:#FFFFFF;stroke-miterlimit:10;}
	.st2{fill:none;}
	.st3{fill:#FFFFFF;}
	.st4{font-family:'ArialMT';}
	.st5{font-size:15px;}
	.st6{font-size:17px;}
</style>
<ellipse class="st0" cx="470.6" cy="247.7" rx="59.8" ry="37.1"/>
<line class="st1" x1="105.5" y1="104.4" x2="163.1" y2="209.5"/>
<path class="st0" d="M75.5,45.7c8.1,0,14.7-6.6,14.7-14.7s-6.6-14.7-14.7-14.7c-8.1,0-14.7,6.6-14.7,14.7S67.4,45.7,75.5,45.7z
	 M75.5,23.4c4.2,0,7.6,3.4,7.6,7.6c0,4.2-3.4,7.6-7.6,7.6c-4.2,0-7.6-3.4-7.6-7.6C67.9,26.8,71.3,23.4,75.5,23.4z M98.3,143.9
	c0,1.9-1.6,3.5-3.5,3.5h-9.5c0,0,0,0,0,0c-0.1,0-0.2,0-0.4,0c0,0,0,0,0,0c-0.1,0-0.2,0-0.3,0c0,0-0.1,0-0.1,0c-0.1,0-0.2,0-0.2-0.1
	c0,0-0.1,0-0.1,0c-0.1,0-0.1,0-0.2-0.1c0,0-0.1,0-0.1-0.1c-0.1,0-0.1-0.1-0.2-0.1c0,0-0.1,0-0.1-0.1c-0.1,0-0.1-0.1-0.1-0.1
	c0,0-0.1-0.1-0.1-0.1c0,0-0.1-0.1-0.1-0.1c0,0-0.1-0.1-0.1-0.1c0,0-0.1-0.1-0.1-0.1c0,0-0.1-0.1-0.1-0.1c0,0-0.1-0.1-0.1-0.1
	c0,0-0.1-0.1-0.1-0.1c0-0.1-0.1-0.1-0.1-0.2c0,0,0-0.1-0.1-0.1c0-0.1-0.1-0.1-0.1-0.2c-0.1-0.1-0.1-0.2-0.1-0.3c0,0,0-0.1-0.1-0.1
	c0-0.1-0.1-0.2-0.1-0.2c0,0,0-0.1,0-0.1c0-0.1,0-0.2-0.1-0.2c0,0,0-0.1,0-0.1c0-0.1,0-0.2,0-0.2c0,0,0-0.1,0-0.1l0-0.1c0,0,0,0,0,0
	l-8.8-69c-0.2-1.9,1.1-3.7,3.1-3.9c1.9-0.2,3.7,1.1,3.9,3.1l8.4,66.1h6.4C96.8,140.4,98.3,142,98.3,143.9z M106.1,103.8
	c-0.4,0.2-0.9,0.3-1.3,0.3c-1.4,0-2.7-0.8-3.3-2.2L90.4,74.2c-3.4-8.4-6.6-13.8-12-14.7c-1.7-0.3-13.5-0.2-15.2,0.1
	c-6.4,1.2-10.9,8.1-15,15.1l-0.1,0.2l7.2,18.6c0.7,1.8-0.2,3.9-2,4.6c-1.8,0.7-3.9-0.2-4.6-2l-7.8-20.2c-0.4-1-0.3-2.1,0.2-3l1-1.7
	c4.7-8,10.4-16.8,19.8-18.5c2.5-0.5,15.4-0.4,17.6-0.1c9.6,1.6,14,10.7,17.4,19L108,99.2C108.8,101,107.9,103,106.1,103.8z
	 M72.2,107.8l-11.1,32.6h4.6c1.9,0,3.5,1.6,3.5,3.5c0,1.9-1.6,3.5-3.5,3.5h-9.5c0,0,0,0,0,0c-0.1,0-0.2,0-0.3,0c0,0,0,0,0,0
	c-0.1,0-0.2,0-0.3,0c0,0-0.1,0-0.1,0c-0.1,0-0.1,0-0.2-0.1c0,0-0.1,0-0.1,0c0,0,0,0,0,0c0,0-0.1,0-0.1,0c-0.1,0-0.1,0-0.2-0.1
	c-0.1,0-0.1,0-0.2-0.1c-0.1,0-0.1,0-0.1-0.1c-0.1,0-0.1-0.1-0.2-0.1c0,0-0.1,0-0.1-0.1c-0.1,0-0.1-0.1-0.2-0.1c0,0-0.1,0-0.1-0.1
	c-0.1,0-0.1-0.1-0.2-0.2c0,0-0.1-0.1-0.1-0.1c0-0.1-0.1-0.1-0.1-0.2c0,0-0.1-0.1-0.1-0.1c0-0.1-0.1-0.1-0.1-0.2c0,0-0.1-0.1-0.1-0.1
	c0,0-0.1-0.1-0.1-0.1c0-0.1-0.1-0.1-0.1-0.2c0,0,0-0.1-0.1-0.1c0-0.1-0.1-0.1-0.1-0.2c0,0,0-0.1-0.1-0.1c0-0.1,0-0.1-0.1-0.2
	c0-0.1,0-0.1,0-0.2c0-0.1,0-0.1,0-0.2c0-0.1,0-0.1,0-0.2c0,0,0-0.1,0-0.1c0-0.1,0-0.2,0-0.2c0,0,0-0.1,0-0.1c0,0,0,0,0,0
	c0-0.1,0-0.1,0-0.2c0,0,0-0.1,0-0.1c0-0.1,0-0.1,0-0.2c0-0.1,0-0.1,0-0.2c0,0,0-0.1,0-0.1c0-0.1,0-0.2,0.1-0.2c0,0,0,0,0,0
	l12.6-37.3c0.6-1.8,2.6-2.8,4.5-2.2C71.8,103.9,72.8,105.9,72.2,107.8z"/>
<rect x="427.5" y="224.1" class="st2" width="158.4" height="62.6"/>
<text transform="matrix(1 0 0 1 427.4754 234.7978)"><tspan x="0" y="0" class="st3 st4 st5">Realziar Pag</tspan><tspan x="0" y="18" class="st3 st4 st5">Com </tspan><tspan x="0" y="36" class="st3 st4 st5">Dinheiro</tspan></text>
<rect x="45.7" y="158.3" class="st2" width="158.4" height="62.6"/>
<text transform="matrix(1 0 0 1 45.6952 170.4306)" class="st3 st4 st6">Cliente</text>
<ellipse class="st0" cx="163.1" cy="246.6" rx="59.8" ry="37.1"/>
<rect x="122.2" y="222.8" class="st2" width="158.4" height="62.6"/>
<text transform="matrix(1 0 0 1 122.1677 233.5654)"><tspan x="0" y="0" class="st3 st4 st5">Realizar Pag</tspan><tspan x="0" y="18" class="st3 st4 st5">Com Cartáo</tspan><tspan x="0" y="36" class="st3 st4 st5">de Crédito</tspan></text>
<ellipse class="st0" cx="312.5" cy="104.6" rx="59.8" ry="37.1"/>
<rect x="275.3" y="88.5" class="st2" width="158.4" height="62.6"/>
<text transform="matrix(1 0 0 1 275.2896 99.2345)"><tspan x="0" y="0" class="st3 st4 st5">  Realizar</tspan><tspan x="0" y="18" class="st3 st4 st5">Pagamento</tspan></text>
<line class="st1" x1="262.8" y1="149.1" x2="195" y2="215.3"/>
<line class="st1" x1="268" y1="153" x2="257.2" y2="141.9"/>
<line class="st1" x1="272.3" y1="138.1" x2="268" y2="153"/>
<line class="st1" x1="257.2" y1="141.9" x2="272.3" y2="138.1"/>
<line class="st1" x1="368.7" y1="147.2" x2="438.2" y2="214.5"/>
<line class="st1" x1="372.4" y1="141.9" x2="361.6" y2="153.1"/>
<line class="st1" x1="357.3" y1="138.1" x2="372.4" y2="141.9"/>
<line class="st1" x1="361.6" y1="153.1" x2="357.3" y2="138.1"/>
</svg>
