<?xml version="1.0" encoding="utf-8"?>
<!-- Generator: Adobe Illustrator 21.0.0, SVG Export Plug-In . SVG Version: 6.00 Build 0)  -->
<svg version="1.1" id="Camada_1" xmlns="http://www.w3.org/2000/svg" xmlns:xlink="http://www.w3.org/1999/xlink" x="0px" y="0px"
	 viewBox="0 0 621 422" style="enable-background:new 0 0 621 422;" xml:space="preserve">
<style type="text/css">
	.st0{fill:none;stroke:#FFFFFF;stroke-width:2;stroke-miterlimit:10;}
	.st1{fill:none;}
	.st2{fill:#FFFFFF;}
	.st3{font-family:'ArialMT';}
	.st4{font-size:17px;}
	.st5{fill:none;stroke:#FFFFFF;stroke-miterlimit:10;}
</style>
<ellipse class="st0" cx="423.6" cy="69" rx="59.8" ry="37.1"/>
<path class="st0" d="M128.8,54.3c8.1,0,14.7-6.6,14.7-14.7s-6.6-14.7-14.7-14.7c-8.1,0-14.7,6.6-14.7,14.7S120.7,54.3,128.8,54.3z
	 M128.8,31.9c4.2,0,7.6,3.4,7.6,7.6c0,4.2-3.4,7.6-7.6,7.6c-4.2,0-7.6-3.4-7.6-7.6C121.1,35.4,124.5,31.9,128.8,31.9z M151.6,152.5
	c0,1.9-1.6,3.5-3.5,3.5h-9.5c0,0,0,0,0,0c-0.1,0-0.2,0-0.4,0c0,0,0,0,0,0c-0.1,0-0.2,0-0.3,0c0,0-0.1,0-0.1,0c-0.1,0-0.2,0-0.2-0.1
	c0,0-0.1,0-0.1,0c-0.1,0-0.1,0-0.2-0.1c0,0-0.1,0-0.1-0.1c-0.1,0-0.1-0.1-0.2-0.1c0,0-0.1,0-0.1-0.1c-0.1,0-0.1-0.1-0.1-0.1
	c0,0-0.1-0.1-0.1-0.1c0,0-0.1-0.1-0.1-0.1c0,0-0.1-0.1-0.1-0.1c0,0-0.1-0.1-0.1-0.1c0,0-0.1-0.1-0.1-0.1c0,0-0.1-0.1-0.1-0.1
	c0,0-0.1-0.1-0.1-0.1c0-0.1-0.1-0.1-0.1-0.2c0,0,0-0.1-0.1-0.1c0-0.1-0.1-0.1-0.1-0.2c-0.1-0.1-0.1-0.2-0.1-0.3c0,0,0-0.1-0.1-0.1
	c0-0.1-0.1-0.2-0.1-0.2c0,0,0-0.1,0-0.1c0-0.1,0-0.2-0.1-0.2c0,0,0-0.1,0-0.1c0-0.1,0-0.2,0-0.2c0,0,0-0.1,0-0.1l0-0.1c0,0,0,0,0,0
	l-8.8-69c-0.2-1.9,1.1-3.7,3.1-3.9c1.9-0.2,3.7,1.1,3.9,3.1l8.4,66.1h6.4C150,148.9,151.6,150.5,151.6,152.5z M159.3,112.3
	c-0.4,0.2-0.9,0.3-1.3,0.3c-1.4,0-2.7-0.8-3.3-2.2l-11.1-27.6c-3.4-8.4-6.6-13.8-12-14.7c-1.7-0.3-13.5-0.2-15.2,0.1
	c-6.4,1.2-10.9,8.1-15,15.1l-0.1,0.2l7.2,18.6c0.7,1.8-0.2,3.9-2,4.6c-1.8,0.7-3.9-0.2-4.6-2l-7.8-20.2c-0.4-1-0.3-2.1,0.2-3l1-1.7
	c4.7-8,10.4-16.8,19.8-18.5c2.5-0.5,15.4-0.4,17.6-0.1c9.6,1.6,14,10.7,17.4,19l11.1,27.6C162,109.5,161.1,111.5,159.3,112.3z
	 M125.4,116.3l-11.1,32.6h4.6c1.9,0,3.5,1.6,3.5,3.5c0,1.9-1.6,3.5-3.5,3.5h-9.5c0,0,0,0,0,0c-0.1,0-0.2,0-0.3,0c0,0,0,0,0,0
	c-0.1,0-0.2,0-0.3,0c0,0-0.1,0-0.1,0c-0.1,0-0.1,0-0.2-0.1c0,0-0.1,0-0.1,0c0,0,0,0,0,0c0,0-0.1,0-0.1,0c-0.1,0-0.1,0-0.2-0.1
	c-0.1,0-0.1,0-0.2-0.1c-0.1,0-0.1,0-0.1-0.1c-0.1,0-0.1-0.1-0.2-0.1c0,0-0.1,0-0.1-0.1c-0.1,0-0.1-0.1-0.2-0.1c0,0-0.1,0-0.1-0.1
	c-0.1,0-0.1-0.1-0.2-0.2c0,0-0.1-0.1-0.1-0.1c0-0.1-0.1-0.1-0.1-0.2c0,0-0.1-0.1-0.1-0.1c0-0.1-0.1-0.1-0.1-0.2c0,0-0.1-0.1-0.1-0.1
	c0,0-0.1-0.1-0.1-0.1c0-0.1-0.1-0.1-0.1-0.2c0,0,0-0.1-0.1-0.1c0-0.1-0.1-0.1-0.1-0.2c0,0,0-0.1-0.1-0.1c0-0.1,0-0.1-0.1-0.2
	c0-0.1,0-0.1,0-0.2c0-0.1,0-0.1,0-0.2c0-0.1,0-0.1,0-0.2c0,0,0-0.1,0-0.1c0-0.1,0-0.2,0-0.2c0,0,0-0.1,0-0.1c0,0,0,0,0,0
	c0-0.1,0-0.1,0-0.2c0,0,0-0.1,0-0.1c0-0.1,0-0.1,0-0.2c0-0.1,0-0.1,0-0.2c0,0,0-0.1,0-0.1c0-0.1,0-0.2,0.1-0.2c0,0,0,0,0,0
	l12.6-37.3c0.6-1.8,2.6-2.8,4.5-2.2C125.1,112.5,126.1,114.5,125.4,116.3z"/>
<rect x="384.7" y="54.2" class="st1" width="158.4" height="62.6"/>
<text transform="matrix(1 0 0 1 384.6849 66.3748)"><tspan x="0" y="0" class="st2 st3 st4">Reservar</tspan><tspan x="0" y="20.4" class="st2 st3 st4">    Livro</tspan></text>
<rect x="98.9" y="166.8" class="st1" width="158.4" height="62.6"/>
<text transform="matrix(1 0 0 1 98.9471 178.9551)" class="st2 st3 st4">Usuário</text>
<path class="st0" d="M128.8,273.4c8.1,0,14.7-6.6,14.7-14.7s-6.6-14.7-14.7-14.7c-8.1,0-14.7,6.6-14.7,14.7
	C114.1,266.9,120.7,273.4,128.8,273.4z M128.8,251.1c4.2,0,7.6,3.4,7.6,7.6c0,4.2-3.4,7.6-7.6,7.6c-4.2,0-7.6-3.4-7.6-7.6
	C121.1,254.5,124.5,251.1,128.8,251.1z M151.6,371.6c0,1.9-1.6,3.5-3.5,3.5h-9.5c0,0,0,0,0,0c-0.1,0-0.2,0-0.4,0c0,0,0,0,0,0
	c-0.1,0-0.2,0-0.3,0c0,0-0.1,0-0.1,0c-0.1,0-0.2,0-0.2-0.1c0,0-0.1,0-0.1,0c-0.1,0-0.1,0-0.2-0.1c0,0-0.1,0-0.1-0.1
	c-0.1,0-0.1-0.1-0.2-0.1c0,0-0.1,0-0.1-0.1c-0.1,0-0.1-0.1-0.1-0.1c0,0-0.1-0.1-0.1-0.1c0,0-0.1-0.1-0.1-0.1c0,0-0.1-0.1-0.1-0.1
	c0,0-0.1-0.1-0.1-0.1c0,0-0.1-0.1-0.1-0.1c0,0-0.1-0.1-0.1-0.1c0,0-0.1-0.1-0.1-0.1c0-0.1-0.1-0.1-0.1-0.2c0,0,0-0.1-0.1-0.1
	c0-0.1-0.1-0.1-0.1-0.2c-0.1-0.1-0.1-0.2-0.1-0.3c0,0,0-0.1-0.1-0.1c0-0.1-0.1-0.2-0.1-0.2c0,0,0-0.1,0-0.1c0-0.1,0-0.2-0.1-0.2
	c0,0,0-0.1,0-0.1c0-0.1,0-0.2,0-0.2c0,0,0-0.1,0-0.1l0-0.1c0,0,0,0,0,0l-8.8-69c-0.2-1.9,1.1-3.7,3.1-3.9c1.9-0.2,3.7,1.1,3.9,3.1
	l8.4,66.1h6.4C150,368.1,151.6,369.7,151.6,371.6z M159.3,331.5c-0.4,0.2-0.9,0.3-1.3,0.3c-1.4,0-2.7-0.8-3.3-2.2l-11.1-27.6
	c-3.4-8.4-6.6-13.8-12-14.7c-1.7-0.3-13.5-0.2-15.2,0.1c-6.4,1.2-10.9,8.1-15,15.1l-0.1,0.2l7.2,18.6c0.7,1.8-0.2,3.9-2,4.6
	c-1.8,0.7-3.9-0.2-4.6-2l-7.8-20.2c-0.4-1-0.3-2.1,0.2-3l1-1.7c4.7-8,10.4-16.8,19.8-18.5c2.5-0.5,15.4-0.4,17.6-0.1
	c9.6,1.6,14,10.7,17.4,19l11.1,27.6C162,328.7,161.1,330.7,159.3,331.5z M125.4,335.5l-11.1,32.6h4.6c1.9,0,3.5,1.6,3.5,3.5
	s-1.6,3.5-3.5,3.5h-9.5c0,0,0,0,0,0c-0.1,0-0.2,0-0.3,0c0,0,0,0,0,0c-0.1,0-0.2,0-0.3,0c0,0-0.1,0-0.1,0c-0.1,0-0.1,0-0.2-0.1
	c0,0-0.1,0-0.1,0c0,0,0,0,0,0c0,0-0.1,0-0.1,0c-0.1,0-0.1,0-0.2-0.1c-0.1,0-0.1,0-0.2-0.1c-0.1,0-0.1,0-0.1-0.1
	c-0.1,0-0.1-0.1-0.2-0.1c0,0-0.1,0-0.1-0.1c-0.1,0-0.1-0.1-0.2-0.1c0,0-0.1,0-0.1-0.1c-0.1,0-0.1-0.1-0.2-0.2c0,0-0.1-0.1-0.1-0.1
	c0-0.1-0.1-0.1-0.1-0.2c0,0-0.1-0.1-0.1-0.1c0-0.1-0.1-0.1-0.1-0.2c0,0-0.1-0.1-0.1-0.1c0,0-0.1-0.1-0.1-0.1c0-0.1-0.1-0.1-0.1-0.2
	c0,0,0-0.1-0.1-0.1c0-0.1-0.1-0.1-0.1-0.2c0,0,0-0.1-0.1-0.1c0-0.1,0-0.1-0.1-0.2c0-0.1,0-0.1,0-0.2c0-0.1,0-0.1,0-0.2
	c0-0.1,0-0.1,0-0.2c0,0,0-0.1,0-0.1c0-0.1,0-0.2,0-0.2c0,0,0-0.1,0-0.1c0,0,0,0,0,0c0-0.1,0-0.1,0-0.2c0,0,0-0.1,0-0.1
	c0-0.1,0-0.1,0-0.2c0-0.1,0-0.1,0-0.2c0,0,0-0.1,0-0.1c0-0.1,0-0.2,0.1-0.2c0,0,0,0,0,0l12.6-37.3c0.6-1.8,2.6-2.8,4.5-2.2
	C125.1,331.6,126.1,333.6,125.4,335.5z"/>
<rect x="98.9" y="386" class="st1" width="158.4" height="62.6"/>
<text transform="matrix(1 0 0 1 98.9471 398.1302)" class="st2 st3 st4">Professor</text>
<line class="st5" x1="127.8" y1="195" x2="127.8" y2="243.4"/>
<line class="st5" x1="136.5" y1="195.1" x2="121" y2="195.1"/>
<line class="st5" x1="128.7" y1="181.6" x2="136.5" y2="195.1"/>
<line class="st5" x1="121" y1="195.1" x2="128.7" y2="181.6"/>
<ellipse class="st0" cx="423.6" cy="157.9" rx="59.8" ry="37.1"/>
<rect x="389.7" y="142.2" class="st1" width="158.4" height="62.6"/>
<text transform="matrix(1 0 0 1 389.6849 154.3273)"><tspan x="0" y="0" class="st2 st3 st4">Devolver</tspan><tspan x="0" y="20.4" class="st2 st3 st4">   Livro</tspan></text>
<line class="st5" x1="161.3" y1="107.7" x2="363.8" y2="69"/>
<line class="st5" x1="363.8" y1="166.8" x2="161.3" y2="107.7"/>
<ellipse class="st0" cx="423.6" cy="332.9" rx="59.8" ry="37.1"/>
<rect x="390.7" y="307.6" class="st1" width="158.4" height="62.6"/>
<text transform="matrix(1 0 0 1 390.6849 319.787)"><tspan x="0" y="0" class="st2 st3 st4">Solicitar</tspan><tspan x="0" y="20.4" class="st2 st3 st4">Compra de</tspan><tspan x="0" y="40.8" class="st2 st3 st4">Título</tspan></text>
<line class="st5" x1="363.8" y1="332.9" x2="159.3" y2="332.9"/>
</svg>
