<?xml version="1.0" encoding="utf-8"?>
<!-- Generator: Adobe Illustrator 21.0.0, SVG Export Plug-In . SVG Version: 6.00 Build 0)  -->
<svg version="1.1" id="Camada_1" xmlns="http://www.w3.org/2000/svg" xmlns:xlink="http://www.w3.org/1999/xlink" x="0px" y="0px"
	 viewBox="0 0 621 406" style="enable-background:new 0 0 621 406;" xml:space="preserve">
<style type="text/css">
	.st0{fill:none;stroke:#FFFFFF;stroke-width:2;stroke-miterlimit:10;}
	.st1{fill:none;}
	.st2{fill:#FFFFFF;stroke:#FFFFFF;stroke-width:0.25;stroke-miterlimit:10;}
	.st3{font-family:'ArialMT';}
	.st4{font-size:17px;}
</style>
<path class="st0" d="M65.8,40.1c6,0,10.8-4.9,10.8-10.8s-4.9-10.8-10.8-10.8c-6,0-10.8,4.9-10.8,10.8S59.9,40.1,65.8,40.1z
	 M65.8,23.6c3.1,0,5.6,2.5,5.6,5.6c0,3.1-2.5,5.6-5.6,5.6c-3.1,0-5.6-2.5-5.6-5.6C60.2,26.2,62.7,23.6,65.8,23.6z M82.7,112.5
	c0,1.4-1.2,2.6-2.6,2.6h-7c0,0,0,0,0,0c-0.1,0-0.2,0-0.3,0c0,0,0,0,0,0c-0.1,0-0.2,0-0.2,0c0,0,0,0-0.1,0c-0.1,0-0.1,0-0.2,0
	c0,0-0.1,0-0.1,0c0,0-0.1,0-0.1-0.1c0,0-0.1,0-0.1,0c0,0-0.1,0-0.1-0.1c0,0-0.1,0-0.1-0.1c0,0-0.1,0-0.1-0.1c0,0-0.1,0-0.1-0.1
	c0,0-0.1-0.1-0.1-0.1c0,0-0.1,0-0.1-0.1c0,0-0.1-0.1-0.1-0.1c0,0-0.1,0-0.1-0.1c0,0-0.1-0.1-0.1-0.1c0,0,0,0-0.1-0.1
	c0,0-0.1-0.1-0.1-0.1c0,0,0,0-0.1-0.1c0,0-0.1-0.1-0.1-0.1c0-0.1-0.1-0.1-0.1-0.2c0,0,0-0.1,0-0.1c0-0.1,0-0.1-0.1-0.2
	c0,0,0,0,0-0.1c0-0.1,0-0.1,0-0.2c0,0,0,0,0-0.1c0-0.1,0-0.1,0-0.2c0,0,0,0,0-0.1l0,0c0,0,0,0,0,0L64,61.9c-0.2-1.4,0.8-2.7,2.2-2.9
	c1.4-0.2,2.7,0.8,2.9,2.2l6.2,48.7h4.7C81.5,109.9,82.7,111.1,82.7,112.5z M88.4,82.9c-0.3,0.1-0.6,0.2-1,0.2c-1,0-2-0.6-2.4-1.6
	l-8.2-20.4c-2.5-6.2-4.8-10.2-8.9-10.8c-1.3-0.2-10-0.2-11.2,0c-4.7,0.9-8,6-11,11.1l-0.1,0.2l5.3,13.7c0.5,1.3-0.1,2.8-1.5,3.4
	c-1.3,0.5-2.8-0.1-3.4-1.5l-5.7-14.9c-0.3-0.7-0.2-1.6,0.2-2.2l0.7-1.2c3.4-5.9,7.7-12.4,14.6-13.6c1.9-0.3,11.4-0.3,13-0.1
	c7.1,1.2,10.4,7.9,12.8,14l8.2,20.4C90.3,80.8,89.7,82.3,88.4,82.9z M63.4,85.8l-8.2,24.1h3.4c1.4,0,2.6,1.2,2.6,2.6
	s-1.2,2.6-2.6,2.6h-7c0,0,0,0,0,0c-0.1,0-0.2,0-0.3,0c0,0,0,0,0,0c-0.1,0-0.1,0-0.2,0c0,0,0,0-0.1,0c-0.1,0-0.1,0-0.2,0
	c0,0-0.1,0-0.1,0c0,0,0,0,0,0c0,0,0,0-0.1,0c0,0-0.1,0-0.1-0.1c0,0-0.1,0-0.1-0.1c0,0-0.1,0-0.1-0.1c0,0-0.1-0.1-0.1-0.1
	c0,0-0.1,0-0.1-0.1c0,0-0.1-0.1-0.1-0.1c0,0,0,0-0.1-0.1c0,0-0.1-0.1-0.1-0.1c0,0,0,0-0.1-0.1c0,0-0.1-0.1-0.1-0.1c0,0,0,0-0.1-0.1
	c0,0-0.1-0.1-0.1-0.1c0,0,0-0.1-0.1-0.1c0,0,0-0.1-0.1-0.1c0,0,0-0.1-0.1-0.1c0,0,0-0.1,0-0.1c0,0,0-0.1-0.1-0.1c0,0,0-0.1,0-0.1
	c0,0,0-0.1,0-0.1c0,0,0-0.1,0-0.1c0,0,0-0.1,0-0.1c0,0,0-0.1,0-0.1c0,0,0-0.1,0-0.1c0-0.1,0-0.1,0-0.2c0,0,0,0,0-0.1c0,0,0,0,0,0
	c0-0.1,0-0.1,0-0.2c0,0,0-0.1,0-0.1c0,0,0-0.1,0-0.1c0,0,0-0.1,0-0.1c0,0,0-0.1,0-0.1c0-0.1,0-0.1,0.1-0.2c0,0,0,0,0,0l9.3-27.5
	c0.5-1.4,1.9-2.1,3.3-1.6C63.1,83,63.8,84.5,63.4,85.8z"/>
<rect x="19.8" y="127.1" class="st1" width="158.4" height="62.6"/>
<text transform="matrix(1 0 0 1 19.8107 139.226)" class="st2 st3 st4">Funcionários</text>
<path class="st0" d="M65.8,286.1c6,0,10.8-4.9,10.8-10.8c0-6-4.9-10.8-10.8-10.8c-6,0-10.8,4.9-10.8,10.8S59.9,286.1,65.8,286.1z
	 M65.8,269.7c3.1,0,5.6,2.5,5.6,5.6c0,3.1-2.5,5.6-5.6,5.6c-3.1,0-5.6-2.5-5.6-5.6C60.2,272.2,62.7,269.7,65.8,269.7z M82.7,358.5
	c0,1.4-1.2,2.6-2.6,2.6h-7c0,0,0,0,0,0c-0.1,0-0.2,0-0.3,0c0,0,0,0,0,0c-0.1,0-0.2,0-0.2,0c0,0,0,0-0.1,0c-0.1,0-0.1,0-0.2,0
	c0,0-0.1,0-0.1,0c0,0-0.1,0-0.1-0.1c0,0-0.1,0-0.1,0c0,0-0.1,0-0.1-0.1c0,0-0.1,0-0.1-0.1c0,0-0.1,0-0.1-0.1c0,0-0.1,0-0.1-0.1
	c0,0-0.1-0.1-0.1-0.1c0,0-0.1,0-0.1-0.1c0,0-0.1-0.1-0.1-0.1c0,0-0.1,0-0.1-0.1c0,0-0.1-0.1-0.1-0.1c0,0,0,0-0.1-0.1
	c0,0-0.1-0.1-0.1-0.1c0,0,0,0-0.1-0.1c0,0-0.1-0.1-0.1-0.1c0-0.1-0.1-0.1-0.1-0.2c0,0,0-0.1,0-0.1c0-0.1,0-0.1-0.1-0.2
	c0,0,0,0,0-0.1c0-0.1,0-0.1,0-0.2c0,0,0,0,0-0.1c0-0.1,0-0.1,0-0.2c0,0,0,0,0-0.1l0,0c0,0,0,0,0,0L64,307.9
	c-0.2-1.4,0.8-2.7,2.2-2.9c1.4-0.2,2.7,0.8,2.9,2.2l6.2,48.7h4.7C81.5,355.9,82.7,357.1,82.7,358.5z M88.4,328.9
	c-0.3,0.1-0.6,0.2-1,0.2c-1,0-2-0.6-2.4-1.6l-8.2-20.4c-2.5-6.2-4.8-10.2-8.9-10.8c-1.3-0.2-10-0.2-11.2,0c-4.7,0.9-8,6-11,11.1
	l-0.1,0.2l5.3,13.7c0.5,1.3-0.1,2.8-1.5,3.4c-1.3,0.5-2.8-0.1-3.4-1.5l-5.7-14.9c-0.3-0.7-0.2-1.6,0.2-2.2l0.7-1.2
	c3.4-5.9,7.7-12.4,14.6-13.6c1.9-0.3,11.4-0.3,13-0.1c7.1,1.2,10.4,7.9,12.8,14l8.2,20.4C90.3,326.9,89.7,328.4,88.4,328.9z
	 M63.4,331.9l-8.2,24.1h3.4c1.4,0,2.6,1.2,2.6,2.6s-1.2,2.6-2.6,2.6h-7c0,0,0,0,0,0c-0.1,0-0.2,0-0.3,0c0,0,0,0,0,0
	c-0.1,0-0.1,0-0.2,0c0,0,0,0-0.1,0c-0.1,0-0.1,0-0.2,0c0,0-0.1,0-0.1,0c0,0,0,0,0,0c0,0,0,0-0.1,0c0,0-0.1,0-0.1-0.1
	c0,0-0.1,0-0.1-0.1c0,0-0.1,0-0.1-0.1c0,0-0.1-0.1-0.1-0.1c0,0-0.1,0-0.1-0.1c0,0-0.1-0.1-0.1-0.1c0,0,0,0-0.1-0.1
	c0,0-0.1-0.1-0.1-0.1c0,0,0,0-0.1-0.1c0,0-0.1-0.1-0.1-0.1c0,0,0,0-0.1-0.1c0,0-0.1-0.1-0.1-0.1c0,0,0-0.1-0.1-0.1
	c0,0,0-0.1-0.1-0.1c0,0,0-0.1-0.1-0.1c0,0,0-0.1,0-0.1c0,0,0-0.1-0.1-0.1c0,0,0-0.1,0-0.1c0,0,0-0.1,0-0.1c0,0,0-0.1,0-0.1
	c0,0,0-0.1,0-0.1c0,0,0-0.1,0-0.1c0,0,0-0.1,0-0.1c0-0.1,0-0.1,0-0.2c0,0,0,0,0-0.1c0,0,0,0,0,0c0-0.1,0-0.1,0-0.2c0,0,0-0.1,0-0.1
	c0,0,0-0.1,0-0.1c0,0,0-0.1,0-0.1c0,0,0-0.1,0-0.1c0-0.1,0-0.1,0.1-0.2c0,0,0,0,0,0l9.3-27.5c0.5-1.4,1.9-2.1,3.3-1.6
	C63.1,329,63.8,330.5,63.4,331.9z"/>
<rect x="34.8" y="373.1" class="st1" width="158.4" height="62.6"/>
<text transform="matrix(1 0 0 1 34.8107 385.2618)" class="st2 st3 st4">Gerente</text>
<path class="st0" d="M457.9,39.6c6,0,10.8-4.9,10.8-10.8s-4.9-10.8-10.8-10.8c-6,0-10.8,4.9-10.8,10.8S451.9,39.6,457.9,39.6z
	 M457.9,23.1c3.1,0,5.6,2.5,5.6,5.6c0,3.1-2.5,5.6-5.6,5.6c-3.1,0-5.6-2.5-5.6-5.6C452.3,25.6,454.8,23.1,457.9,23.1z M474.8,111.9
	c0,1.4-1.2,2.6-2.6,2.6h-7c0,0,0,0,0,0c-0.1,0-0.2,0-0.3,0c0,0,0,0,0,0c-0.1,0-0.2,0-0.2,0c0,0,0,0-0.1,0c-0.1,0-0.1,0-0.2,0
	c0,0-0.1,0-0.1,0c0,0-0.1,0-0.1-0.1c0,0-0.1,0-0.1,0c0,0-0.1,0-0.1-0.1c0,0-0.1,0-0.1-0.1c0,0-0.1,0-0.1-0.1c0,0-0.1,0-0.1-0.1
	c0,0-0.1-0.1-0.1-0.1c0,0-0.1,0-0.1-0.1c0,0-0.1-0.1-0.1-0.1c0,0-0.1,0-0.1-0.1c0,0-0.1-0.1-0.1-0.1c0,0,0,0-0.1-0.1
	c0,0-0.1-0.1-0.1-0.1c0,0,0,0-0.1-0.1c0,0-0.1-0.1-0.1-0.1c0-0.1-0.1-0.1-0.1-0.2c0,0,0-0.1,0-0.1c0-0.1,0-0.1-0.1-0.2
	c0,0,0,0,0-0.1c0-0.1,0-0.1,0-0.2c0,0,0,0,0-0.1c0-0.1,0-0.1,0-0.2c0,0,0,0,0-0.1l0,0c0,0,0,0,0,0l-6.5-50.9
	c-0.2-1.4,0.8-2.7,2.2-2.9c1.4-0.2,2.7,0.8,2.9,2.2l6.2,48.7h4.7C473.6,109.3,474.8,110.5,474.8,111.9z M480.5,82.3
	c-0.3,0.1-0.6,0.2-1,0.2c-1,0-2-0.6-2.4-1.6l-8.2-20.4c-2.5-6.2-4.8-10.2-8.9-10.8c-1.3-0.2-10-0.2-11.2,0c-4.7,0.9-8,6-11,11.1
	l-0.1,0.2l5.3,13.7c0.5,1.3-0.1,2.8-1.5,3.4c-1.3,0.5-2.8-0.1-3.4-1.5l-5.7-14.9c-0.3-0.7-0.2-1.6,0.2-2.2l0.7-1.2
	c3.4-5.9,7.7-12.4,14.6-13.6c1.9-0.3,11.4-0.3,13-0.1c7.1,1.2,10.4,7.9,12.8,14l8.2,20.4C482.4,80.3,481.8,81.8,480.5,82.3z
	 M455.5,85.3l-8.2,24.1h3.4c1.4,0,2.6,1.2,2.6,2.6s-1.2,2.6-2.6,2.6h-7c0,0,0,0,0,0c-0.1,0-0.2,0-0.3,0c0,0,0,0,0,0
	c-0.1,0-0.1,0-0.2,0c0,0,0,0-0.1,0c-0.1,0-0.1,0-0.2,0c0,0-0.1,0-0.1,0c0,0,0,0,0,0c0,0,0,0-0.1,0c0,0-0.1,0-0.1-0.1
	c0,0-0.1,0-0.1-0.1c0,0-0.1,0-0.1-0.1c0,0-0.1-0.1-0.1-0.1c0,0-0.1,0-0.1-0.1c0,0-0.1-0.1-0.1-0.1c0,0,0,0-0.1-0.1
	c0,0-0.1-0.1-0.1-0.1c0,0,0,0-0.1-0.1c0,0-0.1-0.1-0.1-0.1c0,0,0,0-0.1-0.1c0,0-0.1-0.1-0.1-0.1c0,0,0-0.1-0.1-0.1
	c0,0,0-0.1-0.1-0.1c0,0,0-0.1-0.1-0.1c0,0,0-0.1,0-0.1c0,0,0-0.1-0.1-0.1c0,0,0-0.1,0-0.1c0,0,0-0.1,0-0.1c0,0,0-0.1,0-0.1
	c0,0,0-0.1,0-0.1c0,0,0-0.1,0-0.1c0,0,0-0.1,0-0.1c0-0.1,0-0.1,0-0.2c0,0,0,0,0-0.1c0,0,0,0,0,0c0-0.1,0-0.1,0-0.2c0,0,0-0.1,0-0.1
	c0,0,0-0.1,0-0.1c0,0,0-0.1,0-0.1c0,0,0-0.1,0-0.1c0-0.1,0-0.1,0.1-0.2c0,0,0,0,0,0l9.3-27.5c0.5-1.4,1.9-2.1,3.3-1.6
	C455.2,82.5,455.9,83.9,455.5,85.3z"/>
<rect x="426.9" y="126.5" class="st1" width="158.4" height="62.6"/>
<text transform="matrix(1 0 0 1 426.8975 138.6711)" class="st2 st3 st4">Cliente</text>
<path class="st0" d="M358.2,286.1c6,0,10.8-4.9,10.8-10.8c0-6-4.9-10.8-10.8-10.8c-6,0-10.8,4.9-10.8,10.8S352.2,286.1,358.2,286.1z
	 M358.2,269.7c3.1,0,5.6,2.5,5.6,5.6c0,3.1-2.5,5.6-5.6,5.6c-3.1,0-5.6-2.5-5.6-5.6C352.5,272.2,355.1,269.7,358.2,269.7z
	 M375,358.5c0,1.4-1.2,2.6-2.6,2.6h-7c0,0,0,0,0,0c-0.1,0-0.2,0-0.3,0c0,0,0,0,0,0c-0.1,0-0.2,0-0.2,0c0,0,0,0-0.1,0
	c-0.1,0-0.1,0-0.2,0c0,0-0.1,0-0.1,0c0,0-0.1,0-0.1-0.1c0,0-0.1,0-0.1,0c0,0-0.1,0-0.1-0.1c0,0-0.1,0-0.1-0.1c0,0-0.1,0-0.1-0.1
	c0,0-0.1,0-0.1-0.1c0,0-0.1-0.1-0.1-0.1c0,0-0.1,0-0.1-0.1c0,0-0.1-0.1-0.1-0.1c0,0-0.1,0-0.1-0.1c0,0-0.1-0.1-0.1-0.1
	c0,0,0,0-0.1-0.1c0,0-0.1-0.1-0.1-0.1c0,0,0,0-0.1-0.1c0,0-0.1-0.1-0.1-0.1c0-0.1-0.1-0.1-0.1-0.2c0,0,0-0.1,0-0.1
	c0-0.1,0-0.1-0.1-0.2c0,0,0,0,0-0.1c0-0.1,0-0.1,0-0.2c0,0,0,0,0-0.1c0-0.1,0-0.1,0-0.2c0,0,0,0,0-0.1l0,0c0,0,0,0,0,0l-6.5-50.9
	c-0.2-1.4,0.8-2.7,2.2-2.9c1.4-0.2,2.7,0.8,2.9,2.2l6.2,48.7h4.7C373.8,355.9,375,357.1,375,358.5z M380.7,328.9
	c-0.3,0.1-0.6,0.2-1,0.2c-1,0-2-0.6-2.4-1.6l-8.2-20.4c-2.5-6.2-4.8-10.2-8.9-10.8c-1.3-0.2-10-0.2-11.2,0c-4.7,0.9-8,6-11,11.1
	l-0.1,0.2l5.3,13.7c0.5,1.3-0.1,2.8-1.5,3.4c-1.3,0.5-2.8-0.1-3.4-1.5l-5.7-14.9c-0.3-0.7-0.2-1.6,0.2-2.2l0.7-1.2
	c3.4-5.9,7.7-12.4,14.6-13.6c1.9-0.3,11.4-0.3,13-0.1c7.1,1.2,10.4,7.9,12.8,14l8.2,20.4C382.7,326.9,382,328.4,380.7,328.9z
	 M355.7,331.9l-8.2,24.1h3.4c1.4,0,2.6,1.2,2.6,2.6s-1.2,2.6-2.6,2.6h-7c0,0,0,0,0,0c-0.1,0-0.2,0-0.3,0c0,0,0,0,0,0
	c-0.1,0-0.1,0-0.2,0c0,0,0,0-0.1,0c-0.1,0-0.1,0-0.2,0c0,0-0.1,0-0.1,0c0,0,0,0,0,0c0,0,0,0-0.1,0c0,0-0.1,0-0.1-0.1
	c0,0-0.1,0-0.1-0.1c0,0-0.1,0-0.1-0.1c0,0-0.1-0.1-0.1-0.1c0,0-0.1,0-0.1-0.1c0,0-0.1-0.1-0.1-0.1c0,0,0,0-0.1-0.1
	c0,0-0.1-0.1-0.1-0.1c0,0,0,0-0.1-0.1c0,0-0.1-0.1-0.1-0.1c0,0,0,0-0.1-0.1c0,0-0.1-0.1-0.1-0.1c0,0,0-0.1-0.1-0.1
	c0,0,0-0.1-0.1-0.1c0,0,0-0.1-0.1-0.1c0,0,0-0.1,0-0.1c0,0,0-0.1-0.1-0.1c0,0,0-0.1,0-0.1c0,0,0-0.1,0-0.1c0,0,0-0.1,0-0.1
	c0,0,0-0.1,0-0.1c0,0,0-0.1,0-0.1c0,0,0-0.1,0-0.1c0-0.1,0-0.1,0-0.2c0,0,0,0,0-0.1c0,0,0,0,0,0c0-0.1,0-0.1,0-0.2c0,0,0-0.1,0-0.1
	c0,0,0-0.1,0-0.1c0,0,0-0.1,0-0.1c0,0,0-0.1,0-0.1c0-0.1,0-0.1,0.1-0.2c0,0,0,0,0,0l9.3-27.5c0.5-1.4,1.9-2.1,3.3-1.6
	C355.4,329,356.2,330.5,355.7,331.9z"/>
<rect x="303.1" y="373.1" class="st1" width="158.4" height="62.6"/>
<text transform="matrix(1 0 0 1 303.1319 385.2618)" class="st2 st3 st4">Pessoa Física</text>
<path class="st0" d="M554.2,286.1c6,0,10.8-4.9,10.8-10.8c0-6-4.9-10.8-10.8-10.8c-6,0-10.8,4.9-10.8,10.8S548.2,286.1,554.2,286.1z
	 M554.2,269.7c3.1,0,5.6,2.5,5.6,5.6c0,3.1-2.5,5.6-5.6,5.6c-3.1,0-5.6-2.5-5.6-5.6C548.5,272.2,551.1,269.7,554.2,269.7z
	 M571,358.5c0,1.4-1.2,2.6-2.6,2.6h-7c0,0,0,0,0,0c-0.1,0-0.2,0-0.3,0c0,0,0,0,0,0c-0.1,0-0.2,0-0.2,0c0,0,0,0-0.1,0
	c-0.1,0-0.1,0-0.2,0c0,0-0.1,0-0.1,0c0,0-0.1,0-0.1-0.1c0,0-0.1,0-0.1,0c0,0-0.1,0-0.1-0.1c0,0-0.1,0-0.1-0.1c0,0-0.1,0-0.1-0.1
	c0,0-0.1,0-0.1-0.1c0,0-0.1-0.1-0.1-0.1c0,0-0.1,0-0.1-0.1c0,0-0.1-0.1-0.1-0.1c0,0-0.1,0-0.1-0.1c0,0-0.1-0.1-0.1-0.1
	c0,0,0,0-0.1-0.1c0,0-0.1-0.1-0.1-0.1c0,0,0,0-0.1-0.1c0,0-0.1-0.1-0.1-0.1c0-0.1-0.1-0.1-0.1-0.2c0,0,0-0.1,0-0.1
	c0-0.1,0-0.1-0.1-0.2c0,0,0,0,0-0.1c0-0.1,0-0.1,0-0.2c0,0,0,0,0-0.1c0-0.1,0-0.1,0-0.2c0,0,0,0,0-0.1l0,0c0,0,0,0,0,0l-6.5-50.9
	c-0.2-1.4,0.8-2.7,2.2-2.9c1.4-0.2,2.7,0.8,2.9,2.2l6.2,48.7h4.7C569.8,355.9,571,357.1,571,358.5z M576.7,328.9
	c-0.3,0.1-0.6,0.2-1,0.2c-1,0-2-0.6-2.4-1.6l-8.2-20.4c-2.5-6.2-4.8-10.2-8.9-10.8c-1.3-0.2-10-0.2-11.2,0c-4.7,0.9-8,6-11,11.1
	l-0.1,0.2l5.3,13.7c0.5,1.3-0.1,2.8-1.5,3.4c-1.3,0.5-2.8-0.1-3.4-1.5l-5.7-14.9c-0.3-0.7-0.2-1.6,0.2-2.2l0.7-1.2
	c3.4-5.9,7.7-12.4,14.6-13.6c1.9-0.3,11.4-0.3,13-0.1c7.1,1.2,10.4,7.9,12.8,14l8.2,20.4C578.7,326.9,578,328.4,576.7,328.9z
	 M551.7,331.9l-8.2,24.1h3.4c1.4,0,2.6,1.2,2.6,2.6s-1.2,2.6-2.6,2.6h-7c0,0,0,0,0,0c-0.1,0-0.2,0-0.3,0c0,0,0,0,0,0
	c-0.1,0-0.1,0-0.2,0c0,0,0,0-0.1,0c-0.1,0-0.1,0-0.2,0c0,0-0.1,0-0.1,0c0,0,0,0,0,0c0,0,0,0-0.1,0c0,0-0.1,0-0.1-0.1
	c0,0-0.1,0-0.1-0.1c0,0-0.1,0-0.1-0.1c0,0-0.1-0.1-0.1-0.1c0,0-0.1,0-0.1-0.1c0,0-0.1-0.1-0.1-0.1c0,0,0,0-0.1-0.1
	c0,0-0.1-0.1-0.1-0.1c0,0,0,0-0.1-0.1c0,0-0.1-0.1-0.1-0.1c0,0,0,0-0.1-0.1c0,0-0.1-0.1-0.1-0.1c0,0,0-0.1-0.1-0.1
	c0,0,0-0.1-0.1-0.1c0,0,0-0.1-0.1-0.1c0,0,0-0.1,0-0.1c0,0,0-0.1-0.1-0.1c0,0,0-0.1,0-0.1c0,0,0-0.1,0-0.1c0,0,0-0.1,0-0.1
	c0,0,0-0.1,0-0.1c0,0,0-0.1,0-0.1c0,0,0-0.1,0-0.1c0-0.1,0-0.1,0-0.2c0,0,0,0,0-0.1c0,0,0,0,0,0c0-0.1,0-0.1,0-0.2c0,0,0-0.1,0-0.1
	c0,0,0-0.1,0-0.1c0,0,0-0.1,0-0.1c0,0,0-0.1,0-0.1c0-0.1,0-0.1,0.1-0.2c0,0,0,0,0,0l9.3-27.5c0.5-1.4,1.9-2.1,3.3-1.6
	C551.4,329,552.2,330.5,551.7,331.9z"/>
<rect x="498.1" y="373.1" class="st1" width="158.4" height="62.6"/>
<text transform="matrix(1 0 0 1 498.1319 385.2618)" class="st2 st3 st4">Pessoa Jurídica</text>
<line class="st0" x1="432.2" y1="195" x2="357.4" y2="195"/>
<line class="st0" x1="431.2" y1="164" x2="431.2" y2="196"/>
<line class="st0" x1="358.4" y1="195" x2="358.4" y2="227"/>
<line class="st0" x1="422.5" y1="164" x2="440" y2="164"/>
<line class="st0" x1="431.3" y1="153.3" x2="422.5" y2="164"/>
<line class="st0" x1="440" y1="164" x2="431.3" y2="153.3"/>
<line class="st0" x1="470.5" y1="195" x2="545.3" y2="195"/>
<line class="st0" x1="471.5" y1="164" x2="471.5" y2="196"/>
<line class="st0" x1="544.3" y1="195" x2="544.3" y2="227"/>
<line class="st0" x1="480.2" y1="164" x2="462.7" y2="164"/>
<line class="st0" x1="471.5" y1="153.3" x2="480.2" y2="164"/>
<line class="st0" x1="462.7" y1="164" x2="471.5" y2="153.3"/>
</svg>
