<?xml version="1.0" encoding="utf-8"?>
<!-- Generator: Adobe Illustrator 21.0.0, SVG Export Plug-In . SVG Version: 6.00 Build 0)  -->
<svg version="1.1" id="Camada_1" xmlns="http://www.w3.org/2000/svg" xmlns:xlink="http://www.w3.org/1999/xlink" x="0px" y="0px"
	 viewBox="0 0 621 253" style="enable-background:new 0 0 621 253;" xml:space="preserve">
<style type="text/css">
	.st0{fill:none;stroke:#FFFFFF;stroke-width:2;stroke-miterlimit:10;}
	.st1{fill:none;}
	.st2{fill:#FFFFFF;stroke:#FFFFFF;stroke-width:0.25;stroke-miterlimit:10;}
	.st3{font-family:'ArialMT';}
	.st4{font-size:17px;}
	.st5{fill:none;stroke:#FFFFFF;stroke-miterlimit:10;}
	.st6{fill:#FFFFFF;}
</style>
<path class="st0" d="M86.2,95.7c8.1,0,14.6-6.6,14.6-14.6s-6.6-14.6-14.6-14.6c-8.1,0-14.6,6.6-14.6,14.6S78.1,95.7,86.2,95.7z
	 M86.2,73.5c4.2,0,7.6,3.4,7.6,7.6c0,4.2-3.4,7.6-7.6,7.6c-4.2,0-7.6-3.4-7.6-7.6C78.6,76.9,82,73.5,86.2,73.5z M108.9,193.5
	c0,1.9-1.6,3.5-3.5,3.5h-9.5c0,0,0,0,0,0c-0.1,0-0.2,0-0.4,0c0,0,0,0,0,0c-0.1,0-0.2,0-0.3,0c0,0-0.1,0-0.1,0c-0.1,0-0.2,0-0.2-0.1
	c0,0-0.1,0-0.1,0c-0.1,0-0.1,0-0.2-0.1c0,0-0.1,0-0.1-0.1c-0.1,0-0.1-0.1-0.2-0.1c0,0-0.1,0-0.1-0.1c-0.1,0-0.1-0.1-0.1-0.1
	c0,0-0.1-0.1-0.1-0.1c0,0-0.1-0.1-0.1-0.1c0,0-0.1-0.1-0.1-0.1c0,0-0.1-0.1-0.1-0.1c0,0-0.1-0.1-0.1-0.1c0,0-0.1-0.1-0.1-0.1
	c0,0-0.1-0.1-0.1-0.1c0-0.1-0.1-0.1-0.1-0.2c0,0,0-0.1-0.1-0.1c0-0.1-0.1-0.1-0.1-0.2c-0.1-0.1-0.1-0.2-0.1-0.3c0,0,0-0.1,0-0.1
	c0-0.1-0.1-0.1-0.1-0.2c0,0,0-0.1,0-0.1c0-0.1,0-0.2-0.1-0.2c0,0,0-0.1,0-0.1c0-0.1,0-0.2,0-0.2c0,0,0-0.1,0-0.1l0-0.1c0,0,0,0,0,0
	l-8.7-68.8c-0.2-1.9,1.1-3.7,3-3.9c1.9-0.2,3.7,1.1,3.9,3L99,190h6.4C107.3,190,108.9,191.6,108.9,193.5z M116.6,153.5
	c-0.4,0.2-0.9,0.3-1.3,0.3c-1.4,0-2.7-0.8-3.3-2.2L101,124c-3.4-8.4-6.5-13.8-12-14.7c-1.7-0.3-13.5-0.2-15.1,0.1
	c-6.4,1.2-10.9,8.1-14.9,15.1l-0.1,0.2l7.2,18.5c0.7,1.8-0.2,3.8-2,4.5c-1.8,0.7-3.8-0.2-4.5-2l-7.8-20.1c-0.4-1-0.3-2.1,0.2-3
	l1-1.7c4.7-8,10.4-16.7,19.7-18.4c2.5-0.5,15.3-0.4,17.6-0.1c9.6,1.6,14,10.6,17.3,19l11.1,27.5
	C119.3,150.7,118.4,152.7,116.6,153.5z M82.9,157.5l-11,32.5h4.6c1.9,0,3.5,1.6,3.5,3.5c0,1.9-1.6,3.5-3.5,3.5H67c0,0,0,0,0,0
	c-0.1,0-0.2,0-0.3,0c0,0,0,0,0,0c-0.1,0-0.2,0-0.3,0c0,0-0.1,0-0.1,0c-0.1,0-0.1,0-0.2-0.1c0,0-0.1,0-0.1,0c0,0,0,0,0,0
	c0,0-0.1,0-0.1,0c-0.1,0-0.1,0-0.2-0.1c-0.1,0-0.1,0-0.2-0.1c0,0-0.1,0-0.1-0.1c-0.1,0-0.1-0.1-0.2-0.1c0,0-0.1,0-0.1-0.1
	c-0.1,0-0.1-0.1-0.2-0.1c0,0-0.1,0-0.1-0.1c-0.1,0-0.1-0.1-0.2-0.2c0,0-0.1-0.1-0.1-0.1c0-0.1-0.1-0.1-0.1-0.2c0,0-0.1-0.1-0.1-0.1
	c0-0.1-0.1-0.1-0.1-0.2c0,0-0.1-0.1-0.1-0.1c0,0-0.1-0.1-0.1-0.1c0-0.1-0.1-0.1-0.1-0.2c0,0,0-0.1-0.1-0.1c0-0.1-0.1-0.1-0.1-0.2
	c0,0,0-0.1-0.1-0.1c0-0.1,0-0.1-0.1-0.2c0-0.1,0-0.1,0-0.2c0-0.1,0-0.1,0-0.2c0-0.1,0-0.1,0-0.2c0,0,0-0.1,0-0.1c0-0.1,0-0.2,0-0.2
	c0,0,0-0.1,0-0.1c0,0,0,0,0,0c0-0.1,0-0.1,0-0.2c0,0,0-0.1,0-0.1c0-0.1,0-0.1,0-0.2c0-0.1,0-0.1,0-0.2c0,0,0-0.1,0-0.1
	c0-0.1,0-0.2,0.1-0.2c0,0,0,0,0,0l12.6-37.1c0.6-1.8,2.6-2.8,4.4-2.2C82.5,153.6,83.5,155.6,82.9,157.5z"/>
<rect x="56.9" y="204.8" class="st1" width="158.4" height="62.6"/>
<text transform="matrix(1 0 0 1 56.9248 216.9886)" class="st2 st3 st4">Usuário</text>
<line class="st5" x1="85.4" y1="53" x2="116" y2="13"/>
<line class="st5" x1="116" y1="13" x2="131.3" y2="12.7"/>
<rect x="136.1" y="5.4" class="st1" width="158.4" height="62.6"/>
<text transform="matrix(1 0 0 1 136.1319 17.5593)" class="st2 st3 st4">Ator</text>
<line class="st0" x1="136.1" y1="114.8" x2="281" y2="114.8"/>
<rect x="299.2" y="109.8" class="st1" width="158.4" height="62.6"/>
<text transform="matrix(1 0 0 1 299.2469 121.9958)" class="st6 st3 st4">Reservar livro</text>
<ellipse class="st0" cx="350.4" cy="117.7" rx="59.8" ry="37.1"/>
<line class="st5" x1="364.3" y1="66.4" x2="394.9" y2="26.4"/>
<line class="st5" x1="394.9" y1="26.4" x2="410.2" y2="26.1"/>
<rect x="414.2" y="19" class="st1" width="158.4" height="62.6"/>
<text transform="matrix(1 0 0 1 414.221 31.214)" class="st2 st3 st4">Caso de uso</text>
<line class="st5" x1="181.8" y1="134.6" x2="246" y2="218.5"/>
<line class="st5" x1="245.9" y1="217.9" x2="261.2" y2="218.2"/>
<rect x="267.2" y="211" class="st1" width="158.4" height="62.6"/>
<text transform="matrix(1 0 0 1 267.221 223.1239)"><tspan x="0" y="0" class="st2 st3 st4">Relacionamento de </tspan><tspan x="0" y="20.4" class="st2 st3 st4">Comunicação</tspan></text>
</svg>
