<?xml version="1.0" encoding="utf-8"?>
<!-- Generator: Adobe Illustrator 21.0.0, SVG Export Plug-In . SVG Version: 6.00 Build 0)  -->
<svg version="1.1" id="Camada_1" xmlns="http://www.w3.org/2000/svg" xmlns:xlink="http://www.w3.org/1999/xlink" x="0px" y="0px"
	 viewBox="0 0 621 309.8" style="enable-background:new 0 0 621 309.8;" xml:space="preserve">
<style type="text/css">
	.st0{fill:none;stroke:#FFFFFF;stroke-width:2;stroke-miterlimit:10;}
	.st1{fill:none;stroke:#FFFFFF;stroke-miterlimit:10;}
	.st2{fill:none;}
	.st3{fill:#FFFFFF;stroke:#FFFFFF;stroke-width:0.25;stroke-miterlimit:10;}
	.st4{font-family:'ArialMT';}
	.st5{font-size:17px;}
	.st6{fill:#FFFFFF;}
</style>
<ellipse class="st0" cx="262.1" cy="159.2" rx="59.8" ry="37.1"/>
<line class="st1" x1="125.9" y1="159.2" x2="203.5" y2="159.2"/>
<line class="st1" x1="431.4" y1="244.2" x2="420.6" y2="240.3"/>
<line class="st1" x1="412.3" y1="237.2" x2="401.4" y2="233.3"/>
<line class="st1" x1="392.2" y1="230" x2="381.4" y2="226"/>
<line class="st1" x1="370.1" y1="221.9" x2="359.3" y2="218"/>
<line class="st1" x1="347.2" y1="213.6" x2="336.4" y2="209.6"/>
<line class="st1" x1="336.1" y1="227.2" x2="324.3" y2="205.2"/>
<rect x="324.3" y="276" class="st2" width="158.4" height="62.6"/>
<text transform="matrix(1 0 0 1 324.3275 288.2058)" class="st3 st4 st5">&lt;&lt;extend&gt;&gt;</text>
<line class="st1" x1="346.3" y1="199.3" x2="324.1" y2="205.7"/>
<rect x="463.6" y="49.6" class="st2" width="158.4" height="62.6"/>
<text transform="matrix(1 0 0 1 463.5855 61.7416)"><tspan x="0" y="0" class="st6 st4 st5">Substituir</tspan><tspan x="0" y="20.4" class="st6 st4 st5">   Texto</tspan></text>
<ellipse class="st0" cx="500.3" cy="66.5" rx="59.8" ry="37.1"/>
<path class="st0" d="M75.5,119.8c8.1,0,14.7-6.6,14.7-14.7s-6.6-14.7-14.7-14.7c-8.1,0-14.7,6.6-14.7,14.7S67.4,119.8,75.5,119.8z
	 M75.5,97.4c4.2,0,7.6,3.4,7.6,7.6c0,4.2-3.4,7.6-7.6,7.6c-4.2,0-7.6-3.4-7.6-7.6C67.9,100.9,71.3,97.4,75.5,97.4z M98.3,218
	c0,1.9-1.6,3.5-3.5,3.5h-9.5c0,0,0,0,0,0c-0.1,0-0.2,0-0.4,0c0,0,0,0,0,0c-0.1,0-0.2,0-0.3,0c0,0-0.1,0-0.1,0c-0.1,0-0.2,0-0.2-0.1
	c0,0-0.1,0-0.1,0c-0.1,0-0.1,0-0.2-0.1c0,0-0.1,0-0.1-0.1c-0.1,0-0.1-0.1-0.2-0.1c0,0-0.1,0-0.1-0.1c-0.1,0-0.1-0.1-0.1-0.1
	c0,0-0.1-0.1-0.1-0.1c0,0-0.1-0.1-0.1-0.1c0,0-0.1-0.1-0.1-0.1c0,0-0.1-0.1-0.1-0.1c0,0-0.1-0.1-0.1-0.1c0,0-0.1-0.1-0.1-0.1
	c0,0-0.1-0.1-0.1-0.1c0-0.1-0.1-0.1-0.1-0.2c0,0,0-0.1-0.1-0.1c0-0.1-0.1-0.1-0.1-0.2c-0.1-0.1-0.1-0.2-0.1-0.3c0,0,0-0.1-0.1-0.1
	c0-0.1-0.1-0.2-0.1-0.2c0,0,0-0.1,0-0.1c0-0.1,0-0.2-0.1-0.2c0,0,0-0.1,0-0.1c0-0.1,0-0.2,0-0.2c0,0,0-0.1,0-0.1l0-0.1c0,0,0,0,0,0
	l-8.8-69c-0.2-1.9,1.1-3.7,3.1-3.9c1.9-0.2,3.7,1.1,3.9,3.1l8.4,66.1h6.4C96.8,214.4,98.3,216,98.3,218z M106.1,177.8
	c-0.4,0.2-0.9,0.3-1.3,0.3c-1.4,0-2.7-0.8-3.3-2.2l-11.1-27.6c-3.4-8.4-6.6-13.8-12-14.7c-1.7-0.3-13.5-0.2-15.2,0.1
	c-6.4,1.2-10.9,8.1-15,15.1l-0.1,0.2l7.2,18.6c0.7,1.8-0.2,3.9-2,4.6c-1.8,0.7-3.9-0.2-4.6-2l-7.8-20.2c-0.4-1-0.3-2.1,0.2-3l1-1.7
	c4.7-8,10.4-16.8,19.8-18.5c2.5-0.5,15.4-0.4,17.6-0.1c9.6,1.6,14,10.7,17.4,19l11.1,27.6C108.8,175,107.9,177,106.1,177.8z
	 M72.2,181.8l-11.1,32.6h4.6c1.9,0,3.5,1.6,3.5,3.5s-1.6,3.5-3.5,3.5h-9.5c0,0,0,0,0,0c-0.1,0-0.2,0-0.3,0c0,0,0,0,0,0
	c-0.1,0-0.2,0-0.3,0c0,0-0.1,0-0.1,0c-0.1,0-0.1,0-0.2-0.1c0,0-0.1,0-0.1,0c0,0,0,0,0,0c0,0-0.1,0-0.1,0c-0.1,0-0.1,0-0.2-0.1
	c-0.1,0-0.1,0-0.2-0.1c-0.1,0-0.1,0-0.1-0.1c-0.1,0-0.1-0.1-0.2-0.1c0,0-0.1,0-0.1-0.1c-0.1,0-0.1-0.1-0.2-0.1c0,0-0.1,0-0.1-0.1
	c-0.1,0-0.1-0.1-0.2-0.2c0,0-0.1-0.1-0.1-0.1c0-0.1-0.1-0.1-0.1-0.2c0,0-0.1-0.1-0.1-0.1c0-0.1-0.1-0.1-0.1-0.2c0,0-0.1-0.1-0.1-0.1
	c0,0-0.1-0.1-0.1-0.1c0-0.1-0.1-0.1-0.1-0.2c0,0,0-0.1-0.1-0.1c0-0.1-0.1-0.1-0.1-0.2c0,0,0-0.1-0.1-0.1c0-0.1,0-0.1-0.1-0.2
	c0-0.1,0-0.1,0-0.2c0-0.1,0-0.1,0-0.2c0-0.1,0-0.1,0-0.2c0,0,0-0.1,0-0.1c0-0.1,0-0.2,0-0.2c0,0,0-0.1,0-0.1c0,0,0,0,0,0
	c0-0.1,0-0.1,0-0.2c0,0,0-0.1,0-0.1c0-0.1,0-0.1,0-0.2c0-0.1,0-0.1,0-0.2c0,0,0-0.1,0-0.1c0-0.1,0-0.2,0.1-0.2c0,0,0,0,0,0
	l12.6-37.3c0.6-1.8,2.6-2.8,4.5-2.2C71.8,177.9,72.8,179.9,72.2,181.8z"/>
<line class="st1" x1="430.5" y1="71.4" x2="419.6" y2="75.3"/>
<line class="st1" x1="411.3" y1="78.4" x2="400.5" y2="82.3"/>
<line class="st1" x1="391.3" y1="85.7" x2="380.4" y2="89.6"/>
<line class="st1" x1="369.2" y1="93.7" x2="358.3" y2="97.7"/>
<line class="st1" x1="346.3" y1="102.1" x2="335.4" y2="106"/>
<line class="st1" x1="335.2" y1="88.5" x2="323.3" y2="110.4"/>
<line class="st1" x1="345.3" y1="116.3" x2="323.1" y2="109.9"/>
<rect x="326.7" y="29.4" class="st2" width="158.4" height="62.6"/>
<text transform="matrix(1 0 0 1 326.6768 41.6101)" class="st3 st4 st5">&lt;&lt;extend&gt;&gt;</text>
<rect x="464.6" y="231" class="st2" width="158.4" height="62.6"/>
<text transform="matrix(1 0 0 1 464.5855 243.2094)"><tspan x="0" y="0" class="st6 st4 st5"> Corrigir</tspan><tspan x="0" y="20.4" class="st6 st4 st5">Ortografia</tspan></text>
<ellipse class="st0" cx="501.3" cy="250" rx="59.8" ry="37.1"/>
<rect x="220.2" y="139.4" class="st2" width="158.4" height="62.6"/>
<text transform="matrix(1 0 0 1 220.1564 151.5796)"><tspan x="0" y="0" class="st6 st4 st5">    Editar</tspan><tspan x="0" y="20.4" class="st6 st4 st5">Documento</tspan></text>
<rect x="45.7" y="235.3" class="st2" width="158.4" height="62.6"/>
<text transform="matrix(1 0 0 1 45.6952 247.4459)" class="st6 st4 st5">Escritor</text>
</svg>
