<?xml version="1.0" encoding="utf-8"?>
<!-- Generator: Adobe Illustrator 21.0.0, SVG Export Plug-In . SVG Version: 6.00 Build 0)  -->
<svg version="1.1" id="Camada_1" xmlns="http://www.w3.org/2000/svg" xmlns:xlink="http://www.w3.org/1999/xlink" x="0px" y="0px"
	 viewBox="0 0 621 176.8" style="enable-background:new 0 0 621 176.8;" xml:space="preserve">
<style type="text/css">
	.st0{fill:#FFFFFF;}
	.st1{font-family:'ArialMT';}
	.st2{font-size:17px;}
	.st3{fill:none;stroke:#FFFFFF;stroke-width:2;stroke-miterlimit:10;}
	.st4{fill:none;stroke:#FFFFFF;stroke-miterlimit:10;}
	.st5{fill:none;}
</style>
<text transform="matrix(1 0 0 1 224.122 86.1158)" class="st0 st1 st2">Efeturar</text>
<text transform="matrix(1 0 0 1 224.122 106.5158)" class="st0 st1 st2">pagamento</text>
<ellipse class="st3" cx="263.6" cy="92.9" rx="59.8" ry="37.1"/>
<line class="st4" x1="127.5" y1="92.9" x2="205.1" y2="92.9"/>
<line class="st4" x1="438.2" y1="92.9" x2="449.8" y2="92.9"/>
<line class="st4" x1="356.6" y1="92.9" x2="369.2" y2="92.9"/>
<line class="st4" x1="377.9" y1="92.9" x2="388.5" y2="92.9"/>
<line class="st4" x1="397.4" y1="92.9" x2="409" y2="92.9"/>
<line class="st4" x1="419.9" y1="92.9" x2="431.4" y2="92.9"/>
<line class="st4" x1="330.7" y1="92.4" x2="349.4" y2="78.8"/>
<line class="st4" x1="330.7" y1="92.4" x2="349.4" y2="109"/>
<text transform="matrix(1 0 0 1 362.4418 78.8)" class="st0 st1 st2">&lt;&lt;extend&gt;&gt;</text>
<polygon class="st5" points="474.7,75.5 633.1,66.5 633.1,129.1 474.7,138.1 "/>
<text transform="matrix(1 0 0 1 470.7411 97.6793)" class="st0 st1 st2">Calcular juros</text>
<ellipse class="st3" cx="522.7" cy="91.5" rx="59.8" ry="37.1"/>
<path class="st3" d="M84.1,55.3c8.1,0,14.7-6.6,14.7-14.7s-6.6-14.7-14.7-14.7s-14.7,6.6-14.7,14.7S76,55.3,84.1,55.3z M84.1,33
	c4.2,0,7.6,3.4,7.6,7.6s-3.4,7.6-7.6,7.6c-4.2,0-7.6-3.4-7.6-7.6C76.4,36.4,79.9,33,84.1,33z M106.9,153.5c0,1.9-1.6,3.5-3.5,3.5
	h-9.5l0,0c-0.1,0-0.2,0-0.4,0l0,0c-0.1,0-0.2,0-0.3,0h-0.1c-0.1,0-0.2,0-0.2-0.1h-0.1c-0.1,0-0.1,0-0.2-0.1c0,0-0.1,0-0.1-0.1
	c-0.1,0-0.1-0.1-0.2-0.1c0,0-0.1,0-0.1-0.1c-0.1,0-0.1-0.1-0.1-0.1l-0.1-0.1l-0.1-0.1l-0.1-0.1l-0.1-0.1l-0.1-0.1l-0.1-0.1l-0.1-0.1
	c0-0.1-0.1-0.1-0.1-0.2c0,0,0-0.1-0.1-0.1c0-0.1-0.1-0.1-0.1-0.2c-0.1-0.1-0.1-0.2-0.1-0.3c0,0,0-0.1-0.1-0.1c0-0.1-0.1-0.2-0.1-0.2
	v-0.1c0-0.1,0-0.2-0.1-0.2v-0.1c0-0.1,0-0.2,0-0.2v-0.1v-0.1l0,0l-8.8-69c-0.2-1.9,1.1-3.7,3.1-3.9c1.9-0.2,3.7,1.1,3.9,3.1
	l8.4,66.1h6.4C105.3,150,106.9,151.5,106.9,153.5z M114.7,113.3c-0.4,0.2-0.9,0.3-1.3,0.3c-1.4,0-2.7-0.8-3.3-2.2L99,83.7
	c-3.4-8.4-6.6-13.8-12-14.7c-1.7-0.3-13.5-0.2-15.2,0.1c-6.4,1.2-10.9,8.1-15,15.1l-0.1,0.2l7.2,18.6c0.7,1.8-0.2,3.9-2,4.6
	s-3.9-0.2-4.6-2l-7.8-20.2c-0.4-1-0.3-2.1,0.2-3l1-1.7c4.7-8,10.4-16.8,19.8-18.5c2.5-0.5,15.4-0.4,17.6-0.1
	c9.6,1.6,14,10.7,17.4,19l11.1,27.6C117.3,110.5,116.5,112.6,114.7,113.3z M80.8,117.3l-11.1,32.6h4.6c1.9,0,3.5,1.6,3.5,3.5
	s-1.6,3.5-3.5,3.5h-9.5l0,0c-0.1,0-0.2,0-0.3,0l0,0c-0.1,0-0.2,0-0.3,0h-0.1c-0.1,0-0.1,0-0.2-0.1h-0.1l0,0h-0.1
	c-0.1,0-0.1,0-0.2-0.1c-0.1,0-0.1,0-0.2-0.1c-0.1,0-0.1,0-0.1-0.1c-0.1,0-0.1-0.1-0.2-0.1c0,0-0.1,0-0.1-0.1c-0.1,0-0.1-0.1-0.2-0.1
	c0,0-0.1,0-0.1-0.1c-0.1,0-0.1-0.1-0.2-0.2l-0.1-0.1c0-0.1-0.1-0.1-0.1-0.2l-0.1-0.1c0-0.1-0.1-0.1-0.1-0.2l-0.1-0.1l-0.1-0.1
	c0-0.1-0.1-0.1-0.1-0.2c0,0,0-0.1-0.1-0.1c0-0.1-0.1-0.1-0.1-0.2c0,0,0-0.1-0.1-0.1c0-0.1,0-0.1-0.1-0.2c0-0.1,0-0.1,0-0.2
	c0-0.1,0-0.1,0-0.2c0-0.1,0-0.1,0-0.2v-0.1c0-0.1,0-0.2,0-0.2v-0.1l0,0c0-0.1,0-0.1,0-0.2V153c0-0.1,0-0.1,0-0.2c0-0.1,0-0.1,0-0.2
	v-0.1c0-0.1,0-0.2,0.1-0.2l0,0l12.7-37.2c0.6-1.8,2.6-2.8,4.5-2.2C80.4,113.5,81.4,115.5,80.8,117.3z"/>
</svg>
