<?xml version="1.0" encoding="utf-8"?>
<!-- Generator: Adobe Illustrator 21.0.0, SVG Export Plug-In . SVG Version: 6.00 Build 0)  -->
<svg version="1.1" id="Camada_1" xmlns="http://www.w3.org/2000/svg" xmlns:xlink="http://www.w3.org/1999/xlink" x="0px" y="0px"
	 viewBox="0 0 863 360" style="enable-background:new 0 0 863 360;" xml:space="preserve">
<style type="text/css">
	.st0{fill:none;stroke:#FFFFFF;stroke-miterlimit:10;}
	.st1{fill:none;stroke:#FFFFFF;stroke-width:2;stroke-miterlimit:10;}
	.st2{fill:none;}
	.st3{fill:#FFFFFF;}
	.st4{font-family:'ArialMT';}
	.st5{font-size:17px;}
</style>
<path class="st0" d="M591.4,162.5c0-5.2-4.2-9.5-9.5-9.5c-5.2,0-9.5,4.2-9.5,9.5s4.2,9.5,9.5,9.5C587.1,172,591.4,167.8,591.4,162.5
	z M586.8,162.5c0,2.7-2.2,4.9-4.9,4.9s-4.9-2.2-4.9-4.9s2.2-4.9,4.9-4.9S586.8,159.8,586.8,162.5z M569.5,232.9h4.1l5.4-42.5
	c0.2-1.2,1.3-2.1,2.5-2c1.2,0.2,2.1,1.3,2,2.5l-5.6,44.4l0,0l0,0l0,0c0,0.1,0,0.1,0,0.2c0,0,0,0,0,0.1s0,0.1,0,0.2c0,0,0,0,0,0.1
	c0,0,0,0.1-0.1,0.1c0,0,0,0,0,0.1s-0.1,0.1-0.1,0.2c0,0,0,0.1-0.1,0.1c0,0,0,0,0,0.1l-0.1,0.1c0,0,0,0-0.1,0.1l-0.1,0.1
	c0,0,0,0-0.1,0.1l-0.1,0.1c0,0-0.1,0-0.1,0.1c0,0-0.1,0-0.1,0.1c0,0-0.1,0-0.1,0.1c0,0-0.1,0-0.1,0.1h-0.1c0,0-0.1,0-0.1,0.1h-0.1
	h-0.1h-0.1h-0.1c0,0,0,0-0.1,0s-0.1,0-0.2,0l0,0c-0.1,0-0.2,0-0.2,0l0,0h-6.1c-1.3,0-2.3-1-2.3-2.3
	C567.2,234,568.2,232.9,569.5,232.9z M561,206.4l7.2-17.8c2.2-5.4,5-11.2,11.2-12.3c1.4-0.2,9.7-0.3,11.4,0c6,1.1,9.7,6.7,12.7,11.9
	l0.6,1.1c0.3,0.6,0.4,1.3,0.2,2l-5,13c-0.5,1.2-1.8,1.7-2.9,1.3c-1.2-0.5-1.7-1.8-1.3-2.9l4.6-12l-0.1-0.1c-2.6-4.5-5.5-9-9.6-9.7
	c-1.1-0.2-8.7-0.2-9.8,0c-3.5,0.6-5.6,4.1-7.7,9.5l-7.2,17.8c-0.4,0.9-1.2,1.4-2.1,1.4c-0.3,0-0.6-0.1-0.8-0.2
	C561.1,208.9,560.5,207.6,561,206.4z M585.5,209.1c1.2-0.4,2.5,0.2,2.9,1.4l8.1,24l0,0c0,0.1,0,0.1,0,0.2c0,0,0,0,0,0.1v0.1v0.1v0.1
	v0.1l0,0c0,0,0,0,0,0.1s0,0.1,0,0.1v0.1v0.1v0.1v0.1v0.1v0.1v0.1v0.1c0,0,0,0.1-0.1,0.1c0,0,0,0.1-0.1,0.1c0,0,0,0.1-0.1,0.1
	c0,0,0,0.1-0.1,0.1c0,0,0,0-0.1,0.1l-0.1,0.1c0,0,0,0-0.1,0.1l-0.1,0.1c0,0,0,0-0.1,0l-0.1,0.1c0,0,0,0-0.1,0c0,0-0.1,0-0.1,0.1
	h-0.1h-0.1H595c0,0,0,0-0.1,0l0,0h-0.1h-0.1c0,0,0,0-0.1,0s-0.1,0-0.2,0l0,0c-0.1,0-0.1,0-0.2,0l0,0h-6.1c-1.3,0-2.3-1-2.3-2.3
	s1-2.3,2.3-2.3h3l-7.1-21C583.6,210.7,584.3,209.5,585.5,209.1z"/>
<path class="st1" d="M446.2,83.5c-33,0-59.8-16.6-59.8-37.1s26.8-37.1,59.8-37.1S506,25.9,506,46.4"/>
<path class="st1" d="M506,46.4c0,20.5-26.8,37.1-59.8,37.1"/>
<rect x="413.9" y="30.6" class="st2" width="70.6" height="62.6"/>
<text transform="matrix(1 0 0 1 413.9237 42.8024)" class="st3 st4 st5">RF01:</text>
<text transform="matrix(1 0 0 1 413.9237 63.2024)" class="st3 st4 st5">Ligar</text>
<path class="st1" d="M446.2,233.6c-33,0-59.8-16.6-59.8-37.1s26.8-37.1,59.8-37.1S506,176,506,196.5"/>
<path class="st1" d="M506,196.5c0,20.5-26.8,37.1-59.8,37.1"/>
<rect x="413.9" y="178.8" class="st2" width="73.5" height="62.6"/>
<text transform="matrix(1 0 0 1 413.9242 190.9979)" class="st3 st4 st5">Controlar</text>
<text transform="matrix(1 0 0 1 413.9242 211.3979)" class="st3 st4 st5">    TV</text>
<line class="st0" x1="506" y1="196.5" x2="562.9" y2="196.5"/>
<path class="st1" d="M307.7,83.5c-33,0-59.8-16.6-59.8-37.1s26.8-37.1,59.8-37.1s59.8,16.6,59.8,37.1"/>
<path class="st1" d="M367.5,46.4c0,20.5-26.8,37.1-59.8,37.1"/>
<rect x="275.4" y="30.6" class="st2" width="70.6" height="62.6"/>
<text transform="matrix(1 0 0 1 275.3712 42.8025)" class="st3 st4 st5">RF02:</text>
<text transform="matrix(1 0 0 1 275.3712 63.2025)" class="st3 st4 st5">Desligar</text>
<path class="st1" d="M307.7,173.9c-33,0-59.8-16.6-59.8-37.1s26.8-37.1,59.8-37.1s59.8,16.6,59.8,37.1"/>
<path class="st1" d="M367.5,136.8c0,20.5-26.8,37.1-59.8,37.1"/>
<rect x="275.4" y="110.4" class="st2" width="122.6" height="62.6"/>
<text transform="matrix(1 0 0 1 275.3717 122.554)" class="st3 st4 st5">RF03:</text>
<text transform="matrix(1 0 0 1 275.3717 142.954)" class="st3 st4 st5">Aumentar</text>
<text transform="matrix(1 0 0 1 275.3717 163.354)" class="st3 st4 st5">volume</text>
<path class="st1" d="M307.7,264.3c-33,0-59.8-16.6-59.8-37.1s26.8-37.1,59.8-37.1s59.8,16.6,59.8,37.1"/>
<path class="st1" d="M367.5,227.2c0,20.5-26.8,37.1-59.8,37.1"/>
<rect x="275.4" y="202.5" class="st2" width="70.6" height="62.6"/>
<text transform="matrix(1 0 0 1 275.3712 214.6424)" class="st3 st4 st5">RF04:</text>
<text transform="matrix(1 0 0 1 275.3712 235.0424)" class="st3 st4 st5">Diminuir</text>
<text transform="matrix(1 0 0 1 275.3712 255.4424)" class="st3 st4 st5">Volume</text>
<path class="st1" d="M310.7,348.2c-33,0-59.8-16.6-59.8-37.1s26.8-37.1,59.8-37.1s59.8,16.6,59.8,37.1"/>
<path class="st1" d="M370.5,311.1c0,20.5-26.8,37.1-59.8,37.1"/>
<rect x="278.4" y="285.4" class="st2" width="70.6" height="62.6"/>
<text transform="matrix(1 0 0 1 278.3622 297.5453)" class="st3 st4 st5">RF06:</text>
<text transform="matrix(1 0 0 1 278.3622 317.9453)" class="st3 st4 st5">Diminuir</text>
<text transform="matrix(1 0 0 1 278.3622 338.3453)" class="st3 st4 st5">Canal</text>
<path class="st1" d="M446.2,348.2c-33,0-59.8-16.6-59.8-37.1s26.8-37.1,59.8-37.1s59.8,16.6,59.8,37.1"/>
<path class="st1" d="M506,311.1c0,20.5-26.8,37.1-59.8,37.1"/>
<rect x="412.9" y="286.4" class="st2" width="86.6" height="62.6"/>
<text transform="matrix(1 0 0 1 412.9237 298.5453)" class="st3 st4 st5">RF05:</text>
<text transform="matrix(1 0 0 1 412.9237 318.9453)" class="st3 st4 st5">Aumentar </text>
<text transform="matrix(1 0 0 1 412.9237 339.3453)" class="st3 st4 st5">Canal</text>
<line class="st0" x1="446.2" y1="83.5" x2="446.2" y2="149.9"/>
<line class="st0" x1="446.2" y1="274" x2="446.2" y2="242.4"/>
<line class="st0" x1="353.1" y1="70.5" x2="413.9" y2="156.1"/>
<line class="st0" x1="359.5" y1="155.4" x2="386.5" y2="174.3"/>
<line class="st0" x1="367.5" y1="227.2" x2="383.1" y2="215.6"/>
<line class="st0" x1="363.8" y1="294" x2="407.4" y2="235"/>
<rect x="553.9" y="247.6" class="st2" width="73.5" height="62.6"/>
<text transform="matrix(1 0 0 1 553.9242 259.7343)" class="st3 st4 st5">Usuário</text>
<line class="st0" x1="439.5" y1="150" x2="452.9" y2="149.8"/>
<line class="st0" x1="446.5" y1="158.2" x2="439.5" y2="150"/>
<line class="st0" x1="452.9" y1="149.8" x2="446.5" y2="158.2"/>
<line class="st0" x1="408.3" y1="159" x2="419.9" y2="152.2"/>
<line class="st0" x1="418.4" y1="162.7" x2="408.3" y2="159"/>
<line class="st0" x1="419.9" y1="152.2" x2="418.4" y2="162.7"/>
<line class="st0" x1="383" y1="180" x2="390.1" y2="168.6"/>
<line class="st0" x1="393.6" y1="178.6" x2="383" y2="180"/>
<line class="st0" x1="390.1" y1="168.6" x2="393.6" y2="178.6"/>
<line class="st0" x1="387.2" y1="221.2" x2="379.4" y2="210.4"/>
<line class="st0" x1="390" y1="210.8" x2="387.2" y2="221.2"/>
<line class="st0" x1="379.4" y1="210.4" x2="390" y2="210.8"/>
<line class="st0" x1="411.6" y1="238.9" x2="401.7" y2="229.9"/>
<line class="st0" x1="412.1" y1="228.1" x2="411.6" y2="238.9"/>
<line class="st0" x1="401.7" y1="229.9" x2="412.1" y2="228.1"/>
<line class="st0" x1="452.9" y1="242.3" x2="439.5" y2="242.4"/>
<line class="st0" x1="446" y1="234" x2="452.9" y2="242.3"/>
<line class="st0" x1="439.5" y1="242.4" x2="446" y2="234"/>
</svg>
