<?xml version="1.0" encoding="utf-8"?>
<!-- Generator: Adobe Illustrator 21.0.0, SVG Export Plug-In . SVG Version: 6.00 Build 0)  -->
<svg version="1.1" id="Camada_1" xmlns="http://www.w3.org/2000/svg" xmlns:xlink="http://www.w3.org/1999/xlink" x="0px" y="0px"
	 viewBox="0 0 621 300.9" style="enable-background:new 0 0 621 300.9;" xml:space="preserve">
<style type="text/css">
	.st0{fill:none;}
	.st1{fill:#FFFFFF;}
	.st2{font-family:'ArialMT';}
	.st3{font-size:17px;}
	.st4{fill:none;stroke:#FFFFFF;stroke-width:2;stroke-miterlimit:10;}
	.st5{fill:none;stroke:#FFFFFF;stroke-miterlimit:10;}
	.st6{fill:#FFFFFF;stroke:#FFFFFF;stroke-width:0.25;stroke-miterlimit:10;}
</style>
<rect x="178.8" y="145" class="st0" width="158.4" height="62.6"/>
<text transform="matrix(1 0 0 1 178.836 157.1652)" class="st1 st2 st3">Realzar Saque</text>
<ellipse class="st4" cx="234.5" cy="152.8" rx="59.8" ry="37.1"/>
<line class="st5" x1="98.4" y1="152.8" x2="176" y2="152.8"/>
<rect x="181.8" y="218.1" class="st0" width="158.4" height="62.6"/>
<text transform="matrix(1 0 0 1 181.8354 230.2727)"><tspan x="0" y="0" class="st1 st2 st3">   Realizar</tspan><tspan x="0" y="20.4" class="st1 st2 st3">Transferencia</tspan></text>
<ellipse class="st4" cx="233.4" cy="237.1" rx="59.8" ry="37.1"/>
<line class="st5" x1="98.4" y1="207.6" x2="174.9" y2="237.1"/>
<line class="st5" x1="294.1" y1="152.8" x2="305.7" y2="152.8"/>
<line class="st5" x1="314.5" y1="152.8" x2="326.1" y2="152.8"/>
<line class="st5" x1="335.8" y1="152.8" x2="347.4" y2="152.8"/>
<line class="st5" x1="359.3" y1="152.8" x2="370.9" y2="152.8"/>
<line class="st5" x1="383.8" y1="152.8" x2="395.3" y2="152.8"/>
<line class="st5" x1="389.5" y1="139.2" x2="408.2" y2="152.8"/>
<line class="st5" x1="389.5" y1="169.4" x2="408.2" y2="152.8"/>
<rect x="296.8" y="121.5" class="st0" width="158.4" height="62.6"/>
<text transform="matrix(1 0 0 1 296.8107 133.6925)" class="st6 st2 st3">&lt;&lt;include&gt;&gt;</text>
<line class="st5" x1="295.6" y1="237.8" x2="306.5" y2="233.9"/>
<line class="st5" x1="314.8" y1="230.9" x2="325.7" y2="226.9"/>
<line class="st5" x1="334.8" y1="223.6" x2="345.7" y2="219.6"/>
<line class="st5" x1="356.9" y1="215.5" x2="367.8" y2="211.6"/>
<line class="st5" x1="379.9" y1="207.2" x2="390.7" y2="203.2"/>
<line class="st5" x1="390.9" y1="220.8" x2="402.8" y2="198.8"/>
<rect x="296.8" y="269.6" class="st0" width="158.4" height="62.6"/>
<text transform="matrix(1 0 0 1 296.8107 281.8217)" class="st6 st2 st3">&lt;&lt;include&gt;&gt;</text>
<line class="st5" x1="380.8" y1="192.9" x2="403" y2="199.3"/>
<rect x="429.8" y="130.6" class="st0" width="158.4" height="62.6"/>
<text transform="matrix(1 0 0 1 429.8016 142.7582)"><tspan x="0" y="0" class="st1 st2 st3">   Fornecer</tspan><tspan x="0" y="20.4" class="st1 st2 st3">Identificação</tspan></text>
<ellipse class="st4" cx="476.8" cy="149.5" rx="59.8" ry="37.1"/>
<path class="st4" d="M48,113.4c8.1,0,14.7-6.6,14.7-14.7S56.1,84,48,84c-8.1,0-14.7,6.6-14.7,14.7S39.9,113.4,48,113.4z M48,91
	c4.2,0,7.6,3.4,7.6,7.6c0,4.2-3.4,7.6-7.6,7.6c-4.2,0-7.6-3.4-7.6-7.6C40.3,94.5,43.8,91,48,91z M70.8,211.6c0,1.9-1.6,3.5-3.5,3.5
	h-9.5c0,0,0,0,0,0c-0.1,0-0.2,0-0.4,0c0,0,0,0,0,0c-0.1,0-0.2,0-0.3,0c0,0-0.1,0-0.1,0c-0.1,0-0.2,0-0.2-0.1c0,0-0.1,0-0.1,0
	c-0.1,0-0.1,0-0.2-0.1c0,0-0.1,0-0.1-0.1c-0.1,0-0.1-0.1-0.2-0.1c0,0-0.1,0-0.1-0.1c-0.1,0-0.1-0.1-0.1-0.1c0,0-0.1-0.1-0.1-0.1
	c0,0-0.1-0.1-0.1-0.1c0,0-0.1-0.1-0.1-0.1c0,0-0.1-0.1-0.1-0.1c0,0-0.1-0.1-0.1-0.1c0,0-0.1-0.1-0.1-0.1c0,0-0.1-0.1-0.1-0.1
	c0-0.1-0.1-0.1-0.1-0.2c0,0,0-0.1-0.1-0.1c0-0.1-0.1-0.1-0.1-0.2c-0.1-0.1-0.1-0.2-0.1-0.3c0,0,0-0.1-0.1-0.1c0-0.1-0.1-0.2-0.1-0.2
	c0,0,0-0.1,0-0.1c0-0.1,0-0.2-0.1-0.2c0,0,0-0.1,0-0.1c0-0.1,0-0.2,0-0.2c0,0,0-0.1,0-0.1l0-0.1c0,0,0,0,0,0l-8.8-69
	c-0.2-1.9,1.1-3.7,3.1-3.9c1.9-0.2,3.7,1.1,3.9,3.1l8.4,66.1h6.4C69.2,208,70.8,209.6,70.8,211.6z M78.6,171.4
	c-0.4,0.2-0.9,0.3-1.3,0.3c-1.4,0-2.7-0.8-3.3-2.2l-11.1-27.6c-3.4-8.4-6.6-13.8-12-14.7c-1.7-0.3-13.5-0.2-15.2,0.1
	c-6.4,1.2-10.9,8.1-15,15.1l-0.1,0.2l7.2,18.6c0.7,1.8-0.2,3.9-2,4.6c-1.8,0.7-3.9-0.2-4.6-2l-7.8-20.2c-0.4-1-0.3-2.1,0.2-3l1-1.7
	c4.7-8,10.4-16.8,19.8-18.5c2.5-0.5,15.4-0.4,17.6-0.1c9.6,1.6,14,10.7,17.4,19l11.1,27.6C81.2,168.6,80.4,170.7,78.6,171.4z
	 M44.7,175.4L33.6,208h4.6c1.9,0,3.5,1.6,3.5,3.5s-1.6,3.5-3.5,3.5h-9.5c0,0,0,0,0,0c-0.1,0-0.2,0-0.3,0c0,0,0,0,0,0
	c-0.1,0-0.2,0-0.3,0c0,0-0.1,0-0.1,0c-0.1,0-0.1,0-0.2-0.1c0,0-0.1,0-0.1,0c0,0,0,0,0,0c0,0-0.1,0-0.1,0c-0.1,0-0.1,0-0.2-0.1
	c-0.1,0-0.1,0-0.2-0.1c-0.1,0-0.1,0-0.1-0.1c-0.1,0-0.1-0.1-0.2-0.1c0,0-0.1,0-0.1-0.1c-0.1,0-0.1-0.1-0.2-0.1c0,0-0.1,0-0.1-0.1
	c-0.1,0-0.1-0.1-0.2-0.2c0,0-0.1-0.1-0.1-0.1c0-0.1-0.1-0.1-0.1-0.2c0,0-0.1-0.1-0.1-0.1c0-0.1-0.1-0.1-0.1-0.2c0,0-0.1-0.1-0.1-0.1
	c0,0-0.1-0.1-0.1-0.1c0-0.1-0.1-0.1-0.1-0.2c0,0,0-0.1-0.1-0.1c0-0.1-0.1-0.1-0.1-0.2c0,0,0-0.1-0.1-0.1c0-0.1,0-0.1-0.1-0.2
	c0-0.1,0-0.1,0-0.2c0-0.1,0-0.1,0-0.2c0-0.1,0-0.1,0-0.2c0,0,0-0.1,0-0.1c0-0.1,0-0.2,0-0.2c0,0,0-0.1,0-0.1c0,0,0,0,0,0
	c0-0.1,0-0.1,0-0.2c0,0,0-0.1,0-0.1c0-0.1,0-0.1,0-0.2c0-0.1,0-0.1,0-0.2c0,0,0-0.1,0-0.1c0-0.1,0-0.2,0.1-0.2c0,0,0,0,0,0L38,173.1
	c0.6-1.8,2.6-2.8,4.5-2.2C44.3,171.6,45.3,173.6,44.7,175.4z"/>
<line class="st5" x1="175.5" y1="77.6" x2="98.9" y2="107.1"/>
<rect x="185.4" y="59.1" class="st0" width="158.4" height="62.6"/>
<text transform="matrix(1 0 0 1 185.414 71.2228)" class="st1 st2 st3">Obter Extrato</text>
<ellipse class="st4" cx="235.6" cy="67.9" rx="59.8" ry="37.1"/>
<line class="st5" x1="296.6" y1="65" x2="307.4" y2="69"/>
<line class="st5" x1="315.8" y1="72" x2="326.6" y2="75.9"/>
<line class="st5" x1="335.8" y1="79.3" x2="346.6" y2="83.2"/>
<line class="st5" x1="357.9" y1="87.3" x2="368.7" y2="91.3"/>
<line class="st5" x1="380.8" y1="95.7" x2="391.6" y2="99.6"/>
<line class="st5" x1="391.9" y1="82.1" x2="403.7" y2="104"/>
<line class="st5" x1="381.7" y1="110" x2="403.9" y2="103.5"/>
<rect x="296.8" y="23.1" class="st0" width="158.4" height="62.6"/>
<text transform="matrix(1 0 0 1 296.8107 35.226)" class="st6 st2 st3">&lt;&lt;include&gt;&gt;</text>
</svg>
