<?xml version="1.0" encoding="utf-8"?>
<!-- Generator: Adobe Illustrator 21.0.0, SVG Export Plug-In . SVG Version: 6.00 Build 0)  -->
<svg version="1.1" id="Camada_1" xmlns="http://www.w3.org/2000/svg" xmlns:xlink="http://www.w3.org/1999/xlink" x="0px" y="0px"
	 viewBox="0 0 863 482" style="enable-background:new 0 0 863 482;" xml:space="preserve">
<style type="text/css">
	.st0{fill:none;stroke:#FFFFFF;stroke-miterlimit:10;}
	.st1{fill:none;stroke:#FFFFFF;stroke-width:2;stroke-miterlimit:10;}
	.st2{fill:none;}
	.st3{fill:#FFFFFF;}
	.st4{font-family:'ArialMT';}
	.st5{font-size:17px;}
	.st6{fill:#FFFFFF;stroke:#FFFFFF;stroke-width:0.25;stroke-miterlimit:10;}
</style>
<path class="st0" d="M398.6,277c5.2,0,9.5-4.2,9.5-9.5c0-5.2-4.2-9.5-9.5-9.5c-5.2,0-9.5,4.2-9.5,9.5
	C389.2,272.7,393.4,277,398.6,277z M398.6,262.6c2.7,0,4.9,2.2,4.9,4.9c0,2.7-2.2,4.9-4.9,4.9c-2.7,0-4.9-2.2-4.9-4.9
	C393.7,264.8,395.9,262.6,398.6,262.6z M413.3,340.2c0,1.3-1,2.3-2.3,2.3H405c0,0,0,0,0,0c-0.1,0-0.2,0-0.2,0c0,0,0,0,0,0
	c-0.1,0-0.1,0-0.2,0c0,0,0,0-0.1,0c-0.1,0-0.1,0-0.1,0c0,0-0.1,0-0.1,0c0,0-0.1,0-0.1,0c0,0-0.1,0-0.1,0c0,0-0.1,0-0.1-0.1
	c0,0-0.1,0-0.1,0c0,0-0.1,0-0.1-0.1c0,0-0.1,0-0.1-0.1c0,0-0.1,0-0.1-0.1c0,0-0.1,0-0.1-0.1c0,0-0.1-0.1-0.1-0.1c0,0,0,0-0.1-0.1
	c0,0-0.1-0.1-0.1-0.1c0,0,0,0-0.1-0.1c0,0-0.1-0.1-0.1-0.1c0,0,0,0,0-0.1c0,0-0.1-0.1-0.1-0.1c0-0.1-0.1-0.1-0.1-0.2c0,0,0,0,0-0.1
	c0,0,0-0.1-0.1-0.1c0,0,0,0,0-0.1c0-0.1,0-0.1,0-0.2c0,0,0,0,0-0.1c0-0.1,0-0.1,0-0.2c0,0,0,0,0,0l0,0c0,0,0,0,0,0L397,296
	c-0.2-1.2,0.7-2.4,2-2.5c1.2-0.2,2.4,0.7,2.5,2l5.4,42.5h4.1C412.3,337.9,413.3,338.9,413.3,340.2z M418.3,314.3
	c-0.3,0.1-0.6,0.2-0.8,0.2c-0.9,0-1.7-0.5-2.1-1.4l-7.2-17.8c-2.2-5.4-4.2-8.9-7.7-9.5c-1.1-0.2-8.7-0.1-9.8,0
	c-4.1,0.8-7,5.2-9.6,9.7l-0.1,0.1l4.6,12c0.5,1.2-0.1,2.5-1.3,2.9c-1.2,0.5-2.5-0.1-2.9-1.3l-5-13c-0.2-0.6-0.2-1.4,0.2-2l0.6-1.1
	c3-5.2,6.7-10.8,12.7-11.9c1.6-0.3,9.9-0.3,11.4,0c6.2,1,9,6.9,11.2,12.3l7.2,17.8C420,312.5,419.5,313.8,418.3,314.3z M396.5,316.9
	l-7.1,21h3c1.3,0,2.3,1,2.3,2.3c0,1.3-1,2.3-2.3,2.3h-6.1c0,0,0,0,0,0c-0.1,0-0.1,0-0.2,0c0,0,0,0,0,0c-0.1,0-0.1,0-0.2,0
	c0,0,0,0-0.1,0c0,0-0.1,0-0.1,0c0,0-0.1,0-0.1,0c0,0,0,0,0,0c0,0,0,0-0.1,0c0,0-0.1,0-0.1,0c0,0-0.1,0-0.1,0c0,0-0.1,0-0.1,0
	c0,0-0.1,0-0.1-0.1c0,0,0,0-0.1,0c0,0-0.1-0.1-0.1-0.1c0,0,0,0-0.1,0c0,0-0.1-0.1-0.1-0.1c0,0,0,0-0.1-0.1c0,0-0.1-0.1-0.1-0.1
	c0,0,0,0-0.1-0.1c0,0-0.1-0.1-0.1-0.1c0,0,0-0.1-0.1-0.1c0,0,0-0.1-0.1-0.1c0,0,0-0.1-0.1-0.1c0,0,0-0.1,0-0.1c0,0,0-0.1,0-0.1
	c0,0,0-0.1,0-0.1c0,0,0-0.1,0-0.1c0,0,0-0.1,0-0.1c0,0,0-0.1,0-0.1c0,0,0-0.1,0-0.1c0,0,0-0.1,0-0.1c0,0,0-0.1,0-0.1c0,0,0,0,0-0.1
	c0,0,0,0,0,0c0,0,0-0.1,0-0.1c0,0,0-0.1,0-0.1c0,0,0-0.1,0-0.1c0,0,0-0.1,0-0.1c0,0,0,0,0-0.1c0-0.1,0-0.1,0-0.2c0,0,0,0,0,0l8.1-24
	c0.4-1.2,1.7-1.8,2.9-1.4C396.3,314.4,396.9,315.7,396.5,316.9z"/>
<path class="st1" d="M91,342.5c-33,0-59.8-16.6-59.8-37.1s26.8-37.1,59.8-37.1s59.8,16.6,59.8,37.1"/>
<path class="st1" d="M150.8,305.4c0,20.5-26.8,37.1-59.8,37.1"/>
<rect x="58.7" y="287.7" class="st2" width="67.3" height="62.6"/>
<text transform="matrix(1 0 0 1 58.6664 299.888)"><tspan x="0" y="0" class="st3 st4 st5">Atualizar </tspan><tspan x="0" y="20.4" class="st3 st4 st5">animal</tspan></text>
<path class="st1" d="M87.7,260.4c-33,0-59.8-16.6-59.8-37.1s26.8-37.1,59.8-37.1s59.8,16.6,59.8,37.1"/>
<path class="st1" d="M147.6,223.3c0,20.5-26.8,37.1-59.8,37.1"/>
<rect x="55.4" y="207.6" class="st2" width="70.6" height="62.6"/>
<text transform="matrix(1 0 0 1 55.4409 219.7651)"><tspan x="0" y="0" class="st3 st4 st5">Atualizar </tspan><tspan x="0" y="20.4" class="st3 st4 st5">cliente</tspan></text>
<path class="st1" d="M91,427.4c-33,0-59.8-16.6-59.8-37.1s26.8-37.1,59.8-37.1s59.8,16.6,59.8,37.1"/>
<path class="st1" d="M150.8,390.3c0,20.5-26.8,37.1-59.8,37.1"/>
<rect x="58.7" y="372.7" class="st2" width="67.3" height="62.6"/>
<text transform="matrix(1 0 0 1 58.6664 384.8754)"><tspan x="0" y="0" class="st3 st4 st5">Atualizar </tspan><tspan x="0" y="20.4" class="st3 st4 st5">Médico</tspan></text>
<path class="st1" d="M261.6,338.5c-33,0-59.8-16.6-59.8-37.1s26.8-37.1,59.8-37.1s59.8,16.6,59.8,37.1"/>
<path class="st1" d="M321.5,301.4c0,20.5-26.8,37.1-59.8,37.1"/>
<rect x="229.3" y="283.8" class="st2" width="73.5" height="62.6"/>
<text transform="matrix(1 0 0 1 229.3269 295.9738)"><tspan x="0" y="0" class="st3 st4 st5">Atualizar </tspan><tspan x="0" y="20.4" class="st3 st4 st5">animal</tspan></text>
<path class="st1" d="M398.4,238.9c-33,0-59.8-16.6-59.8-37.1s26.8-37.1,59.8-37.1s59.8,16.6,59.8,37.1"/>
<path class="st1" d="M458.2,201.8c0,20.5-26.8,37.1-59.8,37.1"/>
<rect x="366.1" y="174.4" class="st2" width="68.7" height="62.6"/>
<text transform="matrix(1 0 0 1 366.0676 186.5919)"><tspan x="0" y="0" class="st3 st4 st5">RF01:</tspan><tspan x="0" y="20.4" class="st3 st4 st5">Marcar</tspan><tspan x="0" y="40.8" class="st3 st4 st5">Consulta</tspan></text>
<path class="st1" d="M311.9,137.6c-33,0-59.8-16.6-59.8-37.1s26.8-37.1,59.8-37.1s59.8,16.6,59.8,37.1"/>
<path class="st1" d="M371.8,100.5c0,20.5-26.8,37.1-59.8,37.1"/>
<rect x="279.6" y="73.1" class="st2" width="46.4" height="62.6"/>
<text transform="matrix(1 0 0 1 279.635 85.3164)"><tspan x="0" y="0" class="st3 st4 st5">RF06:</tspan><tspan x="0" y="20.4" class="st3 st4 st5">Gerar</tspan><tspan x="0" y="40.8" class="st3 st4 st5">Conta</tspan></text>
<path class="st1" d="M484.9,137.6c-33,0-59.8-16.6-59.8-37.1s26.8-37.1,59.8-37.1s59.8,16.6,59.8,37.1"/>
<path class="st1" d="M544.7,100.5c0,20.5-26.8,37.1-59.8,37.1"/>
<rect x="452.6" y="73.1" class="st2" width="66.9" height="62.6"/>
<text transform="matrix(1 0 0 1 452.5983 85.3163)"><tspan x="0" y="0" class="st3 st4 st5">RF05:</tspan><tspan x="0" y="20.4" class="st3 st4 st5">Gerar</tspan><tspan x="0" y="40.8" class="st3 st4 st5">Histórico</tspan></text>
<line class="st0" x1="321.5" y1="301.4" x2="378.3" y2="301.4"/>
<line class="st0" x1="147.6" y1="228" x2="218.2" y2="263.2"/>
<line class="st0" x1="222.5" y1="254.7" x2="214.4" y2="271"/>
<line class="st0" x1="231.6" y1="269.4" x2="222.5" y2="254.7"/>
<line class="st0" x1="214.4" y1="271" x2="231.6" y2="269.4"/>
<line class="st0" x1="150.8" y1="303.3" x2="185.7" y2="303.3"/>
<line class="st0" x1="185.7" y1="293.8" x2="185.7" y2="312"/>
<line class="st0" x1="200.3" y1="302.9" x2="185.7" y2="293.8"/>
<line class="st0" x1="185.7" y1="312" x2="200.3" y2="302.9"/>
<line class="st0" x1="147.6" y1="376.9" x2="220.9" y2="347.4"/>
<line class="st0" x1="217.3" y1="338.5" x2="224.1" y2="355.5"/>
<line class="st0" x1="234.3" y1="341.5" x2="217.3" y2="338.5"/>
<line class="st0" x1="224.1" y1="355.5" x2="234.3" y2="341.5"/>
<line class="st0" x1="398.4" y1="238.9" x2="398.4" y2="258.1"/>
<path class="st0" d="M353.5,144.3c1,1,1.9,1.9,2.9,2.9"/>
<path class="st0" d="M341.7,132.4c1.3,1.3,2.7,2.7,4,4"/>
<line class="st0" x1="370.5" y1="148.4" x2="357.7" y2="161.3"/>
<line class="st0" x1="374.5" y1="165.2" x2="370.5" y2="148.4"/>
<line class="st0" x1="357.7" y1="161.3" x2="374.5" y2="165.2"/>
<path class="st0" d="M443.7,154.4c-1.9,1.3-3.8,2.6-5.7,3.9"/>
<path class="st0" d="M457.9,144.6c-1.7,1.2-3.4,2.4-5.1,3.5"/>
<path class="st0" d="M469.8,136.4c-1.2,0.8-2.4,1.7-3.6,2.5"/>
<line class="st0" x1="443.4" y1="166.2" x2="433.1" y2="151.2"/>
<line class="st0" x1="426.2" y1="167" x2="443.4" y2="166.2"/>
<line class="st0" x1="433.1" y1="151.2" x2="426.2" y2="167"/>
<rect x="262.5" y="146.1" class="st2" width="158.4" height="62.6"/>
<text transform="matrix(1 0 0 1 262.4562 158.2455)" class="st6 st4 st5">&lt;&lt;extend&gt;&gt;</text>
<rect x="361.1" y="348.1" class="st2" width="158.4" height="62.6"/>
<text transform="matrix(1 0 0 1 361.0521 360.2282)" class="st3 st4 st5">Secretária</text>
<path class="st0" d="M624.2,159.4c0-5.2-4.2-9.5-9.5-9.5c-5.2,0-9.5,4.2-9.5,9.5s4.2,9.5,9.5,9.5
	C619.9,168.9,624.2,164.6,624.2,159.4z M619.6,159.4c0,2.7-2.2,4.9-4.9,4.9c-2.7,0-4.9-2.2-4.9-4.9c0-2.7,2.2-4.9,4.9-4.9
	C617.4,154.5,619.6,156.7,619.6,159.4z M602.3,229.8h4.1l5.4-42.5c0.2-1.2,1.3-2.1,2.5-2c1.2,0.2,2.1,1.3,2,2.5l-5.6,44.4
	c0,0,0,0,0,0l0,0c0,0,0,0,0,0c0,0.1,0,0.1,0,0.2c0,0,0,0,0,0.1c0,0.1,0,0.1,0,0.2c0,0,0,0,0,0.1c0,0,0,0.1-0.1,0.1c0,0,0,0,0,0.1
	c0,0.1-0.1,0.1-0.1,0.2c0,0,0,0.1-0.1,0.1c0,0,0,0,0,0.1c0,0-0.1,0.1-0.1,0.1c0,0,0,0-0.1,0.1c0,0-0.1,0.1-0.1,0.1c0,0,0,0-0.1,0.1
	c0,0-0.1,0.1-0.1,0.1c0,0-0.1,0-0.1,0.1c0,0-0.1,0-0.1,0.1c0,0-0.1,0-0.1,0.1c0,0-0.1,0-0.1,0.1c0,0-0.1,0-0.1,0c0,0-0.1,0-0.1,0.1
	c0,0-0.1,0-0.1,0c0,0-0.1,0-0.1,0c0,0-0.1,0-0.1,0c0,0-0.1,0-0.1,0c0,0,0,0-0.1,0c-0.1,0-0.1,0-0.2,0c0,0,0,0,0,0
	c-0.1,0-0.2,0-0.2,0c0,0,0,0,0,0h-6.1c-1.3,0-2.3-1-2.3-2.3C600,230.8,601,229.8,602.3,229.8z M593.8,203.3l7.2-17.8
	c2.2-5.4,5-11.2,11.2-12.3c1.4-0.2,9.7-0.3,11.4,0c6,1.1,9.7,6.7,12.7,11.9l0.6,1.1c0.3,0.6,0.4,1.3,0.2,2l-5,13
	c-0.5,1.2-1.8,1.7-2.9,1.3c-1.2-0.5-1.7-1.8-1.3-2.9l4.6-12l-0.1-0.1c-2.6-4.5-5.5-9-9.6-9.7c-1.1-0.2-8.7-0.2-9.8,0
	c-3.5,0.6-5.6,4.1-7.7,9.5L598,205c-0.4,0.9-1.2,1.4-2.1,1.4c-0.3,0-0.6-0.1-0.8-0.2C593.9,205.8,593.3,204.4,593.8,203.3z
	 M618.3,205.9c1.2-0.4,2.5,0.2,2.9,1.4l8.1,24c0,0,0,0,0,0c0,0.1,0,0.1,0,0.2c0,0,0,0,0,0.1c0,0,0,0.1,0,0.1c0,0,0,0.1,0,0.1
	c0,0,0,0.1,0,0.1c0,0,0,0.1,0,0.1c0,0,0,0,0,0c0,0,0,0,0,0.1c0,0.1,0,0.1,0,0.1c0,0,0,0.1,0,0.1c0,0,0,0.1,0,0.1c0,0,0,0.1,0,0.1
	c0,0,0,0.1,0,0.1c0,0,0,0.1,0,0.1c0,0,0,0.1,0,0.1c0,0,0,0.1,0,0.1c0,0,0,0.1,0,0.1c0,0,0,0.1-0.1,0.1c0,0,0,0.1-0.1,0.1
	c0,0,0,0.1-0.1,0.1c0,0,0,0.1-0.1,0.1c0,0,0,0-0.1,0.1c0,0-0.1,0.1-0.1,0.1c0,0,0,0-0.1,0.1c0,0-0.1,0.1-0.1,0.1c0,0,0,0-0.1,0
	c0,0-0.1,0.1-0.1,0.1c0,0,0,0-0.1,0c0,0-0.1,0-0.1,0.1c0,0-0.1,0-0.1,0c0,0-0.1,0-0.1,0c0,0-0.1,0-0.1,0c0,0,0,0-0.1,0c0,0,0,0,0,0
	c0,0-0.1,0-0.1,0c0,0-0.1,0-0.1,0c0,0,0,0-0.1,0c-0.1,0-0.1,0-0.2,0c0,0,0,0,0,0c-0.1,0-0.1,0-0.2,0c0,0,0,0,0,0H621
	c-1.3,0-2.3-1-2.3-2.3s1-2.3,2.3-2.3h3l-7.1-21C616.5,207.6,617.1,206.3,618.3,205.9z"/>
<rect x="578.5" y="240" class="st2" width="158.4" height="62.6"/>
<text transform="matrix(1 0 0 1 578.4625 252.1436)" class="st3 st4 st5">Veterinário</text>
<line class="st0" x1="458.2" y1="201.8" x2="593.8" y2="201.8"/>
<path class="st1" d="M624.5,90.6c-33,0-59.8-16.6-59.8-37.1s26.8-37.1,59.8-37.1c33,0,59.8,16.6,59.8,37.1"/>
<path class="st1" d="M684.4,53.5c0,20.5-26.8,37.1-59.8,37.1"/>
<rect x="592.2" y="26.1" class="st2" width="62.2" height="62.6"/>
<text transform="matrix(1 0 0 1 592.2375 38.3163)"><tspan x="0" y="0" class="st3 st4 st5">RF04:</tspan><tspan x="0" y="20.4" class="st3 st4 st5">Solicitar</tspan><tspan x="0" y="40.8" class="st3 st4 st5">Exames</tspan></text>
<line class="st0" x1="614.7" y1="150" x2="614.7" y2="90.2"/>
<path class="st1" d="M569.1,398.1c-33,0-59.8-16.6-59.8-37.1s26.8-37.1,59.8-37.1s59.8,16.6,59.8,37.1"/>
<path class="st1" d="M628.9,361c0,20.5-26.8,37.1-59.8,37.1"/>
<rect x="533.2" y="342" class="st2" width="86.5" height="62.6"/>
<text transform="matrix(1 0 0 1 533.1993 354.1425)"><tspan x="0" y="0" class="st3 st4 st5">RF02:</tspan><tspan x="0" y="20.4" class="st3 st4 st5">Cadastrar</tspan></text>
<line class="st0" x1="708.5" y1="298.5" x2="637.9" y2="333.8"/>
<line class="st0" x1="633.6" y1="325.2" x2="641.7" y2="341.5"/>
<line class="st0" x1="624.5" y1="339.9" x2="633.6" y2="325.2"/>
<line class="st0" x1="641.7" y1="341.5" x2="624.5" y2="339.9"/>
<line class="st0" x1="708.5" y1="425.5" x2="637.9" y2="390.2"/>
<line class="st0" x1="633.6" y1="398.8" x2="641.7" y2="382.5"/>
<line class="st0" x1="624.5" y1="384.1" x2="633.6" y2="398.8"/>
<line class="st0" x1="641.7" y1="382.5" x2="624.5" y2="384.1"/>
<line class="st0" x1="519.5" y1="338.5" x2="419.6" y2="311.4"/>
<path class="st1" d="M766.6,327.6c-33,0-59.8-16.6-59.8-37.1s26.8-37.1,59.8-37.1s59.8,16.6,59.8,37.1"/>
<path class="st1" d="M826.4,290.5c0,20.5-26.8,37.1-59.8,37.1"/>
<rect x="738.7" y="283.5" class="st2" width="86.5" height="62.6"/>
<text transform="matrix(1 0 0 1 738.6886 295.6729)" class="st3 st4 st5">Cliente</text>
<path class="st1" d="M768.3,468.7c-33,0-59.8-16.6-59.8-37.1s26.8-37.1,59.8-37.1c33,0,59.8,16.6,59.8,37.1"/>
<path class="st1" d="M828.1,431.6c0,20.5-26.8,37.1-59.8,37.1"/>
<rect x="740.4" y="424.6" class="st2" width="86.5" height="62.6"/>
<text transform="matrix(1 0 0 1 740.3988 436.7648)" class="st3 st4 st5">Animal</text>
<path class="st1" d="M764.2,162.3c-33,0-59.8-16.6-59.8-37.1s26.8-37.1,59.8-37.1s59.8,16.6,59.8,37.1"/>
<path class="st1" d="M824,125.2c0,20.5-26.8,37.1-59.8,37.1"/>
<rect x="727" y="108.3" class="st2" width="86.5" height="62.6"/>
<text transform="matrix(1 0 0 1 727.0391 120.4935)"><tspan x="0" y="0" class="st3 st4 st5">Informar</tspan><tspan x="0" y="20.4" class="st3 st4 st5">Sinstomas</tspan></text>
<line class="st0" x1="637" y1="188.2" x2="713.2" y2="144.6"/>
<rect x="454" y="146.1" class="st2" width="158.4" height="62.6"/>
<text transform="matrix(1 0 0 1 453.9925 158.2455)" class="st6 st4 st5">&lt;&lt;extend&gt;&gt;</text>
</svg>
