<?xml version="1.0" encoding="utf-8"?>
<!-- Generator: Adobe Illustrator 21.0.0, SVG Export Plug-In . SVG Version: 6.00 Build 0)  -->
<svg version="1.1" id="Camada_1" xmlns="http://www.w3.org/2000/svg" xmlns:xlink="http://www.w3.org/1999/xlink" x="0px" y="0px"
	 viewBox="0 0 621 303" style="enable-background:new 0 0 621 303;" xml:space="preserve">
<style type="text/css">
	.st0{fill:none;stroke:#FFFFFF;stroke-width:2;stroke-miterlimit:10;}
	.st1{fill:none;stroke:#FFFFFF;stroke-miterlimit:10;}
	.st2{fill:none;}
	.st3{fill:#FFFFFF;}
	.st4{font-family:'ArialMT';}
	.st5{font-size:17px;}
	.st6{font-size:15px;}
</style>
<ellipse class="st0" cx="262.1" cy="80.2" rx="59.8" ry="37.1"/>
<line class="st1" x1="125.9" y1="80.2" x2="203.5" y2="80.2"/>
<path class="st0" d="M75.5,40.7c8.1,0,14.7-6.6,14.7-14.7s-6.6-14.7-14.7-14.7c-8.1,0-14.7,6.6-14.7,14.7S67.4,40.7,75.5,40.7z
	 M75.5,18.4c4.2,0,7.6,3.4,7.6,7.6c0,4.2-3.4,7.6-7.6,7.6c-4.2,0-7.6-3.4-7.6-7.6C67.9,21.8,71.3,18.4,75.5,18.4z M98.3,138.9
	c0,1.9-1.6,3.5-3.5,3.5h-9.5c0,0,0,0,0,0c-0.1,0-0.2,0-0.4,0c0,0,0,0,0,0c-0.1,0-0.2,0-0.3,0c0,0-0.1,0-0.1,0c-0.1,0-0.2,0-0.2-0.1
	c0,0-0.1,0-0.1,0c-0.1,0-0.1,0-0.2-0.1c0,0-0.1,0-0.1-0.1c-0.1,0-0.1-0.1-0.2-0.1c0,0-0.1,0-0.1-0.1c-0.1,0-0.1-0.1-0.1-0.1
	c0,0-0.1-0.1-0.1-0.1c0,0-0.1-0.1-0.1-0.1c0,0-0.1-0.1-0.1-0.1c0,0-0.1-0.1-0.1-0.1c0,0-0.1-0.1-0.1-0.1c0,0-0.1-0.1-0.1-0.1
	c0,0-0.1-0.1-0.1-0.1c0-0.1-0.1-0.1-0.1-0.2c0,0,0-0.1-0.1-0.1c0-0.1-0.1-0.1-0.1-0.2c-0.1-0.1-0.1-0.2-0.1-0.3c0,0,0-0.1-0.1-0.1
	c0-0.1-0.1-0.2-0.1-0.2c0,0,0-0.1,0-0.1c0-0.1,0-0.2-0.1-0.2c0,0,0-0.1,0-0.1c0-0.1,0-0.2,0-0.2c0,0,0-0.1,0-0.1l0-0.1c0,0,0,0,0,0
	l-8.8-69c-0.2-1.9,1.1-3.7,3.1-3.9c1.9-0.2,3.7,1.1,3.9,3.1l8.4,66.1h6.4C96.8,135.4,98.3,137,98.3,138.9z M106.1,98.8
	c-0.4,0.2-0.9,0.3-1.3,0.3c-1.4,0-2.7-0.8-3.3-2.2L90.4,69.2c-3.4-8.4-6.6-13.8-12-14.7c-1.7-0.3-13.5-0.2-15.2,0.1
	c-6.4,1.2-10.9,8.1-15,15.1l-0.1,0.2l7.2,18.6c0.7,1.8-0.2,3.9-2,4.6c-1.8,0.7-3.9-0.2-4.6-2l-7.8-20.2c-0.4-1-0.3-2.1,0.2-3l1-1.7
	c4.7-8,10.4-16.8,19.8-18.5c2.5-0.5,15.4-0.4,17.6-0.1c9.6,1.6,14,10.7,17.4,19L108,94.2C108.8,96,107.9,98,106.1,98.8z M72.2,102.8
	l-11.1,32.6h4.6c1.9,0,3.5,1.6,3.5,3.5c0,1.9-1.6,3.5-3.5,3.5h-9.5c0,0,0,0,0,0c-0.1,0-0.2,0-0.3,0c0,0,0,0,0,0c-0.1,0-0.2,0-0.3,0
	c0,0-0.1,0-0.1,0c-0.1,0-0.1,0-0.2-0.1c0,0-0.1,0-0.1,0c0,0,0,0,0,0c0,0-0.1,0-0.1,0c-0.1,0-0.1,0-0.2-0.1c-0.1,0-0.1,0-0.2-0.1
	c-0.1,0-0.1,0-0.1-0.1c-0.1,0-0.1-0.1-0.2-0.1c0,0-0.1,0-0.1-0.1c-0.1,0-0.1-0.1-0.2-0.1c0,0-0.1,0-0.1-0.1c-0.1,0-0.1-0.1-0.2-0.2
	c0,0-0.1-0.1-0.1-0.1c0-0.1-0.1-0.1-0.1-0.2c0,0-0.1-0.1-0.1-0.1c0-0.1-0.1-0.1-0.1-0.2c0,0-0.1-0.1-0.1-0.1c0,0-0.1-0.1-0.1-0.1
	c0-0.1-0.1-0.1-0.1-0.2c0,0,0-0.1-0.1-0.1c0-0.1-0.1-0.1-0.1-0.2c0,0,0-0.1-0.1-0.1c0-0.1,0-0.1-0.1-0.2c0-0.1,0-0.1,0-0.2
	c0-0.1,0-0.1,0-0.2c0-0.1,0-0.1,0-0.2c0,0,0-0.1,0-0.1c0-0.1,0-0.2,0-0.2c0,0,0-0.1,0-0.1c0,0,0,0,0,0c0-0.1,0-0.1,0-0.2
	c0,0,0-0.1,0-0.1c0-0.1,0-0.1,0-0.2c0-0.1,0-0.1,0-0.2c0,0,0-0.1,0-0.1c0-0.1,0-0.2,0.1-0.2c0,0,0,0,0,0l12.6-37.3
	c0.6-1.8,2.6-2.8,4.5-2.2C71.8,98.9,72.8,100.9,72.2,102.8z"/>
<rect x="220.2" y="72.4" class="st2" width="158.4" height="62.6"/>
<text transform="matrix(1 0 0 1 220.1564 84.5643)" class="st3 st4 st5">Pagamento</text>
<rect x="45.7" y="153.3" class="st2" width="158.4" height="62.6"/>
<text transform="matrix(1 0 0 1 45.6952 165.4306)" class="st3 st4 st5">Cliente</text>
<ellipse class="st0" cx="493.9" cy="82.2" rx="59.8" ry="37.1"/>
<line class="st1" x1="336.7" y1="82.2" x2="433.4" y2="82.2"/>
<rect x="452" y="64.4" class="st2" width="158.4" height="62.6"/>
<text transform="matrix(1 0 0 1 452.0107 76.5643)"><tspan x="0" y="0" class="st3 st4 st5">Pagamento</tspan><tspan x="0" y="20.4" class="st3 st4 st5">   Fatura</tspan></text>
<line class="st1" x1="336.8" y1="73.5" x2="336.8" y2="89"/>
<line class="st1" x1="323.3" y1="81.3" x2="336.8" y2="73.5"/>
<line class="st1" x1="336.8" y1="89" x2="323.3" y2="81.3"/>
<ellipse class="st0" cx="163.1" cy="241.6" rx="59.8" ry="37.1"/>
<rect x="124.2" y="217.8" class="st2" width="158.4" height="62.6"/>
<text transform="matrix(1 0 0 1 124.1677 228.5654)"><tspan x="0" y="0" class="st3 st4 st6">Pagamento</tspan><tspan x="0" y="18" class="st3 st4 st6">Boleto</tspan><tspan x="0" y="36" class="st3 st4 st6">Bancário</tspan></text>
<ellipse class="st0" cx="301.2" cy="240.3" rx="59.8" ry="37.1"/>
<rect x="262.3" y="216.5" class="st2" width="158.4" height="62.6"/>
<text transform="matrix(1 0 0 1 262.258 227.2367)"><tspan x="0" y="0" class="st3 st4 st6">Pagamento</tspan><tspan x="0" y="18" class="st3 st4 st6">Cartáo de</tspan><tspan x="0" y="36" class="st3 st4 st6">Crédito</tspan></text>
<path class="st0" d="M507.6,154.6c0-8.1-6.6-14.7-14.7-14.7c-8.1,0-14.7,6.6-14.7,14.7c0,8.1,6.6,14.7,14.7,14.7
	C501,169.3,507.6,162.7,507.6,154.6z M500.5,154.6c0,4.2-3.4,7.6-7.6,7.6c-4.2,0-7.6-3.4-7.6-7.6c0-4.2,3.4-7.6,7.6-7.6
	C497.1,147,500.5,150.4,500.5,154.6z M473.6,264h6.4l8.4-66.1c0.2-1.9,2-3.3,3.9-3.1c1.9,0.2,3.3,2,3.1,3.9l-8.8,69c0,0,0,0,0,0
	l0,0.1c0,0,0,0.1,0,0.1c0,0.1,0,0.2,0,0.2c0,0,0,0.1,0,0.1c0,0.1,0,0.2-0.1,0.2c0,0,0,0.1,0,0.1c0,0.1-0.1,0.2-0.1,0.2
	c0,0,0,0.1-0.1,0.1c0,0.1-0.1,0.2-0.1,0.3c0,0.1-0.1,0.1-0.1,0.2c0,0,0,0.1-0.1,0.1c0,0.1-0.1,0.1-0.1,0.2c0,0-0.1,0.1-0.1,0.1
	c0,0-0.1,0.1-0.1,0.1c0,0-0.1,0.1-0.1,0.1c0,0-0.1,0.1-0.1,0.1c0,0-0.1,0.1-0.1,0.1c0,0-0.1,0.1-0.1,0.1c0,0-0.1,0.1-0.1,0.1
	c0,0-0.1,0.1-0.1,0.1c0,0-0.1,0-0.1,0.1c-0.1,0-0.1,0.1-0.2,0.1c0,0-0.1,0-0.1,0.1c-0.1,0-0.1,0-0.2,0.1c0,0-0.1,0-0.1,0
	c-0.1,0-0.2,0-0.2,0.1c0,0-0.1,0-0.1,0c-0.1,0-0.2,0-0.3,0c0,0,0,0,0,0c-0.1,0-0.2,0-0.4,0c0,0,0,0,0,0h-9.5c-1.9,0-3.5-1.6-3.5-3.5
	S471.6,264,473.6,264z M460.3,222.7l11.1-27.6c3.4-8.4,7.8-17.4,17.4-19c2.2-0.4,15.1-0.4,17.6,0.1c9.3,1.7,15.1,10.5,19.8,18.5
	l1,1.7c0.5,0.9,0.6,2,0.2,3l-7.8,20.2c-0.7,1.8-2.7,2.7-4.6,2c-1.8-0.7-2.7-2.7-2-4.6l7.2-18.6l-0.1-0.2c-4.1-7-8.6-13.9-15-15.1
	c-1.7-0.3-13.5-0.3-15.2-0.1c-5.4,0.9-8.6,6.3-12,14.7l-11.1,27.6c-0.6,1.4-1.9,2.2-3.3,2.2c-0.4,0-0.9-0.1-1.3-0.3
	C460.5,226.6,459.6,224.5,460.3,222.7z M498.4,226.9c1.8-0.6,3.8,0.4,4.5,2.2l12.6,37.3c0,0,0,0,0,0c0,0.1,0,0.2,0.1,0.2
	c0,0,0,0.1,0,0.1c0,0.1,0,0.1,0,0.2c0,0.1,0,0.1,0,0.2c0,0,0,0.1,0,0.1c0,0.1,0,0.1,0,0.2c0,0,0,0,0,0c0,0,0,0.1,0,0.1
	c0,0.1,0,0.2,0,0.2c0,0,0,0.1,0,0.1c0,0.1,0,0.1,0,0.2c0,0.1,0,0.1,0,0.2c0,0.1,0,0.1,0,0.2c0,0.1,0,0.1-0.1,0.2c0,0,0,0.1-0.1,0.1
	c0,0.1,0,0.1-0.1,0.2c0,0,0,0.1-0.1,0.1c0,0.1-0.1,0.1-0.1,0.2c0,0-0.1,0.1-0.1,0.1c0,0-0.1,0.1-0.1,0.1c0,0.1-0.1,0.1-0.1,0.2
	c0,0-0.1,0.1-0.1,0.1c0,0.1-0.1,0.1-0.1,0.2c0,0-0.1,0.1-0.1,0.1c-0.1,0.1-0.1,0.1-0.2,0.2c0,0-0.1,0-0.1,0.1
	c-0.1,0-0.1,0.1-0.2,0.1c0,0-0.1,0-0.1,0.1c-0.1,0-0.1,0.1-0.2,0.1c0,0-0.1,0.1-0.1,0.1c-0.1,0-0.1,0.1-0.2,0.1
	c-0.1,0-0.1,0.1-0.2,0.1c0,0-0.1,0-0.1,0c0,0,0,0,0,0c0,0-0.1,0-0.1,0c-0.1,0-0.1,0-0.2,0.1c0,0-0.1,0-0.1,0c-0.1,0-0.2,0-0.3,0
	c0,0,0,0,0,0c-0.1,0-0.2,0-0.3,0c0,0,0,0,0,0h-9.5c-1.9,0-3.5-1.6-3.5-3.5s1.6-3.5,3.5-3.5h4.6l-11.1-32.6
	C495.6,229.5,496.6,227.5,498.4,226.9z"/>
<rect x="457.6" y="281.4" class="st2" width="158.4" height="62.6"/>
<text transform="matrix(1 0 0 1 457.5855 293.5645)" class="st3 st4 st5">Cliente PJ</text>
<line class="st1" x1="278.3" y1="132.3" x2="309.1" y2="203.5"/>
<line class="st1" x1="286.3" y1="128.8" x2="272.1" y2="135"/>
<line class="st1" x1="273.8" y1="119.5" x2="286.3" y2="128.8"/>
<line class="st1" x1="272.1" y1="135" x2="273.8" y2="119.5"/>
<line class="st1" x1="229.6" y1="127.6" x2="176.9" y2="205.3"/>
<line class="st1" x1="236.6" y1="131.9" x2="223.8" y2="123.2"/>
<line class="st1" x1="237.8" y1="116.4" x2="236.6" y2="131.9"/>
<line class="st1" x1="223.8" y1="123.2" x2="237.8" y2="116.4"/>
<line class="st1" x1="493.9" y1="119.3" x2="492.9" y2="139.9"/>
</svg>
