<svg version="1.1" id="Camada_1" xmlns="http://www.w3.org/2000/svg" xmlns:xlink="http://www.w3.org/1999/xlink" x="0px" y="0px"
	 viewBox="0 0 1022 495.1" style="enable-background:new 0 0 1022 495.1;" xml:space="preserve">
	 <defs>
	<style>


	#Camada_1{

	fill:rgba(255, 255, 255, 0);
	stroke-dasharray:1300;
	stroke-dashoffset:0;
	-webkit-animation: dash 4s linear forwards;
	-o-animaiton: dash 4s linear forwards;
	-moz-animation: dash 4s linear forwards;
	animation: dash 4s linear forwards;
	}

	@-webkit-keyframes dash{
	from{
	stroke-dashoffset: 1300;

	}
	to{
	stroke-dashoffset: 0;
	fill:rgba(255, 255, 255, 1);
	}}



	</style>
	</defs>

<style type="text/css">
	.st0{fill:none;stroke:rgba(255,255,255,0.3);stroke-width:0.5;stroke-miterlimit:10;}
</style>
<image style="display:none;overflow:visible;" width="1024" height="576" xlink:href="5A630EB6.jpg"  transform="matrix(1 0 0 1 0 -82.8197)">
</image>
<line class="st0" x1="0" y1="146" x2="1024" y2="146"/>
<line class="st0" x1="0" y1="486" x2="429" y2="146"/>
<line class="st0" x1="0" y1="406" x2="411" y2="146"/>
<line class="st0" x1="0" y1="352" x2="394" y2="146"/>
<line class="st0" x1="0" y1="285" x2="354" y2="146"/>
<line class="st0" x1="0" y1="232.2" x2="280" y2="146"/>
<line class="st0" x1="110" y1="493.2" x2="95" y2="438"/>
<polyline class="st0" points="395.1,269.1 326.6,290.8 266,310 330.5,396.1 "/>
<polyline class="st0" points="483,249 395.1,269.1 0,267.2 334,146 "/>
<path class="st0" d="M578.6,284.9c1-0.3,4.1-1.2,6.4-4.2c2.7-3.3,2.7-7,2.7-8L540,231l-40.6,12.8L483,249l40.7,58.7"/>
<polyline class="st0" points="450,146 303.4,298.2 0,294.5 "/>
<line class="st0" x1="388.7" y1="271.2" x2="470" y2="146"/>
<polyline class="st0" points="486,146 448.4,256.9 0,256 "/>
<path class="st0" d="M504,242.4c0.3-29.7,0.6-59.4,1-89c5.1,3.9,10.5,8.5,16,14c9.4,9.4,16.6,18.7,22,26.8c0.9,7.9-0.5,13.4-2,17.2
	c-1.4,3.3-3.1,5.8-3.3,10c-0.2,4,1.1,7.4,2.3,9.7"/>
<path class="st0" d="M231.5,495.1c13.2-20.8,35.2-50.5,69.5-78.1c25.7-20.7,48.3-32.2,76-46c25.9-12.9,62.2-29,108-42.6"/>
<line class="st0" x1="384.6" y1="367.3" x2="326.6" y2="290.8"/>
<line class="st0" x1="373.4" y1="276" x2="425.5" y2="349.2"/>
<line class="st0" x1="409.9" y1="265.7" x2="460.4" y2="336.2"/>
<line class="st0" x1="435.2" y1="259.9" x2="478" y2="329"/>
<path class="st0" d="M95,438c14.5-21.7,39.5-53.5,79-82c35-25.2,68.5-38.7,92-46"/>
<line class="st0" x1="197" y1="340.9" x2="281.2" y2="434.3"/>
<polyline class="st0" points="241.4,480.3 133.1,391.1 0,387.6 "/>
<polyline class="st0" points="170,493.2 95,438 0,438 "/>
<line class="st0" x1="164.6" y1="363.1" x2="0" y2="363.1"/>
<line class="st0" x1="205.5" y1="336.2" x2="0" y2="336.2"/>
<polyline class="st0" points="258.1,312.6 0,316 370,146 "/>
<line class="st0" x1="355.6" y1="281.6" x2="0" y2="276"/>
<polyline class="st0" points="495.5,245 0,246 309,146 "/>
<line class="st0" x1="521.4" y1="236.9" x2="0" y2="236.9"/>
<line class="st0" x1="0" y1="225.9" x2="260.7" y2="146"/>
<line class="st0" x1="0.5" y1="218.6" x2="242" y2="147.6"/>
<line class="st0" x1="0" y1="202.3" x2="202.5" y2="146"/>
<line class="st0" x1="0" y1="196.8" x2="185" y2="146"/>
<line class="st0" x1="0.6" y1="189.1" x2="169" y2="146"/>
<line class="st0" x1="0.6" y1="181.5" x2="153.3" y2="146"/>
<line class="st0" x1="0.6" y1="174.1" x2="136.5" y2="146"/>
<line class="st0" x1="0.6" y1="167.6" x2="119.8" y2="146"/>
<line class="st0" x1="0.6" y1="161" x2="99.5" y2="146"/>
<path class="st0" d="M330.5,493.2c0.2-6.4,1.1-16.5,5.1-27.8c8-22.4,22.5-34,64-70.7c7.4-6.5,19.8-17.5,35.5-31.6
	c21-16.9,39.6-28.9,53.2-36.8c47.7-27.9,95.9-43.5,103.3-45.9c13.2-4.2,24-7,40.7-14.4c20.5-9.1,36.1-19.1,46-26
	c-0.8-3.7-2.7-9.6-7.3-14.7c-9.4-10.2-19.9-6.1-38.7-14.7c-5.3-2.4-18.6-8.6-28.4-21.8c-8.1-10.9-6.1-16.1-12.9-24.8
	c-5.3-6.8-15.2-14.7-35.3-18"/>
<polyline class="st0" points="505,146 505,153.3 403.7,153.3 -5.7,153.5 "/>
<line class="st0" x1="447.3" y1="257.3" x2="492.9" y2="323.7"/>
<line class="st0" x1="463.7" y1="253.4" x2="507.6" y2="315.7"/>
<line class="st0" x1="541.1" y1="299.7" x2="499.4" y2="243.8"/>
<line class="st0" x1="529.7" y1="234.3" x2="574.4" y2="286.4"/>
<path class="st0" d="M505,189c1.8-0.9,7.3-4,10.5-10.8c3.1-6.5,2.3-12.4,1.9-14.4h-128L-7,163.7"/>
<line class="st0" x1="542.8" y1="205.2" x2="515.5" y2="178.3"/>
<polyline class="st0" points="0,221.3 537.7,221.3 504.6,190.2 347.2,190.2 -4.3,190.2 "/>
<line class="st0" x1="538.7" y1="227.9" x2="0.6" y2="227.9"/>
<line class="st0" x1="531.7" y1="215.5" x2="0.6" y2="213.5"/>
<polyline class="st0" points="524.3,208.6 12.3,209.4 232.8,146 "/>
<line class="st0" x1="518.9" y1="203.7" x2="0" y2="203.7"/>
<line class="st0" x1="513.7" y1="198.8" x2="0" y2="198.8"/>
<line class="st0" x1="508.9" y1="194.3" x2="0" y2="194.3"/>
<line class="st0" x1="504.4" y1="186.2" x2="0.6" y2="186.2"/>
<line class="st0" x1="512.9" y1="182.5" x2="0" y2="182.5"/>
<line class="st0" x1="514.8" y1="179.5" x2="0" y2="179.5"/>
<line class="st0" x1="516.5" y1="175.7" x2="0" y2="175.7"/>
<line class="st0" x1="517.3" y1="172.7" x2="0.6" y2="172.7"/>
<line class="st0" x1="517.6" y1="170.7" x2="0.6" y2="170.7"/>
<line class="st0" x1="517.6" y1="167.7" x2="0.6" y2="167.7"/>
<line class="st0" x1="517.6" y1="165.6" x2="0.6" y2="165.6"/>
<line class="st0" x1="514.8" y1="161.5" x2="0.6" y2="161.5"/>
<polyline class="st0" points="512,159 0.6,159 84.8,146 "/>
<polyline class="st0" points="509.4,156.8 0.6,156.8 71.8,146 "/>
<line class="st0" x1="506.9" y1="154.9" x2="0.6" y2="154.9"/>
<polyline class="st0" points="505,151.7 0.6,151.7 46,146 "/>
<line class="st0" x1="505" y1="149.7" x2="0.6" y2="149.7"/>
<line class="st0" x1="505" y1="148" x2="0.6" y2="148"/>
<line class="st0" x1="0" y1="212.3" x2="18.8" y2="207.6"/>
<line class="st0" x1="0" y1="207.6" x2="214.5" y2="146"/>
<line class="st0" x1="0.6" y1="153.5" x2="58.1" y2="146"/>
<line class="st0" x1="1.3" y1="149.7" x2="32.5" y2="146"/>
<line class="st0" x1="1.3" y1="147.8" x2="19.4" y2="146"/>
<path class="st0" d="M510.5,157.8c12.3,2.7,31.3,8.9,47.3,24.2c4.5,4.3,10.1,9.8,14,18.8c5.9,13.7,2.2,22.8,4,32
	c2.2,10.7,12.5,24.4,49.3,36.4"/>
<line class="st0" x1="529.1" y1="163.6" x2="544.8" y2="146"/>
<line class="st0" x1="551.3" y1="176.4" x2="574.4" y2="152.5"/>
<line class="st0" x1="586.5" y1="249.7" x2="627" y2="208.6"/>
<line class="st0" x1="617.7" y1="266.6" x2="662" y2="219.2"/>
<path class="st0" d="M423,374c3.7,7.8,10.2,18.5,21.4,27.3c12.7,10,25.5,13,32,14.7c25.5,6.6,24.7,11.8,72.7,32
	c22.7,9.5,64.4,25.9,129.3,45.2"/>
<line class="st0" x1="431.1" y1="387.6" x2="341.7" y2="493.2"/>
<line class="st0" x1="456.6" y1="409.1" x2="402.3" y2="493.2"/>
<line class="st0" x1="526.4" y1="438" x2="492.9" y2="493.2"/>
<line class="st0" x1="629.3" y1="477.8" x2="622.5" y2="493.2"/>
<line class="st0" x1="499.4" y1="320" x2="499.4" y2="320"/>
<line class="st0" x1="500.2" y1="319.6" x2="498.8" y2="424.2"/>
<line class="st0" x1="614.6" y1="472.8" x2="563.9" y2="290.3"/>
<line class="st0" x1="648.6" y1="484.1" x2="1024" y2="484.1"/>
<line class="st0" x1="1024" y1="431" x2="515.6" y2="432.7"/>
<line class="st0" x1="1024" y1="390.5" x2="435.2" y2="392.6"/>
<line class="st0" x1="435.2" y1="363.1" x2="1024" y2="358.5"/>
<line class="st0" x1="472.2" y1="336.2" x2="1024" y2="334.5"/>
<line class="st0" x1="510.5" y1="314.2" x2="1024" y2="312.6"/>
<line class="st0" x1="591.7" y1="280.4" x2="1024" y2="280.4"/>
<line class="st0" x1="632.3" y1="266" x2="1024" y2="265.5"/>
<line class="st0" x1="654.8" y1="254.7" x2="1024" y2="253.4"/>
<polyline class="st0" points="669.4,246 1022,246 727.5,146 "/>
<line class="st0" x1="677.5" y1="236.9" x2="1024" y2="238.7"/>
<polyline class="st0" points="1022,294.5 559,292.2 515.6,238.7 "/>
<polyline class="st0" points="1022,213.5 642.7,214.5 602.2,259.9 "/>
<line class="st0" x1="1022" y1="205.8" x2="623" y2="205.8"/>
<polyline class="st0" points="1022,190.2 605,190.2 575.2,217.5 "/>
<polyline class="st0" points="1022,182.5 599.4,181.6 573.5,205.8 "/>
<line class="st0" x1="1022" y1="177.7" x2="597.8" y2="177.7"/>
<line class="st0" x1="1022" y1="172.7" x2="597.8" y2="172.7"/>
<polyline class="st0" points="567.2,192.6 593.5,167.7 1022,167.7 "/>
<line class="st0" x1="1022" y1="163.6" x2="591" y2="164"/>
<line class="st0" x1="1022" y1="154.8" x2="583.6" y2="156.8"/>
<line class="st0" x1="1022" y1="151.7" x2="578.2" y2="153.3"/>
<line class="st0" x1="1022" y1="148.8" x2="570.1" y2="149.7"/>
<line class="st0" x1="587.7" y1="160.3" x2="1022" y2="159"/>
<line class="st0" x1="617.7" y1="272" x2="748.1" y2="493.2"/>
<line class="st0" x1="657.1" y1="253.4" x2="870.5" y2="493.2"/>
<line class="st0" x1="997" y1="493.2" x2="581.5" y2="146"/>
<line class="st0" x1="1024" y1="426.5" x2="602.2" y2="146"/>
<line class="st0" x1="1024" y1="367" x2="617.7" y2="146"/>
<line class="st0" x1="1024" y1="329" x2="639.8" y2="146"/>
<line class="st0" x1="1024" y1="298.2" x2="657.1" y2="146"/>
<line class="st0" x1="1024" y1="276" x2="678.3" y2="146"/>
<line class="st0" x1="1024" y1="257.3" x2="697.5" y2="146"/>
<line class="st0" x1="748.1" y1="146" x2="1024" y2="235.7"/>
<path class="st0" d="M768.8,146l253.2,83.1L674.3,231c0,0-31.1,29.9-31.5,30.1"/>
<polyline class="st0" points="789.3,146 1022,221.3 666.3,221.3 "/>
<line class="st0" x1="806.5" y1="146" x2="1024" y2="216.8"/>
<line class="st0" x1="822.5" y1="146" x2="1024" y2="211"/>
<line class="st0" x1="839.4" y1="146" x2="1024" y2="203.6"/>
<polyline class="st0" points="854.5,146 1022,197.8 613.3,198.8 576.5,235.7 "/>
<line class="st0" x1="1022" y1="192.6" x2="868.5" y2="146"/>
<line class="st0" x1="1022" y1="186.2" x2="882" y2="146"/>
<line class="st0" x1="1022" y1="180.1" x2="895.5" y2="146"/>
<line class="st0" x1="1022" y1="176" x2="906.6" y2="146"/>
<line class="st0" x1="1022" y1="172" x2="919" y2="146"/>
<line class="st0" x1="1021.4" y1="167.7" x2="930.3" y2="146"/>
<line class="st0" x1="1021.4" y1="163.8" x2="945.3" y2="146"/>
<line class="st0" x1="1021.4" y1="159" x2="958.8" y2="146"/>
<line class="st0" x1="1021.4" y1="154.8" x2="970.5" y2="146"/>
<line class="st0" x1="1021.4" y1="151.7" x2="983.3" y2="146"/>
<line class="st0" x1="1021.4" y1="148.8" x2="997" y2="146"/>
<g>
	<path class="st0" d="M1.7,95.2c12.8,5.1,27.6,4.3,41.4,1.8s27.2-6.5,41.2-7.5c6.9-0.5,14-0.3,20.8-1.5c3.6-0.6,7.1-1.7,10.7-1.8
		c6.4-0.1,12.3,2.7,18.2,4.7c11.8,4.1,24.9,5.5,37.6,3.8c7.7-1,15.3-3,23-2.3c10.6,1,20.4,7.2,31,5.8c7.5-1,13.6-5.7,20.9-7.4
		c12.4-2.9,25,3.4,35.8,9.4"/>
</g>
<g>
	<path class="st0" d="M282.2,100.1c33.3,6.4,67.2-9.2,101-7.4c8.5,0.4,17,2,25.5,1.3c6.7-0.6,13.2-2.6,19.8-3.9
		c21.8-4.6,44.8-2.7,66.2-8.9c5.7-1.7,11.5-3.9,17.5-3.5c4.7,0.3,9.1,2.2,13.4,4.1c13.3,5.6,26.8,10.6,40.5,15
		c26.9,8.5,58.9,13.7,81.3-3.5"/>
</g>
<g>
	<path class="st0" d="M647.3,93.2c18.6-3.1,38-6.2,56.2-1.3c6.4,1.7,12.5,4.4,18.8,6.6c23.3,8.4,48.9,10.6,73.3,6.4
		c9.9-1.7,19.6-4.4,29.5-5.9c26.1-3.9,52.9,0.9,79-3c3.8-0.6,7.7-1.3,11.5-0.9c5.1,0.6,9.6,3.3,14,5.7c14.9,8.2,32.3,14.9,48.6,10
		c7.6-2.3,14.5-7,22.3-8.7c7.8-1.7,17.7,1,19.9,8.6"/>
</g>
<g>
	<path class="st0" d="M601,104.2c3.9-32.1-9.2-63.8-34.5-82.6C530.6-5,489.3,8.3,483.9,10.2c-5.9,2.1-43.5,15.3-55.5,51.8
		c-3.8,11.5-3.9,21.8-3.4,28.8"/>
</g>
</svg>
