<svg version="1.1" id="Camada_1" xmlns="http://www.w3.org/2000/svg" xmlns:xlink="http://www.w3.org/1999/xlink" x="0px" y="0px"
	 viewBox="0 0 1024 725" style="enable-background:new 0 0 1024 725;" xml:space="preserve">
	 <defs>
	<style>


	#Camada_1{

	fill:rgba(255, 255, 255, 0);
	stroke-dasharray:1300;
	stroke-dashoffset:0;
	-webkit-animation: dash 4s linear forwards;
	-o-animaiton: dash 4s linear forwards;
	-moz-animation: dash 4s linear forwards;
	animation: dash 10s linear forwards;
	}

	@-webkit-keyframes dash{
	from{
	stroke-dashoffset: 1300;

	}
	to{
	stroke-dashoffset: 0;
	fill:rgba(255, 255, 255, 1);
	}}



	</style>
	</defs>
<style type="text/css">
		.st0{fill:none;stroke:rgba(255, 255, 255,0.5);stroke-width:1;stroke-miterlimit:10;}
</style>
<image style="display:none;overflow:visible;" width="1024" height="725" xlink:href="32047FB7.jpg" >
</image>
<g>
	<path class="st0" d="M481.4,315.8c-4,2.2-7,6.1-8.2,10.5c-1.2,4.4-0.6,9.3,1.7,13.2c0.9,1.5,2,2.9,3.2,4.2c2.7,2.9,5.9,5.5,9.3,7.5
		"/>
</g>
<g>
	<path class="st0" d="M492.5,348.4c-2.3-1.7-4.1-3.9-5.4-6.4c-0.5-1-0.9-2.1-0.7-3.2c0.4-2.3,3.3-3.5,5.6-2.9
		c2.3,0.7,3.9,2.6,5.4,4.5c2.2,2.9,4.3,5.9,6.1,9"/>
</g>
<g>
	<path class="st0" d="M535,349c0-4.5,4.4-7.8,8.7-9.2c2.2-0.7,4.6-1.1,6.9-0.5c2.2,0.6,4.3,2.3,4.8,4.6c0.6,2.9-2,5.9-4.9,5.9"/>
</g>
<g>
	<path class="st0" d="M554.2,352.3c6.3-3.3,10.3-10.3,10.7-17.4c0.5-7.1-2.3-14.2-6.7-19.7"/>
</g>
<g>
	<path class="st0" d="M493.7,325.3c3,3.6,6.9,6.4,11.3,8.2"/>
</g>
<g>
	<path class="st0" d="M494.5,328c2.5,3.3,5.8,6.1,9.4,8.1"/>
</g>
<g>
	<path class="st0" d="M499.5,337.5c4.6,4.1,11.2,5,17.4,5.1c8.1,0.2,16.5-0.8,23.5-4.9"/>
</g>
<g>
	<path class="st0" d="M546,331.5c-3.8,1.7-7.6,3.5-11.4,5.2"/>
</g>
<g>
	<path class="st0" d="M546.5,326c-0.7,1.8-2.2,3.3-3.9,4.1"/>
</g>
<g>
	<path class="st0" d="M546.5,322c-0.7,2.1-2.2,3.9-4,4.9"/>
</g>
<g>
	<path class="st0" d="M547.5,318.5c-1.8,1.5-3.7,3-5.5,4.5"/>
</g>
<g>
	<path class="st0" d="M545.2,315.1c-1.2,1.5-2.6,2.8-4.3,3.7"/>
</g>
<g>
	<path class="st0" d="M539.1,318.1c-3.4,2.4-6.7,4.9-10.1,7.3"/>
</g>
<g>
	<path class="st0" d="M536.9,323.7c-3.2,5.4-8.5,9.6-14.5,11.4"/>
</g>
<g>
	<path class="st0" d="M538.7,328.7c-3.9,3.7-8.6,6.6-13.7,8.3"/>
</g>
<g>
	<path class="st0" d="M534.4,336.3c-4.2,2.4-9.1,3.6-13.9,3.3"/>
</g>
<g>
	<path class="st0" d="M520.5,337.9c-3.7,0.5-7.5,0.2-11-0.8"/>
</g>
<g>
	<path class="st0" d="M509.4,330.7c-2.6-1.1-4.8-2.9-6.3-5.3"/>
</g>
<g>
	<path class="st0" d="M506.9,324.6c-1.8-1.2-3-3.4-2.8-5.6"/>
</g>
<g>
	<path class="st0" d="M500.9,322c-1.4-1.4-2.1-3.5-1.9-5.5"/>
</g>
<g>
	<path class="st0" d="M495,319c-0.2-2-0.4-4-0.6-6"/>
</g>
<g>
	<path class="st0" d="M495,309.5c-3.9-0.6-8,2.6-8.3,6.6"/>
</g>
<g>
	<path class="st0" d="M490.7,317.6c-1.1,3.2-1.7,6.6-1.7,9.9"/>
</g>
<g>
	<path class="st0" d="M475.5,327.5c-0.3,1.2,0.8,2.4,2,2.4"/>
</g>
<g>
	<path class="st0" d="M474,332c1,1.5,2.7,2.5,4.5,2.5"/>
</g>
<g>
	<path class="st0" d="M475.5,337c1.3,0.2,2.7,0.4,4,0.6"/>
</g>
<g>
	<path class="st0" d="M497.5,314c0.2-1.2,0.4-2.3,0.6-3.5"/>
</g>
<g>
	<path class="st0" d="M500,316c0.2-2,0.9-3.9,2.1-5.5"/>
</g>
<g>
	<path class="st0" d="M497.5,300c0.8-2.4,2.4-4.6,4.5-6"/>
</g>
<g>
	<path class="st0" d="M501,291.5c0.8-1.4,2-2.4,3.5-3"/>
</g>
<g>
	<path class="st0" d="M534.1,306.2c1.6-0.6,2.9-2,3.3-3.7"/>
</g>
<g>
	<path class="st0" d="M538.6,305.1c1-0.7,2-1.3,3-2"/>
</g>
<g>
	<path class="st0" d="M537,311.5c1.8,0.3,3.7-0.3,5-1.4"/>
</g>
<g>
	<path class="st0" d="M547.5,311c0.7-0.5,1.3-1,2-1.5"/>
</g>
<g>
	<path class="st0" d="M549,315.1c1.8-0.1,3.6-0.9,5-2.1"/>
</g>
<g>
	<path class="st0" d="M554.5,318.9c1.4-0.5,3-0.7,4.5-0.4"/>
</g>
<g>
	<path class="st0" d="M557,323.6c0.8-0.2,1.7-0.3,2.5-0.5"/>
</g>
<g>
	<path class="st0" d="M559.5,327.5c1-0.2,2-0.3,3-0.5"/>
</g>
<g>
	<path class="st0" d="M561,330.5c0.7,0.3,1.3,0.7,2,1"/>
</g>
<g>
	<path class="st0" d="M564,331c-1.2-0.7-2.8-0.8-4-0.1"/>
</g>
<g>
	<path class="st0" d="M564.5,334.4c-2.1-0.7-4.4-0.7-6.5,0.1"/>
</g>
<g>
	<path class="st0" d="M531.6,345.6c-4.5,4.9-10.9,8-17.6,8.5"/>
</g>
<g>
	<path class="st0" d="M529.6,344.1c-4.8,3.5-10.6,5.6-16.6,5.9"/>
</g>
<g>
	<path class="st0" d="M527,344c-6.4,2.2-13.3,3-20,2.4"/>
</g>
<g>
	<path class="st0" d="M514.5,344.8c-4.7,0.8-9.7,0.3-14.1-1.6"/>
</g>
<g>
	<path class="st0" d="M515,353.7c-2.5-0.1-5-1.2-6.7-3"/>
</g>
<g>
	<path class="st0" d="M506,351.7c1.3,0.8,1.6,2.4,2.3,3.7c1.7,3,5.5,4,8.9,4.6c2.8,0.5,5.9,1,8.5-0.1c2.8-1.2,4.5-3.9,6.1-6.4"/>
</g>
<g>
	<path class="st0" d="M531,350.5c-3.1,3.1-7.2,5.1-11.5,5.6"/>
</g>
<g>
	<path class="st0" d="M526.4,367.5c0.9,3.4-0.6,7.4-3.5,9.4"/>
</g>
<g>
	<path class="st0" d="M530.5,373.5c0,0.7,0,1.3,0,2"/>
</g>
<g>
	<path class="st0" d="M513,380.5c-1,3.6-0.6,7.6,1,11"/>
</g>
<g>
	<path class="st0" d="M549.4,354.9c-3.3,2.4-6.6,4.7-9.9,7.1"/>
</g>
<g>
	<path class="st0" d="M546.1,352.7c-3.1,1.8-6,3.9-8.7,6.2"/>
</g>
<g>
	<path class="st0" d="M540.7,350.6c-2.7,2.9-5,6.2-6.9,9.7"/>
</g>
<g>
	<path class="st0" d="M497.7,355.8c4.2,3.3,8.6,6.3,13.3,8.9"/>
</g>
<g>
	<path class="st0" d="M499.1,351c2.1,3.6,5.5,6.3,9.4,7.6"/>
</g>
<g>
	<path class="st0" d="M491,356c2.7,3.9,6.9,6.8,11.5,7.9"/>
</g>
<g>
	<path class="st0" d="M503,391.6c-6.1,1.6-12.3,3.3-17.9,6.3c-5.6,3-10.6,7.5-13,13.4"/>
</g>
<g>
	<path class="st0" d="M474.5,406.6c-6.7,1.4-12.9,5.6-16.6,11.3c-1.3,2-2.5,4.3-4.6,5.6c-1.5,0.9-3.8,1.7-3.8,3.5"/>
</g>
<g>
	<path class="st0" d="M503.1,391.8c4.1,1.7,8.2,3.3,12.3,5"/>
</g>
<g>
	<path class="st0" d="M520.3,397.6c5.9-2.3,11.8-4.7,18.1-5.3c6.3-0.6,13.1,0.9,17.6,5.3c2.6,2.5,4.2,5.8,6.9,8.2
		c3.4,3,8.1,4.1,11.6,6.9c5.7,4.5,8.8,13.3,16,14"/>
</g>
<g>
	<path class="st0" d="M476,414.5c0.7,1.2,2.2,1.4,3.6,1.6c5.7,0.6,12.3,0.5,16.3-3.7"/>
</g>
<g>
	<path class="st0" d="M496.8,410.8c10.7,4.7,23.1,5,34,0.8c6.3-2.4,12.6-6.2,19.1-5"/>
</g>
<g>
	<path class="st0" d="M539.3,409.9c9.7,3.3,19.6,6.8,27.9,13"/>
</g>
<g>
	<path class="st0" d="M472.5,445.3c6.9,10,19.9,13.7,31.9,15.2c20,2.5,40.9,0.9,59.1-7.7"/>
</g>
<g>
	<path class="st0" d="M504.5,464.9c-4,0.8-7.9,2.1-11.6,3.7c16.4-2.8,33.4-5.6,49.6-1.5"/>
</g>
<g>
	<path class="st0" d="M495.5,464.5c-4.3-0.3-8.7,0.6-12.5,2.6"/>
</g>
<g>
	<path class="st0" d="M487,461.6c-3.8-0.9-7.9,0.5-10.5,3.4"/>
</g>
<g>
	<path class="st0" d="M543.5,464.5c3.2,0.6,6.7-0.6,9-3"/>
</g>
<g>
	<path class="st0" d="M460.7,432.6c3.8-6,12.1-7.7,19.1-6.7c7.1,1,13.8,3.9,20.9,4.7c3.7,0.4,7.5,0.3,11.2,0.2
		c4.8-0.2,9.5-0.3,14.3-0.5c3.7-0.1,7.5-0.3,11.1-1.1c3.2-0.8,6.2-2.1,9.4-3c5.7-1.7,11.8-2.3,17.5-0.7c5.7,1.5,11,5.3,13.5,10.6"/>
</g>
<g>
	<path class="st0" d="M481.6,427c-1,1.3-2,2.7-3,4"/>
</g>
<g>
	<path class="st0" d="M485.3,427.9c-1.7,0.5-3.2,1.8-4,3.4"/>
</g>
<g>
	<path class="st0" d="M488.3,428.3c-1.5,1.6-2.7,3.4-3.6,5.4"/>
</g>
<g>
	<path class="st0" d="M491.9,429.5c-1.9,0.8-3.4,2.5-3.9,4.5"/>
</g>
<g>
	<path class="st0" d="M495.1,430.1c-1.5,1.4-2.4,3.5-2.6,5.5"/>
</g>
<g>
	<path class="st0" d="M498.7,431c-2.4,1.3-3.8,4.3-3.3,7"/>
</g>
<g>
	<path class="st0" d="M500.9,431c-1.3,2.8-1.7,6-1.2,9"/>
</g>
<g>
	<path class="st0" d="M505.5,431.6c-1.5,2.6-2.1,5.8-1.4,8.7"/>
</g>
<g>
	<path class="st0" d="M509.8,430.8c-2.2,2.4-2.2,6.4-0.2,8.9"/>
</g>
<g>
	<path class="st0" d="M513.7,431c1.1,2.5,1.4,5.4,0.6,8"/>
</g>
<g>
	<path class="st0" d="M517.6,431.7c0.9,2.9,1.2,6,1.1,9"/>
</g>
<g>
	<path class="st0" d="M521.1,430.6c1.1,3.2,2.1,6.4,2.8,9.7"/>
</g>
<g>
	<path class="st0" d="M525.4,430.6c0.9,3.5,1.2,7.1,0.9,10.7"/>
</g>
<g>
	<path class="st0" d="M528.4,431c1.6,2.6,2.6,5.6,2.9,8.7"/>
</g>
<g>
	<path class="st0" d="M531.7,430.6c2.3,2.3,4.2,4.9,5.6,7.7"/>
</g>
<g>
	<path class="st0" d="M535.6,430c3.1,1.8,5.4,5.1,6,8.6"/>
</g>
<g>
	<path class="st0" d="M540.3,429c2.7,1.9,4.5,5,4.8,8.3"/>
</g>
<g>
	<path class="st0" d="M543.9,427.8c2.6,1.4,4.7,3.7,5.9,6.5"/>
</g>
<g>
	<path class="st0" d="M549.7,429.3"/>
</g>
<g>
	<path class="st0" d="M547.3,426.1c2.6,1.5,4.7,3.9,5.9,6.7"/>
</g>
<g>
	<path class="st0" d="M551.4,425.3c1.8,1.6,3.2,3.6,4.2,5.7"/>
</g>
<g>
	<path class="st0" d="M555.7,424.9c2.1,1.4,3.8,3.4,4.7,5.7"/>
</g>
<g>
	<path class="st0" d="M483.7,440.3c-2.6,0-5.2,1.7-6.4,4"/>
</g>
<g>
	<path class="st0" d="M486.7,442.3c-0.3,1.4-1,2.7-2.1,3.6"/>
</g>
<g>
	<path class="st0" d="M491.6,445c0.4,1.2,0,2.5-0.9,3.3"/>
</g>
<g>
	<path class="st0" d="M494.4,446c-0.7,2.4-2,4.6-3.7,6.3"/>
</g>
<g>
	<path class="st0" d="M498.6,451.3c-1.4,1.7-2.4,3.6-2.9,5.7"/>
</g>
<g>
	<path class="st0" d="M501.4,452.4c-1.3,1.8-1.6,4.2-1,6.4"/>
</g>
<g>
	<path class="st0" d="M504.4,455.4c-0.4,1.5-0.5,3.1-0.2,4.7"/>
</g>
<g>
	<path class="st0" d="M507.7,456c-0.2,1.4,0.1,2.8,0.6,4"/>
</g>
<g>
	<path class="st0" d="M513.7,448.7c1.6,3.8,2.1,8,1.6,12"/>
</g>
<g>
	<path class="st0" d="M517.9,450c0.7,3.2,0.9,6.4,0.7,9.7"/>
</g>
<g>
	<path class="st0" d="M520.2,449.1c1.3,3.5,2.2,7.2,2.6,10.9"/>
</g>
<g>
	<path class="st0" d="M524.7,448.6c1.4,3.4,1.9,7.1,1.5,10.7"/>
</g>
<g>
	<path class="st0" d="M530.7,446.6c0.9,2.2,1.8,4.5,2.2,6.8c0.3,2.4,0.1,4.9-1.2,6.9"/>
</g>
<g>
	<path class="st0" d="M541.1,444.8c1.5,0.9,2,2.8,2.2,4.6c0.3,2.8,0.1,5.6-0.4,8.3"/>
</g>
<g>
	<path class="st0" d="M546.5,444.4c2.4,4,3.1,9.1,1.7,13.7"/>
</g>
<g>
	<path class="st0" d="M549.6,439.7c3.2,3.7,4.5,8.9,3.4,13.7"/>
</g>
<g>
	<path class="st0" d="M555.7,440.3c1.5,2.6,2.3,5.6,2.4,8.7"/>
</g>
<g>
	<path class="st0" d="M559,439.4c1.2,1.8,2,3.8,2.4,6"/>
</g>
<g>
	<path class="st0" d="M561.5,438.5c1.2,1.1,1.9,2.8,1.8,4.5"/>
</g>
<g>
	<path class="st0" d="M495,402.3c-0.2,2.7,0.4,5.6,1.7,8"/>
</g>
<g>
	<path class="st0" d="M508.7,405.3c-0.4,2.6,0.3,5.3,2,7.3"/>
</g>
<g>
	<path class="st0" d="M515.1,408c-0.4,1.7-0.2,3.5,0.5,5"/>
</g>
<g>
	<path class="st0" d="M520,413c1.5-1.3,2.6-2.9,3.4-4.6"/>
</g>
<g>
	<path class="st0" d="M527.5,412.2c2-1.8,3.5-4.2,4-6.9"/>
</g>
<g>
	<path class="st0" d="M535.1,394c0.4,1.5,0.6,3.1,0.6,4.7"/>
</g>
<g>
	<path class="st0" d="M555.3,405.3c-0.3,1.7-1.7,3-3.3,3.6s-3.3,0.6-5,0.5"/>
</g>
<g>
	<path class="st0" d="M557,407c-0.7,1.8-2.5,3-4.4,3.2"/>
</g>
<g>
	<path class="st0" d="M557.4,410.1c-1.6,0.7-3.1,1.3-4.7,2"/>
</g>
<g>
	<path class="st0" d="M560.4,411.7c-1,1.4-2.7,2.4-4.4,2.6"/>
</g>
<g>
	<path class="st0" d="M573.1,418.8c-1.7,1.5-4.2,2.1-6.4,1.5"/>
</g>
<g>
	<path class="st0" d="M576.5,421.1c-1.7,2-4.5,2.9-7.1,2.5"/>
</g>
<g>
	<path class="st0" d="M469.3,416.7c2.1,3.2,5.9,5,9.7,4.7"/>
</g>
<g>
	<path class="st0" d="M464.6,422.8c1.2,0.6,2.7,0.9,4.1,0.9"/>
</g>
<g>
	<path class="st0" d="M465.3,432c-1.3,0.6-2.4,1.7-3,3"/>
</g>
<g>
	<path class="st0" d="M466,434.7c-0.5,1.1-1.1,2.2-1.6,3.4"/>
</g>
<g>
	<path class="st0" d="M349.3,354.7c4.8,4.4,8.3,10.1,10.1,16.4"/>
</g>
<g>
	<path class="st0" d="M367.1,365c0.3,0.5,0.7,1,1,1.5"/>
</g>
<g>
	<path class="st0" d="M369.5,344.6c0.5-0.2,1-0.3,1.5-0.5"/>
</g>
<g>
	<path class="st0" d="M374.5,344c0,0.3,0,0.7,0,1"/>
</g>
<g>
	<path class="st0" d="M372,340.5"/>
</g>
<g>
	<path class="st0" d="M369.5,337"/>
</g>
<g>
	<path class="st0" d="M364,335"/>
</g>
<g>
	<path class="st0" d="M352.5,334c0.2,0.2,0.3,0.3,0.5,0.5"/>
</g>
<g>
	<path class="st0" d="M376.9,334.5c-0.2,0.5-0.3,1-0.5,1.5"/>
</g>
<g>
	<path class="st0" d="M381,335.5"/>
</g>
<g>
	<path class="st0" d="M381,338c0,0.5,0,1,0,1.5"/>
</g>
<g>
	<path class="st0" d="M442,328.5c-1.1,1-2.6,1.6-4,1.5"/>
</g>
<g>
	<path class="st0" d="M689.7,337.1c-3,4.9-5.6,10-7.8,15.4"/>
</g>
<g>
	<path class="st0" d="M540,295.5c-0.8,0-1.7,0-2.5,0"/>
</g>
<g>
	<path class="st0" d="M537,291"/>
</g>
<g>
	<path class="st0" d="M536,278"/>
</g>
<g>
	<path class="st0" d="M533,267.5"/>
</g>
<g>
	<path class="st0" d="M525.5,262.5"/>
</g>
<g>
	<path class="st0" d="M520,267"/>
</g>
<g>
	<path class="st0" d="M517,273.5"/>
</g>
<g>
	<path class="st0" d="M511,277.5"/>
</g>
<g>
	<path class="st0" d="M509.5,264.5c0,0.3,0,0.7,0,1"/>
</g>
<g>
	<path class="st0" d="M514.5,259.5"/>
</g>
<g>
	<path class="st0" d="M520,260"/>
</g>
<g>
	<path class="st0" d="M342.5,332.6c1.1,19.3,7.9,37.8,12.3,56.6c2.3,9.8,4,19.7,7.1,29.2c9.5,29.2,31.3,52.5,53.3,73.9
		c14.9,14.5,30.3,28.7,48.5,38.6c27,14.7,59.4,19.1,89.3,12.1"/>
</g>
<g>
	<path class="st0" d="M697.4,331.5c-2.6,31.5-8.2,62.8-16.9,93.3c-2.4,8.5-5.1,17.1-9.5,24.8c-5.1,9-12.3,16.7-19.7,24
		c-16.6,16.5-34.3,32-53,46.2c-13.3,10.2-27.7,19.9-44.2,22.9"/>
</g>
<g>
	<path class="st0" d="M380.3,454.5c1.1,23.5,2.3,47.2,7.1,70.2c2.4,11.6,5.8,23.5,3.9,35.2"/>
</g>
<g>
	<path class="st0" d="M665.8,458c-4,31-5.8,62.3-5.4,93.5"/>
</g>
<g>
	<path class="st0" d="M396,503.5c1.1,16.8,2.9,33.6,5.3,50.4c1.4-1.5,2.7-3.1,3.7-5c1.1-0.6,2.2,0.9,2.6,2.1
		c2.1,6.6,4.1,13.1,6.2,19.7c0.8-0.4,1.7-0.8,2.5-1.3c1.4,2.1,2.3,4.5,2.7,7"/>
</g>
<g>
	<path class="st0" d="M397.2,503.1c2.3,12.1,6.1,24,11.3,35.1c2.1-2.4,3.9-5.1,5.3-8c1.8,6.8,3.6,13.7,5.4,20.5
		c2.7-1.5,5.2-3.5,7.2-5.9c5.5,14.1,10.9,28.2,16.3,42.3"/>
</g>
<g>
	<path class="st0" d="M389.5,551.6c-2.4,0.2-3.7,3.2-3.1,5.5s2.5,4,4.3,5.5c12.8,10.6,27.7,18.6,43.5,23.4
		c18.6,5.6,38.3,6.9,57.7,8.1c12.3,0.8,24.6,1.5,37,2.3c4.6,0.3,9.3,0.6,13.9-0.1c4.8-0.7,9.4-2.4,14.1-3.9
		c11.4-3.6,23.2-5.8,35.1-6.5"/>
</g>
<g>
	<path class="st0" d="M592.2,586.4c22.1-5.6,43.6-14,63.6-24.9c2.6-1.4,5.3-3,6.8-5.5c1.5-2.5,1.4-6.3-1.1-8"/>
</g>
<g>
	<path class="st0" d="M661.2,542.5c2.3,0.4,4,2.3,4.8,4.5c0.7,2.2,0.7,4.5,0.6,6.8c-0.2,7-0.4,14-0.6,21c-0.1,4.3,0,9.2,3.1,12.2"/>
</g>
<g>
	<path class="st0" d="M388.9,547.7c-2.5-0.4-4.9,1.5-5.9,3.8s-0.9,4.9-0.8,7.4c0.8,18.2,1.8,36.4,3.2,54.6"/>
</g>
<g>
	<path class="st0" d="M387.7,560.3c1.2,1.4,0.7,3.6-0.3,5.1s-2.5,2.8-3.3,4.4c-0.7,1.5-0.9,3.3-0.9,5c-0.1,12.5,4.5,24.4,9.1,36"/>
</g>
<g>
	<path class="st0" d="M392.5,563.5c0,2.1,0,4.1,0.1,6.2c0,0.6,0,1.1-0.3,1.6c-0.4,0.7-1.2,1.1-2,1.5c-2.4,1.4-3.5,4.3-3.6,7.1
		c0,2.8,0.8,5.4,1.7,8c2.7,8.2,5.5,16.3,8.2,24.5"/>
</g>
<g>
	<path class="st0" d="M399.8,568.6c0.8,2,0.3,4.4-1.2,6c-1.6,1.7-4.3,2.4-5.5,4.4c-0.6,0.9-0.7,2-0.9,3.1c-0.3,2.2-0.6,4.4-0.3,6.6
		c0.6,3.6,2.8,6.7,4,10.2c1.5,4.1,1.7,8.8,4.5,12.1"/>
</g>
<g>
	<path class="st0" d="M404.8,611.5c-0.6-5.7-2.3-11.3-5-16.3c-1.8-3.3-4-6.9-2.9-10.5c0.5-1.5,1.6-2.8,3-3.5
		c0.7-0.3,1.5-0.6,2.1-1.1c1.8-1.7,0.4-4.7,0.9-7.1"/>
</g>
<g>
	<path class="st0" d="M409.7,576.1c0.4,2,0.7,4,0.4,6s-1.3,4-3.1,4.9c-1,0.5-2.1,0.7-3,1.4c-1.1,0.9-1.4,2.4-1.2,3.8
		c0.2,1.4,0.8,2.6,1.4,3.9c1.8,4.4,2.4,9.1,2.9,13.8"/>
</g>
<g>
	<path class="st0" d="M413.4,610c-1.2-5.5-2.3-11-3.5-16.5c-0.3-1.5-0.6-3.2,0.1-4.6c0.8-1.7,2.9-2.4,3.7-4.1
		c0.7-1.5,0.2-3.1-0.3-4.7"/>
</g>
<g>
	<path class="st0" d="M420.3,583.2c1.2,1.4,0,3.6-1.4,4.6s-3.4,1.6-4.4,3.1c-1.3,1.8-0.8,4.2-0.4,6.4c0.9,4.1,1.8,8.3,2.8,12.4"/>
</g>
<g>
	<path class="st0" d="M422.7,584.7c1,1.7,0.6,3.9-0.2,5.6c-0.8,1.8-2,3.4-2.4,5.4c-0.3,1.5-0.1,3,0.1,4.5c0.4,2.7,0.7,5.5,1.1,8.2"
		/>
</g>
<g>
	<path class="st0" d="M429,586c-0.5,5.4,0.2,10.9,2,16"/>
</g>
<g>
	<path class="st0" d="M433.5,587.5c0,7.2,0,14.3,0,21.5"/>
</g>
<g>
	<path class="st0" d="M446.1,591c-0.5,5.3-0.4,10.8,0.5,16.1"/>
</g>
<g>
	<path class="st0" d="M451.9,592.5c-1,4.5-0.4,9.4,1.6,13.6"/>
</g>
<g>
	<path class="st0" d="M459.2,594c0.9,4.4,1.7,8.7,2.6,13.1"/>
</g>
<g>
	<path class="st0" d="M463.6,594.5c0.9,3.1,1.3,6.3,1.4,9.5"/>
</g>
<g>
	<path class="st0" d="M474.4,595c0.6,3.5,1.3,7,1.9,10.5"/>
</g>
<g>
	<path class="st0" d="M478.4,595.5c0.7,3.5,1.5,7,2.2,10.5"/>
</g>
<g>
	<path class="st0" d="M490.1,597.5c0.8,2.7,1.7,5.3,2.5,8"/>
</g>
<g>
	<path class="st0" d="M495.5,598.5c1.5,3.3,2.4,6.9,2.5,10.5"/>
</g>
<g>
	<path class="st0" d="M508,599c0.5,2.5,0.7,5,0.5,7.5"/>
</g>
<g>
	<path class="st0" d="M511.5,598.5c0.8,1.2,1.2,2.6,1,4"/>
</g>
<g>
	<path class="st0" d="M591,600c-0.2-4.2-0.7-8.4-1.6-12.5"/>
</g>
<g>
	<path class="st0" d="M587.1,575c0.9,2.3,1.5,4.6,1.8,7"/>
</g>
<g>
	<path class="st0" d="M627.6,576.5c-0.3,3.9-1.2,7.8-2.7,11.4"/>
</g>
<g>
	<path class="st0" d="M624,593c0,0.7,0,1.3,0,2"/>
</g>
<g>
	<path class="st0" d="M638.4,572.2c-1.9,1-2.8,3.8-1.7,5.7"/>
</g>
<g>
	<path class="st0" d="M634.6,586c0.5,2.3,0.7,4.7,0.4,7"/>
</g>
<g>
	<path class="st0" d="M647.1,592.3c1.2-2.6,1.6-5.6,1.1-8.5c-0.3-1.9-1.1-3.8-1.1-5.8c-0.1-3.8,2.5-7.1,5-10"/>
</g>
<g>
	<path class="st0" d="M386.6,524c-25.1,17-55.6,23.8-82.3,38c-13.7,7.3-26.3,16.4-38.6,25.8c-0.5,0.4-1,0.8-1.3,1.3
		c-0.5,0.9-0.2,2,0.1,3c2.5,8.8,5.3,17.5,8.2,26.2c4.2,12.6,9,25.3,17.5,35.5c2.1,2.6,4.6,5.5,4.1,8.7c-0.2,1.2-0.7,2.2-1,3.4
		c-0.6,2.9,1,6,3.7,7.2c2.7,1.1,6.1,0.1,7.7-2.4"/>
</g>
<g>
	<path class="st0" d="M305.5,670.9c0.7,3.3,3.6,5.7,6.6,7.2c3,1.5,6.3,2.4,9.1,4.2c4.7,3,7.5,8.2,12,11.6
		c6.3,4.8,15.7,5.9,19.7,12.7"/>
</g>
<g>
	<path class="st0" d="M334.5,640.5c-0.2,3.4-0.3,6.9,0.5,10.2c0.5,2.2,1.3,4.2,2.2,6.2c4.1,10,8.2,19.9,12.2,29.9"/>
</g>
<g>
	<path class="st0" d="M348.8,691.6c0.9,3,1.9,5.9,2.8,8.9"/>
</g>
<g>
	<path class="st0" d="M307.4,654c2.8,0.8,3.6,4.3,3.5,7.2c0,2.9-0.3,6.2,1.9,8.2c0.8,0.8,1.9,1.2,3,1.7c3,1.6,5.4,4.2,6.6,7.4"/>
</g>
<g>
	<path class="st0" d="M324.5,680c0.7,0.7,1.3,1.6,1.5,2.5"/>
</g>
<g>
	<path class="st0" d="M293.3,641.9c-7.2-13.8-13.4-28.1-18.4-42.8"/>
</g>
<g>
	<path class="st0" d="M405,613.3c-5-0.7-10.2-1.3-15,0.3c-2.5,0.8-4.7,2.3-7.2,3.2c-2.5,0.9-5.2,1.3-7.9,1.5
		c-18.8,1.6-37.6-3-55.6-9c-17.9-6-35.5-13.3-54-17.3"/>
</g>
<g>
	<path class="st0" d="M661.5,522.9c29.9,3.5,59.5,10.2,88,19.9c5.4,1.8,11.2,4.1,14,9c4.3,7.4-0.1,16.5-3.2,24.5
		c-5.1,13.4-6.3,27.9-7.5,42.2"/>
</g>
<g>
	<path class="st0" d="M761.9,550.5c2.6,2.4-0.3,6.6-3.1,8.8c-7.2,5.5-15.1,10-23.5,13.4c-11.5,4.6-23.7,6.9-35.9,9.2
		c-22.5,4.3-45.1,8.5-67.7,12.7c-4.5,0.8-9.1,1.7-13.6,2.5c-6.3,1.2-12.6,2.3-18.9,2.9c-16.4,1.5-33.1-1-49.3,1.7
		c-5.3,0.9-10.5,2.3-15.7,3.3c-11.9,2.3-24.1,2.8-36.2,3.2"/>
</g>
<g>
	<path class="st0" d="M499.5,608.4c-10.6,1.5-21.3-2.2-31.9-1.6c-6,0.3-11.9,2.1-17.9,2.8c-8.8,1.1-17.7,0.1-26.5,0.5
		c-6.1,0.3-12.3,1.2-18.2,2.8"/>
</g>
<g>
	<path class="st0" d="M508.3,608.5c-3.1,16.2,9.5,32.6,5.4,48.6"/>
</g>
<g>
	<path class="st0" d="M519.7,643.7c-3,5.9-6,12-6.6,18.7c-0.4,4.9,0.5,9.8-0.6,14.6c-0.6,2.8-1.9,5.3-3,7.9
		c-0.9,2.3-1.7,4.8-2.2,7.2c-0.3,1.6-0.6,3.2,0,4.7c0.7,1.7,2.3,2.7,4,3.6c2,1,4.2,1.9,6.4,2.5c0.8,0.2,1.7,0.4,2.4,0.1
		c0.8-0.4,1.2-1.3,1.5-2.2c3.2-8.4,5.8-17,7.9-25.7"/>
</g>
<g>
	<path class="st0" d="M520,643.6c1.7-0.7,3,1.5,3.4,3.3c2.4,8.9,4.7,17.9,7.1,26.8"/>
</g>
<g>
	<path class="st0" d="M517.9,645c-0.7-2.8-0.6-5.7,0.2-8.5c0.2-0.6,0.4-1.3,0.2-1.9c-0.2-0.8-0.9-1.3-1.4-1.9
		c-0.5-0.6-0.7-1.7,0-2.1c0.2-0.2,0.5-0.2,0.8-0.3c1.6-0.5,2.3-2.3,2.2-3.9c-0.1-2.7-1.8-5-2.8-7.4c-1.1-2.4-1.5-5.6,0.4-7.5"/>
</g>
<g>
	<path class="st0" d="M522.8,617.6c-0.9,4.6-0.5,9.5,1.2,13.9c0.4,1,0.8,2,0.8,3s-0.5,2.2-1.5,2.5c-1.2,0.4-2.5-0.5-3.7,0
		c1.1-0.9,3,0,3.6,1.3c0.6,1.3,0.4,2.9,0.4,4.4c0,1.5,0.3,3.1,1.5,4"/>
</g>
<g>
	<path class="st0" d="M523.4,613.1c2.4,8.9,3.6,18.1,3.6,27.3c0,3.7-0.2,7.4,0.7,10.9c0.7,2.6,1.9,5,2.8,7.6c1.4,4.2,1.7,8.8,2,13.2
		c1.2,17.4,2.3,34.9,3.5,52.3"/>
</g>
<g>
	<path class="st0" d="M531.3,606.4c-2.2,40.4,9.7,80.3,12.4,120.7"/>
</g>
<g>
	<path class="st0" d="M519.7,703c0.5,7.7,1,15.4,1.5,23"/>
</g>
<g>
	<path class="st0" d="M527.5,685c0,3.6,0,7.2,0,10.8c0,0.8,0,1.6,0.5,2.1c0.4,0.5,1.1,0.6,1.7,1c1.5,1,1.3,3.6-0.3,4.4
		c-0.4,0.2-0.9,0.3-1.3,0.5c-1.6,0.8-1.7,2.9-1.7,4.7c0,0.6,0.1,1.3,0.5,1.7c0.3,0.3,0.8,0.5,1.1,0.7c1.7,1,2,3.3,1.5,5.2
		c-0.5,1.9-1.7,3.5-2.5,5.2c-0.8,1.8-1.2,3.9-0.2,5.6"/>
</g>
<g>
	<path class="st0" d="M517.7,647.2c2.3,2.1,0.2,7.2,3.1,8.3c1,0.4,2.3,0,3.2,0.7c0.6,0.5,0.7,1.2,0.8,1.9c0.3,1.5,0.5,3,0.3,4.5
		c-0.3,1.5-1.2,3-2.6,3.5c-2.4,0.8-4.9-1.5-5.3-4.1c-0.3-2.5,0.9-5,2-7.2"/>
</g>
<g>
	<path class="st0" d="M520,671.1c-2.8,6.8-5.5,13.7-6.8,20.9c-0.2,1.1-0.4,2.4,0.1,3.4c0.5,1.1,1.8,1.8,2.8,1.2c0.7-0.4,1-1.2,1.2-2
		c2.4-8,4.8-16.2,5.3-24.6"/>
</g>
<g>
	<path class="st0" d="M387.1,615.1c1.1,8.9,3.1,17.7,6.1,26.2c0.6,1.6,1.4,3.4,3,3.9c2.1,0.6,4.9-1.1,6.3,0.6
		c0.6,0.7,0.5,1.7,0.5,2.7c-0.5,10.3,3,20.3,6.5,29.9c6.3,17.1,13.1,34.1,20.2,50.9"/>
</g>
<g>
	<path class="st0" d="M401.3,613.5c-0.7,6.8-0.7,13.6-0.1,20.4c0.3,3.2,1.2,7,4.2,8.3c1.4,0.6,3,0.5,4.3,1.3
		c1.9,1.2,2.3,3.7,2.6,5.9c3.1,27.7,12.8,54.6,27.9,78"/>
</g>
<g>
	<path class="st0" d="M425.1,683.8c-4.5-11.3-9-23.1-8.2-35.2c0.1-2.2,0.3-4.9-1.6-6.1c-0.6-0.4-1.3-0.5-2-0.7
		c-2.8-0.6-5.6-0.9-8.4-1"/>
</g>
<g>
	<path class="st0" d="M294.1,670.6c2.1,4.1,6,7,9.7,9.8c7.4,5.5,14.8,11,22.2,16.5c11.9,8.8,24.2,18.1,31,31.3"/>
</g>
<g>
	<path class="st0" d="M305.5,682c-6.5-0.8-13.4,1.9-17.5,6.9"/>
</g>
<g>
	<path class="st0" d="M282.3,682.7c2.7-3.7,7.2-6.1,11.7-6.2"/>
</g>
<g>
	<path class="st0" d="M292.9,669.6c-5,1.4-9.9,3-14.7,4.9"/>
</g>
<g>
	<path class="st0" d="M308.1,727c-1.2-3.9-3.4-7.4-5.5-10.8c-5.3-8.6-10.6-17.2-15.9-25.8c-3.9-6.3-7.8-12.7-12.8-18.1
		c-3.9-4.2-8.5-7.8-13.5-10.7c-8.2-4.7-18-7.3-27.3-5.3c-5.8,1.2-11.2,4.2-17,5.6c-5.2,1.3-10.7,1.4-16,2.3
		c-20,3.2-36.7,16.8-55.7,23.8c-9.7,3.5-20.8,5.9-27,14.2c-0.5,0.6-1,1.3-1.7,1.5c-1.2,0.3-2.2-0.7-3.2-1.3
		c-2.4-1.3-5.3-0.3-7.8,0.6c-9.9,3.8-19.8,7.7-29.7,11.5c-8.9,3.5-18,7-25.7,12.7"/>
</g>
<g>
	<path class="st0" d="M160.6,680.4c-0.5-1.4,0.1-3,1-4.1c1-1.1,2.2-1.9,3.5-2.6c6.1-3.4,12.1-6.9,18.2-10.3c2.4-1.4,5-2.8,7.8-3
		c3-0.2,6.1,1.1,8,3.5"/>
</g>
<g>
	<path class="st0" d="M162.8,674.9c-0.9-1.9-0.3-4.3,0.9-6.1c1.3-1.7,3.1-2.9,4.9-4.1c1.8-1.2,3.5-2.3,5.3-3.5
		c1.9-1.3,4-2.6,6.3-2.9c2.7-0.3,5.6,1,7.1,3.3"/>
</g>
<g>
	<path class="st0" d="M125.4,695.5c-1.4,6.1-0.3,12.7,3.1,18"/>
</g>
<g>
	<path class="st0" d="M248,664.5c-4.8-2.4-10.5-0.7-15.3,1.8c-3.4,1.8-7,4.5-7.3,8.4c-0.2,2.4,1,4.8,2.2,6.9c2.2,4,4.5,8.1,6.7,12.1
		c1.3,2.4,2.7,4.9,4.7,6.7c1,0.9,2.2,1.6,3.5,1.8c1.3,0.1,2.8-0.6,3.2-1.9c0.5-1.6-0.6-3.3-0.4-4.9c0.3-2.1,2.5-3.2,4.5-4
		c2.2-0.9,4.5-1.8,6.8-2c2.4-0.2,4.9,0.5,6.5,2.2c0.4,0.5,0.8,1,1.4,1.2c0.8,0.2,1.6-0.5,1.8-1.4c0.2-0.8-0.1-1.7-0.3-2.5
		c-3.2-9.4-9.2-17.9-16.9-24.2"/>
</g>
<g>
	<path class="st0" d="M252,663.8c3.1,0.6,5.1,3.5,6.8,6.2c2.5,4,5,8,7.6,12"/>
</g>
<g>
	<path class="st0" d="M261.4,667.7c5.2,5.8,9.1,12.8,11,20.4"/>
</g>
<g>
	<path class="st0" d="M291.2,706.6c1.4,3.6,3.1,7,5.2,10.3c0.5-0.3,1.1-0.6,1.6-0.9"/>
</g>
<g>
	<path class="st0" d="M281.5,704.9c1.9,0.8,3.4,2.3,4.4,4.1"/>
</g>
<g>
	<path class="st0" d="M288.6,713.4c1.4,2.2,2.9,4.4,4.3,6.6"/>
</g>
<g>
	<path class="st0" d="M246.2,698.7c4.6,8.8,8.9,17.7,12.9,26.8"/>
</g>
<g>
	<path class="st0" d="M253.7,690.4c5.3,11.9,10.4,24,15.2,36.1"/>
</g>
<g>
	<path class="st0" d="M263.3,691.6c5,11.8,10.5,23.4,16.5,34.8"/>
</g>
<g>
	<path class="st0" d="M297.5,703c0.4-1.2,1.4-2.1,2.5-2.5"/>
</g>
<g>
	<path class="st0" d="M310.4,721.9c3.5-2.8,8-4.4,12.5-4.3c1.6,0,3.4,0.2,4.7-0.8c2-1.5,2-5.1,4.4-5.7"/>
</g>
<g>
	<path class="st0" d="M339,723c1.3-5.7,4.3-11,8.4-15.1"/>
</g>
<g>
	<path class="st0" d="M368.6,698.7c-1.5-0.5-3.1,0.9-3.7,2.3c-2.1,4.5,1.1,9.9,5.3,12.6c2.3,1.5,5.5,2.4,7.7,0.7
		c2.2-1.8,1.8-5.3,0.8-7.9c-1.5-4-4.4-7.9-8.6-8.7c-0.4-0.1-0.9-0.1-1.3,0.1c-0.7,0.4-0.9,1.3-0.9,2.1c-0.2,5,1.5,10.1,4.6,14.1"/>
</g>
<g>
	<path class="st0" d="M399,710.6c-3,0.3-5.7,2.3-6.9,5c-1.2,2.7-0.9,6.1,0.9,8.5"/>
</g>
<g>
	<path class="st0" d="M400.2,710.3c4.6,2.9,7.7,7.9,8.3,13.2"/>
</g>
<g>
	<path class="st0" d="M487,696.5c-0.9-1.1-3.1-0.2-2.9,1.2c0.2,1.4,2.7,1.6,3.1,0.2"/>
</g>
<g>
	<path class="st0" d="M692.1,583c-0.8,16.1-1.5,32.3-2.3,48.4c-0.1,1.3-0.1,2.5-0.3,3.8c-0.3,2.2-0.8,4.4-1.4,6.6
		c-3.9,15.5-6.9,31.3-9,47.2"/>
</g>
<g>
	<path class="st0" d="M694,683.5c3.6,0.9,4.3,5.6,4.3,9.3c0,4.5-0.3,9.7-3.8,12.6c-1.4,1.1-3.1,1.8-4.8,2.4
		c-12.7,4.7-25,10.9-36.4,18.3"/>
</g>
<g>
	<path class="st0" d="M695.7,703.7c15.5-8.9,31.1-17.9,46.6-26.8c4.7-2.7,9.6-5.6,12.2-10.3c2.7-4.7,2.2-11.7-2.5-14.3
		c-4.4-2.5-10-0.2-14.4,2.4c-7.5,4.4-14.5,9.5-21.8,14.2c-21.1,13.7-44.2,24-67.3,34.2"/>
</g>
<g>
	<path class="st0" d="M752.9,616.5c0.9,2.8-1.4,5.5-2.5,8.1c-1.3,2.9-1.3,6.3,0,9.1c0.9,1.9,2.2,3.5,3.2,5.4c0.9,1.9,1.4,4.2,0.4,6
		c-1.8,3.2-7,3.1-8.7,6.4"/>
</g>
<g>
	<path class="st0" d="M755.1,662.8c23.9,9.7,49.2,15.7,74.9,17.9"/>
</g>
<g>
	<path class="st0" d="M812.6,728.8c7.6-15.9,14-32.4,19-49.3c0.5-1.5,0.9-3.1,2.1-4.2c2.1-2,5.5-1.6,8.3-1
		c12.3,2.6,24.5,5.4,36.6,8.4c1.2,0.3,2.5,0.7,3.4,1.6c1.3,1.3,1.3,3.4,1.2,5.2c-0.8,12.8-3.8,25.4-8.9,37.2"/>
</g>
<g>
	<path class="st0" d="M884.5,694.8c15.8,1.8,31.5,3.7,47.3,5.5c18.8,2.2,38.2,4.5,54.7,13.8c7,3.9,13.2,9,19.5,14"/>
</g>
<g>
	<path class="st0" d="M787.6,711.6c-7.9,4.7-15.9,9.3-23.8,14"/>
</g>
<g>
	<path class="st0" d="M788,712.1c10.3-0.3,20.7-0.2,31,0.4"/>
</g>
<g>
	<path class="st0" d="M680.5,688.7c2.6-0.5,5.1,1.5,6,3.9c0.9,2.4,0.6,5.1,0.2,7.7c-0.5,2.6-1.1,5.1-1.9,7.6"/>
</g>
<g>
	<path class="st0" d="M682.6,710.9c4,4,6.9,9.2,8.1,14.7"/>
</g>
<g>
	<path class="st0" d="M692.8,706.2c5.4,4.8,8.5,12.1,8.4,19.3"/>
</g>
<g>
	<path class="st0" d="M756.7,663.4c2.4,1.6,2.5,5.4,1,7.9c-1.5,2.5-4.1,4.2-6.4,6c-17.8,13.7-24.4,39.6-44.2,50.4"/>
</g>
<g>
	<path class="st0" d="M754.5,704.4c-4.5,0.4-5.5,7.1-9.6,9.1"/>
</g>
<g>
	<path class="st0" d="M742.1,716c-4.1,5.2-9.2,9.4-15.1,12.5"/>
</g>
<g>
	<path class="st0" d="M737.1,666.9c1.9,1.7,2.6,4.6,1.8,7"/>
</g>
<g>
	<path class="st0" d="M741.6,665.1c0.7-0.5,1.4,0.8,1.4,1.7c0,2.6,0,5.2,0,7.8"/>
</g>
<g>
	<path class="st0" d="M747.1,664.5c0.9,2.4,1.2,5,0.9,7.5"/>
</g>
<g>
	<path class="st0" d="M733.3,672.6c1,3,0.3,6.5-1.8,9"/>
</g>
<g>
	<path class="st0" d="M725.1,680c-0.1,1.9-0.7,3.8-1.7,5.4"/>
</g>
<g>
	<path class="st0" d="M749,629.5c0.1-0.9-0.8-1.6-1.7-1.6s-1.6,0.5-2.3,1c-3.3,2.4-6.3,5.1-8.8,8.3"/>
</g>
<g>
	<path class="st0" d="M731.1,640.1c-2.7,1.9-5.4,3.9-8.2,5.8"/>
</g>
<g>
	<path class="st0" d="M715,648.4c-0.6,0.2-1.3,0.7-1.3,1.3c0,0.7,1.3,0.9,1.2,0.2"/>
</g>
<g>
	<path class="st0" d="M701.5,582.7c3.3,13.1,2.3,26.9,0.8,40.3c-0.6,5.8-1.4,11.7-2.7,17.4c-3.2,13.7-9.8,27.5-6.5,41.2"/>
</g>
<g>
	<path class="st0" d="M738.1,607c1,8.3,0.7,16.8-0.9,25.1"/>
</g>
<g>
	<path class="st0" d="M742.9,605.5c0.4,7.3,0.1,14.7-0.8,22"/>
</g>
<g>
	<path class="st0" d="M745.7,599.4c1,1.7,1.2,3.7,1.3,5.6c0.4,7.7-0.1,15.4-1.6,23"/>
</g>
<g>
	<path class="st0" d="M698.5,597.5c0.4,5.9-0.4,11.9-2.6,17.5"/>
</g>
<g>
	<path class="st0" d="M702.6,607c-0.3,5.4-0.8,10.7-1.7,16"/>
</g>
<g>
	<path class="st0" d="M690.3,654c-0.5,10.4-2.1,20.8-4.7,30.9"/>
</g>
<g>
	<path class="st0" d="M709.7,588c0.1-2,0.2-4,0.3-6"/>
</g>
<g>
	<path class="st0" d="M836.8,678.1c1.8,6.8-2.2,13.6-5.3,19.9c-3.7,7.4-6.6,15.3-8.5,23.4"/>
</g>
<g>
	<path class="st0" d="M852,680.9c-1.1,0.3-1.7,1.3-2.2,2.3c-7,13.7-14,27.6-16.6,42.7"/>
</g>
<g>
	<path class="st0" d="M563.8,52.4c5.3-7.6,14.6-11.3,23.1-14.9s17.6-8.2,21.6-16.6"/>
</g>
<g>
	<path class="st0" d="M607,24.1c6.9-0.3,12.7-5.2,19.3-7.4c3-1,6.1-1.5,9.2-1.3c2.8,0.1,5.8,0.8,7.9,2.7c2.1,1.9,3.1,5.3,1.7,7.7"/>
</g>
<g>
	<path class="st0" d="M646.2,20.2c4.3,2.9,5.2,9.9,1.7,13.7"/>
</g>
<g>
	<path class="st0" d="M650.9,26c0.4,2.1,0.9,4.2,1.3,6.4c0.1,0.3,0.1,0.6,0.3,0.8c0.4,0.4,1.1,0.1,1.6-0.2c2.1-1.6,3-4.3,3.7-6.9
		c-0.2,3.9-1.4,7.8-3.3,11.2c2.1-2.4,4.1-4.7,6.2-7.1c0.1,1.9-0.2,3.9-0.9,5.6c2.9-3.1,6.1-5.9,9.5-8.4c-0.3,4-1.4,7.9-3.2,11.4
		c1.3-1.8,2.9-3.3,4.7-4.6c0.6-0.4,1.3-0.8,2-0.7c1,0.1,1.6,1.2,2,2.1c2.5,5.4,4.1,11.1,4.7,17"/>
</g>
<g>
	<path class="st0" d="M493,274.1c3,3.3,6.2,7.1,6,11.6c-0.1,2.5-1.4,4.8-2.6,7c-3.9,7.1-8.4,14.7-16.1,17.2c-0.4,0.1-1,0.3-1.4,0
		c-0.6-0.4-0.6-1.3-1.1-1.8c-0.6-0.6-1.5-0.4-2.3-0.2c-2.7,0.7-5.3,1.3-8,2"/>
</g>
<g>
	<path class="st0" d="M496.4,286.9c-2.9,7.6-8.7,14.1-15.9,18"/>
</g>
<g>
	<path class="st0" d="M498.6,267.2c-4.3,3.5-8,7.8-11.1,12.4c-3.9,6-6.6,12.8-10.5,18.7c-7.9,11.9-20.6,20-34.2,24.6
		c-13.5,4.6-27.9,6-42.2,6.7c-11.6,0.6-23.2,0.7-34.7-0.7c-2.9-0.4-6.2-1-8-3.3c-1.8-2.3-0.8-6.8,2.2-6.9c3.3-0.1,4.3,4.4,3.9,7.7"
		/>
</g>
<g>
	<path class="st0" d="M357.4,325.1c-4-2.6-9.1-2-13.9-2.1c-4.1-0.1-8.3-0.9-12.2-2.2c-1.4-0.5-2.8-1-4.3-1.1c-2.2-0.1-4.2,1-6.4,0.9
		c-3.5-0.1-6.4-3-8-6.1c-1.3-2.6-1.6-6.4,1-7.7c1.4-0.7,3-0.4,4.5,0.2c4.8,1.9,8.5,6.4,9.4,11.5"/>
</g>
<g>
	<path class="st0" d="M354,324.6c-3.3,0.8-5.2,4.4-8.3,6c-3.3,1.8-7.4,0.9-11-0.1c-3.8-1-7.7-2.2-11.4-3.4c-3.4-1.1-7-2.4-9.6-4.9
		c-4.4-4.2-5.7-11.2-11-14.2"/>
</g>
<g>
	<path class="st0" d="M305.4,300.5c0.6,3.6-3,7.1-6.7,6.8c-3.6-0.4-6.5-4-6.3-7.7c0.2-3.8,3-7.3,2.5-11.1"/>
</g>
<g>
	<path class="st0" d="M295,295.5c1.5,3,3.6,5.7,6,8"/>
</g>
<g>
	<path class="st0" d="M303.5,309c-0.7-1-1.8-1.7-3-2"/>
</g>
<g>
	<path class="st0" d="M295.6,287c4.4,7.4,9.6,14.3,15.5,20.5"/>
</g>
<g>
	<path class="st0" d="M296.1,285.9c-6.5-8.9-9.4-19.8-11.8-30.6c-0.7-3.2-1.4-6.6-0.7-9.9"/>
</g>
<g>
	<path class="st0" d="M296,249.4c-1.8,0.4-3.5,1.1-5,2.1"/>
</g>
<g>
	<path class="st0" d="M289,251.9c-1,0.7-2,1.4-3,2"/>
</g>
<g>
	<path class="st0" d="M300.1,268.6c-2.9,2.3-5.3,5.4-6.7,8.9"/>
</g>
<g>
	<path class="st0" d="M303.4,272.4c-2.8,2.6-5.2,5.7-7,9.1"/>
</g>
<g>
	<path class="st0" d="M305.9,276.9c-2.9,1.5-5.3,3.8-6.9,6.6"/>
</g>
<g>
	<path class="st0" d="M307.5,281.5c-2.9,2.5-5.3,5.6-6.9,9.1"/>
</g>
<g>
	<path class="st0" d="M310.2,284.8c-0.9,1.3-1.7,2.7-2.5,4.1c-0.2,0.4-0.4,0.8-0.4,1.2c0.2,1.2,2.1,1.1,2.9,0.2
		c0.8-0.9,1.2-2.2,2.3-2.8"/>
</g>
<g>
	<path class="st0" d="M306.5,297.5c0,0.8,0,1.7,0,2.5"/>
</g>
<g>
	<path class="st0" d="M318.4,293.9c-1,1.8-2,3.7-3,5.5"/>
</g>
<g>
	<path class="st0" d="M331.6,314c-0.6,1.8-0.3,3.9,0.8,5.6"/>
</g>
<g>
	<path class="st0" d="M339.5,307c0,1.7,0,3.3,0,5"/>
</g>
<g>
	<path class="st0" d="M442.5,310c0,1.8,0,3.7,0,5.5"/>
</g>
<g>
	<path class="st0" d="M453.7,302.8c2.5,2.9,4.2,6.4,4.9,10.2"/>
</g>
<g>
	<path class="st0" d="M460.1,304.9c0.8,1.7,1.7,3.3,2.5,5"/>
</g>
<g>
	<path class="st0" d="M463,305.5c0.5,0.7,1,1.3,1.5,2"/>
</g>
<g>
	<path class="st0" d="M461.5,293.5c2.9,3.7,4.9,8,6.1,12.5"/>
</g>
<g>
	<path class="st0" d="M467.4,297c0.1,1,0.7,2,1.6,2.5"/>
</g>
<g>
	<path class="st0" d="M478.6,286.5c0.3,1.5,0.7,3,1,4.5c0.3-1.5,0.6-3,0.8-4.5"/>
</g>
<g>
	<path class="st0" d="M278.2,242.3c5.1-6.4,5.1-15.4,4.9-23.6c-0.1-3.3-0.2-6.7-1.1-9.9c-1.4-4.7-4.4-8.7-7.4-12.6
		c-0.8-1-1.5-2-2.7-2.5c-2.2-1-4.8,0.2-6.2,2.1c-1.4,1.9-1.8,4.4-2.1,6.7c-1,7.6-1.4,15.5,0.5,23c1.9,7.5,6.4,14.5,13.3,18.1"/>
</g>
<g>
	<path class="st0" d="M265.8,196.1c5.5,10.5,7.9,22.6,6.6,34.4c-0.2,2.1-0.6,4.2-1.8,5.9"/>
</g>
<g>
	<path class="st0" d="M283,216c-1.5,0-3.1-0.1-4.6-0.1c-0.5,0-1,0-1.4,0.3c-1,0.7,0.1,2.4,1.3,2.6c1.2,0.2,2.5-0.2,3.7,0.3"/>
</g>
<g>
	<path class="st0" d="M282,222.4c-2.1,0.7-5.2-0.1-6,2c-0.6,1.4,0.6,2.9,2,3.3c1.4,0.4,2.9,0,4.3-0.5"/>
</g>
<g>
	<path class="st0" d="M281.4,235.5c0.2,2.3,0.4,4.7,0.6,7c0.1,0.6,0.1,1.3,0.5,1.8c0.8,0.9,2.2,0.5,3.4,0.2c2.9-0.9,6-1.3,9.1-1
		c1,0.1,2.1,0.3,2.8,1.1c0.6,0.7,0.7,1.6,0.8,2.5c0.2,1.7,0.3,3.5,0.5,5.2c0.1,1.2,0.1,2.7-1,3.4c-0.6,0.3-1.3,0.3-1.9,0.7
		c-0.6,0.5-0.7,1.3-0.7,2.1c-0.1,1.4-0.1,2.8,0.7,3.9c0.8,1.1,2.8,1.3,3.4,0"/>
</g>
<g>
	<path class="st0" d="M299.4,262.2c9.5,16.5,19.9,34,37,42.4c1.8,0.9,3.7,1.7,5.8,1.9c2.4,0.3,4.7-0.1,7.1,0.1
		c2.5,0.2,4.9,0.9,7.3,1.6c30.6,8.7,64.2,6.7,93.6-5.6"/>
</g>
<g>
	<path class="st0" d="M279.4,240c-0.2,1.4-1,2.7-2.2,3.4c-0.4-0.3-0.5-1-0.2-1.4"/>
</g>
<g>
	<path class="st0" d="M287.3,269c-2,3.4-4,6.9-5.9,10.3c-0.8,1.5-1.7,3.4-0.6,4.8c0.5,0.8,1.5,1.1,2.3,1.5c1.8,0.8,3.5,2.1,4.8,3.6
		c0.9,1,1.6,2.1,2.5,3s2.3,1.5,3.5,1.3"/>
</g>
<g>
	<path class="st0" d="M294.4,290.4c-1.3-0.8-2-2.3-3.2-3.3c-1.2-1-3.4-1.2-3.9,0.3"/>
</g>
<g>
	<path class="st0" d="M282.1,285c0.5,3.9-2.2,7.4-3.5,11.1c-2.1,6.2-0.4,13,2,19c5.7,14,16.1,27.1,30.5,31.5"/>
</g>
<g>
	<path class="st0" d="M289.5,291.8c-3.4,3-4.7,7.8-4.4,12.3s2.3,8.7,4.4,12.7c4.6,8.5,11.4,16.8,20.8,18.8"/>
</g>
<g>
	<path class="st0" d="M342.4,334c2.7,2.3,5.1,4.9,7.1,7.8c1.9,2.7,3.5,5.7,5.1,8.6"/>
</g>
<g>
	<path class="st0" d="M344.9,331.4c2.9,3.7,5.8,7.5,7.8,11.8c1.1,2.3,1.9,4.8,2.7,7.2c1.1,3.4,2.2,6.7,3.3,10.1"/>
</g>
<g>
	<path class="st0" d="M309.9,319.3c0.2,6.4,0.4,12.8,0.5,19.2c0.1,4.6,0.3,9.1,0,13.7c-0.5,10.6-2.9,21.1-3.8,31.7
		c-0.9,10.6-0.2,21.8,4.9,31.1c-2.5-8.3-3.5-17.1-3-25.8"/>
</g>
<g>
	<path class="st0" d="M311.1,415c-0.7,7.5,0,15.2,2,22.5c-1.4-5.7-2.1-11.6-2.1-17.5c0-1.5,0-2.9-0.3-4.3c-0.7-2.9-3-5.6-2.7-8.6
		c0.1,2.6,1.1,5.1,1.8,7.7c2,7.1,1.2,14.9,3.7,21.8"/>
</g>
<g>
	<path class="st0" d="M311.3,411c0.8-13.1,0.7-26.3-0.3-39.4"/>
</g>
<g>
	<path class="st0" d="M308.7,394.3c-0.5-1.6,0.4-3.4,2-4"/>
</g>
<g>
	<path class="st0" d="M317.3,391c-0.1,3-2.1,5.5-3.5,8.2c-1.8,3.5-2.5,7.6-2.1,11.5"/>
</g>
<g>
	<path class="st0" d="M348,493.3c-0.4-19.2-12.7-36-16.3-54.8c-0.4-2.1-0.7-4.2-1.4-6.2c-0.7-1.8-1.7-3.5-2.6-5.3
		c-7.3-13.8-9.2-29.7-11-45.2c-0.4-3.5-0.8-7.2,0.8-10.4"/>
</g>
<g>
	<path class="st0" d="M348,492.4c-1.8-27-9.9-53.6-23.5-77"/>
</g>
<g>
	<path class="st0" d="M326.9,394.7c-1.2,12.6,5.9,24.3,11,35.9c8.7,19.4,12.5,41,11,62.2c0,0.5-0.1,1.1-0.6,1.3
		c-0.4,0.2-1.1-0.3-0.8-0.7"/>
</g>
<g>
	<path class="st0" d="M341.4,513.1c6.3-6.8,11.1-14.9,13.9-23.7c1.2-3.9,2.1-7.9,2.2-11.9c0.4-12.2-5.7-23.5-9-35.3
		c-3.1-11.3-3.6-23.3-1.3-34.7"/>
</g>
<g>
	<path class="st0" d="M346.9,410c1.4,12.5,7.4,24.5,16.6,33.1c-2-4.9-5-9.4-7.2-14.2c-4.6-9.7-6.4-20.4-8.2-30.9"/>
</g>
<g>
	<path class="st0" d="M346.8,369.7c0,12.2,0.1,24.4,0.1,36.7"/>
</g>
<g>
	<path class="st0" d="M353.7,493.7"/>
</g>
<g>
	<path class="st0" d="M352.3,495c4-21-0.7-43.6-12.6-61.4"/>
</g>
<g>
	<path class="st0" d="M341.1,431.3c-6.1-9.5-4.1-21.7-4.6-32.9c-0.6-15.6-6.3-31.3-2.5-46.4"/>
</g>
<g>
	<path class="st0" d="M343,399.3c0.1-5.7-0.5-11.4-2.7-16.7c-0.8-2-1.9-3.9-2.6-6c-2.4-6.8-0.8-14.3,0.8-21.3"/>
</g>
<g>
	<path class="st0" d="M330,348.3c-0.1,7.6-0.1,15.3,0.1,22.9c0.2,10.2,0.8,20.9,5.6,29.9"/>
</g>
<g>
	<path class="st0" d="M326.4,388.3c-1.3-15.2-1.9-30.4-2.1-45.7"/>
</g>
<g>
	<path class="st0" d="M316.2,368.7c-0.4-12.3-0.9-25,2.9-36.7"/>
</g>
<g>
	<path class="st0" d="M312.4,359.4c3.7-9.3,5.4-19.4,5.1-29.4"/>
</g>
<g>
	<path class="st0" d="M320.5,364.7c-0.6-10.9,0.4-21.8,3-32.4"/>
</g>
<g>
	<path class="st0" d="M327.7,353c-0.2-6.2-0.1-12.5,0.2-18.7"/>
</g>
<g>
	<path class="st0" d="M331.9,350.3c0.1-4.9,0.3-9.8,0.4-14.7"/>
</g>
<g>
	<path class="st0" d="M336.8,335.5c2.3,7.1,4.3,14.3,5.9,21.7c1.2,5.4,2.2,10.8,2,16.3c-0.2,4.6-1.1,9.6,1.4,13.4"/>
</g>
<g>
	<path class="st0" d="M357.2,431.1c2.5,3.6,5,7.1,7.5,10.7c1.5,2.1,3,4.3,4,6.8c1.2,3.3,1.3,6.9,1.3,10.4c0,1.6,0,3.3,0.1,4.9
		c1.2-3.6,2.4-7.3,2.2-11.1c-0.2-4.1-2.1-8.2-0.9-12.1"/>
</g>
<g>
	<path class="st0" d="M352.9,402c-0.7,8.2,3,16.1,6.6,23.5c1.9,3.9,3.8,7.8,5.7,11.7"/>
</g>
<g>
	<path class="st0" d="M352.6,493.3c-0.4,3.4-0.8,6.7-1.2,10.1c-0.4,3.1-0.8,6.4-2,9.3c-1.5,3.5-4.3,6.3-5.6,9.9
		c5.2-10.2,10.5-20.9,10.7-32.4c-0.1,2.9-0.6,5.8-1.4,8.6c0-0.4-0.1-0.7-0.1-1.1c-0.4,0.9-0.7,1.9-0.7,2.9c-0.2-0.3-0.2-0.6-0.2-0.9
		c0.5,1.8-0.1,3.6-0.8,5.3c-1.9,4.9-4.2,9.7-6.8,14.3"/>
</g>
<g>
	<path class="st0" d="M315.9,398.7c0.2,3,0.4,6.1,0.6,9.1c0.1,2.1,0.3,4.2-0.1,6.3c-0.5,2.7-1.9,5.1-3.1,7.5
		c-1.5,2.8-2.8,5.7-3.9,8.6c-0.9,2.3-1.8,4.7-1.6,7.2"/>
</g>
<g>
	<path class="st0" d="M315.7,398.3c0-0.7,0-1.3,0-2"/>
</g>
<g>
	<path class="st0" d="M252.6,203.2c-3.2,7.8-3.5,16.7-0.7,24.6c0.6,1.6,1.3,3.2,1.6,5c0.3,1.8,0.2,3.6,0.1,5.5
		c-0.4,7-0.3,14.5,3.2,20.6c5.3,9.2,16.7,12.6,27,15.3"/>
</g>
<g>
	<path class="st0" d="M252.7,230.4c1-0.2,1.9-0.4,2.9-0.6c0.3-0.1,0.6-0.1,0.9-0.4c0.2-0.3,0.2-0.6,0.2-1c0-6.3,0-12.7,0-19
		c0-0.9,0-1.9-0.3-2.7c-0.5-1.4-1.6-2.4-2.7-3.3"/>
</g>
<g>
	<path class="st0" d="M253,203.2c-1.3-21.9-2.5-43.7-3.8-65.6c-0.3-4.6-0.5-9.4,1.1-13.8c2.1-5.7,7-9.9,11.9-13.6"/>
</g>
<g>
	<path class="st0" d="M250.3,144.7c-2.8,2.8-7.8,2.8-10.3,5.9c-1.4,1.7-1.8,3.9-2.1,6.1c-2.3,18,0.1,36.1,2.5,54.1
		c0.6,4.3,1.2,8.7,1.7,13c0.5,3.5,1,7.1,2.6,10.2c1.6,3.1,4.7,5.7,8.2,5.9"/>
</g>
<g>
	<path class="st0" d="M241.3,220.3c-3.9-1.5-5.3-6.3-6.2-10.4c-0.8-3.7-1.6-7.5-1.9-11.3c-0.3-5,0.3-10-0.3-15
		c-0.4-3.3-1.2-6.6-0.9-9.9c0.3-3.3,2.2-6.8,5.4-7.6"/>
</g>
<g>
	<path class="st0" d="M241.1,154c-0.2,6.4-0.3,12.8-0.5,19.2c1.3-0.5,1.6-2.2,1.6-3.6c0.1-4.9,0.1-9.8,0.2-14.7
		c-0.2,5.4-0.5,10.8-0.7,16.1c3-5.1,1-11.6,1.7-17.5c-0.1,2.3-0.1,4.7,0.2,7c0.6-2.1,0.9-4.2,0.8-6.3c0.2,1,0.3,2,0.5,3
		c0.2-1.7,0.3-3.4,0.2-5.2c0.3,0.4,0.4,1,0.3,1.5c0.4-0.2,0.7-0.4,1.1-0.6c0.2,0.9,0.4,1.8,0.6,2.7"/>
</g>
<g>
	<path class="st0" d="M252.7,124.3c0,6.8,0,13.6,0,20.4c0.9-7,1.3-14,1-21c0.2,1.7,0.4,3.4,0.6,5.1c0.7-1.8,0.9-3.7,0.7-5.6
		c-0.2,1.9-0.1,3.9,0.4,5.8c0.6-2.9,1.2-5.9,1.6-8.9c0.6,2.2,0.9,4.5,1,6.7c0.5-1,0.7-2.1,0.6-3.2"/>
</g>
<g>
	<path class="st0" d="M242.2,208.7c0.9,8.3,2.6,16.6,5.1,24.6c-0.8-4.4-1.5-8.8-1.1-13.3c0.6,2.4,0.9,4.8,1,7.3
		c0.2-0.9,0.2-1.9-0.1-2.8c0.9,1.4,1.3,3,1.4,4.6c-0.2-1.3-0.3-2.6-0.5-3.9c0.2,0.7,0.4,1.3,0.6,2"/>
</g>
<g>
	<path class="st0" d="M264.7,248.2c-1.1,0.3-1.7,1.7-1.6,2.8s0.7,2.2,1.3,3.2c0.6,1.1,1.3,2.2,1.9,3.4c0.2,0.4,0.5,0.9,0.9,1.1
		c0.8,0.4,1.9-0.2,2.3-1c0.4-0.9,0.2-1.8,0-2.8c-0.7-2.7-2-5.2-3.7-7.3"/>
</g>
<g>
	<path class="st0" d="M275.3,242.3c-0.8,0.6-0.9,1.7-0.8,2.7c0.3,4.7,0.8,9.4,1.5,14.1c0.1,1,0.3,1.9,0.7,2.8
		c0.5,1.2,1.3,2.2,2.1,3.1c1.9,2.2,3.7,4.5,5.6,6.7"/>
</g>
<g>
	<path class="st0" d="M265,196c-3.1-4-3.2-9.5-3.2-14.6c0-21.1,0-42.2,0-63.3c0-3.4,0-6.8,1-10.1c2.3-7.9,10.7-13.5,18.8-12.7"/>
</g>
<g>
	<path class="st0" d="M262,125.2c0.9-0.2,1.8-0.3,2.8-0.3c0.3,0,0.7,0,0.9,0.3c0.2,0.2,0.2,0.5,0.3,0.7c0.3,2.6,0.5,5.2,0.5,7.8
		c0,0.5,0,1.1-0.2,1.5c-0.6,1.2-2.2,1.3-3.5,1.2"/>
</g>
<g>
	<path class="st0" d="M266.9,111.3c0.1,1.6,0.1,3.2,0.2,4.8c0.2-2.7,0.3-5.5,0.2-8.2c0.6,1.8,0.8,3.6,0.7,5.5
		c0.3-2.1,0.4-4.3,0.2-6.4c0.3,1.3,0.7,2.6,1,3.9c0.7-1.6,1.1-3.3,1.2-5.1c0.4,2.7,0.6,5.3,0.7,8c0.7-2.1,1-4.4,0.8-6.6
		c0.4,3.5,0.5,7.1,0.3,10.6c0.7-3.8,1.2-7.6,1.7-11.4c-0.1,7.3-0.2,14.6-0.4,22c-0.2-2.7-0.5-5.4-1-8.1c0,2.8,0,5.5,0,8.3
		c0-2.1-0.2-4.2-0.6-6.3"/>
</g>
<g>
	<path class="st0" d="M266.7,150c0,12.9,0.9,25.8,2.9,38.5c-0.1-7.9-0.1-15.8-0.2-23.7c0.5,3.8,1,7.7,1.5,11.5c0-1.5,0.1-3,0.1-4.6
		c0.2,1,0.4,2,0.7,2.9"/>
</g>
<g>
	<path class="st0" d="M282.7,94.8c-4.5,6.3-6.5,14.2-7,21.9c-0.5,7.8,0.4,15.5,0.9,23.3c1,13.3,1,26.7,0.2,40
		c-0.5,8.3-1.2,17.5,3.7,24.2"/>
</g>
<g>
	<path class="st0" d="M398.2,145.7c0-9.9-0.1-19.8-0.3-29.8c0-0.5,0-1.1-0.4-1.4c-0.4-0.3-0.9-0.2-1.3-0.3c-1.3-0.2-2.3-1.4-2.6-2.6
		s-0.2-2.6-0.1-3.9c0.1-0.6,0.2-1.3,0.6-1.8c0.4-0.4,1-0.6,1.5-0.7c2.1-0.6,4.8-1,6.2,0.7c0.5,0.7,0.7,1.6,0.9,2.5
		c0.3,1.6,0.6,3.3,0,4.8c-0.6,1.5-2.5,2.6-3.9,1.8"/>
</g>
<g>
	<path class="st0" d="M394.2,106.1c-19.8,0-39.6,0.1-59.4,0.1c-12.9,0-25.9,0.1-38.8,1.6c-2.6,0.3-5.3,0.7-7.4,2.2
		c-3.5,2.5-4.6,7.1-5.2,11.4c-3.6,24.7-1.3,49.8,1,74.6c0.2,2.2,0.6,4.6,2.3,5.9c1.3,1,3,1,4.7,1c5.7,0,11.5,0,17.2,0"/>
</g>
<g>
	<path class="st0" d="M297.5,107.7c0,1.3,0,2.7,0,4c0,0.6,0,1.2,0.4,1.6c0.6,0.8,2,0.6,2.6-0.2c0.7-0.7,0.9-1.8,1-2.8
		c0.1-0.9,0.3-1.8,0.4-2.7"/>
</g>
<g>
	<path class="st0" d="M298.1,203.6c1.5,13.3,2.2,26.7,1.9,40.1c0,0.6,0,1.2,0.4,1.6c0.3,0.3,0.7,0.4,1.1,0.4
		c2.8,0.4,5.7,0.5,8.5,0.4"/>
</g>
<g>
	<path class="st0" d="M310.5,241c-2.3-0.3-5,1-7-0.3c-1.9-1.2-2-3.8-1.9-6c0.6-10.5,1.7-21.2-0.5-31.5"/>
</g>
<g>
	<path class="st0" d="M310.3,241c-0.6-1.5,0.5-3.3,1.9-4.1c1.4-0.8,3.1-0.9,4.8-1c9.1-0.4,18.2,0.1,27.2,1.5
		c0.9,0.1,1.9,0.3,2.7,0.8c0.9,0.6,1.4,1.5,1.9,2.5c2.6,5.2,3.1,11.5,1.5,17.1c-0.5,1.7-1.2,3.4-1.5,5.1c-0.3,1.7-0.3,3.4-0.2,5.1
		c0.2,5.6,0.3,11.2,0.5,16.8c-2.5,0.9-5.3,1.2-7.9,0.8"/>
</g>
<g>
	<path class="st0" d="M342.4,237.5c1.7,5.2,2.4,10.7,2,16.1c-0.1,1.2-0.3,2.5-0.9,3.6c-0.4,0.7-1.1,1.2-1.5,1.9
		c-0.7,1.1-0.7,2.5-0.8,3.9c0,4,0,8,0.8,11.9s2.6,7.7,5.6,10.4"/>
</g>
<g>
	<path class="st0" d="M310.3,240.2c-1.6,6.2-1,12.8-0.4,19.2c0.2,1.9,0.4,3.8,1.3,5.4c0.9,1.6,2.9,2.8,4.7,2.3
		c0.9-0.2,1.8-0.8,2.5-0.3c0.4,0.3,0.5,0.7,0.6,1.1c0.7,2.4,1.1,4.9,1,7.4c-0.1,2.6-0.5,5.7,1.4,7.5c2.2,2.2,5.8,1.3,8.8,0.2
		c2-0.7,4-1.4,6.1-1.2c2.1,0.2,4.2,1.7,4.4,3.7c0.1,0.5,0,1-0.3,1.3c-0.4,0.5-1.1,0.7-1.8,0.8c-2,0.3-4.1,0.5-6.1,0.2
		c-2-0.4-4-1.5-4.8-3.4"/>
</g>
<g>
	<path class="st0" d="M314.9,267c0,4.3,0.7,8.5,2.1,12.6c0.2,0.7,0.5,1.3,0.9,1.8c0.8,0.8,2,1,3.1,1.2"/>
</g>
<g>
	<path class="st0" d="M323.6,247.7c-1.4,2.6-2.9,5.7-1.8,8.5c0.4,1.1,1.1,2,1.8,2.9c0.6,0.8,1.3,1.6,2.2,2.1
		c1.4,0.8,3.2,0.7,4.9,0.4c1.8-0.3,3.7-1,4.6-2.6c0.4-0.7,0.5-1.6,0.6-2.4c0.2-1.8,0.3-3.7-0.4-5.3c-1.1-2.6-4.1-4.1-6.9-4.5
		c-2-0.3-4.5,0-5.3,1.9"/>
</g>
<g>
	<path class="st0" d="M349.6,264.8c1.1,4.8,3,9.9,7.3,12.5c2.1,1.3,4.7,1.8,7.1,2c4,0.2,8.1-0.6,11.5-2.7c3.4-2.1,6-5.6,6.6-9.6
		c0-0.3,0.1-0.5,0-0.8c-0.2-0.8-1.4-1-2.1-0.5s-1,1.4-1.4,2.1c-2.2,4.8-7.4,8-12.7,8c-5.3,0-10.4-3.4-12.5-8.2
		c-0.7-1.7-1.5-3.8-3.3-4.1"/>
</g>
<g>
	<path class="st0" d="M360.5,255.5c-1.6,0.4-2.5,2.2-3.1,3.7c-0.3,0.8-0.6,1.7-0.7,2.5c-0.4,2.3,0.5,4.8,2.1,6.5
		c1.6,1.7,3.9,2.8,6.3,2.9c1.6,0.1,3.3-0.1,4.6-1.1c2.1-1.5,2.8-4.3,2.9-6.9c0-1.1,0-2.3-0.4-3.3c-1-2.5-3.9-3.7-6.5-4.5
		c-1.5-0.5-3.3-0.9-4.7-0.1"/>
</g>
<g>
	<path class="st0" d="M350.4,260.9c2.1-2.8,4.3-5.6,7.1-7.7c2.8-2.1,6.5-3.3,9.9-2.4c6.7,1.7,9.9,10.6,16.7,12
		c4.9,1,9.5-2.3,13.3-5.5c3.8-3.2,8.2-6.6,13.1-6c7.3,0.9,11.4,10.3,18.8,11c3.7,0.4,7.3-1.7,10.5-3.6c2.6-1.6,5.2-3.1,7.7-4.7
		c2-1.2,4.1-2.4,6.4-2.4c3.7,0.1,6.5,3.3,9.3,5.8c3.7,3.2,8.4,5.4,13.4,6"/>
</g>
<g>
	<path class="st0" d="M376,251.8c-4.1-3.4-9.4-5.5-14.7-5.6c-1.6,0-3.2,0.1-4.7,0.7s-2.8,1.7-3.4,3.2"/>
</g>
<g>
	<path class="st0" d="M382.8,255.2c0.5,0.7,1.2,1.2,1.9,1.6"/>
</g>
<g>
	<path class="st0" d="M393.3,255.1c1.9-0.9,3.8-2,5.4-3.4"/>
</g>
<g>
	<path class="st0" d="M403.3,246.5c0.2-0.8,0.5-1.6,1-2.3"/>
</g>
<g>
	<path class="st0" d="M438,253c-0.2,1.1-0.9,2.1-1.7,2.8"/>
</g>
<g>
	<path class="st0" d="M440.8,240.3c-0.1,0-0.2,0-0.3,0"/>
</g>
<g>
	<path class="st0" d="M450,241.5c-1-0.2-1.8,0.7-2.3,1.6c-0.7,1.2-1.2,2.7-0.4,3.8c0.9,1.2,2.6,1.1,4.1,0.9c0.3,0,0.6-0.1,0.8-0.3
		c0.2-0.2,0.2-0.5,0.2-0.8c0.1-1.7,0.2-3.4,0.3-5.1"/>
</g>
<g>
	<path class="st0" d="M457.7,237.7c-0.8,0.9-0.5,2.5,0.5,3"/>
</g>
<g>
	<path class="st0" d="M396.7,272.4c-0.7,0.1-1.4,0.3-2,0.6c-0.4,0.2-0.9,0.4-1.1,0.8c-0.3,0.7,0.2,1.5,0.9,1.8
		c0.7,0.3,1.4,0.2,2.2,0.1"/>
</g>
<g>
	<path class="st0" d="M406.8,258.1c-0.7,1-0.9,2.3-0.4,3.4s1.4,2,2.6,2.2c0.2,0.1,0.5,0.1,0.7,0c0.5-0.2,0.7-0.7,0.8-1.2
		c0.2-1.4-0.1-2.8-0.9-3.9"/>
</g>
<g>
	<path class="st0" d="M307.3,169.8c-3.5,15.9,3,32.2,2.2,48.5c0,0.8-0.1,1.6,0.4,2.2c0.5,0.6,1.3,0.7,2.1,0.8
		c6.8,0.7,13.7,0.7,20.6,0c0.5-0.1,1.1-0.2,1.4-0.6c0.2-0.4,0.1-0.9,0-1.4c-1.7-7-0.5-14.4-0.2-21.6c0.3-5.7,0-11.4-0.2-17.2
		c-0.1-2.7-0.1-5.6,1.3-7.9c1.4-2.3,4.9-3.5,6.9-1.8"/>
</g>
<g>
	<path class="st0" d="M307.2,169.2c-3.1,0-6.3,0-9.4,0c-0.8,0-1.6,0-2.3-0.5c-1-0.7-1.2-2.1-1.2-3.3c-0.2-4.4,0-8.8,0.5-13.2
		c0.1-1.2,0.4-2.6,1.3-3.4c0.7-0.6,1.7-0.8,2.7-1c3.7-0.5,7.4-0.6,11.1-0.7c11.8-0.2,23.5-0.4,35.3-0.5c0.5,11.2,0.6,22.5,0.3,33.8"
		/>
</g>
<g>
	<path class="st0" d="M295.8,150.3c0.9,0.6,1.8,1.2,2.7,1.8c0.3,0.2,0.6,0.4,0.8,0.8c0.2,0.4,0.3,0.9,0.3,1.4c0,1.9,0,3.8,0.1,5.6
		c0,3-0.1,6.4-2.2,8.5"/>
</g>
<g>
	<path class="st0" d="M307.5,169.5c2.4-1.8,4.7-3.6,7.1-5.4c-5-0.1-9.9-0.2-14.9-0.4"/>
</g>
<g>
	<path class="st0" d="M299.3,152.6c12.9,0,25.7,0,38.6,0c0.6,0,1.2,0,1.8-0.3c0.5-0.2,0.9-0.7,1.3-1.1c1.3-1.4,2.5-2.8,3.8-4.1"/>
</g>
<g>
	<path class="st0" d="M340.5,151.3c0,3,0,5.9,0.1,8.9c0,0.7,0,1.5-0.4,2c-0.3,0.4-0.9,0.7-1.4,0.9c-2,0.7-4.1,1.3-6.2,1.7
		c-1,0.2-2.1,0.4-2.7,1.2c-0.4,0.5-0.4,1.2-0.4,1.9c-0.7,14.4-1.5,28.8-0.8,43.2c0,0.5,0,1.1-0.3,1.5c-0.4,0.5-1.1,0.6-1.7,0.6
		c-2.9,0.1-5.8,0.2-8.7,0.4c-0.6,0-1.2,0-1.7-0.2c-1.2-0.6-1.3-2.1-1.3-3.4c-0.1-15.2-0.3-30.4-0.4-45.7"/>
</g>
<g>
	<path class="st0" d="M340.2,162.3c1.8,0.9,3.5,2.1,5,3.5"/>
</g>
<g>
	<path class="st0" d="M315.5,211.3c-1.9,2.5-3.8,4.9-5.7,7.4"/>
</g>
<g>
	<path class="st0" d="M326.2,213.6c2.2,2.3,4.1,4.9,5.6,7.6"/>
</g>
<g>
	<path class="st0" d="M342.1,171.5c1.1,15.5,2.2,31,3.3,46.5c0,0.4,0.1,0.8,0.3,1.1c0.4,0.5,1.2,0.6,1.8,0.5
		c7.1-0.2,14.2-0.4,21.3-0.6c0.4,0,0.9-0.1,1.2-0.4c0.2-0.3,0.2-0.6,0.1-1c-0.7-6.2-0.9-12.5-0.7-18.7c0.1-1.8,0.9-4.3,2.7-4
		c1.5,0.3,1.8,2.2,1.8,3.7c0,6.5,0,12.9,0,19.4c0,0.6,0,1.2,0.4,1.6c0.5,0.5,1.3,0.5,2,0.5c6.9-0.5,13.7-1,20.6-1.5"/>
</g>
<g>
	<path class="st0" d="M345.5,146.8c6.5,0.2,13,0.4,19.5,0.6c0.5,0,1,0,1.3,0.3c0.5,0.4,0.6,1.1,0.7,1.8c0.5,6.6,1,13.2,1.6,19.8
		c0.1,1.1,0.3,2.4,1.2,3c2.3-7.1-0.6-15.4,2.6-22.1c0.6-1.3,1.5-2.5,2.8-3.1c1.1-0.5,2.3-0.5,3.5-0.5c4.9,0,9.8,0,14.7,0
		c0.4,0,0.8,0,1.1,0.3c0.3,0.3,0.4,0.8,0.4,1.2c2,23.5-1.1,47.1,0.2,70.6"/>
</g>
<g>
	<path class="st0" d="M345.8,147.2c1.5,1.4,2.8,3.1,3.8,4.9c0.3,0.5,0.6,1,1.1,1.3c0.3,0.2,0.7,0.2,1.1,0.1c2.3,0,4.7,0,7,0
		c1.2,0,2.6-0.1,3.6-0.8c0.5-0.4,0.8-0.9,1.1-1.4c0.7-1,1.4-2.1,2-3.1"/>
</g>
<g>
	<path class="st0" d="M349,152.7c-0.1,19.6,0.2,39.2,1.1,58.8c0,0.5,0.1,1,0.4,1.3c0.3,0.3,0.8,0.3,1.3,0.3
		c3.5,0.1,6.9,0.1,10.4,0.1c0.3,0,0.7,0,0.9-0.2c0.3-0.3,0.3-0.7,0.3-1.1c-0.2-7.5-0.4-15-0.5-22.4c0-0.5,0-1.1,0.3-1.4
		c0.3-0.4,0.8-0.4,1.3-0.5c2.5-0.2,5-0.5,7.5-0.7"/>
</g>
<g>
	<path class="st0" d="M361.9,152.3c0,8.5,0.6,17.1,1.6,25.5c0.1,0.5,0.1,1,0.5,1.2c0.3,0.2,0.6,0.2,1,0.2c4.1,0.1,8.2,0,12.4-0.2
		c1.3-7.5-0.8-15.4,0.2-23c0.1-0.7,0.3-1.4,0.8-1.8c0.4-0.3,1-0.3,1.5-0.3c1.8,0,3.6,0,5.4,0"/>
</g>
<g>
	<path class="st0" d="M385.5,154.3c1.3-1,3.3-0.3,4.2,1.1c0.9,1.4,1,3.1,1,4.8c0.3,17.1,0.3,34.3-0.1,51.4c0,0.2,0,0.5-0.1,0.7
		c-0.3,0.5-1,0.6-1.6,0.6c-3.1,0-6.2-0.3-9.2-0.7c-0.5-0.1-1-0.2-1.3-0.5c-0.2-0.3-0.3-0.6-0.3-1c-0.6-5.3-0.8-10.7-0.5-16.1
		c0.1-2.1,0.2-4.4-0.9-6.3c-1.1-1.8-3.9-2.8-5.4-1.2"/>
</g>
<g>
	<path class="st0" d="M388.5,154.8c1.6-2.3,3.5-4.5,5.6-6.4"/>
</g>
<g>
	<path class="st0" d="M377.9,155.1c-1.3-1.9-2.5-3.7-3.8-5.6"/>
</g>
<g>
	<path class="st0" d="M389,212.7c1.4,2.1,2.9,4,4.6,5.9"/>
</g>
<g>
	<path class="st0" d="M381.5,212.5c-1.3,2.6-2.9,5-4.7,7.3"/>
</g>
<g>
	<path class="st0" d="M362.8,212.2c2,2,4,4,5.9,6.1"/>
</g>
<g>
	<path class="st0" d="M350.4,212.4c-1.3,1.7-2.6,3.4-3.9,5.1"/>
</g>
<g>
	<path class="st0" d="M370.8,196c-1.9-2.6-4.4-4.9-7.3-6.5"/>
</g>
<g>
	<path class="st0" d="M372.7,195.4c1.3-2,2.6-4,4-5.9"/>
</g>
<g>
	<path class="st0" d="M368.8,171.3c-0.8,2.5-2,4.9-3.5,7"/>
</g>
<g>
	<path class="st0" d="M370.4,170.8c1,2.8,2.9,5.3,5.3,7"/>
</g>
<g>
	<path class="st0" d="M395,147.1c12.6-0.4,25.1-0.7,37.7-0.7c0.8,0,1.7,0,2.2,0.6c0.4,0.4,0.5,1.1,0.5,1.6c0.6,6.3,1.3,12.6,1.9,19
		c0.1,0.5,0.1,1.1-0.3,1.5c-0.3,0.3-0.8,0.3-1.2,0.3c-6-0.1-12.1-1.9-17.7,0.2c5.3,0,10.5,0.1,15.8,0.1c0.6,0,1.2,0,1.7,0.4
		c0.7,0.5,0.7,1.5,0.7,2.3c0,5.8-0.1,11.6-0.1,17.4c0,0.4,0,0.9-0.2,1.3c-0.4,0.6-1.3,0.7-2,0.8c-3,0.1-6,0.2-9,0.4
		c-1.4,0.1-2.9,0.1-4.1,1c-1.1,0.8-1.6,2.7-0.6,3.7c6.3-0.2,12.6-0.3,18.8-0.5c0.4,0,0.7,0,1,0.2c0.3,0.3,0.3,0.7,0.3,1.1
		c-0.2,6.3-0.3,12.6-0.5,18.9c0,0.8-0.1,1.6-0.6,2.2c-0.6,0.6-1.4,0.7-2.2,0.7c-12.8,0.7-25.7,0.9-38.5,0.6c-0.9,0-2-0.3-2.2-1.1"/>
</g>
<g>
	<path class="st0" d="M396.9,219c0.7-2.4,2.2-4.6,4.1-6.1"/>
</g>
<g>
	<path class="st0" d="M400.5,212.4c0.1-3.7,0.2-7.3,0.3-11c0.3-10.7,0.5-21.4-0.3-32.1c-0.2-2.5-0.4-5.1-0.1-7.6
		c0.4-3,1.7-5.9,1.2-8.9c10-1,20.2-1.2,30.2-0.4c0.4,0,0.9,0.1,1.2,0.4c0.3,0.3,0.4,0.8,0.4,1.3c0,2.6-0.2,5.2-0.5,7.7
		c-0.1,0.5-0.2,1-0.5,1.4c-0.4,0.4-1.1,0.4-1.7,0.5c-5.4,0.1-10.9,0.1-16.3,0.2c-0.7,0-1.5,0-2,0.6c-0.5,0.5-0.6,1.2-0.6,1.8
		c-0.2,2.6-0.3,5.3-0.2,7.9c0,0.7,0.1,1.4,0.5,1.9c0.5,0.5,1.4,0.6,2.1,0.5c5.3-0.1,10.6-0.3,15.9-0.6c0.6,2.8,0.6,5.6,0.2,8.4
		c-0.1,0.7-0.3,1.4-0.8,1.8c-0.4,0.4-1,0.4-1.6,0.5c-4.7,0.5-9.4,1-14.1,1.5c-0.7,0.1-1.4,0.2-1.9,0.7c-0.4,0.4-0.5,1-0.5,1.5
		c-0.3,2.7-0.3,5.5,0.1,8.2c0.1,0.8,0.3,1.7,0.8,2.3c0.5,0.5,1.2,0.7,2,0.8c5.7,1,11.5-0.8,17.2-0.4c0.6,0,1.1,0.1,1.5,0.5
		c0.4,0.4,0.5,1,0.6,1.5c0.4,3,0.3,6-0.1,9c-0.1,0.5-0.2,0.9-0.5,1.2c-0.3,0.3-0.8,0.3-1.2,0.3c-10,0.4-20.1,0-30-1.2"/>
</g>
<g>
	<path class="st0" d="M413.8,164.4c1.1,1.5,2.1,3.1,3.2,4.6"/>
</g>
<g>
	<path class="st0" d="M417.5,169.5c-1.8,1.6-3.3,3.6-4.5,5.7"/>
</g>
<g>
	<path class="st0" d="M432.4,163.8c0.7,1.7,1.5,3.4,2.2,5.1c-0.6-2-1.6-3.8-2.8-5.4"/>
</g>
<g>
	<path class="st0" d="M431.7,152.5c1-1.1,2-2.2,3-3.3"/>
</g>
<g>
	<path class="st0" d="M401.8,153.6c-0.8-0.4-1.6-0.8-2.3-1.1c-1.9-0.9-4-2.2-4.4-4.2"/>
</g>
<g>
	<path class="st0" d="M433.7,210.8c1.7,2.4,3.2,4.9,4.6,7.5"/>
</g>
<g>
	<path class="st0" d="M434,202.7c2-1.4,4-2.8,6-4.2"/>
</g>
<g>
	<path class="st0" d="M413.8,200.5c2.4-1.1,4.7-2.4,6.8-4.1"/>
</g>
<g>
	<path class="st0" d="M420.9,193.5c-1.1-2.1-2.6-3.9-4.5-5.3"/>
</g>
<g>
	<path class="st0" d="M434.5,190.2c-1.5-1.7-3-3.3-4.5-5"/>
</g>
<g>
	<path class="st0" d="M430.6,177.2c0.9-2.4,2.4-4.6,4.2-6.4"/>
</g>
<g>
	<path class="st0" d="M317.5,92.1c13.9-1.4,27.9-4.3,41.8-2.5c2.1,0.3,4.6,1.1,4.8,3.2c0.1,1.3-0.9,2.4-2.1,2.9
		c-1.2,0.5-2.5,0.5-3.7,0.5c-12.1,0-24.2,0.1-36.3,0.1c-1.4,0-2.9,0-4-0.8c-1.2-0.8-1.8-2.5-0.8-3.6"/>
</g>
<g>
	<path class="st0" d="M328.3,92c-0.1,1-0.2,2-0.3,3"/>
</g>
<g>
	<path class="st0" d="M332,90.8c0.1,1.4,0.2,2.8,0.3,4.2"/>
</g>
<g>
	<path class="st0" d="M335.9,90c0.6,1.8,0.7,3.7,0.4,5.5"/>
</g>
<g>
	<path class="st0" d="M338.8,90c0.3,2,0.3,4,0.2,6"/>
</g>
<g>
	<path class="st0" d="M343.2,89.8c0.3,1.8,0.3,3.7,0.2,5.5"/>
</g>
<g>
	<path class="st0" d="M345.5,89.5c0.1,2,0.1,4-0.2,6"/>
</g>
<g>
	<path class="st0" d="M347.9,89.5c0.4,2.1,0.4,4.3,0.1,6.5"/>
</g>
<g>
	<path class="st0" d="M350.2,88.8c1,2.1,1.4,4.4,1,6.7"/>
</g>
<g>
	<path class="st0" d="M353,89c1,2.2,1.5,4.6,1.2,7"/>
</g>
<g>
	<path class="st0" d="M356.6,89c0.7,2.3,0.9,4.7,0.6,7"/>
</g>
<g>
	<path class="st0" d="M457,161.2c1.8,18.5,2.2,37.2,0.9,55.8c-0.1,0.9-0.1,1.9,0.6,2.6c0.6,0.6,1.6,0.7,2.4,0.7c6.8,0,13.5,0,20.3,0
		c1.1,0,2.4-0.1,3.1-0.9c0.6-0.7,0.6-1.8,0.6-2.8c-0.2-5.2-0.4-10.5-0.6-15.7c0-1.2-0.1-2.4,0.6-3.4c0.7-1,1.9-1.5,3.1-1.8
		c3.1-0.8,6.4-1.1,9.6-0.8"/>
</g>
<g>
	<path class="st0" d="M457.1,160.3c3.1-4.7,7.8-8.2,12.4-11.6c1-0.7,2-1.5,3.2-1.8c1-0.3,2.1-0.3,3.1-0.3c6.7,0.1,13.5,0.1,20.2,0.2
		c0.7,0,1.4,0,2,0.4c0.6,0.3,1,1,1.3,1.6c1,2.2,1.1,4.8,1.1,7.3c0.2,18.6,0.3,37.3,0.5,55.9"/>
</g>
<g>
	<path class="st0" d="M472.1,151.7c-2.8,3.6-7.4,6.1-8.6,10.5c-0.4,1.5-0.4,3.1-0.4,4.6c0.2,14.9,0.5,29.7,0.7,44.6
		c0,0.7,0.1,1.6,0.6,2.1c0.5,0.4,1.1,0.4,1.8,0.5c3.2,0.1,6.4,0.1,9.6,0.2c0.6,0,1.2,0,1.6-0.4c0.3-0.3,0.3-0.8,0.3-1.3
		c0.1-7.3-1.6-14.5-1.3-21.8c0-0.6,0.1-1.2,0.4-1.7c0.5-0.6,1.3-0.7,2.1-0.8c4.3-0.5,8.7-0.6,13.1-0.4c0.6,0,1.2,0,1.6-0.3
		c0.4-0.3,0.5-0.9,0.5-1.4c0.4-3.6,0.3-7.2-0.3-10.8c-4.1-0.1-8.2-0.3-12.3-0.4c-0.7,0-1.4-0.1-2-0.5c-0.7-0.6-0.9-1.6-1-2.5
		c-0.2-2.3-0.3-4.6-0.3-6.9c5.6-0.3,11.2-0.7,16.8-1c0.6,0,1.1-0.1,1.6-0.4c0.6-0.4,0.8-1.1,0.9-1.8c0.3-2.7-0.4-5.3-1.2-7.9
		c-0.2-0.5-0.3-1.1-0.8-1.4c-0.4-0.3-1-0.4-1.5-0.4c-7.2-0.4-14.4-0.5-21.6-0.4"/>
</g>
<g>
	<path class="st0" d="M495.7,152.2c0.8-1.2,1.7-2.3,2.5-3.5"/>
</g>
<g>
	<path class="st0" d="M471.8,151.7c-0.4-1-0.9-2-1.3-3"/>
</g>
<g>
	<path class="st0" d="M463.2,162.1c-2.3,0.7-4.9,0.2-6.8-1.3"/>
</g>
<g>
	<path class="st0" d="M494.5,176.2c1.8-1.2,3.7-2.5,5.5-3.7"/>
</g>
<g>
	<path class="st0" d="M482.1,174.6c0.8-1.4,1.8-2.7,2.9-3.8c-2.8-0.7-5.2-2.8-6.3-5.5"/>
</g>
<g>
	<path class="st0" d="M484.8,170.1c5.1,0.3,10.2,0.8,15.2,1.3"/>
</g>
<g>
	<path class="st0" d="M500.2,168.8c-1.5-1.3-2.8-3-3.7-4.8"/>
</g>
<g>
	<path class="st0" d="M493.4,187.3c1.9,2.2,3.5,4.7,4.6,7.4"/>
</g>
<g>
	<path class="st0" d="M486.9,196.7c-1.1-0.9-2.2-1.7-3.3-2.6c-1.7-1.3-3.5-2.8-4.2-4.8"/>
</g>
<g>
	<path class="st0" d="M482.4,219.6c-1.6-2.5-3.4-4.8-5.2-7.1"/>
</g>
<g>
	<path class="st0" d="M464.5,212.5c-0.3,2.7-2,5.2-4.4,6.4"/>
</g>
<g>
	<path class="st0" d="M497.9,194.8c-0.5,7.6-0.2,15.2,1.1,22.8c0.2,1.3,0.6,2.8,1.8,3.4c0.6,0.3,1.3,0.3,2,0.3
		c15.7,0.1,31.4,0,47.1-0.1c0.6,0,1.4,0,1.8-0.5c0.3-0.4,0.3-0.9,0.3-1.4c0.1-9.8,0.2-19.7,0.3-29.5"/>
</g>
<g>
	<path class="st0" d="M496.7,147.3c7.1-0.7,14.3-1,21.5-0.8c0.8,0,1.7,0.1,2.4,0.5c1.1,0.8,1.3,2.3,1.4,3.7
		c0.7,13.6,1.3,27.2,2,40.8c0.1,1.6,0.2,3.4,1.2,4.7c0.2-1.5,0.3-3.1,0.4-4.6c0.7-13.7,1.4-27.3,2.1-41c0.1-1.2,0.1-2.5,0.9-3.4
		c1-1.4,3-1.7,4.7-1.8c3.5-0.3,7-0.3,10.5-0.1c4.7,0.3,10,1.5,12.1,5.7"/>
</g>
<g>
	<path class="st0" d="M515.3,154c1.2-2.2,2.5-4.3,4-6.3"/>
</g>
<g>
	<path class="st0" d="M505,153.5c-1.3-2.2-2.7-4.3-4-6.5"/>
</g>
<g>
	<path class="st0" d="M505.1,153.3c-1.6,18.8-1.5,37.7,0.6,56.5c0.1,1.2,0.3,2.4,1.2,3.2c0.7,0.7,1.8,0.8,2.8,0.9
		c10.8,1,21.7-0.3,32.5-1.7c1.2-0.1,2.5-0.4,3.1-1.3c0.5-0.7,0.5-1.5,0.5-2.3c0.4-18.7,0.8-37.5,1.2-56.2c0-0.4,0-0.8-0.2-1.1
		c-0.3-0.5-1-0.5-1.6-0.5c-3.9,0-7.8,0.4-11.6,1c-0.5,0.1-1.1,0.2-1.4,0.5c-0.6,0.5-0.7,1.3-0.7,2.1c-1.2,14.7-1.9,29.4-0.9,44.1
		c0.1,2,0.2,4.3-1.4,5.5c-0.7,0.5-1.5,0.7-2.3,0.8c-2.2,0.3-4.4,0.2-6.5-0.5c-0.5-0.2-1.1-0.3-1.5-0.8c-0.4-0.5-0.6-1.2-0.6-1.8
		c-2-15.1,0.1-30.5-1.2-45.6c-0.1-0.7-0.1-1.4-0.6-1.8c-0.5-0.4-1.2-0.5-1.9-0.4c-2.9,0.1-5.7,0.1-8.6,0.2"/>
</g>
<g>
	<path class="st0" d="M544.7,211.5c1.8,2.9,3.6,5.7,5.6,8.5"/>
</g>
<g>
	<path class="st0" d="M505.7,211.5c-1,3.3-2.9,6.2-5.4,8.6"/>
</g>
<g>
	<path class="st0" d="M546.7,151.4c1.4-1.4,2.7-2.8,4.1-4.2"/>
</g>
<g>
	<path class="st0" d="M551.6,189.7c0.3-6.1,0.7-12.1,1-18.2c0-0.6,0.1-1.2,0.3-1.7c0.9-1.8,3.8-1.6,5.2,0s1.4,3.8,1.5,5.8
		c0.4,11.6,0.8,23.2,1.2,34.9c0.1,2.4,0.2,4.9,0.9,7.2c0.3,1,0.8,2.1,1.8,2.7c0.8,0.5,1.9,0.5,2.9,0.4c6-0.2,12.1-0.4,18.1-0.8
		c0.5,0,1-0.1,1.4-0.4c0.4-0.4,0.5-1,0.5-1.6c0.6-14.2,0.9-28.3,0.8-42.5c0-1.3,0-2.7,0.7-3.8c1.6-2.5,5.8-1.8,7.5,0.6
		s1.8,5.6,1.8,8.5c-0.1,8.4-0.2,16.8-0.3,25.3"/>
</g>
<g>
	<path class="st0" d="M558.5,170.2c1.4-2.2,2.8-4.4,4.2-6.6c-2-0.1-3.9-0.2-5.9-0.2c-0.6,0-1.3-0.1-1.8-0.4c-0.7-0.5-0.9-1.5-1-2.4
		c-0.1-2,0-3.9,0.4-5.9c0.2-1.1,0.6-2.3,1.5-2.9c0.8-0.6,1.9-0.6,2.9-0.6c11.2,0,22.5,0.6,33.6,2c0.5,0.1,0.9,0.1,1.3,0.4
		c0.6,0.4,0.8,1.1,0.9,1.8c0.4,2.1,0.5,4.3,0.2,6.4c-0.1,0.5-0.2,0.9-0.5,1.3c-0.4,0.4-1,0.5-1.5,0.6c-2.7,0.4-5.5,0.6-8.3,0.6
		c-0.6,0-1.2,0-1.7,0.3c-1,0.6-1.1,1.9-1.1,3c-0.2,14.6-0.3,29.3-0.5,43.9c0,0.7,0,1.4-0.5,1.9c-0.4,0.5-1.2,0.7-1.8,0.8
		c-2.9,0.4-5.9,0.3-8.8-0.3c-0.4-0.1-0.7-0.2-1-0.4c-0.5-0.4-0.6-1.1-0.6-1.7c-1.3-14-1.6-28.1-0.9-42.1c0.1-1.6,0.2-3.3-0.7-4.7
		c-0.8-1.4-2.9-2.2-4.1-1.1"/>
</g>
<g>
	<path class="st0" d="M554.6,162.3c-1.2,1.9-2.4,3.8-3.7,5.6"/>
</g>
<g>
	<path class="st0" d="M551.5,147.1c12.4-0.1,24.8-0.3,37.1-0.4c2.9,0,5.8-0.1,8.6,0.6c2.8,0.7,5.5,2.2,7.1,4.6"/>
</g>
<g>
	<path class="st0" d="M596.8,146.9c6.2-0.2,12.4-0.4,18.6-0.6c0.8,0,1.7-0.1,2.5,0.2c2.6,0.9,3,4.4,2.9,7.2
		c-0.3,13.5-0.2,27,0.3,40.4c0,1,0.1,2.1,0.6,3c0.5,0.9,1.7,1.5,2.6,1c1.1-0.6,1.1-2.1,1-3.3c-1.3-14.6-1.6-29.3-1.1-43.9
		c0.1-1.6,0.3-3.5,1.6-4.4c0.8-0.6,1.9-0.6,3-0.7c3.4-0.1,6.9-0.2,10.3-0.3c2.4-0.1,4.9-0.1,7.2,0.7c2.3,0.8,4.3,2.7,4.7,5.1"/>
</g>
<g>
	<path class="st0" d="M597.1,206.3c0.4,3.2,0.8,6.3,1.2,9.5c0.1,0.8,0.2,1.7,0.9,2.2c0.5,0.4,1.2,0.5,1.9,0.5
		c15.1,0.9,30.2,1.5,45.2,1.5c0.5,0,1,0,1.3-0.3c0.5-0.4,0.5-1.1,0.5-1.7c-0.3-17.8-0.5-35.6-0.8-53.3c-0.1-4.8,0.1-10.3,3.7-13.5"
		/>
</g>
<g>
	<path class="st0" d="M583.9,164.7c1.8,2,3.3,4.2,4.4,6.6"/>
</g>
<g>
	<path class="st0" d="M592.8,153.3c1.9-1.9,3.7-3.8,5.6-5.6"/>
</g>
<g>
	<path class="st0" d="M604.3,152.5c2.3,0,4.6,0,6.9,0c0.6,0,1.3,0,1.7,0.4c0.4,0.3,0.5,0.8,0.7,1.3c1.8,7,2,14.2,2.1,21.4
		c0.2,8.5,0.4,17,0.5,25.5c0,0.9,0.1,2,0.8,2.6c0.6,0.5,1.5,0.6,2.3,0.5c3.2,0,6.5,0,9.7,0c0.4,0,0.9,0,1.2-0.4
		c0.2-0.3,0.2-0.6,0.2-1c0.4-14.1,0.8-28.1,1.2-42.2c0-1.4,0.1-2.8-0.3-4.2c-0.8-3.2-3.5-5.5-6.1-7.5"/>
</g>
<g>
	<path class="st0" d="M630,153.3c0.9-1.4,2.7-1.7,4.4-1.8c2.6-0.1,5.3,0.3,7.8,1c0.3,0.1,0.5,0.2,0.8,0.1c0.4-0.1,0.6-0.5,0.8-0.8
		c0.9-1.7,1.7-3.4,2.6-5.1"/>
</g>
<g>
	<path class="st0" d="M644.1,151.7c-0.5,20.1-1,40.2-1.5,60.3c0,0.6,0,1.2-0.3,1.8c-0.7,1.3-2.5,1.5-4,1.5
		c-10.2-0.2-20.5-1.2-30.6-2.8c-0.8-0.1-1.7-0.3-2.4-0.9c-0.9-0.8-1-2.1-1.1-3.3c-0.4-5.7-0.8-11.5-1.1-17.2
		c-0.3-5.1-0.7-10.1-0.6-15.2c0.1-8.1,1.1-16.1,2.2-24.1"/>
</g>
<g>
	<path class="st0" d="M613.9,154.1c1.9-1.8,3.7-3.7,5.4-5.6"/>
</g>
<g>
	<path class="st0" d="M605.3,210.5c-0.7,2.8-4.4,4.2-4.9,7"/>
</g>
<g>
	<path class="st0" d="M621.5,197c-1.2,2.1-2.5,4.2-3.7,6.3"/>
</g>
<g>
	<path class="st0" d="M624.3,197.3c2.1,1,3.9,2.6,5.1,4.5"/>
</g>
<g>
	<path class="st0" d="M642,214c2.3,1.2,4.2,3.1,5.4,5.3"/>
</g>
<g>
	<path class="st0" d="M651,151.6c2.2-0.9,3-3.6,4.9-4.9c1.3-0.9,3-1,4.5-1c11.1-0.5,22.2-1.1,33.2,0.3c1,0.1,2.2,0.4,2.7,1.3
		c0.3,0.6,0.3,1.3,0.3,2c-0.2,2.5-0.4,5-0.5,7.5c-0.7,12.3-0.3,24.6,0.1,36.8c0.2,4.7,0.3,9.4,0.7,14.1c0.2,2.9,0.5,5.8,0.9,8.7
		c0.1,0.5,0.1,1-0.1,1.4c-0.4,0.7-1.4,0.8-2.2,0.8c-6.2,0-12.4,0-18.6,0c-0.7,0-1.4,0-2-0.4c-0.6-0.4-0.9-1-1.2-1.6
		c-3.3-7.4-4.5-15.8-3.3-23.8"/>
</g>
<g>
	<path class="st0" d="M673,216.3c-1.1-0.2-2.6-0.1-3.1,0.9c-0.2,0.4-0.2,0.8-0.3,1.1c-0.5,1-1.8,1.2-3,1.2c-6.2,0-12.4,0-18.6,0"/>
</g>
<g>
	<path class="st0" d="M649.5,219.3c3.1-4.4,2.6-10.2,2.3-15.6c-0.5-7.3-0.4-14.6,0.3-21.9c0.4-4.3,1-8.5,0.5-12.8
		c-0.4-3.2-1.4-6.5-0.4-9.6c1-3.1,4-5.2,7.2-6.1s6.5-0.7,9.7-0.6c6.6,0.3,13.2,0.6,19.7,1c0.6,0,1.3,0.1,1.8,0.5
		c0.7,0.5,0.8,1.5,0.9,2.3c1,10.5,0.8,21.2-0.5,31.7c-0.1,1-0.4,2.1-1.2,2.5c-0.7,0.3-1.4,0.1-2.1,0.3c-1.3,0.6-1,2.5-0.5,3.8
		c2,5.5,4.1,11,6.1,16.5c0.2,0.5,0.4,1,0.3,1.5c-0.2,1.1-1.6,1.5-2.7,1.6c-2,0.2-4,0.3-5.9,0.2c-0.8,0-1.7-0.1-2.4-0.5
		c-1.1-0.6-1.6-1.8-2.1-3c-2.4-5.7-5.2-11.3-8.3-16.7c-1-1.7-2.9-3.6-4.5-2.5c-1.1,0.7-1,2.3-0.9,3.6c0.5,4.8,0.6,9.5,0.3,14.3
		c-0.1,1.2-0.3,2.5-1.2,3.2c-0.6,0.4-1.5,0.4-2.2,0.4c-3.7-0.1-7.3-0.4-10.9-1.1"/>
</g>
<g>
	<path class="st0" d="M665.3,165c-0.2,3.3-0.5,6.6-0.6,9.8c0,0.7-0.1,1.4,0.3,2c0.3,0.5,0.8,0.9,1.4,1.2c3.5,1.9,7.6,1.4,11.5,0.9
		c0.4,0,0.8-0.1,1.1-0.4c0.2-0.3,0.2-0.6,0.2-0.9c0.1-3.5,0.2-7,0.4-10.5c0-0.6,0-1.3-0.3-1.8c-0.5-0.7-1.5-0.8-2.3-0.8
		c-3.5-0.1-7.1-0.2-10.6-0.3"/>
</g>
<g>
	<path class="st0" d="M665.6,164.1c2,1.1,4.3,2.5,4.6,4.7c0.2,1.2-0.3,2.5-0.3,3.7c0,0.2,0,0.5,0.2,0.6c0.2,0.2,0.4,0.2,0.6,0.2
		c1,0.1,2,0.1,3,0.1c0.2,0,0.4,0,0.6-0.1c0.2-0.2,0.3-0.5,0.3-0.8c0.1-0.9,0.2-1.8,0.3-2.8c0-0.3,0.1-0.6-0.1-0.9
		c-0.2-0.6-1.1-0.8-1.8-0.8c-0.7,0.1-1.4,0.3-2.1,0c2.6,0.6,5.5-0.7,6.8-3"/>
</g>
<g>
	<path class="st0" d="M674.7,173.5c0.5,1.6,1.3,3.2,2.4,4.5"/>
</g>
<g>
	<path class="st0" d="M669.7,173.5c-0.6,1.4-1.4,2.8-2.2,4"/>
</g>
<g>
	<path class="st0" d="M679.5,210c-1.7,2-3.3,4-5,6"/>
</g>
<g>
	<path class="st0" d="M693.5,212.7c0.9,1.5,1.8,3,2.7,4.5"/>
</g>
<g>
	<path class="st0" d="M695.8,193c-1.3-1.3-2.8-2.4-4.3-3.4"/>
</g>
<g>
	<path class="st0" d="M695.7,147.5c-2.5,1.7-4.9,3.5-7.2,5.5"/>
</g>
<g>
	<path class="st0" d="M658.6,153.2c0.6-2.2,0.2-4.6-0.9-6.6"/>
</g>
<g>
	<path class="st0" d="M694.5,146.9c14-0.2,28.1-0.4,42.1-0.6c0.7,0,1.4,0,2,0.3c1,0.6,1.2,2,1.2,3.1c0.3,5.7,0.5,11.4,0.7,17.1
		c0,0.6,0,1.4-0.5,1.8c-0.4,0.3-0.9,0.3-1.3,0.4c-4.7,0.2-9.4,0.4-14.1,0.6c-1.2,0.1-2.7,0.4-2.7,1.6c0,1.2,1.6,1.6,2.9,1.6
		c4.2,0,8.5,0,12.7,0c0.7,0,1.5,0,1.9,0.5c0.4,0.4,0.5,1,0.5,1.6c0.5,5.1,0.5,10.2,0.2,15.2c0,0.6-0.1,1.2-0.5,1.7
		c-0.4,0.4-1,0.6-1.6,0.7c-3.5,0.8-7,1.1-10.5,1c-1.1,0-2.3-0.1-3.2,0.5c-0.9,0.6-1.3,2.1-0.4,2.7c0.4,0.3,0.9,0.3,1.3,0.3
		c4.3,0.1,8.6,0.2,13,0.4c0.5,0,1,0,1.4,0.3c0.3,0.3,0.5,0.7,0.6,1.1c1.7,5.9,1.3,12.4-1.1,18.1c-0.4,1-0.9,2-1.8,2.4
		c-0.7,0.4-1.5,0.4-2.3,0.3c-12.7-0.3-25.5-0.7-38.2-1.2"/>
</g>
<g>
	<path class="st0" d="M735.1,211.5c0.4,2.1,1.3,4.1,2.7,5.7c0.2-0.2,0.1-0.5-0.1-0.8c-0.8-1.7-1.7-3.4-2.5-5.2"/>
</g>
<g>
	<path class="st0" d="M735.2,205c1.5-1.8,3-3.5,4.7-5.1"/>
</g>
<g>
	<path class="st0" d="M717.5,201c1.4-1.5,3.2-2.6,5.1-3.4c0.6-0.2,1.3-0.5,1.7-1c0.5-0.6,0.5-1.5,0.2-2.2c-0.3-0.7-0.8-1.3-1.3-1.9
		c-1.6-1.8-3.2-3.5-4.8-5.3"/>
</g>
<g>
	<path class="st0" d="M730.4,186.3c2.5,1.8,5.1,3.7,7.6,5.5"/>
</g>
<g>
	<path class="st0" d="M731.5,177.5c2-1.7,4.3-2.9,6.8-3.8"/>
</g>
<g>
	<path class="st0" d="M733.8,163.1c2.1,1,3.9,2.4,5.4,4.2"/>
</g>
<g>
	<path class="st0" d="M700.5,152c1.4,19,1.6,38.2,0.6,57.2c0,0.9,0,2,0.6,2.7c0.5,0.5,1.2,0.6,1.9,0.6c10.1,1.1,20.4,0.6,30.3-1.3
		c0.4-0.1,0.8-0.2,1.1-0.5c0.2-0.3,0.2-0.7,0.2-1c0-1.7,0-3.3,0-5c0-0.4,0-0.8-0.2-1.1c-0.3-0.4-1-0.5-1.5-0.5
		c-5,0.1-10-0.3-14.9-1.3c-0.6-0.1-1.3-0.3-1.6-0.8c-0.3-0.4-0.3-0.9-0.4-1.3c-0.4-3.3-0.8-6.6-1.2-9.8c-0.1-0.6-0.1-1.2,0.1-1.8
		c0.5-1.2,2-1.5,3.3-1.6c3.9-0.3,7.8-0.6,11.8-0.9c0.4,0,0.9-0.1,1.2-0.4c0.2-0.3,0.3-0.6,0.4-1c0.3-2.3,0.1-4.7-0.6-6.9
		c-0.1-0.4-0.3-0.8-0.6-1.1c-0.4-0.3-1-0.3-1.5-0.3c-4,0-7.9,0-11.9,0.1c-0.5,0-1.1,0-1.4-0.4c-0.3-0.3-0.3-0.8-0.4-1.3
		c-0.2-4-0.2-8,0-12.1c6.2-0.4,12.4-0.5,18.5-0.4c-0.2-2.5-0.7-4.9-1.4-7.2c-0.1-0.4-0.3-0.9-0.7-1.2c-0.4-0.3-1-0.4-1.6-0.4
		c-9.9,0-19.8,0-29.8,0"/>
</g>
<g>
	<path class="st0" d="M732.3,154.1c1.9-2.2,3.9-4.2,6.2-6.1"/>
</g>
<g>
	<path class="st0" d="M734.7,163.3c-0.5-0.1-0.9-0.5-1-1"/>
</g>
<g>
	<path class="st0" d="M696.5,193.5c1.7,0.8,3.2,2,4.3,3.5"/>
</g>
<g>
	<path class="st0" d="M701.6,211.4c-1.6,1.7-2.8,3.7-3.7,5.8"/>
</g>
<g>
	<path class="st0" d="M696.6,148.1c1.8,0.9,3.3,2.4,4.1,4.1"/>
</g>
<g>
	<path class="st0" d="M450.2,302.8c9.5-7.8,19-15.7,26.5-25.5c2.6-3.3,4.9-6.9,7.5-10.2c2.9-3.7,6.2-7,9.5-10.4
		c1.6-1.7,3.3-3.4,5.4-4.5c2.4-1.3,5.1-1.7,7.8-2.1c7.2-1,14.5-1.9,21.8-1.1c7.3,0.8,14.5,3.3,19.9,8.3c8.4,7.9,10.7,20.5,18.7,28.8
		c3.5,3.6,7.9,6.2,11,10c1.7,2,2.9,4.3,4.7,6.2c3.1,3.4,7.5,5.3,11.8,7.2"/>
</g>
<g>
	<path class="st0" d="M495.9,278c3.8-1.6,5.7-6.5,4-10.3c-0.3-0.7-0.7-1.3-0.8-2c-0.2-1.6,0.9-3,2.1-4c6.3-5.6,15.1-8.3,23.4-7.3
		c3.4,0.4,6.9,1.6,9.4,4c2.6,2.6,3.7,6.2,5.8,9.1c2.6,3.5,6.5,5.8,8.8,9.5c1,1.5,1.6,3.3,2.3,5c3.4,8.8,7.2,17.6,13,25.1
		c5.7,7.5,13.6,13.7,22.8,15.9"/>
</g>
<g>
	<path class="st0" d="M536.1,261.5c-1.1,1.9-0.8,4.5,0.6,6.3s3.6,2.7,5.8,3"/>
</g>
<g>
	<path class="st0" d="M538,269.3c0,2.2,0,4.5,0,6.7c0,0.7,0,1.4,0.4,2c0.3,0.4,0.7,0.8,1.2,1c2,1,4.3,0.9,6.5,0.7"/>
</g>
<g>
	<path class="st0" d="M546.3,279.9c-1.8,0.8-3.7,1.7-4.5,3.4c-0.9,1.9-0.3,4.2,0.6,6.2c4,9.3,12.2,16.6,21.8,19.5"/>
</g>
<g>
	<path class="st0" d="M565,308.8"/>
</g>
<g>
	<path class="st0" d="M541.2,280c0,0.9,0.4,1.8,1,2.5"/>
</g>
<g>
	<path class="st0" d="M543.9,293.3c-0.6,1.7-0.4,3.8,0.6,5.3c0.6,0.8,1.3,1.5,2.1,2.2c2.7,2.4,5.4,4.8,8.2,7.2c1,0.9,2,1.8,3.2,2.3
		c1.1,0.4,2.2,0.6,3.4,0.7c1.9,0.2,3.9,0.5,5.8,0.7"/>
</g>
<g>
	<path class="st0" d="M553.3,263.1c2.5-0.6,4.9-1.6,7.1-2.9c0.9-0.6,2-1.2,3-0.8c1,0.4,1.3,1.8,0.9,2.9c-0.4,1-1.3,1.8-2.2,2.5
		c-1.6,1.3-3.2,2.6-4.8,3.9"/>
</g>
<g>
	<path class="st0" d="M517.3,246.2c-0.1-2.2-0.1-4.6,1.1-6.4c0.3-0.5,0.8-1,1.4-1.1c0.8-0.2,1.6,0.4,2,1.1c0.4,0.7,0.5,1.6,0.5,2.4
		c0.1,1.5,0.2,3,0.4,4.5"/>
</g>
<g>
	<path class="st0" d="M523.2,247c7,0.2,14,0.7,21,1.5c0.3,0,0.7,0.1,1,0.3c0.3,0.2,0.5,0.6,0.7,0.9c2.1,4.5,4.6,8.7,7.4,12.8"/>
</g>
<g>
	<path class="st0" d="M517,246.4c-7.8,1-15.7,1.5-23.5,1.3c-0.8,0-1.6,0-2.2,0.4c-0.6,0.4-0.8,1.2-1.1,1.9
		c-1.4,4.2-4.2,7.9-7.9,10.4"/>
</g>
<g>
	<path class="st0" d="M480,260.5c-1.1-0.6-2.3-1.1-3.5-1.5c-0.2-0.1-0.4-0.1-0.6-0.1c-0.2,0.1-0.4,0.3-0.5,0.5c-0.4,1,0.2,2.2,0.9,3
		c1.3,1.6,3,2.9,4.8,3.9c0.3,0.2,0.6,0.3,1,0.3c0.7,0,1.2-0.8,1.2-1.5c0-0.7-0.4-1.4-0.8-2c-0.7-0.9-1.4-1.8-2.3-2.5"/>
</g>
<g>
	<path class="st0" d="M482,260.8c-0.3,0-0.5,0-0.8,0"/>
</g>
<g>
	<path class="st0" d="M456.8,160.1c-2.8,0.1-5.6,0.1-8.3-0.2c-0.8-0.1-1.6-0.2-2.3-0.6c-1.4-0.9-1.6-2.9-1.7-4.5
		c-0.3-6.3-0.3-12.6-0.2-18.8c0-1.9,0.1-3.7-0.4-5.5c-0.5-1.8-1.5-3.5-3.1-4.4c-0.6-0.3-1.3-0.6-1.4-1.2c-0.1-1.1,1.6-1.3,2.5-1.9
		c1.1-0.7,1.1-2.3,1.1-3.6c-0.7-10.9-0.7-21.8,0-32.6c0.2-3,0.4-6,1.5-8.8c0.2-0.5,0.4-1,0.8-1.2c0.4-0.3,1-0.4,1.6-0.4
		c2.1-0.1,4.3,0,6.4,0.1c7.8,0.3,15.7,0.5,23.5,0.8"/>
</g>
<g>
	<path class="st0" d="M442,127.7c0.8,7.5,1.1,15.1,0.9,22.7c-0.1,2-0.1,4,0.7,5.8c1.5,3.1,5.3,4.3,8.7,4.6"/>
</g>
<g>
	<path class="st0" d="M440.5,120c-1.2,0.3-2.4,0.6-3.3,1.4s-1.5,2.1-1,3.2c0.3,0.6,0.8,1,1.3,1.4c0.8,0.6,1.5,1.2,2.3,1.8"/>
</g>
<g>
	<path class="st0" d="M440.1,128c-0.3,10.7,0,21.5,0.8,32.2"/>
</g>
<g>
	<path class="st0" d="M441,160.7c0,1.4,0.9,2.7,2.1,3.5s2.7,1,4.1,1c1.4,0,2.8-0.2,4.2-0.2"/>
</g>
<g>
	<path class="st0" d="M440.1,120c-0.6-9.1-1-18.2-1.2-27.4"/>
</g>
<g>
	<path class="st0" d="M442.1,86c-0.8-2.5-1.7-5-2.5-7.4c-0.2-0.5-0.4-1.1-0.8-1.5c-0.7-0.7-1.7-0.7-2.6-0.7
		c-5.5-0.1-11.1,0-16.6,0.2"/>
</g>
<g>
	<path class="st0" d="M419,76.7c-2.7,0.2-5.5,0.6-7.4,2.5c-0.4,0.4-0.8,0.9-0.9,1.4c-0.2,0.5-0.2,1-0.2,1.5c-0.1,1-0.3,2.1-0.6,3.1
		c-0.1,0.4-0.3,0.8-0.5,1.1c-0.3,0.3-0.8,0.5-1.1,0.3"/>
</g>
<g>
	<path class="st0" d="M407.6,86.5c-0.4,0.1-0.9-0.2-1.1-0.6c-0.2-0.4-0.2-0.9-0.2-1.3c0-1.6,0-3.1,0-4.7"/>
</g>
<g>
	<path class="st0" d="M406.1,79.5c-0.9-0.8-2.3-0.8-3.6-0.8c-8.7,0.3-17.4,0.5-26.1,0.8"/>
</g>
<g>
	<path class="st0" d="M376.5,79.7c-20,0.1-40,0.5-60,1"/>
</g>
<g>
	<path class="st0" d="M316,80.7c-4.4-0.8-8.4,2.3-12.6,3.9c-3.8,1.4-7.8,1.5-11.7,2.5c-3.8,1.1-7.8,3.6-8.6,7.5"/>
</g>
<g>
	<path class="st0" d="M328.7,80.3c1.5-4.6,3.2-9.1,5.1-13.6c0.7-1.7,1.7-3.5,3.4-4.1c1.2-0.4,2.6,0,3.8,0.3c0.3,0.1,0.6,0.2,0.7,0.4
		c0.3,0.5-0.1,1.1-0.5,1.5c-4,4-5.9,9.6-7.8,14.9"/>
</g>
<g>
	<path class="st0" d="M268.8,98.4c-2.9-3.6-3.7-8.4-3.9-13.1c-0.1-1.6-0.1-3.1,0.2-4.6c0.6-2.4,2-4.5,3.8-6.2
		c2.9-2.7,6.8-4.4,10.8-4.6c1.7-0.1,3.6,0.2,4.6,1.6"/>
</g>
<g>
	<path class="st0" d="M265.5,78.7c2.6-0.7,5-2.1,7.4-3.2c3.3-1.6,6.9-2.7,10.5-3.3c1.2-0.2,2.4-0.3,3.5-0.1c1.4,0.3,2.5,1.2,3.5,2.2
		c3.4,3.1,6.2,6.8,8.3,10.9"/>
</g>
<g>
	<path class="st0" d="M271.6,76.5c0.4,0.3,0.7,0.7,0.9,1.1c1.2,1.9,2.4,3.7,3.6,5.6c0.3,0.4,0.9,0.9,1.3,0.6
		c0.2-0.2,0.2-0.4,0.2-0.6c-0.1-1.1-0.6-2-1.1-3c-0.8-1.6-1.3-3.4-1.6-5.2"/>
</g>
<g>
	<path class="st0" d="M292.2,76.2c-1-0.1-2-0.2-2.8,0.4c-0.5,0.4-0.8,1.1-1.1,1.7c-0.4,1-0.8,2.2-0.4,3.2c0.2,0.5,0.7,0.9,1.1,1.2
		c2.6,1.9,6.2,2.6,9.3,1.7"/>
</g>
<g>
	<path class="st0" d="M451.6,151.1c-1.3-0.3-3.1-0.3-3.3,1c-0.2,1.2,1.3,2,2.6,1.9c0.8,0,1.7-0.2,2.1-0.9c0.5-0.7,0.2-1.8-0.6-1.9"
		/>
</g>
<g>
	<path class="st0" d="M444.6,295.8c-1.4,0.4-2.2,2.3-1.4,3.5s2.8,1.4,3.8,0.2s0.4-3.1-1-3.6"/>
</g>
<g>
	<path class="st0" d="M441.3,301c-0.1,0-0.2,0-0.3,0"/>
</g>
<g>
	<path class="st0" d="M360.7,292.7"/>
</g>
<g>
	<path class="st0" d="M377.2,312.3c-0.3-1.7,1.1-3.2,2.7-3.8c1.6-0.5,3.3-0.3,5-0.1c0.3,0,0.6,0.1,0.9,0.3c0.2,0.2,0.3,0.5,0.4,0.8
		c0.2,0.8,0.4,1.6,0.6,2.4"/>
</g>
<g>
	<path class="st0" d="M287.1,71.4c2.7-8.2,5.3-16.4,8-24.5c5.6-17.1,11.3-34.4,21.6-49.1"/>
</g>
<g>
	<path class="st0" d="M291.5,56.2c12.2-12.8,18.8-29.8,25.7-46.1c1-2.3,2.3-4.9,4.8-5.5"/>
</g>
<g>
	<path class="st0" d="M318.8,19.3c-2.6,5-5.2,10.1-7.8,15.1c-1.1,2.1-2.2,4.1-3.4,6.1c-1.4,2.3-3.1,4.4-4.6,6.7
		c-4.2,6.6-6.6,14.2-8,21.9"/>
</g>
<g>
	<path class="st0" d="M297.4,75.3c4.3-7.4,10.1-13.8,17.1-18.7c1.8-1.3,3.8-2.6,4.5-4.6"/>
</g>
<g>
	<path class="st0" d="M305.8,66.4c-1.7,2.7-3.2,5.5-4.2,8.5"/>
</g>
<g>
	<path class="st0" d="M315.2,80.1c4.8-7.2,10-14.7,17.9-18.3c5.6-2.6,12-2.9,18.2-3.2c91.6-4,183.4-5.9,275.1-5.8"/>
</g>
<g>
	<path class="st0" d="M373.8,54.8c2.8-3.1,6.4-5.2,10-7.3c13.8-8,27.9-16.9,36-30.6c2.8-4.7,5.2-10.3,10.2-12.7"/>
</g>
<g>
	<path class="st0" d="M422.6,51c9.8-7.3,17.9-16.6,26.7-25.2s18.4-16.7,30-20.7"/>
</g>
<g>
	<path class="st0" d="M502,3.3c-4,2.9-6,7.7-9.2,11.5c-2.5,2.9-5.6,5.2-8.7,7.4c-12.2,8.9-24,18.4-35.2,28.6"/>
</g>
<g>
	<path class="st0" d="M482,52.1c4.6-2.6,9.3-5.2,13.9-7.8c2.7-1.5,5.4-3,7.9-4.9c7.8-5.8,13-14.4,18-22.8"/>
</g>
<g>
	<path class="st0" d="M516.3,50.3c10.3-9.2,21.4-17.5,33.2-24.6"/>
</g>
<g>
	<path class="st0" d="M535.8,43.3c14.4-11.5,30-21.6,47.2-28.2C593.8,10.9,605.4,8,614.7,1"/>
</g>
<g>
	<path class="st0" d="M581,19.7c-5.7,5.9-12.6,10.4-19.7,14.5c-8.6,4.9-17.4,9.3-26.6,13.2"/>
</g>
<g>
	<path class="st0" d="M562.2,38.2c8.3-4.7,16.3-10,23.8-15.8c2.3-1.7,4.5-3.6,6.1-6"/>
</g>
<g>
	<path class="st0" d="M575.2,34.1c-9.2,4.6-18.1,9.6-26.8,15"/>
</g>
<g>
	<path class="st0" d="M552.5,18.4c4.7-3.9,9.9-7,15.6-9.2c6-2.4,12.4-3.8,17.6-7.5"/>
</g>
<g>
	<path class="st0" d="M537.7,25c-8.4,5.3-16.3,11.3-23.5,18.1"/>
</g>
<g>
	<path class="st0" d="M512.9,49.3c3-4.9,8.4-7.7,13.5-10.2"/>
</g>
<g>
	<path class="st0" d="M543,23.7c1.3-2.3,3.6-3.9,5.8-5.4c2.9-1.9,5.7-3.9,8.6-5.8"/>
</g>
<g>
	<path class="st0" d="M562,5c0.1-1.4,1.5-2.4,2.8-3.1c4.8-2.7,9.8-5.1,15-7.2"/>
</g>
<g>
	<path class="st0" d="M560.7,10.1c3.2-1.7,6.2-3.5,9.3-5.4"/>
</g>
<g>
	<path class="st0" d="M574.6,3.6c3.9-2.9,8.6-4.7,13.4-5.2"/>
</g>
<g>
	<path class="st0" d="M607.5,12.2c5.4-4,11.1-7.5,17.2-10.3"/>
</g>
<g>
	<path class="st0" d="M613.4,12.5c-9.8,7.1-20.8,12.6-32.5,16.1"/>
</g>
<g>
	<path class="st0" d="M591.1,29.2c-8.8,5.8-18.1,10.7-27.8,14.7"/>
</g>
<g>
	<path class="st0" d="M652.2,23.3c3.4-3,4.5-8,3.9-12.5c-0.6-4.5-2.6-8.7-4.6-12.7"/>
</g>
<g>
	<path class="st0" d="M657.6,24.3c0.5-2.2,1.9-4.2,2.6-6.3c1.8-5.4-0.4-11.3-2.6-16.6"/>
</g>
<g>
	<path class="st0" d="M660.9,24.5c5.4-6.9,6.8-16.7,3.6-24.9"/>
</g>
<g>
	<path class="st0" d="M665.4,27.1c3.9-4.7,6.3-10.7,6.6-16.8c0.2-2.7-0.1-5.5-1.7-7.7"/>
</g>
<g>
	<path class="st0" d="M670.2,25.5c3.8-3.1,6.1-7.8,6.3-12.6c0.2-4.9-1.8-9.8-5.3-13.1"/>
</g>
<g>
	<path class="st0" d="M680.2,17.1c2.3-5.2,2-11.5-0.7-16.4c-1-1.9-2.5-3.6-4.4-4.4"/>
</g>
<g>
	<path class="st0" d="M674.8,31c0.9-1.8,1.8-3.8,3.3-5.1c2.2-2,5.4-2.5,7.9-4.1c3.3-2,5.4-5.7,5.4-9.5"/>
</g>
<g>
	<path class="st0" d="M693,16.3c0.7,2.2,1.4,4.4,2.1,6.6"/>
</g>
<g>
	<path class="st0" d="M694,16.1c2.5,0.7,4.7,2.3,6.1,4.5"/>
</g>
<g>
	<path class="st0" d="M696.9,11.5c2.4,1.2,4.4,2.9,5.9,5.1"/>
</g>
<g>
	<path class="st0" d="M701.2,6.9c4.1,3.2,8.6,7,9.4,12.1"/>
</g>
<g>
	<path class="st0" d="M683.2,27.9c-0.8,2.4,0.8,5,2.5,7c2.5,2.9,5.5,5.3,8,8.2c2.6,2.8,4.8,6.2,5.3,10"/>
</g>
<g>
	<path class="st0" d="M693.7,32.7c1.9,4,5.7,6.6,8.5,10.1c2.6,3.2,4.1,7.2,4.5,11.3"/>
</g>
<g>
	<path class="st0" d="M708.7,37.3c2.2,1,3.7,3.1,5,5.1c3.7,5.7,6.8,11.9,9.3,18.3"/>
</g>
<g>
	<path class="st0" d="M720.4,43.1c1.8,0.7,2.8,2.6,3.6,4.4c3.5,8.2,6.3,16.8,8.1,25.6"/>
</g>
<g>
	<path class="st0" d="M727.6,44c3.4,8.5,5.4,17.5,5.8,26.6"/>
</g>
<g>
	<path class="st0" d="M723.9,31.2c-6.8-9.4-13.7-18.7-21-27.8"/>
</g>
<g>
	<path class="st0" d="M729.3,40.7c2.2,1,3.1,3.6,3.7,6c1.3,5.4,2.5,10.8,3.7,16.3"/>
</g>
<g>
	<path class="st0" d="M734.6,47c5.6,8.8,8.7,19.2,8.6,29.6"/>
</g>
<g>
	<path class="st0" d="M734.7,38.3c3,1.2,4.8,4.3,6.2,7.3c4.6,9.9,7.8,20.6,9.2,31.4"/>
</g>
<g>
	<path class="st0" d="M734.4,28.2c7,7.7,12.6,16.7,16.5,26.4"/>
</g>
<g>
	<path class="st0" d="M732,37.2c-3.4-8.7-8.5-16.7-15-23.6"/>
</g>
<g>
	<path class="st0" d="M755.9,65c0.8,4.2,0.9,8.5,0.4,12.7"/>
</g>
<g>
	<path class="st0" d="M682.4,46.1c2.5,0.4,4.6,2.7,4.8,5.2"/>
</g>
<g>
	<path class="st0" d="M678.3,33.3c-0.5,2.5,1.7,4.6,3.6,6.2c2.1,1.8,4.2,3.5,6.4,5.3"/>
</g>
<g>
	<path class="st0" d="M690.3,47.7c0.1,2,1.3,4,3.1,5"/>
</g>
<g>
	<path class="st0" d="M677.6,452.7c5.7-6.4,11.3-12.8,17-19.2c1.6-1.8,3.2-3.7,4.5-5.7c-4.2,5.7-8.7,11.2-13.7,16.3
		c2.3-4.3,4.2-8.8,5.9-13.3"/>
</g>
<g>
	<path class="st0" d="M687.3,433.1c-1.4,4.3-4,8.2-7.5,11"/>
</g>
<g>
	<path class="st0" d="M691.2,431.3c0.8-1.9,1.6-3.8,2.4-5.6"/>
</g>
<g>
	<path class="st0" d="M690.9,432c8.2-10.8,16.3-22,20-35"/>
</g>
<g>
	<path class="st0" d="M702.6,418c4.7-4.1,8-9.5,10.4-15.3c2.4-5.7,3.9-11.8,5.4-17.8"/>
</g>
<g>
	<path class="st0" d="M726.4,374.8c5.4-12.1,10.9-24.6,11-37.8"/>
</g>
<g>
	<path class="st0" d="M698.5,405.8c8.7-15.3,17.4-30.9,21.2-48.1"/>
</g>
<g>
	<path class="st0" d="M702,391.3c10.5-11.4,16.1-27.2,15.4-42.6"/>
</g>
<g>
	<path class="st0" d="M700.6,381.9c8.3-10.2,12.9-23.4,12.8-36.6"/>
</g>
<g>
	<path class="st0" d="M697.7,368c0.7,0.3,1.3-0.4,1.7-1c3-5,4.2-10.9,3.5-16.6"/>
</g>
<g>
	<path class="st0" d="M697.6,394.3c3.3-5.1,5.7-10.7,7-16.6"/>
</g>
<g>
	<path class="st0" d="M695.4,375.3c1.3,2.3,1.3,5,1.3,7.6c0,8,0,16,0,24"/>
</g>
<g>
	<path class="st0" d="M697,416c5.8-10.2,10.6-20.9,14.4-32"/>
</g>
<g>
	<path class="st0" d="M720.9,372c5.4-9.3,5.3-20.6,5-31.3"/>
</g>
<g>
	<path class="st0" d="M727.2,357.6c2.9-5.1,3.8-11.3,2.5-17"/>
</g>
<g>
	<path class="st0" d="M719.7,354.3c1.7-4.9,2.2-10.2,1.3-15.3"/>
</g>
<g>
	<path class="st0" d="M705.3,354.3c1.4-4.1,2-8.4,1.7-12.7"/>
</g>
<g>
	<path class="st0" d="M683,430c3.5-5,6.8-10.1,9.9-15.4"/>
</g>
<g>
	<path class="st0" d="M760.7,102c0.2,2.3,0.5,4.6,0.7,6.9c0.3-1.4,0.4-2.8,0.3-4.2c-0.1,2.1,0.3,4.3,1.2,6.3
		c0.8-1.6,1.1-3.4,0.8-5.1c-0.2,1.5,0.1,3.1,0.6,4.6c0.8-1.8,1.3-3.7,1.5-5.7c0,2.6,0.1,5.3,1.4,7.5c0.6-1.8,1.1-3.7,1.5-5.5
		c0.1,1,0.3,1.9,0.4,2.9c0.2-0.7,0.3-1.4,0.3-2.1c-0.1,3.6,0,7.3,0.3,10.9"/>
</g>
<g>
	<path class="st0" d="M776.3,127.3c0-2.2,0-4.3,0-6.5c0.7,2.3,1.5,4.7,2.2,7c0.5-1.6,0.7-3.3,0.5-4.9c-0.2,2.1,0,4.1,0.4,6.2
		c0.5-2.2,0.2-4.7-0.7-6.7c-0.2,3.1,0,6.2,0.6,9.3c0.2-2.2,0.4-4.5,0.5-6.8c0,2.4,0.2,4.9,0.7,7.3c0.3-1.8,0.4-3.6,0.3-5.3
		c0.2,2.1,0.4,4.3,0.7,6.4c0.6-2.3,1-4.7,0.9-7c-0.1,2.3,0,4.6,0.3,6.8c0-0.8,0-1.5,0-2.3c0.1,1.5,0.2,3.1,0.3,4.6"/>
</g>
<g>
	<path class="st0" d="M791.4,166.7c-0.3-3-0.1-6.2,0.5-9.1c0.2,2.8,0.3,5.6,0.5,8.4c0,0.6,0.1,1.2,0.6,1.5c0.4-2.5,0.6-4.9,0.7-7.4
		c-0.2,3-0.1,6.1,0.3,9.1c0.4-3.3,0.5-6.6,0.3-9.8c0.1,3.5,0.4,6.9,1,10.3c0.4-2.2,0.6-4.5,0.4-6.8c0,3.5,0.4,7.1,1,10.5
		c0.3-3.3,0.4-6.6,0.3-9.8c0.4,3.7,0.7,7.4,1.1,11.1c0.3-4.1,0.4-8.2,0.3-12.3c0.1,3.1,0.4,6.1,0.8,9.2c0.6-2.6,0.8-5.2,0.6-7.8
		c0.4,3.7,0.8,7.3,1.1,11c0.2-3.6,0.3-7.1,0.2-10.7c0.1,4.1,0.3,8.3,0.7,12.4c0.1-0.6,0.2-1.3,0.3-1.9c0,2.1,0,4.2,0,6.2"/>
</g>
<g>
	<path class="st0" d="M795.2,235.7c-0.3-4-0.3-8.1,0.1-12.1c0.7,2.6,1.1,5.2,1.2,7.9c0.3-1.5,0.3-3.1,0.2-4.7
		c-0.2,1.5-0.1,3.1,0.3,4.5c0.5-2.5,0.9-4.9,1.4-7.4c0.1,2.3,0.5,4.5,1.1,6.7c0.4-3.4,0.8-6.8,1.2-10.2c0.1,2.2,0.4,4.4,0.9,6.6
		c0.1-3.5,0.2-6.9,0.3-10.4c0.5,2,1,3.9,1.4,5.9c0.5-4.5,0.6-9.1,0.3-13.6c0.1,4.9,0.2,9.8,0.2,14.6c0.1-4.5,0.1-9.1,0.2-13.6
		c0,3.3-0.1,6.7-0.1,10c-0.2,2.5-0.3,5.1-0.5,7.6c-0.1-0.3-0.1-0.6-0.2-0.9c0,1.2,0,2.4,0,3.5c-0.2-0.7-0.4-1.3-0.6-2
		c0,0.9,0,1.8-0.1,2.6c0-0.5,0-1,0-1.5c0,0.6,0,1.3,0,1.9"/>
</g>
<g>
	<path class="st0" d="M767.8,263.2c2.7-3.6,5.4-7.1,8.1-10.7"/>
</g>
<g>
	<path class="st0" d="M766.5,265.6c4.6-3.7,8.4-8.5,10.8-13.9"/>
</g>
<g>
	<path class="st0" d="M769.7,264.7c4.7-2.8,8.5-6.9,10.9-11.7"/>
</g>
<g>
	<path class="st0" d="M776.5,261.2c2.4-3.7,4.9-7.5,6.1-11.8c1.1-3.8,1.2-7.8,1.3-11.7c0.1-3.7,0.2-7.3,0.3-11"/>
</g>
<g>
	<path class="st0" d="M779.6,248c0.2-7.3,0.3-14.7,0.5-22"/>
</g>
<g>
	<path class="st0" d="M770.7,216.7c0.1,9.3-0.7,18.5-2.6,27.6"/>
</g>
<g>
	<path class="st0" d="M765.6,219.3c0.6,10.4-0.4,20.9-3.1,31"/>
</g>
<g>
	<path class="st0" d="M773.1,244c-0.1,2.8-1,5.6-2.4,8"/>
</g>
<g>
	<path class="st0" d="M777.2,268c-0.2,5.4-2.8,10.3-5.4,15"/>
</g>
<g>
	<path class="st0" d="M782.2,266.4c-0.8,4.6-2.6,9.1-5.3,12.9"/>
</g>
<g>
	<path class="st0" d="M626.4,53c11-0.5,22.1-1,33.1-0.7c13.1,0.4,26.2,1.9,39.3,3.4c2.9,0.3,5.8,0.7,8.4,1.8
		c7.3,3,11.4,10.7,14,18.2"/>
</g>
<g>
	<path class="st0" d="M679.7,52c0,0.1,0,0.2,0,0.3"/>
</g>
<g>
	<path class="st0" d="M697.5,61.9c2.1,4,3.7,8.3,4.7,12.6c-1.5-4.3-3-8.5-4.5-12.8c0.7-1.1,2.4-1,3.4-0.2s1.5,2.1,1.9,3.3
		c1.2,3.5,2.4,7,3.6,10.5"/>
</g>
<g>
	<path class="st0" d="M647.7,72.7c-1-2.2-1.9-4.5-2.7-6.8c-0.4-1.2-0.7-2.7,0.3-3.4c0.4-0.3,0.9-0.3,1.4-0.4
		c1.3-0.1,2.6-0.2,3.9-0.1c0.8,0,1.7,0,2.4,0.5c1,0.7,1.3,2,1.5,3.2c0.2,1.1,0.3,2.2,0.5,3.2c0.1,0.8,0.2,1.6-0.3,2.2
		c-0.9,1-2.8,0.2-3.9,0.9"/>
</g>
<g>
	<path class="st0" d="M477.2,77.2c0.5-0.6,1.7-0.2,2,0.6c0.3,0.8,0.1,1.6,0,2.4c-0.1,0.8,0.1,1.8,0.8,2.2c0.3,0.2,0.7,0.2,1.1,0.3
		c1.1,0.1,2.2,0.2,3.3,0.3c0.3,0,0.7,0,0.9-0.2c0.2-0.2,0.3-0.6,0.3-0.9c0.1-1.7,0.1-3.3,0.1-5"/>
</g>
<g>
	<path class="st0" d="M485.6,75.8c4.1-1.8,8.7-2,13.2-2.2c14.7-0.7,29.4-1.3,44.2-2"/>
</g>
<g>
	<path class="st0" d="M478.7,76.3c-0.1-1.9,0.1-3.8,0.5-5.7c0.2-0.7,0.3-1.3,0.8-1.9c0.6-0.7,1.5-1.1,2.4-1.4
		c1.5-0.5,3.1-0.9,4.7-1.1c0.4-0.1,0.8-0.1,1.1,0.1c0.4,0.2,0.6,0.7,0.7,1.1c0.5,1.4,1,2.8,1.5,4.2"/>
</g>
<g>
	<path class="st0" d="M506,82.4c8.1-0.1,16.3-0.2,24.4-0.3c-2.4,4.8-5.9,8.9-10.3,12c-0.4,0.3-0.9,0.6-1.4,0.6
		c-0.5,0-0.9-0.3-1.3-0.5c-4.1-2.7-7.5-6.3-10-10.6"/>
</g>
<g>
	<path class="st0" d="M515,107c-0.5,8.8-0.6,17.7-0.3,26.6c0,0.2,0,0.5,0.1,0.7c0.2,0.3,0.6,0.5,0.9,0.6c1.4,0.4,2.9,0.6,4.3,0.5
		c0.7,0,1.3-0.1,1.9-0.5c1.1-0.7,1.1-2.2,1.1-3.5c-0.2-7.7-0.3-15.4-0.5-23.1c0-0.5,0-0.9-0.2-1.3c-0.4-1.2-1.9-1.8-3.2-1.7
		c-1.3,0.1-2.5,0.8-3.6,1.5"/>
</g>
<g>
	<path class="st0" d="M517,108c0,7.1-0.1,14.2-0.1,21.4c0,0.7,0,1.5,0.3,2.1s1,1.2,1.7,1c1.1-0.2,1.3-1.6,1.3-2.7
		c0-4.4,0.1-8.9,0.1-13.3c0-2.9,0-6.1-1.8-8.5"/>
</g>
<g>
	<path class="st0" d="M543,71.3c0.6-1.6-0.7-3.8,0.5-4.9c0.5-0.4,1.2-0.5,1.8-0.5c2.6-0.2,5.2-0.3,7.7-0.5c0.7,0,1.4-0.1,2.1,0.2
		c1.1,0.6,1.3,2.1,1.4,3.3c0.3,3.6,0.5,7.1,0.8,10.7c0,0.4,0,0.8-0.2,1.1c-0.3,0.4-0.8,0.4-1.3,0.5c-1.9,0.1-3.7,0.2-5.6,0.3
		c-0.3,0-0.5,0-0.7-0.1c-0.5-0.3-0.4-1-0.4-1.5c0.4-3.9-3-7.7-6.9-7.8"/>
</g>
<g>
	<path class="st0" d="M557.7,72.5c8.6-0.3,17.3-0.5,25.9-0.8c1,0,2-0.1,2.9,0.4c2,0.9,2.4,3.5,2.5,5.7c0.6,16-4.4,32.1-1.2,47.8
		c1.4,6.9,4.3,13.7,3.6,20.8"/>
</g>
<g>
	<path class="st0" d="M587.4,73.1c2.2-0.3,4.8-0.4,6.2,1.2c1,1.2,1.1,2.8,1.2,4.4c0,1.4,0.1,2.8,0.1,4.3"/>
</g>
<g>
	<path class="st0" d="M595.1,83.6c-1,20.7,3.9,41.7,0.5,62.1"/>
</g>
<g>
	<path class="st0" d="M593.3,74.3c7.9-0.1,15.8-0.1,23.8-0.2c36.6-0.3,73.3-0.6,109.4,5.6c4.8,0.8,9.7,1.8,14.1,3.9
		c4.4,2.1,8.5,5.4,10.4,9.9"/>
</g>
<g>
	<path class="st0" d="M721,75.3c0.4,0.9,0.9,1.8,1.3,2.7"/>
</g>
<g>
	<path class="st0" d="M714.1-0.3c13,8.9,22,22.3,30.3,35.6c2.1,3.5,4.3,7,5.6,10.8c3.3,9.3,1.8,19.6,3.6,29.4
		c1.1,5.9,3.3,11.9,1.4,17.6"/>
</g>
<g>
	<path class="st0" d="M710.4,2.5c14.8,7.9,24.6,24.4,24.6,41.1"/>
</g>
<g>
	<path class="st0" d="M751.3,93.5c4.4,0.3,8.5,2.4,12.3,4.6c2.5,1.4,5,3,6.6,5.4c1.6,2.3,2.3,5,2.8,7.8c1.1,6.2,1.6,12.5,1.5,18.7"
		/>
</g>
<g>
	<path class="st0" d="M640.8,81c-0.4,3.9-0.6,7.8-0.5,11.7c0,0.4,0,0.7,0.1,1.1c0.4,1,1.8,1.2,2.9,1.2c7.5,0,15.1,0,22.6,0
		c0.4,0,0.8,0,1.1-0.2c0.5-0.4,0.5-1.1,0.5-1.7c0-4,0-8.1,0-12.1"/>
</g>
<g>
	<path class="st0" d="M667.7,80.2c-7.5-0.7-15-1.1-22.6-1.2c-1.5,0-3.2,0.1-4,1.3"/>
</g>
<g>
	<path class="st0" d="M644,81.7c0,3.1,0,6.2,0,9.4c0,0.8,0,1.7,0.6,2.2c0.8,0.7,2.2,0.2,2.7-0.7c0.6-0.9,0.5-2,0.4-3.1
		c-0.1-1.1-0.3-2.1-0.1-3.2"/>
</g>
<g>
	<path class="st0" d="M647.5,85.7c0.4-1.2,0.5-2.6-0.1-3.8c-0.7-1.1-2.4-1.6-3.3-0.6"/>
</g>
<g>
	<path class="st0" d="M652,82.3c0,3,0,6,0,9"/>
</g>
<g>
	<path class="st0" d="M652,92c1.4,0,2.9,0,4.3,0"/>
</g>
<g>
	<path class="st0" d="M656.9,92c-0.1-3.3-0.2-6.6-0.3-10c0-0.3,0-0.7-0.2-0.9c-0.3-0.4-0.8-0.4-1.2-0.5c-0.9,0-1.9,0-2.8,0.1"/>
</g>
<g>
	<path class="st0" d="M661.7,82c-0.1,3.1-0.3,6.2-0.4,9.3"/>
</g>
<g>
	<path class="st0" d="M661.3,92c1.1,0,2.2,0,3.3,0"/>
</g>
<g>
	<path class="st0" d="M665.3,92c0-3.2,0-6.4,0-9.7"/>
</g>
<g>
	<path class="st0" d="M665.3,81.7c-0.9-0.1-1.8-0.2-2.7-0.4"/>
</g>
<g>
	<path class="st0" d="M688.7,86c-2.5,0-4.8,1.6-6.2,3.7c-1.4,2.1-2,4.6-2.3,7.1c-0.9,6.7,0.4,14.1,5,19.1c2.4,2.7,5.7,4.6,9.1,5.9
		c6.4,2.3,14,2.1,19.5-1.9c4.4-3.2,6.9-8.7,7-14.2c0.1-5.5-2.2-10.9-5.8-15c-3.3-3.8-7.8-6.6-12.7-7.6c-4.9-1-10.3-0.1-14.5,2.7"/>
</g>
<g>
	<path class="st0" d="M679,99.9c-3.9,0.1-7.8,0.1-11.7,0.2c-1.1,0-2.2,0-3.1,0.5s-1.7,1.6-1.4,2.6c0.4,1.4,2.3,1.7,3.8,1.7
		c4.3,0,8.5,0,12.8,0.1"/>
</g>
<g>
	<path class="st0" d="M675,96.7c2-5,6.4-9,11.6-10.3"/>
</g>
<g>
	<path class="st0" d="M686.2,97.6c-1.7,3.5-0.8,7.8,0.7,11.4c0.6,1.5,1.4,3,2.5,4.2c2.5,2.8,6.4,4.2,10.1,4
		c3.8-0.2,7.4-1.7,10.5-3.7c1.6-1.1,3.2-2.3,4.3-3.9c2.5-3.6,2.2-8.8,0-12.6c-2.2-3.8-6.1-6.4-10.3-7.9c-3.8-1.3-8.2-1.7-11.6,0.3
		C689.4,91.3,687.7,94.6,686.2,97.6"/>
</g>
<g>
	<path class="st0" d="M696.7,94.7c0,4.6,0,9.2,0,13.8c0,0.3,0,0.7,0.2,1c0.3,0.4,0.9,0.5,1.4,0.5c1.8,0.1,3.6-0.1,5.4-0.4"/>
</g>
<g>
	<path class="st0" d="M703.8,109.3c0.3-4.6,0.6-9.2,0.9-13.8c0-0.2,0-0.4-0.1-0.6c-0.2-0.3-0.6-0.3-0.9-0.3c-2.2,0-4.3,0-6.5,0"/>
</g>
<g>
	<path class="st0" d="M702.3,87.3c0-1.1,0-2.2,0-3.3"/>
</g>
<g>
	<path class="st0" d="M696.3,87.7c0-1,0-2,0-3"/>
</g>
<g>
	<path class="st0" d="M721.3,102.8c10-1,20.1-0.6,30,1"/>
</g>
<g>
	<path class="st0" d="M721,105.8c10.1-1.1,20.5,0.2,30,3.7"/>
</g>
<g>
	<path class="st0" d="M751.6,93c-0.8,6.9-0.6,14,0.6,20.8c0.4,2.3,0.9,4.6,1.4,6.9c4.4,20.4,6.1,41.4,5,62.3"/>
</g>
<g>
	<path class="st0" d="M758.4,182.7c-0.3,20.2-0.5,40.4-0.8,60.7c0,2.4-0.1,4.8-0.7,7.1c-0.8,3-2.4,5.6-4,8.2
		c-1.8,2.9-3.6,5.9-5.5,8.8"/>
</g>
<g>
	<path class="st0" d="M754,125.9c-0.9-1.1-3-0.9-3.7,0.4c-0.3,0.6-0.4,1.4-0.4,2.1c0,8.1,0,16.1,0,24.2c0,0.5,0,1.1,0.3,1.5
		c0.2,0.4,0.7,0.7,1.1,0.9c2.3,1.1,4.8,1.8,7.3,1.9"/>
</g>
<g>
	<path class="st0" d="M751,134.7c1.3-0.1,2.7-0.3,4-0.4"/>
</g>
<g>
	<path class="st0" d="M749.6,160.4c1.5,7.5,2.6,15,3.2,22.6"/>
</g>
<g>
	<path class="st0" d="M753.3,198.6c1.3,5.9,1.7,12,1.2,18.1"/>
</g>
<g>
	<path class="st0" d="M753,245.9c0.4,1,0.7,2,0.5,3.1s-1.1,2-2.1,1.9c-0.8-0.1-1.4-0.7-2.1-1c-1.2-0.4-3.1,0.1-3.6-1.1
		c-0.3-0.6,0-1.3,0.5-1.8c0.5-0.4,1.2-0.6,1.8-0.6c1.4-0.2,2.9-0.1,4.3,0.4"/>
</g>
<g>
	<path class="st0" d="M715.6,230.8c-2.8,0.5-4.7,3.7-3.9,6.4c0.3,0.9,0.9,1.8,1.8,2c0.9,0.3,2-0.4,2-1.3c0-0.4-0.2-0.8-0.1-1.1
		c0.2-0.5,0.8-0.6,1.2-0.8c0.9-0.4,1.5-1.4,1.4-2.4c-0.1-1-0.7-1.9-1.6-2.2"/>
</g>
<g>
	<path class="st0" d="M715.2,238.1c4.3,7.4,8.2,15,11.5,22.9"/>
</g>
<g>
	<path class="st0" d="M716.7,235.8c3.6,7.6,7.3,15.3,10.9,22.9c0.1,0.3,0.3,0.6,0.3,0.9c0,0.4-0.3,0.7-0.5,1.1
		c-1.5,2.4,0,5.5,1.5,7.8"/>
</g>
<g>
	<path class="st0" d="M728.7,260c1.5-1,3.6-0.4,4.9,0.8c1.3,1.2,2,3,2.6,4.6"/>
</g>
<g>
	<path class="st0" d="M752.7,114.6c5.1,9.5,19.9,10.1,24.8,19.7c2.1,4,1.9,8.8,1.7,13.3"/>
</g>
<g>
	<path class="st0" d="M590.7,248.4c0.4,0.1,0.9,0.2,1.3,0.1c0.4-0.1,0.9-0.4,1-0.8c0-0.2,0-0.3,0-0.5c-0.1-5.6-0.2-11.3-0.3-16.9"/>
</g>
<g>
	<path class="st0" d="M592.9,229.7c0-1.9,0-3.8-0.1-5.8c0-1,0-2-0.4-2.9s-1.2-1.7-2.2-1.7"/>
</g>
<g>
	<path class="st0" d="M589.7,219c-0.1-3.4-0.2-6.8-0.2-10.2"/>
</g>
<g>
	<path class="st0" d="M589.6,208.8c-0.3-0.5-0.1-1.2,0.4-1.5s1.1-0.5,1.6-0.5c0.8-0.1,1.6-0.2,2.4-0.4"/>
</g>
<g>
	<path class="st0" d="M590.4,219.7c0.5,8.7,0.7,17.3,0.6,26"/>
</g>
<g>
	<path class="st0" d="M560.1,273.9c9.5-7.6,19.2-14.9,29.2-21.7"/>
</g>
<g>
	<path class="st0" d="M589.2,252.2c20.2-1.7,40.5-0.6,60.8-0.7c6.2,0,12.5-0.1,18.4-1.9"/>
</g>
<g>
	<path class="st0" d="M668.3,249.3c0.1-9.9,0.3-19.9,0.4-29.8"/>
</g>
<g>
	<path class="st0" d="M669.7,218.2c2.2,11.4,2.9,23.1,2.1,34.7c0,0.3-0.1,0.7-0.3,0.9c-0.2,0.1-0.4,0.1-0.6,0.1
		c-19.3,0.8-38.5,0.7-57.8,0.5c-6.8-0.1-13.5-0.1-20.3-0.2"/>
</g>
<g>
	<path class="st0" d="M592.7,253.9c-4.3,2.4-8.3,5.4-12,8.7c-2,1.8-3.9,3.8-6,5.5c-1.3,1.1-2.8,2.1-4.2,3.2c-3,2.2-6.1,4.4-9.1,6.5"
		/>
</g>
<g>
	<path class="st0" d="M598.3,257.8c-2.1,4.4-2.6,9.5-1.2,14.2c0.3,0.9,0.6,1.9,1.4,2.4c0.6,0.5,1.5,0.6,2.2,0.7
		c2.1,0.2,4.2,0.1,6.2-0.4c1.4-0.3,2.8-0.8,4.3-1c2.6-0.4,5.3,0,7.9,0.4c13.5,1.9,27.2,1.5,40.9,1.1c1.1,0,2.2-0.1,2.9-0.9
		c0.6-0.6,0.6-1.5,0.7-2.4c0.2-4.2,0.2-8.5,0-12.7c0-0.7-0.1-1.4-0.5-1.9c-0.5-0.5-1.2-0.6-1.9-0.7c-8.1-0.9-16.4-0.9-24.5,0.2
		c-2.8,0.4-5.6,0.8-8.4,0.7c-4.2-0.2-8.2-1.8-12.3-1.8c-5.9-0.1-11.7,2.8-17.4,1.8"/>
</g>
<g>
	<path class="st0" d="M671,275.6c-0.9,0.4-1.6,1.2-1.8,2.2c-0.2,1,0.1,2,0.7,2.8c0.3,0.3,0.7,0.6,1.1,0.5c0.8,0,1.1-1,1.2-1.8
		c0.1-0.6,0.1-1.3,0.1-1.9c0-0.4,0-0.8-0.2-1.2c-0.2-0.4-0.6-0.7-1-0.6"/>
</g>
<g>
	<path class="st0" d="M589,296.3c-2.1,0.4-4,1.9-4.8,3.9c-0.1,0.2-0.2,0.5-0.1,0.7c0,0.3,0.2,0.5,0.4,0.7c0.9,1,1.9,1.8,3.1,2.5
		c0.8,0.5,1.8,0.9,2.7,0.7c1.6-0.3,2.5-2.2,2.4-3.9c-0.1-2.2-1.6-4.4-3.6-5.3"/>
</g>
<g>
	<path class="st0" d="M594.9,309.4c6.1,3.5,13.5,4.5,20.3,2.7c1.8-0.5,3.6-1.2,5.5-1.5c7-1.1,13.8,3.5,20.9,3
		c2.6-0.2,5.2-1.1,7.7-1.8c3.5-0.9,7.2-1.3,10.8-1.6c5.3-0.5,10.6-1.1,16-1.6c3.7-0.4,7.5-0.8,11-1.9"/>
</g>
<g>
	<path class="st0" d="M687.3,306.4c2.8,0.1,5.5-1.8,6.3-4.4c0.3-0.8,0.4-1.7,0.6-2.6c0.9-4,3.6-7.5,7.3-9.2"/>
</g>
<g>
	<path class="st0" d="M607.3,313.2c0.6-2.9,0-6.2,1.8-8.5c1.7-2.1,4.7-2.5,7.4-2.6c11.1-0.7,22.2-1.1,33.3-1.4c0.6,0,1.2,0,1.8,0.3
		c0.4,0.2,0.8,0.6,1.1,1.1c1.7,2.4,2.9,5.1,3.5,8"/>
</g>
<g>
	<path class="st0" d="M613.2,302.7c-0.8,3-1.2,6.2-1,9.3"/>
</g>
<g>
	<path class="st0" d="M612.2,312.3"/>
</g>
<g>
	<path class="st0" d="M648.3,301c-0.4,3.6-0.5,7.2-0.3,10.8"/>
</g>
<g>
	<path class="st0" d="M650.9,311.2c-0.2-1.5-0.4-3.1-0.3-4.6c0.1-1.5,0.5-3.1,1.5-4.3"/>
</g>
<g>
	<path class="st0" d="M586.5,323.3c9.8-0.8,19.7,0.9,29.5,1.9c9.5,0.9,19.1,1.2,28.6,0.8"/>
</g>
<g>
	<path class="st0" d="M645.2,325.8c1.4-2.2,3.6-3.8,5.8-5.2c1.4-0.9,2.8-1.9,4.4-2.3c1-0.3,2.1-0.3,3.1-0.3c1.1,0,2.3,0,3.3,0.5
		c2,0.8,3.2,3,4.2,5"/>
</g>
<g>
	<path class="st0" d="M666.5,323.6c3.2,0.2,6.3,0.3,9.5,0.3"/>
</g>
<g>
	<path class="st0" d="M676.5,324.1c1.7-0.8,3.3-1.9,5-2.6s3.7-1.2,5.5-0.6"/>
</g>
<g>
	<path class="st0" d="M644.8,325.9c2.4,1.7,4.9,3.3,7.4,4.9c1,0.6,1.9,1.3,3,1.6c3,0.9,6.2-0.8,8.9-2.4c0.5-0.3,1.1-0.6,1.4-1.2
		c0.4-0.5,0.4-1.2,0.5-1.8c0.2-1.8,0.3-3.8-1.1-5c-0.9-0.8-2.3-1-3.5-0.9c-1.8,0.1-3.5,0.5-5.1,1.3c-1.4,0.6-2.8,1.6-3.7,2.8
		s-1.4,2.9-1.1,4.4"/>
</g>
<g>
	<path class="st0" d="M687.8,320.8c-0.4,1.9,0.4,4,1.8,5.5c1.3,1.5,3.1,2.4,4.9,3.4c2.2,1.2,4.4,2.4,6.6,3.6c3.6,2,7.8,4,11.6,2.4
		c1.8-0.8,3.2-2.3,4.4-4c2.1-3,3.7-6.3,4.7-9.8c0.4-1.4,0.7-2.9,0.5-4.4c-0.2-1.7-0.9-3.3-1.8-4.7c-1.3-2.1-2.8-4-4.3-5.9
		c-1.4-1.7-2.8-3.5-4.7-4.6c-2.1-1.2-4.7-1.5-7.2-1.2c-2.7,0.3-5.4,1.3-7.5,3.2c-1.6,1.5-2.7,3.4-3.7,5.3c-2,3.6-4,7.3-6,10.9"/>
</g>
<g>
	<path class="st0" d="M702.8,333.8c0.2-4.9,2.2-9.7,5.5-13.2s8-5.9,12.8-6.4"/>
</g>
<g>
	<path class="st0" d="M718.2,315c-0.6-1-1.6-1.6-2.5-2.3c-2.3-1.7-4.4-3.6-6.2-5.8c-1-1.2-1.9-2.5-3.1-3.4"/>
</g>
<g>
	<path class="st0" d="M716.8,315c0.4,1.8,0,3.7-0.6,5.5c-1.3,4.5-3,9-5.2,13.2"/>
</g>
<g>
	<path class="st0" d="M718.2,315c0.7,0.4,1.3,1,1.8,1.7c0.1,0.2,0.3,0.5,0.3,0.7c0,0.2-0.1,0.5-0.2,0.7c-0.3,0.8-0.7,1.7-1,2.5
		c-1.5,3.7-2.9,7.5-5.1,10.9"/>
</g>
<g>
	<path class="st0" d="M718.5,309.1c8.5-4.7,13.8-13.5,20.9-20"/>
</g>
<g>
	<path class="st0" d="M740.3,288.3c0.1-4.8,0.1-9.7,0.1-14.5c0-1,0-2,0.5-2.8c0.7-1.2,2.2-1.6,3.5-1.9c3.1-0.6,6.3-0.8,9.5-0.6"/>
</g>
<g>
	<path class="st0" d="M754.5,268.3c0.8-0.1,1.6-0.2,2.4-0.2c0.8-0.1,1.7-0.2,2.4-0.5c0.9-0.4,1.7-1,2.5-1.7c1.1-1,2.3-2,3.4-3"/>
</g>
<g>
	<path class="st0" d="M747.3,267.7c-0.1,0.2-0.2,0.4-0.5,0.5c0.3-0.3,0.5-0.6,0.8-0.9"/>
</g>
<g>
	<path class="st0" d="M701.5,290.5c9.4-5,18.5-10.5,27.3-16.5c2.8-1.9,5.8-3.9,9.2-4.4c0.3,0,0.7-0.1,0.9-0.3c0.4-0.4,0.4-1,0.4-1.6
		c0.1-2,2.2-3.8,4.2-3.5c2,0.2,3.7,2.3,3.4,4.3"/>
</g>
<g>
	<path class="st0" d="M738.1,266.6c-12.3,6.4-25,12.1-37.9,17.1"/>
</g>
<g>
	<path class="st0" d="M672.4,251.9c2.2,4.8,5.1,9.3,8.5,13.3c3.5,4.1,7.6,7.7,11,11.9c3.4,4.1,6.1,8.8,10.1,12.4"/>
</g>
<g>
	<path class="st0" d="M671.2,253.9c3,9.5,10.9,16.5,17,24.4c3.4,4.4,6.4,9.3,10.6,13"/>
</g>
<g>
	<path class="st0" d="M694.3,289.3c-2.1,0.6-4.3,1.2-6.4,1.8c-0.6,0.2-1.3,0.4-1.6,0.9c-0.2,0.4-0.3,0.8-0.3,1.2
		c-0.1,1.5-0.2,3-0.3,4.6c-0.1,1-0.1,2-0.7,2.9c-0.7,1.1-2.1,1.5-3.3,1.9c-8.3,2.4-16.8,4.1-25.4,5"/>
</g>
<g>
	<path class="st0" d="M673.6,309.3c0.8,3.2,1.7,6.4,1.5,9.7c0,0.6-0.1,1.2,0.1,1.8c0.2,0.6,0.8,1,1.4,0.8c0.6-0.2,0.8-0.8,0.9-1.4
		c0.3-1.8,0.1-3.7-0.1-5.5c-0.2-1.8-0.4-3.6-0.6-5.4"/>
</g>
<g>
	<path class="st0" d="M680.7,308.7c0.6,3.7,0.7,7.6,0.4,11.3"/>
</g>
<g>
	<path class="st0" d="M706.9,289.4c1.7,2.5,2.5,5.7,2.3,8.8"/>
</g>
<g>
	<path class="st0" d="M723.7,289.2c-1.6,0.3-2.8,1.8-3,3.4c-0.3,1.6,0.2,3.2,0.9,4.7c0.5,1,1.1,1.9,2.1,2.2c1,0.3,2-0.2,2.9-0.7
		c2.1-1.2,4.1-3.1,4.7-5.5c0.6-2.4-0.6-5.3-2.9-6c-0.3-0.1-0.7-0.2-0.9-0.4c-0.4-0.4-0.3-0.9-0.3-1.4c0.3-2.8-0.7-5.9-3-7.5"/>
</g>
<g>
	<path class="st0" d="M722.9,288.3c0.9-2.7-0.3-5.7-1.8-8.2"/>
</g>
<g>
	<path class="st0" d="M729.1,288.9c-1.8,0.8-3.3,2.4-3.9,4.3c-0.6,1.9-0.3,4.1,0.8,5.7"/>
</g>
<g>
	<path class="st0" d="M734.2,315.2c-1.1,1.5-2.2,3-3.1,4.6c-0.1,0.3-0.3,0.5-0.3,0.8c0.1,0.5,0.7,0.8,1.2,0.7
		c0.5-0.1,0.9-0.4,1.3-0.8c1.4-1.3,2.6-2.9,3.5-4.6"/>
</g>
<g>
	<path class="st0" d="M739.6,288.6c2-0.4,4.1-0.3,6.1,0.3c1,0.3,2,0.8,2.6,1.6c0.6,0.7,0.8,1.6,1,2.4c0.6,2.1,1.2,4.2,1.8,6.3
		c0.3,1,0.6,2,0.4,3c-0.1,1.1-0.7,2.1-1.3,3c-4.7,7.9-9.9,15.9-17.5,21.1c-4,2.7-9,4.6-13.5,3.1"/>
</g>
<g>
	<path class="st0" d="M735.5,324.9c1.9-0.5,3.6-1.6,5.2-2.7c4.3-2.9,8.6-6.1,11.5-10.4c2.9-4.3,4.2-10.1,2.2-14.9
		c-0.8-1.8-1.9-3.4-2.4-5.3c-0.2-0.8-0.3-1.7,0-2.4c0.3-0.8,1.1-1.4,1.9-1.4c1.2,0.1,1.9,1.3,2.4,2.4c1.4,3.3,2.6,6.6,3.6,10
		c2.1-1.2,2.4-4.2,1.7-6.6c-0.7-2.3-2.2-4.4-2.8-6.8c-0.5-2.3-0.2-4.8,0.9-6.8c0.6-1.1,1.6-2.4,1.1-3.6c-0.2-0.5-0.7-0.9-1-1.4
		c-0.3-0.5-0.4-1.2,0-1.6c0.3-0.3,0.7-0.3,1-0.3c1.5-0.1,3,0,4.5-0.4c2.4-0.6,4.4-2.5,5.1-4.9"/>
</g>
<g>
	<path class="st0" d="M755.5,302.4c1.2-0.1,2.4-0.2,3.4-0.7c1.1-0.5,2-1.5,2.1-2.6"/>
</g>
<g>
	<path class="st0" d="M760.3,300.8c1.8-0.2,3.6-0.9,5.3-1.6c2.5-1,4.9-1.9,7.4-2.9c1.1-0.4,2.2-0.9,3.1-1.6c1.6-1.3,2.3-3.4,2.5-5.4
		c0.2-2.5-0.2-5-1.4-7.3c-1,1.3-2.5,2.2-4,3.1c-4,2.3-8.1,4.4-12.3,6.4"/>
</g>
<g>
	<path class="st0" d="M776.6,282.5c2.2-3.4,4.3-6.7,6.5-10.1c1.2-1.9,2.5-3.9,3.3-6.1c0.7-2,1-4.2,1.3-6.4
		c0.8-6.2,1.7-12.5,2.5-18.7"/>
</g>
<g>
	<path class="st0" d="M769.7,268c4.1-3.4,8.1-6.7,12.2-10.1c1.1-0.9,2.1-1.8,2.9-2.9c2.4-3.7,0.9-9,3.5-12.6c0.8-1.2,2-2.1,2.8-3.3"
		/>
</g>
<g>
	<path class="st0" d="M790.3,241.7c1.2-5.7,1.4-11.5,1.7-17.3c0.5-12.1,1-24.4-2.3-36.1"/>
</g>
<g>
	<path class="st0" d="M773.5,113.6c5.4,1.4,8.7,6.7,10.6,11.9c4.1,11.4,3.7,23.9,3.9,36.1c0.1,8.1,0.6,16.1,1.3,24.2
		c0.1,1.5,0.3,3,0.8,4.3"/>
</g>
<g>
	<path class="st0" d="M790.3,241.5c4.5-1.2,8.8-3,12.9-5.1c1.9-1,3.8-2.2,4.9-4c1.1-1.9,1.2-4.3,1.2-6.5c0.1-11.3-0.1-22.6-0.6-33.8
		"/>
</g>
<g>
	<path class="st0" d="M788.2,149.7c4.4,0.5,8.7,1.9,12.5,4.2c1.3,0.8,2.6,1.7,3.6,2.9c2.5,3,3.1,7.1,3.4,11c0.8,8.3,1.2,16.6,1.3,25
		"/>
</g>
<g>
	<path class="st0" d="M757.7,267.9c4.5-4.2,9-8.3,12.9-13.1c1.2-1.5,2.3-3,2.9-4.8c0.4-1.2,0.6-2.6,0.7-3.9
		c1.3-11.1,2.4-22.1,3.4-33.2"/>
</g>
<g>
	<path class="st0" d="M779.1,147.3c-0.5,17.5-0.7,34.9-0.7,52.4c0,4.4,0,8.9-0.8,13.3"/>
</g>
<g>
	<path class="st0" d="M735.1,325.2c0.2,7,0.2,14.1-1.8,20.8c-0.8,2.6-1.8,5.2-2.7,7.8c-2.7,8.4-3.4,17.6-7.6,25.4
		c-1,1.9-2.3,3.8-3.6,5.6c-2.9,4.2-5.8,8.4-8.7,12.6"/>
</g>
<g>
	<path class="st0" d="M676.8,440c11-7.4,20.5-17.2,27.6-28.4"/>
</g>
<g>
	<path class="st0" d="M726.2,374.9c-0.7,1.1-1.4,2.2-2.1,3.3c4.4-0.6,8.4-2.9,11.8-5.9c3.3-3,6-6.6,8.6-10.2c2.6-3.5,5.2-7,7-11
		c1.5,0.8,2.9,1.5,4.4,2.3c-1.7-0.3-3.5-0.7-4.5-2.2c-1.1-1.6-0.6-3.8,0-5.7c0.8-2.7,1.7-5.4,2.5-8.1c0-0.1,0.1-0.3,0.2-0.4
		c0.2-0.1,0.4-0.1,0.6,0c2,0.7,4.1,1.3,6.1,2"/>
</g>
<g>
	<path class="st0" d="M754.8,337.7c4.3-11.9,7.1-24.4,8.5-37"/>
</g>
<g>
	<path class="st0" d="M760.5,338.9c1.6,0.1,3.1-0.9,4.1-2.2c0.9-1.3,1.4-2.9,1.9-4.4c3.5-11.9,5.9-24,7.2-36.3"/>
</g>
<g>
	<path class="st0" d="M766.1,335.1c0.9,1.5,1.1,3.4,0.8,5.1s-0.8,3.4-1.4,5.1c-0.8,2.1-1.5,4.2-2.3,6.3c-0.2,0.6-0.4,1.2-0.8,1.6
		c-0.9,1.2-2.5,1.5-4,1.7"/>
</g>
<g>
	<path class="st0" d="M759.1,355.1c-1.5,4-3.3,7.9-5.7,11.5c-7.5,11.6-20.8,19.1-34.6,19.6"/>
</g>
<g>
	<path class="st0" d="M764.9,124.6c1.5,6.9,0.4,14,1.3,21c0.2,1.4,0.4,2.8,1.3,3.9c0.1,0.2,0.3,0.4,0.5,0.5c0.4,0.2,0.8,0.1,1.2-0.1
		c1.9-0.8,2.3-3.4,2.3-5.5c0.1-5.7,0.1-11.4-1.4-16.9"/>
</g>
<g>
	<path class="st0" d="M775.2,136.8c0.9,6.3,1.1,12.7,0.5,19"/>
</g>
<g>
	<path class="st0" d="M772.8,142.8c0.8,4.6,0.9,9.2,0.4,13.8"/>
</g>
<g>
	<path class="st0" d="M748.6,292.4c-0.7,3.1-2.4,6-4.8,8.2c0.9,0.6,2.2,0.4,3.1-0.3c0.9-0.7,1.4-1.7,1.9-2.7"/>
</g>
<g>
	<path class="st0" d="M731,304.7c-1.7,0.8-3.3,1.6-5,2.3"/>
</g>
<g>
	<path class="st0" d="M731.3,308c-1.3,0.6-2.6,1.2-4,1.7"/>
</g>
<g>
	<path class="st0" d="M750.7,273.7c1.3-0.4,2.5-1.2,3.3-2.3"/>
</g>
<g>
	<path class="st0" d="M744.7,272.4c-0.4,0.1-0.6,0.6-0.4,0.9c0.4-0.4,0.5-1.1,0.3-1.6"/>
</g>
<g>
	<path class="st0" d="M779,150.4c2.5,7.8,2.6,16.2,2.7,24.4c0,3.3-0.2,7.1-2.8,9.2"/>
</g>
<g>
	<path class="st0" d="M681,263.3c-0.8-1,0.6-2.7,1.9-2.3c1.3,0.4,1.7,2.2,1,3.3"/>
</g>
<g>
	<path class="st0" d="M673.7,238c2.9,0,5.8,0,8.7,0"/>
</g>
<g>
	<path class="st0" d="M669.7,292c-0.2,0-0.4,0-0.7,0"/>
</g>
<g>
	<path class="st0" d="M668,303c-0.6,0-1.1,0-1.7,0"/>
</g>
<g>
	<path class="st0" d="M600.1,279c0.1-0.4,0.2-0.9,0.3-1.3"/>
</g>
<g>
	<path class="st0" d="M606.8,250.5c-0.8-0.6-0.7-1.8-0.2-2.6s1.5-1.2,2.4-1.5c1.6-0.6,3.3-0.9,5.1-1.1c0.5-0.1,1-0.1,1.4,0.2
		c0.4,0.3,0.6,0.7,0.7,1.1c0.4,1.1,0.7,2.2,0.8,3.4"/>
</g>
<g>
	<path class="st0" d="M642.7,250.7c-0.6-1.3,0.2-3,1.4-3.7c1.2-0.8,2.8-0.9,4.2-1c1.5-0.1,3-0.2,4.3,0.5c1.3,0.7,2,2.6,1.1,3.7"/>
</g>
<g>
	<path class="st0" d="M441.3,406c0.5,0.2,1,0.4,1.5,0.3c-0.3,0-0.6,0-0.8,0"/>
</g>
<g>
	<path class="st0" d="M502,383.3c-0.1,0.2-0.5,0.2-0.6,0"/>
</g>
<g>
	<path class="st0" d="M512.3,373"/>
</g>
<g>
	<path class="st0" d="M391.3,462.3c0.1-0.1,0.2-0.2,0.3-0.3"/>
</g>
<g>
	<path class="st0" d="M381.6,447.4c0.1,0.2,0.2,0.4,0.3,0.7"/>
</g>
<g>
	<path class="st0" d="M644.3,357.3"/>
</g>
<g>
	<path class="st0" d="M650.7,350.7c0.1,0.1,0.2,0.2,0.3,0.3"/>
</g>
<g>
	<path class="st0" d="M632.3,487c0.2-0.2,0.4-0.4,0.7-0.7"/>
</g>
</svg>
