<svg version="1.1" id="Camada_1" xmlns="http://www.w3.org/2000/svg" xmlns:xlink="http://www.w3.org/1999/xlink" x="0px" y="0px"
	 viewBox="0 0 725.6 654.2" style="enable-background:new 0 0 725.6 654.2;" xml:space="preserve">

	 <defs>
	<style>


	#Camada_1{

	fill:rgba(255, 255, 255, 0);
	stroke-dasharray:1300;
	stroke-dashoffset:0;
	-webkit-animation: dash 4s linear forwards;
	-o-animaiton: dash 4s linear forwards;
	-moz-animation: dash 4s linear forwards;
	animation: dash 4s linear forwards;
	}

	@-webkit-keyframes dash{
	from{
	stroke-dashoffset: 1300;

	}
	to{
	stroke-dashoffset: 0;
	fill:rgba(255, 255, 255, 1);
	}}



	</style>
	</defs>
<style type="text/css">
		.st0{fill:none;stroke:rgba(255,255,255,0.3);stroke-width:2;stroke-miterlimit:10;}
</style>
<image style="display:none;overflow:visible;" width="1920" height="1080" xlink:href="5D922D35.jpg"  transform="matrix(0.6066 0 0 0.6066 -90.8061 -0.9932)">
</image>
<g>
	<path class="st0" d="M20.2,390c-0.3-3.1-1.5-6-2.4-9c-3-9.6-3.5-19.9-1.5-29.7c0.8-3.8,2.1-7.8,5.2-10.1c2.9-2.1,7-2.2,10-0.4
		s4.7,5.6,4.1,9.1"/>
</g>
<g>
	<path class="st0" d="M36.2,348.9c-0.8,0.4-0.3,1.8,0.5,2c0.9,0.2,1.7-0.4,2.4-1c4-3.7,5.4-9.9,9.9-13c2.3-1.6,5.2-2.2,8-2.4
		c3.1-0.2,6.5,0.1,9.1,1.9c3.8,2.7,5,8.1,3.8,12.6s-4.4,8.2-7.8,11.5c-1.5,1.5-3.2,3-3.8,5c-0.6,1.9-0.1,4.1-0.9,6"/>
</g>
<g>
	<path class="st0" d="M38.2,350.3c-7.1,6.9-7.7,17.9-11.8,27c-1.7,3.9-4.2,7.5-5.8,11.4s-2.5,8.5-1,12.5"/>
</g>
<g>
	<path class="st0" d="M76.6,363.7c-7.6,0.2-14,5.2-19.9,10c-11.3,9.2-22.6,18.4-33.9,27.6c-1.6,1.3-3.2,2.6-4.4,4.3
		c-2.5,3.4-3.1,7.7-3.5,11.9c-1.1,11-1.4,22.1-0.9,33.2"/>
</g>
<g>
	<path class="st0" d="M77.3,363.2c6.1,0.5,11.3,6.5,10.8,12.6c-0.4,5-3.8,9.2-7.5,12.6c-6.6,6.2-14.9,11.6-24,11.1"/>
</g>
<g>
	<path class="st0" d="M61.9,399.3c-1.1,1.3-2.2,2.7-3.3,4"/>
</g>
<g>
	<path class="st0" d="M24.7,427.7c3.9-2,7-5.3,10.3-8.2c12.3-11,28.4-16.8,44.5-20.5c6.3-1.5,13.8-2.3,18.3,2.4
		c1.1,1.1,1.9,2.5,2.1,4c0.4,2.8-1.3,5.5-3.1,7.7c-6.2,7.5-14.3,13.5-23.4,17"/>
</g>
<g>
	<path class="st0" d="M78.7,429.3c2.2,2.8,1.7,6.7,1.8,10.3c0.1,4.7,1.5,9.4,4,13.4"/>
</g>
<g>
	<path class="st0" d="M13.8,450.7c0.2,0.9,0.4,1.8,0.7,2.7"/>
</g>
<g>
	<path class="st0" d="M82,437.6c2.8-0.1,5.7-0.2,8.5-0.3c1.2,0,2.4-0.1,3.6-0.2c7.9-1.1,14.6-7.8,16-15.7c1.4-8.2-2.4-16.5-1.5-24.8
		c0.7-6.1,3.8-11.6,6.9-16.9c1.2-2.1,2.5-4.2,4.4-5.5c6.2-4.4,15.3,1.2,17.8,8.4c2.5,7.2,1,15.1,1.1,22.7c0.1,8.1,2.2,16.1,3.1,24.2
		c2.1,18.9-2.5,37.9-7.1,56.4"/>
</g>
<g>
	<path class="st0" d="M17.8,449.7c-5.8,7-7.7,17.1-5,25.7c1.2,3.8,3.2,7.3,4.8,10.9c4.7,10.7,5.8,22.5,6.9,34.1"/>
</g>
<g>
	<path class="st0" d="M25,520.2c-2.6,6.8,1.2,14.5,6.3,19.7s11.7,8.8,16.7,14.1c7,7.4,10.5,17.5,16.9,25.5
		c6.4,8.1,15.5,13.7,21.9,21.8c5,6.4,8.3,14,12.9,20.6c7.6,11,18.9,19.4,24.4,31.6"/>
</g>
<g>
	<path class="st0" d="M79.3,594c9.3,19.1,17.6,38.7,24.8,58.6"/>
</g>
<g>
	<path class="st0" d="M109.5,654c-0.2-5.5-3.1-10.4-5.3-15.5c-2.5-5.7-4.2-11.7-5.1-17.8"/>
</g>
<g>
	<path class="st0" d="M142.4,432.9c5.5,13.2,6.1,28.3,1.9,41.8c-1.7,5.3-4.1,10.5-3.8,16"/>
</g>
<g>
	<path class="st0" d="M143.2,428.7c9.5,15,11.4,34.5,5,51.1c-1.3,3.3-2.8,6.4-3.7,9.8c-1,3.8-1.1,7.7-1.2,11.7"/>
</g>
<g>
	<path class="st0" d="M11.3,466c-8.4-11.5-7.2-29,2.8-39.1"/>
</g>
<g>
	<path class="st0" d="M13.4,420.2C7,427.8,0.3,436.3,0,446.2c-0.3,9.7,5.6,18.4,11.3,26.3"/>
</g>
<g>
	<path class="st0" d="M15,416.5c-1.5-3.2-3.2-6.3-4.4-9.6c-3.5-10-1.3-21.8,5.5-30"/>
</g>
<g>
	<path class="st0" d="M17,380.6c-3.7,8.4-4.4,18-2,26.8"/>
</g>
<g>
	<path class="st0" d="M131.2,516.6c-1.2,2.1-0.1,4.7,1.1,6.8c4.3,7.8,8.7,15.7,13,23.5c0.7,1.2,1.4,2.5,2.7,3
		c1.1,0.5,2.3,0.3,3.5,0.2c9.5-1.4,20-4.4,28.2,0.6c3.3,2,5.9,5.2,8,8.4c5.6,8.8,9.1,19.5,17.8,25.2c6.9,4.5,15.7,4.8,23.7,7
		c10.4,2.8,19.7,8.9,28.7,14.9c6.7,4.4,13.3,8.9,20,13.3c1.6,1.1,3.3,2.2,5.2,2.5c1.4,0.2,2.9,0,4.3-0.3c4.3-0.7,9-1,12.7,1.2
		c2.5,1.5,4.3,4,6.4,6c7.1,6.8,17.7,8.2,27.4,9.4"/>
</g>
<g>
	<path class="st0" d="M318.2,635.5c8.6-17.8,21.6-33.4,37.6-44.9"/>
</g>
<g>
	<path class="st0" d="M356.9,597.3c-0.1-2.8-0.3-5.5-0.4-8.3c-0.2-4.4-0.4-9.1,1.9-12.9c1.4-2.3,3.6-4.1,5.3-6.3
		c1.7-2.2,2.9-5.1,1.7-7.6"/>
</g>
<g>
	<path class="st0" d="M365.4,561.3c-10.4-11.6-11.8-28.5-11.9-44.1c0-9.6,0.2-19.4,3.5-28.4c5.8-15.9,20.1-27.3,35-35.4"/>
</g>
<g>
	<path class="st0" d="M393.3,462c0.2-15-12.3-26.8-23.7-36.5c-6.2-5.3-12.6-10.7-20.2-13.6c-5.6-2.2-11.6-3-17.3-4.8
		s-11.3-5.1-14-10.4c8.5-3.1,13.5-11.4,18.7-18.8c12.3-17.4,28.9-31.8,47.9-41.7"/>
</g>
<g>
	<path class="st0" d="M337,267.5c-1.9,5-3.8,10.9-0.9,15.3c2.8,4.3,8.7,5.2,13.9,5.3c3.8,0.1,7.6-0.1,11.3-0.4"/>
</g>
<g>
	<path class="st0" d="M359.6,288.1c2.4,3.6,3.5,8.2,2.9,12.5c-0.2,1.6-0.6,3.1-0.5,4.7c0.5,4.9,5.9,7.4,10.6,9"/>
</g>
<g>
	<path class="st0" d="M373.8,314.3c0.8,0.1,1.3,1.1,1.1,1.9c-0.2,0.8-0.7,1.5-1.1,2.2c-1.6,2.9-0.8,6.6,1.2,9.3
		c1.9,2.7,4.7,4.6,7.5,6.4"/>
</g>
<g>
	<path class="st0" d="M384.3,334.5c2,5.1,3.9,10.3,5.9,15.4c2.1,5.6,4.4,11.4,8.8,15.5c5.9,5.5,14.8,6.7,22.7,5.2
		c7.9-1.5,15.1-5.5,22.1-9.6c46.4-26.9,90.4-58.6,140-79.1"/>
</g>
<g>
	<path class="st0" d="M357.8,257.6c-17.5,5.7-35,11.5-52.6,17.2c-6.8,2.2-14.8,4.3-20.6,0.1c-4.1-3-5.7-8.2-7.2-13
		c-5.7-18.7-13.2-36.9-22.3-54.2c-5.1-9.7-10.9-20.6-7.8-31.1c2.8-9.5,12.1-15.5,21.3-19.4c9.1-3.9,19.1-6.7,26.4-13.3"/>
</g>
<g>
	<path class="st0" d="M337.3,267.4c0-0.4,0-0.9,0-1.3"/>
</g>
<g>
	<path class="st0" d="M295.2,143.4c1.5-15.2-2.9-31.3,3-45.5c3.2-7.7,9.1-14,11.7-21.9c0.5-1.4,0.9-2.9,1.8-4c0.9-1,2.1-1.5,3.3-2.1
		c5.8-2.6,11.9-5.3,18.3-5.1"/>
</g>
<g>
	<path class="st0" d="M313.9,68.7c0.4-1.7-0.8-3.5-0.6-5.3c0.1-1.3,0.9-2.5,1.8-3.6c3.4-4.5,6.7-9,10.1-13.5c1-1.4,2.1-2.8,3.5-3.6
		c1.2-0.7,2.6-1,4-1.3c2.7-0.6,5.3-1.1,8-1.7c4.6-1,10-1.7,13.4,1.5"/>
</g>
<g>
	<path class="st0" d="M337,38.6c2-4.1,5.8-7,9.7-9.3c4.2-2.6,8.6-4.8,13.1-7c3.2-1.6,6.5-3.2,10.1-3.6c3.6-0.4,7.5,0.7,9.7,3.6"/>
</g>
<g>
	<path class="st0" d="M371.9,18.6c-0.1-2.5,1.4-4.8,3.3-6.3s4.3-2.3,6.7-3.1c4.8-1.6,9.6-3.3,14.4-4.9c3.1-1.1,6.2-2.1,9.5-2.1
		c3.3,0,6.7,1.3,8.4,4.1"/>
</g>
<g>
	<path class="st0" d="M340.8,194.8c-2.4-9.3-5.3-18.4-8.9-27.3c-1.3-3.1-2.6-6.3-4.9-8.8c-4.2-4.7-10.9-6.5-17.2-6.1
		c-6.3,0.4-12.3,2.6-18.2,4.8c-14.1,5.3-28.2,10.5-42.3,15.8"/>
</g>
<g>
	<path class="st0" d="M258.7,183.4c-0.5,2.3-1,4.6-1.5,6.9c-0.1,0.5-0.2,1-0.5,1.4c-0.7,0.8-2.1,0.7-2.9,0c-0.8-0.7-1.2-1.8-1.6-2.8
		"/>
</g>
<g>
	<path class="st0" d="M302.7,161.7c3.6,1.9,7.1,3.8,10.7,5.6c0.7,0.4,1.4,0.7,2.1,0.7c1.8,0,2.9-2.1,3.3-3.8
		c0.4-1.8,0.8-3.9,2.4-4.7"/>
</g>
<g>
	<path class="st0" d="M296,142.5c9.5,4,19.2-5.9,29.4-6.4c4.3-0.2,8.6,1.2,12.9,0.8c6-0.6,11-4.7,16.2-7.9c5-3.1,10.4-5.4,15.8-7.8
		c15.7-7.1,31-15.1,45.8-24c7.3-4.4,16.2-9.1,23.8-5.3c-0.9-2.6,2.3-4.7,4.8-5.6c12.8-4.6,25.5-9.1,38.3-13.7
		c4.8-1.7,11.1-3,14.1,1.1c2.3-4.3,7.7-5.9,12.5-7c7.3-1.7,14.7-3.4,22-5.1c4-0.9,8-1.9,12.1-2.6"/>
</g>
<g>
	<path class="st0" d="M373.5,122.4c-14.1,10.9-28.9,20.8-44.3,29.6"/>
</g>
<g>
	<path class="st0" d="M319.8,136c0.5-12,1-24,1.5-36c0.1-3.1,0.3-6.3,0.9-9.3c1.2-5.9,4.3-11.3,7.4-16.5"/>
</g>
<g>
	<path class="st0" d="M320,102c-1.2-2.4-2.5-4.7-3.7-7.1c-0.3-0.5-0.6-1-1.1-1.3c-0.5-0.2-1.2-0.1-1.7,0c-4.3,1.1-8.5,2.2-12.8,3.3"
		/>
</g>
<g>
	<path class="st0" d="M314,92.7c3.3-8.7,6.6-17.3,10-26"/>
</g>
<g>
	<path class="st0" d="M319.8,137.4c-1.3-1.5-2.7-3-4-4.5c-0.3-0.3-0.6-0.6-1-0.8c-0.4-0.1-0.9,0-1.4,0.1c-3,0.8-6,1.6-9,2.5
		c-3.7,1-8.1,2.9-8.3,6.7"/>
</g>
<g>
	<path class="st0" d="M316,132c-0.4-5.9-0.9-11.8-1.3-17.8c-0.2-2.4-0.4-4.9,0.2-7.2c0.6-2.4,2.1-4.6,4.4-5.4"/>
</g>
<g>
	<path class="st0" d="M319.2,101.8c-7.1,2.4-14.5,4.1-21.9,5"/>
</g>
<g>
	<path class="st0" d="M333.2,65.3c1.2-2.8-1.6-6-0.7-8.9c0.4-1.2,1.3-2,2.1-2.9c4.6-4.4,9.1-8.8,13.7-13.1"/>
</g>
<g>
	<path class="st0" d="M331.2,56.5c-5.7,1.4-11.2,3.3-16.6,5.5"/>
</g>
<g>
	<path class="st0" d="M353.9,40c0.8-2.8-1.1-6.2,0.6-8.6c0.5-0.7,1.3-1.2,2-1.6c5.6-3.5,11.2-6.9,16.8-10.4"/>
</g>
<g>
	<path class="st0" d="M355.2,32.6c-5.2,0.3-10.4,1.5-15.3,3.4"/>
</g>
<g>
	<path class="st0" d="M345.1,116c8.7-20.5,19.5-42.9,40.2-51c-3.9,8.7-6.9,17.8-8.9,27.1c4-7.5,8.9-14.5,14.4-20.9
		c-1.3,3.1-2,6.6-1.9,10c6.6-9.3,15.3-17.1,25.3-22.6c-2.8,3.8-5.5,7.5-8.3,11.3c2.7-1.7,5.4-3.4,8.1-5.1
		c-4.4,6.3-8.9,12.6-13.3,18.9c16.5-21,40.4-34.7,63.6-48c-15.2,1.4-30,7.2-42.2,16.5c12.5-10.3,25.6-19.9,39.3-28.7
		c-3.3,0.9-6.5,1.7-9.8,2.6c-0.6-1.1-0.3-2.7,0.7-3.5c-12.1,5-24.2,9.9-36.3,14.9c-12,2-22.7,8.5-32.2,16
		c11.1-7.3,21.8-15.3,32-23.9C380.9,45.1,354,77.6,345,114.8"/>
</g>
<g>
	<path class="st0" d="M368.7,56.8c-10.1,11.3-18.1,24.4-23.5,38.5"/>
</g>
<g>
	<path class="st0" d="M460.7,45c-14.3,5.3-26.4,16.1-33.3,29.7c3.2-4.2,6.4-8.3,9.5-12.5c0.5,1.9-0.8,3.7-1.8,5.4
		c-1,1.7-1.8,3.9-0.5,5.4c4.1-7.4,10.2-13.6,17.4-17.9c5.7-3.4,12.1-5.6,17.2-9.8c-6,0.7-11.8,2.5-17.1,5.2"/>
</g>
<g>
	<path class="st0" d="M468.5,57.8c-4.8,2-9.2,5.2-12.5,9.3c4.9-1.5,9.5-4.1,13.3-7.6"/>
</g>
<g>
	<path class="st0" d="M480.6,62.7c-4.5,1.2-8.7,3.4-12.1,6.5c0.4,0.7,1.3,1,2,0.7"/>
</g>
<g>
	<path class="st0" d="M545.3,58.5c1.9,0.3,3.8,1,5.4,2.3c0.3-2.4,3-3.7,5.3-4.5c6.1-2,12.5-3.4,18.9-4.1c3-0.3,6-0.5,8.8,0.4
		c2.8,0.9,5.1,2.9,7.1,4.9c7.6,7.6,12.7,17.8,14.2,28.5"/>
</g>
<g>
	<path class="st0" d="M525,0c0.3,0.8,0.7,1.6,1,2.3c8.2-4,17.8,1.1,25.4,6c1.3,0.8,2.7,1.8,3.4,3.2c1.4,2.9-0.6,7.2,1.9,9.2
		c2.9-3.8,8.9-2,13,0.4c5.3,3.1,10.5,6.8,13.7,12s4.1,12.3,0.7,17.5c3.9-0.5,7.9-0.9,11.8-1.4c1.1-0.1,2.2-0.2,3.3,0.1
		c1.5,0.4,2.6,1.7,3.6,2.9c6.4,7.6,12.8,15.1,19.2,22.7c1.7,2,3.4,4,4,6.5c1.8,6.8-4.9,13-5.7,20"/>
</g>
<g>
	<path class="st0" d="M523.9,33.4c12-0.3,24,3.9,33.2,11.4c-4.1-1.2-8.2-1.9-12.4-2.2c2.6,1.7,5,3.7,7.1,6.1
		c-2.9-0.4-5.7-0.8-8.6-1.2c0.6,1.5,1.1,2.9,1.7,4.4c-4.9-2.2-9.7-4.3-14.6-6.5c1.7,0,3.5,0,5.2,0c-1.2-1.1-2.3-2.3-3.5-3.4
		c1.8-0.5,3.6-0.9,5.5-1.3c-5.5-2.3-11.4-3.8-17.4-4.4c0.4-1,1.4-1.6,2.5-1.6"/>
</g>
<g>
	<path class="st0" d="M614.6,151.4c4.1-8.3,8.2-16.5,12.4-24.8"/>
</g>
<g>
	<path class="st0" d="M616.1,148.9c4.7,2.1,8.7,5.9,13.7,7.1c7.9,1.9,15.7-3.3,22.2-8.2c-0.1,7.2-4.3,14.1-10.2,18.4
		c-5.9,4.2-13.3,6.1-20.5,6"/>
</g>
<g>
	<path class="st0" d="M634.6,171c6.2,0.8,12.1,3.6,16.7,7.8c-2.3,0.6-4.8,0.8-7.2,0.6c0.6,0.5,1.1,1.3,1.2,2.1
		c-3.8,2.3-7.9,4.3-12.1,5.8"/>
</g>
<g>
	<path class="st0" d="M634.1,187c2.7,1,5.5,1.9,8.4,1.9c2.9-0.1,5.9-1.3,7.2-3.9c-0.9,2,1,4.3,3.2,4.7c2.1,0.4,4.3-0.6,6.2-1.5
		c2.8-1.3,5.7-2.7,8.5-4c-11.2,13.5-28.9,21.3-46.4,20.4"/>
</g>
<g>
	<path class="st0" d="M584.2,280.9c19.3-11.3,37.7-24.2,54.9-38.4c1-0.8,1.9-1.6,2.4-2.8c1.1-2.7-1.1-5.8-3.9-6.7s-5.8-0.2-8.6,0.4"
		/>
</g>
<g>
	<path class="st0" d="M639.3,231.8c6.2-0.1,12.4,1.6,17.7,4.6c1.8,1,3.5,2.2,4.8,3.9c2.6,3.5,2.5,8.1,2.4,12.4
		c-0.1,3.4-0.2,6.8-1,10.1c-2,8.1-8.1,16-5.8,24c0.4,1.4,1,2.7,1.2,4.2c0.2,2.7-1.3,5.2-2.7,7.4"/>
</g>
<g>
	<path class="st0" d="M656.9,283.9c8.7,0.8,17.7-0.2,23.7,7.8c2,4,2,8,2,12c3,20,27,23,44,19.7"/>
</g>
<g>
	<path class="st0" d="M653,266.3c-0.3,19.9-12.8,38.1-29,49.6s-35.7,17.2-55.1,21.5c-19.4,4.3-39.2,7.3-57.8,14.2
		c-18.4,6.8-35.4,17.3-54.5,21.7c-14.7,3.4-30,2.9-45.1,2.5c2.8-1.7,5.6-3.4,8.4-5.2"/>
</g>
<g>
	<path class="st0" d="M455.2,381.9c30.1-13.1,60.8-25.9,93.4-29.8c18.8-2.3,38.6-1.8,55.4-10.5c-21.9,6.6-40.6,20.8-61.6,30.1
		c-27,11.9-57.7,15.2-86.6,9.4"/>
</g>
<g>
	<path class="st0" d="M584.2,374.9c6.2-9.8,17-15.7,27.6-20.3c5.6-2.4,11.4-4.7,15.7-9c1.5-1.5,2.8-3.3,4.3-4.9
		c9.6-10,26.5-9.9,36.1-19.9c-5.9,10.5-12.1,21-21.5,28.6c-6.1,4.9-13.2,8.3-20.3,11.7c-12.4,5.9-25.2,11.9-38.9,12.8"/>
</g>
<g>
	<path class="st0" d="M651.9,299.3c-5,11-16.1,17.8-26.4,24.2c-1.2,0.7-2.6,1.9-2.3,3.3c10.5-1.2,20-6.6,28.7-12.6
		c8.7-6,17-12.7,26.6-17"/>
</g>
<g>
	<path class="st0" d="M684.5,313.2c-3.9,3.6-8.4,6.5-13.2,8.7c2.5-2.2,6.4,1.6,5.7,4.8c-0.7,3.2-3.8,5.2-6.6,7
		c-8.3,5.5-15.7,12.4-21.8,20.3c12.2-1.5,24.4-3.1,36.6-4.6c-13.1,6.3-26.3,12.7-39.3,19.2c-26.3,13.3-53.7,29.3-66.6,55.9
		c24.4-8.7,49-17.2,73.6-25.5c15.3-5.1,31.1-10.2,47.2-8.9"/>
</g>
<g>
	<path class="st0" d="M685.2,407.1c-47.5,17.6-93.2,39.9-136.3,66.5c6.9-16.7,22.2-28.2,36.8-38.9c-17.5,6.7-34.6,14.6-51.1,23.5
		c-6.3,3.4-12.6,7.1-18,11.8c-10.8,9.4-17.7,22.7-20.9,36.7c-3.2,14-2.8,28.5-0.6,42.7"/>
</g>
<g>
	<path class="st0" d="M496.5,547.7c-3,11.4-6.1,22.9-9.1,34.3c-5.9,22.1-11.8,44.3-15.9,66.9"/>
</g>
<g>
	<path class="st0" d="M352.8,653.3c-0.4-5.5,3-10.7,7.3-14.2c4.3-3.4,9.6-5.5,14.6-7.8c1-0.5,2-1,2.7-1.9c1.1-1.4,1-3.3,0.9-5.1
		c-1.2-18.6-5.1-37-11.5-54.5"/>
</g>
<g>
	<path class="st0" d="M135.1,486c1.3,10.6-0.3,21.5-4.7,31.3"/>
</g>
<g>
	<path class="st0" d="M135.3,500.7c2.9-3.1,4.8-7.2,5.2-11.4"/>
</g>
<g>
	<path class="st0" d="M132.1,524c2.7-8.4,11-14.6,11.5-23.4"/>
</g>
<g>
	<path class="st0" d="M627.6,126.2c20.2,16.4,35.2,38.4,46.5,61.8s19.1,48.3,26.9,73.1c1.2,3.7,2.3,7.5,2.4,11.4
		c0.3,14.2-13.3,24.9-16.7,38.7"/>
</g>
<g>
	<path class="st0" d="M704.8,324c0.4-7.7,0.8-15.4,1.2-23.2c-2.8,6.4-5.7,12.8-8.5,19.2"/>
</g>
<g>
	<path class="st0" d="M717.8,322.7c0.4-8.7,0.7-17.7-1.5-26.1c-1.1-4-2.7-7.9-2.5-12.1c0.3-5.6,4-10.4,7.5-14.8
		c1.1,3.4,2.3,6.8,3.4,10.3"/>
</g>
<g>
	<path class="st0" d="M650.5,129.5c4.7,2.6,7.7,7.4,10,12.3c2.2,4.9,3.8,10.1,6.6,14.6c2.3,3.7,5.2,6.8,8.2,10
		c3.8,4,7.6,8.1,11.4,12.1c-7.3-18.2-18.7-34.8-33.1-48.1"/>
</g>
<g>
	<path class="st0" d="M669.6,139.9c12.3,17,24.2,34.4,32,53.9c5.6,14.1,9.2,29.4,18.7,41.3c1.1-8.2,3.6-16.2,7.2-23.6"/>
</g>
<g>
	<path class="st0" d="M690.8,202.6c7.4,14.4,8.3,31.5,16.3,45.6c-1.7-9.5-3.4-19-5.1-28.5c-0.8-4.7-1.8-9.5-4.7-13.2
		c-2.9-3.7-7.6-5.9-9.7-10.1c1.1,2.8,2.2,5.6,3.3,8.4"/>
</g>
<g>
	<path class="st0" d="M713.2,242c-0.2,3.9,0.2,7.8,0.9,11.6c2.6-3.6,2.3-9.1-0.7-12.4"/>
</g>
<g>
	<path class="st0" d="M619.6,102.1c4.2,2.1,8.4,4,12.6,5.9c35.4,16.6,67.5,40.3,93.6,69.4"/>
</g>
<g>
	<path class="st0" d="M669.1,138.4c18.3,8.6,34.5,21.6,47.2,37.3c3.6,4.5,6.9,9.2,9.9,14.1"/>
</g>
<g>
	<path class="st0" d="M626.1,86.4c10,6.2,17.4,16.3,20.3,27.7"/>
</g>
<g>
	<path class="st0" d="M645.8,145.4c0.4,1.6,0.9,3.1,1.3,4.7"/>
</g>
<g>
	<path class="st0" d="M636.3,204.4c1.4,1.7,3.4,3.7,5.6,3c2.5-0.8,2.7-4.1,2.5-6.7"/>
</g>
<g>
	<path class="st0" d="M654.7,197.4c-3,11.1-4.7,22.5-5.1,34"/>
</g>
<g>
	<path class="st0" d="M649.7,185.3c1.1-7.4,0.1-15.2-2.9-22.1"/>
</g>
<g>
	<path class="st0" d="M652.7,153.9c2.9,3.1,3.4,7.7,3.6,12c0.4,7.4,0.5,14.7,0.2,22.1"/>
</g>
<g>
	<path class="st0" d="M435.4,91.3c2.5,0.3,3.8,3.1,4.6,5.5c2.9,8.7,5.2,17.5,7,26.5c0.6-12.4,1.1-25.1-3.2-36.7"/>
</g>
<g>
	<path class="st0" d="M489.1,71.5c7.1,10.7,11.9,23,14,35.6c0.3-11.9-1.4-23.8-5-35.2"/>
</g>
<g>
	<path class="st0" d="M537.4,61.9c2.8,2,4.1,5.3,5.3,8.4c3.3,8.6,6.6,17.2,9.9,25.7c-0.6-5-1.2-9.9-1.9-14.9
		c-1-8.1-2.1-16.5-6.7-23.3"/>
</g>
<g>
	<path class="st0" d="M471.9,647.4c0,1.8,0,3.6,0,5.3"/>
</g>
<g>
	<path class="st0" d="M641.9,648.7c-55.1,4.4-111.1-1.9-163.8-18.3"/>
</g>
<g>
	<path class="st0" d="M613.8,648.2c2.7-32.9,0.6-66.3,6.8-98.7c7.8-40.5,28.2-77.3,48.3-113.3c4.9-8.8,9.9-17.7,16-25.7
		c5-6.5,10.7-12.5,16.5-18.4c7.9-8.1,15.8-16.3,23.6-24.4"/>
</g>
<g>
	<path class="st0" d="M727.2,399.4c-24.4,30.1-40.5,65.9-56.1,101.4c-3.5,8-7.1,16.1-9.5,24.5c-3.1,10.4-4.5,21.2-5.9,31.9
		c-1.9,14.5-3.8,29-4.6,43.5c-0.4,8.6-0.5,17.2-2.1,25.7c-1.7,9-5.2,17.8-5.3,27"/>
</g>
<g>
	<path class="st0" d="M647,654.2c13.8-32.8,7.1-70.5,14.2-105.4c4.6-22.5,14.8-43.5,25-64.1c8-16.2,16-32.4,23.9-48.6
		c5-10.2,10.1-20.5,16.9-29.6"/>
</g>
<g>
	<path class="st0" d="M641.9,648c0.4,0,0.9,0,1.3,0"/>
</g>
<g>
	<path class="st0" d="M706.6,248.7c0.7,5.8,3.3,11.2,4.4,17c1.8,9.2,0,19.3,4.3,27.7"/>
</g>
<g>
	<path class="st0" d="M706.3,300.7c-1-16.9-3.8-33.7-8.4-50"/>
</g>
<g>
	<path class="st0" d="M710.5,263.3c5.3-9.4,8.5-19.9,9.3-30.6"/>
</g>
<g>
	<path class="st0" d="M699.3,208.7c0.4-3.6-1.3-7.1-2.9-10.4c-3.9-7.8-7.7-15.6-11.6-23.4"/>
</g>
<g>
	<path class="st0" d="M628.7,233c5.9-2.3,9.4-8.5,11.8-14.4c0.3-0.8,0.7-1.7,0.6-2.6c-0.2-1.6-1.8-2.6-3-3.6
		c-2.5-2.2-3.9-5.7-3.6-9.1"/>
</g>
</svg>
