<svg version="1.1" id="Camada_2" xmlns="http://www.w3.org/2000/svg" xmlns:xlink="http://www.w3.org/1999/xlink" x="0px" y="0px"
viewBox="0 0 362 371" style="enable-background:new 0 0 362 371;" xml:space="preserve">

<defs>
<style>


#Camada_2{
cursor:pointer;
fill:rgba(255, 255, 255, 0);
stroke-dasharray:2800;
stroke-dashoffset:0;
-webkit-animation: dash 1s linear forwards;
-o-animaiton: dash 1s linear forwards;
-moz-animation: dash 1s linear forwards;
animation: dash 1s linear forwards;
}

#Camada_2:hover .st1{
transition-timing-function: ease-in;
transition-delay: 0.1s;
transition: all 0.3s ease-in-out 0.1s;
fill:rgba(255, 255, 255, 1);
stroke:rgba(255, 255, 255, 1);
}


@-webkit-keyframes dash{
from{
stroke-dashoffset: 2800;

}
to{
stroke-dashoffset: 0;
fill:rgba(255, 255, 255, 0.5);
}}

</style>

<script type="text/javascript">

var clicker = document.querySelector('#Camada_2');

clicker.addEventListener('click', function(){

window.open('http://www.seusite.com');
});

</script>


</defs>


<style type="text/css">
.st1{stroke:rgba(255, 255, 255, 0.5);stroke-width:2;stroke-miterlimit:1;}
</style>
<g>
	<path class="st1" d="M330.7,290c-2.8-26.4-24.7-47.1-51.1-47.1c-16.5,0-32,8.3-41.6,21.9c-1.9-0.3-3.8-0.5-5.7-0.5
		c-14.9,0-28.1,10.1-32.6,24.5c-12.3,7.3-20,20.8-20,35.4c0,22.5,17.9,40.9,39.9,40.9h69.2c0.4,0,0.8,0,1.1-0.1
		c0.4,0,0.8,0.1,1.2,0.1h27.7c20.7,0,37.6-17.3,37.6-38.5C356.4,309.8,345.9,295.2,330.7,290z M318.8,352.2l-28,0l-1.1,0l-70.2,0.1
		c-14.9,0-27-12.6-27-28c0-10.7,6.1-20.6,15.5-25.3l2.8-1.4l0.7-3.1c2.1-10,10.9-17.3,20.7-17.3c2.2,0,4.4,0.4,6.6,1.1l5,1.7
		l2.6-4.6c7-12.2,19.4-19.6,33.1-19.6c21,0,38.3,17.6,38.5,39.3l0.1,5.2l5.1,1c11.7,2.3,20.2,12.9,20.2,25.2
		C343.6,340.7,332.5,352.2,318.8,352.2z"/>
	<path class="st1" d="M164.6,268.6c-5.3,0-10.5-0.1-15.6-0.3c-3.1-0.1-6.1-0.3-9.2-0.5c-1.9-0.1-3.8-0.2-5.7-0.3
		c-4-0.3-8-0.7-11.9-1.1c-0.7-0.1-1.5-0.1-2.2-0.2c-4.5-0.5-8.8-1-13-1.7c-0.1,0-0.2,0-0.3,0c-21.7-3.2-40.4-8.1-55-13.9
		c-0.1,0-0.2-0.1-0.2-0.1c-2.7-1.1-5.2-2.2-7.6-3.3c-0.3-0.1-0.6-0.3-0.8-0.4c-2.2-1-4.2-2.1-6.1-3.2c-0.4-0.3-0.9-0.5-1.4-0.8
		c-1.7-1-3.2-2-4.6-3c-0.6-0.4-1.1-0.8-1.7-1.2c-1.2-0.9-2.3-1.8-3.4-2.7c-0.6-0.5-1.2-1-1.7-1.5c-0.9-0.8-1.6-1.7-2.3-2.5
		c-0.5-0.6-1-1.2-1.4-1.8c-0.6-0.8-1-1.6-1.5-2.4c-0.3-0.6-0.7-1.3-0.9-1.9c-0.3-0.8-0.6-1.6-0.7-2.3c-0.2-1-0.5-2.1-0.5-3.1v-52.7
		c0.2,0.2,0.4,0.3,0.6,0.5c1.4,1.2,2.8,2.5,4.4,3.6c24.2,18.3,72.6,32.6,142.8,32.6c69.9,0,118.1-14.1,142.4-32.3
		c1.9-1.4,3.7-2.9,5.3-4.4h0v55.9c0,3.6,2.9,6.4,6.4,6.4s6.4-2.9,6.4-6.4v-77.1v-3.2V66.2V63c0-1.2-0.4-2.2-0.9-3.1
		c-7.4-27.6-62.8-54.7-159.7-54.7S12.4,32.3,4.9,59.8C4.4,60.8,4,61.8,4,63v3.2v77.1v3.2v73.9v3.2v77.1c0,1,0.3,2,0.7,2.9
		c7.3,31.1,68.7,49.3,127.3,53.7c0.2,0,0.3,0,0.5,0c3.3,0,6.1-2.6,6.4-5.9c0.3-3.5-2.4-6.6-5.9-6.9c-71.4-5.4-113-27.1-115.9-44.8
		c-0.1-0.3-0.1-0.6-0.2-0.8v-54.1c0.2,0.2,0.4,0.3,0.6,0.5c1.4,1.2,2.8,2.5,4.4,3.6c24.2,18.3,72.6,32.5,142.8,32.5
		c3.6,0,6.4-2.9,6.4-6.4C171.1,271.5,168.2,268.6,164.6,268.6z M20.7,93.8c1.9,1.5,4,3,6.3,4.5c0.5,0.3,1,0.6,1.5,0.9
		c1.9,1.2,3.9,2.3,6,3.5c0.8,0.4,1.6,0.8,2.4,1.2c2.3,1.2,4.8,2.4,7.4,3.5c0.4,0.2,0.8,0.4,1.2,0.6c3,1.3,6.2,2.5,9.5,3.7
		c0.9,0.3,1.9,0.6,2.8,1c2.6,0.9,5.4,1.7,8.2,2.6c1,0.3,2,0.6,3.1,0.9c3.8,1,7.6,2,11.7,2.9c0.6,0.1,1.2,0.2,1.7,0.4
		c3.6,0.8,7.3,1.5,11.1,2.2c1.3,0.2,2.6,0.4,3.9,0.7c3.6,0.6,7.4,1.2,11.2,1.7c1,0.1,1.9,0.3,2.9,0.4c4.8,0.6,9.7,1.1,14.8,1.5
		c1.3,0.1,2.6,0.2,3.8,0.3c4.1,0.3,8.2,0.5,12.5,0.7c1.5,0.1,3.1,0.1,4.7,0.2c5.5,0.2,11.2,0.3,17,0.3s11.5-0.1,17-0.3
		c1.6-0.1,3.1-0.1,4.7-0.2c4.3-0.2,8.4-0.4,12.5-0.7c1.3-0.1,2.6-0.2,3.8-0.3c5.1-0.4,10-0.9,14.8-1.5c1-0.1,1.9-0.3,2.9-0.4
		c3.8-0.5,7.6-1.1,11.2-1.7c1.3-0.2,2.6-0.4,3.9-0.7c3.8-0.7,7.6-1.4,11.1-2.2c0.6-0.1,1.2-0.2,1.7-0.4c4.1-0.9,8-1.9,11.7-2.9
		c1-0.3,2-0.6,3.1-0.9c2.8-0.8,5.6-1.7,8.2-2.6c0.9-0.3,1.9-0.6,2.8-1c3.3-1.2,6.5-2.4,9.5-3.7c0.4-0.2,0.8-0.4,1.2-0.6
		c2.6-1.1,5.1-2.3,7.4-3.5c0.8-0.4,1.6-0.8,2.4-1.2c2.1-1.1,4.1-2.3,6-3.5c0.5-0.3,1-0.6,1.5-0.9c2.3-1.5,4.3-2.9,6.3-4.5
		c0.5-0.4,0.9-0.8,1.4-1.2c0.8-0.7,1.7-1.4,2.5-2.1v52.7c0,1-0.3,2.1-0.5,3.1c-0.2,0.8-0.4,1.5-0.7,2.3c-0.3,0.6-0.6,1.3-0.9,1.9
		c-0.4,0.8-0.9,1.6-1.5,2.4c-0.4,0.6-0.9,1.2-1.4,1.8c-0.7,0.8-1.5,1.7-2.3,2.5c-0.5,0.5-1.1,1-1.7,1.5c-1.1,0.9-2.2,1.8-3.4,2.7
		c-0.5,0.4-1.1,0.8-1.7,1.2c-1.5,1-3,2-4.6,3c-0.4,0.3-0.9,0.5-1.4,0.8c-1.9,1.1-3.9,2.1-6.1,3.2c-0.3,0.1-0.6,0.3-0.8,0.4
		c-2.4,1.1-4.9,2.3-7.6,3.3c-0.1,0-0.2,0.1-0.2,0.1c-14.6,5.8-33.3,10.7-55,13.9c-0.1,0-0.2,0-0.3,0c-4.2,0.6-8.6,1.2-13,1.7
		c-0.7,0.1-1.5,0.1-2.2,0.2c-3.9,0.4-7.8,0.8-11.9,1.1c-1.9,0.1-3.8,0.2-5.7,0.3c-3,0.2-6.1,0.4-9.2,0.5c-5.1,0.2-10.3,0.3-15.6,0.3
		s-10.5-0.1-15.6-0.3c-3.1-0.1-6.1-0.3-9.2-0.5c-1.9-0.1-3.8-0.2-5.7-0.3c-4-0.3-8-0.7-11.9-1.1c-0.7-0.1-1.5-0.1-2.2-0.2
		c-4.5-0.5-8.8-1-13-1.7c-0.1,0-0.2,0-0.3,0c-21.7-3.2-40.4-8.1-55-13.9c-0.1,0-0.2-0.1-0.2-0.1c-2.7-1.1-5.2-2.2-7.6-3.3
		c-0.3-0.1-0.6-0.3-0.8-0.4c-2.2-1-4.2-2.1-6.1-3.2c-0.4-0.3-0.9-0.5-1.4-0.8c-1.7-1-3.2-2-4.6-3c-0.6-0.4-1.1-0.8-1.7-1.2
		c-1.2-0.9-2.3-1.8-3.4-2.7c-0.6-0.5-1.2-1-1.7-1.5c-0.9-0.8-1.6-1.7-2.3-2.5c-0.5-0.6-1-1.2-1.4-1.8c-0.6-0.8-1-1.6-1.5-2.4
		c-0.3-0.6-0.7-1.3-0.9-1.9c-0.3-0.8-0.6-1.6-0.7-2.3c-0.2-1-0.5-2.1-0.5-3.1V90.6c0.8,0.7,1.7,1.4,2.5,2.1
		C19.8,93,20.2,93.4,20.7,93.8z M164.6,18c87.1,0,147.8,25.4,147.8,48.2s-60.7,48.2-147.8,48.2S16.9,89,16.9,66.2S77.5,18,164.6,18z
		"/>
</g>
</svg>
