<?xml version="1.0" encoding="utf-8"?>
<!-- Generator: Adobe Illustrator 21.0.0, SVG Export Plug-In . SVG Version: 6.00 Build 0)  -->
<svg version="1.1" id="Camada_1" xmlns="http://www.w3.org/2000/svg" xmlns:xlink="http://www.w3.org/1999/xlink" x="0px" y="0px"
	 viewBox="0 0 837 348" style="enable-background:new 0 0 837 348;" xml:space="preserve">
<style type="text/css">
	.st0{fill:none;stroke:#FFFFFF;stroke-miterlimit:10;}
	.st1{fill:#FFFFFF;}
	.st2{fill:none;}
	.st3{font-family:'MyanmarText';}
	.st4{font-size:13.9246px;}
</style>
<path class="st0" d="M396.2,95.2c-5.4,0-9.8-4.4-9.8-9.8V19.8c0-5.4,4.4-9.8,9.8-9.8h117.1c5.4,0,9.8,4.4,9.8,9.8"/>
<g>
	<path class="st1" d="M520.1,20c6.1,0,11,4.9,11,11v61.2c0,6.1-4.9,11-11,11H407.3c-6.1,0-11-4.9-11-11V31c0-6.1,4.9-11,11-11H520.1
		 M520.1,19H407.3c-6.6,0-12,5.4-12,12v61.2c0,6.6,5.4,12,12,12h112.8c6.6,0,12-5.4,12-12V31C532.1,24.4,526.7,19,520.1,19L520.1,19
		z"/>
</g>
<rect x="428.1" y="55" class="st2" width="81.1" height="23.4"/>
<text transform="matrix(1 0 0 1 428.1006 65.3193)" class="st1 st3 st4">Paradigmas</text>
<path class="st0" d="M190.6,209.9c-5.4,0-9.8-4.4-9.8-9.8v-65.5c0-5.4,4.4-9.8,9.8-9.8h117.1c5.4,0,9.8,4.4,9.8,9.8"/>
<g>
	<path class="st1" d="M314.5,134.7c6.1,0,11,4.9,11,11v61.2c0,6.1-4.9,11-11,11H201.7c-6.1,0-11-4.9-11-11v-61.2c0-6.1,4.9-11,11-11
		H314.5 M314.5,133.7H201.7c-6.6,0-12,5.4-12,12v61.2c0,6.6,5.4,12,12,12h112.8c6.6,0,12-5.4,12-12v-61.2
		C326.5,139.1,321.1,133.7,314.5,133.7L314.5,133.7z"/>
</g>
<rect x="222.5" y="169.7" class="st2" width="81.1" height="23.4"/>
<text transform="matrix(1 0 0 1 222.5073 179.9927)" class="st1 st3 st4">Imperativo</text>
<path class="st0" d="M593.6,211.5c-5.4,0-9.8-4.4-9.8-9.8v-65.5c0-5.4,4.4-9.8,9.8-9.8h117.1c5.4,0,9.8,4.4,9.8,9.8"/>
<g>
	<path class="st1" d="M717.5,136.3c6.1,0,11,4.9,11,11v61.2c0,6.1-4.9,11-11,11H604.7c-6.1,0-11-4.9-11-11v-61.2c0-6.1,4.9-11,11-11
		H717.5 M717.5,135.3H604.7c-6.6,0-12,5.4-12,12v61.2c0,6.6,5.4,12,12,12h112.8c6.6,0,12-5.4,12-12v-61.2
		C729.5,140.7,724.1,135.3,717.5,135.3L717.5,135.3z"/>
</g>
<rect x="625.5" y="171.3" class="st2" width="81.1" height="23.4"/>
<text transform="matrix(1 0 0 1 625.502 181.6309)" class="st1 st3 st4">Declarativo</text>
<path class="st0" d="M21.8,327c-5.4,0-9.8-4.4-9.8-9.8v-65.5c0-5.4,4.4-9.8,9.8-9.8H139c5.4,0,9.8,4.4,9.8,9.8"/>
<g>
	<path class="st1" d="M145.8,251.8c6.1,0,11,4.9,11,11V324c0,6.1-4.9,11-11,11H33c-6.1,0-11-4.9-11-11v-61.2c0-6.1,4.9-11,11-11
		H145.8 M145.8,250.8H33c-6.6,0-12,5.4-12,12V324c0,6.6,5.4,12,12,12h112.8c6.6,0,12-5.4,12-12v-61.2
		C157.8,256.2,152.4,250.8,145.8,250.8L145.8,250.8z"/>
</g>
<rect x="53.8" y="286.8" class="st2" width="81.1" height="23.4"/>
<text transform="matrix(1 0 0 1 53.7739 297.124)" class="st1 st3 st4">Estruturado</text>
<path class="st0" d="M190.6,327c-5.4,0-9.8-4.4-9.8-9.8v-65.5c0-5.4,4.4-9.8,9.8-9.8h117.1c5.4,0,9.8,4.4,9.8,9.8"/>
<g>
	<path class="st1" d="M314.5,251.8c6.1,0,11,4.9,11,11V324c0,6.1-4.9,11-11,11H201.7c-6.1,0-11-4.9-11-11v-61.2c0-6.1,4.9-11,11-11
		H314.5 M314.5,250.8H201.7c-6.6,0-12,5.4-12,12V324c0,6.6,5.4,12,12,12h112.8c6.6,0,12-5.4,12-12v-61.2
		C326.5,256.2,321.1,250.8,314.5,250.8L314.5,250.8z"/>
</g>
<rect x="221.5" y="279.8" class="st2" width="86.5" height="32.2"/>
<text transform="matrix(1 0 0 1 221.5073 290.124)"><tspan x="0" y="0" class="st1 st3 st4">Orientado a</tspan><tspan x="0" y="16.7" class="st1 st3 st4">objetos</tspan></text>
<path class="st0" d="M350.3,327c-5.4,0-9.8-4.4-9.8-9.8v-65.5c0-5.4,4.4-9.8,9.8-9.8h117.1c5.4,0,9.8,4.4,9.8,9.8"/>
<g>
	<path class="st1" d="M474.3,251.8c6.1,0,11,4.9,11,11V324c0,6.1-4.9,11-11,11H361.5c-6.1,0-11-4.9-11-11v-61.2c0-6.1,4.9-11,11-11
		H474.3 M474.3,250.8H361.5c-6.6,0-12,5.4-12,12V324c0,6.6,5.4,12,12,12h112.8c6.6,0,12-5.4,12-12v-61.2
		C486.3,256.2,480.9,250.8,474.3,250.8L474.3,250.8z"/>
</g>
<rect x="379.2" y="286.8" class="st2" width="81.1" height="23.4"/>
<text transform="matrix(1 0 0 1 379.231 297.124)" class="st1 st3 st4">Concorrente</text>
<path class="st0" d="M528.8,327c-5.4,0-9.8-4.4-9.8-9.8v-65.5c0-5.4,4.4-9.8,9.8-9.8H646c5.4,0,9.8,4.4,9.8,9.8"/>
<g>
	<path class="st1" d="M652.8,251.8c6.1,0,11,4.9,11,11V324c0,6.1-4.9,11-11,11H540c-6.1,0-11-4.9-11-11v-61.2c0-6.1,4.9-11,11-11
		H652.8 M652.8,250.8H540c-6.6,0-12,5.4-12,12V324c0,6.6,5.4,12,12,12h112.8c6.6,0,12-5.4,12-12v-61.2
		C664.8,256.2,659.4,250.8,652.8,250.8L652.8,250.8z"/>
</g>
<rect x="563.8" y="287.8" class="st2" width="81.1" height="23.4"/>
<text transform="matrix(1 0 0 1 563.7939 298.124)" class="st1 st3 st4">Funcional</text>
<path class="st0" d="M688.6,327c-5.4,0-9.8-4.4-9.8-9.8v-65.5c0-5.4,4.4-9.8,9.8-9.8h117.1c5.4,0,9.8,4.4,9.8,9.8"/>
<g>
	<path class="st1" d="M812.5,251.8c6.1,0,11,4.9,11,11V324c0,6.1-4.9,11-11,11H699.8c-6.1,0-11-4.9-11-11v-61.2c0-6.1,4.9-11,11-11
		H812.5 M812.5,250.8H699.8c-6.6,0-12,5.4-12,12V324c0,6.6,5.4,12,12,12h112.8c6.6,0,12-5.4,12-12v-61.2
		C824.5,256.2,819.1,250.8,812.5,250.8L812.5,250.8z"/>
</g>
<rect x="736.5" y="287.8" class="st2" width="81.1" height="23.4"/>
<text transform="matrix(1 0 0 1 736.5176 298.124)" class="st1 st3 st4">Lógico</text>
<line class="st0" x1="270.4" y1="112" x2="641.5" y2="112"/>
<line class="st0" x1="270.4" y1="112" x2="270.4" y2="125.1"/>
<line class="st0" x1="641.5" y1="112" x2="641.5" y2="126.7"/>
<line class="st0" x1="463.7" y1="104.6" x2="463.7" y2="112"/>
<line class="st0" x1="89.4" y1="231.6" x2="422.8" y2="231.6"/>
<line class="st0" x1="89.4" y1="231.6" x2="89.4" y2="242.2"/>
<line class="st0" x1="256.5" y1="231.6" x2="256.5" y2="242.2"/>
<line class="st0" x1="422.8" y1="231.6" x2="422.8" y2="242.2"/>
<line class="st0" x1="256.5" y1="231.6" x2="256.5" y2="219.3"/>
<line class="st0" x1="588.2" y1="234" x2="747.1" y2="234"/>
<line class="st0" x1="588.2" y1="234" x2="588.2" y2="242.2"/>
<line class="st0" x1="747.1" y1="234" x2="747.1" y2="242.2"/>
<line class="st0" x1="666" y1="234" x2="666" y2="220.9"/>
</svg>
