<?xml version="1.0" encoding="utf-8"?>
<!-- Generator: Adobe Illustrator 21.0.0, SVG Export Plug-In . SVG Version: 6.00 Build 0)  -->
<svg version="1.1" id="Camada_1" xmlns="http://www.w3.org/2000/svg" xmlns:xlink="http://www.w3.org/1999/xlink" x="0px" y="0px"
	 viewBox="0 0 442 211" style="enable-background:new 0 0 442 211;" xml:space="preserve">
<style type="text/css">
	.st0{fill:none;stroke:#FFFFFF;stroke-miterlimit:10;}
	.st1{fill:#FFFFFF;}
	.st2{font-family:'MyanmarText';}
	.st3{font-size:17px;}
	.st4{fill:none;stroke:#FFFFFF;stroke-width:2;stroke-miterlimit:10;}
</style>
<path class="st0" d="M297.5,131.5h-159c-6.6,0-12-5.4-12-12v-35c0-6.6,5.4-12,12-12h159c6.6,0,12,5.4,12,12v35
	C309.5,126.1,304.1,131.5,297.5,131.5z"/>
<text transform="matrix(1 0 0 1 164 107)" class="st1 st2 st3">Dados Globais</text>
<path class="st0" d="M101.5,51.5h-84c-6.6,0-12-5.4-12-12v-25c0-6.6,5.4-12,12-12h84c6.6,0,12,5.4,12,12v25
	C113.5,46.1,108.1,51.5,101.5,51.5z"/>
<text transform="matrix(1 0 0 1 26 32)" class="st1 st2 st3">Função 1</text>
<path class="st0" d="M101.5,205.5h-84c-6.6,0-12-5.4-12-12v-25c0-6.6,5.4-12,12-12h84c6.6,0,12,5.4,12,12v25
	C113.5,200.1,108.1,205.5,101.5,205.5z"/>
<text transform="matrix(1 0 0 1 26 186)" class="st1 st2 st3">Função 3</text>
<path class="st0" d="M423.5,51.5h-84c-6.6,0-12-5.4-12-12v-25c0-6.6,5.4-12,12-12h84c6.6,0,12,5.4,12,12v25
	C435.5,46.1,430.1,51.5,423.5,51.5z"/>
<text transform="matrix(1 0 0 1 348 32)" class="st1 st2 st3">Função 2</text>
<path class="st0" d="M423.5,205.5h-84c-6.6,0-12-5.4-12-12v-25c0-6.6,5.4-12,12-12h84c6.6,0,12,5.4,12,12v25
	C435.5,200.1,430.1,205.5,423.5,205.5z"/>
<text transform="matrix(1 0 0 1 348 186)" class="st1 st2 st3">Função 4</text>
<line class="st4" x1="114" y1="54" x2="124" y2="65"/>
<line class="st4" x1="114" y1="54" x2="114" y2="61"/>
<line class="st4" x1="113" y1="54" x2="121" y2="54"/>
<line class="st4" x1="125" y1="66" x2="125" y2="59"/>
<line class="st4" x1="126" y1="66" x2="118" y2="66"/>
<line class="st4" x1="314" y1="138" x2="324" y2="149"/>
<line class="st4" x1="314" y1="138" x2="314" y2="145"/>
<line class="st4" x1="313" y1="138" x2="321" y2="138"/>
<line class="st4" x1="325" y1="150" x2="325" y2="143"/>
<line class="st4" x1="326" y1="150" x2="318" y2="150"/>
<line class="st4" x1="322" y1="56" x2="312" y2="67"/>
<line class="st4" x1="322" y1="56" x2="322" y2="63"/>
<line class="st4" x1="323" y1="56" x2="315" y2="56"/>
<line class="st4" x1="311" y1="68" x2="311" y2="61"/>
<line class="st4" x1="310" y1="68" x2="318" y2="68"/>
<line class="st4" x1="125" y1="137" x2="115" y2="148"/>
<line class="st4" x1="125" y1="137" x2="125" y2="144"/>
<line class="st4" x1="126" y1="137" x2="118" y2="137"/>
<line class="st4" x1="114" y1="149" x2="114" y2="142"/>
<line class="st4" x1="113" y1="149" x2="121" y2="149"/>
</svg>
