<?xml version="1.0" encoding="iso-8859-1"?>
<!-- Generator: Adobe Illustrator 16.0.0, SVG Export Plug-In . SVG Version: 6.00 Build 0)  -->
<!DOCTYPE svg PUBLIC "-//W3C//DTD SVG 1.1//EN" "http://www.w3.org/Graphics/SVG/1.1/DTD/svg11.dtd">
<svg xmlns="http://www.w3.org/2000/svg" xmlns:xlink="http://www.w3.org/1999/xlink" version="1.1" id="Capa_1" x="0px" y="0px" width="512px" height="512px" viewBox="0 0 324.303 324.303" style="enable-background:new 0 0 324.303 324.303;" xml:space="preserve">
<g>
	<polygon points="11.71,11.71 77.253,11.71 127.995,11.71 127.995,0 77.253,0 0,0 0,127.998 11.71,127.998     " fill="#FFFFFF"/>
	<polygon points="312.592,228.823 312.592,312.592 196.311,312.592 196.311,324.303 324.303,324.303    324.303,228.823 324.303,196.311 312.592,196.311  " fill="#FFFFFF"/>
	<polygon points="11.71,312.592 11.71,196.311 0,196.311 0,324.303 127.995,324.303 127.995,312.592  " fill="#FFFFFF"/>
	<polygon points="312.592,11.71 312.592,127.998 324.303,127.998 324.303,0 196.311,0 196.311,11.71  " fill="#FFFFFF"/>
</g>
<g>
</g>
<g>
</g>
<g>
</g>
<g>
</g>
<g>
</g>
<g>
</g>
<g>
</g>
<g>
</g>
<g>
</g>
<g>
</g>
<g>
</g>
<g>
</g>
<g>
</g>
<g>
</g>
<g>
</g>
</svg>
