<?xml version="1.0" encoding="utf-8"?>
<!-- Generator: Adobe Illustrator 21.0.0, SVG Export Plug-In . SVG Version: 6.00 Build 0)  -->
<svg version="1.1" id="Camada_1" xmlns="http://www.w3.org/2000/svg" xmlns:xlink="http://www.w3.org/1999/xlink" x="0px" y="0px"
	 viewBox="0 0 560 335" style="enable-background:new 0 0 560 335;" xml:space="preserve">
<style type="text/css">
	.st0{fill:none;stroke:#FFFFFF;stroke-miterlimit:10;}
	.st1{fill:none;stroke:#FFFFFF;stroke-width:2;stroke-miterlimit:10;}
	.st2{fill:#FFFFFF;}
	.st3{font-family:'MyanmarText';}
	.st4{font-size:17px;}
	.st5{fill:none;stroke:#FFFFFF;stroke-width:0.75;stroke-miterlimit:10;}
	.st6{fill:none;}
	.st7{font-size:16px;}
</style>
<ellipse class="st0" cx="259.5" cy="177" rx="125" ry="125.5"/>
<circle class="st0" cx="259" cy="178" r="147.5"/>
<path class="st1" d="M348,265c5.5,5.4,10.9,10.8,16.3,16.2"/>
<path class="st1" d="M347.8,264.5"/>
<path class="st1" d="M155.8,72.4c5.2,5.4,10.5,10.8,15.7,16.2"/>
<path class="st1" d="M171,266c-5.4,5.4-10.7,10.8-16.1,16.2"/>
<path class="st1" d="M364,74c-4.9,5.2-9.9,10.2-15,15"/>
<rect x="5.5" y="33.5" class="st0" width="98" height="27"/>
<text transform="matrix(1 0 0 1 26 52.6665)" class="st2 st3 st4">Objeto</text>
<line class="st5" x1="151" y1="94" x2="106.5" y2="63.5"/>
<rect x="347.5" y="3.5" class="st0" width="98" height="27"/>
<text transform="matrix(1 0 0 1 362 22.6665)" class="st2 st3 st4">Atributos</text>
<rect x="457.5" y="88.5" class="st0" width="98" height="27"/>
<text transform="matrix(1 0 0 1 465 107.6665)" class="st2 st3 st4">Operações</text>
<line class="st5" x1="338" y1="60" x2="449" y2="108"/>
<line class="st5" x1="449.5" y1="107.5" x2="394.5" y2="151.5"/>
<rect x="180.5" y="123.5" transform="matrix(0.7071 -0.7071 0.7071 0.7071 -35.9102 167.3051)" class="st0" width="7" height="7"/>
<rect x="178.4" y="121.3" transform="matrix(0.7071 -0.7071 0.7071 0.7071 -35.8924 167.2977)" class="st0" width="11.3" height="11.3"/>
<rect x="180.5" y="142.5" transform="matrix(0.7071 -0.7071 0.7071 0.7071 -49.3452 172.8701)" class="st0" width="7" height="7"/>
<rect x="178.4" y="140.3" transform="matrix(0.7071 -0.7071 0.7071 0.7071 -49.3275 172.8627)" class="st0" width="11.3" height="11.3"/>
<rect x="180.5" y="161.5" transform="matrix(0.7071 -0.7071 0.7071 0.7071 -62.7803 178.435)" class="st0" width="7" height="7"/>
<rect x="178.4" y="159.3" transform="matrix(0.7071 -0.7071 0.7071 0.7071 -62.7625 178.4277)" class="st0" width="11.3" height="11.3"/>
<rect x="180.5" y="180.5" transform="matrix(0.7071 -0.7071 0.7071 0.7071 -76.2153 184)" class="st0" width="7" height="7"/>
<rect x="178.4" y="178.3" transform="matrix(0.7071 -0.7071 0.7071 0.7071 -76.1975 183.9926)" class="st0" width="11.3" height="11.3"/>
<rect x="180.5" y="199.5" transform="matrix(0.7071 -0.7071 0.7071 0.7071 -89.6503 189.565)" class="st0" width="7" height="7"/>
<rect x="178.4" y="197.3" transform="matrix(0.7071 -0.7071 0.7071 0.7071 -89.6326 189.5576)" class="st0" width="11.3" height="11.3"/>
<rect x="180.5" y="218.5" transform="matrix(0.7071 -0.7071 0.7071 0.7071 -103.0854 195.1299)" class="st0" width="7" height="7"/>
<rect x="178.4" y="216.3" transform="matrix(0.7071 -0.7071 0.7071 0.7071 -103.0676 195.1226)" class="st0" width="11.3" height="11.3"/>
<rect x="196.3" y="117.3" class="st6" width="15.7" height="115.3"/>
<text transform="matrix(1 0 0 1 196.3335 129.1772)"><tspan x="0" y="0" class="st2 st3 st7">s</tspan><tspan x="0" y="19.2" class="st2 st3 st7">s</tspan><tspan x="0" y="38.4" class="st2 st3 st7">s</tspan><tspan x="0" y="57.6" class="st2 st3 st7">s</tspan><tspan x="0" y="76.8" class="st2 st3 st7">D</tspan><tspan x="0" y="96" class="st2 st3 st7">d</tspan></text>
<line class="st5" x1="224" y1="146" x2="342" y2="31"/>
</svg>
