<?xml version="1.0" encoding="utf-8"?>
<!-- Generator: Adobe Illustrator 21.0.0, SVG Export Plug-In . SVG Version: 6.00 Build 0)  -->
<svg version="1.1" id="Camada_1" xmlns="http://www.w3.org/2000/svg" xmlns:xlink="http://www.w3.org/1999/xlink" x="0px" y="0px"
	 viewBox="0 0 644 320" style="enable-background:new 0 0 644 320;" xml:space="preserve">
<style type="text/css">
	.st0{fill:none;stroke:#FFFFFF;stroke-miterlimit:10;}
	.st1{fill:none;stroke:#FFFFFF;stroke-width:2;stroke-miterlimit:10;}
	.st2{fill:none;}
	.st3{fill:#FFFFFF;}
	.st4{font-family:'MyanmarText';}
	.st5{font-size:16px;}
</style>
<ellipse class="st0" cx="486.5" cy="159" rx="125" ry="125.5"/>
<circle class="st0" cx="486" cy="160" r="147.5"/>
<path class="st1" d="M575,247c5.5,5.4,10.9,10.8,16.3,16.2"/>
<path class="st1" d="M574.8,246.5"/>
<path class="st1" d="M382.8,54.4c5.2,5.4,10.5,10.8,15.7,16.2"/>
<path class="st1" d="M398,248c-5.4,5.4-10.7,10.8-16.1,16.2"/>
<path class="st1" d="M591,56c-4.9,5.2-9.9,10.2-15,15"/>
<rect x="407.5" y="105.5" transform="matrix(0.7071 -0.7071 0.7071 0.7071 43.3045 322.5462)" class="st0" width="7" height="7"/>
<rect x="405.4" y="103.3" transform="matrix(0.7071 -0.7071 0.7071 0.7071 43.3222 322.5389)" class="st0" width="11.3" height="11.3"/>
<rect x="407.5" y="124.5" transform="matrix(0.7071 -0.7071 0.7071 0.7071 29.8694 328.1112)" class="st0" width="7" height="7"/>
<rect x="405.4" y="122.3" transform="matrix(0.7071 -0.7071 0.7071 0.7071 29.8872 328.1039)" class="st0" width="11.3" height="11.3"/>
<rect x="407.5" y="143.5" transform="matrix(0.7071 -0.7071 0.7071 0.7071 16.4344 333.6762)" class="st0" width="7" height="7"/>
<rect x="405.4" y="141.3" transform="matrix(0.7071 -0.7071 0.7071 0.7071 16.4522 333.6688)" class="st0" width="11.3" height="11.3"/>
<rect x="407.5" y="162.5" transform="matrix(0.7071 -0.7071 0.7071 0.7071 2.9994 339.2411)" class="st0" width="7" height="7"/>
<rect x="405.4" y="160.3" transform="matrix(0.7071 -0.7071 0.7071 0.7071 3.0172 339.2338)" class="st0" width="11.3" height="11.3"/>
<rect x="407.5" y="181.5" transform="matrix(0.7071 -0.7071 0.7071 0.7071 -10.4356 344.8061)" class="st0" width="7" height="7"/>
<rect x="405.4" y="179.3" transform="matrix(0.7071 -0.7071 0.7071 0.7071 -10.4179 344.7988)" class="st0" width="11.3" height="11.3"/>
<rect x="407.5" y="200.5" transform="matrix(0.7071 -0.7071 0.7071 0.7071 -23.8707 350.3711)" class="st0" width="7" height="7"/>
<rect x="405.4" y="198.3" transform="matrix(0.7071 -0.7071 0.7071 0.7071 -23.8529 350.3637)" class="st0" width="11.3" height="11.3"/>
<rect x="30.3" y="150.3" class="st2" width="158.7" height="115.3"/>
<text transform="matrix(1 0 0 1 30.2793 162.1772)"><tspan x="0" y="0" class="st3 st4 st5">Nome: Roberto</tspan><tspan x="0" y="19.2" class="st3 st4 st5">Matrícula: 567138</tspan><tspan x="0" y="38.4" class="st3 st4 st5">Admissão: 25/05/2002</tspan><tspan x="0" y="57.6" class="st3 st4 st5">Cargo: Docente</tspan><tspan x="0" y="76.8" class="st3 st4 st5">Disciplina: Química</tspan><tspan x="0" y="96" class="st3 st4 st5">Carga horária: 16h</tspan></text>
<rect x="422.3" y="101.3" class="st2" width="158.7" height="115.3"/>
<text transform="matrix(1 0 0 1 422.2793 113.1772)"><tspan x="0" y="0" class="st3 st4 st5">Nome: Roberto</tspan><tspan x="0" y="19.2" class="st3 st4 st5">Matrícula: 567138</tspan><tspan x="0" y="38.4" class="st3 st4 st5">Admissão: 25/05/2002</tspan><tspan x="0" y="57.6" class="st3 st4 st5">Cargo: Docente</tspan><tspan x="0" y="76.8" class="st3 st4 st5">Disciplina: Química</tspan><tspan x="0" y="96" class="st3 st4 st5">Carga horária: 16h</tspan></text>
<g>
	<g>
		<path class="st3" d="M134.4,112.8l-22.1-30.5l-0.8-1.4c-0.7-1-1.8-1.9-3.4-2.9c-1.6-1-3.4-1.4-5.4-1.4H72.8c-2,0-3.9,0.5-5.5,1.5
			c-1.6,1-2.7,1.9-3.2,2.6c-0.5,0.7-0.8,1.2-0.9,1.6l-22.1,30.5c-1.1,1.5-1.6,3.1-1.6,4.9c0,2.3,0.9,4.3,2.6,6s3.7,2.6,6,2.6
			c1.1,0,2.2-0.2,3.3-0.6l13.3-3.9v13.3h46.2v-13.3l13.3,3.9c1.1,0.4,2.2,0.6,3.3,0.6c2.3,0,4.3-0.9,6-2.6s2.6-3.7,2.6-6
			C136,115.9,135.5,114.3,134.4,112.8z M110.8,104.8l-1.6-0.6c-2.3-0.5-4.4-0.5-6.2,0s-3.2,1.6-4,3.1c-0.8,1.5-1.3,3.1-1.3,4.7
			c-0.1,1.6,0.5,3.2,1.7,4.8c1.2,1.6,3,2.7,5.3,3.4h0.2l-17.2,5.7l-17.2-5.7h0.4c2.2-0.7,3.9-1.8,5.1-3.4c1.2-1.6,1.8-3.2,1.7-4.8
			c-0.1-1.6-0.5-3.2-1.3-4.7c-0.8-1.5-2.1-2.5-4-3.1s-3.9-0.5-6.2,0l-1.6,0.6V87l23.1,7.6l23.1-7.6V104.8z"/>
		<path class="st3" d="M88,73.1c4.2,0,7.7-1.5,10.6-4.4c2.9-2.9,4.4-6.5,4.4-10.6c0-4.2-1.5-7.7-4.4-10.6C95.7,44.5,92.2,43,88,43
			c-4.2,0-7.7,1.5-10.6,4.4C74.5,50.3,73,53.9,73,58s1.5,7.7,4.4,10.6C80.3,71.6,83.9,73.1,88,73.1z"/>
	</g>
</g>
</svg>
