<?xml version="1.0" encoding="utf-8"?>
<!-- Generator: Adobe Illustrator 21.0.0, SVG Export Plug-In . SVG Version: 6.00 Build 0)  -->
<svg version="1.1" id="Camada_1" xmlns="http://www.w3.org/2000/svg" xmlns:xlink="http://www.w3.org/1999/xlink" x="0px" y="0px"
	 viewBox="0 0 644 320" style="enable-background:new 0 0 644 320;" xml:space="preserve">
<style type="text/css">
	.st0{fill:none;stroke:#FFFFFF;stroke-miterlimit:10;}
	.st1{fill:none;stroke:#FFFFFF;stroke-width:2;stroke-miterlimit:10;}
	.st2{fill:none;}
	.st3{fill:#FFFFFF;}
	.st4{font-family:'MyanmarText';}
	.st5{font-size:16px;}
</style>
<ellipse class="st0" cx="486.5" cy="159" rx="125" ry="125.5"/>
<circle class="st0" cx="486" cy="160" r="147.5"/>
<path class="st1" d="M575,247c5.5,5.4,10.9,10.8,16.3,16.2"/>
<path class="st1" d="M574.8,246.5"/>
<path class="st1" d="M382.8,54.4c5.2,5.4,10.5,10.8,15.7,16.2"/>
<path class="st1" d="M398,248c-5.4,5.4-10.7,10.8-16.1,16.2"/>
<path class="st1" d="M591,56c-4.9,5.2-9.9,10.2-15,15"/>
<rect x="30.3" y="150.3" class="st2" width="158.7" height="115.3"/>
<text transform="matrix(1 0 0 1 30.2793 162.1772)"><tspan x="0" y="0" class="st3 st4 st5">Nome: Roberto</tspan><tspan x="0" y="19.2" class="st3 st4 st5">Matrícula: 567138</tspan><tspan x="0" y="38.4" class="st3 st4 st5">Admissão: 25/05/2002</tspan><tspan x="0" y="57.6" class="st3 st4 st5">Cargo: Docente</tspan><tspan x="0" y="76.8" class="st3 st4 st5">Disciplina: Química</tspan><tspan x="0" y="96" class="st3 st4 st5">Carga horária: 16h</tspan></text>
<g>
	<g>
		<path class="st3" d="M367.8,221.2c0.2,0.5,0.3,0.7,0.6,1.2c-4,2-5.9,3-9.9,5c-0.3-0.5-0.4-0.8-0.6-1.3
			C361.9,224.2,363.9,223.2,367.8,221.2z"/>
		<path class="st3" d="M364.3,213.6c0.2,0.5,0.3,0.7,0.5,1.2c-0.4,0.2-0.6,0.3-1.1,0.5c0,0,0,0,0,0c1,0.2,1.8,0.7,2.2,1.7
			c0.3,0.7,0.4,1.4,0.3,2c-0.2,0.6-0.5,1-1.1,1.3c-1.3,0.6-2.4,0.1-3.4-1.4c-0.5-0.9-0.8-1.3-1.3-2.2c-1.2,0.5-1.5,1.3-1.1,2.3
			c0.4,0.9,1.1,1.6,2,2.1c-0.4,0.2-0.7,0.3-1.1,0.5c-0.8-0.6-1.4-1.3-1.8-2.3c-0.8-1.8-0.3-3.1,1.4-3.8
			C361.6,214.8,362.5,214.4,364.3,213.6z M361.4,216.3c0.4,0.7,0.6,1,1,1.7c0.3,0.5,0.6,0.9,1,1.1c0.3,0.2,0.7,0.2,1.1,0
			c0.3-0.2,0.5-0.4,0.6-0.8c0.1-0.4,0-0.7-0.2-1.2c-0.3-0.6-0.7-1-1.2-1.2c-0.6-0.2-1.1-0.2-1.7,0.1
			C361.8,216.1,361.6,216.2,361.4,216.3z"/>
		<path class="st3" d="M361.1,205.2c0.2,0.5,0.2,0.7,0.4,1.2c-1.6,0.6-2.4,0.9-4,1.4c-1.5,0.5-2,1.4-1.6,2.6
			c0.2,0.6,0.6,1.1,1.2,1.3c0.6,0.2,1.2,0.2,1.8,0c1.6-0.6,2.4-0.9,4-1.5c0.2,0.5,0.3,0.7,0.5,1.2c-2.8,1.1-4.2,1.7-7,2.8
			c-0.2-0.5-0.3-0.8-0.5-1.3c0.5-0.2,0.7-0.3,1.2-0.4c0,0,0,0,0,0c-1.1-0.2-1.9-0.9-2.3-2.1c-0.3-0.9-0.3-1.6,0-2.3
			c0.3-0.6,1-1.1,1.9-1.4C358.5,206.1,359.4,205.8,361.1,205.2z"/>
		<path class="st3" d="M358.5,197.8c0.5,0.5,0.9,1.1,1.1,1.9c0.3,1.1,0.3,2.1-0.2,2.9c-0.5,0.9-1.2,1.5-2.3,1.8
			c-1.2,0.4-2.2,0.3-3.2-0.2c-1-0.5-1.6-1.4-2-2.7c-0.2-0.7-0.3-1.4-0.2-2c0.5-0.1,0.7-0.2,1.2-0.3c-0.2,0.7-0.2,1.4,0,2.1
			c0.2,0.8,0.7,1.4,1.4,1.8c0.7,0.4,1.5,0.4,2.3,0.1c0.8-0.3,1.4-0.7,1.8-1.3c0.3-0.6,0.4-1.3,0.2-2.1c-0.2-0.7-0.6-1.2-1.2-1.7
			C357.8,198,358.1,197.9,358.5,197.8z"/>
		<path class="st3" d="M353.5,190.4c0.5,2.2,0.7,3.4,1.3,5.6c0.8-0.2,1.4-0.6,1.7-1.2c0.3-0.6,0.4-1.2,0.2-2
			c-0.2-0.9-0.7-1.6-1.4-2.2c0.4-0.1,0.7-0.1,1.1-0.2c0.6,0.6,1,1.4,1.3,2.5c0.3,1.1,0.1,2-0.4,2.8c-0.5,0.8-1.3,1.4-2.5,1.7
			c-1.1,0.3-2.1,0.2-3-0.3s-1.5-1.3-1.7-2.4s-0.1-2,0.4-2.7c0.5-0.7,1.3-1.2,2.4-1.4C353.1,190.5,353.3,190.4,353.5,190.4z
			 M352.8,191.9c-0.7,0.2-1.2,0.4-1.5,0.9c-0.3,0.4-0.4,1-0.2,1.6c0.1,0.6,0.5,1.1,1,1.4c0.5,0.3,1.1,0.5,1.7,0.4
			C353.4,194.5,353.2,193.6,352.8,191.9z"/>
		<path class="st3" d="M349.6,184.8c-0.1,0.3-0.1,0.6-0.1,1c0.1,0.6,0.4,1,1,1.3c0.5,0.3,1.2,0.4,2,0.2c1.5-0.3,2.3-0.4,3.8-0.7
			c0.1,0.5,0.1,0.7,0.2,1.2c-2.9,0.6-4.4,0.9-7.4,1.4c-0.1-0.5-0.2-0.8-0.2-1.3c0.6-0.1,0.9-0.2,1.5-0.3c0,0,0,0,0,0
			c-0.6-0.1-1-0.3-1.4-0.6c-0.4-0.3-0.6-0.7-0.7-1.2c-0.1-0.3-0.1-0.6,0-0.8C348.8,184.9,349.1,184.9,349.6,184.8z"/>
		<path class="st3" d="M353.9,174.1c0.7,1.1,1.1,2.2,1.3,3.6c0.2,1.6-0.1,2.9-0.9,4c-0.8,1.1-2,1.8-3.6,2c-1.6,0.3-3-0.1-4.2-1.1
			c-1.2-1-1.9-2.4-2.1-4.2c-0.1-1.3-0.1-2.4,0.2-3.3c0.5,0,0.8-0.1,1.4-0.1c-0.5,1-0.6,2.1-0.5,3.4c0.1,1.3,0.7,2.3,1.6,3.1
			s2,1,3.3,0.8c1.3-0.2,2.3-0.7,2.9-1.6c0.7-0.8,0.9-1.9,0.8-3.1c-0.1-0.9-0.3-1.6-0.7-2.2c-1.2,0.1-1.8,0.2-2.9,0.3
			c0.1,1,0.1,1.5,0.3,2.5c-0.4,0.1-0.7,0.1-1.1,0.1c-0.2-1.5-0.3-2.3-0.4-3.8C351,174.4,352,174.3,353.9,174.1z"/>
		<path class="st3" d="M347.9,167.8c-0.2,0.2-0.2,0.6-0.2,1c0,0.6,0.3,1,0.8,1.4c0.5,0.4,1.2,0.5,2,0.4c1.5-0.1,2.3-0.1,3.8-0.2
			c0,0.5,0,0.8,0.1,1.3c-3,0.2-4.5,0.3-7.5,0.5c0-0.5-0.1-0.8-0.1-1.3c0.6,0,0.9-0.1,1.5-0.1c0,0,0,0,0,0c-0.5-0.2-1-0.4-1.3-0.8
			c-0.3-0.4-0.5-0.8-0.5-1.3c0-0.3,0-0.6,0.1-0.8C347.2,167.8,347.4,167.8,347.9,167.8z"/>
		<path class="st3" d="M354.1,160.6c0,0.5,0,0.8,0,1.3c-0.5,0-0.7,0-1.2,0c0,0,0,0,0,0c0.9,0.6,1.3,1.4,1.4,2.4
			c0,0.8-0.2,1.4-0.6,1.9c-0.4,0.5-0.9,0.7-1.6,0.7c-1.4,0-2.3-0.8-2.5-2.6c-0.1-1-0.2-1.5-0.3-2.4c-1.3,0-1.9,0.6-1.9,1.7
			c0,1,0.3,1.9,1,2.7c-0.5,0-0.7,0-1.2,0c-0.5-0.8-0.7-1.7-0.7-2.8c0-2,0.9-2.9,2.8-2.9C351.2,160.5,352.2,160.6,354.1,160.6z
			 M350.3,161.8c0.1,0.8,0.1,1.2,0.2,1.9c0.1,0.6,0.2,1,0.4,1.3c0.2,0.3,0.6,0.4,1.1,0.4c0.4,0,0.7-0.2,0.9-0.4
			c0.2-0.3,0.3-0.6,0.3-1.1c0-0.6-0.2-1.1-0.6-1.6c-0.4-0.4-0.9-0.6-1.6-0.6C350.8,161.8,350.6,161.8,350.3,161.8z"/>
		<path class="st3" d="M354.6,151.5c0,0.5-0.1,0.8-0.1,1.3c-0.5,0-0.8-0.1-1.3-0.1c0,0,0,0,0,0c0.9,0.7,1.3,1.6,1.3,2.8
			c-0.1,1-0.4,1.8-1.1,2.3c-0.7,0.6-1.6,0.8-2.8,0.8c-1.2,0-2.2-0.4-2.9-1.1c-0.7-0.7-1.1-1.7-1-2.8c0.1-1.1,0.5-1.9,1.4-2.4
			c0,0,0,0,0,0c-1.9-0.1-2.8-0.2-4.6-0.4c0-0.5,0.1-0.8,0.1-1.4C347.9,151,350.1,151.1,354.6,151.5z M351.1,152.5
			c-0.4,0-0.7-0.1-1.1-0.1c-0.6,0-1.1,0.1-1.6,0.5c-0.5,0.4-0.7,1-0.7,1.6c0,0.8,0.2,1.5,0.7,1.9s1.2,0.7,2.2,0.8
			c0.9,0,1.6-0.2,2.1-0.6c0.5-0.4,0.8-1,0.8-1.7c0-0.7-0.2-1.3-0.6-1.8C352.4,152.9,351.8,152.6,351.1,152.5z"/>
		<path class="st3" d="M352.2,142.2c-0.3,2.3-0.5,3.4-0.8,5.7c0.8,0.1,1.5-0.1,2-0.5c0.5-0.4,0.8-1,0.9-1.8c0.1-0.9,0-1.7-0.5-2.6
			c0.4,0.1,0.7,0.1,1.1,0.2c0.4,0.8,0.5,1.7,0.3,2.8c-0.1,1.1-0.6,1.9-1.3,2.5c-0.7,0.6-1.7,0.8-3,0.7c-1.2-0.1-2.1-0.6-2.7-1.4
			c-0.7-0.8-0.9-1.8-0.8-2.8c0.1-1.1,0.6-1.9,1.3-2.4c0.7-0.5,1.6-0.6,2.7-0.5C351.8,142.1,352,142.1,352.2,142.2z M351,143.4
			c-0.7-0.1-1.2,0-1.7,0.3c-0.4,0.3-0.7,0.8-0.8,1.4c-0.1,0.6,0.1,1.2,0.4,1.7c0.4,0.5,0.8,0.8,1.5,1
			C350.7,146,350.8,145.1,351,143.4z"/>
		<path class="st3" d="M347.8,133.2c-0.4,1.8-0.6,2.7-0.9,4.5c1.4,0.3,2.1,0.4,3.6,0.6c0.3-1.6,0.5-2.5,0.8-4.1
			c0.4,0.1,0.6,0.1,1.1,0.2c-0.3,1.6-0.5,2.4-0.8,4.1c1.8,0.3,2.7,0.5,4.6,0.8c-0.1,0.5-0.1,0.8-0.2,1.3c-4.1-0.7-6.2-1.1-10.4-1.8
			c0.4-2.4,0.6-3.6,1.1-5.9C347.2,133,347.4,133.1,347.8,133.2z"/>
		<path class="st3" d="M348.4,130.5c-0.1,0.2-0.2,0.4-0.4,0.6c-0.2,0.1-0.4,0.2-0.6,0.1c-0.2-0.1-0.4-0.2-0.5-0.4
			c-0.1-0.2-0.1-0.4-0.1-0.7c0.1-0.2,0.2-0.4,0.4-0.6c0.2-0.1,0.4-0.2,0.6-0.1c0.2,0.1,0.4,0.2,0.5,0.4
			C348.5,130,348.5,130.2,348.4,130.5z M357.7,132c-0.1,0.5-0.2,0.7-0.3,1.2c-2.9-0.7-4.4-1-7.3-1.7c0.1-0.5,0.2-0.8,0.3-1.3
			C353.4,131,354.8,131.3,357.7,132z"/>
		<path class="st3" d="M360.2,123.2c-0.2,0.5-0.2,0.7-0.4,1.2c-1.6-0.5-2.5-0.7-4.1-1.2c-1.5-0.5-2.5-0.1-2.8,1.2
			c-0.2,0.6-0.1,1.2,0.2,1.8c0.3,0.5,0.8,0.9,1.5,1.1c1.7,0.4,2.5,0.7,4.1,1.1c-0.1,0.5-0.2,0.7-0.3,1.2c-2.9-0.8-4.4-1.1-7.3-1.9
			c0.1-0.5,0.2-0.8,0.3-1.3c0.5,0.1,0.7,0.2,1.2,0.3c0,0,0,0,0,0c-0.7-0.9-1-1.9-0.6-3c0.3-0.9,0.7-1.5,1.4-1.8
			c0.6-0.3,1.5-0.3,2.4,0C357.6,122.4,358.4,122.7,360.2,123.2z"/>
		<path class="st3" d="M362.9,115.6c-0.2,0.5-0.3,0.7-0.5,1.2c-0.4-0.2-0.7-0.2-1.1-0.4c0,0,0,0,0,0c0.6,0.8,0.8,1.8,0.4,2.8
			c-0.3,0.7-0.6,1.3-1.2,1.6c-0.5,0.3-1.1,0.4-1.7,0.1c-1.3-0.4-1.8-1.6-1.4-3.3c0.2-1,0.3-1.5,0.5-2.4c-1.2-0.4-2-0.1-2.4,1
			c-0.3,0.9-0.3,1.9,0,2.9c-0.5-0.2-0.7-0.2-1.2-0.4c-0.2-0.9-0.1-1.9,0.3-2.9c0.7-1.9,1.9-2.5,3.7-1.8
			C360.1,114.5,361,114.9,362.9,115.6z M358.9,115.4c-0.2,0.8-0.3,1.2-0.4,1.9c-0.1,0.6-0.2,1.1-0.1,1.4c0.1,0.4,0.4,0.6,0.8,0.8
			c0.3,0.1,0.7,0.1,1-0.1c0.3-0.2,0.5-0.5,0.7-0.9c0.2-0.6,0.2-1.2-0.1-1.7c-0.2-0.5-0.7-0.9-1.3-1.1
			C359.3,115.6,359.1,115.5,358.9,115.4z"/>
		<path class="st3" d="M364.2,112.1c-0.2,0.5-0.3,0.7-0.5,1.2c-4.1-1.7-6.2-2.5-10.3-4.2c0.2-0.5,0.3-0.8,0.5-1.3
			C358.1,109.6,360.1,110.4,364.2,112.1z"/>
		<path class="st3" d="M368.8,107.7c-0.2,0.4-0.3,0.6-0.5,1c-2.2,0.7-4.5,0.6-6.8-0.4c-2.3-1-4-2.7-4.9-5c0.2-0.5,0.3-0.7,0.5-1.1
			c0.9,2.4,2.5,4.1,4.8,5.1C364.2,108.3,366.5,108.4,368.8,107.7z"/>
		<path class="st3" d="M369.5,106.4c-0.2,0.4-0.3,0.6-0.5,1c-1-2.2-2.5-3.9-4.7-5c-2.2-1.1-4.5-1.3-7-0.5c0.2-0.5,0.3-0.7,0.5-1.1
			c2.4-0.8,4.7-0.6,7,0.6C367.1,102.5,368.6,104.2,369.5,106.4z"/>
	</g>
</g>
<line class="st0" x1="197.5" y1="150.5" x2="317.5" y2="150.5"/>
<g>
	<g>
		<path class="st3" d="M608.9,204.3c-0.1,0.2-0.2,0.4-0.4,0.4c-0.2,0.1-0.4,0.1-0.6,0c-0.2-0.1-0.3-0.2-0.4-0.4
			c-0.1-0.2-0.1-0.4,0-0.6c0.1-0.2,0.2-0.4,0.4-0.5c0.2-0.1,0.4-0.1,0.6,0c0.2,0.1,0.3,0.2,0.4,0.4C609,203.9,609,204.1,608.9,204.3
			z M617.9,207.4c-0.2,0.5-0.3,0.8-0.5,1.3c-2.8-1.2-4.1-1.8-6.9-3c0.2-0.5,0.3-0.7,0.5-1.2C613.7,205.7,615.1,206.2,617.9,207.4z"
			/>
		<path class="st3" d="M621.3,198.1c-0.2,0.5-0.3,0.8-0.4,1.3c-1.6-0.5-2.4-0.8-4.1-1.4c-1.5-0.5-2.5-0.2-2.9,1
			c-0.2,0.6-0.2,1.2,0.1,1.7c0.3,0.6,0.7,1,1.4,1.2c1.6,0.6,2.4,0.9,4,1.5c-0.2,0.5-0.3,0.8-0.5,1.3c-2.8-1.1-4.2-1.6-7-2.7
			c0.2-0.5,0.3-0.7,0.5-1.2c0.5,0.2,0.7,0.3,1.2,0.4c0,0,0,0,0,0c-0.7-0.9-0.8-1.9-0.4-3c0.3-0.8,0.7-1.4,1.4-1.7
			c0.6-0.3,1.4-0.3,2.4,0C618.7,197.2,619.5,197.5,621.3,198.1z"/>
		<path class="st3" d="M613.2,192.3c-0.1,0.2-0.2,0.4-0.4,0.5c-0.2,0.1-0.4,0.1-0.6,0.1c-0.2-0.1-0.4-0.2-0.5-0.4
			c-0.1-0.2-0.1-0.4-0.1-0.6c0.1-0.2,0.2-0.4,0.4-0.5c0.2-0.1,0.4-0.1,0.6-0.1c0.2,0.1,0.4,0.2,0.5,0.4
			C613.3,191.9,613.3,192.1,613.2,192.3z M622.4,194.3c-0.1,0.5-0.2,0.8-0.4,1.3c-2.9-0.9-4.3-1.3-7.2-2.1c0.1-0.5,0.2-0.7,0.4-1.2
			C618.1,193.1,619.5,193.5,622.4,194.3z"/>
		<path class="st3" d="M624.1,185.9c0.2,0.7,0.2,1.5,0,2.4c-0.3,1.2-0.8,2.1-1.7,2.6c-0.9,0.5-1.8,0.7-2.9,0.4
			c-1.2-0.3-2.1-0.9-2.6-1.9c-0.5-0.9-0.7-2-0.4-3.2c0.2-0.7,0.4-1.3,0.7-1.7c0.5,0.1,0.7,0.1,1.2,0.2c-0.5,0.5-0.8,1.1-1,1.7
			c-0.2,0.8-0.1,1.5,0.3,2.2s1,1.1,1.9,1.3c0.9,0.2,1.6,0.1,2.2-0.2c0.6-0.4,1-1,1.2-1.9c0.2-0.7,0.1-1.4-0.2-2.2
			C623.5,185.8,623.7,185.8,624.1,185.9z"/>
		<path class="st3" d="M615.7,181.6c0,0.2-0.1,0.4-0.3,0.5c-0.2,0.1-0.4,0.2-0.6,0.1c-0.2,0-0.4-0.2-0.5-0.3
			c-0.1-0.2-0.2-0.4-0.1-0.6c0-0.2,0.1-0.4,0.3-0.5c0.2-0.1,0.4-0.2,0.6-0.1c0.2,0,0.4,0.1,0.5,0.3
			C615.7,181.2,615.8,181.4,615.7,181.6z M625.1,182.6c-0.1,0.5-0.1,0.8-0.2,1.3c-2.9-0.6-4.4-0.8-7.4-1.4c0.1-0.5,0.1-0.8,0.2-1.3
			C620.7,181.9,622.1,182.1,625.1,182.6z"/>
		<path class="st3" d="M626.3,173.9c-0.1,0.5-0.1,0.8-0.1,1.3c-0.5-0.1-0.7-0.1-1.2-0.1c0,0,0,0,0,0c0.8,0.7,1.2,1.6,1,2.7
			c-0.1,0.8-0.4,1.5-0.9,1.9c-0.5,0.4-1,0.6-1.7,0.5c-1.4-0.2-2-1.2-2-3c0-1,0-1.5,0-2.5c-1.3-0.1-2,0.3-2.1,1.4
			c-0.1,1,0.1,1.9,0.6,2.7c-0.5-0.1-0.7-0.1-1.2-0.2c-0.3-0.8-0.5-1.8-0.3-2.8c0.2-1.8,1.2-2.7,3.1-2.5
			C623.4,173.6,624.4,173.7,626.3,173.9z M622.4,174.8c0,0.8,0,1.2,0,2c0,0.6,0.1,1.1,0.2,1.4c0.2,0.3,0.5,0.5,1,0.6
			c0.4,0.1,0.7,0,1-0.3c0.3-0.3,0.4-0.6,0.5-1.1c0.1-0.7-0.1-1.2-0.4-1.7c-0.4-0.5-0.9-0.7-1.5-0.8
			C622.8,174.9,622.7,174.9,622.4,174.8z"/>
		<path class="st3" d="M620.5,166.7c-0.2,0.2-0.3,0.5-0.3,1c0,0.5,0.2,1,0.6,1.4c0.5,0.4,1.1,0.6,1.9,0.7c1.5,0.1,2.3,0.2,3.8,0.3
			c0,0.5-0.1,0.8-0.1,1.4c-3-0.2-4.5-0.3-7.5-0.6c0-0.5,0.1-0.8,0.1-1.3c0.6,0,0.9,0.1,1.5,0.1c0,0,0,0,0,0
			c-0.5-0.2-0.9-0.5-1.2-0.9c-0.3-0.4-0.4-0.8-0.4-1.3c0-0.3,0.1-0.6,0.1-0.8C619.8,166.7,620,166.7,620.5,166.7z"/>
		<path class="st3" d="M626.3,157.3c0.4,0.9,0.7,1.9,0.7,3.2c0,1.7-0.5,3-1.5,4c-1,1-2.3,1.4-3.8,1.4c-1.7-0.1-3-0.6-4-1.7
			c-1-1.1-1.5-2.4-1.6-4c0-1,0.1-1.9,0.4-2.6c0.5,0,0.8,0,1.3-0.1c-0.4,0.8-0.6,1.7-0.5,2.6c0,1.2,0.4,2.3,1.2,3
			c0.8,0.8,1.9,1.2,3.2,1.2c1.3,0,2.3-0.3,3.1-1.1c0.8-0.8,1.1-1.8,1.1-3.1c0-1.2-0.3-2.2-0.8-3
			C625.6,157.3,625.9,157.3,626.3,157.3z"/>
		<path class="st3" d="M626,148.2c0.1,0.5,0.1,0.8,0.2,1.3c-0.5,0.1-0.7,0.1-1.2,0.1c0,0,0,0,0,0c1,0.5,1.5,1.3,1.6,2.5
			c0.2,2-0.8,3.1-3,3.2c-1.8,0.1-2.7,0.2-4.5,0.3c0-0.5,0-0.8-0.1-1.3c1.7-0.1,2.6-0.2,4.3-0.3c1.6-0.1,2.3-0.8,2.2-2.2
			c-0.1-0.7-0.3-1.2-0.8-1.5c-0.5-0.4-1.1-0.5-1.8-0.4c-1.7,0.2-2.6,0.3-4.3,0.5c-0.1-0.5-0.1-0.8-0.1-1.3
			C621.6,148.8,623.1,148.6,626,148.2z"/>
		<path class="st3" d="M618.8,142.3c-0.1,0.3-0.1,0.6-0.1,1c0.1,0.5,0.4,0.9,0.9,1.2c0.5,0.3,1.2,0.4,2,0.2c1.5-0.2,2.3-0.4,3.8-0.6
			c0.1,0.5,0.1,0.8,0.2,1.3c-3,0.4-4.5,0.6-7.4,1.1c-0.1-0.5-0.1-0.8-0.2-1.3c0.6-0.1,0.9-0.1,1.5-0.2c0,0,0,0,0,0
			c-0.5-0.1-1-0.3-1.4-0.6c-0.4-0.3-0.6-0.7-0.6-1.2c-0.1-0.3-0.1-0.6,0-0.8C618,142.4,618.3,142.4,618.8,142.3z"/>
		<path class="st3" d="M624.5,140.3c-0.5,0.1-0.8,0.1-1.3,0.2c0.3-0.8,0.4-1.7,0.2-2.5c-0.2-1.2-0.7-1.7-1.4-1.5
			c-0.2,0-0.3,0.1-0.5,0.3c-0.1,0.1-0.2,0.3-0.3,0.5c-0.1,0.2-0.1,0.4-0.2,0.6c0,0.2-0.1,0.5-0.1,0.8c-0.1,0.4-0.1,0.7-0.2,1
			c-0.1,0.3-0.2,0.6-0.3,0.8c-0.1,0.2-0.3,0.4-0.5,0.5c-0.2,0.1-0.4,0.2-0.7,0.3c-0.3,0.1-0.7,0-1-0.1c-0.3-0.1-0.6-0.3-0.8-0.5
			c-0.2-0.2-0.4-0.5-0.6-0.9c-0.2-0.3-0.3-0.7-0.4-1.1c-0.1-0.7-0.2-1.3-0.1-1.9c0.5-0.1,0.7-0.2,1.2-0.3c-0.2,0.7-0.2,1.4-0.1,2.1
			c0.1,0.2,0.1,0.4,0.2,0.6c0.1,0.2,0.2,0.3,0.3,0.4c0.1,0.1,0.2,0.2,0.4,0.2c0.1,0,0.3,0.1,0.4,0c0.2,0,0.3-0.1,0.5-0.2
			c0.1-0.1,0.2-0.2,0.3-0.4s0.1-0.4,0.2-0.6c0-0.2,0.1-0.5,0.1-0.8c0-0.4,0.1-0.7,0.2-1c0.1-0.3,0.2-0.6,0.3-0.8
			c0.1-0.2,0.3-0.4,0.5-0.6c0.2-0.2,0.4-0.3,0.7-0.3c0.4-0.1,0.7-0.1,1,0c0.3,0.1,0.6,0.3,0.8,0.6c0.2,0.3,0.5,0.6,0.6,1
			c0.2,0.4,0.3,0.8,0.4,1.2C624.7,138.8,624.7,139.6,624.5,140.3z"/>
		<path class="st3" d="M622.3,129.2c0.4,1.2,0.3,2.3-0.2,3.2c-0.5,0.9-1.3,1.5-2.4,1.8c-1.2,0.3-2.3,0.2-3.1-0.3
			c-0.9-0.5-1.5-1.4-1.8-2.6c-0.3-1.1-0.3-2.1,0.2-3c0.4-0.9,1.2-1.5,2.4-1.9c1.1-0.4,2.2-0.3,3.1,0.2
			C621.3,127.1,621.9,127.9,622.3,129.2z M615.7,131c0.2,0.8,0.7,1.4,1.3,1.7c0.6,0.3,1.4,0.4,2.3,0.1c0.9-0.2,1.5-0.7,1.8-1.3
			c0.4-0.6,0.4-1.4,0.2-2.2c-0.2-0.8-0.7-1.4-1.3-1.7c-0.6-0.3-1.4-0.3-2.3,0c-0.9,0.3-1.5,0.7-1.9,1.3
			C615.5,129.5,615.5,130.2,615.7,131z"/>
		<path class="st3" d="M621.1,118.9c0.2,0.5,0.3,0.7,0.4,1.2c-1,2.3-2.7,3.8-5.1,4.6c-2.4,0.8-4.7,0.8-6.9-0.1
			c-0.2-0.4-0.2-0.6-0.4-1.1c2.3,0.8,4.6,0.9,6.9,0C618.3,122.7,620,121.2,621.1,118.9z"/>
		<path class="st3" d="M620.5,117.3c0.2,0.5,0.3,0.7,0.5,1.2c-2.4-1-4.7-0.9-6.9,0c-2.3,1-3.9,2.6-5.1,4.7c-0.2-0.4-0.3-0.6-0.4-1.1
			c1.1-2.1,2.7-3.8,5-4.8C615.9,116.4,618.2,116.3,620.5,117.3z"/>
	</g>
</g>
<g>
	<g>
		<path class="st3" d="M411.1,280.5c-0.5-0.3-0.7-0.4-1.2-0.6c0.2-0.4,0.3-0.6,0.5-1c0,0,0,0,0,0c-0.9,0.5-1.9,0.5-3-0.1
			c-0.8-0.4-1.2-0.9-1.5-1.5c-0.2-0.6-0.2-1.2,0.1-1.7c0.7-1.2,1.9-1.5,3.6-0.8c0.9,0.4,1.4,0.6,2.4,0.9c0.6-1.1,0.4-2-0.6-2.5
			c-0.9-0.5-1.8-0.6-2.8-0.5c0.2-0.4,0.4-0.6,0.6-1.1c0.9,0,1.9,0.2,2.8,0.7c1.7,0.9,2.1,2.2,1.3,3.8
			C412.5,277.9,412,278.8,411.1,280.5z M411.7,276.6c-0.8-0.3-1.1-0.4-1.9-0.7c-0.6-0.2-1.1-0.3-1.4-0.3c-0.4,0-0.7,0.2-0.9,0.7
			c-0.2,0.3-0.2,0.7,0,1c0.1,0.3,0.4,0.6,0.9,0.9c0.6,0.3,1.2,0.4,1.8,0.2c0.6-0.2,1-0.5,1.3-1.1
			C411.5,276.9,411.5,276.8,411.7,276.6z"/>
		<path class="st3" d="M417,283.4c-0.4,0-0.8-0.1-1.3-0.3c-1.4-0.6-1.7-1.6-1-3c0.8-1.6,1.2-2.4,2-4c-0.5-0.2-0.8-0.4-1.3-0.6
			c0.2-0.4,0.3-0.5,0.5-0.9c0.5,0.3,0.8,0.4,1.3,0.6c0.3-0.7,0.5-1,0.8-1.6c0.5,0.1,0.8,0.1,1.3,0.2c-0.4,0.8-0.6,1.2-1,2
			c0.7,0.4,1.1,0.5,1.9,0.9c-0.2,0.4-0.3,0.6-0.4,0.9c-0.7-0.3-1.1-0.5-1.9-0.9c-0.7,1.5-1.1,2.3-1.8,3.8c-0.2,0.5-0.3,0.8-0.2,1.1
			c0.1,0.3,0.3,0.5,0.7,0.7c0.3,0.1,0.6,0.2,0.9,0.2C417.3,282.8,417.2,283,417,283.4z"/>
		<path class="st3" d="M425,286.9c-0.5-0.2-0.8-0.3-1.3-0.5c0.2-0.4,0.3-0.7,0.5-1.1c0,0,0,0,0,0c-0.9,0.6-1.8,0.7-2.9,0.2
			c-1.9-0.8-2.3-2.2-1.5-4.1c0.7-1.6,1.1-2.4,1.9-4.1c0.5,0.2,0.7,0.3,1.2,0.5c-0.7,1.6-1,2.4-1.7,3.9c-0.6,1.4-0.3,2.5,0.9,3
			c0.6,0.3,1.2,0.3,1.8,0c0.6-0.2,1-0.7,1.2-1.3c0.7-1.6,1-2.4,1.6-4c0.5,0.2,0.7,0.3,1.2,0.5C426.6,282.7,426.1,284.1,425,286.9z"
			/>
		<path class="st3" d="M433.2,290c-0.5-0.2-0.8-0.3-1.3-0.4c0.2-0.4,0.2-0.7,0.4-1.1c0,0,0,0,0,0c-0.8,0.7-1.8,0.8-2.9,0.4
			c-0.8-0.3-1.3-0.7-1.6-1.3c-0.3-0.5-0.3-1.1-0.1-1.7c0.5-1.3,1.6-1.7,3.4-1.3c1,0.2,1.5,0.3,2.4,0.5c0.4-1.2,0.1-2-0.9-2.4
			c-0.9-0.3-1.8-0.4-2.8-0.1c0.2-0.5,0.3-0.7,0.4-1.1c0.9-0.2,1.8-0.1,2.8,0.3c1.8,0.6,2.4,1.8,1.8,3.6
			C434.1,287.2,433.8,288.1,433.2,290z M433.2,285.9c-0.8-0.2-1.2-0.3-2-0.4c-0.6-0.1-1.1-0.2-1.4-0.1c-0.4,0.1-0.6,0.3-0.8,0.8
			c-0.1,0.3-0.1,0.7,0.1,1c0.2,0.3,0.5,0.6,1,0.7c0.6,0.2,1.2,0.2,1.8,0c0.5-0.2,0.9-0.7,1.1-1.3C433,286.4,433.1,286.2,433.2,285.9
			z"/>
		<path class="st3" d="M436.9,291.2c-0.5-0.2-0.8-0.2-1.3-0.4c1.4-4.2,2.1-6.3,3.4-10.6c0.5,0.2,0.7,0.2,1.2,0.4
			C438.9,284.8,438.2,286.9,436.9,291.2z"/>
		<path class="st3" d="M442.8,283.1c-0.2-0.1-0.4-0.2-0.5-0.4s-0.1-0.4-0.1-0.6c0.1-0.2,0.2-0.4,0.4-0.5c0.2-0.1,0.4-0.1,0.6-0.1
			c0.2,0.1,0.4,0.2,0.5,0.4c0.1,0.2,0.1,0.4,0.1,0.6c-0.1,0.2-0.2,0.4-0.4,0.5C443.2,283.2,443,283.2,442.8,283.1z M440.8,292.4
			c-0.5-0.1-0.8-0.2-1.3-0.4c0.9-2.9,1.3-4.3,2.1-7.2c0.5,0.1,0.7,0.2,1.2,0.4C442,288,441.6,289.5,440.8,292.4z"/>
		<path class="st3" d="M450.7,287.5c-2.4,2-3.6,2.9-6.2,4.8c1.9,0.5,2.8,0.7,4.7,1.2c-0.1,0.4-0.1,0.6-0.2,1c-2.7-0.6-4-1-6.7-1.7
			c0-0.1,0.1-0.2,0.1-0.4c2.6-1.8,3.8-2.8,6.2-4.7c-1.7-0.4-2.5-0.6-4.2-1.1c0.1-0.4,0.2-0.6,0.3-1c2.4,0.7,3.6,1,6,1.5
			C450.8,287.3,450.7,287.4,450.7,287.5z"/>
		<path class="st3" d="M456.7,296.1c-0.5-0.1-0.8-0.1-1.3-0.2c0.1-0.5,0.1-0.7,0.2-1.2c0,0,0,0,0,0c-0.7,0.8-1.7,1.1-2.8,0.8
			c-0.8-0.2-1.4-0.5-1.8-1c-0.4-0.5-0.5-1.1-0.3-1.7c0.3-1.4,1.4-2,3.2-1.8c1,0.1,1.5,0.1,2.5,0.2c0.2-1.3-0.2-2-1.3-2.2
			c-0.9-0.2-1.9-0.1-2.8,0.4c0.1-0.5,0.2-0.7,0.3-1.2c0.9-0.3,1.8-0.3,2.8-0.1c1.8,0.4,2.6,1.4,2.3,3.3
			C457.2,293.2,457,294.2,456.7,296.1z M456.1,292.1c-0.8,0-1.2-0.1-2-0.1c-0.6,0-1.1,0-1.4,0.1c-0.3,0.1-0.6,0.4-0.7,0.9
			c-0.1,0.4,0,0.7,0.2,1c0.2,0.3,0.6,0.5,1.1,0.6c0.6,0.1,1.2,0,1.7-0.3c0.5-0.3,0.8-0.8,0.9-1.4C456,292.5,456,292.4,456.1,292.1z"
			/>
		<path class="st3" d="M464.3,290.9c-0.2-0.2-0.5-0.3-0.9-0.4c-0.5-0.1-1,0.1-1.5,0.5c-0.4,0.4-0.7,1-0.9,1.9
			c-0.2,1.5-0.4,2.3-0.6,3.8c-0.5-0.1-0.8-0.1-1.3-0.2c0.5-3,0.7-4.4,1.2-7.4c0.5,0.1,0.8,0.1,1.3,0.2c-0.1,0.6-0.1,0.9-0.2,1.5
			c0,0,0,0,0,0c0.3-0.5,0.6-0.9,1-1.1c0.4-0.2,0.8-0.3,1.3-0.3c0.3,0,0.6,0.1,0.7,0.2C464.4,290.2,464.4,290.4,464.3,290.9z"/>
		<path class="st3" d="M473,297.8c-0.9,0.3-2,0.5-3.3,0.3c-1.7-0.2-2.9-0.8-3.8-1.9c-0.9-1.1-1.2-2.4-1-3.9c0.2-1.7,0.9-2.9,2.1-3.8
			c1.2-0.9,2.6-1.3,4.2-1.1c1,0.1,1.9,0.3,2.5,0.7c0,0.5-0.1,0.8-0.1,1.3c-0.8-0.5-1.6-0.8-2.5-0.9c-1.3-0.1-2.3,0.2-3.2,0.9
			s-1.4,1.7-1.6,3.1c-0.2,1.3,0.1,2.3,0.8,3.2c0.7,0.8,1.6,1.3,2.9,1.5c1.2,0.1,2.2,0,3.1-0.4C473.1,297,473,297.3,473,297.8z"/>
		<path class="st3" d="M481.1,298.6c-0.5,0-0.8,0-1.3,0c0-0.5,0-0.7,0-1.2c0,0,0,0,0,0c-0.6,0.9-1.5,1.3-2.6,1.2
			c-0.8,0-1.5-0.3-1.9-0.7c-0.4-0.4-0.6-1-0.6-1.6c0.1-1.4,1-2.1,2.8-2.3c1-0.1,1.5-0.1,2.4-0.2c0-1.3-0.5-1.9-1.6-2
			c-1,0-1.8,0.2-2.7,0.8c0-0.5,0-0.7,0.1-1.2c0.8-0.4,1.7-0.6,2.7-0.6c1.9,0.1,2.8,1,2.7,2.9C481.2,295.7,481.2,296.7,481.1,298.6z
			 M479.9,294.8c-0.8,0.1-1.2,0.1-2,0.2c-0.6,0-1.1,0.2-1.4,0.3c-0.3,0.2-0.5,0.5-0.5,1c0,0.4,0.1,0.7,0.4,0.9
			c0.3,0.2,0.7,0.4,1.1,0.4c0.7,0,1.2-0.2,1.7-0.5c0.4-0.4,0.7-0.9,0.7-1.6C479.9,295.3,479.9,295.1,479.9,294.8z"/>
		<path class="st3" d="M487.9,292.4c-0.2-0.2-0.5-0.2-1-0.2c-0.5,0-1,0.2-1.4,0.7c-0.4,0.5-0.6,1.1-0.6,2c0,1.5,0,2.3,0,3.8
			c-0.5,0-0.8,0-1.3,0c0-3,0.1-4.5,0.1-7.5c0.5,0,0.8,0,1.3,0c0,0.6,0,0.9,0,1.5c0,0,0,0,0,0c0.2-0.5,0.5-0.9,0.8-1.2
			s0.8-0.4,1.2-0.4c0.3,0,0.6,0,0.8,0.1C487.9,291.7,487.9,291.9,487.9,292.4z"/>
		<path class="st3" d="M496.5,297.8c0.2,2.7-1.2,4.2-4.2,4.4c-1.1,0-2-0.1-2.8-0.4c0-0.5,0-0.7,0-1.2c1,0.4,1.9,0.7,2.7,0.6
			c2.1-0.1,3.1-1.1,3-3.1c0-0.3,0-0.5,0-0.8c0,0,0,0,0,0c-0.6,1-1.5,1.5-2.8,1.6c-1,0-1.9-0.3-2.5-0.9c-0.6-0.7-1-1.5-1-2.7
			c0-1.3,0.3-2.3,0.9-3.1s1.5-1.2,2.6-1.2c1.1,0,1.9,0.3,2.4,1.1c0,0,0,0,0,0c0-0.4,0-0.6-0.1-1c0.5,0,0.8,0,1.3-0.1
			C496.2,293.6,496.3,295,496.5,297.8z M495,295.1c0-0.4,0-0.7-0.1-1.1c0-0.6-0.3-1.1-0.7-1.5c-0.5-0.4-1-0.6-1.6-0.6
			c-0.8,0-1.4,0.3-1.8,0.9c-0.4,0.6-0.6,1.3-0.6,2.3c0,0.8,0.3,1.5,0.7,2c0.5,0.5,1.1,0.7,1.8,0.7c0.7,0,1.3-0.3,1.8-0.8
			S495.1,295.8,495,295.1z"/>
		<path class="st3" d="M505.2,297.6c-0.5,0.1-0.8,0.1-1.3,0.2c-0.1-0.5-0.1-0.7-0.1-1.2c0,0,0,0,0,0c-0.5,1-1.3,1.5-2.4,1.6
			c-0.8,0.1-1.5-0.1-2-0.4c-0.5-0.4-0.8-0.9-0.8-1.5c-0.1-1.4,0.7-2.3,2.5-2.7c1-0.2,1.4-0.3,2.4-0.6c-0.1-1.3-0.8-1.8-1.8-1.7
			c-1,0.1-1.8,0.5-2.5,1.2c0-0.5-0.1-0.7-0.1-1.2c0.7-0.5,1.6-0.8,2.6-0.9c1.9-0.2,2.9,0.6,3.1,2.5
			C504.8,294.7,504.9,295.6,505.2,297.6z M503.4,294c-0.8,0.2-1.2,0.3-1.9,0.5c-0.6,0.1-1,0.3-1.3,0.5c-0.3,0.2-0.4,0.6-0.4,1.1
			c0,0.4,0.2,0.7,0.5,0.9c0.3,0.2,0.7,0.3,1.2,0.2c0.7-0.1,1.2-0.3,1.6-0.8c0.4-0.5,0.5-1,0.5-1.6
			C503.5,294.4,503.5,294.3,503.4,294z"/>
		<path class="st3" d="M516.5,295.8c-0.5,0.1-0.8,0.2-1.3,0.3c-0.3-1.9-0.5-2.8-0.9-4.7c-2.3,0.4-3.5,0.6-5.8,0.9
			c0.3,1.9,0.4,2.8,0.7,4.7c-0.5,0.1-0.8,0.1-1.4,0.2c-0.6-4.2-0.8-6.2-1.4-10.4c0.5-0.1,0.8-0.1,1.3-0.2c0.3,1.8,0.4,2.7,0.7,4.6
			c2.3-0.3,3.5-0.5,5.8-0.9c-0.3-1.8-0.5-2.7-0.8-4.5c0.5-0.1,0.8-0.1,1.3-0.2C515.3,289.6,515.7,291.7,516.5,295.8z"/>
		<path class="st3" d="M522.8,294.7c-1.2,0.3-2.3,0.1-3.1-0.4c-0.9-0.5-1.4-1.4-1.6-2.5c-0.3-1.2-0.1-2.3,0.5-3.1s1.5-1.4,2.7-1.7
			c1.2-0.3,2.1-0.2,3,0.3c0.8,0.5,1.4,1.3,1.7,2.5c0.3,1.2,0.2,2.2-0.4,3.1C525,293.8,524.1,294.4,522.8,294.7z M521.4,288
			c-0.8,0.2-1.4,0.6-1.7,1.2c-0.4,0.6-0.4,1.4-0.3,2.3c0.2,0.9,0.6,1.5,1.2,1.9c0.6,0.4,1.3,0.5,2.1,0.3c0.8-0.2,1.4-0.6,1.8-1.2
			c0.3-0.6,0.4-1.3,0.2-2.2c-0.2-0.9-0.6-1.6-1.2-1.9C522.9,287.9,522.2,287.8,521.4,288z"/>
		<path class="st3" d="M531.3,285.7c-0.3-0.1-0.6-0.1-1,0c-0.5,0.2-0.9,0.5-1.1,1.1c-0.2,0.6-0.2,1.3,0,2.1c0.4,1.5,0.6,2.2,1,3.7
			c-0.5,0.1-0.8,0.2-1.3,0.4c-0.8-2.9-1.2-4.3-2-7.2c0.5-0.1,0.7-0.2,1.2-0.3c0.2,0.6,0.3,0.9,0.4,1.5c0,0,0,0,0,0
			c0-0.6,0.2-1,0.5-1.4s0.6-0.6,1.1-0.8c0.3-0.1,0.6-0.1,0.8-0.1C531.1,285,531.2,285.2,531.3,285.7z"/>
		<path class="st3" d="M540.3,289.4c-0.5,0.2-0.8,0.3-1.3,0.4c-0.2-0.4-0.2-0.7-0.4-1.1c0,0,0,0,0,0c-0.3,1-0.9,1.7-2,2.1
			c-0.8,0.3-1.5,0.3-2.1,0c-0.6-0.2-0.9-0.7-1.1-1.3c-0.4-1.3,0.2-2.4,1.9-3.2c0.9-0.4,1.3-0.6,2.2-1.1c-0.4-1.2-1.1-1.6-2.2-1.3
			c-0.9,0.3-1.7,0.9-2.2,1.7c-0.1-0.5-0.2-0.7-0.4-1.2c0.6-0.7,1.4-1.2,2.4-1.5c1.8-0.6,3,0,3.6,1.7
			C539.3,286.6,539.6,287.5,540.3,289.4z M537.7,286.2c-0.7,0.4-1.1,0.5-1.8,0.9c-0.6,0.3-1,0.5-1.2,0.8c-0.2,0.3-0.3,0.7-0.1,1.1
			c0.1,0.3,0.3,0.6,0.7,0.7c0.3,0.1,0.8,0.1,1.2,0c0.6-0.2,1.1-0.6,1.4-1.1c0.3-0.5,0.3-1.1,0.1-1.7
			C537.9,286.7,537.8,286.5,537.7,286.2z"/>
		<path class="st3" d="M544.4,281.1c-0.3-0.1-0.6,0-1,0.1c-0.5,0.2-0.9,0.6-1,1.2c-0.2,0.6-0.1,1.3,0.2,2c0.5,1.4,0.8,2.1,1.4,3.6
			c-0.5,0.2-0.8,0.3-1.3,0.5c-1-2.8-1.6-4.2-2.6-7c0.5-0.2,0.7-0.3,1.2-0.5c0.2,0.6,0.3,0.9,0.6,1.4c0,0,0,0,0,0
			c0-0.6,0.1-1,0.3-1.5c0.2-0.4,0.6-0.7,1-0.9c0.3-0.1,0.6-0.2,0.8-0.2C544.1,280.4,544.2,280.6,544.4,281.1z"/>
		<path class="st3" d="M545.1,277.4c-0.2,0.1-0.4,0.1-0.6,0c-0.2-0.1-0.3-0.2-0.4-0.4c-0.1-0.2-0.1-0.4,0-0.6
			c0.1-0.2,0.2-0.3,0.5-0.4c0.2-0.1,0.4-0.1,0.6,0c0.2,0.1,0.4,0.2,0.4,0.4c0.1,0.2,0.1,0.4,0,0.6
			C545.5,277.2,545.4,277.3,545.1,277.4z M549.4,285.8c-0.5,0.2-0.8,0.3-1.3,0.5c-1.1-2.8-1.7-4.2-2.9-6.9c0.5-0.2,0.7-0.3,1.2-0.5
			C547.6,281.7,548.2,283.1,549.4,285.8z"/>
		<path class="st3" d="M557.4,282.2c-0.5,0.2-0.7,0.4-1.2,0.6c-0.2-0.4-0.3-0.6-0.5-1.1c0,0,0,0,0,0c-0.1,1.1-0.7,1.8-1.8,2.3
			c-0.8,0.4-1.5,0.4-2.1,0.3c-0.6-0.2-1-0.6-1.3-1.2c-0.6-1.3-0.1-2.4,1.5-3.4c0.9-0.5,1.3-0.8,2.1-1.3c-0.5-1.1-1.3-1.5-2.3-1
			c-0.9,0.4-1.6,1.1-2.1,1.9c-0.2-0.4-0.3-0.7-0.5-1.1c0.5-0.8,1.3-1.3,2.2-1.8c1.7-0.8,3-0.4,3.8,1.3
			C556.2,279.5,556.6,280.4,557.4,282.2z M554.6,279.3c-0.7,0.4-1,0.7-1.7,1.1c-0.5,0.3-0.9,0.6-1.1,1c-0.2,0.3-0.2,0.7,0,1.2
			c0.1,0.3,0.4,0.5,0.8,0.6c0.4,0.1,0.8,0,1.2-0.2c0.6-0.3,1-0.7,1.2-1.3c0.2-0.6,0.2-1.1-0.1-1.7
			C554.8,279.7,554.7,279.6,554.6,279.3z"/>
		<path class="st3" d="M564.1,281.5c-0.4,0.2-0.7,0.4-1.1,0.6c-2.4-0.7-4.1-2.2-5.2-4.5c-1.1-2.3-1.4-4.6-0.8-6.9
			c0.4-0.2,0.6-0.3,1-0.5c-0.6,2.4-0.3,4.7,0.8,6.9C559.9,279.2,561.7,280.7,564.1,281.5z"/>
		<path class="st3" d="M565.5,280.7c-0.4,0.2-0.7,0.4-1.1,0.6c0.7-2.4,0.4-4.7-0.8-6.9c-1.2-2.2-3-3.6-5.3-4.5
			c0.4-0.2,0.6-0.3,1-0.6c2.3,0.8,4.1,2.2,5.4,4.4C565.9,276,566.2,278.3,565.5,280.7z"/>
	</g>
</g>
<g>
	<g>
		<path class="st3" d="M412.7,49.1c-0.4,0.3-0.7,0.4-1.1,0.7c-0.3-0.4-0.4-0.6-0.7-1c0,0,0,0,0,0c0,1.1-0.4,1.9-1.4,2.6
			c-0.7,0.5-1.3,0.7-2,0.7c-0.6,0-1.1-0.3-1.5-0.9c-0.8-1.1-0.5-2.4,0.9-3.6c0.8-0.7,1.2-1,2-1.7c-0.7-1.1-1.6-1.3-2.6-0.6
			c-0.9,0.6-1.5,1.4-1.8,2.4c-0.3-0.4-0.4-0.6-0.7-1c0.4-0.9,1.1-1.7,2.1-2.3c1.7-1.2,3.1-1,4.1,0.6
			C411.1,46.7,411.7,47.5,412.7,49.1z M409.5,46.7c-0.6,0.5-1,0.8-1.6,1.4c-0.5,0.4-0.8,0.8-1,1.2c-0.2,0.3-0.1,0.7,0.2,1.1
			c0.2,0.3,0.5,0.5,0.9,0.5c0.4,0,0.8-0.1,1.2-0.4c0.6-0.4,0.9-0.9,1-1.5c0.1-0.6,0-1.2-0.3-1.7C409.7,47.1,409.7,47,409.5,46.7z"/>
		<path class="st3" d="M419.5,44.6c-0.4,0.6-1,1.1-1.7,1.6c-1,0.6-2,0.8-3,0.6c-1-0.2-1.8-0.8-2.4-1.7c-0.7-1-0.8-2.1-0.5-3.2
			c0.3-1.1,1.1-2,2.3-2.7c0.7-0.4,1.3-0.6,1.9-0.7c0.2,0.4,0.4,0.6,0.6,1.1c-0.8,0-1.5,0.2-2.1,0.5c-0.8,0.5-1.3,1.1-1.5,1.8
			c-0.2,0.8-0.1,1.5,0.4,2.3c0.5,0.7,1,1.2,1.8,1.4c0.7,0.2,1.4,0,2.2-0.4c0.6-0.4,1.1-0.9,1.5-1.6C419.2,44,419.3,44.2,419.5,44.6z
			"/>
		<path class="st3" d="M425.8,37.7c-2.1,1-3.2,1.6-5.3,2.7c0.4,0.7,0.9,1.2,1.6,1.3c0.6,0.2,1.3,0.1,2.1-0.3
			c0.8-0.4,1.5-1.1,1.9-1.9c0.2,0.4,0.3,0.6,0.5,1c-0.4,0.8-1.2,1.4-2.2,1.9c-1,0.5-2,0.7-2.9,0.4c-0.9-0.3-1.7-0.9-2.3-2
			c-0.6-1-0.7-2-0.4-3c0.3-1,1-1.8,2-2.3c1-0.5,1.9-0.6,2.8-0.3c0.8,0.3,1.5,1,2,2C425.7,37.4,425.7,37.5,425.8,37.7z M424.2,37.4
			c-0.3-0.6-0.7-1-1.2-1.2c-0.5-0.2-1.1-0.1-1.7,0.2c-0.6,0.3-1,0.7-1.2,1.3c-0.2,0.6-0.2,1.2,0,1.8
			C421.7,38.7,422.5,38.3,424.2,37.4z"/>
		<path class="st3" d="M425.8,31.2c-0.2,0.1-0.5,0.1-0.7,0.1c-0.2-0.1-0.4-0.2-0.5-0.4c-0.1-0.2-0.1-0.4,0-0.6
			c0.1-0.2,0.3-0.4,0.5-0.5c0.2-0.1,0.5-0.1,0.7-0.1c0.2,0.1,0.4,0.2,0.5,0.4c0.1,0.2,0.1,0.4,0,0.6
			C426.2,30.9,426.1,31.1,425.8,31.2z M430.4,39.4c-0.5,0.2-0.7,0.3-1.2,0.6c-1.3-2.7-1.9-4.1-3.2-6.8c0.5-0.2,0.8-0.4,1.3-0.6
			C428.5,35.3,429.1,36.7,430.4,39.4z"/>
		<path class="st3" d="M436.3,36.8c-0.2,0.3-0.6,0.5-1,0.7c-1.3,0.5-2.3,0.2-2.8-1.2c-0.7-1.6-1-2.4-1.7-4.1
			c-0.5,0.2-0.8,0.4-1.4,0.6c-0.2-0.4-0.2-0.6-0.4-0.9c0.5-0.2,0.8-0.4,1.4-0.6c-0.3-0.7-0.4-1-0.7-1.7c0.5-0.4,0.7-0.5,1.1-0.9
			c0.3,0.8,0.5,1.2,0.9,2c0.8-0.3,1.2-0.5,2-0.8c0.2,0.4,0.2,0.6,0.4,1c-0.8,0.3-1.2,0.5-2,0.8c0.7,1.6,1,2.3,1.6,3.9
			c0.2,0.5,0.4,0.8,0.7,0.9c0.3,0.1,0.6,0.1,1-0.1c0.3-0.1,0.5-0.3,0.7-0.6C436,36.3,436.1,36.4,436.3,36.8z"/>
		<path class="st3" d="M443.4,34.3c-0.5,0.2-0.7,0.2-1.2,0.4c-0.2-0.4-0.2-0.7-0.4-1.1c0,0,0,0,0,0c-0.2,1-0.9,1.7-1.9,2.1
			c-0.8,0.3-1.4,0.3-2,0.1c-0.6-0.2-1-0.6-1.2-1.2c-0.5-1.3,0.1-2.4,1.7-3.3c0.9-0.5,1.4-0.7,2.3-1.1c-0.4-1.2-1.2-1.6-2.3-1.2
			c-1,0.3-1.7,1-2.3,1.8c-0.2-0.5-0.3-0.7-0.4-1.1c0.6-0.7,1.5-1.3,2.5-1.7c1.9-0.7,3.2-0.1,3.8,1.7
			C442.5,31.5,442.8,32.4,443.4,34.3z M440.9,31.1c-0.7,0.4-1.1,0.5-1.8,0.9c-0.6,0.3-0.9,0.6-1.2,0.9c-0.2,0.3-0.2,0.7-0.1,1.1
			c0.1,0.3,0.4,0.6,0.7,0.7c0.3,0.1,0.7,0.1,1.2-0.1c0.6-0.2,1-0.6,1.3-1.1c0.3-0.5,0.3-1.1,0.1-1.7C441.1,31.5,441,31.4,440.9,31.1
			z"/>
		<path class="st3" d="M448.1,26.3c-0.3-0.1-0.6-0.1-1.1,0c-0.6,0.2-1,0.5-1.2,1.1c-0.2,0.6-0.2,1.3,0,2.1c0.4,1.5,0.7,2.2,1.1,3.7
			c-0.5,0.2-0.7,0.2-1.2,0.4c-0.9-2.9-1.4-4.3-2.3-7.2c0.5-0.2,0.8-0.2,1.3-0.4c0.2,0.6,0.3,0.9,0.4,1.5c0,0,0,0,0,0
			c0-0.6,0.2-1,0.5-1.4c0.3-0.4,0.7-0.7,1.2-0.8c0.3-0.1,0.6-0.1,0.8-0.1C447.9,25.5,448,25.8,448.1,26.3z"/>
		<path class="st3" d="M458.7,29.7c-0.7,0.6-1.7,1-2.9,1.3c-1.6,0.4-2.9,0.2-4.1-0.5c-1.2-0.7-2-1.8-2.4-3.3
			c-0.4-1.6-0.3-3.1,0.6-4.4c0.9-1.3,2.2-2.2,4-2.6c1.1-0.3,2.1-0.3,2.9-0.2c0.1,0.5,0.2,0.8,0.3,1.3c-0.9-0.2-1.9-0.2-2.9,0
			c-1.4,0.3-2.4,1-3,2c-0.6,1-0.8,2.1-0.4,3.4c0.3,1.2,1,2.1,1.9,2.7c0.9,0.5,2,0.7,3.2,0.4c1.1-0.3,2-0.7,2.8-1.3
			C458.6,29,458.6,29.2,458.7,29.7z"/>
		<path class="st3" d="M467.3,28.6c-0.5,0.1-0.8,0.1-1.3,0.2c-0.1-0.5-0.1-0.7-0.2-1.2c0,0,0,0,0,0c-0.4,1-1.1,1.6-2.3,1.7
			c-1.9,0.3-3-0.5-3.4-2.6c-0.3-1.8-0.5-2.6-0.8-4.4c0.5-0.1,0.8-0.2,1.3-0.2c0.3,1.7,0.5,2.5,0.8,4.2c0.3,1.6,1.1,2.2,2.4,2
			c0.6-0.1,1.1-0.4,1.4-0.9c0.3-0.5,0.5-1.1,0.4-1.8c-0.3-1.7-0.4-2.6-0.6-4.3c0.5-0.1,0.8-0.1,1.3-0.2
			C466.7,24.2,466.9,25.7,467.3,28.6z"/>
		<path class="st3" d="M473.5,21.6c-0.2-0.1-0.6-0.2-1-0.1c-0.6,0.1-1,0.3-1.4,0.9c-0.3,0.5-0.4,1.2-0.4,2c0.2,1.5,0.3,2.3,0.4,3.8
			c-0.5,0.1-0.8,0.1-1.3,0.1c-0.4-3-0.5-4.5-0.9-7.4c0.5-0.1,0.8-0.1,1.4-0.2c0.1,0.6,0.1,0.9,0.2,1.5c0,0,0,0,0,0
			c0.1-0.5,0.4-1,0.7-1.3c0.4-0.3,0.8-0.5,1.3-0.6c0.4,0,0.6,0,0.8,0C473.5,20.9,473.5,21.1,473.5,21.6z"/>
		<path class="st3" d="M475,27.5c0-0.5-0.1-0.8-0.1-1.3c0.7,0.4,1.5,0.6,2.4,0.6c1.1-0.1,1.7-0.5,1.6-1.2c0-0.2-0.1-0.4-0.2-0.5
			c-0.1-0.1-0.2-0.2-0.4-0.3c-0.2-0.1-0.4-0.2-0.6-0.3c-0.2-0.1-0.5-0.1-0.8-0.2c-0.4-0.1-0.7-0.2-1-0.3c-0.3-0.1-0.5-0.2-0.7-0.4
			c-0.2-0.2-0.4-0.3-0.5-0.5s-0.2-0.5-0.2-0.7c0-0.4,0-0.7,0.2-1c0.2-0.3,0.4-0.5,0.7-0.7c0.3-0.2,0.6-0.4,1-0.5
			c0.4-0.1,0.8-0.2,1.2-0.2c0.7,0,1.4,0,2,0.2c0,0.5,0,0.7,0.1,1.2c-0.6-0.3-1.4-0.5-2.2-0.4c-0.3,0-0.5,0.1-0.7,0.1
			c-0.2,0.1-0.4,0.1-0.5,0.3c-0.1,0.1-0.2,0.2-0.3,0.4c-0.1,0.1-0.1,0.3-0.1,0.4c0,0.2,0.1,0.4,0.2,0.5c0.1,0.1,0.2,0.2,0.4,0.3
			s0.3,0.2,0.6,0.2s0.5,0.1,0.8,0.2c0.4,0.1,0.7,0.2,1,0.3c0.3,0.1,0.6,0.3,0.8,0.4c0.2,0.2,0.4,0.3,0.5,0.6
			c0.1,0.2,0.2,0.5,0.2,0.8c0,0.4-0.1,0.7-0.2,1c-0.2,0.3-0.4,0.5-0.7,0.7c-0.3,0.2-0.6,0.3-1,0.5c-0.4,0.1-0.8,0.2-1.2,0.2
			C476.3,27.9,475.6,27.8,475,27.5z"/>
		<path class="st3" d="M485.7,27.5c-1.2,0-2.1-0.3-2.9-1c-0.7-0.7-1.1-1.6-1.2-2.8c0-1.3,0.3-2.3,1.1-3s1.8-1.1,3.1-1.1
			c1.3,0,2.3,0.4,2.9,1.1c0.7,0.7,1,1.7,1,2.9c0,1.2-0.4,2.1-1.2,2.8C487.8,27.2,486.9,27.5,485.7,27.5z M485.7,20.7
			c-0.9,0-1.6,0.3-2,0.8c-0.5,0.5-0.7,1.3-0.7,2.2c0,0.9,0.3,1.6,0.8,2.1c0.5,0.5,1.2,0.8,2,0.8c0.8,0,1.5-0.2,1.9-0.7
			c0.5-0.5,0.7-1.2,0.7-2.1c0-0.9-0.2-1.7-0.7-2.2C487.3,20.9,486.6,20.7,485.7,20.7z"/>
		<path class="st3" d="M496.4,27.9c-1.6-0.1-2.8-0.7-3.8-1.7c-0.9-1-1.4-2.3-1.3-3.9c0.1-1.7,0.6-3,1.7-4c1.1-1,2.6-1.4,4.4-1.2
			c1.7,0.1,3,0.8,3.9,1.8c0.9,1.1,1.2,2.4,1.1,4c-0.2,1.7-0.9,3-1.9,3.9C499.4,27.7,498,28.1,496.4,27.9z M497.3,18.2
			c-1.3-0.1-2.3,0.2-3.1,1c-0.8,0.7-1.3,1.8-1.3,3.1c-0.1,1.3,0.3,2.3,0.9,3.2c0.7,0.8,1.6,1.3,2.8,1.4c1.2,0.1,2.2-0.2,3-0.9
			c0.8-0.7,1.3-1.7,1.4-3c0.1-1.4-0.1-2.5-0.8-3.3C499.5,18.8,498.6,18.3,497.3,18.2z"/>
		<path class="st3" d="M509.4,19.2c-0.2-0.2-0.5-0.3-0.9-0.3c-1-0.2-1.5,0.3-1.7,1.4c-0.1,0.5-0.1,0.7-0.2,1.1
			c0.8,0.1,1.2,0.2,2,0.3c-0.1,0.4-0.1,0.6-0.2,1c-0.8-0.1-1.2-0.2-2-0.3c-0.4,2.6-0.6,3.8-0.9,6.4c-0.5-0.1-0.8-0.1-1.3-0.2
			c0.4-2.6,0.5-3.8,0.9-6.4c-0.6-0.1-0.9-0.1-1.4-0.2c0.1-0.4,0.1-0.6,0.1-1c0.6,0.1,0.9,0.1,1.4,0.2c0.1-0.5,0.1-0.7,0.2-1.2
			c0.1-0.8,0.5-1.4,1-1.7c0.6-0.4,1.3-0.5,2.1-0.4c0.4,0.1,0.7,0.2,1,0.3C509.5,18.6,509.4,18.8,509.4,19.2z"/>
		<path class="st3" d="M515.9,27.2c-2.3-0.5-3.4-0.7-5.7-1.2c-0.1,0.8,0,1.5,0.4,2c0.4,0.5,1,0.9,1.8,1c0.9,0.2,1.8,0.1,2.6-0.3
			c-0.1,0.4-0.1,0.7-0.2,1.1c-0.8,0.3-1.8,0.4-2.9,0.1c-1.1-0.2-1.9-0.7-2.5-1.5c-0.5-0.8-0.7-1.8-0.5-3c0.2-1.2,0.7-2,1.6-2.6
			s1.9-0.8,2.9-0.6s1.9,0.7,2.3,1.5c0.5,0.7,0.6,1.7,0.3,2.8C516,26.8,516,26.9,515.9,27.2z M514.8,25.9c0.1-0.7,0.1-1.2-0.2-1.7
			c-0.3-0.5-0.8-0.7-1.4-0.9c-0.6-0.1-1.2,0-1.7,0.3c-0.5,0.3-0.9,0.8-1.1,1.4C512.1,25.4,513,25.5,514.8,25.9z"/>
		<path class="st3" d="M522.8,26c-0.2-0.2-0.5-0.4-0.9-0.5c-0.6-0.1-1.1,0-1.6,0.3c-0.5,0.4-0.8,1-1,1.8c-0.4,1.5-0.6,2.2-0.9,3.7
			c-0.5-0.1-0.8-0.2-1.3-0.3c0.7-2.9,1-4.4,1.7-7.3c0.5,0.1,0.8,0.2,1.3,0.3c-0.1,0.6-0.2,0.9-0.4,1.5c0,0,0,0,0,0
			c0.3-0.5,0.7-0.8,1.2-1s0.9-0.2,1.4-0.1c0.3,0.1,0.6,0.2,0.8,0.3C523,25.3,522.9,25.5,522.8,26z"/>
		<path class="st3" d="M529.8,31.1c-2.2-0.8-3.4-1.1-5.6-1.8c-0.2,0.8-0.2,1.5,0.2,2.1c0.3,0.6,0.9,1,1.7,1.2c0.9,0.3,1.8,0.3,2.7,0
			c-0.1,0.4-0.2,0.6-0.4,1.1c-0.8,0.2-1.8,0.2-2.9-0.2c-1.1-0.3-1.9-0.9-2.3-1.8c-0.4-0.8-0.5-1.8-0.2-3c0.3-1.1,0.9-1.9,1.8-2.4
			c0.9-0.5,1.9-0.6,3-0.3c1.1,0.3,1.8,0.9,2.2,1.7c0.4,0.8,0.4,1.7,0,2.8C530,30.7,529.9,30.8,529.8,31.1z M528.9,29.7
			c0.2-0.7,0.2-1.2,0-1.7c-0.2-0.5-0.7-0.8-1.3-1c-0.6-0.2-1.2-0.2-1.7,0.1c-0.5,0.3-1,0.7-1.2,1.3
			C526.3,28.9,527.1,29.1,528.9,29.7z"/>
		<path class="st3" d="M535.9,36.6c-0.7,0.1-1.5,0-2.3-0.3c-1.1-0.4-1.8-1.1-2.3-2c-0.4-0.9-0.5-1.9-0.1-2.9c0.4-1.2,1.1-2,2.1-2.4
			c1-0.4,2.2-0.4,3.4,0.1c0.7,0.3,1.3,0.6,1.7,1.1c-0.2,0.5-0.3,0.7-0.5,1.1c-0.4-0.6-1-1-1.7-1.3c-0.8-0.3-1.6-0.3-2.3,0
			c-0.7,0.3-1.2,0.9-1.5,1.8c-0.3,0.8-0.3,1.6,0,2.2c0.3,0.7,0.8,1.1,1.6,1.4c0.7,0.3,1.4,0.3,2.1,0.1
			C536.2,36,536.1,36.2,535.9,36.6z"/>
		<path class="st3" d="M541.9,29.3c-0.2-0.1-0.4-0.2-0.5-0.5c-0.1-0.2-0.1-0.4,0-0.6c0.1-0.2,0.2-0.3,0.5-0.4c0.2-0.1,0.5-0.1,0.7,0
			c0.2,0.1,0.4,0.3,0.5,0.5c0.1,0.2,0.1,0.4,0,0.6c-0.1,0.2-0.2,0.3-0.5,0.4C542.4,29.4,542.2,29.4,541.9,29.3z M538.8,38.2
			c-0.5-0.2-0.7-0.3-1.2-0.5c1.2-2.8,1.7-4.2,2.9-6.9c0.5,0.2,0.8,0.3,1.3,0.5C540.6,34.1,540,35.5,538.8,38.2z"/>
		<path class="st3" d="M547.6,42.4c-0.5-0.2-0.7-0.4-1.2-0.6c0.2-0.5,0.3-0.7,0.6-1.1c0,0,0,0,0,0c-1,0.6-2,0.6-3.2,0
			c-0.9-0.4-1.5-1.1-1.8-2c-0.3-0.9-0.2-1.8,0.3-2.9c0.5-1.1,1.2-1.9,2.2-2.3c1-0.4,2-0.3,3.1,0.2c1.1,0.5,1.7,1.3,1.8,2.2
			c0,0,0,0,0,0c0.8-1.7,1.3-2.5,2.1-4.1c0.5,0.3,0.8,0.4,1.3,0.7C550.7,36.4,549.6,38.4,547.6,42.4z M547.9,38.7
			c0.2-0.4,0.3-0.6,0.5-1c0.3-0.5,0.3-1.1,0.1-1.7c-0.2-0.6-0.7-1-1.3-1.3c-0.8-0.4-1.5-0.4-2.1-0.1c-0.7,0.3-1.2,0.9-1.6,1.7
			c-0.4,0.8-0.4,1.5-0.2,2.1c0.2,0.6,0.6,1.1,1.3,1.4c0.7,0.3,1.3,0.4,1.9,0.1C547.1,39.8,547.6,39.4,547.9,38.7z"/>
		<path class="st3" d="M552.9,45.5c-1.1-0.6-1.7-1.4-2-2.4c-0.3-1-0.2-2,0.4-3c0.6-1.1,1.4-1.8,2.5-2c1-0.2,2.2,0,3.4,0.7
			c1.1,0.7,1.8,1.5,2.1,2.5c0.3,1,0.1,2-0.6,3c-0.6,1-1.5,1.6-2.5,1.8C555,46.3,554,46.1,552.9,45.5z M556.4,39.6
			c-0.8-0.4-1.5-0.6-2.2-0.4c-0.7,0.2-1.3,0.7-1.7,1.5c-0.4,0.8-0.5,1.5-0.3,2.2c0.2,0.7,0.7,1.3,1.4,1.7c0.7,0.4,1.4,0.6,2.1,0.4
			c0.7-0.2,1.2-0.7,1.7-1.5c0.5-0.8,0.7-1.5,0.5-2.2C557.6,40.6,557.2,40.1,556.4,39.6z"/>
		<path class="st3" d="M559.9,52.5c-0.4-0.3-0.6-0.4-1-0.7c-0.4-2.4,0-4.6,1.4-6.7c1.4-2.1,3.3-3.5,5.8-4c0.4,0.3,0.7,0.4,1.1,0.7
			c-2.6,0.5-4.5,1.8-5.8,3.9C560,47.8,559.6,50.1,559.9,52.5z"/>
		<path class="st3" d="M561.2,53.4c-0.4-0.3-0.6-0.4-1-0.7c2.4-0.6,4.4-1.8,5.8-3.8c1.4-2,2-4.3,1.5-6.9c0.4,0.3,0.6,0.4,1.1,0.7
			c0.5,2.5-0.1,4.8-1.6,6.9C565.5,51.7,563.6,52.9,561.2,53.4z"/>
	</g>
</g>
<g>
	<g>
		<path class="st3" d="M128.2,112.4l-20.4-28.1l-0.8-1.3c-0.6-0.9-1.7-1.8-3.1-2.6c-1.4-0.9-3.1-1.3-5-1.3H71.3
			c-1.9,0-3.6,0.5-5.1,1.4c-1.5,0.9-2.5,1.7-2.9,2.4c-0.4,0.6-0.7,1.1-0.9,1.5L42,112.4c-1,1.4-1.5,2.9-1.5,4.5c0,2.1,0.8,4,2.4,5.6
			c1.6,1.6,3.4,2.4,5.6,2.4c1,0,2-0.2,3-0.6l12.3-3.6V133h42.7v-12.3l12.3,3.6c1,0.4,2,0.6,3,0.6c2.1,0,4-0.8,5.6-2.4
			c1.6-1.6,2.4-3.4,2.4-5.6C129.7,115.3,129.2,113.8,128.2,112.4z M106.4,105l-1.5-0.6c-2.1-0.5-4.1-0.5-5.8,0
			c-1.7,0.5-2.9,1.4-3.7,2.8s-1.2,2.8-1.2,4.3c-0.1,1.5,0.5,3,1.6,4.4s2.8,2.5,4.9,3.1h0.2l-15.9,5.3l-15.9-5.3h0.4
			c2-0.6,3.6-1.7,4.7-3.1s1.7-2.9,1.6-4.4c-0.1-1.5-0.5-3-1.2-4.3s-2-2.3-3.7-2.8c-1.7-0.5-3.6-0.5-5.8,0l-1.5,0.6V88.6l21.3,7
			l21.3-7V105z"/>
		<path class="st3" d="M85.4,75.8c3.8,0,7.1-1.4,9.8-4.1c2.7-2.7,4.1-6,4.1-9.8c0-3.8-1.4-7.1-4.1-9.8s-6-4.1-9.8-4.1
			c-3.8,0-7.1,1.4-9.8,4.1s-4.1,6-4.1,9.8s1.4,7.1,4.1,9.8S81.5,75.8,85.4,75.8z"/>
	</g>
</g>
</svg>
