<svg version="1.1" id="Camada_2" xmlns="http://www.w3.org/2000/svg" xmlns:xlink="http://www.w3.org/1999/xlink" x="0px" y="0px"
	 viewBox="0 0 362 371" style="enable-background:new 0 0 362 371;" xml:space="preserve">
<style type="text/css">

	<defs>
	<style>


	#Camada_2{

	cursor:pointer;
	fill:rgba(255, 255, 255, 0);
	stroke-dasharray:1800;
	stroke-dashoffset:0;
	-webkit-animation: dash 2s linear forwards;
	-o-animaiton: dash 2s linear forwards;
	-moz-animation: dash 2s linear forwards;
	animation: dash 2s linear forwards;
	}


	#Camada_2:hover .st0{
	transition-timing-function: ease-in;
	transition-delay: 0.1s;
	transition: all 0.3s ease-in-out 0.1s;
	fill:rgba(255, 255, 255, 1);
	stroke:rgba(255, 255, 255, 1);
	}


	@-webkit-keyframes dash{
	from{
	stroke-dashoffset: 1800;
	}
	to{
	stroke-dashoffset: 0;
	fill:rgba(255, 255, 255, 0.5);
	}}



	</style>

	<script type="text/javascript">

	var clicker = document.querySelector('#Camada_2');

	clicker.addEventListener('click', function(){

	window.open('http://www.seusite.com');
	});

	</script>


	</defs>


	.st0{stroke:rgba(255, 255, 255, 0.5);stroke-miterlimit:1;}
</style>
<g>
	<g>
		<path class="st0" d="M128.1,34.1c-1.2-2-3.4-3.3-5.8-3.2c-9.4,0.4-56.7,2.5-69.6,10.1c-15.3,8.9-20.4,28.5-11.5,43.8
			c4.3,7.4,11.2,12.7,19.5,14.8c2.7,0.7,5.5,1.1,8.2,1.1c5.6,0,11.1-1.5,16.1-4.4c12.9-7.5,38.2-47.7,43.1-55.6
			C129.2,38.6,129.3,36.1,128.1,34.1z M78.5,85.2c-4.4,2.6-9.6,3.3-14.6,2c-5-1.3-9.1-4.5-11.7-8.9C46.9,69.1,50,57.3,59.1,52
			c6.5-3.8,31.3-6.4,51.4-7.7C99.5,61.1,84.9,81.4,78.5,85.2z"/>
	</g>
</g>
<g>
	<g>
		<path class="st0" d="M179.4,67.6c-66.8,0-121.2,54.4-121.2,121.2S112.6,310,179.4,310s121.2-54.4,121.2-121.2
			S246.3,67.6,179.4,67.6z M179.4,297.4c-59.9,0-108.6-48.7-108.6-108.6S119.5,80.2,179.4,80.2s108.6,48.7,108.6,108.6
			S239.3,297.4,179.4,297.4z"/>
	</g>
</g>
<g>
	<g>
		<path class="st0" d="M135.9,121.8c-7.6-7.6-9.9-21.2-10.4-31.2c-0.1-2.2-1.4-4.2-3.4-5.2c-2-1-4.3-0.9-6.2,0.2
			C90.2,101.4,71.4,126.1,63,155c-0.5,1.7-0.3,3.5,0.6,5c0.9,1.5,2.4,2.6,4.1,2.9c15.3,3.2,17.3,6.8,17.3,6.9
			c3.3,6.7,8.7,10.9,14.9,12c1,0.2,2,0.2,3,0.2c6.9,0,14.3-3.7,21.2-10.6c1.4-1.4,2.9-2.8,4.4-4.2c7.6-7.2,16.3-15.4,16.5-26.2
			C145.2,134.5,142.1,128,135.9,121.8z M120,158c-1.6,1.5-3.2,3-4.7,4.5c-4.9,4.9-9.7,7.4-13.3,6.8c-2.3-0.4-4.2-2.1-5.7-5.2
			c-2.6-5.1-8.7-9-19.2-11.9c7.1-20,19.9-37.4,36.9-50.2c2,12.5,6.4,22.1,12.9,28.6c3.7,3.7,5.6,7.1,5.5,10.1
			C132.4,146.3,126.1,152.3,120,158z"/>
	</g>
</g>
<g>
	<g>
		<path class="st0" d="M189.9,212c-2.8-11.1-9.3-19.8-18.8-25c-10.4-5.7-23.8-6.7-35.9-2.7c-18.8,6.3-28.9,14.6-21.4,37.1
			c5.1,15.4,15,17.1,22.9,18.5c3.3,0.6,6.4,1.1,9.4,2.6c3,1.5,2.2,17.1-3.2,33.1c-0.9,2.8,0.2,5.9,2.8,7.4c1,0.6,7.9,4.4,15.4,4.4
			c2.4,0,4.8-0.4,7.1-1.4c3.5-1.5,8.1-4.9,10.1-12.8c1.8-7.1,4.1-13,6.4-18.8C189.6,241.8,194.4,229.8,189.9,212z M172.9,249.9
			c-2.3,5.8-4.9,12.5-6.9,20.3c-0.9,3.5-2.3,4.1-2.7,4.3c-1.7,0.7-4.3,0.3-6.8-0.4c3.6-12.7,8.2-36.3-4.9-42.8
			c-4.6-2.3-9-3.1-12.8-3.7c-7.1-1.3-10.4-1.8-13.1-10.1c-4.2-12.7-2.2-15.9,13.5-21.1c8.8-2.9,18.4-2.2,25.8,1.8
			c6.4,3.5,10.7,9.2,12.6,17C181.2,228.9,177.7,237.7,172.9,249.9z"/>
	</g>
</g>
<g>
	<g>
		<path class="st0" d="M292,143.9c-9.7-24.3-27.4-45.2-49.9-58.8c-2.5-1.5-5.6-1.1-7.7,0.9c-29.4,28.7-31.9,38.7-30.5,44.7
			c0.8,3.5,3.3,6.2,6.9,7.4c9.7,3.2,17.5,6.5,22.5,8.6c-2.6,3.7-7.2,8.2-14.7,8.2c-30,0-47,0.6-47,12.1c0,5.4,5.1,10.1,19.7,22.3
			c5.4,4.5,13.3,11.1,15.2,13.8c0.7,8.3,8,32.8,13.4,38.2c3.8,3.8,10.3,7,17.2,7c1.8,0,3.7-0.2,5.5-0.7c5.8-1.6,13.4-6.5,17-20.9
			c2.4-9.4,2.9-18,3.4-24.9c0.7-11.3,1.4-15.7,5-17.5c4.3-2.1,11.4-8.1,23.8-35.4C292.6,147.2,292.7,145.4,292,143.9z M262.5,173
			c-10.4,5.2-11.1,16.3-11.9,28c-0.4,6.7-0.9,14.3-3,22.7c-1.2,4.7-3.5,10.5-8.1,11.8c-3.9,1.1-8.5-1.2-10.3-3
			c-2.9-3.5-9.9-25.9-9.9-30.5c0-5.4-5.1-10.1-19.7-22.3c-3.9-3.2-9.1-7.6-12.5-10.8c7.8-1.3,23.4-1.3,31.7-1.3
			c21.7,0,29-20.9,29.3-21.8c1-3-0.4-6.2-3.2-7.6c-0.5-0.2-11.4-5.7-28.1-11.4c1.2-3,5.7-10.9,23-28.3
			c17.4,11.7,31.3,28.4,39.5,47.6C268.4,169.5,263.1,172.7,262.5,173z"/>
	</g>
</g>
<g>
	<g>
		<path class="st0" d="M181,10.9c-3.5,0-6.3,2.8-6.3,6.3s2.8,6.3,6.3,6.3c90.3,0,163.7,73.5,163.7,163.7S271.3,351,181,351
			S17.3,277.5,17.3,187.2c0-42.4,16.2-82.6,45.5-113.2c2.4-2.5,2.3-6.5-0.2-8.9c-2.5-2.4-6.5-2.3-8.9,0.2c-31.6,33-49,76.3-49,122
			c0,97.2,79.1,176.3,176.3,176.3s176.3-79.1,176.3-176.3S278.2,10.9,181,10.9z"/>
	</g>
</g>
</svg>
