<svg version="1.1" xmlns="http://www.w3.org/2000/svg" xmlns:xlink="http://www.w3.org/1999/xlink" x="0px" y="0px"
	 viewBox="0 0 1275 636" style="enable-background:new 0 0 1275 636;" xml:space="preserve">
	 <defs>
	 <style>


	 #Camada_1{

	 fill:rgba(255, 255, 255, 0);
	 stroke-dasharray:3000;
	 stroke-dashoffset:0;
	 -webkit-animation: dash 4s linear forwards;
	 -o-animaiton: dash 4s linear forwards;
	 -moz-animation: dash 4s linear forwards;
	 animation: dash 4s linear forwards;
	 }

	 #Camada_2{

	 fill:rgba(255, 255, 255, 0);
	 stroke-dasharray:3000;
	 stroke-dashoffset:0;
	 -webkit-animation: dash 4s linear forwards;
	 -o-animaiton: dash 4s linear forwards;
	 -moz-animation: dash 4s linear forwards;
	 animation: dash 4s linear forwards;
	 }

	@-webkit-keyframes dash{
	from{
	stroke-dashoffset: 3000;
	}
	to{
	stroke-dashoffset: 0;
	}}





	 </style>
	 </defs>
<style type="text/css">
	.st0{fill:none;stroke:rgba(255, 255, 255, 0.2);stroke-miterlimit:10;}
	.st1{fill:none;stroke:#000000;stroke-miterlimit:10;}
	.st2{fill:none;stroke:rgba(255, 255, 255, 0.1);stroke-width:0.5;stroke-miterlimit:10;}
</style>
<g id="Camada_1">
	<g>
		<line class="st0" x1="0.5" y1="-64.5" x2="0.5" y2="703.5"/>
	</g>
	<line class="st0" x1="-63.5" y1="-64.5" x2="-63.5" y2="703.5"/>
	<g>
		<line class="st0" x1="64.5" y1="-64" x2="64.5" y2="704"/>
	</g>
	<g>
		<line class="st0" x1="128.5" y1="-64.5" x2="128.5" y2="703.5"/>
	</g>
	<g>
		<line class="st0" x1="191.5" y1="-64" x2="191.5" y2="704"/>
	</g>
	<g>
		<line class="st0" x1="254.5" y1="-64.5" x2="254.5" y2="703.5"/>
	</g>
	<g>
		<line class="st0" x1="318.5" y1="-64" x2="318.5" y2="704"/>
	</g>
	<g>
		<line class="st0" x1="382.5" y1="-64.5" x2="382.5" y2="703.5"/>
	</g>
	<g>
		<line class="st0" x1="446.5" y1="-64" x2="446.5" y2="704"/>
	</g>
	<g>
		<line class="st0" x1="510.5" y1="-65.5" x2="510.5" y2="702.5"/>
	</g>
	<g>
		<line class="st0" x1="574.5" y1="-65" x2="574.5" y2="703"/>
	</g>
	<g>
		<line class="st0" x1="638.5" y1="-65.5" x2="638.5" y2="702.5"/>
	</g>
	<g>
		<line class="st0" x1="701.5" y1="-65" x2="701.5" y2="703"/>
	</g>
	<g>
		<line class="st0" x1="764.5" y1="-65.5" x2="764.5" y2="702.5"/>
	</g>
	<g>
		<line class="st0" x1="828.5" y1="-65" x2="828.5" y2="703"/>
	</g>
	<g>
		<line class="st0" x1="892.5" y1="-65.5" x2="892.5" y2="702.5"/>
	</g>
	<g>
		<line class="st0" x1="956.5" y1="-65" x2="956.5" y2="703"/>
	</g>
	<g>
		<line class="st0" x1="1020.5" y1="-65" x2="1020.5" y2="703"/>
	</g>
	<g>
		<line class="st0" x1="1084.5" y1="-65.5" x2="1084.5" y2="702.5"/>
	</g>
	<g>
		<line class="st0" x1="1147.5" y1="-65" x2="1147.5" y2="703"/>
	</g>
	<g>
		<line class="st0" x1="1210.5" y1="-65.5" x2="1210.5" y2="702.5"/>
	</g>
	<g>
		<line class="st0" x1="1274.5" y1="-65" x2="1274.5" y2="703"/>
	</g>
	<g>
		<line class="st0" x1="-63.3" y1="700.3" x2="1299.3" y2="700.3"/>
	</g>
	<g>
		<line class="st0" x1="-62.4" y1="636.3" x2="1300.2" y2="636.3"/>
	</g>
	<g>
		<line class="st0" x1="-63.3" y1="572.3" x2="1299.3" y2="572.3"/>
	</g>
	<g>
		<line class="st0" x1="-62.4" y1="509.3" x2="1300.2" y2="509.3"/>
	</g>
	<g>
		<line class="st0" x1="-63.3" y1="446.3" x2="1299.3" y2="446.3"/>
	</g>
	<g>
		<line class="st0" x1="-62.4" y1="382.3" x2="1300.2" y2="382.3"/>
	</g>
	<g>
		<line class="st0" x1="-63.3" y1="318.3" x2="1299.3" y2="318.3"/>
	</g>
	<g>
		<line class="st0" x1="-62.4" y1="254.3" x2="1300.2" y2="254.3"/>
	</g>
	<g>
		<line class="st0" x1="-62.4" y1="190.3" x2="1300.2" y2="190.3"/>
	</g>
	<g>
		<line class="st0" x1="-63.3" y1="126.3" x2="1299.3" y2="126.3"/>
	</g>
	<g>
		<line class="st0" x1="-62.4" y1="63.3" x2="1300.2" y2="63.3"/>
	</g>
	<g>
		<line class="st0" x1="-63.3" y1="0.2" x2="1299.3" y2="0.3"/>
	</g>
	<g>
		<line class="st1" x1="-62.4" y1="-63.8" x2="1300.2" y2="-63.8"/>
	</g>
</g>
<g id="Camada_2">
	<g>
		<line class="st2" x1="34.5" y1="-94.5" x2="34.5" y2="673.5"/>
	</g>
	<line class="st2" x1="-29.5" y1="-94.5" x2="-29.5" y2="673.5"/>
	<g>
		<line class="st2" x1="98.5" y1="-94" x2="98.5" y2="674"/>
	</g>
	<g>
		<line class="st2" x1="162.5" y1="-94.5" x2="162.5" y2="673.5"/>
	</g>
	<g>
		<line class="st2" x1="225.5" y1="-94" x2="225.5" y2="674"/>
	</g>
	<g>
		<line class="st2" x1="288.5" y1="-94.5" x2="288.5" y2="673.5"/>
	</g>
	<g>
		<line class="st2" x1="352.5" y1="-94" x2="352.5" y2="674"/>
	</g>
	<g>
		<line class="st2" x1="416.5" y1="-94.5" x2="416.5" y2="673.5"/>
	</g>
	<g>
		<line class="st2" x1="480.5" y1="-94" x2="480.5" y2="674"/>
	</g>
	<g>
		<line class="st2" x1="544.5" y1="-95.5" x2="544.5" y2="672.5"/>
	</g>
	<g>
		<line class="st2" x1="608.5" y1="-95" x2="608.5" y2="673"/>
	</g>
	<g>
		<line class="st2" x1="672.5" y1="-95.5" x2="672.5" y2="672.5"/>
	</g>
	<g>
		<line class="st2" x1="735.5" y1="-95" x2="735.5" y2="673"/>
	</g>
	<g>
		<line class="st2" x1="798.5" y1="-95.5" x2="798.5" y2="672.5"/>
	</g>
	<g>
		<line class="st2" x1="862.5" y1="-95" x2="862.5" y2="673"/>
	</g>
	<g>
		<line class="st2" x1="926.5" y1="-95.5" x2="926.5" y2="672.5"/>
	</g>
	<g>
		<line class="st2" x1="990.5" y1="-95" x2="990.5" y2="673"/>
	</g>
	<g>
		<line class="st2" x1="1054.5" y1="-95" x2="1054.5" y2="673"/>
	</g>
	<g>
		<line class="st2" x1="1118.5" y1="-95.5" x2="1118.5" y2="672.5"/>
	</g>
	<g>
		<line class="st2" x1="1181.5" y1="-95" x2="1181.5" y2="673"/>
	</g>
	<g>
		<line class="st2" x1="1244.5" y1="-95.5" x2="1244.5" y2="672.5"/>
	</g>
	<g>
		<line class="st2" x1="1308.5" y1="-95" x2="1308.5" y2="673"/>
	</g>
	<g>
		<line class="st2" x1="-29.3" y1="670.3" x2="1333.3" y2="670.3"/>
	</g>
	<g>
		<line class="st2" x1="-28.4" y1="606.3" x2="1334.2" y2="606.3"/>
	</g>
	<g>
		<line class="st2" x1="-29.3" y1="542.3" x2="1333.3" y2="542.3"/>
	</g>
	<g>
		<line class="st2" x1="-28.4" y1="479.3" x2="1334.2" y2="479.3"/>
	</g>
	<g>
		<line class="st2" x1="-29.3" y1="416.3" x2="1333.3" y2="416.3"/>
	</g>
	<g>
		<line class="st2" x1="-28.4" y1="352.3" x2="1334.2" y2="352.3"/>
	</g>
	<g>
		<line class="st2" x1="-29.3" y1="288.3" x2="1333.3" y2="288.3"/>
	</g>
	<g>
		<line class="st2" x1="-28.4" y1="224.3" x2="1334.2" y2="224.3"/>
	</g>
	<g>
		<line class="st2" x1="-28.4" y1="160.3" x2="1334.2" y2="160.3"/>
	</g>
	<g>
		<line class="st2" x1="-29.3" y1="96.3" x2="1333.3" y2="96.3"/>
	</g>
	<g>
		<line class="st2" x1="-28.4" y1="33.3" x2="1334.2" y2="33.3"/>
	</g>
</g>
</svg>
