<?xml version="1.0" encoding="utf-8"?>
<!-- Generator: Adobe Illustrator 21.0.0, SVG Export Plug-In . SVG Version: 6.00 Build 0)  -->
<svg version="1.1" xmlns="http://www.w3.org/2000/svg" xmlns:xlink="http://www.w3.org/1999/xlink" x="0px" y="0px"
	 viewBox="0 0 1012 738" style="enable-background:new 0 0 1012 738;" xml:space="preserve">
	 <defs>
	<style>


	#Camada_3{

	fill:rgba(255, 255, 255, 0);
	stroke-dasharray:975;
	stroke-dashoffset:0;
	-webkit-animation: dash 4s linear forwards;
	-o-animaiton: dash 4s linear forwards;
	-moz-animation: dash 4s linear forwards;
	animation: dash 10s linear forwards;
	}

	@-webkit-keyframes dash{
	0%{
	stroke-dashoffset: 975;
	}
	50%{
	stroke-dashoffset: 0;
	}}



	</style>
	</defs>
<style type="text/css">
		.st0{fill:none;stroke:rgba(255, 255, 255,0.6);stroke-width:0.5;stroke-miterlimit:10;}
</style>


<g id="Camada_3">
	<g>
		<g>
			<path class="st0" d="M328.5,228.8c20.2-11.9,40.1-24.1,61.7-33.4c0.4-0.2,0.1-0.8-0.4-0.6c-21.6,9.3-41.5,21.6-61.7,33.4
				C327.7,228.4,328.1,229.1,328.5,228.8L328.5,228.8z"/>
		</g>
	</g>
	<g>
		<g>
			<path class="st0" d="M369.5,212.1c1-2.6,3.9-5.8,6-7.7c3.2-2.8,6.2-2.1,9.9-2.5c3.1-0.3,4.8-2.3,6.6-4.6c0.3-0.4-0.4-0.8-0.6-0.4
				c-3.1,4-6.1,3.9-10.7,4.2c-1.4,0.1-2.7,0.4-3.9,1.1c-3.1,2-6.8,6.3-8.1,9.7C368.6,212.3,369.3,212.5,369.5,212.1L369.5,212.1z"/>
		</g>
	</g>
	<g>
		<g>
			<path class="st0" d="M398.1,250.1c3.8-5.3,7.7-10.6,12.5-14.9c4.6-4.1,9.9-7.2,15.4-10.1c3.9-2,8.4-3.7,11.6-6.7
				c3.6-3.3,5.4-8,10.1-10.1c0.4-0.2,0.1-0.8-0.4-0.6c-4.2,1.8-6,5.6-8.9,8.8c-4.1,4.5-10.5,6.6-15.8,9.5
				c-10.7,5.9-18.1,13.9-25.2,23.6C397.2,250.1,397.8,250.5,398.1,250.1L398.1,250.1z"/>
		</g>
	</g>
	<g>
		<g>
			<path class="st0" d="M424.8,225.1c3.1-2.2,3.9-5.6,5.9-8.8c3.3-5.2,10.5-8.5,15.6-11.9c0.4-0.3,0-0.9-0.4-0.6
				c-4.5,3-9.6,5.6-13.5,9.3c-3.5,3.2-4,8.5-7.9,11.3C424,224.7,424.4,225.4,424.8,225.1L424.8,225.1z"/>
		</g>
	</g>
	<g>
		<g>
			<path class="st0" d="M430.2,198.3c-3.3,8-12.3,10.4-18.3,15.9c-6.8,6.2-5.7,16.4-6.4,24.8c0,0.5,0.7,0.5,0.8,0
				c0.5-6-0.1-14.5,2.7-19.9c2-3.8,5.7-6.3,9.2-8.5c5.1-3.2,10.4-6.2,12.8-12C431.1,198.1,430.4,197.9,430.2,198.3L430.2,198.3z"/>
		</g>
	</g>
	<g>
		<g>
			<path class="st0" d="M413.8,200.9c0.6,3.3-3.2,6.2-4.2,9.1c-0.8,2.3-0.9,4.6,0,6.9c0.2,0.4,0.9,0.2,0.7-0.2
				c-1.6-4,0.2-7.5,2.5-10.7c1.2-1.7,2.1-3.1,1.7-5.2C414.5,200.2,413.7,200.4,413.8,200.9L413.8,200.9z"/>
		</g>
	</g>
	<g>
		<g>
			<path class="st0" d="M440.7,213.8c0,12.3-0.5,24.7-1.7,36.9c-0.3,3.4-0.4,6.9-1.3,10.3c-0.7,2.8-2.2,5.1-3.5,7.7
				c-2.2,4.6-1.6,9.6-4.8,14c-0.3,0.4,0.4,0.8,0.6,0.4c3.4-4.6,2.7-9.7,5.2-14.6c2.4-4.7,3.6-8.5,4.1-13.8c1.4-13.6,2-27.2,2-40.8
				C441.5,213.3,440.7,213.3,440.7,213.8L440.7,213.8z"/>
		</g>
	</g>
	<g>
		<g>
			<path class="st0" d="M422.8,288.4c1.3,7.2,0.3,14.6-3.5,20.9c-2.7,4.6-6.7,8.2-8.2,13.5c-3.1,10.9,2,22.3-1.6,33.2
				c-0.2,0.5,0.6,0.7,0.7,0.2c4-12.1-3-25.9,3.4-37.4c2.9-5.2,7.1-9.1,9-14.9c1.7-5.1,1.9-10.4,0.9-15.7
				C423.4,287.8,422.7,288,422.8,288.4L422.8,288.4z"/>
		</g>
	</g>
	<g>
		<g>
			<path class="st0" d="M416.4,313.6c0.7,6.5,1.5,13.3,5.3,18.9c3.6,5.3,9.3,8.7,14.5,12.1c13.7,8.8,25,20.2,33.5,34.1
				c0.3,0.4,0.9,0,0.6-0.4c-6.8-11.1-15.4-21-25.8-28.9c-5.9-4.5-12.7-7.8-18.1-12.8c-6.8-6.2-8.3-14.2-9.3-23
				C417.1,313.1,416.3,313.1,416.4,313.6L416.4,313.6z"/>
		</g>
	</g>
	<g>
		<g>
			<path class="st0" d="M439.4,257c3.9-10.5,9.9-20,13.7-30.4c0.2-0.5-0.6-0.6-0.7-0.2c-3.9,10.4-9.8,19.9-13.7,30.4
				C438.5,257.2,439.3,257.4,439.4,257L439.4,257z"/>
		</g>
	</g>
	<g>
		<g>
			<path class="st0" d="M446.9,238.8c-0.3,6.5-0.6,13.1-0.9,19.6c-0.3,6.2,0.7,10.5,2.4,16.4c0.1,0.5,0.9,0.3,0.7-0.2
				c-0.8-2.6-1.8-5.1-2.3-7.8c-0.6-3.4-0.2-6.9,0-10.3c0.3-5.9,0.5-11.9,0.8-17.8C447.7,238.4,446.9,238.4,446.9,238.8L446.9,238.8z
				"/>
		</g>
	</g>
	<g>
		<g>
			<path class="st0" d="M489,249.3c0.5,8.4-0.2,16.7-1.9,24.9c-0.1,0.5,0.6,0.7,0.7,0.2c1.8-8.3,2.4-16.6,2-25.1
				C489.8,248.8,489,248.8,489,249.3L489,249.3z"/>
		</g>
	</g>
	<g>
		<g>
			<path class="st0" d="M459.3,243.8c-0.4,22.8-0.8,45.8,1.3,68.5c0.5,5.1,1.5,10.3,1.6,15.5c0.1,5.4-2.4,9.9-2.7,15.1
				c-0.2,3.9-1.1,6.7-4.7,8.8c-1.6,1-3.4,1.8-5,2.8c-3.4,2.2-5.9,5.1-7.7,8.7c-0.2,0.4,0.4,0.8,0.6,0.4c2.8-5.6,7.3-8.3,12.4-11.3
				c2.1-1.3,4.3-2.8,4.9-5.3c0.7-2.7,0.2-5.5,0.8-8.2c0.6-2.5,1.6-4.9,1.8-7.5c0.5-5-0.6-10.2-1.1-15.2c-2.6-24-2.1-48.3-1.7-72.4
				C460,243.3,459.3,243.3,459.3,243.8L459.3,243.8z"/>
		</g>
	</g>
	<g>
		<g>
			<path class="st0" d="M428.9,339.3c-0.4,7.2,1,14.1,4.1,20.7c0.2,0.4,0.9,0.1,0.6-0.4c-3.1-6.4-4.4-13.2-4-20.3
				C429.7,338.8,428.9,338.8,428.9,339.3L428.9,339.3z"/>
		</g>
	</g>
	<g>
		<g>
			<path class="st0" d="M461.1,334.9c5.1,12.1,12.7,22.6,22.5,31.3c0.4,0.3,0.9-0.2,0.5-0.5c-9.7-8.5-17.3-19-22.3-30.9
				C461.7,334.2,460.9,334.4,461.1,334.9L461.1,334.9z"/>
		</g>
	</g>
	<g>
		<g>
			<path class="st0" d="M472.8,354.4c-0.7,3.3-0.3,4.8,1.9,7.3c3.9,4.5,4.9,9.9,5.1,15.7c0,0.4,0.6,0.5,0.7,0.1
				c1-3.9,2.3-7.7,3.8-11.5c0.2-0.4-0.5-0.6-0.7-0.2c-0.7,1.6-1.3,3.2-1.9,4.8c-0.4,1-0.9,4.1-1.5,5c0.3,0.7,0.4,0.6,0.2-0.2
				c0-0.7-0.1-1.3-0.2-2c-0.1-0.9-0.2-1.8-0.4-2.8c-0.4-2.2-1.1-4.3-2.2-6.3c-1.9-3.3-5-5.5-4.1-9.8
				C473.6,354.2,472.9,354,472.8,354.4L472.8,354.4z"/>
		</g>
	</g>
	<g>
		<g>
			<path class="st0" d="M505.5,248.3c-3.2,3.4-4.1,7.6-5.5,11.9c-1.9,6-6,10.7-8.4,16.4c-2.8,6.6-2.5,14.8-6.4,20.8
				c-1.2,1.8-2.7,3.1-3.3,5.2c-0.8,2.6-0.5,5.8-0.5,8.5c0.1,6.7,2.6,12.9,2.7,19.6c0.1,7.6-2,15.2-1.9,22.9
				c0.1,5.8,0.3,12.9,2.9,18.2c2.3,4.8,7.6,7,9.9,11.9c0.2,0.4,0.9,0.1,0.6-0.4c-2.1-4.3-6.5-6.4-9.1-10.3c-3.9-6-3.8-15.4-3.6-22.3
				c0.2-6.4,1.7-12.7,1.8-19c0.1-6.3-2.3-12.3-2.6-18.6c-0.1-2.8-0.7-7.5,0.4-10.2c1.1-2.8,3.6-4.9,4.8-7.7c1.9-4.7,2.1-10.1,3.7-15
				c2-6,6-10.7,8.5-16.4c2.2-5.1,2.5-10.7,6.4-15C506.4,248.5,505.9,248,505.5,248.3L505.5,248.3z"/>
		</g>
	</g>
	<g>
		<g>
			<path class="st0" d="M505.4,218.5c-0.3,11.7-1.9,24.2-0.6,35.8c0.5,4.6,2.4,8.2,4.3,12.3c1.8,3.8,2.6,7.1,1.5,11.3
				c-0.6,2.2-1.6,4.1-1.7,6.4c-0.2,4.8,1.9,9.3,3.6,13.6c2.4,6,3.5,11.9,4,18.3c0.9,12.7,1.3,25.5,1.9,38.3c0,0.5,0.8,0.5,0.8,0
				c-0.6-12.4-1.1-24.9-1.9-37.4c-0.3-5.2-0.9-10.5-2.6-15.5c-1.9-5.6-5.3-11.2-5-17.4c0.2-4.7,3.2-8.2,2.1-13
				c-1.1-4.8-4.3-8.9-5.5-13.6c-1.6-6.3-0.7-13.4-0.5-19.8c0.2-6.4,0.4-12.9,0.6-19.3C506.2,218,505.4,218,505.4,218.5L505.4,218.5z
				"/>
		</g>
	</g>
	<g>
		<g>
			<path class="st0" d="M651.6,390.1c-1.6-5.1-3.8-9.8-6-14.7c-2-4.3-1.4-8-0.7-12.5c0.8-5.5,0.7,2,2,2.6c0.6,0.3-1.4-5.6-1.7-6.5
				c-1.1-2.9-2.2-5.9-3.3-8.8c-2.1-5.6-4.9-11.3-5.8-17.3c-0.7-4.3-0.9-7.3-3.3-11c-1.6-2.4-1.5-4.7-2.4-7.4c-0.5-1.4-1.2-1.8-1.9-3
				c-1.5-2.6-1.2-5.8-2.1-8.6c-1-3.1-2.3-5.6-2.4-8.9c-0.2-6,0.5-12.2,0.7-18.2c0-0.5-0.7-0.5-0.8,0c-0.3,7.8-2,16.7,0.3,24.3
				c0.7,2.4,1.7,4.6,2.1,7.1c0.2,1.1-0.1,1.7,0.3,2.8c0.9,2.3,2.2,3.1,3.1,6c0.5,1.7-0.1,1.1,0.4,2.8c1.4,4.2,4.2,6.5,4.8,11.2
				c0.4,3.5,1.1,6.6,2.3,10c3.3,9.1,6.8,18.2,10.2,27.3c0.2,0.4,0.9,0.3,0.7-0.2c-0.8-2.7-1.7-5.4-2.7-8.1c-0.1-0.3-0.7-0.4-0.7,0
				c-0.6,4.7-2.3,10.3-0.6,14.9c2,5.6,5,10.8,6.8,16.5C651,390.7,651.8,390.5,651.6,390.1L651.6,390.1z"/>
		</g>
	</g>
	<g>
		<g>
			<path class="st0" d="M627.8,247c0.4,9.5,3.4,21.8-4.8,28.7c-5,4.2-10,7.3-12.8,13.6c-1.4,3.3-1.4,7.7-4,10.3
				c-2.3,2.3-5.1,3.9-7.4,6.3c-5.2,5.5-9.3,12-16.2,15.8c-0.4,0.2,0,0.9,0.4,0.6c6.6-3.7,10.8-9.9,15.9-15.3
				c2.5-2.7,5.9-4.6,8.3-7.3c2.2-2.4,2.1-5.8,3.1-8.7c1.9-5.2,5.4-8.9,9.7-12.1c2.3-1.7,4.7-3.3,6.4-5.5c5.2-6.8,2.4-18.4,2.1-26.2
				C628.5,246.5,627.8,246.5,627.8,247L627.8,247z"/>
		</g>
	</g>
	<g>
		<g>
			<path class="st0" d="M577.3,247.2c-0.7,2.8-0.9,6.1-2.9,8.2c-1.2,1.3-2.8,1.9-4,3.3c-3,3.4-5.2,7.7-7.3,11.6
				c-0.2,0.4,0.4,0.8,0.6,0.4c1.3-2.4,2.7-4.8,4.1-7.1c0.8-1.3,1.6-2.7,2.6-3.8c1.2-1.3,2.6-1.8,3.9-2.9c2.6-2.2,2.7-6.2,3.5-9.4
				C578.1,246.9,577.4,246.7,577.3,247.2L577.3,247.2z"/>
		</g>
	</g>
	<g>
		<g>
			<path class="st0" d="M514.3,222.3c0.5,8.4,0.5,17.1,1.7,25.4c0.3,2.2,0.8,4.3,1.7,6.4c2,4.5,2.9,8.3,4.1,13c4,16,8,32.2,8.6,48.8
				c0.3,8.2,0.3,15.9,1.9,23.9c1.8,8.6,4.1,17.6,0.9,26.2c-2.9,7.9-13.2,22.3-1.2,28.2c0.4,0.2,0.8-0.4,0.4-0.6
				c-9.1-4.5-4.3-15.5-0.9-22c2.9-5.7,4.5-11.1,4-17.5c-0.4-6.7-2.5-13.2-3.5-19.8c-1.3-8.4-0.4-17-1.5-25.5c-0.9-7-2-13.9-3.1-20.8
				c-1.1-7.2-3.3-13.9-5-21c-0.7-2.9-0.9-6-2-8.9c-1.6-4.2-3.5-7.4-4-12c-0.8-7.9-1-15.9-1.5-23.8
				C515,221.9,514.2,221.9,514.3,222.3L514.3,222.3z"/>
		</g>
	</g>
	<g>
		<g>
			<path class="st0" d="M558.7,267.4c3.2,13.3,3.8,27.1,1.6,40.7c-0.7,3.9-3,8.7-2.3,12.6c0.5,2.7,2.1,5.4,3.1,7.9
				c1.1,2.8,2,5.6,2.9,8.5c7.1,23.4,7.6,48.1,6.6,72.3c0,0.5,0.7,0.5,0.8,0c1-23.7,0.5-47.8-6.1-70.8c-1.6-5.4-4-10.5-5.7-15.9
				c-1.8-5.6,1.4-13.2,2.2-19.1c1.5-12.2,0.6-24.4-2.3-36.4C559.3,266.8,558.6,267,558.7,267.4L558.7,267.4z"/>
		</g>
	</g>
	<g>
		<g>
			<path class="st0" d="M546.3,400.1c5.2-10.8,14.4-18.3,23.9-25.2c0.4-0.3,0-0.9-0.4-0.6c-9.5,7-18.9,14.6-24.1,25.5
				C545.5,400.2,546.1,400.6,546.3,400.1L546.3,400.1z"/>
		</g>
	</g>
	<g>
		<g>
			<path class="st0" d="M571.4,372.3c0.3-6,2-11.6,5.4-16.6c1.5-2.2,3.3-4.3,5.4-6c1.3-1.1,4.1-2.4,5.1-4.1c1.4-2.6-1.1-5.5-1.7-8
				c-1.5-6.1-1.3-12.6-1.5-18.8c-0.2-6.1-0.4-12.1-0.6-18.2c-0.2-7.2,0.4-13.1,5.8-18.3c1.8-1.8,3.8-3.3,5.8-4.9
				c1-0.8,3-1.9,3.4-3.2c0.4-1.3-0.2-2.5-0.6-3.7c-1.3-4.3-1.5-8.3-0.9-12.8c0.1-0.5-0.6-0.7-0.7-0.2c-0.4,2.7-0.6,5.3-0.3,7.9
				c0.3,2.6,1.7,5.3,1.1,7.8c-1,4.5-8.5,7.8-11.4,11.8c-2.5,3.6-3.2,7.6-3.2,11.9c0,6.6,0.4,13.3,0.6,19.9c0.2,5.8,0.1,11.8,1,17.6
				c0.4,2.5,1.6,4.8,1.9,7.2c0.4,2.7-1.2,4.9-3.3,6.6c-7.4,5.8-11.7,14.7-12.1,24.1C570.6,372.8,571.3,372.8,571.4,372.3
				L571.4,372.3z"/>
		</g>
	</g>
	<g>
		<g>
			<path class="st0" d="M573.9,256.7c5.1,8.6,8.1,18.8,11.8,28.1c0.2,0.4,0.9,0.3,0.7-0.2c-3.7-9.4-6.7-19.5-11.9-28.2
				C574.3,255.9,573.7,256.3,573.9,256.7L573.9,256.7z"/>
		</g>
	</g>
	<g>
		<g>
			<path class="st0" d="M584.8,345.6c-0.4,5.7-0.1,11.3,1.2,16.9c1,4.4,2.7,7.5,0.4,11.9c-1.2,2.3-2.8,4.3-3.8,6.7
				c-3.8,9.4-2.7,20-1.6,29.7c0.1,0.5,0.8,0.5,0.8,0c-1.3-11.4-2.5-24.1,4-34.2c2.4-3.7,3.4-5.6,2.2-10.1c-1.9-7-2.9-13.8-2.3-21.1
				C585.6,345.2,584.9,345.2,584.8,345.6L584.8,345.6z"/>
		</g>
	</g>
	<g>
		<g>
			<path class="st0" d="M582.1,382.2c4.1,4.4,6.6,10.5,9.1,15.8c2.8,5.9,5.2,12,6.7,18.4c0.1,0.5,0.8,0.3,0.7-0.2
				c-1.5-6.5-4-12.6-6.8-18.6c-2.6-5.5-5-11.6-9.2-16C582.3,381.3,581.8,381.9,582.1,382.2L582.1,382.2z"/>
		</g>
	</g>
	<g>
		<g>
			<path class="st0" d="M518.2,354.5c3.4,10.7,2.9,21.8,0.3,32.6c-0.1,0.4-0.8,2.7-0.4,2.6c0.4,0,0.6-3.3,0.7-3.5
				c0.4-2.7,0.9-5.3,1.4-8c0.2-0.9,0.3-2.9,0.8-3.5c1-1.2,0.1-1,1.5,0c1.7,1.3,3.3,5.6,4.4,7.5c0.2,0.4,0.9,0,0.6-0.4
				c-1.9-3.3-3.9-6.7-5.8-10c-0.2-0.3-0.6-0.2-0.7,0.1c-1.8,6.5-3,13-3.6,19.7c0,0.4,0.6,0.5,0.7,0.1c3.4-12.3,4.8-25,0.8-37.3
				C518.7,353.8,518,354,518.2,354.5L518.2,354.5z"/>
		</g>
	</g>
	<g>
		<g>
			<path class="st0" d="M397.6,359.5c3.8-5.5,8.1-10.5,12.9-15c0.4-0.3-0.2-0.9-0.5-0.5c-4.9,4.6-9.2,9.7-13,15.2
				C396.7,359.5,397.3,359.9,397.6,359.5L397.6,359.5z"/>
		</g>
	</g>
</g>
</svg>
