<?xml version="1.0" encoding="utf-8"?>
<!-- Generator: Adobe Illustrator 21.0.0, SVG Export Plug-In . SVG Version: 6.00 Build 0)  -->
<svg version="1.1" xmlns="http://www.w3.org/2000/svg" xmlns:xlink="http://www.w3.org/1999/xlink" x="0px" y="0px"
	 viewBox="0 0 1012 738" style="enable-background:new 0 0 1012 738;" xml:space="preserve">
	 <defs>
	<style>


	#Camada_2{

	fill:rgba(255, 255, 255, 0);
	stroke-dasharray:1300;
	stroke-dashoffset:0;
	-webkit-animation: dash 4s linear forwards;
	-o-animaiton: dash 4s linear forwards;
	-moz-animation: dash 4s linear forwards;
	animation: dash 5s linear alternate infinite;
	}

	@-webkit-keyframes dash{
	100%{
	stroke-dashoffset: 13000;
	}
	0%{
	stroke-dashoffset: -13000;
	}}



	</style>
	</defs>
<style type="text/css">
		.st0{fill:none;stroke:rgba(000, 000, 000,0.6);stroke-width:1;stroke-miterlimit:10;}
</style>

<g id="Camada_2">
	<g>
		<g>
			<path class="st0" d="M335.3,290.8c-2.9-0.5-5.8-1.2-8.6-2.2c-0.5-0.2-0.7,0.6-0.2,0.7c2.8,1,5.6,1.7,8.6,2.2
				C335.6,291.6,335.8,290.9,335.3,290.8L335.3,290.8z"/>
		</g>
	</g>
	<g>
		<g>
			<path class="st0" d="M326.9,288.7c-0.3-2.8-0.7-5.7,0.1-8.5c0.8-2.6,2-5,3-7.5c0.2-0.4-0.5-0.6-0.7-0.2c-1.1,2.8-2.6,5.6-3.2,8.5
				c-0.5,2.5-0.2,5.2,0.1,7.7C326.2,289.1,326.9,289.1,326.9,288.7L326.9,288.7z"/>
		</g>
	</g>
	<g>
		<g>
			<path class="st0" d="M329.6,273.2c1.7-0.5,3.3-0.7,5.1-0.6c0.5,0,0.5-0.7,0-0.8c-1.8-0.1-3.6,0.1-5.3,0.6
				C328.9,272.6,329.1,273.3,329.6,273.2L329.6,273.2z"/>
		</g>
	</g>
	<g>
		<g>
			<path class="st0" d="M335.6,272.3c2.6-8.4,3.5-17.2,6.2-25.6c2.2-7,5-15.3,3.6-22.6c-0.1-0.5-0.8-0.3-0.7,0.2
				c1.6,8.1-2.1,17.6-4.6,25.3c-2.5,7.4-2.9,15.2-5.2,22.6C334.7,272.6,335.4,272.7,335.6,272.3L335.6,272.3z"/>
		</g>
	</g>
	<g>
		<g>
			<path class="st0" d="M345.1,223.4c-1.6-0.5-3.3-0.7-4.9-0.8c-0.5,0-0.5,0.7,0,0.8c1.6,0.1,3.2,0.4,4.7,0.8
				C345.4,224.3,345.6,223.6,345.1,223.4L345.1,223.4z"/>
		</g>
	</g>
	<g>
		<g>
			<path class="st0" d="M336.6,223.7c-3.7-0.3-1-5.7-0.8-7.3c0.6-5-1-9.7,6.3-10.4c7.3-0.7,15.6,0.9,22.9,1.6c0.5,0,0.5-0.7,0-0.8
				c-6.6-0.6-13.2-1.1-19.9-1.4c-3.4-0.2-7.4-1.6-8.9,2c-0.8,2-0.8,4.4-0.9,6.5c-0.1,1.9-0.1,3.7-0.7,5.5c-0.3,0.8-1.2,1.8-1.1,2.7
				c0.1,1.9,1.3,2.2,3.2,2.3C337.1,224.5,337.1,223.7,336.6,223.7L336.6,223.7z"/>
		</g>
	</g>
	<g>
		<g>
			<path class="st0" d="M367,207.6c0.7,0.7,1.5,1.4,2.2,2.1c-0.1,0.3-0.1,0.6-0.2,0.9c0,0.3-0.1,0.7-0.1,1c-0.1,1.9-0.2,3.8-0.5,5.8
				c-0.3,1.8-0.7,4.1-2.7,4.6c-1.3,0.4-3.3,0-4.6,0c-0.5,0-0.5,0.7,0,0.8c1.7,0,5.1,0.7,6.6-0.4c1.4-1,1.5-4.9,1.7-6.5
				c0.2-1.4,0.2-2.8,0.3-4.3c0.1-1,0.7-2.2,0.4-3.1c-0.4-1.4-1.8-1.6-3.1-1.7C366.5,206.8,366.5,207.6,367,207.6L367,207.6z"/>
		</g>
	</g>
	<g>
		<g>
			<path class="st0" d="M360.2,222.3c-0.1,4.1-0.2,8.3-0.4,12.4c-0.2,3.5-1.2,5.8-2.4,9c-0.6,1.7-0.7,1.2-0.9,3.1
				c-0.2,1.6,0.2,3.3,0.1,4.9c0,2.5-0.7,4.5-1.3,6.8c-1,3.9-1.3,7.8-1.2,11.8c0,0.5,0.8,0.5,0.8,0c-0.1-4.8,0.7-9.3,1.8-13.9
				c1-4.3-0.1-8.7,1.7-12.9c2.9-6.7,2.3-14,2.6-21.2C361,221.9,360.3,221.9,360.2,222.3L360.2,222.3z"/>
		</g>
	</g>
	<g>
		<g>
			<path class="st0" d="M374.7,251c0.3-9.3,4.4-19.1,6.9-28c1.1-3.8,2.9-7.3,7.8-6.3c2,0.4,4,1.7,5.9,2.5c3.7,1.6,7.6,3,11.5,4.3
				c0.5,0.1,0.7-0.6,0.2-0.7c-5.7-1.8-11-4.5-16.6-6.5c-2.8-1-6.4-2.2-7.9,0.9c-2.4,4.9-3.2,11.4-4.7,16.6
				c-1.6,5.6-3.7,11.3-3.9,17.2C374,251.5,374.7,251.5,374.7,251L374.7,251z"/>
		</g>
	</g>
	<g>
		<g>
			<path class="st0" d="M409.2,218.7c5.4,1.1,10.3,3.4,14.7,6.9c0.4,0.3,0.9-0.2,0.5-0.5c-4.4-3.6-9.4-5.9-15-7.1
				C409,217.9,408.8,218.6,409.2,218.7L409.2,218.7z"/>
		</g>
	</g>
	<g>
		<g>
			<path class="st0" d="M420.5,229.1c2.8-0.1,7.2,0.4,5.7,4.2c-0.7,1.8-1.4,3.6-2,5.4c-0.7,2-1,4.3-1.8,6.3
				c-0.6,1.5-1.9,3.7-3.7,4.2c-1.1,0.3-3.1-0.6-4.1-0.9c-0.9-0.2-1.8-0.5-2.7-0.7c-2.2-0.6-1.9-0.2-2.9-2.9
				c-0.9-0.8-1.2-1.6-0.8-2.4c0.1-0.3,0.2-0.7,0.2-1.1c0,0,0-0.1,0-0.2c-0.5-0.9-0.9-1.4-2-1c-0.5,0.2-0.3,0.9,0.2,0.7
				c0.6-0.2,0.1,4.5,0.3,5c0.7,1.8,2.5,2,4.2,2.4c2.6,0.7,8.6,3.4,10.9,0.6c1.6-1.9,1.7-5.5,2.4-7.8c0.9-3,2.7-6.1,3.3-9.1
				c0.8-4.4-3.9-3.5-7.1-3.5C420,228.3,420,229.1,420.5,229.1L420.5,229.1z"/>
		</g>
	</g>
	<g>
		<g>
			<path class="st0" d="M403.7,238.3c-1.8-0.9-3.7-1.8-5.7-2.4c-1.2-0.3-1.6-0.2-2.3,0.7c-2.4,2.9-3.4,7.3-3.7,10.9
				c0,0.5,0.7,0.5,0.8,0c0.3-3,1.1-5.9,2.5-8.6c0.2-0.4,0.4-1,0.7-1.3c1.2-1.5,1.4-1.2,2.7-0.8c1.6,0.6,3.2,1.2,4.8,2
				C403.7,239.2,404.1,238.6,403.7,238.3L403.7,238.3z"/>
		</g>
	</g>
	<g>
		<g>
			<path class="st0" d="M402.8,264.3c3.8,3,7.2,6.5,10.2,10.3c0.3,0.4,0.8-0.2,0.5-0.5c-3-3.8-6.4-7.3-10.2-10.3
				C403,263.5,402.4,264,402.8,264.3L402.8,264.3z"/>
		</g>
	</g>
	<g>
		<g>
			<path class="st0" d="M413.2,274.8c0.3,1.7,0.5,3.4,0.6,5.1c0,0.7,0.2,1.9,0.1,2.6c-0.3,1.3-1.3,1.7-2.5,2.1
				c-2.9,1.1-6,1.4-9.1,1.1c-0.5,0-0.5,0.7,0,0.8c3.4,0.3,8.8,0.2,11.6-2.1c1-0.8,0.8-1.9,0.8-3.1c-0.1-2.2-0.3-4.4-0.7-6.6
				C413.8,274.1,413.1,274.3,413.2,274.8L413.2,274.8z"/>
		</g>
	</g>
	<g>
		<g>
			<path class="st0" d="M401,290.8c4.7,0.1,9.5,0,14.2-0.4c0.5,0,0.5-0.8,0-0.8c-4.7,0.4-9.4,0.6-14.2,0.4
				C400.5,290.1,400.5,290.8,401,290.8L401,290.8z"/>
		</g>
	</g>
	<g>
		<g>
			<path class="st0" d="M414.6,290.2c0.7,4.2,2.4,11.2,1.2,15.4c-1.8,6.2-12.1,6.7-17.1,6.9c-0.5,0-0.5,0.8,0,0.8
				c4-0.1,7.9-0.7,11.8-1.9c1.6-0.5,4.2-1.1,5.3-2.6c1.3-1.7,0.9-4.7,0.9-6.6c-0.1-4.1-0.5-8.1-1.2-12.2
				C415.2,289.6,414.5,289.8,414.6,290.2L414.6,290.2z"/>
		</g>
	</g>
	<g>
		<g>
			<path class="st0" d="M457.8,241.3c-0.3,4.7-2.9,9-4,13.6c-1.1,4.4-1.7,8.9-2.9,13.3c-2.4,9-5.4,17.8-8.4,26.7
				c-1.6,4.9-3.3,9.8-5.1,14.7c-0.6,1.6-3,5.5-2.3,7.2c0.7,1.7,3.3,2.3,4.8,2.9c4.2,1.7,8.6,3,13.1,4c0.2,0,0.4-0.1,0.5-0.3
				c1.6-5.8,3.8-11.3,6.6-16.5c0.2-0.4-0.4-0.8-0.6-0.4c-2,3.7-3.8,7.5-5.2,11.5c-1.1,3.1-1,4.3-4.4,4.1c-2.1-0.1-4.6-1.3-6.5-2
				c-2.5-0.9-7-1.6-7.3-5c-0.1-1.9,2-5.5,2.7-7.3c1.8-4.9,3.4-9.8,5-14.7c3-9.3,6.4-18.6,8.6-28.1c1-4.4,1.6-8.9,2.9-13.3
				c1.1-3.5,2.9-6.7,3.1-10.5C458.6,240.9,457.8,240.9,457.8,241.3L457.8,241.3z"/>
		</g>
	</g>
	<g>
		<g>
			<path class="st0" d="M460.9,310.2c1.7-3.8,3.3-7.6,5-11.3c0.3-0.7,4.4-11.4,5-11.3c0.4,0,2.7,20.6,2.8,21.8
				c0.4,4.2,0.6,8.4,0.6,12.5c0,3.5-0.9,8-0.2,11.3c0.9,4.1,5.4,5.9,8.9,7.3c0.4,0.2,0.6-0.5,0.2-0.7c-3.9-1.6-7.7-3.3-8.3-8.3
				c-0.2-1.7,0.2-4,0.2-5.8c0.1-4.5-0.1-9-0.4-13.5c-0.6-8.7-3.5-17.9-3-26.6c0-0.4-0.5-0.5-0.7-0.2c-3.6,8.1-7.1,16.3-10.7,24.4
				C460,310.3,460.7,310.7,460.9,310.2L460.9,310.2z"/>
		</g>
	</g>
	<g>
		<g>
			<path class="st0" d="M485,332.2c1.4,1.1,2.8,2.2,4.2,3.3c0.2,0.2,0.5,0.1,0.6-0.2c6.1-17.1,15-33.1,19.6-50.7
				c0.1-0.5-0.6-0.7-0.7-0.2c-2.6,9.9-6.6,19.4-10.6,28.8c-1.7,3.9-3.4,7.8-5.1,11.8c-0.9,2.1-1.5,4.8-2.7,6.8c0,1.4-0.7,2.1-2,2.2
				c-0.9-0.7-1.8-1.5-2.8-2.2C485.1,331.4,484.6,331.9,485,332.2L485,332.2z"/>
		</g>
	</g>
	<g>
		<g>
			<path class="st0" d="M511.6,271.8c1.4-3.2,3.7-8,3-11.5c-0.6-3-5.3-4.5-7.5-5.8c-0.4-0.2-0.8,0.4-0.4,0.6
				c3.1,1.8,7.6,3.4,6.9,7.8c-0.5,3-1.4,5.8-2.7,8.5C510.7,271.9,511.4,272.3,511.6,271.8L511.6,271.8z"/>
		</g>
	</g>
	<g>
		<g>
			<path class="st0" d="M505.4,248c-1.9-0.9-3.9-2.2-6-2.5c-0.2,0-0.3,0-0.4,0.2c-1.6,2.3-2.1,5.8-3,8.4c-1.5,4.2-3.2,8.3-5,12.4
				c-2.3,5-5.5,9.9-3.5,15.5c0.2,0.5,0.9,0.3,0.7-0.2c-2.4-6.5,3.1-14,5.6-19.9c1.1-2.8,2.2-5.6,3.2-8.4c0.4-1.1,1-4.3,1.7-5.1
				c1.9-2.1,4.4-0.5,6.3,0.4C505.5,248.9,505.9,248.2,505.4,248L505.4,248z"/>
		</g>
	</g>
	<g>
		<g>
			<path class="st0" d="M487.8,281.9c-0.3,0.5-3.3,6.5-3.2,6.6c-0.5-0.4-0.5-3-0.6-3.7c-0.3-4-0.7-8-1-12
				c-0.6-7.7-3.7-14.7-3.5-22.5c0-0.5-0.7-0.5-0.8,0c-0.2,6.9,2.5,12.5,3.2,19.3c0.8,6.9,1.2,13.9,1.7,20.8c0,0.3,0.5,0.6,0.7,0.2
				c1.3-2.7,2.6-5.5,4-8.2C488.7,281.8,488,281.4,487.8,281.9L487.8,281.9z"/>
		</g>
	</g>
	<g>
		<g>
			<path class="st0" d="M528.1,254.6c-1.2-0.3-2.5-0.8-3.7-1.1c-0.6-0.1-1-0.2-1.4,0.3c-0.7,0.7-1.1,2-1.4,2.8c-0.4,1-0.8,2-1.2,3.1
				c-0.2,0.5,0.6,0.7,0.7,0.2c0.6-1.6,1.1-3.4,2-4.8c0.6-0.9,1.2-0.9,2.2-0.6c0.9,0.3,1.8,0.5,2.6,0.8
				C528.3,255.4,528.5,254.7,528.1,254.6L528.1,254.6z"/>
		</g>
	</g>
	<g>
		<g>
			<path class="st0" d="M522,268.9c-2.2,4.2-4.4,8.5-5.5,13.1c-1.3,5.3-1.8,10.9-2.5,16.2c-0.1,0.5,0.7,0.7,0.7,0.2
				c0.7-4.9,1.1-9.8,2.1-14.7c1.1-5.2,3.4-9.9,5.8-14.5C522.8,268.8,522.2,268.5,522,268.9L522,268.9z"/>
		</g>
	</g>
	<g>
		<g>
			<path class="st0" d="M510.5,297.3c-0.3,12.4-4.7,22.6-8.4,34.1c-0.9,2.7-1.9,4.3,0.2,6.2c3.4,3.2,10.1,4.9,14.4,6.5
				c0.5,0.2,0.7-0.6,0.2-0.7c-4.1-1.5-14.9-4.1-14.6-10c0.2-3.7,2.9-8.2,4.2-11.7c2.9-7.9,4.6-15.9,4.8-24.3
				C511.3,296.8,510.5,296.8,510.5,297.3L510.5,297.3z"/>
		</g>
	</g>
	<g>
		<g>
			<path class="st0" d="M518.6,340.8c5.4,1.8,10.5,4.2,15.3,7.1c0.4,0.3,0.8-0.4,0.4-0.6c-4.9-3-10-5.4-15.4-7.2
				C518.3,339.9,518.1,340.6,518.6,340.8L518.6,340.8z"/>
		</g>
	</g>
	<g>
		<g>
			<path class="st0" d="M530.7,327.7c-1.2-1.2-2.6-1.6-3.9-2.4c-4.1-2.6-3.6-7.2-2-11.2c2-5.1,3.5-10,3.9-15.4c0-0.5-0.7-0.5-0.8,0
				c-0.4,4.9-1.4,9.2-3.3,13.7c-1,2.5-1.8,4.7-1.8,7.4c0,5.9,3.7,5,7.3,8.6C530.5,328.6,531.1,328.1,530.7,327.7L530.7,327.7z"/>
		</g>
	</g>
	<g>
		<g>
			<path class="st0" d="M527.7,293.6c1.2-2.6,2.2-5.3,3.2-8c0.4-1.2,0.8-3.9,1.5-4.9c1.9-2.7,4-1.3,6.2-0.5
				c3.3,1.2,8.1,2.5,10.9,4.9c4.2,3.5,1.4,7.7-0.3,11.7c-0.2,0.4,0.5,0.6,0.7,0.2c1.6-3.8,5.1-8.8,0.9-12c-2.5-1.9-6-3-8.8-4.2
				c-2.8-1.1-6-2.7-9-2.9c-0.1,0-0.3,0.1-0.3,0.2c-1.1,1.7-1.4,3.9-2,5.8c-1,3.2-2.3,6.4-3.6,9.5
				C526.8,293.7,527.5,294.1,527.7,293.6L527.7,293.6z"/>
		</g>
	</g>
	<g>
		<g>
			<path class="st0" d="M548.8,296.7c-2,6.1-4,12.2-6.1,18.2c-1.8,5.3-3.4,17.5-10.4,17.3c-0.5,0-0.5,0.7,0,0.8c1.3,0,3.8,0.6,5-0.2
				c2-1.5,3-8.1,3.7-10.3c2.8-8.5,5.7-17,8.5-25.5C549.7,296.4,549,296.2,548.8,296.7L548.8,296.7z"/>
		</g>
	</g>
	<g>
		<g>
			<path class="st0" d="M536.9,349.9c4.4,1.1,8.8,2.4,13.1,3.8c0.2,0.1,0.4-0.1,0.5-0.3c1.4-5.7,2.4-11.3,2.9-17.2
				c0.5-6.3,4.2-11.2,5.4-17.3c0.1-0.5-0.6-0.7-0.7-0.2c-0.8,3.8-2.8,7-4.1,10.6c-1.1,3-1.2,5.6-1.4,8.7c-0.2,2.5-0.6,5.1-1,7.6
				c-0.2,1.3-0.4,4.6-1.3,5.7c-2,2.4-10.6-1.5-13.1-2.1C536.6,349.1,536.4,349.8,536.9,349.9L536.9,349.9z"/>
		</g>
	</g>
	<g>
		<g>
			<path class="st0" d="M562.4,295.2c2.7-6.4,5.2-13,6.7-19.7c1-4.5-0.8-4.1-5.1-5.9c-0.2-0.1-0.4-0.1-0.5,0.1c-1,1.7-2,3.3-3,5
				c-0.2,0.4,0.4,0.8,0.6,0.4c1.4-2.3,2.5-5,5.5-3.6c3.1,1.5,1.3,5.6,0.5,8.4c-1.5,5.2-3.4,10.2-5.5,15.1
				C561.5,295.4,562.2,295.6,562.4,295.2L562.4,295.2z"/>
		</g>
	</g>
	<g>
		<g>
			<path class="st0" d="M579.8,267.9c2.9,0,5.4-0.3,8.2,0.3c2.6,0.5,5,1.5,7.5,2.4c0.5,0.2,0.6-0.6,0.2-0.7c-2.8-1-5.6-2.1-8.6-2.6
				c-2.5-0.4-4.9-0.1-7.3-0.1C579.3,267.1,579.3,267.9,579.8,267.9L579.8,267.9z"/>
		</g>
	</g>
	<g>
		<g>
			<path class="st0" d="M580.2,275.8c-1.1,5.4-2.6,10.8-2.5,16.3c0.1,5.8-1.2,11.6-1.5,17.4c-0.3,6.3-0.1,12.8-1.4,19
				c-1.2,5.6-2.6,10.9-2.9,16.6c0,0.5,0.7,0.5,0.8,0c0.4-6.5,2.4-12.5,3.4-18.9c0.7-4.9,0.7-10,0.9-14.9c0.2-5.5,1.5-11,1.7-16.5
				c0.2-6.5,1.1-12.4,2.4-18.8C581,275.5,580.3,275.3,580.2,275.8L580.2,275.8z"/>
		</g>
	</g>
	<g>
		<g>
			<path class="st0" d="M571.8,344.7c-0.3,3.6-1.1,7.6-0.5,11.2c0.4,2.2,0.9,2,2.8,2.5c0.5,0.1,0.7-0.6,0.2-0.7
				c-1.7-0.4-2.2-0.8-2.4-2.7c-0.1-0.9,0-1.9,0.1-2.8c0.2-2.5,0.4-4.9,0.5-7.4C572.6,344.2,571.8,344.2,571.8,344.7L571.8,344.7z"/>
		</g>
	</g>
	<g>
		<g>
			<path class="st0" d="M574.5,364.9c3.7-0.5,7.4-0.6,11.2-0.2c0.5,0,0.5-0.7,0-0.8c-3.7-0.3-7.4-0.3-11.2,0.2
				C574,364.2,574,364.9,574.5,364.9L574.5,364.9z"/>
		</g>
	</g>
	<g>
		<g>
			<path class="st0" d="M587.9,356.2c2-6.8,6.4-13.2,9.9-19.2c1-1.7,8.9-16.3,10.2-15.9c1.4,0.4,0.4,17,0.3,19.1
				c-0.3,6.9-1.6,13.8-2,20.7c-0.3,4.7-0.1,6.3,4.5,8.2c2.1,0.9,8.6,3.5,10.7,2.3c0.9-0.5,1.2-2.6,1.4-3.3c1.2-3.3,2.9-6.4,4.8-9.4
				c3.2-5.2,6.6-10.1,9.1-15.7c0.2-0.4-0.4-0.8-0.6-0.4c-2.7,6.1-6.6,11.4-10,17.1c-1.4,2.4-2.3,5.1-3.7,7.4c-1.5,2.3-2.3,3.1-5,3.1
				c-1.9-0.1-4.7-0.9-6.4-1.9c-7.4-4-2.7-18.4-2.2-25.4c0.5-7.9,0.3-15.8,0-23.7c0-0.4-0.5-0.5-0.7-0.2c-4.2,6.3-8.2,12.7-12,19.2
				c-3.3,5.6-7.2,11.5-9,17.8C587,356.5,587.7,356.7,587.9,356.2L587.9,356.2z"/>
		</g>
	</g>
	<g>
		<g>
			<path class="st0" d="M641,344c4.2-10.2,9.2-20.1,15.1-29.4c2.8-4.5,6-8.6,8.9-13c0.9-1.4,2-2,0.9-3.5c-0.6-0.9-3.2-1.3-4.2-1.7
				c-2.5-1-5.1-1.9-7.6-2.9c-2.6-1-4.2-2.2-6.1,0.2c-2.9,3.6-4.4,9.2-6.7,13.3c-2.8,5.1-5.8,9.9-9,14.7c-0.3,0.4,0.4,0.8,0.6,0.4
				c4.8-7,9.1-14.3,12.8-22c0.7-1.4,1.3-3.8,2.3-4.9c2.9-3.2,5.3-1.1,8.4,0.1c4.1,1.6,10.2,2.8,6.2,8.1
				c-9.1,12.5-16.7,26.1-22.6,40.5C640.1,344.2,640.8,344.4,641,344L641,344z"/>
		</g>
	</g>
	<g>
		<g>
			<path class="st0" d="M628.9,318.3c-1.6,1.7-3.1,3.4-4.4,5.4c0.2,0.1,0.5,0.2,0.7,0.3c0.8-2.1,0.7-4.2,1-6.3
				c0.3-2.1,1.2-4.1,1.3-6.2c0-0.5-0.7-0.5-0.8,0c-0.1,2.1-1.1,4-1.3,6.1c-0.3,2.1-0.2,4.2-1,6.3c-0.2,0.4,0.5,0.6,0.7,0.3
				c1.3-1.9,2.7-3.6,4.3-5.2C629.8,318.4,629.3,317.9,628.9,318.3L628.9,318.3z"/>
		</g>
	</g>
	<g>
		<g>
			<path class="st0" d="M627.2,304.9c1.5-4.9,4.1-11.8,3.2-17c-0.5-3-3-4.1-5.6-5.1c-0.5-0.2-0.7,0.6-0.2,0.7
				c5.6,2,5.2,6.8,4.3,11.7c-0.6,3.2-1.4,6.3-2.4,9.4C626.3,305.2,627,305.3,627.2,304.9L627.2,304.9z"/>
		</g>
	</g>
	<g>
		<g>
			<path class="st0" d="M623.9,282.3c-2.6-0.5-7-2.5-8.9,0c-3.2,4.2-5.2,8.9-6.2,14c-0.1,0.5,0.6,0.7,0.7,0.2c0.7-3.8,2-7.1,4-10.4
				c0.4-0.7,0.8-1.3,1.2-2c1-1.6,1.9-2,3.9-2c1.6,0,3.5,0.6,5.1,0.9C624.2,283.1,624.4,282.3,623.9,282.3L623.9,282.3z"/>
		</g>
	</g>
	<g>
		<g>
			<path class="st0" d="M605.7,303.6c-2.3,5.1-5,10.1-8,14.9c-0.4,0.6-2.5,3.2-2.3,3.5c0.1,0.1,0.3-1.1,0.4-1.6c0.4-3,0.4-6,0.3-9
				c0-0.5-0.8-0.5-0.8,0c0.2,4,0,7.9-0.7,11.9c-0.1,0.4,0.4,0.6,0.7,0.3c4.3-6.2,8.1-12.7,11.2-19.6
				C606.6,303.5,605.9,303.1,605.7,303.6L605.7,303.6z"/>
		</g>
	</g>
	<g>
		<g>
			<path class="st0" d="M599.1,306.5c-0.7-8.2,2-15.9,2.9-24c0.3-2.9,1.1-9-3.6-8.1c-0.5,0.1-0.3,0.8,0.2,0.7
				c1.5-0.3,2.8,4.5,2.9,5.6c0.1,1.6-0.4,3.5-0.7,5.1c-0.4,2.6-1,5.1-1.5,7.7c-0.8,4.3-1.3,8.6-0.9,13
				C598.4,307,599.2,307,599.1,306.5L599.1,306.5z"/>
		</g>
	</g>
</g>

</svg>
