<svg version="1.1" id="Camada_2" xmlns="http://www.w3.org/2000/svg" xmlns:xlink="http://www.w3.org/1999/xlink" x="0px" y="0px"
	 viewBox="0 0 362 371" style="enable-background:new 0 0 362 371;" xml:space="preserve">
<style type="text/css">

	<defs>
	<style>


	#Camada_2{
	cursor:pointer;
	fill:rgba(255, 255, 255, 0);
	stroke-dasharray:1800;
	stroke-dashoffset:0;
	-webkit-animation: dash 2s linear forwards;
	-o-animaiton: dash 2s linear forwards;
	-moz-animation: dash 2s linear forwards;
	animation: dash 2s linear forwards;
	}


	#Camada_2:hover .st0{
	transition-timing-function: ease-in;
	transition-delay: 0.1s;
	transition: all 0.3s ease-in-out 0.1s;
	fill:rgba(255, 255, 255, 1);
	stroke:rgba(255, 255, 255, 1);
	}


	@-webkit-keyframes dash{
	from{
	stroke-dashoffset: 1800;

	}
	to{
	stroke-dashoffset: 0;
	fill:rgba(255, 255, 255, 0.5);
	}}



	</style>


	</defs>

	.st0{stroke:rgba(255, 255, 255, 1);stroke-width:0.75;stroke-miterlimit:1;}
</style>
<g>
	<path class="st0" d="M222.4,339c0.5,0,1,0.1,1.5,0.1h113.9c13.3,0,24.2-10.7,24.2-23.8V54.8c0-13.1-10.8-23.8-24.2-23.8H223.9
		c-0.5,0-1,0-1.5,0.1V0L0,29.3V341l222.4,30L222.4,339L222.4,339z M223.9,44.6h113.9c5.7,0,10.4,4.6,10.4,10.2v260.4
		c0,5.6-4.6,10.2-10.4,10.2H223.9c-0.5,0-1-0.1-1.5-0.2V214.9c3.6,2.8,13.7,4.7,36.6,4.7c31,0,44.5-5.6,46.8-8
		c2.2-2.4-0.7-4.2-0.7-4.2s1,1.2-0.3,2.5c-1.4,1.3-13.9,4.7-34.1,5.8c-20.1,1-42-1.9-42.7-4.4c-0.7-2.5,11.2-4.6,11.2-4.6
		c-1.1,0.1-12.6,0.4-16.8,3V44.8C222.9,44.7,223.4,44.6,223.9,44.6z M57.3,186.6c0,20.1-9,26.8-23.4,26.4c-3.3-0.1-7.7-0.8-10.5-1.9
		l1.6-12.5c2,0.8,4.6,1.3,7.4,1.4c6.1,0.1,10-2.8,10-13.7v-43.8l14.9-0.4V186.6z M111.7,214l-5.5-18.9L86,194.9L81,213.2l-16-0.4
		L86,141.5l20.9-0.5l22.5,73.5L111.7,214z M179.6,215.8c-1.3-2.2-3.2-8.5-5.5-17.9c-2.1-9.5-5.4-12.2-12.6-12.3l-5.2,0v29.7l-17-0.5
		v-73.6c5.5-1,13.7-1.9,22.9-2.1c11.5-0.3,19.7,1.2,25.4,5.4c4.8,3.6,7.4,8.9,7.4,16c0,9.9-7.3,16.6-14.1,19v0.3
		c5.5,2.2,8.6,7.4,10.6,14.5c2.5,8.7,5,18.9,6.6,21.9L179.6,215.8z"/>
	<path class="st0" d="M164.2,151.7c-4.2,0.1-6.6,0.4-7.9,0.7v20.8l6.8,0c8.8,0,14-4.3,14-11C177.2,155.2,172.3,151.7,164.2,151.7z"
		/>
	<path class="st0" d="M95.8,153.5l-0.2,0c-1,4.3-2.1,9.8-3.2,14l-4.2,15.3l15.6,0.1l-4.4-15.4C98.1,163.1,96.9,157.7,95.8,153.5z"/>
	<path class="st0" d="M264.2,168.7c0,0-7-13.2-6.7-22.9c0.2-6.9,16-13.7,22.2-23.6c6.2-9.9-0.8-19.6-0.8-19.6s1.6,7.1-2.6,14.5
		c-4.1,7.4-19.4,11.7-25.3,24.4C245.2,154.2,264.2,168.7,264.2,168.7z"/>
	<path class="st0" d="M290.3,128.5c0,0-23.7,8.9-23.7,19.1c0,10.2,6.4,13.5,7.5,16.8c1,3.3-1.8,8.9-1.8,8.9s9.3-6.4,7.7-13.7
		c-1.6-7.4-8.8-9.7-4.6-17C278.1,137.6,290.3,128.5,290.3,128.5z"/>
	<path class="st0" d="M261.7,182.2c24.5-0.9,27.4-5.4,29.9-7.6c-14.2,3.8-51.8,3.6-52.1,0.8c-0.2-2.8,11.6-5.1,11.6-5.1
		s-18.6,0-20.1,4.6C229.4,179.4,239.7,182.9,261.7,182.2z"/>
	<path class="st0" d="M293.4,192.9c0,0,22.7-4.5,20.6-16c-2.6-14-18.8-6.1-18.8-6.1s10.6,0,11.6,6.4
		C307.8,183.5,293.4,192.9,293.4,192.9z"/>
	<path class="st0" d="M244.6,187.5c-1-1.8,1.8-2.8,1.8-2.8c-12.9,3.1-5.9,8.4,9.3,9.4c13,0.9,27.4-3.8,27.4-3.8l4.5-3.6
		c0,0-10.2,1.4-18.2,2.3C258.6,190.3,245.7,189.3,244.6,187.5z"/>
	<path class="st0" d="M249,199.7c-0.5-1.2,0.5-1.9,0.5-1.9s-5.9,0.2-6.2,3.2c-0.3,3,1.8,4.6,16.3,4.2c17.2-0.4,20.1-2.4,21.9-3.9
		l4.2-3.1c-11.3,1.4-12.1,1.8-18.5,2C260.8,200.5,249.5,200.9,249,199.7z"/>
	<path class="st0" d="M293.7,221.6c-13.6,2.7-54.8,1-54.8,1s26.8,6.3,57.4,1c14.6-2.5,15.5-9.5,15.5-9.5S307.3,218.9,293.7,221.6z"
		/>
	</g>
	<a xmlns="http://www.w3.org/2000/svg" id="anchor" xlink:href="../all/cp/aula/Aula123.html" xmlns:xlink="http://www.w3.org/1999/xlink" target="_blank">
	    <rect x="0" y="0" width="100%" height="100%" fill-opacity="0"/></a>
	</svg>
