<svg version="1.1" id="Camada_2" xmlns="http://www.w3.org/2000/svg" xmlns:xlink="http://www.w3.org/1999/xlink" x="0px" y="0px"
	 viewBox="0 0 362 371" style="enable-background:new 0 0 362 371;" xml:space="preserve">

<style type="text/css">


	<defs>
	<style>


	#Camada_2{
	cursor:pointer;
	fill:rgba(255, 255, 255, 0);
	stroke-dasharray:1800;
	stroke-dashoffset:0;
	-webkit-animation: dash 1s linear forwards;
	-o-animaiton: dash 1s linear forwards;
	-moz-animation: dash 1s linear forwards;
	animation: dash 1s linear forwards;
	}

	#Camada_2:hover .st1{
	transition-timing-function: ease-in;
	transition-delay: 0.1s;
	transition: all 0.3s ease-in-out 0.1s;
	fill:rgba(255, 255, 255, 1);
	stroke:rgba(255, 255, 255, 1);
	}


	@-webkit-keyframes dash{
	from{
	stroke-dashoffset: 1800;

	}
	to{
	stroke-dashoffset: 0;
	fill:rgba(255, 255, 255, 0.5);
	}}



	</style>

	<script type="text/javascript">

	var clicker = document.querySelector('#Camada_2');

	clicker.addEventListener('click', function(){

	window.open('http://www.seusite.com');
	});

	</script>


	</defs>

	.st0{stroke:rgba(255, 255, 255, 0.5);}
	.st1{stroke:rgba(255, 255, 255, 1);stroke-width:0.75;stroke-miterlimit:1;}
</style>

<g>
	<path class="st1" d="M175.1,191.3c0,0-12.9-24.7-12.4-42.9c0.3-12.9,29.5-25.7,40.9-44.3c11.5-18.6-1.4-36.7-1.4-36.7
		s2.8,13.3-4.8,27.2c-7.6,13.8-35.7,21.9-46.7,45.7C139.9,164.2,175.1,191.3,175.1,191.3z"/>
	<path class="st1" d="M223.3,116c0,0-43.8,16.7-43.8,35.7c0,19.1,11.9,25.3,13.8,31.5c1.9,6.2-3.3,16.7-3.3,16.7
		s17.2-11.9,14.3-25.7c-2.8-13.8-16.2-18.1-8.6-32C200.7,133,223.3,116,223.3,116z"/>
	<path class="st1" d="M170.4,216.5c40.5-1.4,55.2-14.2,55.2-14.2c-26.2,7.2-95.8,6.7-96.2,1.4c-0.5-5.3,21.4-9.6,21.4-9.6
		s-34.3,0-37.1,8.6C110.8,211.3,129.9,217.9,170.4,216.5z"/>
	<path class="st1" d="M229,236.6c0,0,39.6-8.5,35.7-30c-4.7-26.2-32.4-11.4-32.4-11.4s19.5,0,21.4,11.9
		C255.6,218.9,229,236.6,229,236.6z"/>
	<path class="st1" d="M209.4,225.1c0,0-10,2.7-24.8,4.3c-19.8,2.2-43.8,0.5-45.7-2.9c-1.9-3.3,3.3-5.3,3.3-5.3
		c-23.8,5.8-10.8,15.7,17.1,17.6c24,1.6,59.6-7.2,59.6-7.2L209.4,225.1z"/>
	<path class="st1" d="M148,246c0,0-10.8,0.3-11.5,6c-0.6,5.7,6.7,10.8,33.3,12.4c26.7,1.6,45.4-7.3,45.4-7.3l-12-7.4
		c0,0-7.6,1.6-19.4,3.2c-11.7,1.6-35.9-1.3-36.8-3.5C146.1,247.2,148,246,148,246z"/>
	<path class="st1" d="M165.4,286.6c57.1,0,82.3-10.5,86.4-14.9c4.1-4.5-1.3-7.9-1.3-7.9s1.9,2.2-0.6,4.7
		c-2.6,2.6-25.8,8.9-62.9,10.8c-37.1,1.9-77.5-3.5-78.7-8.2c-1.3-4.8,20.6-8.6,20.6-8.6c-2.5,0.3-33,1-34,9.2
		C94,279.9,108.3,286.6,165.4,286.6z"/>
	<path class="st1" d="M229.6,290.4c-25.1,5-101.3,1.8-101.3,1.8s49.5,11.8,106.1,1.9c27-4.7,28.6-17.8,28.6-17.8
		S254.7,285.3,229.6,290.4z"/>
	<path class="st1" d="M0,4v362h362V4H0z M339.6,343.6H22.4V26.4h317.2V343.6z"/>
</g>
</svg>
