<svg version="1.1" id="Camada_2" xmlns="http://www.w3.org/2000/svg" xmlns:xlink="http://www.w3.org/1999/xlink" x="0px" y="0px"
	 viewBox="0 0 269 369" style="enable-background:new 0 0 269 369;" xml:space="preserve">

	 <defs>
	 <style>


	 #Camada_2{

	fill:rgba(255, 255, 255, 1);
	 stroke-dasharray:800;
	 stroke-dashoffset:0;
	 -webkit-animation: dash 8s linear forwards;
	 -o-animaiton: dash 8s linear forwards;
	 -moz-animation: dash 8s linear forwards;
	 animation: dash 12s linear infinite;
	 }

	 @-webkit-keyframes dash{
	 0%{

	 stroke-dashoffset: 800;
	 }
	 100%{

	 stroke-dashoffset: -800;
	 }}



	 </style>
	 </defs>


<style type="text/css">
	.st0{fill:none;stroke:rgba(255, 255, 255, 0.08);stroke-width:3;stroke-miterlimit:10;}
</style>
<g>
	<path class="st0" d="M125.9,196.2c0,0-19.6-37.5-18.8-65.1c0.5-19.6,44.8-39,62-67.2C186.6,35.7,167,8.3,167,8.3s4.2,20.2-7.3,41.3
		c-11.5,20.9-54.2,33.2-70.8,69.3C72.5,155.1,125.9,196.2,125.9,196.2z"/>
	<path class="st0" d="M199,82c0,0-66.4,25.3-66.4,54.2c0,29,18.1,38.4,20.9,47.8c2.9,9.4-5,25.3-5,25.3s26.1-18.1,21.7-39
		c-4.2-20.9-24.6-27.5-13-48.5C164.7,107.8,199,82,199,82z"/>
	<path class="st0" d="M118.8,234.4c61.4-2.1,83.7-21.5,83.7-21.5c-39.7,10.9-145.3,10.2-145.9,2.1c-0.8-8,32.5-14.6,32.5-14.6
		s-52,0-56.3,13C28.4,226.6,57.3,236.6,118.8,234.4z"/>
	<path class="st0" d="M207.7,264.9c0,0,60.1-12.9,54.2-45.5c-7.1-39.7-49.2-17.3-49.2-17.3s29.6,0,32.5,18.1
		C248,238.1,207.7,264.9,207.7,264.9z"/>
	<path class="st0" d="M177.9,247.5c0,0-15.2,4.1-37.6,6.5c-30,3.3-66.4,0.8-69.3-4.4c-2.9-5,5-8,5-8c-36.1,8.8-16.4,23.8,25.9,26.7
		c36.4,2.4,90.4-10.9,90.4-10.9L177.9,247.5z"/>
	<path class="st0" d="M84.8,279.2c0,0-16.4,0.5-17.4,9.1c-0.9,8.6,10.2,16.4,50.5,18.8c40.5,2.4,68.9-11.1,68.9-11.1l-18.2-11.2
		c0,0-11.5,2.4-29.4,4.9c-17.7,2.4-54.5-2-55.8-5.3S84.8,279.2,84.8,279.2z"/>
	<path class="st0" d="M111.2,340.8c86.6,0,124.9-15.9,131.1-22.6c6.2-6.8-2-12-2-12s2.9,3.3-0.9,7.1c-3.9,3.9-39.1,13.5-95.4,16.4
		s-117.6-5.3-119.4-12.4c-2-7.3,31.3-13,31.3-13c-3.8,0.5-50.1,1.5-51.6,14C2.9,330.6,24.6,340.8,111.2,340.8z"/>
	<path class="st0" d="M208.6,346.6c-38.1,7.6-153.7,2.7-153.7,2.7s75.1,17.9,161,2.9c41-7.1,43.4-27,43.4-27
		S246.7,338.8,208.6,346.6z"/>
</g>
</svg>
