<?xml version="1.0" encoding="utf-8"?>
<!-- Generator: Adobe Illustrator 21.0.0, SVG Export Plug-In . SVG Version: 6.00 Build 0)  -->
<svg version="1.1" id="Camada_1" xmlns="http://www.w3.org/2000/svg" xmlns:xlink="http://www.w3.org/1999/xlink" x="0px" y="0px"
	 viewBox="0 0 500 197.9" style="enable-background:new 0 0 500 197.9;" xml:space="preserve">
<style type="text/css">
	.st0{fill:none;stroke:#FFFFFF;stroke-width:2;stroke-miterlimit:10;}
</style>
<g>
	<path class="st0" d="M3,22.7l12.3,137.7l55,15.5l55.3-15.5l12.3-137.7H3z M111.2,67.6H46.7l1.4,17.3h61.7L105,137l-34.4,9.5v0.1
		h-0.4L35.5,137l-2.1-26.6h16.8l1.2,13.4l18.8,5.1l18.9-5.1l2.1-21.8H32.6l-4.5-51.1h84.6L111.2,67.6z"/>
</g>
<g>
	<g>
		<path class="st0" d="M366,22.1l12.1,137.1l54.5,15.2l54.5-15.2l12.2-137.2H366z M473.4,66.9l-1.5,17.2l-4.6,51.7l-34.6,9.5l0,0
			l-34.5-9.6l-2.4-27h16.9l1.3,14l18.8,5.1l0,0l18.8-5.1l2.6-23.3l-59.1,0.2l-1.7-16l62.2-0.7l1.3-17.1L391.6,66l-1.1-15.9h42.2
			h42.2L473.4,66.9z"/>
	</g>
</g>
<g>
	<g>
		<path class="st0" d="M322.1,23.4c-0.7-0.7-1.3-1.3-2.7-1.3H180c-0.7,0-2,0.7-2.7,1.3s-0.7,1.3-0.7,2.7l13.3,132.8
			c0,1.3,1.3,2.7,2,2.7l59.8,19.9c0.7,0,0.7,0,1.3,0c0.7,0,0.7,0,1.3,0l53.1-19.9c1.3-0.7,2-1.3,2-2.7L322.7,26
			C322.7,25.4,322.7,24.1,322.1,23.4z M249.7,142.3c0,0.7-0.7,2-1.3,2.7c-0.7,0.7-1.4,0.8-2,0.8l-0.6-0.1l-23.2-6.6
			c-1.3-0.7-2-1.3-2.7-2.7l-3.3-16.6c-0.7-2,0.7-3.3,2.7-4c2-0.7,3.3,0.7,4,2.7l2.7,14.6l17.3,4.6v-75h-36.5c-2,0-3.3-1.3-3.3-3.3
			c0-2,1.3-3.3,3.3-3.3h39.8c2,0,3.3,1.3,3.3,3.3V142.3z M296.2,59.9l-3.3,13.3c-0.7,2-2,3-4,2.7c-2.1-0.3-2.9-2-2.7-4
			c0.3-2.4,2-9.3,2-9.3h-25.9v33.2h23.2c0.7,0,2,0.7,2.7,1.3c0.7,0.7,0.7,2,0.7,2.7l-6.6,36.5c0,1.3-1.3,2-2,2.7l-19.9,6.6
			c-0.7,0-3.1,0.9-4.6-2c-0.7-2,0.7-3.3,2-4l17.9-6l5.3-30.5h-22.6c-2,0-3.3-1.3-3.3-3.3V59.9c0-2,1.3-3.3,3.3-3.3h33.2
			c1.3,0,2.2,0.3,3.1,0.6C296.5,58,296.2,59.3,296.2,59.9z"/>
	</g>
</g>
</svg>
