
<svg version="1.1" id="Camada_2" xmlns="http://www.w3.org/2000/svg" xmlns:xlink="http://www.w3.org/1999/xlink" x="0px" y="0px"
	 viewBox="0 0 362 371" style="enable-background:new 0 0 362 371;" xml:space="preserve">
<style type="text/css">

	<defs>
	<style>


	#Camada_2{

	cursor:pointer;
	fill:rgba(255, 255, 255, 0);
	stroke-dasharray:1800;
	stroke-dashoffset:0;
	-webkit-animation: dash 1s linear forwards;
	-o-animaiton: dash 1s linear forwards;
	-moz-animation: dash 1s linear forwards;
	animation: dash 1s linear forwards;
	}

	#Camada_2:hover .st0{
	transition-timing-function: ease-in;
	transition-delay: 0.1s;
	transition: all 0.3s ease-in-out 0.1s;
	fill:rgba(255, 255, 255, 1);
	stroke:rgba(255, 255, 255, 1);
	}


	@-webkit-keyframes dash{
	from{
	stroke-dashoffset: 1800;

	}
	to{
	stroke-dashoffset: 0;
	fill:rgba(255, 255, 255, 0.5);
	}}



	</style>



	</defs>

	.st0{stroke:rgba(255, 255, 255, 1);stroke-width:0.75;stroke-miterlimit:1;}
</style>
<path class="st0" d="M298.4,147l63.6-36.3L181,7.9L0.1,110.7L63.7,147L0.1,183.2l63.6,36.3L0.1,255.6L181,359l181-103.4l-63.6-36.1
	l63.6-36.3L298.4,147z M181,23.1l154.3,87.7L181,198.9L26.7,110.7L181,23.1z M77,154.6L181,214.1l104.1-59.5l50.3,28.6L181,271.4
	L26.7,183.2L77,154.6z M335.4,255.6L181,343.8L26.7,255.6L77,227.1L181,286.5l104.1-59.5L335.4,255.6z"/>
	<a xmlns="http://www.w3.org/2000/svg" id="anchor" xlink:href="../all/ds/aula/aula1.html" xmlns:xlink="http://www.w3.org/1999/xlink" target="_blank">
			<rect x="0" y="0" width="100%" height="100%" fill-opacity="0"/></a>
</svg>
