

<svg version="1.1" id="Camada_2" xmlns="http://www.w3.org/2000/svg" xmlns:xlink="http://www.w3.org/1999/xlink" x="0px" y="0px"
	 viewBox="0 0 362 371" style="enable-background:new 0 0 362 371;" xml:space="preserve">
<style type="text/css">

	<defs>
	<style>


	#Camada_2{

	cursor:pointer;
	fill:rgba(255, 255, 255, 0);
	stroke-dasharray:1800;
	stroke-dashoffset:0;
	-webkit-animation: dash 1s linear forwards;
	-o-animaiton: dash 1s linear forwards;
	-moz-animation: dash 1s linear forwards;
	animation: dash 1s linear forwards;
	}

	#Camada_2:hover .st0{
	transition-timing-function: ease-in;
	transition-delay: 0.1s;
	transition: all 0.3s ease-in-out 0.1s;
	fill:rgba(255, 255, 255, 1);
	stroke:rgba(255, 255, 255, 1);
	}

	@-webkit-keyframes dash{
	from{
	stroke-dashoffset: 1800;

	}
	to{
	stroke-dashoffset: 0;
	fill:rgba(255, 255, 255, 0.5);
	}}



	</style>

	<script type="text/javascript">

	var clicker = document.querySelector('#Camada_2');

	clicker.addEventListener('click', function(){

	window.open('http://www.seusite.com');
	});

	</script>



	</defs>


	.st0{stroke:rgba(255, 255, 255, 1);stroke-miterlimit:1;}
</style>
<g>
	<g>
		<g>
			<path class="st0" d="M0,11l0,337.9c-0.1,9.8,7.7,17.8,17.5,18.1h266.1c30,0,54.3-24.3,54.3-54.3v-12.1c0-3.3-2.7-6-6-6h-48.3V186
				h-12.1v108.6H66.4c-3.3,0-6,2.7-6,6v12.1c0,1.4-0.1,2.9-0.2,4.3c0,0.1,0,0.2,0,0.3c-2.2,19.7-17.7,35.3-37.4,37.4
				c-0.1,0-0.2,0-0.3,0c-1,0.1-2.1,0.1-3.2,0.2c-0.5,0-1,0.1-1.6,0.1c-3.2-0.2-5.6-2.9-5.6-6V17.1h259.4v84.5h12.1V11
				c0-3.3-2.7-6-6-6H6C2.7,5,0,7.7,0,11z M52.2,355c1.4-1.1,2.7-2.3,4-3.6c1.5-1.5,2.9-3.1,4.2-4.7l0.2-0.3c1.1-1.4,2.2-2.9,3.2-4.5
				c0.1-0.2,0.2-0.4,0.3-0.6c0.9-1.4,1.7-2.9,2.5-4.5c0.1-0.3,0.3-0.6,0.4-0.9c0.7-1.4,1.3-2.9,1.9-4.4c0.2-0.4,0.3-0.8,0.4-1.2
				c0.5-1.4,0.9-2.8,1.3-4.3c0.1-0.5,0.3-1,0.4-1.5c0.3-1.4,0.6-2.9,0.8-4.3c0.1-0.5,0.2-1,0.2-1.6c0.2-2,0.3-4,0.3-6v-6h253.4v6
				c0,23.3-18.9,42.2-42.2,42.2L52.2,355z"/>
			<path class="st0" d="M162.9,173.9h168.9c16.7,0,30.2-13.5,30.2-30.2s-13.5-30.2-30.2-30.2H162.9c-1.6,0-3.1,0.6-4.3,1.8
				l-24.1,24.1c-2.4,2.4-2.4,6.2,0,8.5l24.1,24.1C159.8,173.3,161.3,173.9,162.9,173.9L162.9,173.9z M168.7,143.8l-4.3,17.2
				l-17.2-17.2l17.2-17.2L168.7,143.8z M313.7,161.9H176.7l3-12.1h122v-12.1h-122l-3-12.1h137.1V161.9z M331.8,161.9h-6v-36.2h6
				c10,0,18.1,8.1,18.1,18.1C349.9,153.8,341.8,161.9,331.8,161.9z"/>
			<path class="st0" d="M227.5,262.7c2.4-2.4,2.4-6.2,0-8.5l-181-181c-1.1-1.1-2.7-1.8-4.3-1.8c-3.3,0-6,2.7-6,6v181
				c0,3.3,2.7,6,6,6h181C224.8,264.4,226.4,263.8,227.5,262.7z M208.7,252.4h-15.6v-12.1H181v12.1h-12.1v-12.1h-12.1v12.1h-12.1
				v-12.1h-12.1v12.1h-12.1v-12.1h-12.1v12.1H96.5v-12.1H84.5v12.1H72.4v-12.1H60.3v12.1H48.3v-12.1h12.1v-12.1H48.3v-12.1h12.1
				v-12.1H48.3V192h12.1V180H48.3v-12.1h12.1v-12.1H48.3v-12.1h12.1v-12.1H48.3v-12.1h12.1v-12.1H48.3V92L208.7,252.4z"/>
			<path class="st0" d="M140.1,226.5c2.4-2.4,2.4-6.2,0-8.5l-57.4-57.4c-1.1-1.1-2.7-1.8-4.3-1.8c-3.3,0-6,2.7-6,6v57.4
				c0,3.3,2.7,6,6,6h57.4C137.4,228.2,139,227.6,140.1,226.5z M121.3,216.2H84.5v-36.8L121.3,216.2z"/>
			<rect x="84.5" y="41.2" class="st0" width="120.7" height="12.1"/>
			<rect x="66.4" y="65.3" class="st0" width="156.9" height="12.1"/>
			<rect x="223.2" y="192" class="st0" width="36.2" height="12.1"/>
			<rect x="235.3" y="216.2" class="st0" width="24.1" height="12.1"/>
		</g>
	</g>
</g>
</svg>
