<svg version="1.1" id="Camada_1" xmlns="http://www.w3.org/2000/svg" xmlns:xlink="http://www.w3.org/1999/xlink" x="0px" y="0px"
	 viewBox="0 0 1237.8 517" style="enable-background:new 0 0 1237.8 517;" xml:space="preserve">

	 <defs>
	 <style>


	 #Camada_1{

	 fill:rgba(255, 255, 255, 0);
	 stroke-dasharray:1300;
	 stroke-dashoffset:0;
	 -webkit-animation: dash 4s linear forwards;
	 -o-animaiton: dash 4s linear forwards;
	 -moz-animation: dash 4s linear forwards;
	 animation: dash 4s linear forwards;
	 }

	 @-webkit-keyframes dash{
	 from{
	 stroke-dashoffset: 1300;

	 }
	 to{
	 stroke-dashoffset: 0;
	 fill:rgba(255, 255, 255, 1);
	 }}



	 </style>
	 </defs>

<style type="text/css">
	.st0{fill:none;stroke:rgba(255,255,255,0.3);stroke-width:1;stroke-miterlimit:10;}
</style>
<image style="display:none;overflow:visible;" width="1365" height="692" transform="matrix(0.9068 0 0 0.9489 0 -136.6393)">
</image>
<line class="st0" x1="1237.8" y1="270.6" x2="-2.1" y2="270.6"/>
<line class="st0" x1="1237.8" y1="277.6" x2="-2.1" y2="277.6"/>
<line class="st0" x1="1238.8" y1="283.6" x2="-1" y2="283.6"/>
<line class="st0" x1="1238.8" y1="290.6" x2="-1" y2="290.6"/>
<line class="st0" x1="1238.8" y1="301.6" x2="-1" y2="301.6"/>
<line class="st0" x1="1237.8" y1="314.1" x2="-2.1" y2="314.1"/>
<line class="st0" x1="1237.8" y1="325.1" x2="-2.1" y2="325.1"/>
<line class="st0" x1="1238.8" y1="342.6" x2="-1" y2="342.6"/>
<line class="st0" x1="1237.8" y1="362.6" x2="-2.1" y2="362.6"/>
<line class="st0" x1="1239.4" y1="381.6" x2="-0.5" y2="381.6"/>
<line class="st0" x1="1238.3" y1="401.6" x2="-1.6" y2="401.6"/>
<line class="st0" x1="1238.3" y1="420.6" x2="-1.6" y2="420.6"/>
<line class="st0" x1="1237.3" y1="440.6" x2="-2.6" y2="440.6"/>
<line class="st0" x1="1240.4" y1="454.8" x2="0.5" y2="454.8"/>
<line class="st0" x1="1238.8" y1="469.1" x2="-1" y2="469.1"/>
<line class="st0" x1="1240.4" y1="489.1" x2="0.5" y2="489.1"/>
<line class="st0" x1="1239.4" y1="509.1" x2="-0.5" y2="509.1"/>
<g>
	<path class="st0" d="M-5.2,147.5c5.9,1.2,11,5.5,13.3,11.1c5.3-1.9,11.2-0.4,16.4,1.8c11.3,4.9,20.8,13.6,26.7,24.3
		c6.8-5.3,13.9-10.4,22-13.3c8.1-2.9,17.4-3.3,25.2,0.5c3.2,1.6,6.3,3.9,9.8,3.6c3.4-0.2,6.1-2.8,9.3-3.9c4.1-1.4,8.6-0.4,12.9-0.6
		c11.2-0.4,20.5-8.4,29.7-14.8s21.5-11.6,31.4-6.1c2.4,1.3,4.4,3.2,7,4.1c2.8,1,6,0.8,9,0.9c6.4,0.3,14,3.4,19,7.4"/>
</g>
<g>
	<path class="st0" d="M226.6,162.7c9.2-3.1,17.6-8.8,23.9-16.2c1.2-1.4,2.4-2.9,4.1-3.8c3.1-1.6,6.8-0.4,10.3-0.8
		c5.5-0.6,9.7-5.1,14.8-7.4c8.3-3.8,19.1-0.9,24.4,6.4c0.5,0.7,1,1.5,1.8,1.9c2.7,1.3,4.8-2.5,5.8-5.2c3.4-9.2,11.9-15.5,19.9-21.2
		c10.3-7.3,22.5-15,34.6-11.4c9.4,2.9,16.7,12.3,26.6,12c1.8-0.1,3.7-0.5,5.5-0.3c2.2,0.1,4.3,1,6.4,1.6c8,2,17.1-1.6,21.5-8.5"/>
</g>
<g>
	<path class="st0" d="M426.3,109.9c9.8,5.4,20.5,10.8,30.3,16.2c6,3.3,12.5,6.8,19.4,6.1c3.3-0.3,6.5-1.6,9.8-2
		c6.6-0.7,12.9,2.3,19.2,4.3c7.9,2.5,16.8,3.4,24.1-0.6c8.6-4.7,13.6-15.6,23.2-17.7"/>
</g>
<g>
	<path class="st0" d="M649.6,6.3c-4.2,8.9-8.5,17.8-12.7,26.7c-2.2,4.6-5.4,9.8-10.5,9.7c-1.9-0.1-3.8-0.9-5.6-0.2
		c-1.3,0.5-2.1,1.7-2.8,2.9c-4.6,7.5-7.3,16-11.6,23.7s-10.5,15-19,17.3c-1.7,0.5-3.5,0.7-5,1.5c-1.3,0.7-2.3,1.7-3.3,2.6
		c-9,8.6-17.9,17.2-26.9,25.7"/>
</g>
<g>
	<path class="st0" d="M649.6,6.3c7.3,2.5,12.8,9.8,15.1,17.1c6.4,19.8,16.2,38.6,28.8,55.2c2.9,3.8,6,7.6,9.7,10.7
		c3.4,2.8,7.2,5.1,10.7,7.8c6.1,4.9,10.8,11.4,13.6,18.6"/>
</g>
<g>
	<path class="st0" d="M724.4,109c7.5,1.9,15.2,3.8,22,7.5c7.7,4.2,15.8,10.9,24.1,8c4.8-1.7,9.2-6.5,14.1-5c2.4,0.7,4,2.8,5.7,4.6
		c4,4.3,8.9,8,14.5,9.7c5.6,1.7,12,1.3,17-1.8"/>
</g>
<g>
	<path class="st0" d="M821.8,132.9c2.1,3.3,6.2,5.3,10.1,4.7c1.7-0.2,3.4-0.9,5.1-0.9c3,0,5.5,2.1,8.2,3.4s6.6,1.6,8.1-1
		c0.6-0.9,0.8-2.1,1.7-2.7c0.7-0.4,1.5-0.4,2.3-0.3c8.5,1.2,13.9,9.2,19.7,15.5c7.5,8.2,16.9,14.4,26.2,20.5
		c7.4,4.9,16.1,9.9,24.5,7.2c6.4-2.1,12.2-8.5,18.5-6.2c4.9,1.8,6.8,8,11.4,10.2c4.7,2.3,10.3-0.2,15.6-0.2
		c7.7,0,17.5,5.3,23.3,10.3"/>
</g>
<g>
	<path class="st0" d="M1237.8,116.3c-4.4,7.7-6.5,18.5-19.9,20.1c-11.2,1.3,22.4,9.6-25,5.5c-5.5-0.5-10.2-4.8-15.7-5.4
		c-11.6-1.3-8.4,13.4-32.9,11c-3.9-0.4-7.8-0.2-11.6,0.4c-7.4,1-13.6,6.1-20.1,9.8c-11.7,6.6-25.7,9-36.3,17.3
		c-2.3,1.8-4.5,3.9-7.3,4.9c-3,1.1-6.4,0.7-9.6,0.7c-9.4-0.1-18.6,3-27.5,6c-6.5,2.2-13,4.4-19.6,6.6c-5.9,2-13.5,3.6-17.6-1.2"/>
</g>
<g>
	<path class="st0" d="M1241.3,267c-7.2,0-14.4-0.3-21.5-1.1"/>
</g>
<g>
	<path class="st0" d="M1207.3,264.8c-11.2,2-22.7,2.8-34.1,2.3"/>
</g>
<g>
	<path class="st0" d="M1173.3,262c-3-0.2-6.1,0.1-9,0.9"/>
</g>
<g>
	<path class="st0" d="M1185.2,261.9c9.9,0.7,19.8-0.7,29.7-2.1"/>
</g>
<g>
	<path class="st0" d="M1228.1,260.9c3.3,1.4,7.1,1.7,10.6,1"/>
</g>
<g>
	<path class="st0" d="M1236.3,258.1c-4.6-0.7-9.3-1.1-14-1.2"/>
</g>
<g>
	<path class="st0" d="M1207.8,255c-18.8,0.1-37.7,0.2-56.2,3.6"/>
</g>
<g>
	<path class="st0" d="M1152.3,255c5.8-1,11.7-2.1,17.5-3.1"/>
</g>
<g>
	<path class="st0" d="M1185.8,252c6.7,0,13.3,0,20,0"/>
</g>
<g>
	<path class="st0" d="M1236.3,251.6c-7-0.4-14-0.8-21-1.2"/>
</g>
<g>
	<path class="st0" d="M1235.5,248.3c-27.2-3.5-55.1-5.1-81.9,0.9"/>
</g>
<g>
	<path class="st0" d="M1157.8,244.2c6.9-0.2,13.8-0.5,20.7-0.7c1.4-0.1,2.9-0.1,4.3-0.4c1.4-0.3,2.8-1,4.2-1.5
		c3.9-1.5,8.2-2.2,12.4-1.9"/>
</g>
<g>
	<path class="st0" d="M1234.7,245.7c-8.7-3-17.8-5.1-26.9-6.4"/>
</g>
<g>
	<path class="st0" d="M1235.2,241.4c-3.8-0.7-7.5-1.4-11.3-2.1c-12.3-2.2-24.7-4.5-37.1-3.8"/>
</g>
<g>
	<path class="st0" d="M1175.8,238.8c-14.2,0.3-28.3,0.6-42.5,1"/>
</g>
<g>
	<path class="st0" d="M1171.8,235.1c-14.7,0.3-29.5-0.7-44-2.8"/>
</g>
<g>
	<path class="st0" d="M1236.2,233.3c-20.2-5.8-42.1,0.2-62.9-3.3c-16.7-2.8-33.1-11.7-49.6-8.2c-4.7,1-9.1,3-13.7,4.1
		c-6.1,1.4-12.4,1.3-18.6,1.1c-9.7-0.3-19.4-0.7-29-2.3c-8-1.4-15.8-3.7-23.9-4.3c-13.9-1.2-27.7,2.5-41.1,6.1"/>
</g>
<g>
	<path class="st0" d="M985.9,229.1c-9,3.4-17.9,6.8-26.9,10.2c-5.3,2-10.7,4.1-16.3,5.2c-4,0.8-8.1,1-12,1.8
		c-9.3,1.8-17.8,6.1-26.9,8.8c-9.1,2.7-18.5,3.6-27.9,4.6"/>
</g>
<g>
	<path class="st0" d="M1199.3,226.9c-8.8,1.7-17.3-3-25.7-5.9c-13.8-4.7-28.6-4.6-43.2-4.4"/>
</g>
<g>
	<path class="st0" d="M1223.3,226.1c4.7-0.7,9.6-0.2,14.1,1.6"/>
</g>
<g>
	<path class="st0" d="M1216.1,224.4c-6-2.9-12.6-4.7-19.2-5.3c-6.2-0.5-12.8,0-18.2-3.1c-2.4-1.4-4.4-3.4-6.8-4.6
		c-4.2-2.2-9.1-1.9-13.8-1.6c-5.9,0.4-11.8,0.7-17.7,1.1"/>
</g>
<g>
	<path class="st0" d="M1237.8,209.3c-6.6,0.2-12.2,5.5-18.8,5.9c-2.9,0.2-5.8-0.6-8.6-1.5c-8.3-2.4-16.5-4.8-24.8-7.1
		c-11-3.2-22.6-6.4-33.9-4.2c-3.4,0.6-6.8,1.8-10.2,1c-1.6-0.4-3-1.2-4.6-1.5c-3.4-0.9-7.1,0.3-9.5,2.8"/>
</g>
<g>
	<path class="st0" d="M1163.9,194.3c6.7,0,13.5,0,20.2,0.1c4.5,0,9,0.1,13.2,1.6c5.5,2.1,9.9,6.7,15.5,8.5
		c7.8,2.6,16.2-0.6,23.8-3.8"/>
</g>
<g>
	<path class="st0" d="M1234.3,198c-2.5,0-5,0-7.5,0"/>
</g>
<g>
	<path class="st0" d="M1218.2,199.4c-8.1-1.6-15.9-5.2-22.4-10.3c-1.1-0.9-2.1-1.8-3.4-2.3c-1.5-0.7-3.2-0.8-4.8-0.8
		c-6.3-0.2-12.6,0.2-18.9,1.3"/>
</g>
<g>
	<path class="st0" d="M1164.3,187.7c-6.3-0.9-12.8,0.4-18.4,3.4c-2.7,1.5-5.3,3.5-8.3,4.1c-2,0.4-4.1,0.2-6.2,0.3
		c-6.7,0.4-12.8,4-18.5,7.5"/>
</g>
<g>
	<path class="st0" d="M1222.3,191.8c-7.7,1.2-15.9-0.9-22-5.7c-2.2-1.7-4.1-3.8-6.6-5c-1.8-0.9-3.8-1.3-5.7-1.7
		c-5.5-1.2-11.6-2.3-16.7,0.2"/>
</g>
<g>
	<path class="st0" d="M1209.2,186.1c-7.1-5.7-15.1-10.4-23.5-13.9"/>
</g>
<g>
	<path class="st0" d="M1210.8,181.4c4.9,0.5,9.8-0.3,14.7,0.1s10.1,2.1,12.6,6.3"/>
</g>
<g>
	<path class="st0" d="M1225.8,179c-2.9-3.4-5.8-6.9-8.7-10.3c-1.4-1.7-2.8-3.3-4.4-4.8c-2.7-2.5-6-4.5-9.5-5.8"/>
</g>
<g>
	<path class="st0" d="M1218.1,178.2c-4.8-4.6-10.8-8.1-17.2-9.8"/>
</g>
<g>
	<path class="st0" d="M1206.3,178.6c-6.3-2.2-9.2-9.6-14.8-13.1c-4-2.6-9.4-2.9-13.7-1"/>
</g>
<g>
	<path class="st0" d="M1169.7,167.3c-4.5,1.3-8.9,3.2-12.9,5.7"/>
</g>
<g>
	<path class="st0" d="M1152.8,174.5c1.9-4.2,5.6-7.4,10-8.8"/>
</g>
<g>
	<path class="st0" d="M1169,153.1c-2.6,1.3-5.3,2.6-7.9,3.9c-2.2,1.1-4.7,2.4-5.5,4.8c-0.4,1-0.4,2.1-0.9,3c-0.6,1-1.6,1.5-2.6,2.2
		c-6.3,4.1-10,12.3-17.3,13.9"/>
</g>
<g>
	<path class="st0" d="M1129.8,184c-3.5-0.6-7.2-1.3-10-3.5c-1-0.8-1.9-1.8-2.9-2.7c-3-2.9-6.7-5-10.7-6"/>
</g>
<g>
	<path class="st0" d="M1121.8,178.6c3.1-0.7,6.5,0,9,1.9"/>
</g>
<g>
	<path class="st0" d="M1159.9,181c-18.4,6.9-38.6,10.2-54.6,21.7"/>
</g>
<g>
	<path class="st0" d="M1097.3,196.3c-2.6,0.5-4.9,1.7-7.5,2c-4.6,0.5-8.8-2.1-12.7-4.6"/>
</g>
<g>
	<path class="st0" d="M1091.3,187.8c-6.5,0.3-13,1.2-19.4,2.6"/>
</g>
<g>
	<path class="st0" d="M1068.8,189.8c-4.8-1.3-8.5-6.2-13.5-5.7c-1.3,0.1-2.6,0.7-3.9,1.1c-4.1,1.3-8.4,1.3-12.7,1.4"/>
</g>
<g>
	<path class="st0" d="M1121.3,218c-4.2-0.7-8.2,1.6-12.2,2.9c-10.7,3.6-22.4,0.6-33.3-2.4"/>
</g>
<g>
	<path class="st0" d="M1091.1,216.9c-7.5-2.5-15.5-2.9-23.4-3.2c-12.2-0.6-24.3-1.2-36.5-1.8"/>
</g>
<g>
	<path class="st0" d="M1144.8,244.5c-16.1,0-32.2,0-48.2,0c-4.3,0-8.7,0-12.7,1.5"/>
</g>
<g>
	<path class="st0" d="M1109.3,238.3c-10-0.4-20.1,0-30,1.2"/>
</g>
<g>
	<path class="st0" d="M1071.3,240.5c-9-1.6-18-3.1-27.1-3.4c-15.6-0.5-31.1,2.8-46.4,6c-35.3,7.4-70.6,14.8-105.9,22.3"/>
</g>
<g>
	<path class="st0" d="M1017.8,249.2c-8-1-16.1-0.4-23.8,1.9c-5.8,1.7-11.3,4.3-17.3,5.4c-4.9,0.8-9.8,0.6-14.8,0.7
		c-17.1,0.4-33.9,5-50.4,9.6"/>
</g>
<g>
	<path class="st0" d="M994.3,255.5c-4.1,0.1-8.2,1-12,2.6"/>
</g>
<g>
	<path class="st0" d="M987.8,264c11.2-4.2,23.1-6.8,35-7.5"/>
</g>
<g>
	<path class="st0" d="M989.3,267.2c6.5-1.2,13-2.4,19.5-3.6"/>
</g>
<g>
	<path class="st0" d="M1018.8,263.1c7.8-0.3,15.7-0.7,23.5-1"/>
</g>
<g>
	<path class="st0" d="M1051.8,261.9c23.5,0.5,47,0.4,70.5-0.5"/>
</g>
<g>
	<path class="st0" d="M1105.8,257c-2.7,0-5.3,0-8,0"/>
</g>
<g>
	<path class="st0" d="M1106.8,251c-4.5-0.2-9-0.2-13.5,0.2"/>
</g>
<g>
	<path class="st0" d="M1080.3,253.5c-8,0-16,0-24,0"/>
</g>
<g>
	<path class="st0" d="M1065.3,248.5c-10.9-0.3-21.7-1.2-32.5-2.6"/>
</g>
<g>
	<path class="st0" d="M1080.3,256.6c-15.3,0.1-30.7,0.6-46,1.3"/>
</g>
<g>
	<path class="st0" d="M1129.3,265c5.8,0,11.7,0,17.5,0"/>
</g>
<g>
	<path class="st0" d="M1123.8,256.6c6.7,0.1,13.3,0.5,20,1.1"/>
</g>
<g>
	<path class="st0" d="M1120.3,249.2c5.5-0.4,11-0.4,16.5-0.2"/>
</g>
<g>
	<path class="st0" d="M970.8,260.3c-3.9,0.5-7.8,1.4-11.5,2.7"/>
</g>
<g>
	<path class="st0" d="M901.9,252.7c7.6-3.5,15.2-7,23.2-9.2c4-1.1,8.2-2,12.1-3.7c3.5-1.5,6.7-3.7,10-5.6
		c10.7-6.2,22.8-9.7,34.7-13.2"/>
</g>
<g>
	<path class="st0" d="M1128.8,200.4c-7.5,4.7-16.4,6.4-25.2,6.9c-8.8,0.5-17.6-0.1-26.4,0.4"/>
</g>
<g>
	<path class="st0" d="M1093.8,204.9c-5,1.2-10.1-1.1-15.1-2.3c-6.5-1.6-13.2-1.2-19.9-0.9"/>
</g>
<g>
	<path class="st0" d="M1069.7,208.9c-4.4,0.8-9.1-0.1-13-2.3c-2.1-1.2-4-2.9-6.4-3.3c-5.4-0.9-10.1,4.8-15.5,4.2"/>
</g>
<g>
	<path class="st0" d="M1045.3,201.9c-9.4,2.6-19.3,3.5-28.9,2.5"/>
</g>
<g>
	<path class="st0" d="M1054.3,198c-2.1-0.5-4.3-0.7-6.5-0.5"/>
</g>
<g>
	<path class="st0" d="M1053.3,193c-4,0-8-0.4-12-1.1"/>
</g>
<g>
	<path class="st0" d="M1038.7,195.6c-18.1,2.3-36.7,4.6-54.5,0.4c-3.6-0.8-7.1-1.9-10.8-1.8c-5.7,0.3-10.8,3.5-15.5,6.8"/>
</g>
<g>
	<path class="st0" d="M953.3,204.6c-14.5,3.9-25.6,17.5-40.6,18.9"/>
</g>
<g>
	<path class="st0" d="M897.7,223.6c-8.6,0.9-16.5,4.6-24.5,7.8c-18,7.2-37.8,11.8-56.7,7.8c-11-2.3-21.6-7.5-32.8-6.9"/>
</g>
<g>
	<path class="st0" d="M993.9,219.7c7.9-3.9,16.1-7.8,24.9-8c5.3-0.1,10.6,1.2,15.8,2.3c11.4,2.4,23,3.8,34.7,4.3"/>
</g>
<g>
	<path class="st0" d="M1006.3,211.1c-8.5-1.3-16.9-3.5-24.9-6.7"/>
</g>
<g>
	<path class="st0" d="M1001.8,205.1c-6-0.1-11.3-3.8-17.1-5.3c-8.3-2.2-17.2,0.1-24.9,3.9c-7.7,3.8-14.6,9-22.1,13.1
		c-11.3,6.3-23.8,10.1-36.2,13.8c-15.5,4.7-31,9.4-46.5,14.2"/>
</g>
<g>
	<path class="st0" d="M994.4,211.3c-6.2-3.1-13.5-2.8-20.2-1.2c-6.7,1.6-13.1,4.3-19.7,6.1c-5.3,1.4-10.8,2.2-15.9,4.1
		c-7.1,2.7-13.1,7.4-19.8,11c-13.4,7.3-28.9,10-44,12.5"/>
</g>
<g>
	<path class="st0" d="M893.7,249.1c17.8-5.5,34.9-13,50.9-22.3c3.8-2.2,7.6-4.6,11.8-5.8c4.3-1.3,8.9-1.3,13.4-1.7
		c8.1-0.8,16.2-2.8,23.6-6.1"/>
</g>
<g>
	<path class="st0" d="M1035.5,228.2c-19.4,8.8-41.6,7.9-62.2,13.2c-8,2.1-15.7,5-23.7,6.9c-13,3-27.1,3.1-38.2,10.5"/>
</g>
<g>
	<path class="st0" d="M1046.9,227.9c22.8,3.3,45.9,4.7,68.9,4.1"/>
</g>
<g>
	<path class="st0" d="M1105.3,186c6-0.2,12-0.2,18,0.2"/>
</g>
<g>
	<path class="st0" d="M1115.3,182.8c-5.9,0.4-11.4-3.4-17.3-3.9c-5.5-0.5-10.7,1.8-15.7,4.3"/>
</g>
<g>
	<path class="st0" d="M1082.2,179.3c5.4-3.4,11.4-5.9,17.6-7.2"/>
</g>
<g>
	<path class="st0" d="M1110.4,168.3c2.8-0.8,5.4-2.2,8-3.5c4.1-2.1,8.4-3.9,12.7-5.5c1.5-0.5,3-1.1,4.5-1.2c1.7-0.2,3.5,0,5.2-0.1
		c2.8-0.1,5.6-1,8-2.6"/>
</g>
<g>
	<path class="st0" d="M1126.7,171.4c3.1-2.9,7.4-4.3,11.6-3.9"/>
</g>
<g>
	<path class="st0" d="M1157.7,153.7c6.3-3.2,12.1-7.2,17.5-11.7c0.7-0.6,1.5-1.3,2.4-1.7c1.9-0.9,4.3-0.4,5.8,1.1"/>
</g>
<g>
	<path class="st0" d="M1207.8,148.2c6.5,0.6,12.6,3.9,16.6,9c1.9,2.5,3.8,5.6,6.9,5.9"/>
</g>
<g>
	<path class="st0" d="M1235.9,132.7c-3.5,1.3-7,2.7-10,4.8c-3,2.2-5.5,5.3-6.1,9"/>
</g>
<g>
	<path class="st0" d="M1227.4,150.7c1.3,0.9,3.3,0.2,4.3-1s1.3-2.9,1.6-4.5c0.3-1.6,0.8-3.2,2-4.3"/>
</g>
<g>
	<path class="st0" d="M919.3,219.6c-4.5-0.6-9-1.1-13.5-1.7"/>
</g>
<g>
	<path class="st0" d="M926.8,213.6c-7.7-0.7-15.3-1.4-23-2.1c-4.4-0.4-9-0.8-13,1.1"/>
</g>
<g>
	<path class="st0" d="M929.8,206.4c-12.8,1.2-25.6-6.3-38.1-3.3c-7.6,1.8-14.3,7.3-22,7.1c-6-0.2-11.4-3.9-17.4-4.7
		c-7.1-1-14.1,2.2-21.3,2c-6.4-0.2-12.4-3-18-5.9c-5.6-3-11.3-6.2-17.6-7.3c-6.3-1.1-13.4,0.3-17.4,5.3"/>
</g>
<g>
	<path class="st0" d="M758.8,199.7c4.6-0.8,9.3-1.2,14-1.3"/>
</g>
<g>
	<path class="st0" d="M878.2,215.1c-14-1.3-28.1-0.9-42,1.1c-5.9,0.9-12,2-17.6,0c-2.7-1-5.1-2.6-7.7-3.8
		c-12.6-5.8-27.1-0.2-40.6,2.8c-17.9,4-36.9,3.1-54.4-2.5c-12.2-3.9-25.4-10.1-37.2-5.1"/>
</g>
<g>
	<path class="st0" d="M682.7,206.7c-6.2,0.9-12.7,1.8-18.8,0c-3.6-1-6.9-3-10.3-4.6c-7-3.4-14.6-5.5-22.3-6.3
		c-3.6-0.4-7.4-0.4-10.8,0.8c-2.4,0.9-4.6,2.3-6.7,3.7c-8.1,5.4-16.1,10.9-24.2,16.3"/>
</g>
<g>
	<path class="st0" d="M860.5,224c-15.7,2.9-32.3,5.8-47.4,0.3c-3.4-1.2-6.7-2.9-10.2-3.3c-6-0.7-11.8,2-17.5,3.9
		c-23.5,8-49.5,2.9-72.8-5.7c-4.3-1.6-8.6-3.3-13.1-4c-8.6-1.3-17.4,1-26,0c-10.7-1.3-20.1-7.5-30.5-10.4
		c-17.6-5-37.7,0.6-50.3,13.8"/>
</g>
<g>
	<path class="st0" d="M758.2,235.3c-9.4-1-18.8-1.9-28.2-2.9c-7.7-0.8-15.4-1.6-22.8-4c-3-1-5.9-2.2-9.1-2.7
		c-4.7-0.7-9.5,0.5-14.2,0.5c-8.7-0.1-16.8-4.1-24.7-7.9c-11.8-5.6-24.5-10.6-37.5-9.2c-18.8,2.2-34.8,17.8-53.6,16.5"/>
</g>
<g>
	<path class="st0" d="M871.3,223c7.3,0.1,14.7-2.1,20.7-6.3"/>
</g>
<g>
	<path class="st0" d="M959.2,192.9c-4,3.6-9.3,5.6-14.7,6.3c-5.4,0.8-10.8,0.4-16.2-0.3c-5.3-0.6-10.8-1.5-15.5-4.2"/>
</g>
<g>
	<path class="st0" d="M916,201.4c-7.3-6.2-18-5.2-27.6-4.4c-10,0.9-20,1.3-30,1.3c-13.9-0.1-28.2-1.1-40.8-7
		c-4.4-2.1-8.6-4.7-13.4-6c-11.7-3.2-23.7,2.5-35.5,5.6c-8.9,2.3-18.2,3.1-27.3,2.4c-10.9-0.9-21.7-3.9-32.7-3.8
		c-16.9,0.2-34,7.8-50.1,2.6c-5.2-1.7-9.9-4.7-15.2-5.9c-7.8-1.8-16.3,0.4-22.2,5.8"/>
</g>
<g>
	<path class="st0" d="M629,192.3c6.7-3.8,14.8,1.2,21.7,4.5c6.5,3.1,13.7,4.8,21,4.8c6.5,0.1,12.9-1.1,19.3-1.8
		c18.8-2.1,38.1-0.1,56.1,5.8"/>
</g>
<g>
	<path class="st0" d="M840.7,248.7c-7.9-1.5-15.8-3.1-23.7-4.6c-4.5-0.9-8.9-1.7-13.4-2.4c-6.4-0.9-13.1-1.4-19.3,0.2"/>
</g>
<g>
	<path class="st0" d="M863.3,246.9c-3,0.6-6,1.2-8.9,1.9"/>
</g>
<g>
	<path class="st0" d="M885.3,247.4c-2,0.4-4,0.8-6,1.2"/>
</g>
<g>
	<path class="st0" d="M889.7,253.8c-21.4,5-43.2,8.5-65,10.4c-3,0.3-6.1,0.5-9-0.5"/>
</g>
<g>
	<path class="st0" d="M896.8,260.4c-15.9,2.5-31.9,3.9-48,4.2"/>
</g>
<g>
	<path class="st0" d="M946.3,262.6c-7.5,2.2-15.2,3.4-23,3.5"/>
</g>
<g>
	<path class="st0" d="M878.7,250.2c-35.3,5.1-71.1,5.4-106.8,5.6c-16.6,0.1-33.4,0.2-49.7-3c-12.9-2.5-25.3-7-38.2-9.1
		c-4.3-0.7-8.7-1.1-12.8-2.3c-4.2-1.3-8.1-3.4-12.2-5.1c-14.5-5.8-30.9-4.7-46.3-2.1c-15.5,2.5-30.9,6.4-46.5,5.9
		c-6.2-0.2-12.8-1.1-18.2,1.8"/>
</g>
<g>
	<path class="st0" d="M830.2,251.5c-9.7-2.3-19.5-4.6-29.4-4.2c-6.7,0.3-13.2,1.9-19.8,3c-20.9,3.4-42.6,1.6-62.6-5.2
		c-6.5-2.2-12.8-4.9-19.5-6.2c-10.4-2.1-21.3-1-31.4-4.1c-7-2.2-13.4-6.3-20.7-7.2c-4.3-0.6-8.7,0-12.9-1.1c-5-1.4-9.2-5.2-14.4-5.6
		c-3.4-0.3-6.7,0.9-9.9,2.1c-16.6,5.8-33.8,9.8-51.3,11.7"/>
</g>
<g>
	<path class="st0" d="M772.1,242.1c-16,2.5-32.5,1.5-48.2-2.7c-7.6-2.1-15-4.9-22.7-6c-6.6-1-13.4-0.7-20.1-1.5
		c-21-2.6-40.1-16-61.2-15.2c-11.9,0.4-23.1,5.3-34.7,8.1c-25.1,5.9-52.1,1.4-76.8,9"/>
</g>
<g>
	<path class="st0" d="M780.3,260c-37.2,4.1-74.8-4.3-110.3-16.3c-10.4-3.5-20.8-7.3-31.7-8.5c-10.3-1.1-20.6,0.3-30.8,1.7
		c-22,2.9-44,5.9-66.1,8.8"/>
</g>
<g>
	<path class="st0" d="M758.2,265.4c-39.9-4.9-79.3-13.4-118.6-22c-10.3-2.2-20.6-4.5-31.1-4c-14.6,0.7-28.6,6.6-43.1,7.6"/>
</g>
<g>
	<path class="st0" d="M972,191.8c-14-4.2-28.2-8.4-42.8-8.4c-2.8,0-5.6,0.2-8.3,0.8c-2.6,0.6-5,1.7-7.5,2.6
		c-6.3,2.1-13.1,2.7-19.6,1.6"/>
</g>
<g>
	<path class="st0" d="M966.8,187.7c3.4,0.6,6.7,1.1,10.2,1.1c4.1,0,8.6-0.7,12,1.6"/>
</g>
<g>
	<path class="st0" d="M892.3,194.4c-5.7-1.9-11.7-3.8-17.6-2.6c-2.9,0.6-5.7,2-8.6,2.6c-4,0.9-8.2,0.2-11.8-1.7
		c-2.8-1.5-5.1-3.8-8.1-4.8c-3.2-1.1-6.7-0.5-10.1-0.6c-8.3-0.1-16-3.8-23.5-7.4"/>
</g>
<g>
	<path class="st0" d="M836.4,183.5c2.9-1.5,6.4-1.3,9.6-0.4c3.1,0.9,6,2.5,8.9,4c1,0.5,2,1,3.2,1.1c1,0.1,2.1,0,3.1-0.1
		c5.1-0.6,10.2-0.6,15.3-0.1"/>
</g>
<g>
	<path class="st0" d="M912.8,182.7c-8,0.8-15.7-2.7-23.7-3.1c-7.9-0.4-15.7,2.4-23.5,1.6c-3.4-0.3-6.6-1.3-9.9-2.3
		c-10.6-3.3-21-7.1-31.2-11.3"/>
</g>
<g>
	<path class="st0" d="M938.9,176.4c5.1,1.6,9.8,4.3,13.8,7.7"/>
</g>
<g>
	<path class="st0" d="M904.8,177.3c-5.9-1.3-12.1-1.4-18-0.3"/>
</g>
<g>
	<path class="st0" d="M880.1,176.6c-4.3-1.5-8.6-3-12.9-4.5c-5.7-2-11.6-4-17.5-2.9"/>
</g>
<g>
	<path class="st0" d="M877.2,172c-8.2-2.6-15.8-8.4-24.4-7.9"/>
</g>
<g>
	<path class="st0" d="M883.9,166.6c-7.2-2.6-14.4-5.3-21.7-7.9c-3.7-1.4-7.8-2.7-11.4-1.1c-2,0.9-3.7,2.6-5.9,2.8
		c-1.2,0.1-2.4-0.3-3.6-0.7c-3.5-1.2-7-2.4-10.6-3.6"/>
</g>
<g>
	<path class="st0" d="M810.4,158c9.5,1.9,18.7,5.2,27.3,9.7"/>
</g>
<g>
	<path class="st0" d="M874.2,157.8c-5.5-1.7-11.1-3.5-16.6-5.2c-2-0.6-4-1.2-6-0.7c-1.4,0.3-2.6,1.2-4,1.8c-2.8,1.2-6,1.1-8.7-0.3"
		/>
</g>
<g>
	<path class="st0" d="M869.1,150.7c-6-5.6-14.6-8.2-22.7-7.1c-1.6,0.2-3.2,0.6-4.8,0.3c-1.1-0.2-2.1-0.8-3.2-1.3
		c-2.6-1.2-5.4-1.6-8.3-2.1c-7.1-1.2-14.2-2.5-21.3-3.7"/>
</g>
<g>
	<path class="st0" d="M808.9,146c4.3,1.1,8.6,2.4,12.8,4c1.6,0.6,3.2,1.3,5,1.2c1.1,0,2.2-0.4,3.2-0.6c3.4-0.8,7-0.9,10.4-0.2"/>
</g>
<g>
	<path class="st0" d="M806.7,151.1c-2.8-0.6-5.7-1.3-8.5-1.9c-1.2-0.3-2.3-0.5-3.5-0.4c-0.8,0.1-1.6,0.5-2.4,0.7
		c-2.6,0.7-5.4,0.1-7.9-0.9c-2.5-1-4.9-2.3-7.5-3.1c-2.3-0.7-4.8-1-7.2-1.2"/>
</g>
<g>
	<path class="st0" d="M748.6,132.2c8.6,3.7,17.8,5.9,27.2,6.3c4.6,0.2,9.3,0,13.9,0.5c4.6,0.5,9.3,1.9,12.8,4.9"/>
</g>
<g>
	<path class="st0" d="M801.1,138.4c-9.1-3-18.2-6.1-27.3-9.1c-3.3-1.1-6.7-2.2-10.1-2.2c-1.8,0-3.6,0.3-5.4,0.7
		c-1.9,0.3-3.9,0.7-5.8,1"/>
</g>
<g>
	<path class="st0" d="M794.4,174.3c-5.3-0.5-10.8-1.1-16,0c-4,0.8-7.8,2.6-11.9,3.3s-8.7,0.4-11.6-2.5"/>
</g>
<g>
	<path class="st0" d="M744.7,183.1c-4.2,4.5-11.5,4-17.3,2s-11.6-5-17.7-4.6c-3.2,0.2-6.2,1.4-9.4,2c-6.9,1.4-14.1,0.3-21-1.3
		c-4.5-1.1-9.1-2.4-13.6-1.6c-5.4,1-10.5,5.2-15.9,4"/>
</g>
<g>
	<path class="st0" d="M646.4,180.1c4.5-2.7,8.9-5.4,13.4-8.1c1.8-1.1,3.7-2.2,5.8-2.9c6.1-2,12.7,0.3,18.7,2.9s12.1,5.5,18.5,4.7
		c4.3-0.5,8.2-2.8,12.3-4.3c4.1-1.6,8.8-2.5,12.7-0.6c2.2,1.1,3.9,3,6,4.3c3.8,2.3,8.6,2.3,13.1,2.3"/>
</g>
<g>
	<path class="st0" d="M622.9,191.1c-12.2,7-23.8,15.1-34.7,23.9"/>
</g>
<g>
	<path class="st0" d="M584.1,216.5c-5,0.6-10,0.9-15,0.8c-5.1-0.1-10.5-0.4-14.8,2.2"/>
</g>
<g>
	<path class="st0" d="M598.7,202.6c-6,0.9-11.9,1.7-17.9,2.6c-11.7,1.7-23.7,3.4-35.4,1.6c-20.6-3.2-39.5-17-60.3-15.2"/>
</g>
<g>
	<path class="st0" d="M492.6,189.5c3.8-2.7,8.6-4.1,13.3-3.7c8.8,0.6,16.4,6.9,25.2,7.8c12.4,1.3,23.5-8,35.9-9.5
		c4.8-0.6,9.6,0,14.3,0.6c1.7,0.2,3.4,0.4,5,0c3.6-0.9,6.1-4.6,9.8-4.8c3.6-0.2,6.3,3.1,9.5,4.7c2.7,1.4,5.9,1.5,9,1.5
		c8.2,0,16.5-1,24.5-3"/>
</g>
<g>
	<path class="st0" d="M664.9,164.8c-5.3-1.8-11.2-1.7-16.4,0.3c-5.3,2.1-9.8,6.1-15.3,7.8c-7.1,2.1-14.9,0-22,1.9
		c-2.3,0.6-4.9,1.7-7,0.5c-1-0.6-1.7-1.5-2.5-2.4c-4.6-5.2-12.4-6.5-19.2-5.2s-13,4.6-19.4,7.4c-4.2,1.8-8.6,3.4-13.1,3.4
		c-6.7,0-12.8-3.5-19.2-5.1c-6.5-1.6-13.3-1.1-19.9-0.7c-11.7,0.8-23.5,1.5-34.9,4.4"/>
</g>
<g>
	<path class="st0" d="M733.7,264.5c-13.1-0.8-26.1-2.9-38.8-6.4c-5.7-1.5-11.4-3.3-17.1-4.8c-10.7-2.6-21.6-3.8-32.5-4.9
		c-15.9-1.7-31.8-3.2-47.7-2.8c-21.8,0.5-43.3,4.7-64.7,8.8"/>
</g>
<g>
	<path class="st0" d="M725.5,267.8c-13.9-3.7-27.9-7.4-42.2-9.2c-6.2-0.8-12.5-1.2-18.6-2.6c-4.5-1-8.8-2.6-13.3-3.6
		c-6.8-1.6-13.8-2-20.8-2.2c-32.7-1.1-65.5,1-97.8,6.4"/>
</g>
<g>
	<path class="st0" d="M714.3,269.1c-23.7-1.9-46.8-8.7-70.5-11c-16.3-1.6-32.8-1.1-49.2-0.6c-17.4,0.5-34.8,1.1-52.2,1.6
		c-28.8,0.9-57.8,1.8-85.9,7.9"/>
</g>
<g>
	<path class="st0" d="M490.4,268.9c67.2-8.3,135.8-14.2,202.1-0.6"/>
</g>
<g>
	<path class="st0" d="M435.7,265c-17-3.1-34.1-5.4-51.3-6.8"/>
</g>
<g>
	<path class="st0" d="M386.1,262.3c15.1,3,31.3,0.9,45.7,6.6"/>
</g>
<g>
	<path class="st0" d="M448.7,263.6c-10.8-1.2-21.5-2.5-32.3-3.7c-3.8-0.4-7.7-0.9-11.4-1.7c-4.9-1.1-9.6-3-14.5-4.2
		c-8.4-2.1-17.2-2.5-25.7-1"/>
</g>
<g>
	<path class="st0" d="M382.4,251c2.3-0.5,4.7-0.7,7-0.6"/>
</g>
<g>
	<path class="st0" d="M403.4,251.6c9.2,1.3,18,4.4,27,6.8c9,2.3,18.4,3.9,27.5,2.1"/>
</g>
<g>
	<path class="st0" d="M526.1,256.7c-15.5-0.7-31,0.2-46.3,2.6"/>
</g>
<g>
	<path class="st0" d="M474.4,256.8c16.4-3.5,33.3-4.9,50-4"/>
</g>
<g>
	<path class="st0" d="M536.7,246.7c-18.2-0.9-36.5-1.8-54.6,0.1c-4.5,0.5-9.1,1.1-13.6,0.7c-4.9-0.5-9.6-2.2-14.4-2.8
		c-4.2-0.5-8.5-0.2-12.8-0.2c-13.9-0.1-27.9-3.9-39.8-11"/>
</g>
<g>
	<path class="st0" d="M412.4,228.3c11.4,4.3,23.4,8.8,35.5,7.7c6.1-0.5,12.3-2.3,18-0.3c2.8,1,5.1,2.8,7.7,4.2
		c7.2,3.7,15.7,3.2,23.8,2.8c13.3-0.6,26.6-0.7,39.9-0.4"/>
</g>
<g>
	<path class="st0" d="M549.1,236.4c-6.6-0.4-13.1,0.1-19.7,0.7c-5.7,0.5-11.6,1-16.9,3.2"/>
</g>
<g>
	<path class="st0" d="M501.1,236.7c-5.2-0.3-10.5-0.2-15.7,0.4"/>
</g>
<g>
	<path class="st0" d="M504.4,233.1c-8.8,1.4-18,0.5-26.5-2.4c-2.9-1-5.8-2.3-8.8-3c-4.6-1.1-9.3-0.8-14-0.5"/>
</g>
<g>
	<path class="st0" d="M455.8,232c-3.9-2.1-8.2-3.5-12.6-4.2"/>
</g>
<g>
	<path class="st0" d="M446.8,222.3c-20.8-4.5-40.5-12.9-60.5-20.1c-4.9-1.8-9.9-3.5-15.1-3.5c-8.1-0.1-15.7,3.7-23.8,4.5
		c-5.8,0.6-11.9-0.4-17.5,1.5c-2,0.7-3.8,1.8-5.8,2.5c-7.7,3.1-16.5,1.7-24.5-0.6c-8-2.3-15.9-5.5-24.2-5.9"/>
</g>
<g>
	<path class="st0" d="M272.1,201.4c-5,0.3-9,4.2-12.4,8c-7.1,7.9-14.1,16.3-23.4,21.4"/>
</g>
<g>
	<path class="st0" d="M522.1,228.7c-3.9-1.1-7.9-2.1-11.8-3.2c-4.4-1.2-9.2-2.4-13.5-0.7"/>
</g>
<g>
	<path class="st0" d="M561.4,225c-4.8,0.8-9.7,1.7-14.5,0.8c-3.5-0.6-6.9-2.1-10.3-3.3c-12.8-4.5-26.6-5.3-40.1-6"/>
</g>
<g>
	<path class="st0" d="M493.3,213.5c-13.8-6.3-27.6-12.6-42.3-16.5c-3.6-0.9-7.2-1.8-10.5-3.4c-3.8-1.9-6.9-4.8-10.6-6.8
		c-3.6-2-7.7-3.3-11.8-3.5c-2.7-0.2-5.5,0-8.2-0.4c-10.6-1.9-16.9-13.8-27.3-16.6c-5.6-1.5-11.6-0.1-16.9,2.3
		c-5.3,2.4-10,5.8-15.1,8.6c-6.6,3.6-13.8,6.2-21,8.7c-8,2.8-17.1,5.4-24.7,1.7c-5.7-2.8-10.3-9.1-16.6-8.4
		c-3.7,0.4-6.7,3.2-9.3,5.8"/>
</g>
<g>
	<path class="st0" d="M473.2,218c-16.4-1.5-29.3-16.8-45.8-17.5"/>
</g>
<g>
	<path class="st0" d="M504,231.3c-4.9-1.5-9.9-2.9-14.8-4.4c-1.4-0.4-2.9-0.8-4.3-0.8c-1.1,0.1-2.2,0.4-3.3,0.5
		c-4,0.5-7.8-1.5-11.5-3.3c-3.6-1.8-7.7-3.5-11.6-2.4"/>
</g>
<g>
	<path class="st0" d="M449.2,216.6c-10.9-3.1-20.7-9.3-31.2-13.8c-3.7-1.5-7.4-2.9-11-4.6c-6.9-3.3-13-7.8-19.9-11.2
		c-6.8-3.3-14.8-5.3-22-3.1c-5.7,1.8-10.4,6.1-16.3,7.4c-6.3,1.5-13.1-0.7-19.2,1.5c-2.8,1-5.1,2.8-7.9,3.9
		c-5.4,2.1-11.5,1-17.2-0.1"/>
</g>
<g>
	<path class="st0" d="M417.5,195c-6.4-1.2-12.3-4.7-16.3-9.8c-1.5-1.9-2.7-3.9-4.4-5.6c-3-3-7.2-4.5-11.4-5.4
		c-10.2-2.1-21.1-0.6-30.3,4.2"/>
</g>
<g>
	<path class="st0" d="M279.6,184.4c-13.7,17.4-32.4,32.1-54.2,35.6"/>
</g>
<g>
	<path class="st0" d="M290.8,194.7c-4.5-3.7-11.3-4.2-16.4-1.4"/>
</g>
<g>
	<path class="st0" d="M405,216.9c-8.2-3.1-16.4-6.2-24.6-9.4c-1.9-0.7-4-1.5-6-1.3c-3.3,0.3-5.8,3.1-8.8,4.7
		c-4.5,2.5-10,2.5-15.1,1.7c-5.1-0.8-10.1-2.3-15.2-2.6c-8.5-0.4-16.7,2.5-24.8,4.9c-8.1,2.3-17,4-24.9,1.1
		c-4.1-1.5-8.1-4.3-12.5-3.8"/>
</g>
<g>
	<path class="st0" d="M268.1,213.6c-3.1,0.7-5.8,2.7-8.3,4.6c-12.3,9.5-24.9,20.3-40.4,22.3"/>
</g>
<g>
	<path class="st0" d="M285.8,224.8c-3.9-0.2-7.8-0.2-11.6-0.2c-2.8,0-5.6,0-8.4,0.7c-6.8,1.5-12.2,6.4-17.3,11"/>
</g>
<g>
	<path class="st0" d="M248.7,241.8c3.3-1.8,6.7-3.7,10-5.5c2.9-1.6,5.8-3.2,8.9-4.4c17.1-6.8,37.7-1.4,54.1-9.8"/>
</g>
<g>
	<path class="st0" d="M303.4,230.6c-9.9-1.5-18.7,6.5-28.5,8.3c-3.7,0.7-7.5,0.5-11.2,0.8c-6.6,0.5-13.1,2.3-18.9,5.5"/>
</g>
<g>
	<path class="st0" d="M331,246.2c-4.4-1.8-9-3.1-13.6-4.3c-8-2.2-16-4.4-24.3-4.8"/>
</g>
<g>
	<path class="st0" d="M335.1,239.2c-1.5-0.5-3-1.1-4.5-1.6c-5-1.8-10.2-3.6-15.5-3.7"/>
</g>
<g>
	<path class="st0" d="M386.8,222.6c-7.8-1.7-15.4,3.2-23.4,4.4c-11.8,1.8-23.2-4.7-35-6.6c-8.8-1.5-18.1-0.4-26.3,3.1"/>
</g>
<g>
	<path class="st0" d="M397.1,233.2c-9.6-3.7-20.6-4-30.4-0.7c-2.3,0.8-4.6,1.7-7,1.9c-2.4,0.1-4.8-0.5-6.7-1.9"/>
</g>
<g>
	<path class="st0" d="M405.4,244.6c-5.8-2.9-11.7-5.8-18.1-6.7c-6.1-0.9-12.2-0.1-18.3,0.8c-6.7,0.9-13.5,1.9-20.2,2.8"/>
</g>
<g>
	<path class="st0" d="M381.4,243.9c-10.3,1-20.6,2-31,3"/>
</g>
<g>
	<path class="st0" d="M365.1,249.8c-6.3-0.7-12.7-0.7-19,0"/>
</g>
<g>
	<path class="st0" d="M392.8,246.4c3-0.5,6.2,0.2,8.7,1.9"/>
</g>
<g>
	<path class="st0" d="M368.4,257.4c-11.2-0.5-22.5-1.1-33.7-1.6c-5-0.2-9.9-0.5-14.9-0.2c-4.9,0.2-9.8,0.9-14.8,1.3
		c-6.9,0.5-13.8,0.2-20.6-0.7"/>
</g>
<g>
	<path class="st0" d="M330.4,250.3c-15.4,1.2-30.5-4-45.9-5.4c-14.9-1.4-30.1,0.7-44,6.1"/>
</g>
<g>
	<path class="st0" d="M286.8,251.6c-17.9-2.6-36.4-1-53.7,4.5"/>
</g>
<g>
	<path class="st0" d="M271.8,255.7c-13.1-0.9-26.4-0.1-39.4,2.2"/>
</g>
<g>
	<path class="st0" d="M264.1,259.4c-11.9-0.6-23.9,0.8-35.4,4.2"/>
</g>
<g>
	<path class="st0" d="M260.4,263.7c-12.1-1.2-24.4-0.4-36.3,2.4"/>
</g>
<g>
	<path class="st0" d="M286.4,263.3c5.5-0.9,10.9-1.9,16.4-2.8"/>
</g>
<g>
	<path class="st0" d="M314.5,259.1c17.8-1.1,35.8,0.8,53,5.6"/>
</g>
<g>
	<path class="st0" d="M358.2,266.6c-15.5-2-31.1-2.5-46.7-1.3"/>
</g>
<g>
	<path class="st0" d="M229.8,267.7c-2.2-0.1-4.5,0-6.7,0.4"/>
</g>
<g>
	<path class="st0" d="M478.1,175.5c6.5-3.9,13.4-7.3,20.4-10c1.1-0.4,2.3-0.9,3.4-0.8c1.5,0.1,2.8,0.9,4.1,1.6
		c4.8,2.6,10.3,4,15.7,3.9c8.7-0.1,16.9-3.8,25.3-6.5c8.3-2.6,17.8-4.1,25.5,0"/>
</g>
<g>
	<path class="st0" d="M595.8,164.4c6.3-2.1,13.5,0.7,19.7-1.6c1.6-0.6,3.1-1.5,4.7-2.2c2.4-1,5-1.3,7.6-1.3c2.9,0.1,6.3,1,7.5,3.6"
		/>
</g>
<g>
	<path class="st0" d="M681.1,153.5c-13.5-5.2-29.3-3.7-41.7,3.8"/>
</g>
<g>
	<path class="st0" d="M478.7,172.4c8.7-5.2,17.8-10.5,27.9-10.9c4.5-0.2,8.9,0.6,13.3,1.6c2,0.4,4.1,0.8,6,0.1
		c1.4-0.5,2.5-1.7,3.7-2.7c5.1-4.4,12-6.3,18.6-6.1c6.7,0.2,13.2,2.3,19.2,5.3"/>
</g>
<g>
	<path class="st0" d="M595.1,156.3c-8.7,0.2-17.5,0.4-26-1.6c-4.3-1-8.5-2.6-12.8-3.8c-5.8-1.6-11.8-2.5-17.9-2.9
		c-1-0.1-2.1-0.1-3.1,0.2c-1.3,0.4-2.2,1.5-3.2,2.4c-4.3,4-10,6.4-15.9,6.6c-8.1,0.3-16-3.5-24.1-2.9c-5.8,0.4-11.3,3-15.3,7.2"/>
</g>
<g>
	<path class="st0" d="M543.5,143.8c9.4-0.4,18.2-4.8,26-10.1c3.5-2.4,7.4-5.1,11.6-4.2c2.9,0.6,5.1,2.9,7.5,4.7
		c4,2.9,9.3,4.5,14,2.9c4.9-1.7,8.5-6.7,13.6-6.9"/>
</g>
<g>
	<path class="st0" d="M622.7,129.4c2.5-6.7,9.5-11.4,16.7-11.4c0.6,0,1.3,0.1,1.9,0.4c1.6,0.9,1.3,3.3,1.8,5
		c0.7,2.9,3.8,4.7,6.8,4.9s5.9-0.8,8.7-1.7c9-3,19.1-5.7,27.8-1.9c7.2,3.2,12.2,10.3,19.6,13.1c2.7,1,5.5,1.3,8.2,2
		c4.2,1,8.3,2.6,12.1,4.9"/>
</g>
<g>
	<path class="st0" d="M690.4,141.4c-10.8-10.3-27.6-13.8-41.6-8.5c-0.8,0.3-1.7,0.6-2.5,0.4c-1.1-0.3-1.6-1.5-2.4-2.3
		c-2.1-2.4-6-2.5-8.9-1.2s-5.3,3.6-7.8,5.6c-4.1,3.2-8.8,5.6-13.9,6.3c-6,0.9-12.5-0.4-18.1,2.1c-5.1,2.3-9.1,7.8-14.7,7.6"/>
</g>
<g>
	<path class="st0" d="M586.9,153.2c8.2-0.1,16.5-0.3,24.7-0.4c1.7,0,3.4-0.1,5-0.6c1.7-0.5,3.1-1.6,4.7-2.5
		c5.8-3.6,12.7-5.5,19.5-5.4c1.9,0,3.9,0.2,5.8-0.1c3.5-0.4,6.6-2.2,10-3c10.2-2.6,20.5,2.8,29.7,8.1"/>
</g>
<g>
	<path class="st0" d="M601,135.1c3-4.9,7.3-8.9,12.4-11.5c2.4-1.2,5.1-2.2,7-4.2c3.4-3.5,3.5-9.4,7.2-12.5c2.3-2,5.6-2.4,8.6-1.8
		s5.7,2,8.3,3.6c3.3,1.9,6.8,4.1,10.6,3.9c1.7-0.1,3.4-0.7,5-1.2c5.7-1.8,11.6-3.2,17.6-4c4.1-0.6,8.4-0.8,12.4,0.4
		c5.8,1.8,10.2,6.7,13.7,11.7s6.6,10.5,11.1,14.5c1.9,1.7,4.2,3.2,6.7,3.5c2.6,0.3,5.4-0.9,6.4-3.2c4.5,4.5,10.1,7.9,16.2,9.7"/>
</g>
<g>
	<path class="st0" d="M591.3,133.6c3.3-2,6.4-4.2,9.5-6.4c1.3-1,2.6-2,3.5-3.3c1.2-1.8,1.5-3.9,2.1-6c2.3-8.1,8.3-14.8,15.7-19
		c7.3-4.1,15.8-5.9,24.2-6.1c6.4-0.2,13.2,0.6,18.3,4.5"/>
</g>
<g>
	<path class="st0" d="M578.8,128.9c-5.9-0.5-11.8-0.9-17.6,0.2c-2.8,0.6-5.6,1.5-8.3,2.5c-2.2,0.8-4.5,1.6-6.7,2.4"/>
</g>
<g>
	<path class="st0" d="M544.1,129.8c9.2,0,17.4-6.6,26.6-6.9c7-0.2,14,3.2,20.8,1.6c7.6-1.9,12.3-9.6,14.8-17.1
		c0.9-2.8,1.7-5.7,3.3-8.2c4.4-6.8,13.6-8.9,18.9-15.1c0.3-0.4,0.7-0.8,1.2-0.9c0.4,0,0.8,0.2,1.2,0.4c2.7,1.6,5.5,3.3,8.2,4.9"/>
</g>
<g>
	<path class="st0" d="M632.8,80.3c-6.3-2.1-13.3,1.1-17.9,5.9c-4.6,4.7-7.6,10.8-11.2,16.3c-3.6,5.5-8.4,10.8-14.8,12.5
		c-2.9,0.8-6,0.8-9,1.1c-7.7,0.8-15.1,3.6-21.3,8.2"/>
</g>
<g>
	<path class="st0" d="M544.6,123.6c12.1-6.6,24.1-13.7,33.7-23.5c1.7-1.7,3.5-3.7,5.8-4.3c2.4-0.6,5.4,1,5.3,3.4
		c4.7-7.5,10-15.5,18.3-18.6c3.7-1.4,8-1.7,11.2-4c1.1-0.8,2.1-1.8,3.4-2.3c1.3-0.5,3-0.1,3.5,1.1"/>
</g>
<g>
	<path class="st0" d="M617.3,73.8c-1.2-1.9-2.4-3.8-3.6-5.7c-0.3-0.4-0.6-0.9-1.1-0.9c-0.4,0-0.7,0.2-1,0.4
		c-1.2,0.9-2.3,1.8-3.5,2.8"/>
</g>
<g>
	<path class="st0" d="M614.6,65.8c3-5.1,6.4-10.1,9.9-14.8c2-2.7,4.2-5.4,7-7.4c2.3-1.6,5-2.7,7.3-4.3c6-4.3,8.7-11.7,11-18.7
		c3.3,2.9,6.6,5.7,9.9,8.6"/>
</g>
<g>
	<path class="st0" d="M668.1,36.3c-2.3-0.5-4.5-1.8-6.1-3.5c-0.5-0.5-0.9-1-1.5-1.3c-0.7-0.3-1.5-0.1-2.3,0.2
		c-6.5,2.3-10.2,9-14.9,14.1c-3.6,3.8-8.1,6.8-11.9,10.4c-3.9,3.6-7.3,8-8.1,13.2"/>
</g>
<g>
	<path class="st0" d="M632.5,78.7c3.5-3.8,6.1-8.3,9.3-12.3c4.6-5.9,10.2-10.9,15.8-15.9c13.3,12.6,26.5,25.3,39.7,38"/>
</g>
<g>
	<path class="st0" d="M688.9,96.2c-2.3-2.4-4.7-4.9-7-7.3c-0.5-0.6-1.1-1.2-1.9-1.4c-0.7-0.2-1.4,0-2.1,0.2c-3.8,1.1-7.8,3.7-11.3,2
		c-1.4-0.6-2.4-1.8-3.5-2.8c-5.8-5.1-15.6-4.6-21,1"/>
</g>
<g>
	<path class="st0" d="M649.4,81.3c2.2-1,4.3-1.9,6.5-2.9c0.5-0.2,1-0.4,1.5-0.4c0.8,0,1.5,0.6,2.1,1.2c4,3.5,9,6,14.2,7.1"/>
</g>
<g>
	<path class="st0" d="M691.2,98.7c2,1,3,3.2,4,5.2c5.1,9.5,14.3,15.9,23.2,22c2.2,1.5,4.8,3.1,7.4,2.5c0.9-0.2,1.8-0.6,2.7-0.5
		c0.8,0.1,1.4,0.7,2,1.2c2.9,2.7,5.9,5.4,8.8,8.1"/>
</g>
<g>
	<path class="st0" d="M746.7,137.1c-3-2.9-4.3-7.3-7.7-9.6c-4-2.7-9.4-1.7-14.1-3c-5.6-1.6-9.6-6.5-12.8-11.3
		c-3.2-4.8-6.4-10.1-11.3-13.1"/>
</g>
<g>
	<path class="st0" d="M703.8,109.6c9.7,4,19.4,8,29,11.9"/>
</g>
<g>
	<path class="st0" d="M724.7,115.1c-5.3-5.1-10.6-10.2-15.9-15.4c-1.8-1.7-3.6-3.5-5.7-4.7c-3.2-1.9-7-2.6-10.3-4.3
		c-3.4-1.8-6.2-4.7-7.8-8.1"/>
</g>
<g>
	<path class="st0" d="M736.4,118.1c3.9,0.7,7.7,2.3,11,4.6"/>
</g>
<g>
	<path class="st0" d="M705.8,153c2.5-2.6,6.6-4.6,9.7-2.6c1.1,0.7,1.8,1.8,2.6,2.8c4.1,4.9,10.9,7.1,17.3,6.9
		c6.4-0.1,12.6-2.3,18.5-4.8c2.2-0.9,4.6-2,7-1.9c1.9,0.1,3.7,0.8,5.5,1.6c16.3,7.3,32.1,16.7,49.8,18.6"/>
</g>
<g>
	<path class="st0" d="M821.4,168.9c-19.1-5.4-37.9-11.8-56.4-19c-1.3-0.5-2.6-1-4-1.1c-2.2-0.1-4.3,0.9-6.3,1.6
		c-9,3.2-18.9,2-28.4,0.7c-0.9-0.1-1.9-0.3-2.7-0.8c-0.6-0.4-1.1-1-1.7-1.6c-3.4-3.1-8.7-2-13.1-0.7"/>
</g>
<g>
	<path class="st0" d="M708.5,168.9c-13.2-3-25.9-10.4-39.4-9.2"/>
</g>
<g>
	<path class="st0" d="M543.1,215c-21.2-11.2-47.5-8.2-69.2-18.5"/>
</g>
<g>
	<path class="st0" d="M482.8,189.3c-4.6-2.4-10-3.1-14.6-5.4c-2.1-1.1-4-2.4-6-3.8c-3.6-2.6-7.3-5.1-10.9-7.7"/>
</g>
<g>
	<path class="st0" d="M450.8,177.3c-4.8-1.4-9.6-2.8-14.4-4.3"/>
</g>
<g>
	<path class="st0" d="M462.1,190c-10.2-2.1-19.8-6.3-29.4-10.5c-9-4-18.5-8.3-24.1-16.3c-2.1-3-3.6-6.4-6.1-9
		c-2.7-2.7-6.3-4.3-9.8-5.6c-6.3-2.3-12.8-4.2-19.4-5.4c-4.3-0.8-9-1.3-12.6,1.2c-2.6,1.8-4,4.8-5.9,7.3
		c-6.3,8.4-17.8,10.8-28.3,11.6"/>
</g>
<g>
	<path class="st0" d="M412.1,174.5c-8.4-3.9-16.5-8.6-24-14.1c-2.4-1.8-4.9-3.7-7.9-4.3c-4.6-1-9.2,1.3-13.4,3.4
		c-9,4.5-18.3,8.6-28.1,10.7c-5.2,1.1-10.7,1.7-16,0.6"/>
</g>
<g>
	<path class="st0" d="M316.1,168.7c-3.7-0.3-7.3,1.6-10.4,3.6c-3.2,2-6.4,4.2-10.1,4.8"/>
</g>
<g>
	<path class="st0" d="M293.9,175.2c19-11.2,37.4-23.1,55.4-35.9c3.4-2.5,6.9-5,11-6.2c9.3-2.9,19.2,1.5,27.1,7"/>
</g>
<g>
	<path class="st0" d="M406.7,131.2c-6.5,1.7-13.4-0.7-19.7-3c-5-1.9-10-3.8-14.6-6.5c-1.9-1.1-3.8-2.4-5.9-3.3
		c-2.3-1-4.8-1.6-7.4-1.7c-2.5-0.1-5.1,0.4-6.8,2.2c-1,1.1-1.6,2.7-2.4,4c-1.7,2.9-4.8,4.9-7.7,6.7"/>
</g>
<g>
	<path class="st0" d="M366,128.5c-5-3.1-12-3.8-16.5,0c-2.8,2.3-4.1,5.9-6.6,8.5c-2.1,2.2-4.9,3.7-7.9,4.1c-2.1,0.3-4.3,0.1-6.5,0.4
		c-6.4,0.8-11.5,5.6-15.9,10.4c-4.4,4.7-8.6,9.7-12.5,14.8"/>
</g>
<g>
	<path class="st0" d="M362.7,108.2c-3.4,1.6-6.5,3.7-9.2,6.2c-1.7,1.6-3.3,3.4-5.3,4.5c-4.7,2.6-10.5,1.1-15.8,1.7"/>
</g>
<g>
	<path class="st0" d="M400.3,118.8c7.8,8.8,16.2,17.2,25.2,24.9"/>
</g>
<g>
	<path class="st0" d="M418.4,130.7c1.3,2.4,3.3,4.4,5.8,5.6"/>
</g>
<g>
	<path class="st0" d="M411.1,120.2c4.2,3.3,9.3,5.2,14.1,7.4c4.9,2.2,9.8,4.8,13,9.1"/>
</g>
<g>
	<path class="st0" d="M450.5,136.8c-2.7-0.2-5-2.1-6.8-4.1c-1.7-1.7-3.3-3.6-4.8-5.5c-1.5-2-3-4.1-4.8-5.9c-3-2.8-7-4.3-10.8-5.7"/>
</g>
<g>
	<path class="st0" d="M463.3,136.6c7.1-1.1,14.3-2.3,21.5-1.7c7.2,0.6,14.5,3.1,19.5,8.2c1.1,1.1,2.2,2.4,3.7,2.4
		c0.8,0,1.5-0.3,2.2-0.6c2.6-1.1,5.2-2.2,7.8-3.4"/>
</g>
<g>
	<path class="st0" d="M536.4,136.6c-3.1,1.3-6.1,2.9-8.9,4.8"/>
</g>
<g>
	<path class="st0" d="M508.3,182.5c-3.1-1.7-6.7-3.5-10.2-2.5c-1.5,0.5-2.9,1.5-4.4,2.1c-1.8,0.8-3.7,1-5.7,1.2c-3,0.3-6,0.6-9,0.3
		c-5.9-0.5-11.3-3.2-16.6-5.9"/>
</g>
<g>
	<path class="st0" d="M517.1,184.4c8.3-0.9,16.3,4.2,24.7,4"/>
</g>
<g>
	<path class="st0" d="M547.5,197.5c3.5,0.6,7.2,0.3,10.6-0.7c1.6-0.5,3.3-1.1,5-1c2.1,0.1,4,1.4,5.9,2.1c5.8,2.3,12.4,0.3,18.4-1.3
		c10.5-2.8,21.2-4.7,32-5.6"/>
</g>
<g>
	<path class="st0" d="M251.7,212.3c-5.4,8.9-15.4,13.9-25.4,16.8c-10,2.9-20.8,4-30.8,1c-9.3-2.8-17.2-8.8-25.8-13.4
		c-12.1-6.4-25.7-9.9-37.6-16.7c-5.7-3.2-10.9-7.2-16.7-10.1s-12.6-4.7-18.9-3.1c-5.8,1.4-11.4,5.6-17.2,4.2"/>
</g>
<g>
	<path class="st0" d="M233.2,230.4c-8.7,3.6-18.4,4.6-27.8,4.5c-9.2-0.1-18.4-1.1-27-4.2c-3.8-1.3-7.4-3.1-11-4.8
		c-17.2-8.4-34.2-17.3-50.8-26.7c-1.2-0.7-2.4-1.4-3.8-1.4c-1.1,0-2.2,0.4-3.2,0.8c-7.7,2.8-15.9,4-24,3.5"/>
</g>
<g>
	<path class="st0" d="M242.1,210.5c-15,2.1-30.2,1-45.3-0.2c-6.9-0.5-14.1-1.2-20.1-4.5c-4.1-2.3-7.5-5.8-10.8-9.2"/>
</g>
<g>
	<path class="st0" d="M198.4,217.9c-11.2-4.3-22.7-8.7-31.3-17.1c-4.1-4-7.4-8.7-11.2-12.8c-6.4-6.9-14.5-12.3-23.4-15.6"/>
</g>
<g>
	<path class="st0" d="M128.4,179c7.3,1.7,14.2,5.2,20,9.9c3.1,2.5,5.9,5.5,8.9,8.2c16,14.5,36.8,22.5,57.8,27.8"/>
</g>
<g>
	<path class="st0" d="M241.5,219.2c-9.6,6-21.4,8-32.7,7.1c-11.3-0.9-22.2-4.7-32.5-9.5c-3.9-1.8-7.7-3.8-11.3-6.3
		c-8.1-5.4-14.7-12.7-20.6-20.5"/>
</g>
<g>
	<path class="st0" d="M145.1,202.8c-5.1-4.2-10.2-8.3-15.3-12.5c-5-4-10.5-8.3-16.9-8"/>
</g>
<g>
	<path class="st0" d="M140.1,188.1c-4-2-8.3-3.4-12.6-4.1"/>
</g>
<g>
	<path class="st0" d="M265.8,193.9c-8.3-0.7-17.1-1.3-24.8,1.9"/>
</g>
<g>
	<path class="st0" d="M241.8,199.5c-10.4-1.1-21.1,0.2-30.9,3.8c-2.4,0.9-4.9,2-7.4,2.4c-2.6,0.4-5.4,0.2-7.5-1.3
		c-1.4-1-2.4-2.5-3.7-3.7c-1.3-1.2-3.1-2.1-4.8-1.6"/>
</g>
<g>
	<path class="st0" d="M231.8,194.6c-2.8,0-5.6,0.9-8,2.4"/>
</g>
<g>
	<path class="st0" d="M215.7,198.3c-4.3-1.6-8.8-2.5-13.3-2.6c-4.7-0.1-9.4,0.5-13.9-0.7c-10.2-2.7-16.6-14-27-15.7"/>
</g>
<g>
	<path class="st0" d="M174.9,198.3c-5-6.4-11.7-11.6-19.1-14.9"/>
</g>
<g>
	<path class="st0" d="M238.8,186.1c-9.5-0.4-18.9,0.6-28.3,1.5c-1.1,0.1-2.3,0.2-3.3,0.8s-1.8,1.5-1.8,2.7"/>
</g>
<g>
	<path class="st0" d="M227.7,178.5c-5.9,3.7-12.7,5.8-19.6,6.2c-2.4,0.1-5.1,0-7-1.6c-1.1-0.9-1.9-2.3-2.8-3.4
		c-1.8-2-4.3-3.1-6.8-4.1c-7.5-2.9-15.2-5.3-23-7.2"/>
</g>
<g>
	<path class="st0" d="M222.8,172c-4,1.6-8,3.2-12,4.8c-0.5,0.2-1.1,0.4-1.7,0.4c-0.5-0.1-0.9-0.3-1.4-0.6c-3.8-2.2-7.6-4.5-11.4-6.7
		c-8.2-4.9-17.4-9.9-26.8-8.3"/>
</g>
<g>
	<path class="st0" d="M221.8,167.4c-8.5-0.4-16.5-4.3-24.4-7.4c-8-3.1-16.8-5.6-25-3"/>
</g>
<g>
	<path class="st0" d="M161.5,167.7c-4.2,0.7-8.2,2.1-12,4"/>
</g>
<g>
	<path class="st0" d="M255.8,188.2c4.9-0.9,10.1-1.9,13.8-5.4c1.9-1.8,3.6-4.5,6.3-4.7"/>
</g>
<g>
	<path class="st0" d="M284.1,171.5c-5.9-3.3-11.8-6.6-17.7-9.9c-1.6-0.9-3.5-1.8-5.2-1.3c-1,0.3-1.9,1.1-2.7,1.9
		c-4.9,4.5-10.9,8-17.3,10"/>
</g>
<g>
	<path class="st0" d="M272,172.4c-1.4-0.9-2.8-1.7-4.2-2.6c-0.9-0.5-1.8-1.1-2.7-1.4c-2.7-0.8-5.6,0.3-7.9,2
		c-2.3,1.7-4.1,3.8-6.3,5.5c-3.7,2.8-8.3,4.2-12.8,5.5"/>
</g>
<g>
	<path class="st0" d="M236,168.7c8.6-4.3,16.8-9.3,24.5-14.9c1.8-1.3,3.7-2.6,5.9-2.7c2.5-0.1,4.7,1.5,6.7,3
		c4.6,3.4,9.2,6.9,13.8,10.3"/>
</g>
<g>
	<path class="st0" d="M280.1,157.2c0.3-0.8,0.5-1.6,1.1-2.2s1.5-1,2.2-0.7c0.3,0.1,0.5,0.3,0.8,0.6c1.8,1.5,3.6,3.1,5.3,4.6"/>
</g>
<g>
	<path class="st0" d="M297.6,156.9c-4.2-3.4-8.4-6.7-12.6-9.9c-0.5-0.4-1.1-0.8-1.8-0.9c-0.5,0-0.9,0.2-1.4,0.4
		c-3.4,1.4-6.9,2.9-10.3,4.3"/>
</g>
<g>
	<path class="st0" d="M270.8,146.7c2.4-1.5,4.7-3,7.1-4.5c0.7-0.5,1.5-1,2.4-1c0.8,0,1.5,0.4,2.2,0.8c4.2,2.3,8.4,4.6,12.5,7"/>
</g>
<g>
	<path class="st0" d="M304,148c-4.1-1.5-8-3.8-11.2-6.7c-1.6-1.5-3.2-3.1-5.3-3.9c-2.5-1-5.4-0.5-8,0.5c-2.5,1-4.8,2.6-7.2,3.9
		c-3.7,1.9-7.6,3.2-11.6,4.4"/>
</g>
<g>
	<path class="st0" d="M255.2,149.1c-5.2,2.4-10,5.5-14.5,9.1"/>
</g>
<g>
	<path class="st0" d="M243.2,239.4c-13.6,6.3-28.9,7.3-43.8,8.3c-10.4,0.7-20.9,1.4-31.3,2"/>
</g>
<g>
	<path class="st0" d="M239.1,246.2c-21,4.2-42,8.5-63.3,10.5c-6.1,0.6-12.3,1-18.4-0.1c-3.9-0.7-7.6-2-11.4-2.9
		c-12.4-3.1-25.3-2.7-38-2.3c-15.7,0.5-31.7,1.2-46.5,6.5"/>
</g>
<g>
	<path class="st0" d="M228.5,256.1c-26.1,0.9-51.8,8.8-77.8,6.6c-9.3-0.8-18.4-2.8-27.7-3.9c-17.2-1.9-34.6-0.4-51.5,3.1"/>
</g>
<g>
	<path class="st0" d="M223.1,264.4c-24.1,0-48.1,1-72.1,2.9c-4.7,0.4-9.5,0.8-14.2,0.4c-4.9-0.5-9.7-1.8-14.5-2.8
		c-17.3-3.5-35.3-1.5-52.6,2"/>
</g>
<g>
	<path class="st0" d="M159,248.6c-7.3-2-14.6-4.1-21.9-6.1c-6.7-1.9-13.6-3.8-20.5-2.8c-3.1,0.4-6.1,1.5-9.3,1.6
		c-3.4,0.1-6.8-0.9-10.1-1.5c-9.2-1.6-18.6,0-28-0.1c-17.5-0.1-35.1-5.9-52.4-3.1"/>
</g>
<g>
	<path class="st0" d="M169.3,246.2c-10.6-3.3-21.1-6.6-31.7-9.9c-7.4-2.3-14.8-4.6-22.6-5.2c-15.1-1.1-30.1,4.6-45.2,3.1
		c-9.4-0.9-18.3-4.7-27.6-6.6s-19.7-2-27.3,3.7"/>
</g>
<g>
	<path class="st0" d="M182.1,243.7c-4.8-0.3-9.5-1.6-13.7-3.9"/>
</g>
<g>
	<path class="st0" d="M195.7,240c-12.5-1.7-24.6-5.9-36.5-10.1c-5.4-1.9-10.8-3.8-15.5-7.1c-1.8-1.2-3.5-2.7-5.5-3.4
		c-1.7-0.6-3.5-0.6-5.2-0.7c-9.6-0.3-19.3-0.5-28.9-0.8"/>
</g>
<g>
	<path class="st0" d="M94.4,216.9c-9.7,0.7-19.5-0.1-29-2.5c-6.1-1.5-12.1-3.7-18.4-3.7"/>
</g>
<g>
	<path class="st0" d="M176.2,232.8c-21.3-5-38.9-20.2-59.8-26.2c-7-2-14.9-2.8-21.1,1c-2.2,1.4-4.1,3.3-6.6,4.1
		c-2.8,0.9-5.8,0.2-8.7-0.5c-13.8-3.3-27.9-6.8-39.6-14.9c-1-0.7-2-1.4-3.1-1.5c-1.2-0.1-2.3,0.4-3.4,0.9
		c-10.4,4.7-20.7,9.6-30.9,14.7"/>
</g>
<g>
	<path class="st0" d="M158.1,238.3c-8.9-3.7-17.6-7.9-26-12.6c-3.5-1.9-7.4-4-11.3-3.1"/>
</g>
<g>
	<path class="st0" d="M114.4,222.6c-7.8,0.9-15.7,1.4-23.7,1.5"/>
</g>
<g>
	<path class="st0" d="M80.5,225c-13.4-1.4-26.5-5.9-37.9-13c-0.8-0.5-1.6-1-2.5-1c-0.9,0-1.7,0.4-2.4,0.8c-10.2,5-21.2,8.3-32.5,9.5
		"/>
</g>
<g>
	<path class="st0" d="M38.1,204.9c-4.7-0.4-9.2,1.7-13.4,3.7c-5.6,2.7-11.2,5.4-16.9,8.2"/>
</g>
<g>
	<path class="st0" d="M69.5,198.1c-6.4-0.8-12.7-2.8-18.4-6"/>
</g>
<g>
	<path class="st0" d="M92.8,182.4c-9.6-1.2-19.4,0.2-28.3,4.1"/>
</g>
<g>
	<path class="st0" d="M90.4,175.1c-3.3-0.1-6.6-0.3-9.9-0.4c-2.1-0.1-4.3-0.2-6.3,0.4c-1.6,0.5-3,1.3-4.4,2.2
		c-4.2,2.6-8.4,5.2-12.7,7.7"/>
</g>
<g>
	<path class="st0" d="M40.1,185.6c0.6-2.2-1.7-4-3.6-5.2c-4-2.4-8-4.8-12-7.1c-1.8-1.1-3.7-2.2-5.7-2.9c-5.1-1.9-11-1.6-15.6-4.5"/>
</g>
<g>
	<path class="st0" d="M42.3,180.4c-2.7-3.1-5.6-5.9-8.7-8.6c-3.3-2.8-7.1-5.5-11.5-5.9c-2.8-0.2-5.7,0.4-8.3-0.7"/>
</g>
<g>
	<path class="st0" d="M35.1,186.7c-6-2.3-10.6-7.6-16.7-9.8c-4.7-1.7-9.9-1.4-14.9-1"/>
</g>
<g>
	<path class="st0" d="M53.1,257.2c-6.7,0.9-13.3-0.8-20-1.9c-3.8-0.6-7.7-1.1-11.6-1.3c-1.6-0.1-3.2-0.1-4.8,0.2
		c-3.3,0.7-6.2,3.2-9.6,3"/>
</g>
<g>
	<path class="st0" d="M27.1,247.1c-4.3,1.2-8.7,1.8-13.1,1.7c-3.9-0.1-7.9-0.7-11.5,0.8"/>
</g>
<g>
	<path class="st0" d="M26.5,243.4c-5.6-0.1-11.2-0.2-16.9-0.4c-3-0.1-6.1-0.1-8.8,1.3"/>
</g>
<g>
	<path class="st0" d="M12.4,235.8c-4.1-0.5-8.2-0.6-12.3-0.2"/>
</g>
<g>
	<path class="st0" d="M14.8,226c-2.1-0.3-4.2,0.9-6.2,1.7c-2.8,1.1-5.9,1.4-8.8,0.9"/>
</g>
<g>
	<path class="st0" d="M157.2,251.1c-12.3-4.1-25.3-5.9-38.2-5.2c-4,0.2-8.1,0.7-12.1-0.1c-2.9-0.5-5.6-1.6-8.5-2.3
		c-12.7-2.9-25.8,3.8-38.7,2.4c-8.6-0.9-17.1-5.4-25.5-3.1"/>
</g>
<g>
	<path class="st0" d="M63.1,262c-20.8,2.7-42,2.1-62.6-1.8"/>
</g>
<g>
	<path class="st0" d="M69.5,250.7c-8.4,0.1-16.7-0.5-24.9-2c-5.1-0.9-10.7-2-15.3,0.4"/>
</g>
<g>
	<path class="st0" d="M28.8,192.1c-5.2-0.5-10.5,0.1-15.4,1.7c-0.6,0.2-1.2,0.4-1.7,0.8c-0.6,0.4-1.1,1-1.6,1.5
		c-2.8,3-6.2,5.2-9.6,7.4"/>
</g>
<g>
	<path class="st0" d="M26.7,187.7c-5.7,0.2-11.4-1.3-16.4-4.1c-0.6-0.3-1.3-0.7-1.9-0.5c-0.5,0.1-0.8,0.5-1.2,0.9
		c-3,3.1-6.6,5.7-10.5,7.6"/>
</g>
</svg>
