<svg version="1.1" id="Camada_2" xmlns="http://www.w3.org/2000/svg" xmlns:xlink="http://www.w3.org/1999/xlink" x="0px" y="0px"
	 viewBox="0 0 537 673" style="enable-background:new 0 0 537 673;" xml:space="preserve">

	 <style type="text/css">

	 	<defs>
	 	<style>


	 	#Camada_2{


	 	fill:rgba(255, 255, 255, 0);
	 	stroke-dasharray:1800;
	 	stroke-dashoffset:0;
	 	-webkit-animation: dash 8s linear backwards;
	 	-o-animaiton: dash 8s linear backwards;
	 	-moz-animation: dash 8s linear backwards;
	 	animation: dash 8s linear backwards;
	 	}

	 	@-webkit-keyframes dash{
	 	from{
	 	stroke-dashoffset: 1800;

	 	}
	 	to{
	 	stroke-dashoffset: 0;

	 	}}
	</style>



	 	</defs>


	 	.st0{stroke:rgba(255, 255, 255, 0.5);stroke-width:2;stroke-miterlimit:1;}
	 </style>


<g id="Camada_1">
	<g>
		<g>
			<path class="st0" d="M423.8,118.7c16.5,18.5,40.4,25.6,60.8,38.4c4.9,3.1,10,5.1,15.1,7.8c3.3,1.7,6,3,9.7,1.8c10.9-3.5,21.6-12.9,28.6-21.6
				c0.6-0.7-0.5-1.8-1.1-1.1c-6.8,8.5-16.4,16.9-26.8,20.7c-5.8,2.1-9.9-1.5-15-3.5c-5.7-2.3-10.5-6.1-15.9-8.9
				c-18.9-10.2-39.7-18.2-54.4-34.6C424.2,116.9,423.2,118,423.8,118.7L423.8,118.7z"/>
		</g>
	</g>
	<g>
		<g>
			<path class="st0" d="M425.2,117.7c-1.3-14.3,20.4-20.2,30.5-24.8c12.6-5.7,23-12.8,32.3-23c10.1-11,19.6-22.6,29.4-33.9
				c8.2-9.5,17.5-19,20.9-31.4c0.3-0.9-1.2-1.3-1.4-0.4c-4.1,14.7-16.5,26-26.1,37.3c-9.7,11.3-19,23.4-29.8,33.6
				c-10.7,10.2-23.8,15.5-37.1,21.5c-8.6,3.9-21.2,9.7-20.1,21.1C423.8,118.7,425.3,118.7,425.2,117.7L425.2,117.7z"/>
		</g>
	</g>
	<g>
		<g>
			<path class="st0" d="M233.5,149.7c0.9-19.9,12.7-36.7,27.5-49.2c14.3-12.2,31-22.3,48-30.2c17.4-8,36.3-13.6,55.6-13.8
				c20-0.3,38.4,7.1,57.8,10.8c21.6,4.2,43.8,4.9,65.6,2.2c0.9-0.1,1-1.6,0-1.5c-21.7,2.6-43.7,2-65.2-2.2
				C402.9,62,384.1,54.6,363.7,55c-37.1,0.8-74.4,20-102.4,43.3c-15.6,13-28.3,30.5-29.3,51.4C232,150.7,233.5,150.7,233.5,149.7
				L233.5,149.7z"/>
		</g>
	</g>
	<g>
		<g>
			<path class="st0" d="M329.7,148c-21.8-8.6-45.7-11-68.7-7c-24.6,4.3-44.4,16.9-65.1,30.2c-23,14.7-47.4,24.4-75.1,23.6
				c-3.7-0.1-8.1-0.8-11.2,1.8c-3.7,3-4.4,9.1-6.8,13c-6.7,10.8-18.3,17.3-29.8,21.7c-13,5-26.5,8.5-38.8,15.2
				c-11.3,6.2-21.4,14.3-30.1,23.8c-0.7,0.7,0.4,1.8,1.1,1.1c8.2-9,17.7-16.7,28.4-22.8c11-6.2,22.9-9.8,34.7-13.9
				c9.9-3.5,19.7-7.7,27.6-14.7c3.4-3,6.4-6.4,8.7-10.3c3.4-5.7,3.7-13.4,12.2-13.5c12-0.2,23.4-0.3,35.1-3.1
				c11.5-2.8,22.5-7.3,32.8-13.2c21.4-12.2,40.3-27.8,64.4-34.6c26.4-7.5,54.8-6,80.3,4.1C330.2,149.8,330.6,148.4,329.7,148
				L329.7,148z"/>
		</g>
	</g>
	<g>
		<g>
			<path class="st0" d="M6,272.8c20.4-6.6,40-3.5,60.1,2.7c18.3,5.7,36,11.7,55.5,11.8c10.9,0,21.7-1,32.5-0.9c10.8,0.1,21.1,1.9,31.5,5
				c17.3,5.1,33.5,9.5,51.1,3.4c18.5-6.4,33.9-19.3,52-26.7c0.9-0.4,0.5-1.8-0.4-1.4c-15.6,6.4-29.1,16.7-44.4,23.6
				c-8.8,4-18.2,6.7-28,6.3c-10-0.4-19.5-3.6-29-6.4c-9.5-2.8-19-4.8-28.9-5.2c-10.5-0.4-21,0.5-31.6,0.7
				c-10.7,0.2-21.1-0.6-31.5-3.2c-9.3-2.2-18.4-5.4-27.5-8.2c-20.6-6.4-40.7-9.8-61.7-3C4.6,271.7,5,273.1,6,272.8L6,272.8z"/>
		</g>
	</g>
	<g>
		<g>
			<path class="st0" d="M352.7,249.3c-6.6-4.1-14.8-2.7-20.9,1.8c-7.6,5.6-11.1,14.9-15,23.1c-5.2,11.2-12.4,21-25.6,22.3
				c-12.5,1.3-24.1-4.6-34.8-10.4c-0.8-0.5-1.6,0.8-0.8,1.3c15.8,8.7,38.1,17.9,53.1,2.5c6.8-7,9.7-16.6,14.1-25
				c5.3-10.1,16.9-21.9,29.1-14.3C352.7,251.1,353.5,249.8,352.7,249.3L352.7,249.3z"/>
		</g>
	</g>
	<g>
		<g>
			<path class="st0" d="M311.5,289.8c9.7,5.2,21-0.1,30.2-4.2c11.7-5.2,26.9-11.4,38.3-1.9c0.7,0.6,1.8-0.4,1.1-1.1c-7.7-6.4-18.2-6.3-27.4-3.4
				c-12.4,3.8-28.2,16.3-41.3,9.3C311.4,288,310.6,289.3,311.5,289.8L311.5,289.8z"/>
		</g>
	</g>
	<g>
		<g>
			<path class="st0" d="M300.4,140.2c4.8-5.9,7.8-12.4,9.2-19.8c-0.5,0-1,0-1.4,0c10.1,24.8,39.4,36.1,45.5,63.2c1.8,8.1,1.9,16.5,3.3,24.7
				c1.1,6.8,3.4,13.2,6.1,19.5c5.9,13.5,14.3,25.9,19,39.9c2.9,8.6,4.1,17.5,2.4,26.5c-1.8,9.6-6.4,18.4-10.9,27
				c-0.4,0.9,0.9,1.6,1.3,0.8c7-13.5,13.5-27.4,11.4-43c-1.9-13.9-9.1-26.4-15.5-38.7c-3.6-7-7.2-14.1-9.7-21.6
				c-2.8-8.3-3.5-17-4.5-25.6c-1.7-14.4-6.7-25.6-16.6-36.2c-10.8-11.7-24.3-21.6-30.5-36.8c-0.2-0.6-1.3-0.8-1.4,0
				c-1.3,7.1-4.2,13.5-8.8,19.2C298.8,139.9,299.8,140.9,300.4,140.2L300.4,140.2z"/>
		</g>
	</g>
	<g>
		<g>
			<path class="st0" d="M379.4,283.4c0.7,1.1,1.3,2.2,2,3.3c0.5,0.8,1.8,0.1,1.3-0.8c-0.7-1.1-1.3-2.2-2-3.3
				C380.2,281.8,378.9,282.5,379.4,283.4L379.4,283.4z"/>
		</g>
	</g>
	<g>
		<g>
			<path class="st0" d="M375.2,320.1c-8.8,27.1,8.2,52.5,13.1,78.5c5.1,27.1-5.7,58.4-34,67.4c-0.9,0.3-0.5,1.7,0.4,1.4
				c24.3-7.8,37.1-32.5,36.4-57c-0.9-30.5-24.5-59.1-14.4-90C377,319.6,375.5,319.2,375.2,320.1L375.2,320.1z"/>
		</g>
	</g>
	<g>
		<g>
			<path class="st0" d="M354.3,465.4c-15,4.8-29.8,10-44.4,15.8c-12.7,5-26.3,9.8-37.8,17.2c-11.1,7.2-16.5,17.7-23,28.8
				c-7.6,13-17.1,24.7-27.9,35.1c-0.7,0.7,0.4,1.7,1.1,1.1c9.5-9.1,17.9-19.2,25-30.3c7.8-12.2,13-25.3,25.6-33.5
				c11.7-7.6,25.4-12.4,38.3-17.4c14.3-5.6,28.8-10.8,43.5-15.4C355.7,466.5,355.3,465.1,354.3,465.4L354.3,465.4z"/>
		</g>
	</g>
	<g>
		<g>
			<path class="st0" d="M222.9,559.8c-6.5,8.8-12.7,17.9-18.5,27.3c-5.3,8.6-10.6,17.3-12.7,27.3c-4.2,19.8,1.7,41.1-6.9,60.1
				c-0.4,0.9,0.9,1.6,1.3,0.8c8.2-18.2,3.4-38.1,6.4-57.2c1.7-10.8,7-20.1,12.7-29.3c5.9-9.6,12.2-19,19-28.1
				C224.8,559.7,223.5,559,222.9,559.8L222.9,559.8z"/>
		</g>
	</g>
	<g>
		<g>
			<path class="st0" d="M212.6,574.3c-11.8-1-23,2.6-34.4,5.3c-11.9,2.8-24,4.1-36.2,3.9c-24.1-0.5-47.7-7-68.7-18.7c-0.6-0.3-1.2,0.2-1.1,0.8
				c2.2,9.5-1.6,18.4-2.7,27.8c-1,8.5,1.1,16.6,4.1,24.5c6.8,18,14.5,35.8,21.7,53.7c0.4,0.9,1.8,0.5,1.4-0.4
				c-7.3-17.9-14.9-35.6-21.7-53.7c-3.7-9.8-5.2-18.9-3.2-29.2c1.5-7.7,3.6-15.2,1.8-23.1c-0.4,0.3-0.7,0.6-1.1,0.8
				c20.2,11.3,42.9,17.8,66,18.8c11.4,0.5,22.9-0.4,34.1-2.5c13.3-2.6,26.2-7.7,39.9-6.6C213.6,575.8,213.6,574.3,212.6,574.3
				L212.6,574.3z"/>
		</g>
	</g>
	<g>
		<g>
			<path class="st0" d="M148.9,581c0.8-30,1.7-60,4.6-89.9c2.9-29.6,8.4-59.1,6.2-88.9c-0.1-1-1.6-1-1.5,0c2.2,29.8-3.3,59.3-6.2,88.9
				c-3,29.9-3.8,59.9-4.6,89.9C147.3,582,148.8,582,148.9,581L148.9,581z"/>
		</g>
	</g>
	<g>
		<g>
			<path class="st0" d="M433.4,509.4c-7.5,14.8-18.4,27.2-28.8,39.9c-9.9,12.1-18.7,24.9-25.2,39.2c-11.4,24.9-21.2,59.6-6.2,85.1
				c0.5,0.8,1.8,0.1,1.3-0.8c-8.2-13.9-8.2-30.4-5.5-45.9c2.7-15.2,7.7-30.1,14.8-43.9c13.6-26.7,37.5-46.2,51-72.9
				C435.1,509.3,433.8,508.5,433.4,509.4L433.4,509.4z"/>
		</g>
	</g>
	<g>
		<g>
			<path class="st0" d="M415,544.1c12.1-6.9,25.5-12.5,34.6-23.4c9.6-11.4,15.3-26.1,22.3-39.2c15.2-28.4,33.8-56.6,63.6-71.3
				c0.9-0.4,0.1-1.7-0.8-1.3c-27.8,13.7-46.1,39.3-60.8,65.7c-7.4,13.3-13.3,27.9-22,40.4c-9.4,13.5-23.9,19.8-37.8,27.7
				C413.4,543.3,414.1,544.6,415,544.1L415,544.1z"/>
		</g>
	</g>
	<g>
		<g>
			<path class="st0" d="M476.2,500.1c7.1,7.1,15,13.2,23.7,18.1c8.2,4.6,19.5,7.9,24,16.8c5.9,11.4-2,24.1-8,33.7c-6.4,10.4-12.9,20.8-19.3,31.1
				c-0.5,0.8,0.8,1.6,1.3,0.8c7.1-11.4,14.3-22.7,21.2-34.2c5.1-8.4,10.7-19,7.4-29.1c-2.8-8.7-11.3-13-19-16.8
				c-11.3-5.6-21.4-12.6-30.4-21.5C476.6,498.4,475.6,499.4,476.2,500.1L476.2,500.1z"/>
		</g>
	</g>
	<g>
		<g>
			<path class="st0" d="M481.8,617.7c-11.2,3.6-20.9,11.1-27,21.2c-5.8,9.5-9.3,22.8-2.2,32.5c0.6,0.8,1.9,0,1.3-0.8c-7.1-9.7-3.1-23,2.9-32.2
				c6-9.2,15-15.9,25.4-19.3C483.1,618.9,482.7,617.4,481.8,617.7L481.8,617.7z"/>
		</g>
	</g>
	<g>
		<g>
			<path class="st0" d="M519.6,525.8c-4.3-18.8-3.2-37.4-0.3-56.3c2.7-18,5.5-35.9,8.3-53.9c0.1-0.9-1.3-1.4-1.4-0.4c-3,19.2-6.1,38.4-8.9,57.6
				c-2.6,17.9-3.2,35.6,0.9,53.3C518.3,527.2,519.8,526.8,519.6,525.8L519.6,525.8z"/>
		</g>
	</g>
	<g>
		<g>
			<path class="st0" d="M516.8,568.7c1.8,11.2,8.8,20.6,18.9,25.5c0.9,0.4,1.6-0.9,0.8-1.3c-9.9-4.8-16.5-13.8-18.3-24.6
				C518.1,567.4,516.7,567.8,516.8,568.7L516.8,568.7z"/>
		</g>
	</g>
	<g>
		<g>
			<path class="st0" d="M8.6,273.7c0.6,20,8,39.1,21,54.3c0.4,0.4,1.1,0.2,1.3-0.3c0.9-3.4-0.4-6.6-1-9.9c-0.8-5.1-1-10.2-0.5-15.4
				c1-10.3,4.5-20.1,10.3-28.7c0.5-0.8-0.8-1.6-1.3-0.8c-5.2,7.9-8.7,16.7-10,26c-0.6,4.1-0.8,8.3-0.6,12.5c0.3,4.8,3,11.2,1.7,15.8
				c0.4-0.1,0.8-0.2,1.3-0.3c-12.8-14.9-20-33.6-20.6-53.2C10.1,272.7,8.6,272.7,8.6,273.7L8.6,273.7z"/>
		</g>
	</g>
	<g>
		<g>
			<path class="st0" d="M38.9,271.4c-7.9,14.8-1,30.7,5.6,44.5c0.3,0.7,1.4,0.3,1.4-0.4c-0.5-14.7,4.5-28.7,14.1-39.8c0.6-0.7-0.4-1.8-1.1-1.1
				c-9.9,11.4-15.1,25.8-14.6,40.9c0.5-0.1,0.9-0.3,1.4-0.4c-6.4-13.3-13.2-28.7-5.6-43C40.6,271.3,39.3,270.6,38.9,271.4
				L38.9,271.4z"/>
		</g>
	</g>
	<g>
		<g>
			<path class="st0" d="M353.5,193.5c-12.2-6.6-26.9-13.5-40.1-5.4c-0.8,0.5-0.1,1.8,0.8,1.3c12.7-7.8,26.9-0.9,38.6,5.4
				C353.6,195.3,354.3,194,353.5,193.5L353.5,193.5z"/>
		</g>
	</g>
	<g>
		<g>
			<path class="st0" d="M203.1,216.3c-13.5,4.9-22.6,23.4-12.3,35.8c4.3,5.1,10.8,3.8,14.8-1c6-7.2,7.6-17.9,7.1-26.9c-0.1-1-1.6-1-1.5,0
				c0.4,7.5-0.7,15.2-4.2,21.9c-3.4,6.6-11.6,11.7-16.3,3.1c-6.7-12.1,0.4-27,12.8-31.5C204.4,217.5,204,216,203.1,216.3
				L203.1,216.3z"/>
		</g>
	</g>
	<g>
		<g>
			<path class="st0" d="M202.8,217.9c-9,9.4-11,23.5-5.2,35.1c0.4,0.9,1.7,0.1,1.3-0.8c-5.5-11-3.5-24.4,5-33.3
				C204.5,218.2,203.4,217.2,202.8,217.9L202.8,217.9z"/>
		</g>
	</g>
	<g>
		<g>
			<path class="st0" d="M156.4,288.3c-2.8,5.9-9.2,9.6-10.8,16.1c-1.6,6.7,4.1,10.1,9.7,11.9c0.9,0.3,1.3-1.2,0.4-1.4c-4.2-1.3-9.2-3.7-8.8-9
				c0.2-2.9,2.1-5.4,3.9-7.6c2.4-3,5.3-5.6,6.9-9.2C158.1,288.2,156.8,287.4,156.4,288.3L156.4,288.3z"/>
		</g>
	</g>
	<g>
		<g>
			<path class="st0" d="M150.4,355c-0.2,2,0.3,3.1,0.6,5c0.7,3.5-0.3,6-1.7,9c-1.7,3.7-3.5,7.6-4,11.7c-1,6.9,1.9,12.7,7.8,16.2
				c7.6,4.5,17.6,6.3,26,8.9c10.3,3.1,20.5,6.6,29.9,11.9c0.8,0.5,1.6-0.8,0.8-1.3c-15.3-8.5-32.3-12.1-48.6-17.8
				c-4.7-1.6-9.8-3.4-12.7-7.8c-3-4.6-2.1-10.4-0.4-15.3c1.3-3.6,4.1-7.4,4.9-11.1c0.7-3.3-1.5-6.2-1.1-9.5
				C152,354.1,150.5,354.1,150.4,355L150.4,355z"/>
		</g>
	</g>
	<g>
		<g>
			<path class="st0" d="M154.7,315.8c-1.6,4-6.3,10.5-3.8,14.8c0.5,0.8,1.8,0.1,1.3-0.8c-1.2-2.2,0.5-5.7,1.3-7.7c0.8-2,1.8-3.9,2.6-6
				C156.5,315.3,155.1,314.9,154.7,315.8L154.7,315.8z"/>
		</g>
	</g>
	<g>
		<g>
			<path class="st0" d="M245.2,423.3c10.7,3.5,22.3,2.6,32.4-2.6c5.1-2.6,9.5-6.2,13-10.6c4.3-5.4,7.5-11.5,13.2-15.6c0.8-0.6,0-1.9-0.8-1.3
				c-9.1,6.6-12.9,17.8-22.4,24.1c-10.3,6.8-23.3,8.5-35,4.6C244.7,421.5,244.3,423,245.2,423.3L245.2,423.3z"/>
		</g>
	</g>
	<g>
		<g>
			<path class="st0" d="M183,408.9c8.8,17.7,22.3,32.3,32.5,49.1c10.5,17.2,18.2,35.9,23.1,55.5c0.2,0.9,1.7,0.5,1.4-0.4
				c-4.8-19.1-12.3-37.4-22.3-54.3c-10.4-17.4-24.3-32.4-33.4-50.6C183.9,407.2,182.6,408,183,408.9L183,408.9z"/>
		</g>
	</g>
	<g>
		<g>
			<path class="st0" d="M266.8,497.9c-19.4,16.1-42.4,27-67.1,31.8c-0.9,0.2-0.6,1.4,0.2,1.5c14.2,1,28.5,2.1,42.7,3.1c1,0.1,1-1.4,0-1.5
				c-14.2-1-28.5-2.1-42.7-3.1c0.1,0.5,0.1,1,0.2,1.5c25-4.9,48.2-16,67.8-32.2C268.6,498.3,267.6,497.2,266.8,497.9L266.8,497.9z"
				/>
		</g>
	</g>
	<g>
		<g>
			<path class="st0" d="M240.7,538.1c-23,14.4-46.1,28.9-69.1,43.3c-0.8,0.5-0.1,1.8,0.8,1.3c23-14.4,46.1-28.9,69.1-43.3
				C242.3,538.9,241.6,537.6,240.7,538.1L240.7,538.1z"/>
		</g>
	</g>
	<g>
		<g>
			<path class="st0" d="M312.2,422c-8.6,10.3-16.7,20.9-24.4,31.9c-0.6,0.8,0.7,1.5,1.3,0.8c7.6-10.9,15.6-21.5,24.1-31.6
				C313.9,422.3,312.9,421.2,312.2,422L312.2,422z"/>
		</g>
	</g>
	<g>
		<g>
			<path class="st0" d="M279.5,461.6c-5.5,3.3-10.1,7.7-13.9,12.9c-0.6,0.8,0.7,1.5,1.3,0.8c3.6-5,8.1-9.1,13.3-12.3
				C281.1,462.4,280.4,461.1,279.5,461.6L279.5,461.6z"/>
		</g>
	</g>
	<g>
		<g>
			<path class="st0" d="M170.8,291.3c5,7.9,8.8,16.3,11.4,25.3c0.1,0.5,0.9,0.8,1.3,0.3c5.2-6.1,8.2-13.3,8.7-21.3c0.1-1-1.4-1-1.5,0
				c-0.5,7.6-3.3,14.4-8.2,20.2c0.4,0.1,0.8,0.2,1.3,0.3c-2.6-9.1-6.5-17.7-11.5-25.7C171.6,289.7,170.3,290.5,170.8,291.3
				L170.8,291.3z"/>
		</g>
	</g>
	<g>
		<g>
			<path class="st0" d="M215.5,300.6c3.6,5.1,5.9,10.7,6.6,16.9c0.1,0.6,0.8,1.1,1.3,0.5c6.4-6.9,12.7-14.1,14.7-23.5c0.2-0.9-1.2-1.3-1.4-0.4
				c-1.9,9.2-8.1,16.1-14.3,22.8c0.4,0.2,0.9,0.4,1.3,0.5c-0.8-6.5-3-12.4-6.8-17.7C216.2,299.1,214.9,299.8,215.5,300.6
				L215.5,300.6z"/>
		</g>
	</g>
	<g>
		<g>
			<path class="st0" d="M246.4,291.5c2.5,4.1,4.5,8.5,5.6,13.3c0.5,2,0.5,4.5,2.3,5.9c2.2,1.9,6.1,2.7,8.7,3.7c3.5,1.4,7.5,3.7,11.3,4.2
				c0.3,0,0.5-0.2,0.6-0.4c1.5-2.3,1.9-5.4,2.7-8c1-3.5,2-6.9,3.1-10.4c0.3-0.9-1.2-1.3-1.4-0.4c-1.3,4.3-2,9.9-4.1,13.9
				c-0.1,1.9-1.2,2.9-3.3,3c-1.1-0.4-2.2-0.9-3.4-1.3c-2.2-0.9-4.5-1.8-6.7-2.7c-3-1.2-6.2-1.7-7.6-4.9c-0.8-1.8-0.9-4.2-1.5-6.2
				c-1.2-3.7-2.8-7.2-4.9-10.5C247.2,290,245.9,290.7,246.4,291.5L246.4,291.5z"/>
		</g>
	</g>
	<g>
		<g>
			<path class="st0" d="M236.9,297c0.9,19.7,0.6,39.3-0.9,59c-0.1,0.8,1,0.9,1.4,0.4c5-7.1,9.9-14.3,15-21.3c4.9-6.9,10.3-13.3,17.9-17.4
				c0.9-0.5,0.1-1.8-0.8-1.3c-6.8,3.7-12,9.3-16.6,15.4c-5.8,7.8-11.2,15.9-16.8,23.9c0.5,0.1,0.9,0.3,1.4,0.4
				c1.5-19.6,1.8-39.3,0.9-59C238.4,296.1,236.9,296.1,236.9,297L236.9,297z"/>
		</g>
	</g>
	<g>
		<g>
			<path class="st0" d="M260.1,325.1c7.8,11.9,10.9,25.9,8.7,40c-0.1,0.9,1.3,1.4,1.4,0.4c1.6-9.2,6.3-17,13.8-22.5c0.8-0.6,0-1.9-0.8-1.3
				c-7.8,5.8-12.9,13.9-14.5,23.4c0.5,0.1,1,0.3,1.4,0.4c2.3-14.5-0.8-28.9-8.8-41.2C260.9,323.5,259.6,324.3,260.1,325.1
				L260.1,325.1z"/>
		</g>
	</g>
	<g>
		<g>
			<path class="st0" d="M306.7,293.9c5,21.4,0.5,44-12.2,61.9c0.4,0.3,0.9,0.5,1.3,0.8c9.7-15,19.7-30,33.9-41.1c0.8-0.6-0.3-1.6-1.1-1.1
				c-14.3,11.2-24.4,26.3-34.2,41.4c-0.5,0.8,0.7,1.5,1.3,0.8c13-18.2,17.4-41.3,12.3-63C307.9,292.5,306.4,292.9,306.7,293.9
				L306.7,293.9z"/>
		</g>
	</g>
	<g>
		<g>
			<path class="st0" d="M326.9,293.6c0.1,7.7,0.3,15.5,0.4,23.2c0,7.4-0.5,15-5.3,21c0.4,0.2,0.8,0.5,1.3,0.7c4.9-12,12.2-22.5,21.7-31.2
				c0.7-0.7-0.3-1.7-1.1-1.1c-9.7,8.9-17.2,19.7-22.1,31.9c-0.3,0.7,0.8,1.3,1.3,0.7c4.1-5.1,5.4-11.2,5.7-17.6
				c0.4-9.2-0.2-18.5-0.3-27.7C328.4,292.7,326.9,292.7,326.9,293.6L326.9,293.6z"/>
		</g>
	</g>
	<g>
		<g>
			<path class="st0" d="M338.1,290.6c7.3,11.3,8.5,24.7,8.7,37.8c0.2,13.6,0.4,27.5-3.2,40.6c-0.2,0.8,1,1.4,1.4,0.6
				c6.9-15.6,16.8-29.4,29.4-40.9c0.7-0.7-0.3-1.7-1.1-1.1c-12.7,11.6-22.7,25.5-29.7,41.2c0.5,0.2,0.9,0.4,1.4,0.6
				c3.8-13.8,3.6-28.5,3.3-42.7c-0.3-12.9-1.8-25.8-8.9-36.9C338.8,289.1,337.5,289.8,338.1,290.6L338.1,290.6z"/>
		</g>
	</g>
	<g>
		<g>
			<path class="st0" d="M364.4,337.2c-7.5,21.8-8,46.1-20.9,65.9c-0.4,0.6,0.4,1.5,1,1c12.1-8.7,21.7-20,28.3-33.3c-0.5-0.1-0.9-0.3-1.4-0.4
				c-1.1,15.5-11.6,27.3-20.6,39.1c-9.7,12.7-14.8,26.1-19.1,41.3c-2.2,7.9-6,13.9-13.9,16.8c-8,2.9-17.2,3-25.5,3.5
				c-4.1,0.2-19.2-2.3-18.6,4.9c0.1,1,1.6,1,1.5,0c-0.4-4.8,11.2-3.3,14.2-3.3c7.4,0,15.2-0.7,22.5-2c5.4-0.9,10.7-2.8,14.7-6.7
				c4.5-4.4,5.8-10.3,7.5-16.1c2.4-8.6,5-17.1,9.4-24.9c3.6-6.5,8.4-12.4,12.9-18.2c7.9-10.2,15.6-21,16.5-34.3
				c0.1-0.7-1.1-1-1.4-0.4c-6.5,13.1-15.9,24.3-27.8,32.8c0.3,0.3,0.7,0.7,1,1c12.9-19.9,13.5-44.3,21-66.3
				C366.2,336.7,364.7,336.3,364.4,337.2L364.4,337.2z"/>
		</g>
	</g>
	<g>
		<g>
			<path class="st0" d="M345.6,350.1c-2.6,11.9-15.2,17.5-25.9,11.5c-0.8-0.5-1.6,0.8-0.8,1.3c11.5,6.4,25.2,0.4,28.1-12.4
				C347.2,349.6,345.8,349.2,345.6,350.1L345.6,350.1z"/>
		</g>
	</g>
	<g>
		<g>
			<path class="st0" d="M324.6,367.3c-1.3,2.7-3.1,5.1-5.2,7.2c-0.7,0.7,0.4,1.8,1.1,1.1c2.2-2.2,4-4.7,5.4-7.5
				C326.3,367.2,325,366.4,324.6,367.3L324.6,367.3z"/>
		</g>
	</g>
	<g>
		<g>
			<path class="st0" d="M340,337.7c-0.1-2.8,1.2-4.7,4-5.7c0.9-0.3,0.5-1.6-0.4-1.4c-3.7,0.5-6,3.1-6.4,6.7c0.5,0,1,0,1.5,0
				c0.1-4.2,4.3-4.7,6.6-7.1c1.4-1.5,2.1-3.2,2.3-5.3c0.4-3.7-1.2-7.1-3.8-9.8c-0.7-0.7-1.7,0.4-1.1,1.1c2.2,2.3,3.7,5.3,3.3,8.5
				c-0.4,3.8-2.9,5-5.6,7c-2,1.5-3.2,3.1-3.2,5.5c0,1,1.4,0.9,1.5,0c0.3-3,2.5-4.8,5.3-5.2c-0.1-0.5-0.3-1-0.4-1.4
				c-3.3,1.1-5.1,3.6-5.1,7.1C338.5,338.7,340,338.7,340,337.7L340,337.7z"/>
		</g>
	</g>
	<g>
		<g>
			<path class="st0" d="M285.1,357.6c-0.9-10.7-1.7-21.8,3.9-31.5c5.2-8.9,13.1-16.6,19.7-24.4c0.6-0.7-0.4-1.8-1.1-1.1
				c-7,8.3-15.7,16.5-20.8,26.2c-5,9.5-4.2,20.4-3.3,30.7C283.6,358.6,285.1,358.6,285.1,357.6L285.1,357.6z"/>
		</g>
	</g>
	<g>
		<g>
			<path class="st0" d="M308.3,330.4c-11.9,7.9-21.1,18.9-26.7,32.1c-0.4,0.9,0.9,1.6,1.3,0.8c5.5-12.9,14.5-23.8,26.2-31.5
				C309.8,331.2,309.1,329.9,308.3,330.4L308.3,330.4z"/>
		</g>
	</g>
	<g>
		<g>
			<path class="st0" d="M204,217.1c3.8,0.4,6.9,3.5,7.2,7.3c0.1,1,1.6,1,1.5,0c-0.4-4.6-4.1-8.3-8.7-8.8C203,215.5,203,217,204,217.1L204,217.1z
				"/>
		</g>
	</g>
	<g>
		<g>
			<path class="st0" d="M151.2,353.5c1.6-5.5,8.9-4.3,13.2-4.1c3.8,0.1,7.6,0.3,11.4,0.4c0.4,0,0.7-0.4,0.8-0.8c0.6-4.7-4.4-7.4-7.8-9.6
				c-5.4-3.6-11.3-6.3-17.4-8.5c-0.9-0.3-1.3,1.1-0.4,1.4c5.2,1.8,10.2,4.1,14.9,7c2,1.2,6.2,3.2,7.5,5.3c0.2,1.2,0.4,2.4,0.6,3.6
				c-0.6,0-1.3,0-1.9-0.1c-1.3,0.4-3.4-0.1-4.8-0.2c-5.7-0.2-15.4-2.2-17.5,5.1C149.5,354.1,151,354.4,151.2,353.5L151.2,353.5z"/>
		</g>
	</g>
	<g>
		<g>
			<path class="st0" d="M155.3,334.4c2.3,3.8,3.4,7.9,3.3,12.3c0,1,1.5,1,1.5,0c0.1-4.6-1.1-9-3.5-13C156.1,332.8,154.8,333.6,155.3,334.4
				L155.3,334.4z"/>
		</g>
	</g>
	<g>
		<g>
			<path class="st0" d="M425.7,118c-4.5-2.9-7.1-7.7-7.1-13.1c0-1-1.4-1-1.5,0c-0.2,4.7,1.9,9,5.9,11.6c0.8,0.5,1.6-0.8,0.8-1.3
				c-3.5-2.4-5.3-6.1-5.1-10.3c-0.5,0-1,0-1.5,0c0,5.9,2.8,11.2,7.8,14.4C425.8,119.8,426.5,118.5,425.7,118L425.7,118z"/>
		</g>
	</g>
	<g>
		<g>
			<path class="st0" d="M155.7,316c1.3,0.3,2.7,0.7,4,1c0.9,0.2,1.3-1.2,0.4-1.4c-1.3-0.3-2.7-0.7-4-1C155.2,314.3,154.8,315.7,155.7,316
				L155.7,316z"/>
		</g>
	</g>
</g>
<g id="Camada_2">
</g>
</svg>
